<?xml version="1.0" encoding="utf-8"?>
<!-- Generator: Adobe Illustrator 28.3.0, SVG Export Plug-In . SVG Version: 6.00 Build 0)  -->
<svg version="1.1" id="Слой_1" xmlns="http://www.w3.org/2000/svg" xmlns:xlink="http://www.w3.org/1999/xlink" x="0px" y="0px"
	 viewBox="0 0 423 204.5" style="enable-background:new 0 0 423 204.5;" xml:space="preserve">
<style type="text/css">
	.st0{enable-background:new    ;}
</style>
<g class="st0">
	<path d="M71.7,91.7L94,39.2l0.9-2.2c7.3-17.2,11-27.4,11-30.6c0-0.1,0-0.3-0.1-0.5c-0.1-0.2-0.1-0.4-0.1-0.5c3,0.2,5.8,0.3,8.2,0.4
		s4.6,0.1,6.5,0.1c1.8,0,3.9,0,6.2-0.1c2.4-0.1,5-0.2,7.8-0.4v5.5h-0.9c-4.5,0-7.5,0.8-9.2,2.4c-1.7,1.6-2.5,4.5-2.5,8.6
		c0,1.6,0.1,5.2,0.3,10.7c0.2,5.5,0.5,11.5,0.8,18l1.3,22.5l0.1,2.2c1.1,19.9,2,31.2,2.6,33.8c0.3,1.5,1.3,2.7,2.8,3.6
		c1.6,0.9,3.7,1.3,6.2,1.3h1.9v5.6c-4.1-0.2-7.8-0.4-11.3-0.5c-3.5-0.1-6.4-0.2-8.7-0.2c-2.7,0-5.7,0.1-9.1,0.2
		c-3.4,0.1-7,0.3-10.9,0.5v-5.8c0.5,0,1.1,0,1.8,0.1c0.7,0.1,1.2,0.1,1.5,0.1c3.9,0,6.6-0.7,8.1-2.2c1.5-1.4,2.3-4.1,2.3-7.8
		c0-1.8,0-3.5-0.1-5.2c-0.1-1.7-0.1-3.5-0.2-5.3l-3-68.8l-31.6,75.4c-0.1,0.1-0.2,0.3-0.3,0.7c-2.5,5.3-4.3,10.9-5.5,16.9h-5.1
		c-0.7-3.3-2.5-8.4-5.4-15.2l-0.3-0.7l-31-73c-0.3,5.7-0.7,13.5-1.3,23.5c-1.4,24.7-2.2,40.2-2.2,46.5v0.8c0,6.8,0.7,10.9,2.2,12.3
		c1.5,1.4,4.5,2.1,9,2.1h1.6v5.6c-3.3-0.2-6.5-0.4-9.6-0.5c-3.1-0.1-6-0.2-8.9-0.2c-2.1,0-4.6,0.1-7.7,0.2c-3.1,0.1-6.3,0.3-9.8,0.5
		v-5.6h2.2c2.9,0,5.1-0.4,6.5-1.1c1.4-0.7,2.6-2.1,3.4-3.9c1-2.2,2-11,3-26.6c0.3-4.3,0.5-7.7,0.7-10.2L19.7,53v-0.2
		c1.4-19.1,2.1-30,2.1-32.6c0-3.4-0.8-5.7-2.3-7c-1.6-1.3-4.5-2-8.9-2H9.3V5.6c0.4,0,1.1,0,2,0.1c6,0.4,10.1,0.6,12.5,0.6
		C25.6,6.2,29,6,34,5.7c1.6-0.1,2.8-0.2,3.6-0.2V6c0,4.7,8.7,27.1,26.1,67.2L71.7,91.7z"/>
	<path d="M149.4,5.6c3.6,0.2,7.2,0.4,10.7,0.5c3.5,0.1,7,0.2,10.4,0.2c2.9,0,6.1-0.1,9.6-0.2c3.5-0.1,7.3-0.3,11.2-0.5V11h-1.3
		c-3.3,0-5.8,0.4-7.5,1.2c-1.7,0.8-2.8,2.1-3.5,4c-0.4,1.2-0.7,3.2-0.9,6c-0.2,2.7-0.3,7.2-0.3,13.4v15.9v39.9
		c0,6.3,0.1,10.7,0.4,13.3c0.3,2.6,0.7,4.5,1.3,5.7c0.7,1.3,1.9,2.3,3.6,2.9c1.7,0.6,4.1,0.9,7.3,0.9h1.6v5.6
		c-4.4-0.2-8.5-0.4-12.2-0.5c-3.7-0.1-6.9-0.2-9.4-0.2c-3,0-6.3,0.1-10.1,0.2c-3.7,0.1-7.7,0.3-11.8,0.5v-5.6h1.5
		c3.2,0,5.6-0.3,7.3-0.9c1.7-0.6,2.9-1.5,3.5-2.9c0.7-1.4,1.2-3.8,1.5-7.1c0.3-3.3,0.4-9.2,0.4-17.8V72.8V41.5
		c0-8.4-0.1-14.3-0.3-17.9c-0.2-3.5-0.5-6-1-7.4c-0.6-1.9-1.7-3.2-3.3-4c-1.6-0.8-4.1-1.2-7.5-1.2h-1.4V5.6z"/>
	<path d="M243.2,5.6V11c-0.3,0-0.7,0-1.3-0.1c-0.6-0.1-1-0.1-1.2-0.1c-4.1,0-6.8,1.4-8.2,4.2c-1.4,2.8-2.2,9.4-2.2,19.8v12.6V64
		c0,8.6,0.3,15,0.8,19.1c0.5,4.1,1.4,7.5,2.5,10.2c2.5,5.8,6.2,10.2,11.1,13.2c4.9,3,10.8,4.5,17.8,4.5c5.2,0,9.7-0.8,13.6-2.3
		c3.9-1.5,7.2-3.9,10-7.1c2.8-3.2,4.7-7.1,5.9-11.8c1.1-4.6,1.7-12.4,1.7-23.2c0-13-0.1-24-0.4-32.9c-0.3-8.9-0.7-14.3-1.1-16.1
		c-0.7-2.5-1.8-4.2-3.4-5.1c-1.5-1-4-1.4-7.4-1.4h-1.2V5.6c0.6,0,1.5,0,2.7,0.1c7.1,0.4,12.1,0.6,15.2,0.6c3,0,8-0.2,15.1-0.6
		c1.2-0.1,2.1-0.1,2.7-0.1V11H315c-3,0-5.3,0.4-6.8,1.2c-1.5,0.8-2.6,2.1-3.3,4c-0.6,1.5-1,5.6-1.2,12.2c-0.3,6.6-0.4,17.2-0.4,32v8
		c0,8.4-0.3,14.9-0.9,19.3c-0.6,4.5-1.6,8.4-3,11.8c-2.9,7.1-7.8,12.7-14.9,16.7c-7,4.1-15.3,6.1-24.9,6.1c-6.6,0-12.7-1-18.3-3
		c-5.6-2-10.3-5-14.2-8.8c-4.3-4.1-7.3-8.8-9.1-14.4c-1.8-5.5-2.7-13.2-2.7-23.2c0-3.8,0.1-10.1,0.2-18.9c0.1-8.7,0.2-15.5,0.2-20.5
		v-2.5c0-9.2-0.7-14.8-2.2-17c-1.5-2.1-4.3-3.2-8.6-3.2h-1.4V5.6c3.6,0.2,7.1,0.4,10.4,0.5c3.3,0.1,6.3,0.2,9,0.2
		c3.3,0,6.6-0.1,10-0.2C236.3,5.9,239.7,5.8,243.2,5.6z"/>
	<path d="M329.8,5.6c4.3,0.5,9.2,0.8,14.9,1.1c5.7,0.2,13.5,0.4,23.5,0.4h9.2h9.2c6.2,0,11.6-0.1,16.1-0.4c4.5-0.2,8.8-0.6,12.9-1.1
		l2.2,4.4c-2,1.9-3.9,4-5.9,6.3c-2,2.3-4.2,5.2-6.7,8.6l-60.8,84.2c3.2,0.1,6.6,0.1,10.1,0.1c3.5,0,8.4,0,14.7,0
		c9.8,0,17.2-0.1,22.4-0.4c5.2-0.3,9-0.7,11.5-1.3c2.9-0.6,5.5-2.3,7.7-5.2c2.2-2.9,4.3-7.3,6.2-13.1l5.2,1.7
		c-1.6,5.1-3,10-4.2,14.7c-1.2,4.7-2.1,9.4-2.7,14.1c-5.9-0.6-12.7-1-20.6-1.4c-7.9-0.3-17-0.5-27.4-0.5h-5.9
		c-8.6,0-15.8,0.1-21.6,0.4s-11.3,0.8-16.5,1.4l-2.5-4.7c2.7-2.3,6.3-6.6,10.7-12.7c0.6-0.7,1-1.3,1.3-1.8l60.8-84.8h-25.9
		c-14.8,0-24.4,1.1-28.8,3.4c-4.4,2.3-7.1,6.7-8.2,13.2l-5.1-1.4c1.2-4,2.2-8.1,2.8-12.3C329.2,14.5,329.6,10.1,329.8,5.6z"/>
</g>
<g class="st0">
	<path d="M44.2,178l8.6,1.1c-0.9,6-3.3,10.6-7.2,14c-3.9,3.4-8.6,5.1-14.3,5.1c-7.1,0-12.7-2.3-17-7c-4.3-4.6-6.4-11.3-6.4-20
		c0-5.6,0.9-10.5,2.8-14.7c1.8-4.2,4.7-7.4,8.4-9.5c3.8-2.1,7.9-3.2,12.3-3.2c5.6,0,10.2,1.4,13.8,4.3c3.6,2.9,5.9,6.9,6.9,12.2
		l-8.5,1.3c-0.8-3.5-2.2-6.1-4.3-7.9c-2.1-1.8-4.5-2.6-7.5-2.6c-4.4,0-8,1.6-10.7,4.8c-2.8,3.2-4.1,8.2-4.1,15.1c0,7,1.3,12,4,15.2
		c2.7,3.2,6.1,4.7,10.4,4.7c3.4,0,6.3-1.1,8.6-3.2C42.1,185.7,43.6,182.4,44.2,178z"/>
	<path d="M57,171.1c0-9.6,2.7-16.7,8-21.4c4.4-3.8,9.9-5.8,16.2-5.8c7.1,0,12.9,2.3,17.4,7c4.5,4.7,6.8,11.1,6.8,19.4
		c0,6.7-1,11.9-3,15.8c-2,3.8-4.9,6.8-8.7,8.9c-3.8,2.1-8,3.2-12.5,3.2c-7.2,0-13.1-2.3-17.5-7C59.3,186.5,57,179.8,57,171.1z
		 M66,171.1c0,6.7,1.4,11.6,4.3,14.9c2.9,3.3,6.5,5,10.9,5c4.3,0,8-1.7,10.8-5c2.9-3.3,4.3-8.4,4.3-15.2c0-6.4-1.5-11.3-4.4-14.6
		c-2.9-3.3-6.5-5-10.8-5c-4.4,0-8,1.6-10.9,4.9C67.5,159.4,66,164.4,66,171.1z"/>
	<path d="M115.5,197v-71.7h8.8V197H115.5z"/>
	<path d="M137.6,197v-71.7h8.8V197H137.6z"/>
	<path d="M195.3,180.3l9,1.1c-1.4,5.3-4.1,9.4-7.9,12.4c-3.9,2.9-8.8,4.4-14.8,4.4c-7.6,0-13.5-2.3-18-7c-4.4-4.7-6.6-11.2-6.6-19.7
		c0-8.7,2.2-15.5,6.7-20.3c4.5-4.8,10.3-7.2,17.4-7.2c6.9,0,12.5,2.4,16.9,7.1c4.4,4.7,6.6,11.4,6.6,20c0,0.5,0,1.3,0,2.3H166
		c0.3,5.7,1.9,10.1,4.8,13.1c2.9,3,6.5,4.5,10.8,4.5c3.2,0,5.9-0.8,8.2-2.5C192.1,186.7,193.9,184,195.3,180.3z M166.5,166.1h28.8
		c-0.4-4.4-1.5-7.6-3.3-9.8c-2.8-3.4-6.4-5.1-10.8-5.1c-4,0-7.4,1.4-10.1,4.1C168.3,157.9,166.8,161.5,166.5,166.1z"/>
	<path d="M234.4,189.2l1.3,7.8c-2.5,0.5-4.7,0.8-6.6,0.8c-3.2,0-5.6-0.5-7.4-1.5c-1.8-1-3-2.3-3.7-4c-0.7-1.6-1.1-5.1-1.1-10.4
		v-29.9h-6.4v-6.8h6.4v-12.9l8.7-5.3v18.1h8.8v6.8h-8.8v30.4c0,2.5,0.2,4.1,0.5,4.8c0.3,0.7,0.8,1.3,1.5,1.7s1.7,0.6,3,0.6
		C231.5,189.5,232.8,189.4,234.4,189.2z"/>
	<path d="M243,135.5v-10.1h8.8v10.1H243z M243,197v-51.9h8.8V197H243z"/>
	<path d="M261.8,171.1c0-9.6,2.7-16.7,8-21.4c4.4-3.8,9.9-5.8,16.2-5.8c7.1,0,12.9,2.3,17.4,7c4.5,4.7,6.8,11.1,6.8,19.4
		c0,6.7-1,11.9-3,15.8c-2,3.8-4.9,6.8-8.7,8.9s-8,3.2-12.5,3.2c-7.2,0-13.1-2.3-17.5-7C264.1,186.5,261.8,179.8,261.8,171.1z
		 M270.8,171.1c0,6.7,1.4,11.6,4.3,14.9s6.5,5,10.9,5c4.3,0,8-1.7,10.8-5c2.9-3.3,4.3-8.4,4.3-15.2c0-6.4-1.5-11.3-4.4-14.6
		c-2.9-3.3-6.5-5-10.8-5c-4.4,0-8,1.6-10.9,4.9C272.3,159.4,270.8,164.4,270.8,171.1z"/>
	<path d="M320.5,197v-51.9h7.9v7.4c3.8-5.7,9.3-8.6,16.4-8.6c3.1,0,6,0.6,8.6,1.7c2.6,1.1,4.6,2.6,5.9,4.4c1.3,1.8,2.2,4,2.7,6.5
		c0.3,1.6,0.5,4.5,0.5,8.6V197h-8.8v-31.6c0-3.6-0.3-6.3-1-8c-0.7-1.8-1.9-3.2-3.6-4.3c-1.7-1.1-3.8-1.6-6.1-1.6
		c-3.7,0-6.9,1.2-9.7,3.6c-2.7,2.4-4.1,6.9-4.1,13.5V197H320.5z"/>
	<path d="M372.3,181.5l8.7-1.4c0.5,3.5,1.8,6.2,4.1,8c2.2,1.9,5.3,2.8,9.3,2.8c4,0,7-0.8,8.9-2.5c1.9-1.6,2.9-3.6,2.9-5.8
		c0-2-0.9-3.6-2.6-4.7c-1.2-0.8-4.2-1.8-8.9-3c-6.4-1.6-10.9-3-13.3-4.2c-2.5-1.2-4.4-2.8-5.6-4.9c-1.3-2.1-1.9-4.4-1.9-7
		c0-2.3,0.5-4.5,1.6-6.4c1.1-2,2.5-3.6,4.3-4.9c1.4-1,3.2-1.9,5.6-2.6c2.3-0.7,4.9-1.1,7.6-1.1c4.1,0,7.6,0.6,10.7,1.8
		c3.1,1.2,5.3,2.8,6.8,4.8c1.5,2,2.5,4.7,3,8l-8.6,1.2c-0.4-2.7-1.5-4.8-3.4-6.3c-1.9-1.5-4.5-2.2-7.9-2.2c-4,0-6.9,0.7-8.6,2
		c-1.7,1.3-2.6,2.9-2.6,4.7c0,1.1,0.4,2.2,1.1,3.1c0.7,0.9,1.8,1.7,3.4,2.3c0.9,0.3,3.5,1.1,7.7,2.2c6.2,1.7,10.5,3,13,4.1
		c2.4,1.1,4.4,2.6,5.8,4.6c1.4,2,2.1,4.5,2.1,7.5c0,2.9-0.9,5.7-2.6,8.3c-1.7,2.6-4.2,4.6-7.4,6c-3.2,1.4-6.8,2.1-10.9,2.1
		c-6.7,0-11.8-1.4-15.3-4.2C375.6,191.2,373.3,187,372.3,181.5z"/>
</g>
</svg>
