<svg width="100" height="100" viewBox="0 0 100 100" fill="none" xmlns="http://www.w3.org/2000/svg">
<g clip-path="url(#clip0_1_55)">
<rect width="100" height="100" rx="23" fill="white"/>
<circle cx="50" cy="50" r="43.1818" fill="url(#paint0_linear_1_55)"/>
<circle cx="50" cy="50" r="42.9318" stroke="#006DFF" stroke-opacity="0.04" stroke-width="0.5"/>
<path fill-rule="evenodd" clip-rule="evenodd" d="M50.25 0H49.75V49.75H0V50.25H49.75V100H50.25V50.25H100V49.75H50.25V0Z" fill="#6277A1" fill-opacity="0.1"/>
<path d="M27.375 46.375L31.45 36V35.5H32.95C33.7 35.5 34.8417 35.4583 36.375 35.375C36.425 35.6917 36.4083 35.9833 36.325 36.25C35.4083 36.4 34.7417 36.5667 34.325 36.75L35.575 51.75L37.5 52.25C37.55 52.5667 37.5083 52.8583 37.375 53.125C35.875 53.0417 34.8583 53 34.325 53C33.5917 53 32.45 53.0417 30.9 53.125C30.85 52.7917 30.8667 52.5 30.95 52.25C32.05 52.1 32.7167 51.9333 32.95 51.75L31.9 40.8C31.8667 40.4833 31.85 40.0167 31.85 39.4C31.85 38.8833 31.8583 38.5 31.875 38.25H31.8C31.5333 39.25 31.2667 40.1 31 40.8L26.475 52.225C26.1417 52.4083 25.8417 52.4917 25.575 52.475L20.65 40.8C20.4333 40.2833 20.1583 39.4333 19.825 38.25H19.75L19.675 40.825L19.05 51.775L20.975 52.275C21.025 52.5917 20.9833 52.8833 20.85 53.15C20.65 53.1333 20.375 53.1083 20.025 53.075C19.675 53.0583 19.35 53.0417 19.05 53.025C18.7667 53.0083 18.4917 53 18.225 53C17.6583 53 16.7667 53.0417 15.55 53.125C15.5 52.8083 15.5167 52.5167 15.6 52.25C16.3333 52.15 16.9833 51.9833 17.55 51.75L18.55 36.75L16.625 36.25C16.575 35.9333 16.6167 35.6417 16.75 35.375C18.25 35.4583 19.2667 35.5 19.8 35.5H21.425V36L25.5 46.375C25.8 47.075 26.1 48.0583 26.4 49.325H26.45C26.75 48.175 27.0583 47.1917 27.375 46.375ZM44.2492 36.75V51.75L46.1742 52.25C46.2242 52.5667 46.1826 52.8583 46.0492 53.125C44.5492 53.0417 43.5326 53 42.9992 53C42.2659 53 41.1242 53.0417 39.5742 53.125C39.5242 52.775 39.5409 52.4833 39.6242 52.25C40.5409 52.1333 41.2076 51.9667 41.6242 51.75V36.75L39.6992 36.25C39.6492 35.9333 39.6909 35.6417 39.8242 35.375C41.3242 35.4583 42.3409 35.5 42.8742 35.5C43.6242 35.5 44.7659 35.4583 46.2992 35.375C46.3492 35.7083 46.3326 36 46.2492 36.25C45.3826 36.4 44.7159 36.5667 44.2492 36.75ZM63.9209 36.75V46.125C63.9209 47.6083 63.7876 48.8083 63.5209 49.725C63.2709 50.6417 62.8959 51.375 62.3959 51.925C61.8959 52.475 61.2459 52.875 60.4459 53.125C59.6459 53.375 58.6459 53.5 57.4459 53.5C56.2459 53.5 55.2209 53.3917 54.3709 53.175C53.5209 52.975 52.7959 52.6167 52.1959 52.1C51.6126 51.5667 51.1709 50.8417 50.8709 49.925C50.5709 48.9917 50.4209 47.8083 50.4209 46.375V36.75L48.4959 36.25C48.4459 35.9333 48.4876 35.6417 48.6209 35.375C50.1209 35.4583 51.1376 35.5 51.6709 35.5C52.4209 35.5 53.5626 35.4583 55.0959 35.375C55.1459 35.6917 55.1292 35.9833 55.0459 36.25C54.1792 36.3667 53.5126 36.5333 53.0459 36.75V47.125C53.0292 50.5583 54.7042 52.2667 58.0709 52.25C58.7042 52.25 59.2542 52.175 59.7209 52.025C60.2042 51.875 60.6126 51.6583 60.9459 51.375C61.2959 51.075 61.5542 50.7583 61.7209 50.425C61.9042 50.0917 62.0459 49.7583 62.1459 49.425C62.2626 49.075 62.3542 48.6333 62.4209 48.1C62.4876 47.55 62.5209 47.1 62.5209 46.75C62.5376 46.4 62.5459 45.9417 62.5459 45.375V36.75L60.6209 36.25C60.5709 35.9333 60.6126 35.6417 60.7459 35.375C61.9126 35.4583 62.7626 35.5 63.2959 35.5C63.8626 35.5 64.7542 35.4583 65.9709 35.375C66.0209 35.7083 66.0042 36 65.9209 36.25C64.9709 36.3833 64.3042 36.55 63.9209 36.75ZM81.0488 53H68.0988C68.0322 52.55 68.0322 52.175 68.0988 51.875L78.0238 36.625H70.4988L69.7738 40.2C69.3738 40.2667 69.0405 40.2417 68.7738 40.125C68.6072 38.0583 68.5238 36.5167 68.5238 35.5H80.9238C80.9905 35.8667 80.9905 36.2 80.9238 36.5L71.0988 51.875H79.0738L79.7988 48.3C80.1988 48.2333 80.5322 48.2583 80.7988 48.375C80.9655 49.2417 81.0488 50.5417 81.0488 52.275V53Z" fill="black"/>
<path d="M24.29 62.106L24.147 60.94C23.9197 60.8373 23.6447 60.786 23.322 60.786C23.036 60.786 22.783 60.8447 22.563 60.962C22.3503 61.0793 22.1707 61.248 22.024 61.468C21.8773 61.6807 21.7673 61.9373 21.694 62.238C21.6207 62.5387 21.584 62.876 21.584 63.25C21.584 64.02 21.7343 64.603 22.035 64.999C22.343 65.395 22.75 65.593 23.256 65.593C23.7327 65.593 24.2387 65.4207 24.774 65.076C24.8693 65.1273 24.9353 65.2227 24.972 65.362C24.4293 65.912 23.795 66.187 23.069 66.187C22.717 66.187 22.3797 66.121 22.057 65.989C21.7343 65.8497 21.452 65.6517 21.21 65.395C20.968 65.1383 20.7737 64.8303 20.627 64.471C20.4877 64.1117 20.4143 63.7047 20.407 63.25C20.407 62.788 20.4803 62.3737 20.627 62.007C20.781 61.6403 20.9863 61.3323 21.243 61.083C21.4997 60.8263 21.804 60.632 22.156 60.5C22.508 60.368 22.8857 60.302 23.289 60.302C23.8903 60.302 24.4587 60.4193 24.994 60.654C24.994 61.1893 24.9207 61.688 24.774 62.15C24.7447 62.1573 24.686 62.161 24.598 62.161C24.4807 62.161 24.378 62.1427 24.29 62.106ZM26.0002 63.25C26.0002 62.3333 26.2678 61.6073 26.8032 61.072C27.3385 60.5367 27.9948 60.2727 28.7722 60.28C29.6228 60.28 30.2975 60.5623 30.7962 61.127C31.2948 61.6917 31.5442 62.3993 31.5442 63.25C31.5442 64.1813 31.2802 64.911 30.7522 65.439C30.2242 65.967 29.5642 66.2273 28.7722 66.22C27.8995 66.22 27.2175 65.9377 26.7262 65.373C26.2422 64.8083 26.0002 64.1007 26.0002 63.25ZM30.3562 63.404C30.3708 62.7073 30.2462 62.0913 29.9822 61.556C29.7182 61.0207 29.3075 60.753 28.7502 60.753C28.2075 60.753 27.8078 60.9913 27.5512 61.468C27.3018 61.9373 27.1808 62.557 27.1882 63.327C27.1882 63.6643 27.2175 63.9797 27.2762 64.273C27.3422 64.5663 27.4412 64.823 27.5732 65.043C27.7052 65.263 27.8702 65.4353 28.0682 65.56C28.2735 65.6847 28.5155 65.747 28.7942 65.747C29.2488 65.7543 29.6228 65.571 29.9162 65.197C30.2095 64.823 30.3562 64.2253 30.3562 63.404ZM34.351 57.805V65.45L35.198 65.67C35.22 65.8093 35.2017 65.9377 35.143 66.055C34.483 66.0183 34.0357 66 33.801 66C33.5884 66 33.141 66.0183 32.459 66.055C32.437 65.9157 32.4444 65.7873 32.481 65.67C32.8917 65.5673 33.1484 65.494 33.251 65.45V58.454L32.338 58.366C32.316 58.2193 32.3344 58.091 32.393 57.981C33.0017 57.893 33.515 57.794 33.933 57.684C34.0577 57.6913 34.197 57.7317 34.351 57.805ZM37.7423 57.805V65.45L38.5893 65.67C38.6113 65.8093 38.593 65.9377 38.5343 66.055C37.8743 66.0183 37.427 66 37.1923 66C36.9796 66 36.5323 66.0183 35.8503 66.055C35.8283 65.9157 35.8356 65.7873 35.8723 65.67C36.283 65.5673 36.5396 65.494 36.6423 65.45V58.454L35.7293 58.366C35.7073 58.2193 35.7256 58.091 35.7843 57.981C36.393 57.893 36.9063 57.794 37.3243 57.684C37.449 57.6913 37.5883 57.7317 37.7423 57.805ZM40.6166 63.03V63.25C40.6166 63.9833 40.7632 64.5553 41.0566 64.966C41.3572 65.3767 41.7642 65.582 42.2776 65.582C42.6076 65.582 42.8716 65.5527 43.0696 65.494C43.2676 65.428 43.5169 65.2923 43.8176 65.087C43.9349 65.1383 44.0009 65.2263 44.0156 65.351C43.5096 65.901 42.9192 66.1797 42.2446 66.187C41.4012 66.187 40.7266 65.923 40.2206 65.395C39.7146 64.867 39.4579 64.152 39.4506 63.25C39.4579 62.326 39.7219 61.6073 40.2426 61.094C40.7706 60.5733 41.4196 60.313 42.1896 60.313C42.8129 60.313 43.2859 60.5257 43.6086 60.951C43.9386 61.369 44.1036 61.9373 44.1036 62.656C44.1036 62.7807 44.0999 62.876 44.0926 62.942L43.9386 63.063L40.6166 63.03ZM42.1786 60.786C41.8339 60.786 41.5149 60.9437 41.2216 61.259C40.9356 61.567 40.7486 62.007 40.6606 62.579L43.0586 62.447C43.0586 61.8603 42.9926 61.4387 42.8606 61.182C42.7359 60.918 42.5086 60.786 42.1786 60.786ZM49.0989 62.106L48.9559 60.94C48.7285 60.8373 48.4535 60.786 48.1309 60.786C47.8449 60.786 47.5919 60.8447 47.3719 60.962C47.1592 61.0793 46.9795 61.248 46.8329 61.468C46.6862 61.6807 46.5762 61.9373 46.5029 62.238C46.4295 62.5387 46.3929 62.876 46.3929 63.25C46.3929 64.02 46.5432 64.603 46.8439 64.999C47.1519 65.395 47.5589 65.593 48.0649 65.593C48.5415 65.593 49.0475 65.4207 49.5829 65.076C49.6782 65.1273 49.7442 65.2227 49.7809 65.362C49.2382 65.912 48.6039 66.187 47.8779 66.187C47.5259 66.187 47.1885 66.121 46.8659 65.989C46.5432 65.8497 46.2609 65.6517 46.0189 65.395C45.7769 65.1383 45.5825 64.8303 45.4359 64.471C45.2965 64.1117 45.2232 63.7047 45.2159 63.25C45.2159 62.788 45.2892 62.3737 45.4359 62.007C45.5899 61.6403 45.7952 61.3323 46.0519 61.083C46.3085 60.8263 46.6129 60.632 46.9649 60.5C47.3169 60.368 47.6945 60.302 48.0979 60.302C48.6992 60.302 49.2675 60.4193 49.8029 60.654C49.8029 61.1893 49.7295 61.688 49.5829 62.15C49.5535 62.1573 49.4949 62.161 49.4069 62.161C49.2895 62.161 49.1869 62.1427 49.0989 62.106ZM52.711 66.176C52.3003 66.176 51.9887 66.0587 51.776 65.824C51.5707 65.5893 51.468 65.2117 51.468 64.691V61.182H50.698C50.6247 61.0427 50.6063 60.8777 50.643 60.687C51.0537 60.6943 51.3397 60.6137 51.501 60.445C51.6697 60.269 51.8237 59.9023 51.963 59.345H52.546V60.577H53.701C53.8037 60.7897 53.8037 60.9913 53.701 61.182H52.546V64.416C52.546 64.9073 52.5827 65.2337 52.656 65.395C52.7367 65.5563 52.8833 65.6333 53.096 65.626C53.2793 65.626 53.4993 65.5527 53.756 65.406C53.8587 65.472 53.9137 65.582 53.921 65.736C53.8257 65.846 53.668 65.945 53.448 66.033C53.2353 66.1283 52.9897 66.176 52.711 66.176ZM55.0677 58.641C55.0677 58.5017 55.152 58.3587 55.3207 58.212C55.4893 58.0653 55.6653 57.992 55.8487 57.992C56.032 57.992 56.1897 58.0763 56.3217 58.245C56.4537 58.4063 56.5197 58.5713 56.5197 58.74C56.5197 58.8867 56.4353 59.0333 56.2667 59.18C56.1053 59.3193 55.9293 59.389 55.7387 59.389C55.57 59.389 55.416 59.3083 55.2767 59.147C55.1373 58.9783 55.0677 58.8097 55.0677 58.641ZM56.5857 60.511V65.45L57.3227 65.67C57.3447 65.8093 57.3263 65.9377 57.2677 66.055C56.6077 66.0183 56.197 66 56.0357 66C55.8157 66 55.3683 66.0183 54.6937 66.055C54.6717 65.9157 54.679 65.7873 54.7157 65.67C55.1263 65.5747 55.383 65.5013 55.4857 65.45V61.16L54.5727 61.072C54.5507 60.9253 54.569 60.797 54.6277 60.687C55.2363 60.599 55.7497 60.5 56.1677 60.39C56.2923 60.3973 56.4317 60.4377 56.5857 60.511ZM58.2361 63.25C58.2361 62.3333 58.5038 61.6073 59.0391 61.072C59.5744 60.5367 60.2308 60.2727 61.0081 60.28C61.8588 60.28 62.5334 60.5623 63.0321 61.127C63.5308 61.6917 63.7801 62.3993 63.7801 63.25C63.7801 64.1813 63.5161 64.911 62.9881 65.439C62.4601 65.967 61.8001 66.2273 61.0081 66.22C60.1354 66.22 59.4534 65.9377 58.9621 65.373C58.4781 64.8083 58.2361 64.1007 58.2361 63.25ZM62.5921 63.404C62.6068 62.7073 62.4821 62.0913 62.2181 61.556C61.9541 61.0207 61.5434 60.753 60.9861 60.753C60.4434 60.753 60.0438 60.9913 59.7871 61.468C59.5378 61.9373 59.4168 62.557 59.4241 63.327C59.4241 63.6643 59.4534 63.9797 59.5121 64.273C59.5781 64.5663 59.6771 64.823 59.8091 65.043C59.9411 65.263 60.1061 65.4353 60.3041 65.56C60.5094 65.6847 60.7514 65.747 61.0301 65.747C61.4848 65.7543 61.8588 65.571 62.1521 65.197C62.4454 64.823 62.5921 64.2253 62.5921 63.404ZM66.653 60.489L66.62 61.237L66.631 61.248C67.247 60.6467 67.9363 60.3387 68.699 60.324C69.183 60.324 69.5606 60.4633 69.832 60.742C70.1033 61.0133 70.239 61.4057 70.239 61.919L70.25 65.45L71.02 65.67C71.042 65.8093 71.0236 65.9377 70.965 66.055C70.3783 66.0183 69.9566 66 69.7 66C69.436 66 69.0033 66.0183 68.402 66.055C68.38 65.9157 68.3873 65.7873 68.424 65.67C68.6513 65.626 68.8933 65.5527 69.15 65.45V62.414C69.15 61.93 69.073 61.589 68.919 61.391C68.7723 61.193 68.5266 61.094 68.182 61.094C67.588 61.094 67.0966 61.314 66.708 61.754V65.45L67.445 65.67C67.467 65.8093 67.4486 65.9377 67.39 66.055C66.8033 66.0183 66.3926 66 66.158 66C65.938 66 65.4906 66.0183 64.816 66.055C64.794 65.9157 64.8013 65.7873 64.838 65.67C65.19 65.582 65.4466 65.5087 65.608 65.45V61.16L64.695 61.072C64.673 60.9253 64.6913 60.797 64.75 60.687C65.3146 60.5917 65.8243 60.4927 66.279 60.39C66.4036 60.3973 66.5283 60.4303 66.653 60.489ZM72.5439 64.35L72.6539 65.516C72.8959 65.648 73.2296 65.714 73.6549 65.714C73.9776 65.714 74.2489 65.6443 74.4689 65.505C74.6962 65.3657 74.8099 65.1567 74.8099 64.878C74.8099 64.6287 74.6999 64.4123 74.4799 64.229C74.2599 64.0383 73.8822 63.8183 73.3469 63.569C72.8849 63.3563 72.5439 63.1143 72.3239 62.843C72.1112 62.5717 72.0049 62.2233 72.0049 61.798C72.0049 61.2993 72.1846 60.9253 72.5439 60.676C72.9032 60.4267 73.3726 60.302 73.9519 60.302C74.5166 60.302 75.0519 60.4047 75.5579 60.61C75.5579 60.6393 75.5579 60.6797 75.5579 60.731C75.5652 60.7823 75.5689 60.8227 75.5689 60.852C75.5689 61.2847 75.4992 61.7063 75.3599 62.117C75.2866 62.1317 75.2316 62.139 75.1949 62.139C75.0849 62.139 74.9749 62.117 74.8649 62.073L74.6889 60.885C74.4616 60.819 74.2269 60.786 73.9849 60.786C73.6842 60.786 73.4312 60.8483 73.2259 60.973C73.0279 61.0977 72.9252 61.2993 72.9179 61.578C72.9179 61.8273 73.0096 62.04 73.1929 62.216C73.3762 62.392 73.7209 62.601 74.2269 62.843C74.8209 63.129 75.2352 63.4003 75.4699 63.657C75.7046 63.9137 75.8219 64.2363 75.8219 64.625C75.8219 65.1237 75.6276 65.516 75.2389 65.802C74.8576 66.0807 74.3552 66.22 73.7319 66.22C72.9619 66.2347 72.3422 66.088 71.8729 65.78V65.593C71.8656 65.131 71.9316 64.702 72.0709 64.306C72.1149 64.2987 72.1516 64.295 72.1809 64.295C72.3129 64.295 72.4339 64.3133 72.5439 64.35Z" fill="black"/>
</g>
<defs>
<linearGradient id="paint0_linear_1_55" x1="50" y1="6.81818" x2="50" y2="93.1818" gradientUnits="userSpaceOnUse">
<stop stop-color="#FFE0B3"/>
<stop offset="1" stop-color="#EEC47A"/>
</linearGradient>
<clipPath id="clip0_1_55">
<rect width="100" height="100" rx="23" fill="white"/>
</clipPath>
</defs>
</svg>
