<?xml version="1.0" encoding="utf-8"?>
<!-- Generator: Adobe Illustrator 28.3.0, SVG Export Plug-In . SVG Version: 6.00 Build 0)  -->
<svg version="1.1" id="Слой_1" xmlns="http://www.w3.org/2000/svg" xmlns:xlink="http://www.w3.org/1999/xlink" x="0px" y="0px"
	 viewBox="0 0 500 245" style="enable-background:new 0 0 500 245;" xml:space="preserve">
<g>
	<path d="M85.1,115.4l26.2-63.5l1.1-2.6c8.7-20.9,13-33.2,13-37c0-0.1,0-0.3-0.1-0.6c-0.1-0.3-0.1-0.5-0.1-0.6
		c3.6,0.2,6.8,0.3,9.7,0.4c2.9,0.1,5.4,0.1,7.7,0.1c2.1,0,4.6,0,7.4-0.1c2.8-0.1,5.8-0.2,9.2-0.4v6.7H158c-5.3,0-8.9,1-10.9,2.9
		c-2,1.9-3,5.4-3,10.4c0,1.9,0.1,6.3,0.4,13c0.2,6.7,0.5,14,0.9,21.8L147,93l0.1,2.6c1.3,24.2,2.4,37.8,3.1,41
		c0.4,1.9,1.5,3.3,3.4,4.4c1.9,1,4.3,1.5,7.4,1.5h2.3v6.8c-4.8-0.3-9.2-0.5-13.3-0.6c-4.1-0.1-7.5-0.2-10.2-0.2
		c-3.2,0-6.8,0.1-10.8,0.2c-4,0.1-8.3,0.3-12.8,0.6v-7c0.5,0,1.2,0,2.1,0.1c0.8,0.1,1.5,0.1,1.8,0.1c4.6,0,7.8-0.9,9.6-2.6
		c1.8-1.7,2.7-4.9,2.7-9.5c0-2.1,0-4.2-0.1-6.3c-0.1-2.1-0.2-4.2-0.3-6.4l-3.5-83.3L91,125.8c-0.1,0.1-0.2,0.4-0.4,0.9
		c-2.9,6.4-5.1,13.2-6.5,20.4h-6c-0.8-4-3-10.1-6.4-18.4l-0.4-0.9L34.9,39.4c-0.4,6.9-0.9,16.4-1.5,28.5c-1.7,30-2.5,48.7-2.5,56.3
		v1c0,8.2,0.9,13.2,2.6,14.9c1.7,1.7,5.3,2.6,10.6,2.6h1.9v6.8c-3.9-0.3-7.7-0.5-11.3-0.6c-3.6-0.1-7.1-0.2-10.5-0.2
		c-2.4,0-5.4,0.1-9,0.2c-3.6,0.1-7.5,0.3-11.6,0.6v-6.8H6c3.5,0,6-0.5,7.7-1.4c1.7-0.9,3-2.5,4-4.7c1.2-2.6,2.3-13.4,3.5-32.2
		c0.3-5.2,0.6-9.3,0.8-12.3l1.6-23.4v-0.3c1.6-23.2,2.5-36.4,2.5-39.5c0-4.1-0.9-6.9-2.8-8.5c-1.8-1.6-5.3-2.4-10.5-2.4h-1.5v-6.7
		c0.5,0,1.3,0,2.4,0.1c7,0.5,11.9,0.7,14.7,0.7c2.1,0,6.1-0.2,12.1-0.6c1.9-0.1,3.3-0.2,4.3-0.2v0.6c0,5.7,10.3,32.9,30.8,81.4
		L85.1,115.4z"/>
	<path d="M176.7,11.1c4.2,0.3,8.5,0.5,12.6,0.6c4.2,0.1,8.3,0.2,12.3,0.2c3.4,0,7.2-0.1,11.4-0.2c4.2-0.1,8.6-0.3,13.3-0.6v6.6h-1.5
		c-3.9,0-6.9,0.5-8.9,1.5c-2,1-3.3,2.6-4.1,4.8c-0.5,1.5-0.8,3.9-1,7.2c-0.2,3.3-0.3,8.7-0.3,16.2v19.3V115c0,7.6,0.2,13,0.5,16.1
		c0.3,3.1,0.9,5.4,1.6,6.9c0.8,1.6,2.2,2.8,4.2,3.5s4.9,1.1,8.6,1.1h1.9v6.8c-5.2-0.3-10-0.5-14.4-0.6c-4.4-0.1-8.1-0.2-11.1-0.2
		c-3.5,0-7.5,0.1-11.9,0.2c-4.4,0.1-9.1,0.3-13.9,0.6v-6.8h1.8c3.8,0,6.6-0.4,8.6-1.1s3.4-1.9,4.2-3.5c0.8-1.7,1.4-4.6,1.8-8.6
		s0.5-11.2,0.5-21.6V92.5V54.6c0-10.1-0.1-17.4-0.4-21.7c-0.2-4.3-0.6-7.3-1.2-9c-0.7-2.3-2-3.9-4-4.8s-4.9-1.5-8.9-1.5h-1.6V11.1z"
		/>
	<path d="M287.4,11.1v6.6c-0.4,0-0.9,0-1.5-0.1c-0.7-0.1-1.2-0.1-1.5-0.1c-4.8,0-8,1.7-9.7,5s-2.5,11.3-2.5,23.9v15.3v20.1
		c0,10.5,0.3,18.2,0.9,23.2c0.6,5,1.6,9.1,3,12.3c3,7,7.3,12.3,13.1,15.9c5.8,3.7,12.8,5.5,20.9,5.5c6.1,0,11.5-0.9,16.1-2.8
		c4.6-1.9,8.5-4.8,11.8-8.6c3.3-3.9,5.6-8.6,6.9-14.3c1.3-5.6,2-15,2-28.1c0-15.8-0.2-29-0.5-39.8c-0.3-10.8-0.8-17.3-1.3-19.5
		c-0.8-3-2.2-5-4-6.2c-1.8-1.2-4.7-1.7-8.7-1.7h-1.4v-6.6c0.7,0,1.8,0,3.2,0.1c8.4,0.5,14.3,0.7,17.9,0.7c3.5,0,9.4-0.2,17.8-0.7
		c1.5-0.1,2.5-0.1,3.2-0.1v6.6h-1.1c-3.6,0-6.3,0.5-8,1.5s-3.1,2.6-3.9,4.8c-0.7,1.9-1.2,6.8-1.5,14.8c-0.3,8-0.5,20.9-0.5,38.7v9.7
		c0,10.2-0.4,18-1.1,23.4c-0.7,5.4-1.9,10.2-3.5,14.3c-3.4,8.6-9.2,15.3-17.5,20.3c-8.3,4.9-18.1,7.4-29.3,7.4
		c-7.8,0-15-1.2-21.6-3.7s-12.2-6-16.8-10.7c-5-4.9-8.6-10.7-10.7-17.4c-2.1-6.7-3.2-16-3.2-28.1c0-4.7,0.1-12.3,0.2-22.8
		c0.1-10.6,0.2-18.8,0.2-24.8v-3c0-11.1-0.9-18-2.6-20.6s-5.1-3.9-10.1-3.9h-1.6v-6.6c4.3,0.3,8.4,0.5,12.3,0.6
		c3.9,0.1,7.4,0.2,10.6,0.2c3.9,0,7.8-0.1,11.8-0.2C279.2,11.6,283.3,11.4,287.4,11.1z"/>
	<path d="M389.6,11.1c5,0.6,10.9,1,17.6,1.3c6.7,0.3,15.9,0.4,27.8,0.4h10.8h10.8c7.3,0,13.7-0.1,19-0.4c5.3-0.3,10.4-0.7,15.3-1.3
		l2.5,5.3c-2.3,2.3-4.6,4.8-7,7.6c-2.3,2.8-5,6.3-7.9,10.4l-71.8,102c3.8,0.1,7.8,0.1,11.9,0.1c4.1,0,9.9,0,17.4,0
		c11.5,0,20.3-0.2,26.4-0.5c6.1-0.3,10.6-0.8,13.6-1.5c3.5-0.7,6.5-2.8,9.1-6.3c2.6-3.5,5-8.8,7.3-15.8l6.2,2
		c-1.9,6.1-3.6,12.1-5,17.8c-1.4,5.7-2.4,11.4-3.2,17c-6.9-0.7-15-1.3-24.3-1.6c-9.3-0.4-20.1-0.6-32.3-0.6H427
		c-10.2,0-18.7,0.2-25.5,0.5c-6.8,0.4-13.3,0.9-19.5,1.7l-3-5.7c3.2-2.8,7.4-8,12.6-15.4c0.7-0.9,1.2-1.6,1.5-2.1l71.8-102.7h-30.5
		c-17.5,0-28.8,1.4-34,4.2c-5.1,2.8-8.4,8.1-9.7,16l-6-1.7c1.5-4.8,2.6-9.8,3.4-14.9C388.8,21.9,389.4,16.6,389.6,11.1z"/>
</g>
<g>
	<path d="M82.1,223.4l2.1,3.2c-2.7,2.1-5.3,3.6-7.9,4.7c-2.6,1.1-5.1,1.6-7.4,1.6c-5.4,0-9.9-1.9-13.3-5.8c-3.4-3.9-5.2-8.9-5.2-15
		c0-6.3,2.2-11.6,6.5-16c4.4-4.4,9.7-6.5,15.9-6.5c3.2,0,5.7,0.5,7.4,1.4c1.7,0.9,2.6,2.2,2.6,3.8c0,1.2-0.4,2.2-1.1,3
		c-0.7,0.8-1.5,1.3-2.4,1.3c-0.3,0-1.6-0.7-3.8-2.1c-2.3-1.4-4.4-2.1-6.5-2.1c-3.6,0-6.5,1.3-8.6,3.9c-2.1,2.6-3.2,6.1-3.2,10.6
		c0,5.6,1.3,10,3.8,13.2c2.6,3.1,6.1,4.7,10.7,4.7c1.7,0,3.4-0.3,5.1-0.9C78.5,225.6,80.3,224.7,82.1,223.4z"/>
	<path d="M109.6,189.5c5.9,0,10.7,2,14.5,5.9c3.8,3.9,5.8,8.8,5.8,14.6c0,6.4-2,11.8-6.1,16.1c-4.1,4.4-9,6.6-15,6.6
		c-5.9,0-10.8-2-14.6-6c-3.8-4-5.7-9-5.7-15.1s2.1-11.3,6.2-15.6C98.8,191.7,103.8,189.5,109.6,189.5z M108.5,193.9
		c-3.7,0-6.7,1.4-9,4.1c-2.3,2.7-3.4,6.3-3.4,10.9c0,5.9,1.3,10.6,3.8,14.2c2.5,3.6,5.8,5.5,9.8,5.5c3.9,0,7-1.4,9.3-4.3
		c2.3-2.9,3.5-6.8,3.5-11.8c0-5.4-1.3-9.9-3.9-13.4C115.9,195.6,112.6,193.9,108.5,193.9z"/>
	<path d="M148.3,167.2c-0.2,5.2-0.3,11.9-0.3,20.1c0,3.2,0,5.5,0,6.9l-0.1,8.5v6.5v8.7v3.4c0,3.2,0.4,5.2,1.1,6.1
		c0.7,0.8,2,1.3,4,1.3h1v2.9c-1.9-0.1-3.7-0.2-5.4-0.3c-1.7-0.1-3.2-0.1-4.4-0.1c-1.3,0-2.7,0-4.3,0.1c-1.6,0.1-3.2,0.2-4.9,0.3
		l0-2.9c0.2,0,0.4,0,0.7,0c0.3,0,0.5,0,0.6,0c1.9,0,3.2-0.5,3.9-1.5c0.7-1,1-4,1-8.8v-3.1l0.2-31.3v-7.2c0-1.2-0.3-2.1-0.8-2.7
		c-0.5-0.6-1.3-0.9-2.3-0.9c-0.4,0-1.1,0.1-2.2,0.3c-0.1,0-0.2,0-0.3,0l-0.6-2.7c2.3-0.4,4.6-0.9,6.8-1.5
		C144.1,168.8,146.2,168.1,148.3,167.2z"/>
	<path d="M173.2,167.2c-0.2,5.2-0.3,11.9-0.3,20.1c0,3.2,0,5.5,0,6.9l-0.1,8.5v6.5v8.7v3.4c0,3.2,0.4,5.2,1.1,6.1
		c0.7,0.8,2,1.3,4,1.3h1v2.9c-1.9-0.1-3.7-0.2-5.4-0.3c-1.7-0.1-3.2-0.1-4.4-0.1c-1.3,0-2.7,0-4.3,0.1c-1.6,0.1-3.2,0.2-4.9,0.3
		l0-2.9c0.2,0,0.4,0,0.7,0c0.3,0,0.5,0,0.6,0c1.9,0,3.2-0.5,3.9-1.5c0.7-1,1-4,1-8.8v-3.1l0.2-31.3v-7.2c0-1.2-0.3-2.1-0.8-2.7
		s-1.3-0.9-2.3-0.9c-0.4,0-1.1,0.1-2.2,0.3c-0.1,0-0.2,0-0.3,0l-0.6-2.7c2.3-0.4,4.6-0.9,6.8-1.5
		C168.9,168.8,171.1,168.1,173.2,167.2z"/>
	<path d="M221.1,208.3h-20.3c-1.6,0-3,0-4.4,0.1c-1.3,0.1-2.6,0.1-3.7,0.2v1.5c0,5.4,1.3,9.6,3.8,12.6c2.5,3,6.1,4.5,10.6,4.5
		c2,0,4-0.3,6-1c2-0.7,4.1-1.7,6.3-3.2l1.6,2.7c-2.9,2.3-5.7,4.1-8.6,5.3c-2.8,1.2-5.7,1.8-8.4,1.8c-5.4,0-9.8-1.9-13.3-5.8
		c-3.5-3.8-5.2-8.8-5.2-14.8c0-6.4,1.8-11.8,5.5-16.1c3.7-4.4,8.1-6.5,13.4-6.5c4.9,0,8.8,1.6,11.7,4.9
		C219,197.7,220.6,202.3,221.1,208.3z M213.4,203.9c-0.8-3.4-2.1-6-3.8-7.8c-1.7-1.8-3.7-2.7-6.1-2.7c-2.7,0-4.9,1.1-6.8,3.2
		c-1.9,2.1-3.1,5-3.7,8.7c5.5,0,9.8-0.1,13-0.3C209,204.7,211.5,204.4,213.4,203.9z"/>
	<path d="M258.4,223.4l2.1,3.2c-2.7,2.1-5.3,3.6-7.9,4.7c-2.6,1.1-5.1,1.6-7.4,1.6c-5.4,0-9.9-1.9-13.3-5.8c-3.4-3.9-5.2-8.9-5.2-15
		c0-6.3,2.2-11.6,6.5-16s9.7-6.5,15.9-6.5c3.2,0,5.7,0.5,7.4,1.4c1.7,0.9,2.6,2.2,2.6,3.8c0,1.2-0.4,2.2-1.1,3
		c-0.7,0.8-1.5,1.3-2.4,1.3c-0.3,0-1.6-0.7-3.8-2.1c-2.3-1.4-4.4-2.1-6.5-2.1c-3.6,0-6.5,1.3-8.6,3.9c-2.1,2.6-3.2,6.1-3.2,10.6
		c0,5.6,1.3,10,3.8,13.2c2.6,3.1,6.1,4.7,10.7,4.7c1.7,0,3.4-0.3,5.1-0.9C254.9,225.6,256.6,224.7,258.4,223.4z"/>
	<path d="M275.1,182.8l2.7,0.8c-0.2,1.5-0.3,2.9-0.4,4.1c-0.1,1.2-0.2,2.4-0.2,3.6h3c1.6,0,3.2,0,4.8-0.1c1.6,0,3.3-0.1,5-0.2
		l-1,4.5c-1.8-0.1-3.4-0.2-5-0.3c-1.6,0-3.1-0.1-4.7-0.1h-2c-0.2,4.8-0.3,8.4-0.4,11c-0.1,2.5-0.1,4.6-0.1,6.3
		c0,6.3,0.4,10.4,1.3,12.3c0.9,1.9,2.4,2.9,4.6,2.9c0.9,0,1.9-0.2,3.1-0.6c1.1-0.4,2.5-1,4.1-1.9l1.4,2.7c-2.7,1.6-5.1,2.8-7.2,3.6
		c-2.2,0.8-4.1,1.2-5.7,1.2c-3,0-5.1-1-6.5-3.1s-2-5.3-2-9.8c0-0.9,0.1-4.1,0.2-9.5s0.2-10.5,0.2-15c-0.2,0-0.6,0-1.1,0
		c-2.3,0.1-3.9,0.1-4.7,0.1v-3c2.7-0.4,5-1.4,6.7-3S274.3,185.7,275.1,182.8z"/>
	<path d="M309.1,189c0,1.1-0.1,2.6-0.1,4.5c-0.4,11.2-0.5,19-0.5,23.6v4.4c0,3.2,0.3,5.2,0.9,6.1c0.6,0.8,1.8,1.2,3.6,1.2
		c0.2,0,0.4,0,0.7,0s0.5,0,0.6,0v2.8c-2.4-0.2-4.3-0.3-5.7-0.3c-1.4-0.1-2.7-0.1-3.7-0.1c-0.9,0-2,0-3.4,0.1s-3.4,0.2-6.2,0.3v-2.9
		h1c3.4,0,5.2-3.4,5.2-10.2c0-1,0-1.7,0-2.3l0.2-10.3c0-0.7,0-1.7,0-2.8s0-1.9,0-2.3c0-2.2-0.2-3.7-0.6-4.5
		c-0.4-0.7-1.2-1.1-2.4-1.1c-0.2,0-0.5,0-1,0.1c-0.4,0-0.9,0.1-1.4,0.1l-0.4-2.6c2.2-0.4,4.4-0.9,6.6-1.6
		C304.7,190.7,306.9,189.9,309.1,189z M304.6,169.4l3,2.2c0.8,0.6,1.3,1.2,1.7,1.7c0.4,0.6,0.5,1.2,0.5,1.8c0,0.6-0.1,1.2-0.4,1.6
		c-0.3,0.5-0.8,1-1.6,1.6l-3.1,2.4l-2.9-2.3c-0.8-0.6-1.4-1.2-1.7-1.8c-0.4-0.5-0.5-1.1-0.5-1.7s0.1-1.1,0.4-1.6s0.8-1,1.7-1.6
		L304.6,169.4z"/>
	<path d="M341.9,189.5c5.9,0,10.7,2,14.5,5.9c3.8,3.9,5.8,8.8,5.8,14.6c0,6.4-2,11.8-6.1,16.1c-4.1,4.4-9,6.6-15,6.6
		c-5.9,0-10.8-2-14.6-6s-5.7-9-5.7-15.1s2.1-11.3,6.2-15.6C331.2,191.7,336.1,189.5,341.9,189.5z M340.8,193.9c-3.7,0-6.7,1.4-9,4.1
		c-2.3,2.7-3.4,6.3-3.4,10.9c0,5.9,1.3,10.6,3.8,14.2c2.5,3.6,5.8,5.5,9.8,5.5c3.9,0,7-1.4,9.3-4.3c2.3-2.9,3.5-6.8,3.5-11.8
		c0-5.4-1.3-9.9-3.9-13.4C348.3,195.6,344.9,193.9,340.8,193.9z"/>
	<path d="M380.6,189l-0.5,7c3.1-2.3,5.9-3.9,8.2-5c2.3-1,4.4-1.5,6.4-1.5c4.1,0,7.1,1.2,9.2,3.5c2.1,2.3,3.1,5.8,3.1,10.4
		c0,0,0,1.2,0,3.7c0,2.4,0,4.8,0,7.2c0,1,0,2.3,0,3.8c0,1.5,0,2.6,0,3.1c0,3.1,0.3,5.1,0.8,6.1c0.6,0.9,1.6,1.4,3.2,1.4
		c0.1,0,0.2,0,0.5,0c0.2,0,0.4,0,0.5,0v2.9c-2.5-0.2-4.4-0.3-5.7-0.3s-2.3-0.1-3.2-0.1c-1.3,0-2.8,0-4.3,0.1
		c-1.6,0.1-3.1,0.2-4.7,0.3l0-2.9h0.6c3.6,0,5.4-3.2,5.4-9.7c0-0.4,0-0.6,0-0.8l0.1-8.9v-1.5c0-5.1-0.6-8.5-1.8-10.2
		c-1.2-1.7-3.2-2.5-6.2-2.5c-1.6,0-3.4,0.4-5.3,1.1s-4,1.9-6.2,3.4c-0.1,2.9-0.2,5.6-0.2,8.2c-0.1,2.6-0.1,4.9-0.1,7v5.7
		c0,3.7,0.3,6,0.8,7c0.5,1,1.6,1.5,3.2,1.5c0.1,0,0.3,0,0.5,0c0.2,0,0.4,0,0.6,0v2.9c-2.4-0.2-4.3-0.3-5.6-0.3s-2.5-0.1-3.4-0.1
		c-0.8,0-1.9,0-3.3,0.1s-3.3,0.2-5.7,0.3l0-2.9h0.8c3.5,0,5.2-3.4,5.2-10.1c0-1,0-1.8,0-2.3l0.1-10.2v-4.1c0-2.7-0.2-4.5-0.6-5.3
		c-0.4-0.8-1.2-1.3-2.3-1.3c-0.2,0-0.5,0-0.9,0.1c-0.3,0.1-0.7,0.1-1.1,0.2l-0.5-2.6c2.1-0.4,4.2-0.9,6.3-1.6
		C376.3,190.8,378.4,190,380.6,189z"/>
	<path d="M445.4,191.2c0,1.7,0.1,3.4,0.3,5.1c0.2,1.7,0.4,3.5,0.8,5.2l-3.2,0.5c-0.3-2.9-1.2-5-2.7-6.5s-3.6-2.1-6.3-2.1
		c-2.3,0-4.2,0.6-5.7,1.9c-1.5,1.3-2.2,2.9-2.2,4.8c0,3.1,3.3,5.5,9.8,7.3c1.1,0.3,2,0.5,2.6,0.7c3.3,0.9,5.7,2.2,7.2,3.9
		c1.5,1.7,2.3,3.9,2.3,6.7c0,4.1-1.6,7.4-4.8,10c-3.2,2.6-7.2,4-12.2,4c-1.8,0-3.6-0.2-5.5-0.6c-1.9-0.4-3.8-1-5.8-1.8
		c0-0.3,0-0.6,0.1-0.9c0-0.3,0-0.8,0-1.4c0-1.3-0.1-2.7-0.2-4.1c-0.2-1.5-0.4-3.1-0.7-4.7l3.1-0.7c0.4,3.4,1.5,6,3.2,7.7
		c1.7,1.7,4.1,2.6,7.2,2.6c2.8,0,5-0.7,6.8-2c1.8-1.3,2.6-3.1,2.6-5.2c0-3-2.9-5.4-8.8-7.2c-0.6-0.2-1-0.3-1.3-0.4
		c-4.2-1.3-7.2-2.8-8.9-4.7s-2.6-4.3-2.6-7.4c0-3.6,1.4-6.5,4.2-8.8s6.5-3.5,10.9-3.5c1.4,0,2.8,0.1,4.4,0.4
		C441.6,190.2,443.4,190.6,445.4,191.2z"/>
</g>
</svg>
