<svg width="512" height="512" viewBox="0 0 512 512" fill="none" xmlns="http://www.w3.org/2000/svg">
<g filter="url(#filter0_d_28499_3)">
<rect x="50" y="50" width="412" height="412" rx="92" fill="white"/>
<rect x="50.5" y="50.5" width="411" height="411" rx="91.5" stroke="#E4E4E4"/>
</g>
<g filter="url(#filter1_i_28499_3)">
<circle cx="256" cy="256" r="186" fill="url(#paint0_linear_28499_3)"/>
</g>
<g filter="url(#filter2_d_28499_3)">
<path d="M127.994 204.38C129.827 204.38 131.44 204.343 132.834 204.27C134.227 204.123 135.51 204.013 136.684 203.94C137.124 205.333 137.93 207.497 139.104 210.43C140.35 213.363 141.78 216.847 143.394 220.88C145.08 224.84 146.877 229.057 148.784 233.53C150.69 238.003 152.56 242.477 154.394 246.95C156.227 251.35 157.914 255.457 159.454 259.27C159.527 259.417 159.674 259.49 159.894 259.49C160.114 259.49 160.26 259.343 160.334 259.05C162.46 253.623 164.367 248.747 166.054 244.42C167.74 240.02 169.427 235.657 171.114 231.33C172.874 226.93 174.78 222.09 176.834 216.81C177.494 215.123 178.19 213.29 178.924 211.31C179.657 209.33 180.28 207.607 180.794 206.14C181.307 204.673 181.564 203.94 181.564 203.94C185.01 204.16 187.834 204.27 190.034 204.27C191.94 204.27 194.067 204.233 196.414 204.16C198.834 204.087 200.704 204.013 202.024 203.94C202.097 204.087 202.17 204.637 202.244 205.59C202.317 206.543 202.354 207.02 202.354 207.02C201.84 207.02 200.997 207.093 199.824 207.24C198.724 207.387 197.66 207.607 196.634 207.9C195.607 208.193 194.984 208.523 194.764 208.89C194.544 209.403 194.397 210.063 194.324 210.87C194.25 211.677 194.214 212.41 194.214 213.07C194.287 214.903 194.36 217.69 194.434 221.43C194.507 225.17 194.58 229.387 194.654 234.08C194.8 238.7 194.91 243.283 194.984 247.83C195.13 252.377 195.24 256.41 195.314 259.93C195.387 261.983 195.497 263.927 195.644 265.76C195.79 267.593 196.12 269.133 196.634 270.38C196.854 270.893 197.514 271.297 198.614 271.59C199.714 271.81 200.814 271.993 201.914 272.14C203.087 272.213 203.82 272.25 204.114 272.25C204.407 272.763 204.517 273.387 204.444 274.12C204.444 274.78 204.407 275.183 204.334 275.33C202.207 275.183 200.117 275.073 198.064 275C196.084 274.853 193.92 274.78 191.574 274.78C189.08 274.78 186.917 274.853 185.084 275C183.25 275.073 181.087 275.183 178.594 275.33C178.52 275.183 178.447 274.743 178.374 274.01C178.3 273.277 178.374 272.69 178.594 272.25C179.034 272.25 179.73 272.213 180.684 272.14C181.637 271.993 182.59 271.847 183.544 271.7C184.497 271.48 185.194 271.26 185.634 271.04C186 270.82 186.257 270.197 186.404 269.17C186.55 268.143 186.624 267.263 186.624 266.53C186.624 265.723 186.587 264.697 186.514 263.45C186.44 262.13 186.404 261.067 186.404 260.26C186.257 255.053 186.11 250.067 185.964 245.3C185.817 240.46 185.67 235.547 185.524 230.56C185.377 225.5 185.194 220.073 184.974 214.28C184.974 214.06 184.9 213.657 184.754 213.07C184.607 212.483 184.35 212.19 183.984 212.19C183.837 212.19 183.654 212.447 183.434 212.96C181.234 218.46 179.18 223.557 177.274 228.25C175.44 232.943 173.644 237.49 171.884 241.89C170.124 246.217 168.327 250.653 166.494 255.2C164.734 259.673 162.827 264.513 160.774 269.72C160.627 270.013 160.297 270.6 159.784 271.48C159.27 272.36 158.72 273.203 158.134 274.01C157.62 274.743 157.144 275.147 156.704 275.22C156.557 275.293 156.3 275.257 155.934 275.11C155.86 275.037 155.787 275 155.714 275L129.534 212.3C129.46 216.993 129.35 221.833 129.204 226.82C129.057 231.807 128.91 236.647 128.764 241.34C128.69 246.033 128.58 250.287 128.434 254.1C128.36 257.84 128.287 260.883 128.214 263.23C128.14 265.503 128.104 266.75 128.104 266.97C128.104 267.483 128.14 268.07 128.214 268.73C128.287 269.317 128.397 269.83 128.544 270.27C128.764 270.783 129.497 271.187 130.744 271.48C132.064 271.773 133.384 271.993 134.704 272.14C136.024 272.213 136.83 272.25 137.124 272.25C137.417 272.543 137.527 273.093 137.454 273.9C137.38 274.707 137.307 275.183 137.234 275.33C135.107 275.183 133.274 275.073 131.734 275C130.194 274.853 128.25 274.78 125.904 274.78C123.41 274.78 121.32 274.853 119.634 275C117.947 275.073 115.857 275.183 113.364 275.33C113.29 275.183 113.217 274.743 113.144 274.01C113.07 273.277 113.144 272.69 113.364 272.25C113.804 272.25 114.647 272.177 115.894 272.03C117.214 271.883 118.497 271.663 119.744 271.37C120.99 271.077 121.76 270.71 122.054 270.27C122.567 269.537 122.897 268.767 123.044 267.96C123.19 267.08 123.3 266.053 123.374 264.88C123.594 258.427 123.777 252.23 123.924 246.29C124.144 240.35 124.29 235.033 124.364 230.34C124.51 225.573 124.62 221.723 124.694 218.79C124.767 215.783 124.804 214.023 124.804 213.51C124.804 212.703 124.767 211.933 124.694 211.2C124.694 210.467 124.584 209.807 124.364 209.22C124.217 208.78 123.594 208.413 122.494 208.12C121.467 207.753 120.367 207.497 119.194 207.35C118.094 207.13 117.324 207.02 116.884 207.02C116.81 207.02 116.774 206.543 116.774 205.59C116.774 204.563 116.81 204.013 116.884 203.94C118.57 204.013 119.927 204.087 120.954 204.16C121.98 204.233 123.007 204.307 124.034 204.38C125.06 204.38 126.38 204.38 127.994 204.38ZM229.828 204.38C231.954 204.38 234.008 204.343 235.988 204.27C238.041 204.123 240.168 204.013 242.368 203.94C242.661 204.233 242.771 204.747 242.698 205.48C242.698 206.213 242.588 206.727 242.368 207.02C241.928 207.02 241.121 207.093 239.948 207.24C238.774 207.313 237.674 207.46 236.648 207.68C235.621 207.9 235.034 208.23 234.888 208.67C234.668 209.403 234.521 210.357 234.448 211.53C234.448 212.703 234.448 213.987 234.448 215.38C234.448 215.6 234.448 215.82 234.448 216.04C234.448 216.26 234.448 216.48 234.448 216.7V262.57C234.448 262.79 234.448 263.01 234.448 263.23C234.448 263.45 234.448 263.67 234.448 263.89C234.448 265.283 234.448 266.567 234.448 267.74C234.521 268.84 234.668 269.757 234.888 270.49C235.034 270.857 235.621 271.187 236.648 271.48C237.674 271.773 238.774 271.993 239.948 272.14C241.121 272.213 241.928 272.25 242.368 272.25C242.588 272.543 242.698 273.057 242.698 273.79C242.771 274.523 242.661 275.037 242.368 275.33C240.168 275.183 238.041 275.073 235.988 275C234.008 274.853 231.954 274.78 229.828 274.78C227.774 274.78 225.684 274.853 223.558 275C221.431 275.073 219.268 275.183 217.068 275.33C216.774 275.037 216.628 274.523 216.628 273.79C216.701 273.057 216.848 272.543 217.068 272.25C217.508 272.25 218.314 272.213 219.488 272.14C220.661 271.993 221.761 271.773 222.788 271.48C223.888 271.187 224.474 270.857 224.548 270.49C224.841 269.61 224.988 268.473 224.988 267.08C225.061 265.687 225.098 264.183 225.098 262.57V216.7C225.098 215.087 225.061 213.583 224.988 212.19C224.988 210.723 224.841 209.55 224.548 208.67C224.474 208.23 223.888 207.9 222.788 207.68C221.761 207.46 220.661 207.313 219.488 207.24C218.314 207.093 217.508 207.02 217.068 207.02C216.848 206.727 216.701 206.213 216.628 205.48C216.628 204.747 216.774 204.233 217.068 203.94C219.268 204.013 221.431 204.123 223.558 204.27C225.684 204.343 227.774 204.38 229.828 204.38ZM267.272 204.38C269.399 204.38 271.452 204.343 273.432 204.27C275.486 204.123 277.612 204.013 279.812 203.94C280.106 204.233 280.216 204.747 280.142 205.48C280.142 206.213 280.032 206.727 279.812 207.02C279.372 207.02 278.566 207.093 277.392 207.24C276.292 207.313 275.229 207.46 274.202 207.68C273.176 207.9 272.589 208.23 272.442 208.67C272.149 209.55 271.966 210.723 271.892 212.19C271.892 213.583 271.892 215.087 271.892 216.7V243.21C271.892 247.683 272.332 251.57 273.212 254.87C274.166 258.17 275.486 260.883 277.172 263.01C280.546 267.117 285.459 269.17 291.912 269.17C295.652 269.17 299.062 268.473 302.142 267.08C305.222 265.687 307.716 263.303 309.622 259.93C311.602 256.483 312.629 251.68 312.702 245.52V216.48C312.702 214.573 312.666 213.07 312.592 211.97C312.519 210.87 312.189 209.88 311.602 209C311.382 208.633 310.759 208.303 309.732 208.01C308.706 207.643 307.606 207.387 306.432 207.24C305.332 207.02 304.489 206.91 303.902 206.91C303.609 206.543 303.462 206.03 303.462 205.37C303.536 204.637 303.609 204.123 303.682 203.83C305.809 203.903 307.716 204.013 309.402 204.16C311.162 204.233 313.216 204.27 315.562 204.27C317.249 204.27 318.606 204.27 319.632 204.27C320.732 204.197 321.832 204.123 322.932 204.05C324.106 203.977 325.499 203.903 327.112 203.83C327.259 204.123 327.369 204.563 327.442 205.15C327.516 205.737 327.406 206.323 327.112 206.91C326.672 206.91 325.829 206.983 324.582 207.13C323.336 207.277 322.126 207.533 320.952 207.9C319.779 208.193 319.046 208.56 318.752 209C318.239 209.807 317.909 210.723 317.762 211.75C317.689 212.777 317.652 214.317 317.652 216.37V245.3C317.652 252.413 316.479 258.207 314.132 262.68C311.786 267.08 308.486 270.307 304.232 272.36C300.052 274.413 295.176 275.44 289.602 275.44C285.789 275.44 282.232 274.817 278.932 273.57C275.632 272.323 272.809 270.563 270.462 268.29C267.969 265.943 266.026 263.047 264.632 259.6C263.239 256.153 262.542 252.303 262.542 248.05V216.7C262.542 215.087 262.506 213.583 262.432 212.19C262.432 210.723 262.286 209.55 261.992 208.67C261.919 208.23 261.332 207.9 260.232 207.68C259.206 207.46 258.106 207.313 256.932 207.24C255.832 207.093 255.062 207.02 254.622 207.02C254.402 206.727 254.256 206.213 254.182 205.48C254.182 204.747 254.329 204.233 254.622 203.94C256.822 204.013 258.949 204.123 261.002 204.27C263.129 204.343 265.219 204.38 267.272 204.38ZM356.708 207.79C353.115 207.79 350.072 209.037 347.578 211.53C345.085 214.023 343.252 217.47 342.078 221.87C341.858 222.163 341.455 222.31 340.868 222.31C340.355 222.31 339.805 222.2 339.218 221.98C338.632 221.76 338.265 221.577 338.118 221.43C339.072 218.937 339.805 216.187 340.318 213.18C340.905 210.1 341.345 206.763 341.638 203.17C342.812 203.317 344.205 203.5 345.818 203.72C347.505 203.867 349.045 203.94 350.438 203.94H371.338C374.345 203.94 376.985 203.903 379.258 203.83C381.532 203.757 383.768 203.647 385.968 203.5C388.242 203.353 390.882 203.17 393.888 202.95C394.108 203.023 394.475 203.317 394.988 203.83C395.502 204.343 395.758 204.82 395.758 205.26C395.758 205.333 395.098 206.36 393.778 208.34C392.458 210.247 390.698 212.777 388.498 215.93C386.372 219.083 383.952 222.603 381.238 226.49C378.598 230.377 375.848 234.41 372.988 238.59C370.128 242.77 367.342 246.803 364.628 250.69C361.915 254.503 359.495 257.987 357.368 261.14C355.242 264.22 353.518 266.677 352.198 268.51C350.952 270.343 350.328 271.26 350.328 271.26H378.378C380.725 271.26 382.668 270.93 384.208 270.27C385.822 269.537 387.215 268.583 388.388 267.41C389.928 265.87 391.102 264.11 391.908 262.13C392.788 260.15 393.522 258.39 394.108 256.85C394.182 256.703 394.365 256.63 394.658 256.63C394.952 256.557 395.245 256.52 395.538 256.52C396.125 256.52 396.638 256.63 397.078 256.85C397.592 257.07 397.958 257.29 398.178 257.51C397.372 260.297 396.638 262.68 395.978 264.66C395.392 266.567 394.842 268.327 394.328 269.94C393.888 271.48 393.448 273.167 393.008 275H339.218C338.632 275 338.082 274.817 337.568 274.45C337.128 274.083 337.018 273.753 337.238 273.46L382.888 207.79H356.708Z" fill="black"/>
</g>
<g filter="url(#filter3_d_28499_3)">
<path d="M147.592 310.495C147.592 311.622 147.332 312.423 146.812 312.9C146.292 313.333 145.75 313.55 145.187 313.55C144.493 313.55 143.843 313.247 143.237 312.64C142.63 312.033 142.045 311.557 141.482 311.21C140.788 310.733 140.225 310.408 139.792 310.235C139.358 310.062 138.73 309.975 137.907 309.975C136.78 309.975 135.653 310.408 134.527 311.275C133.443 312.098 132.533 313.29 131.797 314.85C131.103 316.41 130.757 318.317 130.757 320.57C130.757 324.253 131.753 326.962 133.747 328.695C135.74 330.428 138.167 331.295 141.027 331.295C142.803 331.295 144.255 330.883 145.382 330.06C146.552 329.237 147.353 328.587 147.787 328.11C147.83 328.11 147.917 328.197 148.047 328.37C148.22 328.5 148.307 328.695 148.307 328.955C148.307 329.302 148.177 329.692 147.917 330.125C147.527 330.732 146.92 331.468 146.097 332.335C145.273 333.158 144.233 333.895 142.977 334.545C141.72 335.195 140.268 335.52 138.622 335.52C136.065 335.52 133.812 334.913 131.862 333.7C129.955 332.487 128.46 330.905 127.377 328.955C126.337 327.005 125.817 324.925 125.817 322.715C125.817 320.375 126.293 318.273 127.247 316.41C128.243 314.503 129.5 312.857 131.017 311.47C132.577 310.083 134.245 309.022 136.022 308.285C137.842 307.548 139.575 307.18 141.222 307.18C143.562 307.18 145.468 307.7 146.942 308.74C147.072 308.87 147.202 309.108 147.332 309.455C147.505 309.802 147.592 310.148 147.592 310.495ZM165.667 307.115C168.484 307.115 170.889 307.722 172.882 308.935C174.919 310.148 176.479 311.795 177.562 313.875C178.689 315.955 179.252 318.317 179.252 320.96C179.252 323.69 178.667 326.16 177.497 328.37C176.327 330.537 174.724 332.27 172.687 333.57C170.651 334.827 168.354 335.455 165.797 335.455C163.024 335.455 160.597 334.848 158.517 333.635C156.481 332.378 154.899 330.71 153.772 328.63C152.689 326.507 152.147 324.123 152.147 321.48C152.147 318.75 152.732 316.302 153.902 314.135C155.116 311.968 156.741 310.257 158.777 309C160.814 307.743 163.111 307.115 165.667 307.115ZM164.952 309.26C163.176 309.26 161.746 309.802 160.662 310.885C159.579 311.925 158.799 313.29 158.322 314.98C157.846 316.627 157.607 318.36 157.607 320.18C157.607 322.217 157.932 324.253 158.582 326.29C159.276 328.327 160.272 330.017 161.572 331.36C162.916 332.703 164.541 333.375 166.447 333.375C168.267 333.375 169.697 332.855 170.737 331.815C171.821 330.732 172.601 329.345 173.077 327.655C173.554 325.965 173.792 324.232 173.792 322.455C173.792 320.375 173.446 318.338 172.752 316.345C172.059 314.308 171.062 312.618 169.762 311.275C168.462 309.932 166.859 309.26 164.952 309.26ZM186.862 299.575C186.862 299.098 186.84 298.535 186.797 297.885C186.797 297.192 186.71 296.65 186.537 296.26C186.363 295.783 185.887 295.48 185.107 295.35C184.37 295.22 183.568 295.155 182.702 295.155C182.658 295.155 182.615 294.895 182.572 294.375C182.572 293.812 182.637 293.508 182.767 293.465C184.37 293.292 185.93 292.988 187.447 292.555C188.964 292.078 190.394 291.537 191.737 290.93C191.91 290.93 192.062 291.06 192.192 291.32C192.365 291.537 192.452 291.753 192.452 291.97C192.452 291.97 192.322 292.447 192.062 293.4C191.845 294.353 191.737 295.718 191.737 297.495V327.655C191.737 328.608 191.737 329.497 191.737 330.32C191.78 331.143 191.888 331.815 192.062 332.335C192.149 332.552 192.452 332.747 192.972 332.92C193.535 333.093 194.12 333.223 194.727 333.31C195.377 333.353 195.832 333.375 196.092 333.375C196.222 333.548 196.287 333.852 196.287 334.285C196.33 334.718 196.265 335.022 196.092 335.195C194.792 335.108 193.644 335.043 192.647 335C191.65 334.913 190.524 334.87 189.267 334.87C188.053 334.87 186.948 334.913 185.952 335C184.998 335.043 183.872 335.108 182.572 335.195C182.398 335.022 182.312 334.718 182.312 334.285C182.355 333.852 182.442 333.548 182.572 333.375C182.832 333.375 183.265 333.353 183.872 333.31C184.478 333.223 185.063 333.093 185.627 332.92C186.19 332.747 186.493 332.552 186.537 332.335C186.71 331.815 186.797 331.143 186.797 330.32C186.84 329.497 186.862 328.608 186.862 327.655V299.575ZM202.398 299.575C202.398 299.098 202.377 298.535 202.333 297.885C202.333 297.192 202.247 296.65 202.073 296.26C201.9 295.783 201.423 295.48 200.643 295.35C199.907 295.22 199.105 295.155 198.238 295.155C198.195 295.155 198.152 294.895 198.108 294.375C198.108 293.812 198.173 293.508 198.303 293.465C199.907 293.292 201.467 292.988 202.983 292.555C204.5 292.078 205.93 291.537 207.273 290.93C207.447 290.93 207.598 291.06 207.728 291.32C207.902 291.537 207.988 291.753 207.988 291.97C207.988 291.97 207.858 292.447 207.598 293.4C207.382 294.353 207.273 295.718 207.273 297.495V327.655C207.273 328.608 207.273 329.497 207.273 330.32C207.317 331.143 207.425 331.815 207.598 332.335C207.685 332.552 207.988 332.747 208.508 332.92C209.072 333.093 209.657 333.223 210.263 333.31C210.913 333.353 211.368 333.375 211.628 333.375C211.758 333.548 211.823 333.852 211.823 334.285C211.867 334.718 211.802 335.022 211.628 335.195C210.328 335.108 209.18 335.043 208.183 335C207.187 334.913 206.06 334.87 204.803 334.87C203.59 334.87 202.485 334.913 201.488 335C200.535 335.043 199.408 335.108 198.108 335.195C197.935 335.022 197.848 334.718 197.848 334.285C197.892 333.852 197.978 333.548 198.108 333.375C198.368 333.375 198.802 333.353 199.408 333.31C200.015 333.223 200.6 333.093 201.163 332.92C201.727 332.747 202.03 332.552 202.073 332.335C202.247 331.815 202.333 331.143 202.333 330.32C202.377 329.497 202.398 328.608 202.398 327.655V299.575ZM219.3 319.27C219.257 321.957 219.712 324.21 220.665 326.03C221.618 327.85 222.897 329.215 224.5 330.125C226.103 330.992 227.837 331.425 229.7 331.425C230.87 331.425 231.932 331.23 232.885 330.84C233.838 330.407 234.64 329.93 235.29 329.41C235.94 328.847 236.395 328.413 236.655 328.11C236.698 328.11 236.785 328.197 236.915 328.37C237.088 328.5 237.175 328.695 237.175 328.955C237.175 329.302 237.045 329.692 236.785 330.125C236.395 330.732 235.788 331.468 234.965 332.335C234.142 333.158 233.102 333.895 231.845 334.545C230.588 335.195 229.137 335.52 227.49 335.52C225.02 335.52 222.832 334.935 220.925 333.765C219.018 332.595 217.523 331.013 216.44 329.02C215.357 327.027 214.815 324.795 214.815 322.325C214.815 320.202 215.183 318.23 215.92 316.41C216.7 314.547 217.697 312.943 218.91 311.6C220.167 310.213 221.532 309.13 223.005 308.35C224.478 307.57 225.908 307.18 227.295 307.18C229.202 307.18 230.762 307.505 231.975 308.155C233.232 308.805 234.207 309.607 234.9 310.56C235.637 311.513 236.135 312.467 236.395 313.42C236.698 314.373 236.85 315.175 236.85 315.825C236.85 316.735 236.742 317.45 236.525 317.97C236.308 318.49 235.897 318.772 235.29 318.815C234.9 318.858 234.12 318.902 232.95 318.945C231.823 318.945 230.523 318.967 229.05 319.01C227.577 319.053 226.125 319.097 224.695 319.14C223.265 319.183 222.052 319.227 221.055 319.27C220.058 319.27 219.473 319.27 219.3 319.27ZM219.625 316.93H229.96C230.35 316.93 230.675 316.822 230.935 316.605C231.238 316.388 231.412 315.998 231.455 315.435C231.498 314.915 231.347 314.178 231 313.225C230.653 312.272 230.09 311.405 229.31 310.625C228.573 309.845 227.555 309.455 226.255 309.455C224.912 309.455 223.807 309.845 222.94 310.625C222.073 311.362 221.38 312.228 220.86 313.225C220.383 314.178 220.037 315.045 219.82 315.825C219.647 316.562 219.582 316.93 219.625 316.93ZM263.106 310.495C263.106 311.622 262.846 312.423 262.326 312.9C261.806 313.333 261.265 313.55 260.701 313.55C260.008 313.55 259.358 313.247 258.751 312.64C258.145 312.033 257.56 311.557 256.996 311.21C256.303 310.733 255.74 310.408 255.306 310.235C254.873 310.062 254.245 309.975 253.421 309.975C252.295 309.975 251.168 310.408 250.041 311.275C248.958 312.098 248.048 313.29 247.311 314.85C246.618 316.41 246.271 318.317 246.271 320.57C246.271 324.253 247.268 326.962 249.261 328.695C251.255 330.428 253.681 331.295 256.541 331.295C258.318 331.295 259.77 330.883 260.896 330.06C262.066 329.237 262.868 328.587 263.301 328.11C263.345 328.11 263.431 328.197 263.561 328.37C263.735 328.5 263.821 328.695 263.821 328.955C263.821 329.302 263.691 329.692 263.431 330.125C263.041 330.732 262.435 331.468 261.611 332.335C260.788 333.158 259.748 333.895 258.491 334.545C257.235 335.195 255.783 335.52 254.136 335.52C251.58 335.52 249.326 334.913 247.376 333.7C245.47 332.487 243.975 330.905 242.891 328.955C241.851 327.005 241.331 324.925 241.331 322.715C241.331 320.375 241.808 318.273 242.761 316.41C243.758 314.503 245.015 312.857 246.531 311.47C248.091 310.083 249.76 309.022 251.536 308.285C253.356 307.548 255.09 307.18 256.736 307.18C259.076 307.18 260.983 307.7 262.456 308.74C262.586 308.87 262.716 309.108 262.846 309.455C263.02 309.802 263.106 310.148 263.106 310.495ZM275.202 307.57H283.392C283.609 307.57 283.717 307.808 283.717 308.285C283.717 308.935 283.414 309.563 282.807 310.17H275.202V326.81C275.202 330.277 276.61 332.01 279.427 332.01C280.38 332.01 281.247 331.815 282.027 331.425C282.807 331.035 283.305 330.753 283.522 330.58C283.652 330.623 283.717 330.753 283.717 330.97C283.717 331.447 283.63 331.772 283.457 331.945C283.154 332.292 282.677 332.747 282.027 333.31C281.42 333.873 280.684 334.372 279.817 334.805C278.95 335.238 277.997 335.455 276.957 335.455C275.874 335.455 274.812 335.26 273.772 334.87C272.775 334.48 271.952 333.787 271.302 332.79C270.652 331.793 270.327 330.385 270.327 328.565V310.17H266.622C266.535 310.17 266.47 310.105 266.427 309.975C266.384 309.802 266.362 309.672 266.362 309.585C266.362 309.498 266.492 309.303 266.752 309C267.012 308.653 267.272 308.328 267.532 308.025C267.835 307.722 267.987 307.57 267.987 307.57H270.327V303.605C270.76 303.128 271.259 302.587 271.822 301.98C272.429 301.33 272.97 300.745 273.447 300.225C273.924 299.662 274.184 299.358 274.227 299.315C274.4 299.142 274.595 299.055 274.812 299.055C275.072 299.055 275.202 299.12 275.202 299.25V307.57ZM289.485 297.365C289.485 296.498 289.788 295.762 290.395 295.155C291.045 294.505 291.803 294.18 292.67 294.18C293.536 294.18 294.273 294.505 294.88 295.155C295.53 295.762 295.855 296.498 295.855 297.365C295.855 298.232 295.53 298.99 294.88 299.64C294.273 300.247 293.536 300.55 292.67 300.55C291.803 300.55 291.045 300.247 290.395 299.64C289.788 298.99 289.485 298.232 289.485 297.365ZM295.595 327.655C295.595 328.608 295.595 329.497 295.595 330.32C295.638 331.143 295.746 331.815 295.92 332.335C296.006 332.552 296.31 332.747 296.83 332.92C297.393 333.093 297.978 333.223 298.585 333.31C299.191 333.353 299.625 333.375 299.885 333.375C300.015 333.548 300.08 333.852 300.08 334.285C300.123 334.718 300.058 335.022 299.885 335.195C298.585 335.108 297.436 335.043 296.44 335C295.486 334.913 294.381 334.87 293.125 334.87C291.911 334.87 290.806 334.913 289.81 335C288.813 335.043 287.665 335.108 286.365 335.195C286.191 335.022 286.105 334.718 286.105 334.285C286.148 333.852 286.235 333.548 286.365 333.375C286.625 333.375 287.058 333.353 287.665 333.31C288.315 333.223 288.921 333.093 289.485 332.92C290.048 332.747 290.351 332.552 290.395 332.335C290.568 331.815 290.655 331.143 290.655 330.32C290.698 329.497 290.72 328.608 290.72 327.655V315.825C290.72 315.392 290.698 314.828 290.655 314.135C290.655 313.442 290.568 312.9 290.395 312.51C290.265 312.12 289.896 311.86 289.29 311.73C288.683 311.557 288.076 311.47 287.47 311.47C286.863 311.427 286.473 311.405 286.3 311.405C286.256 311.318 286.213 311.058 286.17 310.625C286.126 310.192 286.17 309.888 286.3 309.715C287.946 309.498 289.55 309.173 291.11 308.74C292.67 308.307 294.078 307.743 295.335 307.05C295.508 307.05 295.66 307.18 295.79 307.44C295.963 307.7 296.05 307.917 296.05 308.09C296.05 308.22 296.006 308.588 295.92 309.195C295.833 309.802 295.746 310.408 295.66 311.015C295.616 311.622 295.595 312.033 295.595 312.25V327.655ZM316.635 307.115C319.452 307.115 321.857 307.722 323.85 308.935C325.887 310.148 327.447 311.795 328.53 313.875C329.657 315.955 330.22 318.317 330.22 320.96C330.22 323.69 329.635 326.16 328.465 328.37C327.295 330.537 325.692 332.27 323.655 333.57C321.618 334.827 319.322 335.455 316.765 335.455C313.992 335.455 311.565 334.848 309.485 333.635C307.448 332.378 305.867 330.71 304.74 328.63C303.657 326.507 303.115 324.123 303.115 321.48C303.115 318.75 303.7 316.302 304.87 314.135C306.083 311.968 307.708 310.257 309.745 309C311.782 307.743 314.078 307.115 316.635 307.115ZM315.92 309.26C314.143 309.26 312.713 309.802 311.63 310.885C310.547 311.925 309.767 313.29 309.29 314.98C308.813 316.627 308.575 318.36 308.575 320.18C308.575 322.217 308.9 324.253 309.55 326.29C310.243 328.327 311.24 330.017 312.54 331.36C313.883 332.703 315.508 333.375 317.415 333.375C319.235 333.375 320.665 332.855 321.705 331.815C322.788 330.732 323.568 329.345 324.045 327.655C324.522 325.965 324.76 324.232 324.76 322.455C324.76 320.375 324.413 318.338 323.72 316.345C323.027 314.308 322.03 312.618 320.73 311.275C319.43 309.932 317.827 309.26 315.92 309.26ZM352.649 307.18C354.946 307.18 356.679 307.657 357.849 308.61C359.019 309.563 359.799 311.037 360.189 313.03C360.623 315.023 360.839 317.558 360.839 320.635V327.655C360.839 328.608 360.839 329.497 360.839 330.32C360.883 331.143 360.991 331.815 361.164 332.335C361.251 332.552 361.554 332.747 362.074 332.92C362.638 333.093 363.223 333.223 363.829 333.31C364.436 333.353 364.869 333.375 365.129 333.375C365.259 333.548 365.324 333.852 365.324 334.285C365.368 334.718 365.303 335.022 365.129 335.195C363.829 335.108 362.681 335.043 361.684 335C360.731 334.913 359.626 334.87 358.369 334.87C357.156 334.87 356.051 334.913 355.054 335C354.058 335.043 352.909 335.108 351.609 335.195C351.436 335.022 351.349 334.718 351.349 334.285C351.393 333.852 351.479 333.548 351.609 333.375C351.869 333.375 352.303 333.353 352.909 333.31C353.559 333.223 354.166 333.093 354.729 332.92C355.293 332.747 355.596 332.552 355.639 332.335C355.813 331.815 355.899 331.143 355.899 330.32C355.943 329.497 355.964 328.608 355.964 327.655V321.285C355.964 318.642 355.791 316.583 355.444 315.11C355.098 313.593 354.469 312.51 353.559 311.86C352.649 311.21 351.371 310.885 349.724 310.885C348.944 310.885 348.078 311.145 347.124 311.665C346.214 312.142 345.413 312.662 344.719 313.225C344.026 313.788 343.679 314.178 343.679 314.395V327.655C343.679 328.608 343.679 329.497 343.679 330.32C343.723 331.143 343.831 331.815 344.004 332.335C344.091 332.552 344.394 332.747 344.914 332.92C345.478 333.093 346.063 333.223 346.669 333.31C347.276 333.353 347.709 333.375 347.969 333.375C348.099 333.548 348.164 333.852 348.164 334.285C348.208 334.718 348.143 335.022 347.969 335.195C346.669 335.108 345.521 335.043 344.524 335C343.571 334.913 342.466 334.87 341.209 334.87C339.996 334.87 338.891 334.913 337.894 335C336.898 335.043 335.749 335.108 334.449 335.195C334.276 335.022 334.189 334.718 334.189 334.285C334.233 333.852 334.319 333.548 334.449 333.375C334.709 333.375 335.143 333.353 335.749 333.31C336.399 333.223 337.006 333.093 337.569 332.92C338.133 332.747 338.436 332.552 338.479 332.335C338.653 331.815 338.739 331.143 338.739 330.32C338.783 329.497 338.804 328.608 338.804 327.655V316.085C338.804 315.652 338.783 315.045 338.739 314.265C338.739 313.485 338.653 312.9 338.479 312.51C338.349 312.12 337.981 311.86 337.374 311.73C336.768 311.557 336.161 311.47 335.554 311.47C334.948 311.427 334.558 311.405 334.384 311.405C334.341 311.318 334.298 311.058 334.254 310.625C334.211 310.192 334.254 309.888 334.384 309.715C336.031 309.498 337.634 309.173 339.194 308.74C340.754 308.307 342.163 307.743 343.419 307.05C343.593 307.05 343.744 307.18 343.874 307.44C344.048 307.7 344.134 307.917 344.134 308.09C344.134 308.22 344.091 308.567 344.004 309.13C343.961 309.65 343.896 310.17 343.809 310.69C343.766 311.21 343.744 311.557 343.744 311.73C343.744 311.903 343.788 311.99 343.874 311.99C343.918 311.99 343.983 311.947 344.069 311.86C344.503 311.383 345.196 310.777 346.149 310.04C347.146 309.303 348.229 308.653 349.399 308.09C350.569 307.483 351.653 307.18 352.649 307.18ZM377.58 307.245C378.837 307.245 379.877 307.353 380.7 307.57C381.567 307.743 382.694 307.917 384.08 308.09C384.297 309.043 384.47 310.17 384.6 311.47C384.73 312.727 384.817 313.918 384.86 315.045C384.86 315.262 384.644 315.37 384.21 315.37C384.037 315.37 383.842 315.348 383.625 315.305C383.452 315.262 383.279 315.175 383.105 315.045C382.889 314.265 382.52 313.42 382 312.51C381.524 311.6 380.917 310.842 380.18 310.235C379.487 309.585 378.685 309.26 377.775 309.26C376.259 309.26 375.132 309.65 374.395 310.43C373.659 311.167 373.29 312.098 373.29 313.225C373.29 314.308 373.55 315.197 374.07 315.89C374.59 316.54 375.262 317.125 376.085 317.645C376.952 318.122 377.862 318.642 378.815 319.205C379.769 319.768 380.809 320.397 381.935 321.09C383.062 321.783 384.037 322.607 384.86 323.56C385.684 324.47 386.095 325.597 386.095 326.94C386.095 328.63 385.64 330.147 384.73 331.49C383.82 332.79 382.629 333.83 381.155 334.61C379.682 335.347 378.079 335.715 376.345 335.715C374.872 335.715 373.615 335.563 372.575 335.26C371.535 335 370.322 334.74 368.935 334.48C368.762 334.003 368.589 333.353 368.415 332.53C368.242 331.707 368.09 330.862 367.96 329.995C367.874 329.128 367.83 328.435 367.83 327.915C368.177 327.655 368.567 327.525 369 327.525C369.217 327.525 369.39 327.568 369.52 327.655C369.78 328.522 370.235 329.432 370.885 330.385C371.535 331.295 372.337 332.075 373.29 332.725C374.244 333.332 375.284 333.635 376.41 333.635C377.71 333.635 378.794 333.245 379.66 332.465C380.527 331.685 380.96 330.558 380.96 329.085C380.96 327.785 380.57 326.745 379.79 325.965C379.01 325.142 378.035 324.427 376.865 323.82C375.695 323.17 374.482 322.498 373.225 321.805C371.969 321.068 370.842 320.18 369.845 319.14C368.892 318.057 368.415 316.67 368.415 314.98C368.415 313.42 368.849 312.055 369.715 310.885C370.625 309.715 371.774 308.827 373.16 308.22C374.547 307.57 376.02 307.245 377.58 307.245Z" fill="black"/>
</g>
<defs>
<filter id="filter0_d_28499_3" x="40" y="44" width="432" height="432" filterUnits="userSpaceOnUse" color-interpolation-filters="sRGB">
<feFlood flood-opacity="0" result="BackgroundImageFix"/>
<feColorMatrix in="SourceAlpha" type="matrix" values="0 0 0 0 0 0 0 0 0 0 0 0 0 0 0 0 0 0 127 0" result="hardAlpha"/>
<feOffset dy="4"/>
<feGaussianBlur stdDeviation="5"/>
<feComposite in2="hardAlpha" operator="out"/>
<feColorMatrix type="matrix" values="0 0 0 0 0 0 0 0 0 0 0 0 0 0 0 0 0 0 0.25 0"/>
<feBlend mode="normal" in2="BackgroundImageFix" result="effect1_dropShadow_28499_3"/>
<feBlend mode="normal" in="SourceGraphic" in2="effect1_dropShadow_28499_3" result="shape"/>
</filter>
<filter id="filter1_i_28499_3" x="70" y="70" width="372" height="372" filterUnits="userSpaceOnUse" color-interpolation-filters="sRGB">
<feFlood flood-opacity="0" result="BackgroundImageFix"/>
<feBlend mode="normal" in="SourceGraphic" in2="BackgroundImageFix" result="shape"/>
<feColorMatrix in="SourceAlpha" type="matrix" values="0 0 0 0 0 0 0 0 0 0 0 0 0 0 0 0 0 0 127 0" result="hardAlpha"/>
<feOffset/>
<feGaussianBlur stdDeviation="4"/>
<feComposite in2="hardAlpha" operator="arithmetic" k2="-1" k3="1"/>
<feColorMatrix type="matrix" values="0 0 0 0 0 0 0 0 0 0 0 0 0 0 0 0 0 0 0.5 0"/>
<feBlend mode="normal" in2="shape" result="effect1_innerShadow_28499_3"/>
</filter>
<filter id="filter2_d_28499_3" x="111.034" y="201.95" width="289.145" height="76.49" filterUnits="userSpaceOnUse" color-interpolation-filters="sRGB">
<feFlood flood-opacity="0" result="BackgroundImageFix"/>
<feColorMatrix in="SourceAlpha" type="matrix" values="0 0 0 0 0 0 0 0 0 0 0 0 0 0 0 0 0 0 127 0" result="hardAlpha"/>
<feOffset dy="1"/>
<feGaussianBlur stdDeviation="1"/>
<feComposite in2="hardAlpha" operator="out"/>
<feColorMatrix type="matrix" values="0 0 0 0 1 0 0 0 0 1 0 0 0 0 1 0 0 0 0.5 0"/>
<feBlend mode="normal" in2="BackgroundImageFix" result="effect1_dropShadow_28499_3"/>
<feBlend mode="normal" in="SourceGraphic" in2="effect1_dropShadow_28499_3" result="shape"/>
</filter>
<filter id="filter3_d_28499_3" x="123.817" y="289.93" width="264.279" height="48.785" filterUnits="userSpaceOnUse" color-interpolation-filters="sRGB">
<feFlood flood-opacity="0" result="BackgroundImageFix"/>
<feColorMatrix in="SourceAlpha" type="matrix" values="0 0 0 0 0 0 0 0 0 0 0 0 0 0 0 0 0 0 127 0" result="hardAlpha"/>
<feOffset dy="1"/>
<feGaussianBlur stdDeviation="1"/>
<feComposite in2="hardAlpha" operator="out"/>
<feColorMatrix type="matrix" values="0 0 0 0 1 0 0 0 0 1 0 0 0 0 1 0 0 0 0.5 0"/>
<feBlend mode="normal" in2="BackgroundImageFix" result="effect1_dropShadow_28499_3"/>
<feBlend mode="normal" in="SourceGraphic" in2="effect1_dropShadow_28499_3" result="shape"/>
</filter>
<linearGradient id="paint0_linear_28499_3" x1="256" y1="70" x2="256" y2="442" gradientUnits="userSpaceOnUse">
<stop stop-color="#FFE4BB"/>
<stop offset="1" stop-color="#F6BC66"/>
</linearGradient>
</defs>
</svg>
