<svg width="512" height="512" viewBox="0 0 512 512" fill="none" xmlns="http://www.w3.org/2000/svg">
<g filter="url(#filter0_d_28499_3)">
<rect x="50" y="50" width="412" height="412" rx="92" fill="white"/>
<rect x="50.5" y="50.5" width="411" height="411" rx="91.5" stroke="#E4E4E4"/>
</g>
<circle cx="256" cy="256" r="186" fill="url(#paint0_linear_28499_3)"/>
<path d="M127.994 207.38C129.827 207.38 131.44 207.343 132.834 207.27C134.227 207.123 135.51 207.013 136.684 206.94C137.124 208.333 137.93 210.497 139.104 213.43C140.35 216.363 141.78 219.847 143.394 223.88C145.08 227.84 146.877 232.057 148.784 236.53C150.69 241.003 152.56 245.477 154.394 249.95C156.227 254.35 157.914 258.457 159.454 262.27C159.527 262.417 159.674 262.49 159.894 262.49C160.114 262.49 160.26 262.343 160.334 262.05C162.46 256.623 164.367 251.747 166.054 247.42C167.74 243.02 169.427 238.657 171.114 234.33C172.874 229.93 174.78 225.09 176.834 219.81C177.494 218.123 178.19 216.29 178.924 214.31C179.657 212.33 180.28 210.607 180.794 209.14C181.307 207.673 181.564 206.94 181.564 206.94C185.01 207.16 187.834 207.27 190.034 207.27C191.94 207.27 194.067 207.233 196.414 207.16C198.834 207.087 200.704 207.013 202.024 206.94C202.097 207.087 202.17 207.637 202.244 208.59C202.317 209.543 202.354 210.02 202.354 210.02C201.84 210.02 200.997 210.093 199.824 210.24C198.724 210.387 197.66 210.607 196.634 210.9C195.607 211.193 194.984 211.523 194.764 211.89C194.544 212.403 194.397 213.063 194.324 213.87C194.25 214.677 194.214 215.41 194.214 216.07C194.287 217.903 194.36 220.69 194.434 224.43C194.507 228.17 194.58 232.387 194.654 237.08C194.8 241.7 194.91 246.283 194.984 250.83C195.13 255.377 195.24 259.41 195.314 262.93C195.387 264.983 195.497 266.927 195.644 268.76C195.79 270.593 196.12 272.133 196.634 273.38C196.854 273.893 197.514 274.297 198.614 274.59C199.714 274.81 200.814 274.993 201.914 275.14C203.087 275.213 203.82 275.25 204.114 275.25C204.407 275.763 204.517 276.387 204.444 277.12C204.444 277.78 204.407 278.183 204.334 278.33C202.207 278.183 200.117 278.073 198.064 278C196.084 277.853 193.92 277.78 191.574 277.78C189.08 277.78 186.917 277.853 185.084 278C183.25 278.073 181.087 278.183 178.594 278.33C178.52 278.183 178.447 277.743 178.374 277.01C178.3 276.277 178.374 275.69 178.594 275.25C179.034 275.25 179.73 275.213 180.684 275.14C181.637 274.993 182.59 274.847 183.544 274.7C184.497 274.48 185.194 274.26 185.634 274.04C186 273.82 186.257 273.197 186.404 272.17C186.55 271.143 186.624 270.263 186.624 269.53C186.624 268.723 186.587 267.697 186.514 266.45C186.44 265.13 186.404 264.067 186.404 263.26C186.257 258.053 186.11 253.067 185.964 248.3C185.817 243.46 185.67 238.547 185.524 233.56C185.377 228.5 185.194 223.073 184.974 217.28C184.974 217.06 184.9 216.657 184.754 216.07C184.607 215.483 184.35 215.19 183.984 215.19C183.837 215.19 183.654 215.447 183.434 215.96C181.234 221.46 179.18 226.557 177.274 231.25C175.44 235.943 173.644 240.49 171.884 244.89C170.124 249.217 168.327 253.653 166.494 258.2C164.734 262.673 162.827 267.513 160.774 272.72C160.627 273.013 160.297 273.6 159.784 274.48C159.27 275.36 158.72 276.203 158.134 277.01C157.62 277.743 157.144 278.147 156.704 278.22C156.557 278.293 156.3 278.257 155.934 278.11C155.86 278.037 155.787 278 155.714 278L129.534 215.3C129.46 219.993 129.35 224.833 129.204 229.82C129.057 234.807 128.91 239.647 128.764 244.34C128.69 249.033 128.58 253.287 128.434 257.1C128.36 260.84 128.287 263.883 128.214 266.23C128.14 268.503 128.104 269.75 128.104 269.97C128.104 270.483 128.14 271.07 128.214 271.73C128.287 272.317 128.397 272.83 128.544 273.27C128.764 273.783 129.497 274.187 130.744 274.48C132.064 274.773 133.384 274.993 134.704 275.14C136.024 275.213 136.83 275.25 137.124 275.25C137.417 275.543 137.527 276.093 137.454 276.9C137.38 277.707 137.307 278.183 137.234 278.33C135.107 278.183 133.274 278.073 131.734 278C130.194 277.853 128.25 277.78 125.904 277.78C123.41 277.78 121.32 277.853 119.634 278C117.947 278.073 115.857 278.183 113.364 278.33C113.29 278.183 113.217 277.743 113.144 277.01C113.07 276.277 113.144 275.69 113.364 275.25C113.804 275.25 114.647 275.177 115.894 275.03C117.214 274.883 118.497 274.663 119.744 274.37C120.99 274.077 121.76 273.71 122.054 273.27C122.567 272.537 122.897 271.767 123.044 270.96C123.19 270.08 123.3 269.053 123.374 267.88C123.594 261.427 123.777 255.23 123.924 249.29C124.144 243.35 124.29 238.033 124.364 233.34C124.51 228.573 124.62 224.723 124.694 221.79C124.767 218.783 124.804 217.023 124.804 216.51C124.804 215.703 124.767 214.933 124.694 214.2C124.694 213.467 124.584 212.807 124.364 212.22C124.217 211.78 123.594 211.413 122.494 211.12C121.467 210.753 120.367 210.497 119.194 210.35C118.094 210.13 117.324 210.02 116.884 210.02C116.81 210.02 116.774 209.543 116.774 208.59C116.774 207.563 116.81 207.013 116.884 206.94C118.57 207.013 119.927 207.087 120.954 207.16C121.98 207.233 123.007 207.307 124.034 207.38C125.06 207.38 126.38 207.38 127.994 207.38ZM229.828 207.38C231.954 207.38 234.008 207.343 235.988 207.27C238.041 207.123 240.168 207.013 242.368 206.94C242.661 207.233 242.771 207.747 242.698 208.48C242.698 209.213 242.588 209.727 242.368 210.02C241.928 210.02 241.121 210.093 239.948 210.24C238.774 210.313 237.674 210.46 236.648 210.68C235.621 210.9 235.034 211.23 234.888 211.67C234.668 212.403 234.521 213.357 234.448 214.53C234.448 215.703 234.448 216.987 234.448 218.38C234.448 218.6 234.448 218.82 234.448 219.04C234.448 219.26 234.448 219.48 234.448 219.7V265.57C234.448 265.79 234.448 266.01 234.448 266.23C234.448 266.45 234.448 266.67 234.448 266.89C234.448 268.283 234.448 269.567 234.448 270.74C234.521 271.84 234.668 272.757 234.888 273.49C235.034 273.857 235.621 274.187 236.648 274.48C237.674 274.773 238.774 274.993 239.948 275.14C241.121 275.213 241.928 275.25 242.368 275.25C242.588 275.543 242.698 276.057 242.698 276.79C242.771 277.523 242.661 278.037 242.368 278.33C240.168 278.183 238.041 278.073 235.988 278C234.008 277.853 231.954 277.78 229.828 277.78C227.774 277.78 225.684 277.853 223.558 278C221.431 278.073 219.268 278.183 217.068 278.33C216.774 278.037 216.628 277.523 216.628 276.79C216.701 276.057 216.848 275.543 217.068 275.25C217.508 275.25 218.314 275.213 219.488 275.14C220.661 274.993 221.761 274.773 222.788 274.48C223.888 274.187 224.474 273.857 224.548 273.49C224.841 272.61 224.988 271.473 224.988 270.08C225.061 268.687 225.098 267.183 225.098 265.57V219.7C225.098 218.087 225.061 216.583 224.988 215.19C224.988 213.723 224.841 212.55 224.548 211.67C224.474 211.23 223.888 210.9 222.788 210.68C221.761 210.46 220.661 210.313 219.488 210.24C218.314 210.093 217.508 210.02 217.068 210.02C216.848 209.727 216.701 209.213 216.628 208.48C216.628 207.747 216.774 207.233 217.068 206.94C219.268 207.013 221.431 207.123 223.558 207.27C225.684 207.343 227.774 207.38 229.828 207.38ZM267.272 207.38C269.399 207.38 271.452 207.343 273.432 207.27C275.486 207.123 277.612 207.013 279.812 206.94C280.106 207.233 280.216 207.747 280.142 208.48C280.142 209.213 280.032 209.727 279.812 210.02C279.372 210.02 278.566 210.093 277.392 210.24C276.292 210.313 275.229 210.46 274.202 210.68C273.176 210.9 272.589 211.23 272.442 211.67C272.149 212.55 271.966 213.723 271.892 215.19C271.892 216.583 271.892 218.087 271.892 219.7V246.21C271.892 250.683 272.332 254.57 273.212 257.87C274.166 261.17 275.486 263.883 277.172 266.01C280.546 270.117 285.459 272.17 291.912 272.17C295.652 272.17 299.062 271.473 302.142 270.08C305.222 268.687 307.716 266.303 309.622 262.93C311.602 259.483 312.629 254.68 312.702 248.52V219.48C312.702 217.573 312.666 216.07 312.592 214.97C312.519 213.87 312.189 212.88 311.602 212C311.382 211.633 310.759 211.303 309.732 211.01C308.706 210.643 307.606 210.387 306.432 210.24C305.332 210.02 304.489 209.91 303.902 209.91C303.609 209.543 303.462 209.03 303.462 208.37C303.536 207.637 303.609 207.123 303.682 206.83C305.809 206.903 307.716 207.013 309.402 207.16C311.162 207.233 313.216 207.27 315.562 207.27C317.249 207.27 318.606 207.27 319.632 207.27C320.732 207.197 321.832 207.123 322.932 207.05C324.106 206.977 325.499 206.903 327.112 206.83C327.259 207.123 327.369 207.563 327.442 208.15C327.516 208.737 327.406 209.323 327.112 209.91C326.672 209.91 325.829 209.983 324.582 210.13C323.336 210.277 322.126 210.533 320.952 210.9C319.779 211.193 319.046 211.56 318.752 212C318.239 212.807 317.909 213.723 317.762 214.75C317.689 215.777 317.652 217.317 317.652 219.37V248.3C317.652 255.413 316.479 261.207 314.132 265.68C311.786 270.08 308.486 273.307 304.232 275.36C300.052 277.413 295.176 278.44 289.602 278.44C285.789 278.44 282.232 277.817 278.932 276.57C275.632 275.323 272.809 273.563 270.462 271.29C267.969 268.943 266.026 266.047 264.632 262.6C263.239 259.153 262.542 255.303 262.542 251.05V219.7C262.542 218.087 262.506 216.583 262.432 215.19C262.432 213.723 262.286 212.55 261.992 211.67C261.919 211.23 261.332 210.9 260.232 210.68C259.206 210.46 258.106 210.313 256.932 210.24C255.832 210.093 255.062 210.02 254.622 210.02C254.402 209.727 254.256 209.213 254.182 208.48C254.182 207.747 254.329 207.233 254.622 206.94C256.822 207.013 258.949 207.123 261.002 207.27C263.129 207.343 265.219 207.38 267.272 207.38ZM356.708 210.79C353.115 210.79 350.072 212.037 347.578 214.53C345.085 217.023 343.252 220.47 342.078 224.87C341.858 225.163 341.455 225.31 340.868 225.31C340.355 225.31 339.805 225.2 339.218 224.98C338.632 224.76 338.265 224.577 338.118 224.43C339.072 221.937 339.805 219.187 340.318 216.18C340.905 213.1 341.345 209.763 341.638 206.17C342.812 206.317 344.205 206.5 345.818 206.72C347.505 206.867 349.045 206.94 350.438 206.94H371.338C374.345 206.94 376.985 206.903 379.258 206.83C381.532 206.757 383.768 206.647 385.968 206.5C388.242 206.353 390.882 206.17 393.888 205.95C394.108 206.023 394.475 206.317 394.988 206.83C395.502 207.343 395.758 207.82 395.758 208.26C395.758 208.333 395.098 209.36 393.778 211.34C392.458 213.247 390.698 215.777 388.498 218.93C386.372 222.083 383.952 225.603 381.238 229.49C378.598 233.377 375.848 237.41 372.988 241.59C370.128 245.77 367.342 249.803 364.628 253.69C361.915 257.503 359.495 260.987 357.368 264.14C355.242 267.22 353.518 269.677 352.198 271.51C350.952 273.343 350.328 274.26 350.328 274.26H378.378C380.725 274.26 382.668 273.93 384.208 273.27C385.822 272.537 387.215 271.583 388.388 270.41C389.928 268.87 391.102 267.11 391.908 265.13C392.788 263.15 393.522 261.39 394.108 259.85C394.182 259.703 394.365 259.63 394.658 259.63C394.952 259.557 395.245 259.52 395.538 259.52C396.125 259.52 396.638 259.63 397.078 259.85C397.592 260.07 397.958 260.29 398.178 260.51C397.372 263.297 396.638 265.68 395.978 267.66C395.392 269.567 394.842 271.327 394.328 272.94C393.888 274.48 393.448 276.167 393.008 278H339.218C338.632 278 338.082 277.817 337.568 277.45C337.128 277.083 337.018 276.753 337.238 276.46L382.888 210.79H356.708Z" fill="black"/>
<path d="M147.592 313.495C147.592 314.622 147.332 315.423 146.812 315.9C146.292 316.333 145.75 316.55 145.187 316.55C144.493 316.55 143.843 316.247 143.237 315.64C142.63 315.033 142.045 314.557 141.482 314.21C140.788 313.733 140.225 313.408 139.792 313.235C139.358 313.062 138.73 312.975 137.907 312.975C136.78 312.975 135.653 313.408 134.527 314.275C133.443 315.098 132.533 316.29 131.797 317.85C131.103 319.41 130.757 321.317 130.757 323.57C130.757 327.253 131.753 329.962 133.747 331.695C135.74 333.428 138.167 334.295 141.027 334.295C142.803 334.295 144.255 333.883 145.382 333.06C146.552 332.237 147.353 331.587 147.787 331.11C147.83 331.11 147.917 331.197 148.047 331.37C148.22 331.5 148.307 331.695 148.307 331.955C148.307 332.302 148.177 332.692 147.917 333.125C147.527 333.732 146.92 334.468 146.097 335.335C145.273 336.158 144.233 336.895 142.977 337.545C141.72 338.195 140.268 338.52 138.622 338.52C136.065 338.52 133.812 337.913 131.862 336.7C129.955 335.487 128.46 333.905 127.377 331.955C126.337 330.005 125.817 327.925 125.817 325.715C125.817 323.375 126.293 321.273 127.247 319.41C128.243 317.503 129.5 315.857 131.017 314.47C132.577 313.083 134.245 312.022 136.022 311.285C137.842 310.548 139.575 310.18 141.222 310.18C143.562 310.18 145.468 310.7 146.942 311.74C147.072 311.87 147.202 312.108 147.332 312.455C147.505 312.802 147.592 313.148 147.592 313.495ZM165.667 310.115C168.484 310.115 170.889 310.722 172.882 311.935C174.919 313.148 176.479 314.795 177.562 316.875C178.689 318.955 179.252 321.317 179.252 323.96C179.252 326.69 178.667 329.16 177.497 331.37C176.327 333.537 174.724 335.27 172.687 336.57C170.651 337.827 168.354 338.455 165.797 338.455C163.024 338.455 160.597 337.848 158.517 336.635C156.481 335.378 154.899 333.71 153.772 331.63C152.689 329.507 152.147 327.123 152.147 324.48C152.147 321.75 152.732 319.302 153.902 317.135C155.116 314.968 156.741 313.257 158.777 312C160.814 310.743 163.111 310.115 165.667 310.115ZM164.952 312.26C163.176 312.26 161.746 312.802 160.662 313.885C159.579 314.925 158.799 316.29 158.322 317.98C157.846 319.627 157.607 321.36 157.607 323.18C157.607 325.217 157.932 327.253 158.582 329.29C159.276 331.327 160.272 333.017 161.572 334.36C162.916 335.703 164.541 336.375 166.447 336.375C168.267 336.375 169.697 335.855 170.737 334.815C171.821 333.732 172.601 332.345 173.077 330.655C173.554 328.965 173.792 327.232 173.792 325.455C173.792 323.375 173.446 321.338 172.752 319.345C172.059 317.308 171.062 315.618 169.762 314.275C168.462 312.932 166.859 312.26 164.952 312.26ZM186.862 302.575C186.862 302.098 186.84 301.535 186.797 300.885C186.797 300.192 186.71 299.65 186.537 299.26C186.363 298.783 185.887 298.48 185.107 298.35C184.37 298.22 183.568 298.155 182.702 298.155C182.658 298.155 182.615 297.895 182.572 297.375C182.572 296.812 182.637 296.508 182.767 296.465C184.37 296.292 185.93 295.988 187.447 295.555C188.964 295.078 190.394 294.537 191.737 293.93C191.91 293.93 192.062 294.06 192.192 294.32C192.365 294.537 192.452 294.753 192.452 294.97C192.452 294.97 192.322 295.447 192.062 296.4C191.845 297.353 191.737 298.718 191.737 300.495V330.655C191.737 331.608 191.737 332.497 191.737 333.32C191.78 334.143 191.888 334.815 192.062 335.335C192.149 335.552 192.452 335.747 192.972 335.92C193.535 336.093 194.12 336.223 194.727 336.31C195.377 336.353 195.832 336.375 196.092 336.375C196.222 336.548 196.287 336.852 196.287 337.285C196.33 337.718 196.265 338.022 196.092 338.195C194.792 338.108 193.644 338.043 192.647 338C191.65 337.913 190.524 337.87 189.267 337.87C188.053 337.87 186.948 337.913 185.952 338C184.998 338.043 183.872 338.108 182.572 338.195C182.398 338.022 182.312 337.718 182.312 337.285C182.355 336.852 182.442 336.548 182.572 336.375C182.832 336.375 183.265 336.353 183.872 336.31C184.478 336.223 185.063 336.093 185.627 335.92C186.19 335.747 186.493 335.552 186.537 335.335C186.71 334.815 186.797 334.143 186.797 333.32C186.84 332.497 186.862 331.608 186.862 330.655V302.575ZM202.398 302.575C202.398 302.098 202.377 301.535 202.333 300.885C202.333 300.192 202.247 299.65 202.073 299.26C201.9 298.783 201.423 298.48 200.643 298.35C199.907 298.22 199.105 298.155 198.238 298.155C198.195 298.155 198.152 297.895 198.108 297.375C198.108 296.812 198.173 296.508 198.303 296.465C199.907 296.292 201.467 295.988 202.983 295.555C204.5 295.078 205.93 294.537 207.273 293.93C207.447 293.93 207.598 294.06 207.728 294.32C207.902 294.537 207.988 294.753 207.988 294.97C207.988 294.97 207.858 295.447 207.598 296.4C207.382 297.353 207.273 298.718 207.273 300.495V330.655C207.273 331.608 207.273 332.497 207.273 333.32C207.317 334.143 207.425 334.815 207.598 335.335C207.685 335.552 207.988 335.747 208.508 335.92C209.072 336.093 209.657 336.223 210.263 336.31C210.913 336.353 211.368 336.375 211.628 336.375C211.758 336.548 211.823 336.852 211.823 337.285C211.867 337.718 211.802 338.022 211.628 338.195C210.328 338.108 209.18 338.043 208.183 338C207.187 337.913 206.06 337.87 204.803 337.87C203.59 337.87 202.485 337.913 201.488 338C200.535 338.043 199.408 338.108 198.108 338.195C197.935 338.022 197.848 337.718 197.848 337.285C197.892 336.852 197.978 336.548 198.108 336.375C198.368 336.375 198.802 336.353 199.408 336.31C200.015 336.223 200.6 336.093 201.163 335.92C201.727 335.747 202.03 335.552 202.073 335.335C202.247 334.815 202.333 334.143 202.333 333.32C202.377 332.497 202.398 331.608 202.398 330.655V302.575ZM219.3 322.27C219.257 324.957 219.712 327.21 220.665 329.03C221.618 330.85 222.897 332.215 224.5 333.125C226.103 333.992 227.837 334.425 229.7 334.425C230.87 334.425 231.932 334.23 232.885 333.84C233.838 333.407 234.64 332.93 235.29 332.41C235.94 331.847 236.395 331.413 236.655 331.11C236.698 331.11 236.785 331.197 236.915 331.37C237.088 331.5 237.175 331.695 237.175 331.955C237.175 332.302 237.045 332.692 236.785 333.125C236.395 333.732 235.788 334.468 234.965 335.335C234.142 336.158 233.102 336.895 231.845 337.545C230.588 338.195 229.137 338.52 227.49 338.52C225.02 338.52 222.832 337.935 220.925 336.765C219.018 335.595 217.523 334.013 216.44 332.02C215.357 330.027 214.815 327.795 214.815 325.325C214.815 323.202 215.183 321.23 215.92 319.41C216.7 317.547 217.697 315.943 218.91 314.6C220.167 313.213 221.532 312.13 223.005 311.35C224.478 310.57 225.908 310.18 227.295 310.18C229.202 310.18 230.762 310.505 231.975 311.155C233.232 311.805 234.207 312.607 234.9 313.56C235.637 314.513 236.135 315.467 236.395 316.42C236.698 317.373 236.85 318.175 236.85 318.825C236.85 319.735 236.742 320.45 236.525 320.97C236.308 321.49 235.897 321.772 235.29 321.815C234.9 321.858 234.12 321.902 232.95 321.945C231.823 321.945 230.523 321.967 229.05 322.01C227.577 322.053 226.125 322.097 224.695 322.14C223.265 322.183 222.052 322.227 221.055 322.27C220.058 322.27 219.473 322.27 219.3 322.27ZM219.625 319.93H229.96C230.35 319.93 230.675 319.822 230.935 319.605C231.238 319.388 231.412 318.998 231.455 318.435C231.498 317.915 231.347 317.178 231 316.225C230.653 315.272 230.09 314.405 229.31 313.625C228.573 312.845 227.555 312.455 226.255 312.455C224.912 312.455 223.807 312.845 222.94 313.625C222.073 314.362 221.38 315.228 220.86 316.225C220.383 317.178 220.037 318.045 219.82 318.825C219.647 319.562 219.582 319.93 219.625 319.93ZM263.106 313.495C263.106 314.622 262.846 315.423 262.326 315.9C261.806 316.333 261.265 316.55 260.701 316.55C260.008 316.55 259.358 316.247 258.751 315.64C258.145 315.033 257.56 314.557 256.996 314.21C256.303 313.733 255.74 313.408 255.306 313.235C254.873 313.062 254.245 312.975 253.421 312.975C252.295 312.975 251.168 313.408 250.041 314.275C248.958 315.098 248.048 316.29 247.311 317.85C246.618 319.41 246.271 321.317 246.271 323.57C246.271 327.253 247.268 329.962 249.261 331.695C251.255 333.428 253.681 334.295 256.541 334.295C258.318 334.295 259.77 333.883 260.896 333.06C262.066 332.237 262.868 331.587 263.301 331.11C263.345 331.11 263.431 331.197 263.561 331.37C263.735 331.5 263.821 331.695 263.821 331.955C263.821 332.302 263.691 332.692 263.431 333.125C263.041 333.732 262.435 334.468 261.611 335.335C260.788 336.158 259.748 336.895 258.491 337.545C257.235 338.195 255.783 338.52 254.136 338.52C251.58 338.52 249.326 337.913 247.376 336.7C245.47 335.487 243.975 333.905 242.891 331.955C241.851 330.005 241.331 327.925 241.331 325.715C241.331 323.375 241.808 321.273 242.761 319.41C243.758 317.503 245.015 315.857 246.531 314.47C248.091 313.083 249.76 312.022 251.536 311.285C253.356 310.548 255.09 310.18 256.736 310.18C259.076 310.18 260.983 310.7 262.456 311.74C262.586 311.87 262.716 312.108 262.846 312.455C263.02 312.802 263.106 313.148 263.106 313.495ZM275.202 310.57H283.392C283.609 310.57 283.717 310.808 283.717 311.285C283.717 311.935 283.414 312.563 282.807 313.17H275.202V329.81C275.202 333.277 276.61 335.01 279.427 335.01C280.38 335.01 281.247 334.815 282.027 334.425C282.807 334.035 283.305 333.753 283.522 333.58C283.652 333.623 283.717 333.753 283.717 333.97C283.717 334.447 283.63 334.772 283.457 334.945C283.154 335.292 282.677 335.747 282.027 336.31C281.42 336.873 280.684 337.372 279.817 337.805C278.95 338.238 277.997 338.455 276.957 338.455C275.874 338.455 274.812 338.26 273.772 337.87C272.775 337.48 271.952 336.787 271.302 335.79C270.652 334.793 270.327 333.385 270.327 331.565V313.17H266.622C266.535 313.17 266.47 313.105 266.427 312.975C266.384 312.802 266.362 312.672 266.362 312.585C266.362 312.498 266.492 312.303 266.752 312C267.012 311.653 267.272 311.328 267.532 311.025C267.835 310.722 267.987 310.57 267.987 310.57H270.327V306.605C270.76 306.128 271.259 305.587 271.822 304.98C272.429 304.33 272.97 303.745 273.447 303.225C273.924 302.662 274.184 302.358 274.227 302.315C274.4 302.142 274.595 302.055 274.812 302.055C275.072 302.055 275.202 302.12 275.202 302.25V310.57ZM289.485 300.365C289.485 299.498 289.788 298.762 290.395 298.155C291.045 297.505 291.803 297.18 292.67 297.18C293.536 297.18 294.273 297.505 294.88 298.155C295.53 298.762 295.855 299.498 295.855 300.365C295.855 301.232 295.53 301.99 294.88 302.64C294.273 303.247 293.536 303.55 292.67 303.55C291.803 303.55 291.045 303.247 290.395 302.64C289.788 301.99 289.485 301.232 289.485 300.365ZM295.595 330.655C295.595 331.608 295.595 332.497 295.595 333.32C295.638 334.143 295.746 334.815 295.92 335.335C296.006 335.552 296.31 335.747 296.83 335.92C297.393 336.093 297.978 336.223 298.585 336.31C299.191 336.353 299.625 336.375 299.885 336.375C300.015 336.548 300.08 336.852 300.08 337.285C300.123 337.718 300.058 338.022 299.885 338.195C298.585 338.108 297.436 338.043 296.44 338C295.486 337.913 294.381 337.87 293.125 337.87C291.911 337.87 290.806 337.913 289.81 338C288.813 338.043 287.665 338.108 286.365 338.195C286.191 338.022 286.105 337.718 286.105 337.285C286.148 336.852 286.235 336.548 286.365 336.375C286.625 336.375 287.058 336.353 287.665 336.31C288.315 336.223 288.921 336.093 289.485 335.92C290.048 335.747 290.351 335.552 290.395 335.335C290.568 334.815 290.655 334.143 290.655 333.32C290.698 332.497 290.72 331.608 290.72 330.655V318.825C290.72 318.392 290.698 317.828 290.655 317.135C290.655 316.442 290.568 315.9 290.395 315.51C290.265 315.12 289.896 314.86 289.29 314.73C288.683 314.557 288.076 314.47 287.47 314.47C286.863 314.427 286.473 314.405 286.3 314.405C286.256 314.318 286.213 314.058 286.17 313.625C286.126 313.192 286.17 312.888 286.3 312.715C287.946 312.498 289.55 312.173 291.11 311.74C292.67 311.307 294.078 310.743 295.335 310.05C295.508 310.05 295.66 310.18 295.79 310.44C295.963 310.7 296.05 310.917 296.05 311.09C296.05 311.22 296.006 311.588 295.92 312.195C295.833 312.802 295.746 313.408 295.66 314.015C295.616 314.622 295.595 315.033 295.595 315.25V330.655ZM316.635 310.115C319.452 310.115 321.857 310.722 323.85 311.935C325.887 313.148 327.447 314.795 328.53 316.875C329.657 318.955 330.22 321.317 330.22 323.96C330.22 326.69 329.635 329.16 328.465 331.37C327.295 333.537 325.692 335.27 323.655 336.57C321.618 337.827 319.322 338.455 316.765 338.455C313.992 338.455 311.565 337.848 309.485 336.635C307.448 335.378 305.867 333.71 304.74 331.63C303.657 329.507 303.115 327.123 303.115 324.48C303.115 321.75 303.7 319.302 304.87 317.135C306.083 314.968 307.708 313.257 309.745 312C311.782 310.743 314.078 310.115 316.635 310.115ZM315.92 312.26C314.143 312.26 312.713 312.802 311.63 313.885C310.547 314.925 309.767 316.29 309.29 317.98C308.813 319.627 308.575 321.36 308.575 323.18C308.575 325.217 308.9 327.253 309.55 329.29C310.243 331.327 311.24 333.017 312.54 334.36C313.883 335.703 315.508 336.375 317.415 336.375C319.235 336.375 320.665 335.855 321.705 334.815C322.788 333.732 323.568 332.345 324.045 330.655C324.522 328.965 324.76 327.232 324.76 325.455C324.76 323.375 324.413 321.338 323.72 319.345C323.027 317.308 322.03 315.618 320.73 314.275C319.43 312.932 317.827 312.26 315.92 312.26ZM352.649 310.18C354.946 310.18 356.679 310.657 357.849 311.61C359.019 312.563 359.799 314.037 360.189 316.03C360.623 318.023 360.839 320.558 360.839 323.635V330.655C360.839 331.608 360.839 332.497 360.839 333.32C360.883 334.143 360.991 334.815 361.164 335.335C361.251 335.552 361.554 335.747 362.074 335.92C362.638 336.093 363.223 336.223 363.829 336.31C364.436 336.353 364.869 336.375 365.129 336.375C365.259 336.548 365.324 336.852 365.324 337.285C365.368 337.718 365.303 338.022 365.129 338.195C363.829 338.108 362.681 338.043 361.684 338C360.731 337.913 359.626 337.87 358.369 337.87C357.156 337.87 356.051 337.913 355.054 338C354.058 338.043 352.909 338.108 351.609 338.195C351.436 338.022 351.349 337.718 351.349 337.285C351.393 336.852 351.479 336.548 351.609 336.375C351.869 336.375 352.303 336.353 352.909 336.31C353.559 336.223 354.166 336.093 354.729 335.92C355.293 335.747 355.596 335.552 355.639 335.335C355.813 334.815 355.899 334.143 355.899 333.32C355.943 332.497 355.964 331.608 355.964 330.655V324.285C355.964 321.642 355.791 319.583 355.444 318.11C355.098 316.593 354.469 315.51 353.559 314.86C352.649 314.21 351.371 313.885 349.724 313.885C348.944 313.885 348.078 314.145 347.124 314.665C346.214 315.142 345.413 315.662 344.719 316.225C344.026 316.788 343.679 317.178 343.679 317.395V330.655C343.679 331.608 343.679 332.497 343.679 333.32C343.723 334.143 343.831 334.815 344.004 335.335C344.091 335.552 344.394 335.747 344.914 335.92C345.478 336.093 346.063 336.223 346.669 336.31C347.276 336.353 347.709 336.375 347.969 336.375C348.099 336.548 348.164 336.852 348.164 337.285C348.208 337.718 348.143 338.022 347.969 338.195C346.669 338.108 345.521 338.043 344.524 338C343.571 337.913 342.466 337.87 341.209 337.87C339.996 337.87 338.891 337.913 337.894 338C336.898 338.043 335.749 338.108 334.449 338.195C334.276 338.022 334.189 337.718 334.189 337.285C334.233 336.852 334.319 336.548 334.449 336.375C334.709 336.375 335.143 336.353 335.749 336.31C336.399 336.223 337.006 336.093 337.569 335.92C338.133 335.747 338.436 335.552 338.479 335.335C338.653 334.815 338.739 334.143 338.739 333.32C338.783 332.497 338.804 331.608 338.804 330.655V319.085C338.804 318.652 338.783 318.045 338.739 317.265C338.739 316.485 338.653 315.9 338.479 315.51C338.349 315.12 337.981 314.86 337.374 314.73C336.768 314.557 336.161 314.47 335.554 314.47C334.948 314.427 334.558 314.405 334.384 314.405C334.341 314.318 334.298 314.058 334.254 313.625C334.211 313.192 334.254 312.888 334.384 312.715C336.031 312.498 337.634 312.173 339.194 311.74C340.754 311.307 342.163 310.743 343.419 310.05C343.593 310.05 343.744 310.18 343.874 310.44C344.048 310.7 344.134 310.917 344.134 311.09C344.134 311.22 344.091 311.567 344.004 312.13C343.961 312.65 343.896 313.17 343.809 313.69C343.766 314.21 343.744 314.557 343.744 314.73C343.744 314.903 343.788 314.99 343.874 314.99C343.918 314.99 343.983 314.947 344.069 314.86C344.503 314.383 345.196 313.777 346.149 313.04C347.146 312.303 348.229 311.653 349.399 311.09C350.569 310.483 351.653 310.18 352.649 310.18ZM377.58 310.245C378.837 310.245 379.877 310.353 380.7 310.57C381.567 310.743 382.694 310.917 384.08 311.09C384.297 312.043 384.47 313.17 384.6 314.47C384.73 315.727 384.817 316.918 384.86 318.045C384.86 318.262 384.644 318.37 384.21 318.37C384.037 318.37 383.842 318.348 383.625 318.305C383.452 318.262 383.279 318.175 383.105 318.045C382.889 317.265 382.52 316.42 382 315.51C381.524 314.6 380.917 313.842 380.18 313.235C379.487 312.585 378.685 312.26 377.775 312.26C376.259 312.26 375.132 312.65 374.395 313.43C373.659 314.167 373.29 315.098 373.29 316.225C373.29 317.308 373.55 318.197 374.07 318.89C374.59 319.54 375.262 320.125 376.085 320.645C376.952 321.122 377.862 321.642 378.815 322.205C379.769 322.768 380.809 323.397 381.935 324.09C383.062 324.783 384.037 325.607 384.86 326.56C385.684 327.47 386.095 328.597 386.095 329.94C386.095 331.63 385.64 333.147 384.73 334.49C383.82 335.79 382.629 336.83 381.155 337.61C379.682 338.347 378.079 338.715 376.345 338.715C374.872 338.715 373.615 338.563 372.575 338.26C371.535 338 370.322 337.74 368.935 337.48C368.762 337.003 368.589 336.353 368.415 335.53C368.242 334.707 368.09 333.862 367.96 332.995C367.874 332.128 367.83 331.435 367.83 330.915C368.177 330.655 368.567 330.525 369 330.525C369.217 330.525 369.39 330.568 369.52 330.655C369.78 331.522 370.235 332.432 370.885 333.385C371.535 334.295 372.337 335.075 373.29 335.725C374.244 336.332 375.284 336.635 376.41 336.635C377.71 336.635 378.794 336.245 379.66 335.465C380.527 334.685 380.96 333.558 380.96 332.085C380.96 330.785 380.57 329.745 379.79 328.965C379.01 328.142 378.035 327.427 376.865 326.82C375.695 326.17 374.482 325.498 373.225 324.805C371.969 324.068 370.842 323.18 369.845 322.14C368.892 321.057 368.415 319.67 368.415 317.98C368.415 316.42 368.849 315.055 369.715 313.885C370.625 312.715 371.774 311.827 373.16 311.22C374.547 310.57 376.02 310.245 377.58 310.245Z" fill="black"/>
<defs>
<filter id="filter0_d_28499_3" x="40" y="44" width="432" height="432" filterUnits="userSpaceOnUse" color-interpolation-filters="sRGB">
<feFlood flood-opacity="0" result="BackgroundImageFix"/>
<feColorMatrix in="SourceAlpha" type="matrix" values="0 0 0 0 0 0 0 0 0 0 0 0 0 0 0 0 0 0 127 0" result="hardAlpha"/>
<feOffset dy="4"/>
<feGaussianBlur stdDeviation="5"/>
<feComposite in2="hardAlpha" operator="out"/>
<feColorMatrix type="matrix" values="0 0 0 0 0 0 0 0 0 0 0 0 0 0 0 0 0 0 0.25 0"/>
<feBlend mode="normal" in2="BackgroundImageFix" result="effect1_dropShadow_28499_3"/>
<feBlend mode="normal" in="SourceGraphic" in2="effect1_dropShadow_28499_3" result="shape"/>
</filter>
<linearGradient id="paint0_linear_28499_3" x1="218" y1="70" x2="278" y2="460" gradientUnits="userSpaceOnUse">
<stop stop-color="#FFE5BF"/>
<stop offset="1" stop-color="#F4B75C"/>
</linearGradient>
</defs>
</svg>
