<svg width="512" height="512" viewBox="0 0 512 512" fill="none" xmlns="http://www.w3.org/2000/svg">
<g filter="url(#filter0_d_28524_6)">
<rect x="50" y="50" width="412" height="412" rx="92" fill="white"/>
<rect x="50.5" y="50.5" width="411" height="411" rx="91.5" stroke="#E4E4E4"/>
</g>
<g filter="url(#filter1_i_28524_6)">
<circle cx="256" cy="256" r="186" fill="url(#paint0_linear_28524_6)"/>
</g>
<g filter="url(#filter2_d_28524_6)">
<path d="M130.224 340.831C130.715 340.161 131.184 339.826 131.631 339.826C131.765 339.826 131.921 339.871 132.1 339.96C132.77 340.362 132.904 341.032 132.502 341.97C131.475 344.248 129.911 345.99 127.812 347.196C125.757 348.402 123.323 349.005 120.509 349.005C118.097 349.005 115.953 348.603 114.077 347.799C112.201 346.95 110.615 345.811 109.32 344.382C108.069 342.908 107.109 341.188 106.439 339.223C105.814 337.213 105.501 335.047 105.501 332.724C105.501 330.446 105.881 328.302 106.64 326.292C107.399 324.282 108.471 322.54 109.856 321.066C111.241 319.547 112.893 318.364 114.814 317.515C116.735 316.666 118.879 316.242 121.246 316.242C122.586 316.242 123.904 316.421 125.199 316.778C126.539 317.135 127.745 317.694 128.817 318.453C129.934 319.168 130.872 320.083 131.631 321.2C132.39 322.272 132.837 323.523 132.971 324.952C132.658 326.783 131.519 327.699 129.554 327.699C127.276 327.699 125.958 326.314 125.601 323.545L125.132 320.999C124.953 320.195 124.574 319.704 123.993 319.525C123.457 319.346 122.854 319.257 122.184 319.257C120.531 319.257 119.124 319.659 117.963 320.463C116.802 321.222 115.864 322.227 115.149 323.478C114.434 324.684 113.898 326.046 113.541 327.565C113.228 329.039 113.072 330.468 113.072 331.853C113.072 336.052 113.988 339.201 115.819 341.3C117.65 343.399 119.995 344.449 122.854 344.449C125.891 344.449 128.348 343.243 130.224 340.831ZM151.565 316.242C153.887 316.242 156.009 316.689 157.93 317.582C159.85 318.431 161.481 319.614 162.821 321.133C164.205 322.607 165.255 324.349 165.97 326.359C166.729 328.324 167.109 330.446 167.109 332.724C167.109 335.047 166.729 337.213 165.97 339.223C165.255 341.188 164.228 342.908 162.888 344.382C161.548 345.811 159.917 346.95 157.997 347.799C156.076 348.603 153.932 349.005 151.565 349.005C149.197 349.005 147.053 348.603 145.133 347.799C143.212 346.95 141.582 345.811 140.242 344.382C138.902 342.908 137.852 341.188 137.093 339.223C136.378 337.213 136.021 335.047 136.021 332.724C136.021 330.446 136.378 328.302 137.093 326.292C137.852 324.282 138.902 322.54 140.242 321.066C141.626 319.592 143.257 318.431 145.133 317.582C147.053 316.689 149.197 316.242 151.565 316.242ZM151.565 319.257C146.428 319.257 143.86 323.724 143.86 332.657C143.86 341.501 146.428 345.923 151.565 345.923C156.701 345.923 159.27 341.501 159.27 332.657C159.27 323.724 156.701 319.257 151.565 319.257ZM181.857 343.109C181.857 344.136 182.349 344.739 183.331 344.918L184.738 345.186C185.721 345.365 186.212 345.878 186.212 346.727C186.212 347.576 185.654 348 184.537 348H171.74C170.624 348 170.065 347.576 170.065 346.727C170.065 345.923 170.579 345.409 171.606 345.186L173.08 344.918C174.063 344.739 174.554 344.136 174.554 343.109C174.599 341.68 174.621 340.25 174.621 338.821C174.666 337.392 174.688 335.962 174.688 334.533V308.939C174.688 307.912 174.175 307.331 173.147 307.197L171.137 306.929C170.11 306.795 169.596 306.326 169.596 305.522C169.596 304.718 170.088 304.182 171.07 303.914L179.914 301.636C180.138 301.547 180.316 301.502 180.45 301.502C180.629 301.502 180.808 301.502 180.986 301.502C181.299 301.502 181.5 301.547 181.589 301.636C181.857 301.815 181.991 302.351 181.991 303.244L181.79 311.016V334.533C181.79 335.962 181.79 337.392 181.79 338.821C181.835 340.25 181.857 341.68 181.857 343.109ZM200.015 343.109C200.015 344.136 200.507 344.739 201.489 344.918L202.896 345.186C203.879 345.365 204.37 345.878 204.37 346.727C204.37 347.576 203.812 348 202.695 348H189.898C188.782 348 188.223 347.576 188.223 346.727C188.223 345.923 188.737 345.409 189.764 345.186L191.238 344.918C192.221 344.739 192.712 344.136 192.712 343.109C192.757 341.68 192.779 340.25 192.779 338.821C192.824 337.392 192.846 335.962 192.846 334.533V308.939C192.846 307.912 192.333 307.331 191.305 307.197L189.295 306.929C188.268 306.795 187.754 306.326 187.754 305.522C187.754 304.718 188.246 304.182 189.228 303.914L198.072 301.636C198.296 301.547 198.474 301.502 198.608 301.502C198.787 301.502 198.966 301.502 199.144 301.502C199.457 301.502 199.658 301.547 199.747 301.636C200.015 301.815 200.149 302.351 200.149 303.244L199.948 311.016V334.533C199.948 335.962 199.948 337.392 199.948 338.821C199.993 340.25 200.015 341.68 200.015 343.109ZM236.465 330.379C236.286 331.362 235.661 331.853 234.589 331.853H215.159C215.248 335.918 216.231 338.977 218.107 341.032C219.983 343.087 222.417 344.114 225.41 344.114C227.152 344.114 228.626 343.801 229.832 343.176C231.082 342.506 232.221 341.59 233.249 340.429C233.74 339.893 234.209 339.625 234.656 339.625C234.879 339.625 235.08 339.692 235.259 339.826C235.929 340.273 236.018 340.943 235.527 341.836C234.365 344.114 232.69 345.856 230.502 347.062C228.313 348.268 225.745 348.871 222.797 348.871C220.295 348.871 218.062 348.447 216.097 347.598C214.176 346.749 212.546 345.588 211.206 344.114C209.91 342.595 208.928 340.809 208.258 338.754C207.588 336.699 207.253 334.466 207.253 332.054C207.253 329.731 207.632 327.52 208.392 325.421C209.151 323.322 210.223 321.49 211.608 319.927C213.037 318.319 214.734 317.068 216.7 316.175C218.71 315.237 220.921 314.768 223.333 314.768C225.343 314.768 227.152 315.103 228.76 315.773C230.412 316.443 231.819 317.381 232.981 318.587C234.142 319.748 235.035 321.155 235.661 322.808C236.286 324.461 236.599 326.292 236.599 328.302C236.599 328.659 236.599 329.017 236.599 329.374C236.599 329.687 236.554 330.022 236.465 330.379ZM215.293 328.771H225.343C226.951 328.771 228.023 328.436 228.559 327.766C229.139 327.096 229.43 326.158 229.43 324.952C229.43 322.942 228.849 321.267 227.688 319.927C226.571 318.587 225.164 317.917 223.467 317.917C222.082 317.917 220.876 318.274 219.849 318.989C218.866 319.659 218.04 320.53 217.37 321.602C216.744 322.674 216.253 323.858 215.896 325.153C215.583 326.404 215.382 327.61 215.293 328.771ZM265.245 340.831C265.736 340.161 266.205 339.826 266.652 339.826C266.786 339.826 266.942 339.871 267.121 339.96C267.791 340.362 267.925 341.032 267.523 341.97C266.495 344.248 264.932 345.99 262.833 347.196C260.778 348.402 258.344 349.005 255.53 349.005C253.118 349.005 250.974 348.603 249.098 347.799C247.222 346.95 245.636 345.811 244.341 344.382C243.09 342.908 242.13 341.188 241.46 339.223C240.834 337.213 240.522 335.047 240.522 332.724C240.522 330.446 240.901 328.302 241.661 326.292C242.42 324.282 243.492 322.54 244.877 321.066C246.261 319.547 247.914 318.364 249.835 317.515C251.755 316.666 253.899 316.242 256.267 316.242C257.607 316.242 258.924 316.421 260.22 316.778C261.56 317.135 262.766 317.694 263.838 318.453C264.954 319.168 265.892 320.083 266.652 321.2C267.411 322.272 267.858 323.523 267.992 324.952C267.679 326.783 266.54 327.699 264.575 327.699C262.297 327.699 260.979 326.314 260.622 323.545L260.153 320.999C259.974 320.195 259.594 319.704 259.014 319.525C258.478 319.346 257.875 319.257 257.205 319.257C255.552 319.257 254.145 319.659 252.984 320.463C251.822 321.222 250.884 322.227 250.17 323.478C249.455 324.684 248.919 326.046 248.562 327.565C248.249 329.039 248.093 330.468 248.093 331.853C248.093 336.052 249.008 339.201 250.84 341.3C252.671 343.399 255.016 344.449 257.875 344.449C260.912 344.449 263.369 343.243 265.245 340.831ZM287.456 343.578C287.948 343.31 288.372 343.176 288.729 343.176C289.087 343.176 289.399 343.332 289.667 343.645C290.248 344.36 290.203 345.074 289.533 345.789C288.685 346.682 287.635 347.397 286.384 347.933C285.178 348.424 283.727 348.67 282.029 348.67C279.573 348.67 277.63 348.067 276.2 346.861C274.816 345.61 274.123 343.667 274.123 341.032C274.123 340.451 274.123 339.938 274.123 339.491C274.123 339 274.146 338.531 274.19 338.084V322.808C274.19 321.691 273.632 321.133 272.515 321.133H271.108C269.992 321.133 269.433 320.597 269.433 319.525C269.433 318.498 269.947 317.917 270.974 317.783L273.319 317.515C274.257 317.381 274.816 316.845 274.994 315.907L276.2 309.877C276.379 308.894 276.982 308.403 278.009 308.403H279.885C280.957 308.403 281.493 308.961 281.493 310.078L281.359 315.706C281.359 316.823 281.918 317.381 283.034 317.381H287.657C288.774 317.381 289.332 317.939 289.332 319.056V319.458C289.332 320.575 288.774 321.133 287.657 321.133H282.967C281.851 321.133 281.292 321.691 281.292 322.808V339.759C281.292 341.412 281.605 342.595 282.23 343.31C282.9 344.025 283.749 344.382 284.776 344.382C285.134 344.382 285.536 344.337 285.982 344.248C286.474 344.114 286.965 343.891 287.456 343.578ZM303.144 343.176C303.189 344.114 303.703 344.695 304.685 344.918L305.824 345.119C306.807 345.342 307.298 345.878 307.298 346.727C307.298 347.576 306.74 348 305.623 348H293.295C292.179 348 291.62 347.576 291.62 346.727C291.62 345.923 292.134 345.409 293.161 345.186L294.501 344.918C295.484 344.695 295.998 344.114 296.042 343.176V331.317C296.042 330.424 296.042 329.62 296.042 328.905C296.042 328.19 296.02 327.52 295.975 326.895C295.931 326.538 295.908 326.18 295.908 325.823C295.908 325.466 295.908 325.108 295.908 324.751C295.819 323.724 295.283 323.143 294.3 323.009L292.692 322.808C291.665 322.674 291.151 322.205 291.151 321.401C291.151 320.686 291.598 320.15 292.491 319.793L301.201 316.644C301.425 316.555 301.626 316.488 301.804 316.443C301.983 316.398 302.162 316.376 302.34 316.376C302.564 316.376 302.742 316.443 302.876 316.577C303.189 316.845 303.345 317.381 303.345 318.185L303.144 325.823V343.176ZM299.526 310.078C298.097 310.078 296.913 309.654 295.975 308.805C295.082 307.956 294.635 306.84 294.635 305.455C294.635 304.07 295.082 302.954 295.975 302.105C296.913 301.256 298.097 300.832 299.526 300.832C300.911 300.832 302.05 301.256 302.943 302.105C303.881 302.954 304.35 304.07 304.35 305.455C304.35 306.84 303.881 307.956 302.943 308.805C302.05 309.654 300.911 310.078 299.526 310.078ZM325.388 316.242C327.71 316.242 329.832 316.689 331.753 317.582C333.673 318.431 335.304 319.614 336.644 321.133C338.028 322.607 339.078 324.349 339.793 326.359C340.552 328.324 340.932 330.446 340.932 332.724C340.932 335.047 340.552 337.213 339.793 339.223C339.078 341.188 338.051 342.908 336.711 344.382C335.371 345.811 333.74 346.95 331.82 347.799C329.899 348.603 327.755 349.005 325.388 349.005C323.02 349.005 320.876 348.603 318.956 347.799C317.035 346.95 315.405 345.811 314.065 344.382C312.725 342.908 311.675 341.188 310.916 339.223C310.201 337.213 309.844 335.047 309.844 332.724C309.844 330.446 310.201 328.302 310.916 326.292C311.675 324.282 312.725 322.54 314.065 321.066C315.449 319.592 317.08 318.431 318.956 317.582C320.876 316.689 323.02 316.242 325.388 316.242ZM325.388 319.257C320.251 319.257 317.683 323.724 317.683 332.657C317.683 341.501 320.251 345.923 325.388 345.923C330.524 345.923 333.093 341.501 333.093 332.657C333.093 323.724 330.524 319.257 325.388 319.257ZM375.781 343.176C375.825 344.114 376.339 344.695 377.322 344.918L378.461 345.119C379.443 345.342 379.935 345.878 379.935 346.727C379.935 347.576 379.376 348 378.26 348H365.932C364.815 348 364.257 347.576 364.257 346.727C364.257 345.878 364.748 345.365 365.731 345.186L367.071 344.918C368.053 344.695 368.567 344.114 368.612 343.176V328.57C368.612 325.89 368.277 323.992 367.607 322.875C366.981 321.714 365.82 321.133 364.123 321.133C362.738 321.133 361.398 321.468 360.103 322.138C358.852 322.808 357.512 323.813 356.083 325.153V343.176C356.127 344.114 356.641 344.695 357.624 344.918L358.83 345.186C359.812 345.365 360.304 345.878 360.304 346.727C360.304 347.576 359.745 348 358.629 348H346.167C345.05 348 344.492 347.576 344.492 346.727C344.492 345.923 345.005 345.409 346.033 345.186L347.44 344.918C348.422 344.695 348.936 344.114 348.981 343.176V331.049C348.981 330.156 348.981 329.352 348.981 328.637C348.981 327.922 348.958 327.297 348.914 326.761C348.869 326.404 348.847 326.069 348.847 325.756C348.847 325.443 348.847 325.108 348.847 324.751C348.757 323.724 348.221 323.143 347.239 323.009L345.631 322.808C344.603 322.674 344.09 322.205 344.09 321.401C344.09 320.642 344.536 320.083 345.43 319.726L353.202 316.711C353.604 316.532 354.006 316.443 354.408 316.443C354.676 316.443 354.854 316.488 354.944 316.577C355.301 316.8 355.502 317.314 355.547 318.118L355.882 322.071C357.579 320.106 359.299 318.654 361.041 317.716C362.783 316.733 364.748 316.242 366.937 316.242C369.885 316.242 372.096 317.158 373.57 318.989C375.044 320.776 375.781 323.724 375.781 327.833V343.176ZM396.004 328.838L398.148 329.575C399.801 330.2 401.163 330.87 402.235 331.585C403.352 332.255 404.267 332.97 404.982 333.729C405.607 334.533 406.054 335.404 406.322 336.342C406.59 337.235 406.724 338.196 406.724 339.223C406.724 341.01 406.322 342.528 405.518 343.779C404.759 344.985 403.754 345.99 402.503 346.794C401.252 347.553 399.845 348.112 398.282 348.469C396.763 348.826 395.245 349.005 393.726 349.005C391.85 349.005 390.197 348.804 388.768 348.402C387.339 348.045 385.909 347.509 384.48 346.794C383.676 346.437 383.274 345.789 383.274 344.851L383.207 340.63C383.207 339.513 383.743 338.955 384.815 338.955H385.887C386.87 338.955 387.473 339.469 387.696 340.496L388.232 343.31C388.366 344.203 388.835 344.784 389.639 345.052C390.979 345.588 392.364 345.856 393.793 345.856C396.071 345.856 397.724 345.454 398.751 344.65C399.778 343.846 400.292 342.729 400.292 341.3C400.292 340.005 399.845 339 398.952 338.285C398.059 337.526 396.473 336.699 394.195 335.806L391.247 334.734C388.746 333.707 386.825 332.478 385.485 331.049C384.145 329.62 383.475 327.788 383.475 325.555C383.475 323.858 383.832 322.428 384.547 321.267C385.262 320.106 386.2 319.145 387.361 318.386C388.522 317.627 389.818 317.091 391.247 316.778C392.676 316.421 394.128 316.242 395.602 316.242C397.165 316.242 398.595 316.421 399.89 316.778C401.185 317.091 402.481 317.56 403.776 318.185C404.625 318.587 405.027 319.257 404.982 320.195L404.781 323.947C404.736 325.019 404.178 325.555 403.106 325.555H402.101C401.074 325.555 400.471 325.064 400.292 324.081L399.823 321.602C399.644 320.664 399.153 320.083 398.349 319.86C397.411 319.503 396.428 319.324 395.401 319.324C393.614 319.324 392.23 319.704 391.247 320.463C390.309 321.222 389.84 322.317 389.84 323.746C389.84 324.818 390.264 325.734 391.113 326.493C391.56 326.85 392.185 327.23 392.989 327.632C393.838 328.034 394.843 328.436 396.004 328.838Z" fill="black"/>
</g>
<g filter="url(#filter3_d_28524_6)">
<path d="M256 175.389C239.82 158.744 219.488 146.518 195.767 140.704L197.096 131.535C213.84 135.488 228.757 142.498 241.98 151.502L246.066 154.292L244.737 149.508C239.355 130.007 243.774 107.681 255.933 92C268.093 107.681 272.512 129.973 267.129 149.508L265.801 154.292L269.887 151.502C283.11 142.498 298.026 135.389 314.771 131.402L316.1 140.571C292.379 146.385 272.046 158.744 255.867 175.389" fill="black"/>
<path d="M202.08 272.399L212.346 175.854L214.804 177.349C229.688 186.319 241.781 199.209 249.754 214.658L250.12 215.322L249.887 216.053C244.937 231.136 242.977 251.668 244.306 269.375C248.458 269.276 252.578 269.209 256.764 269.209C260.452 269.209 264.106 269.276 267.761 269.342C269.09 251.601 267.13 231.103 262.179 216.02L261.947 215.289L262.312 214.625C270.286 199.176 282.379 186.286 297.262 177.316L299.721 175.821L309.953 272.199C318.724 273.196 327.395 274.425 336 275.887L318.89 156.585C293.575 163.329 271.847 179.11 257.595 201.136L256.066 203.528L254.538 201.136C240.252 179.076 218.558 163.329 193.243 156.585L176 276.153C184.605 274.658 193.309 273.395 202.08 272.399Z" fill="black"/>
</g>
<defs>
<filter id="filter0_d_28524_6" x="40" y="44" width="432" height="432" filterUnits="userSpaceOnUse" color-interpolation-filters="sRGB">
<feFlood flood-opacity="0" result="BackgroundImageFix"/>
<feColorMatrix in="SourceAlpha" type="matrix" values="0 0 0 0 0 0 0 0 0 0 0 0 0 0 0 0 0 0 127 0" result="hardAlpha"/>
<feOffset dy="4"/>
<feGaussianBlur stdDeviation="5"/>
<feComposite in2="hardAlpha" operator="out"/>
<feColorMatrix type="matrix" values="0 0 0 0 0 0 0 0 0 0 0 0 0 0 0 0 0 0 0.25 0"/>
<feBlend mode="normal" in2="BackgroundImageFix" result="effect1_dropShadow_28524_6"/>
<feBlend mode="normal" in="SourceGraphic" in2="effect1_dropShadow_28524_6" result="shape"/>
</filter>
<filter id="filter1_i_28524_6" x="70" y="70" width="372" height="372" filterUnits="userSpaceOnUse" color-interpolation-filters="sRGB">
<feFlood flood-opacity="0" result="BackgroundImageFix"/>
<feBlend mode="normal" in="SourceGraphic" in2="BackgroundImageFix" result="shape"/>
<feColorMatrix in="SourceAlpha" type="matrix" values="0 0 0 0 0 0 0 0 0 0 0 0 0 0 0 0 0 0 127 0" result="hardAlpha"/>
<feOffset/>
<feGaussianBlur stdDeviation="4"/>
<feComposite in2="hardAlpha" operator="arithmetic" k2="-1" k3="1"/>
<feColorMatrix type="matrix" values="0 0 0 0 0 0 0 0 0 0 0 0 0 0 0 0 0 0 0.5 0"/>
<feBlend mode="normal" in2="shape" result="effect1_innerShadow_28524_6"/>
</filter>
<filter id="filter2_d_28524_6" x="102.501" y="297.832" width="309.223" height="56.173" filterUnits="userSpaceOnUse" color-interpolation-filters="sRGB">
<feFlood flood-opacity="0" result="BackgroundImageFix"/>
<feColorMatrix in="SourceAlpha" type="matrix" values="0 0 0 0 0 0 0 0 0 0 0 0 0 0 0 0 0 0 127 0" result="hardAlpha"/>
<feOffset dx="1" dy="1"/>
<feGaussianBlur stdDeviation="2"/>
<feComposite in2="hardAlpha" operator="out"/>
<feColorMatrix type="matrix" values="0 0 0 0 1 0 0 0 0 1 0 0 0 0 1 0 0 0 1 0"/>
<feBlend mode="normal" in2="BackgroundImageFix" result="effect1_dropShadow_28524_6"/>
<feBlend mode="normal" in="SourceGraphic" in2="effect1_dropShadow_28524_6" result="shape"/>
</filter>
<filter id="filter3_d_28524_6" x="175" y="88" width="164" height="188.153" filterUnits="userSpaceOnUse" color-interpolation-filters="sRGB">
<feFlood flood-opacity="0" result="BackgroundImageFix"/>
<feColorMatrix in="SourceAlpha" type="matrix" values="0 0 0 0 0 0 0 0 0 0 0 0 0 0 0 0 0 0 127 0" result="hardAlpha"/>
<feOffset dx="1" dy="-2"/>
<feGaussianBlur stdDeviation="1"/>
<feComposite in2="hardAlpha" operator="out"/>
<feColorMatrix type="matrix" values="0 0 0 0 1 0 0 0 0 1 0 0 0 0 1 0 0 0 1 0"/>
<feBlend mode="normal" in2="BackgroundImageFix" result="effect1_dropShadow_28524_6"/>
<feBlend mode="normal" in="SourceGraphic" in2="effect1_dropShadow_28524_6" result="shape"/>
</filter>
<linearGradient id="paint0_linear_28524_6" x1="256" y1="70" x2="256" y2="442" gradientUnits="userSpaceOnUse">
<stop stop-color="#FFE4BB"/>
<stop offset="1" stop-color="#F6BC66"/>
</linearGradient>
</defs>
</svg>
