<svg width="512" height="512" viewBox="0 0 512 512" fill="none" xmlns="http://www.w3.org/2000/svg">
<g filter="url(#filter0_d_28499_3)">
<rect x="50" y="50" width="412" height="412" rx="92" fill="white"/>
<rect x="50.5" y="50.5" width="411" height="411" rx="91.5" stroke="#E4E4E4"/>
</g>
<g filter="url(#filter1_i_28499_3)">
<circle cx="256" cy="256" r="186" fill="url(#paint0_linear_28499_3)"/>
</g>
<g filter="url(#filter2_d_28499_3)">
<path d="M127.994 204.38C129.827 204.38 131.44 204.343 132.834 204.27C134.227 204.123 135.51 204.013 136.684 203.94C137.124 205.333 137.93 207.497 139.104 210.43C140.35 213.363 141.78 216.847 143.394 220.88C145.08 224.84 146.877 229.057 148.784 233.53C150.69 238.003 152.56 242.477 154.394 246.95C156.227 251.35 157.914 255.457 159.454 259.27C159.527 259.417 159.674 259.49 159.894 259.49C160.114 259.49 160.26 259.343 160.334 259.05C162.46 253.623 164.367 248.747 166.054 244.42C167.74 240.02 169.427 235.657 171.114 231.33C172.874 226.93 174.78 222.09 176.834 216.81C177.494 215.123 178.19 213.29 178.924 211.31C179.657 209.33 180.28 207.607 180.794 206.14C181.307 204.673 181.564 203.94 181.564 203.94C185.01 204.16 187.834 204.27 190.034 204.27C191.94 204.27 194.067 204.233 196.414 204.16C198.834 204.087 200.704 204.013 202.024 203.94C202.097 204.087 202.17 204.637 202.244 205.59C202.317 206.543 202.354 207.02 202.354 207.02C201.84 207.02 200.997 207.093 199.824 207.24C198.724 207.387 197.66 207.607 196.634 207.9C195.607 208.193 194.984 208.523 194.764 208.89C194.544 209.403 194.397 210.063 194.324 210.87C194.25 211.677 194.214 212.41 194.214 213.07C194.287 214.903 194.36 217.69 194.434 221.43C194.507 225.17 194.58 229.387 194.654 234.08C194.8 238.7 194.91 243.283 194.984 247.83C195.13 252.377 195.24 256.41 195.314 259.93C195.387 261.983 195.497 263.927 195.644 265.76C195.79 267.593 196.12 269.133 196.634 270.38C196.854 270.893 197.514 271.297 198.614 271.59C199.714 271.81 200.814 271.993 201.914 272.14C203.087 272.213 203.82 272.25 204.114 272.25C204.407 272.763 204.517 273.387 204.444 274.12C204.444 274.78 204.407 275.183 204.334 275.33C202.207 275.183 200.117 275.073 198.064 275C196.084 274.853 193.92 274.78 191.574 274.78C189.08 274.78 186.917 274.853 185.084 275C183.25 275.073 181.087 275.183 178.594 275.33C178.52 275.183 178.447 274.743 178.374 274.01C178.3 273.277 178.374 272.69 178.594 272.25C179.034 272.25 179.73 272.213 180.684 272.14C181.637 271.993 182.59 271.847 183.544 271.7C184.497 271.48 185.194 271.26 185.634 271.04C186 270.82 186.257 270.197 186.404 269.17C186.55 268.143 186.624 267.263 186.624 266.53C186.624 265.723 186.587 264.697 186.514 263.45C186.44 262.13 186.404 261.067 186.404 260.26C186.257 255.053 186.11 250.067 185.964 245.3C185.817 240.46 185.67 235.547 185.524 230.56C185.377 225.5 185.194 220.073 184.974 214.28C184.974 214.06 184.9 213.657 184.754 213.07C184.607 212.483 184.35 212.19 183.984 212.19C183.837 212.19 183.654 212.447 183.434 212.96C181.234 218.46 179.18 223.557 177.274 228.25C175.44 232.943 173.644 237.49 171.884 241.89C170.124 246.217 168.327 250.653 166.494 255.2C164.734 259.673 162.827 264.513 160.774 269.72C160.627 270.013 160.297 270.6 159.784 271.48C159.27 272.36 158.72 273.203 158.134 274.01C157.62 274.743 157.144 275.147 156.704 275.22C156.557 275.293 156.3 275.257 155.934 275.11C155.86 275.037 155.787 275 155.714 275L129.534 212.3C129.46 216.993 129.35 221.833 129.204 226.82C129.057 231.807 128.91 236.647 128.764 241.34C128.69 246.033 128.58 250.287 128.434 254.1C128.36 257.84 128.287 260.883 128.214 263.23C128.14 265.503 128.104 266.75 128.104 266.97C128.104 267.483 128.14 268.07 128.214 268.73C128.287 269.317 128.397 269.83 128.544 270.27C128.764 270.783 129.497 271.187 130.744 271.48C132.064 271.773 133.384 271.993 134.704 272.14C136.024 272.213 136.83 272.25 137.124 272.25C137.417 272.543 137.527 273.093 137.454 273.9C137.38 274.707 137.307 275.183 137.234 275.33C135.107 275.183 133.274 275.073 131.734 275C130.194 274.853 128.25 274.78 125.904 274.78C123.41 274.78 121.32 274.853 119.634 275C117.947 275.073 115.857 275.183 113.364 275.33C113.29 275.183 113.217 274.743 113.144 274.01C113.07 273.277 113.144 272.69 113.364 272.25C113.804 272.25 114.647 272.177 115.894 272.03C117.214 271.883 118.497 271.663 119.744 271.37C120.99 271.077 121.76 270.71 122.054 270.27C122.567 269.537 122.897 268.767 123.044 267.96C123.19 267.08 123.3 266.053 123.374 264.88C123.594 258.427 123.777 252.23 123.924 246.29C124.144 240.35 124.29 235.033 124.364 230.34C124.51 225.573 124.62 221.723 124.694 218.79C124.767 215.783 124.804 214.023 124.804 213.51C124.804 212.703 124.767 211.933 124.694 211.2C124.694 210.467 124.584 209.807 124.364 209.22C124.217 208.78 123.594 208.413 122.494 208.12C121.467 207.753 120.367 207.497 119.194 207.35C118.094 207.13 117.324 207.02 116.884 207.02C116.81 207.02 116.774 206.543 116.774 205.59C116.774 204.563 116.81 204.013 116.884 203.94C118.57 204.013 119.927 204.087 120.954 204.16C121.98 204.233 123.007 204.307 124.034 204.38C125.06 204.38 126.38 204.38 127.994 204.38ZM229.828 204.38C231.954 204.38 234.008 204.343 235.988 204.27C238.041 204.123 240.168 204.013 242.368 203.94C242.661 204.233 242.771 204.747 242.698 205.48C242.698 206.213 242.588 206.727 242.368 207.02C241.928 207.02 241.121 207.093 239.948 207.24C238.774 207.313 237.674 207.46 236.648 207.68C235.621 207.9 235.034 208.23 234.888 208.67C234.668 209.403 234.521 210.357 234.448 211.53C234.448 212.703 234.448 213.987 234.448 215.38C234.448 215.6 234.448 215.82 234.448 216.04C234.448 216.26 234.448 216.48 234.448 216.7V262.57C234.448 262.79 234.448 263.01 234.448 263.23C234.448 263.45 234.448 263.67 234.448 263.89C234.448 265.283 234.448 266.567 234.448 267.74C234.521 268.84 234.668 269.757 234.888 270.49C235.034 270.857 235.621 271.187 236.648 271.48C237.674 271.773 238.774 271.993 239.948 272.14C241.121 272.213 241.928 272.25 242.368 272.25C242.588 272.543 242.698 273.057 242.698 273.79C242.771 274.523 242.661 275.037 242.368 275.33C240.168 275.183 238.041 275.073 235.988 275C234.008 274.853 231.954 274.78 229.828 274.78C227.774 274.78 225.684 274.853 223.558 275C221.431 275.073 219.268 275.183 217.068 275.33C216.774 275.037 216.628 274.523 216.628 273.79C216.701 273.057 216.848 272.543 217.068 272.25C217.508 272.25 218.314 272.213 219.488 272.14C220.661 271.993 221.761 271.773 222.788 271.48C223.888 271.187 224.474 270.857 224.548 270.49C224.841 269.61 224.988 268.473 224.988 267.08C225.061 265.687 225.098 264.183 225.098 262.57V216.7C225.098 215.087 225.061 213.583 224.988 212.19C224.988 210.723 224.841 209.55 224.548 208.67C224.474 208.23 223.888 207.9 222.788 207.68C221.761 207.46 220.661 207.313 219.488 207.24C218.314 207.093 217.508 207.02 217.068 207.02C216.848 206.727 216.701 206.213 216.628 205.48C216.628 204.747 216.774 204.233 217.068 203.94C219.268 204.013 221.431 204.123 223.558 204.27C225.684 204.343 227.774 204.38 229.828 204.38ZM267.272 204.38C269.399 204.38 271.452 204.343 273.432 204.27C275.486 204.123 277.612 204.013 279.812 203.94C280.106 204.233 280.216 204.747 280.142 205.48C280.142 206.213 280.032 206.727 279.812 207.02C279.372 207.02 278.566 207.093 277.392 207.24C276.292 207.313 275.229 207.46 274.202 207.68C273.176 207.9 272.589 208.23 272.442 208.67C272.149 209.55 271.966 210.723 271.892 212.19C271.892 213.583 271.892 215.087 271.892 216.7V243.21C271.892 247.683 272.332 251.57 273.212 254.87C274.166 258.17 275.486 260.883 277.172 263.01C280.546 267.117 285.459 269.17 291.912 269.17C295.652 269.17 299.062 268.473 302.142 267.08C305.222 265.687 307.716 263.303 309.622 259.93C311.602 256.483 312.629 251.68 312.702 245.52V216.48C312.702 214.573 312.666 213.07 312.592 211.97C312.519 210.87 312.189 209.88 311.602 209C311.382 208.633 310.759 208.303 309.732 208.01C308.706 207.643 307.606 207.387 306.432 207.24C305.332 207.02 304.489 206.91 303.902 206.91C303.609 206.543 303.462 206.03 303.462 205.37C303.536 204.637 303.609 204.123 303.682 203.83C305.809 203.903 307.716 204.013 309.402 204.16C311.162 204.233 313.216 204.27 315.562 204.27C317.249 204.27 318.606 204.27 319.632 204.27C320.732 204.197 321.832 204.123 322.932 204.05C324.106 203.977 325.499 203.903 327.112 203.83C327.259 204.123 327.369 204.563 327.442 205.15C327.516 205.737 327.406 206.323 327.112 206.91C326.672 206.91 325.829 206.983 324.582 207.13C323.336 207.277 322.126 207.533 320.952 207.9C319.779 208.193 319.046 208.56 318.752 209C318.239 209.807 317.909 210.723 317.762 211.75C317.689 212.777 317.652 214.317 317.652 216.37V245.3C317.652 252.413 316.479 258.207 314.132 262.68C311.786 267.08 308.486 270.307 304.232 272.36C300.052 274.413 295.176 275.44 289.602 275.44C285.789 275.44 282.232 274.817 278.932 273.57C275.632 272.323 272.809 270.563 270.462 268.29C267.969 265.943 266.026 263.047 264.632 259.6C263.239 256.153 262.542 252.303 262.542 248.05V216.7C262.542 215.087 262.506 213.583 262.432 212.19C262.432 210.723 262.286 209.55 261.992 208.67C261.919 208.23 261.332 207.9 260.232 207.68C259.206 207.46 258.106 207.313 256.932 207.24C255.832 207.093 255.062 207.02 254.622 207.02C254.402 206.727 254.256 206.213 254.182 205.48C254.182 204.747 254.329 204.233 254.622 203.94C256.822 204.013 258.949 204.123 261.002 204.27C263.129 204.343 265.219 204.38 267.272 204.38ZM356.708 207.79C353.115 207.79 350.072 209.037 347.578 211.53C345.085 214.023 343.252 217.47 342.078 221.87C341.858 222.163 341.455 222.31 340.868 222.31C340.355 222.31 339.805 222.2 339.218 221.98C338.632 221.76 338.265 221.577 338.118 221.43C339.072 218.937 339.805 216.187 340.318 213.18C340.905 210.1 341.345 206.763 341.638 203.17C342.812 203.317 344.205 203.5 345.818 203.72C347.505 203.867 349.045 203.94 350.438 203.94H371.338C374.345 203.94 376.985 203.903 379.258 203.83C381.532 203.757 383.768 203.647 385.968 203.5C388.242 203.353 390.882 203.17 393.888 202.95C394.108 203.023 394.475 203.317 394.988 203.83C395.502 204.343 395.758 204.82 395.758 205.26C395.758 205.333 395.098 206.36 393.778 208.34C392.458 210.247 390.698 212.777 388.498 215.93C386.372 219.083 383.952 222.603 381.238 226.49C378.598 230.377 375.848 234.41 372.988 238.59C370.128 242.77 367.342 246.803 364.628 250.69C361.915 254.503 359.495 257.987 357.368 261.14C355.242 264.22 353.518 266.677 352.198 268.51C350.952 270.343 350.328 271.26 350.328 271.26H378.378C380.725 271.26 382.668 270.93 384.208 270.27C385.822 269.537 387.215 268.583 388.388 267.41C389.928 265.87 391.102 264.11 391.908 262.13C392.788 260.15 393.522 258.39 394.108 256.85C394.182 256.703 394.365 256.63 394.658 256.63C394.952 256.557 395.245 256.52 395.538 256.52C396.125 256.52 396.638 256.63 397.078 256.85C397.592 257.07 397.958 257.29 398.178 257.51C397.372 260.297 396.638 262.68 395.978 264.66C395.392 266.567 394.842 268.327 394.328 269.94C393.888 271.48 393.448 273.167 393.008 275H339.218C338.632 275 338.082 274.817 337.568 274.45C337.128 274.083 337.018 273.753 337.238 273.46L382.888 207.79H356.708Z" fill="black"/>
</g>
<g filter="url(#filter3_d_28499_3)">
<path d="M144.342 310.495C144.342 311.622 144.082 312.423 143.562 312.9C143.042 313.333 142.5 313.55 141.937 313.55C141.243 313.55 140.593 313.247 139.987 312.64C139.38 312.033 138.795 311.557 138.232 311.21C137.538 310.733 136.975 310.408 136.542 310.235C136.108 310.062 135.48 309.975 134.657 309.975C133.53 309.975 132.403 310.408 131.277 311.275C130.193 312.098 129.283 313.29 128.547 314.85C127.853 316.41 127.507 318.317 127.507 320.57C127.507 324.253 128.503 326.962 130.497 328.695C132.49 330.428 134.917 331.295 137.777 331.295C139.553 331.295 141.005 330.883 142.132 330.06C143.302 329.237 144.103 328.587 144.537 328.11C144.58 328.11 144.667 328.197 144.797 328.37C144.97 328.5 145.057 328.695 145.057 328.955C145.057 329.302 144.927 329.692 144.667 330.125C144.277 330.732 143.67 331.468 142.847 332.335C142.023 333.158 140.983 333.895 139.727 334.545C138.47 335.195 137.018 335.52 135.372 335.52C132.815 335.52 130.562 334.913 128.612 333.7C126.705 332.487 125.21 330.905 124.127 328.955C123.087 327.005 122.567 324.925 122.567 322.715C122.567 320.375 123.043 318.273 123.997 316.41C124.993 314.503 126.25 312.857 127.767 311.47C129.327 310.083 130.995 309.022 132.772 308.285C134.592 307.548 136.325 307.18 137.972 307.18C140.312 307.18 142.218 307.7 143.692 308.74C143.822 308.87 143.952 309.108 144.082 309.455C144.255 309.802 144.342 310.148 144.342 310.495ZM163.067 307.115C165.884 307.115 168.289 307.722 170.282 308.935C172.319 310.148 173.879 311.795 174.962 313.875C176.089 315.955 176.652 318.317 176.652 320.96C176.652 323.69 176.067 326.16 174.897 328.37C173.727 330.537 172.124 332.27 170.087 333.57C168.051 334.827 165.754 335.455 163.197 335.455C160.424 335.455 157.997 334.848 155.917 333.635C153.881 332.378 152.299 330.71 151.172 328.63C150.089 326.507 149.547 324.123 149.547 321.48C149.547 318.75 150.132 316.302 151.302 314.135C152.516 311.968 154.141 310.257 156.177 309C158.214 307.743 160.511 307.115 163.067 307.115ZM162.352 309.26C160.576 309.26 159.146 309.802 158.062 310.885C156.979 311.925 156.199 313.29 155.722 314.98C155.246 316.627 155.007 318.36 155.007 320.18C155.007 322.217 155.332 324.253 155.982 326.29C156.676 328.327 157.672 330.017 158.972 331.36C160.316 332.703 161.941 333.375 163.847 333.375C165.667 333.375 167.097 332.855 168.137 331.815C169.221 330.732 170.001 329.345 170.477 327.655C170.954 325.965 171.192 324.232 171.192 322.455C171.192 320.375 170.846 318.338 170.152 316.345C169.459 314.308 168.462 312.618 167.162 311.275C165.862 309.932 164.259 309.26 162.352 309.26ZM184.912 299.575C184.912 299.098 184.89 298.535 184.847 297.885C184.847 297.192 184.76 296.65 184.587 296.26C184.414 295.783 183.937 295.48 183.157 295.35C182.42 295.22 181.619 295.155 180.752 295.155C180.709 295.155 180.665 294.895 180.622 294.375C180.622 293.812 180.687 293.508 180.817 293.465C182.42 293.292 183.98 292.988 185.497 292.555C187.014 292.078 188.444 291.537 189.787 290.93C189.96 290.93 190.112 291.06 190.242 291.32C190.415 291.537 190.502 291.753 190.502 291.97C190.502 291.97 190.372 292.447 190.112 293.4C189.895 294.353 189.787 295.718 189.787 297.495V327.655C189.787 328.608 189.787 329.497 189.787 330.32C189.83 331.143 189.939 331.815 190.112 332.335C190.199 332.552 190.502 332.747 191.022 332.92C191.585 333.093 192.17 333.223 192.777 333.31C193.427 333.353 193.882 333.375 194.142 333.375C194.272 333.548 194.337 333.852 194.337 334.285C194.38 334.718 194.315 335.022 194.142 335.195C192.842 335.108 191.694 335.043 190.697 335C189.7 334.913 188.574 334.87 187.317 334.87C186.104 334.87 184.999 334.913 184.002 335C183.049 335.043 181.922 335.108 180.622 335.195C180.449 335.022 180.362 334.718 180.362 334.285C180.405 333.852 180.492 333.548 180.622 333.375C180.882 333.375 181.315 333.353 181.922 333.31C182.529 333.223 183.114 333.093 183.677 332.92C184.24 332.747 184.544 332.552 184.587 332.335C184.76 331.815 184.847 331.143 184.847 330.32C184.89 329.497 184.912 328.608 184.912 327.655V299.575ZM201.098 299.575C201.098 299.098 201.077 298.535 201.033 297.885C201.033 297.192 200.947 296.65 200.773 296.26C200.6 295.783 200.123 295.48 199.343 295.35C198.607 295.22 197.805 295.155 196.938 295.155C196.895 295.155 196.852 294.895 196.808 294.375C196.808 293.812 196.873 293.508 197.003 293.465C198.607 293.292 200.167 292.988 201.683 292.555C203.2 292.078 204.63 291.537 205.973 290.93C206.147 290.93 206.298 291.06 206.428 291.32C206.602 291.537 206.688 291.753 206.688 291.97C206.688 291.97 206.558 292.447 206.298 293.4C206.082 294.353 205.973 295.718 205.973 297.495V327.655C205.973 328.608 205.973 329.497 205.973 330.32C206.017 331.143 206.125 331.815 206.298 332.335C206.385 332.552 206.688 332.747 207.208 332.92C207.772 333.093 208.357 333.223 208.963 333.31C209.613 333.353 210.068 333.375 210.328 333.375C210.458 333.548 210.523 333.852 210.523 334.285C210.567 334.718 210.502 335.022 210.328 335.195C209.028 335.108 207.88 335.043 206.883 335C205.887 334.913 204.76 334.87 203.503 334.87C202.29 334.87 201.185 334.913 200.188 335C199.235 335.043 198.108 335.108 196.808 335.195C196.635 335.022 196.548 334.718 196.548 334.285C196.592 333.852 196.678 333.548 196.808 333.375C197.068 333.375 197.502 333.353 198.108 333.31C198.715 333.223 199.3 333.093 199.863 332.92C200.427 332.747 200.73 332.552 200.773 332.335C200.947 331.815 201.033 331.143 201.033 330.32C201.077 329.497 201.098 328.608 201.098 327.655V299.575ZM218.65 319.27C218.607 321.957 219.062 324.21 220.015 326.03C220.968 327.85 222.247 329.215 223.85 330.125C225.453 330.992 227.187 331.425 229.05 331.425C230.22 331.425 231.282 331.23 232.235 330.84C233.188 330.407 233.99 329.93 234.64 329.41C235.29 328.847 235.745 328.413 236.005 328.11C236.048 328.11 236.135 328.197 236.265 328.37C236.438 328.5 236.525 328.695 236.525 328.955C236.525 329.302 236.395 329.692 236.135 330.125C235.745 330.732 235.138 331.468 234.315 332.335C233.492 333.158 232.452 333.895 231.195 334.545C229.938 335.195 228.487 335.52 226.84 335.52C224.37 335.52 222.182 334.935 220.275 333.765C218.368 332.595 216.873 331.013 215.79 329.02C214.707 327.027 214.165 324.795 214.165 322.325C214.165 320.202 214.533 318.23 215.27 316.41C216.05 314.547 217.047 312.943 218.26 311.6C219.517 310.213 220.882 309.13 222.355 308.35C223.828 307.57 225.258 307.18 226.645 307.18C228.552 307.18 230.112 307.505 231.325 308.155C232.582 308.805 233.557 309.607 234.25 310.56C234.987 311.513 235.485 312.467 235.745 313.42C236.048 314.373 236.2 315.175 236.2 315.825C236.2 316.735 236.092 317.45 235.875 317.97C235.658 318.49 235.247 318.772 234.64 318.815C234.25 318.858 233.47 318.902 232.3 318.945C231.173 318.945 229.873 318.967 228.4 319.01C226.927 319.053 225.475 319.097 224.045 319.14C222.615 319.183 221.402 319.227 220.405 319.27C219.408 319.27 218.823 319.27 218.65 319.27ZM218.975 316.93H229.31C229.7 316.93 230.025 316.822 230.285 316.605C230.588 316.388 230.762 315.998 230.805 315.435C230.848 314.915 230.697 314.178 230.35 313.225C230.003 312.272 229.44 311.405 228.66 310.625C227.923 309.845 226.905 309.455 225.605 309.455C224.262 309.455 223.157 309.845 222.29 310.625C221.423 311.362 220.73 312.228 220.21 313.225C219.733 314.178 219.387 315.045 219.17 315.825C218.997 316.562 218.932 316.93 218.975 316.93ZM263.106 310.495C263.106 311.622 262.846 312.423 262.326 312.9C261.806 313.333 261.265 313.55 260.701 313.55C260.008 313.55 259.358 313.247 258.751 312.64C258.145 312.033 257.56 311.557 256.996 311.21C256.303 310.733 255.74 310.408 255.306 310.235C254.873 310.062 254.245 309.975 253.421 309.975C252.295 309.975 251.168 310.408 250.041 311.275C248.958 312.098 248.048 313.29 247.311 314.85C246.618 316.41 246.271 318.317 246.271 320.57C246.271 324.253 247.268 326.962 249.261 328.695C251.255 330.428 253.681 331.295 256.541 331.295C258.318 331.295 259.77 330.883 260.896 330.06C262.066 329.237 262.868 328.587 263.301 328.11C263.345 328.11 263.431 328.197 263.561 328.37C263.735 328.5 263.821 328.695 263.821 328.955C263.821 329.302 263.691 329.692 263.431 330.125C263.041 330.732 262.435 331.468 261.611 332.335C260.788 333.158 259.748 333.895 258.491 334.545C257.235 335.195 255.783 335.52 254.136 335.52C251.58 335.52 249.326 334.913 247.376 333.7C245.47 332.487 243.975 330.905 242.891 328.955C241.851 327.005 241.331 324.925 241.331 322.715C241.331 320.375 241.808 318.273 242.761 316.41C243.758 314.503 245.015 312.857 246.531 311.47C248.091 310.083 249.76 309.022 251.536 308.285C253.356 307.548 255.09 307.18 256.736 307.18C259.076 307.18 260.983 307.7 262.456 308.74C262.586 308.87 262.716 309.108 262.846 309.455C263.02 309.802 263.106 310.148 263.106 310.495ZM275.852 307.57H284.042C284.259 307.57 284.367 307.808 284.367 308.285C284.367 308.935 284.064 309.563 283.457 310.17H275.852V326.81C275.852 330.277 277.26 332.01 280.077 332.01C281.03 332.01 281.897 331.815 282.677 331.425C283.457 331.035 283.955 330.753 284.172 330.58C284.302 330.623 284.367 330.753 284.367 330.97C284.367 331.447 284.28 331.772 284.107 331.945C283.804 332.292 283.327 332.747 282.677 333.31C282.07 333.873 281.334 334.372 280.467 334.805C279.6 335.238 278.647 335.455 277.607 335.455C276.524 335.455 275.462 335.26 274.422 334.87C273.425 334.48 272.602 333.787 271.952 332.79C271.302 331.793 270.977 330.385 270.977 328.565V310.17H267.272C267.185 310.17 267.12 310.105 267.077 309.975C267.034 309.802 267.012 309.672 267.012 309.585C267.012 309.498 267.142 309.303 267.402 309C267.662 308.653 267.922 308.328 268.182 308.025C268.485 307.722 268.637 307.57 268.637 307.57H270.977V303.605C271.41 303.128 271.909 302.587 272.472 301.98C273.079 301.33 273.62 300.745 274.097 300.225C274.574 299.662 274.834 299.358 274.877 299.315C275.05 299.142 275.245 299.055 275.462 299.055C275.722 299.055 275.852 299.12 275.852 299.25V307.57ZM290.785 297.365C290.785 296.498 291.088 295.762 291.695 295.155C292.345 294.505 293.103 294.18 293.97 294.18C294.836 294.18 295.573 294.505 296.18 295.155C296.83 295.762 297.155 296.498 297.155 297.365C297.155 298.232 296.83 298.99 296.18 299.64C295.573 300.247 294.836 300.55 293.97 300.55C293.103 300.55 292.345 300.247 291.695 299.64C291.088 298.99 290.785 298.232 290.785 297.365ZM296.895 327.655C296.895 328.608 296.895 329.497 296.895 330.32C296.938 331.143 297.046 331.815 297.22 332.335C297.306 332.552 297.61 332.747 298.13 332.92C298.693 333.093 299.278 333.223 299.885 333.31C300.491 333.353 300.925 333.375 301.185 333.375C301.315 333.548 301.38 333.852 301.38 334.285C301.423 334.718 301.358 335.022 301.185 335.195C299.885 335.108 298.736 335.043 297.74 335C296.786 334.913 295.681 334.87 294.425 334.87C293.211 334.87 292.106 334.913 291.11 335C290.113 335.043 288.965 335.108 287.665 335.195C287.491 335.022 287.405 334.718 287.405 334.285C287.448 333.852 287.535 333.548 287.665 333.375C287.925 333.375 288.358 333.353 288.965 333.31C289.615 333.223 290.221 333.093 290.785 332.92C291.348 332.747 291.651 332.552 291.695 332.335C291.868 331.815 291.955 331.143 291.955 330.32C291.998 329.497 292.02 328.608 292.02 327.655V315.825C292.02 315.392 291.998 314.828 291.955 314.135C291.955 313.442 291.868 312.9 291.695 312.51C291.565 312.12 291.196 311.86 290.59 311.73C289.983 311.557 289.376 311.47 288.77 311.47C288.163 311.427 287.773 311.405 287.6 311.405C287.556 311.318 287.513 311.058 287.47 310.625C287.426 310.192 287.47 309.888 287.6 309.715C289.246 309.498 290.85 309.173 292.41 308.74C293.97 308.307 295.378 307.743 296.635 307.05C296.808 307.05 296.96 307.18 297.09 307.44C297.263 307.7 297.35 307.917 297.35 308.09C297.35 308.22 297.306 308.588 297.22 309.195C297.133 309.802 297.046 310.408 296.96 311.015C296.916 311.622 296.895 312.033 296.895 312.25V327.655ZM318.585 307.115C321.402 307.115 323.807 307.722 325.8 308.935C327.837 310.148 329.397 311.795 330.48 313.875C331.607 315.955 332.17 318.317 332.17 320.96C332.17 323.69 331.585 326.16 330.415 328.37C329.245 330.537 327.642 332.27 325.605 333.57C323.568 334.827 321.272 335.455 318.715 335.455C315.942 335.455 313.515 334.848 311.435 333.635C309.398 332.378 307.817 330.71 306.69 328.63C305.607 326.507 305.065 324.123 305.065 321.48C305.065 318.75 305.65 316.302 306.82 314.135C308.033 311.968 309.658 310.257 311.695 309C313.732 307.743 316.028 307.115 318.585 307.115ZM317.87 309.26C316.093 309.26 314.663 309.802 313.58 310.885C312.497 311.925 311.717 313.29 311.24 314.98C310.763 316.627 310.525 318.36 310.525 320.18C310.525 322.217 310.85 324.253 311.5 326.29C312.193 328.327 313.19 330.017 314.49 331.36C315.833 332.703 317.458 333.375 319.365 333.375C321.185 333.375 322.615 332.855 323.655 331.815C324.738 330.732 325.518 329.345 325.995 327.655C326.472 325.965 326.71 324.232 326.71 322.455C326.71 320.375 326.363 318.338 325.67 316.345C324.977 314.308 323.98 312.618 322.68 311.275C321.38 309.932 319.777 309.26 317.87 309.26ZM355.249 307.18C357.546 307.18 359.279 307.657 360.449 308.61C361.619 309.563 362.399 311.037 362.789 313.03C363.223 315.023 363.439 317.558 363.439 320.635V327.655C363.439 328.608 363.439 329.497 363.439 330.32C363.483 331.143 363.591 331.815 363.764 332.335C363.851 332.552 364.154 332.747 364.674 332.92C365.238 333.093 365.823 333.223 366.429 333.31C367.036 333.353 367.469 333.375 367.729 333.375C367.859 333.548 367.924 333.852 367.924 334.285C367.968 334.718 367.903 335.022 367.729 335.195C366.429 335.108 365.281 335.043 364.284 335C363.331 334.913 362.226 334.87 360.969 334.87C359.756 334.87 358.651 334.913 357.654 335C356.658 335.043 355.509 335.108 354.209 335.195C354.036 335.022 353.949 334.718 353.949 334.285C353.993 333.852 354.079 333.548 354.209 333.375C354.469 333.375 354.903 333.353 355.509 333.31C356.159 333.223 356.766 333.093 357.329 332.92C357.893 332.747 358.196 332.552 358.239 332.335C358.413 331.815 358.499 331.143 358.499 330.32C358.543 329.497 358.564 328.608 358.564 327.655V321.285C358.564 318.642 358.391 316.583 358.044 315.11C357.698 313.593 357.069 312.51 356.159 311.86C355.249 311.21 353.971 310.885 352.324 310.885C351.544 310.885 350.678 311.145 349.724 311.665C348.814 312.142 348.013 312.662 347.319 313.225C346.626 313.788 346.279 314.178 346.279 314.395V327.655C346.279 328.608 346.279 329.497 346.279 330.32C346.323 331.143 346.431 331.815 346.604 332.335C346.691 332.552 346.994 332.747 347.514 332.92C348.078 333.093 348.663 333.223 349.269 333.31C349.876 333.353 350.309 333.375 350.569 333.375C350.699 333.548 350.764 333.852 350.764 334.285C350.808 334.718 350.743 335.022 350.569 335.195C349.269 335.108 348.121 335.043 347.124 335C346.171 334.913 345.066 334.87 343.809 334.87C342.596 334.87 341.491 334.913 340.494 335C339.498 335.043 338.349 335.108 337.049 335.195C336.876 335.022 336.789 334.718 336.789 334.285C336.833 333.852 336.919 333.548 337.049 333.375C337.309 333.375 337.743 333.353 338.349 333.31C338.999 333.223 339.606 333.093 340.169 332.92C340.733 332.747 341.036 332.552 341.079 332.335C341.253 331.815 341.339 331.143 341.339 330.32C341.383 329.497 341.404 328.608 341.404 327.655V316.085C341.404 315.652 341.383 315.045 341.339 314.265C341.339 313.485 341.253 312.9 341.079 312.51C340.949 312.12 340.581 311.86 339.974 311.73C339.368 311.557 338.761 311.47 338.154 311.47C337.548 311.427 337.158 311.405 336.984 311.405C336.941 311.318 336.898 311.058 336.854 310.625C336.811 310.192 336.854 309.888 336.984 309.715C338.631 309.498 340.234 309.173 341.794 308.74C343.354 308.307 344.763 307.743 346.019 307.05C346.193 307.05 346.344 307.18 346.474 307.44C346.648 307.7 346.734 307.917 346.734 308.09C346.734 308.22 346.691 308.567 346.604 309.13C346.561 309.65 346.496 310.17 346.409 310.69C346.366 311.21 346.344 311.557 346.344 311.73C346.344 311.903 346.388 311.99 346.474 311.99C346.518 311.99 346.583 311.947 346.669 311.86C347.103 311.383 347.796 310.777 348.749 310.04C349.746 309.303 350.829 308.653 351.999 308.09C353.169 307.483 354.253 307.18 355.249 307.18ZM380.83 307.245C382.087 307.245 383.127 307.353 383.95 307.57C384.817 307.743 385.944 307.917 387.33 308.09C387.547 309.043 387.72 310.17 387.85 311.47C387.98 312.727 388.067 313.918 388.11 315.045C388.11 315.262 387.894 315.37 387.46 315.37C387.287 315.37 387.092 315.348 386.875 315.305C386.702 315.262 386.529 315.175 386.355 315.045C386.139 314.265 385.77 313.42 385.25 312.51C384.774 311.6 384.167 310.842 383.43 310.235C382.737 309.585 381.935 309.26 381.025 309.26C379.509 309.26 378.382 309.65 377.645 310.43C376.909 311.167 376.54 312.098 376.54 313.225C376.54 314.308 376.8 315.197 377.32 315.89C377.84 316.54 378.512 317.125 379.335 317.645C380.202 318.122 381.112 318.642 382.065 319.205C383.019 319.768 384.059 320.397 385.185 321.09C386.312 321.783 387.287 322.607 388.11 323.56C388.934 324.47 389.345 325.597 389.345 326.94C389.345 328.63 388.89 330.147 387.98 331.49C387.07 332.79 385.879 333.83 384.405 334.61C382.932 335.347 381.329 335.715 379.595 335.715C378.122 335.715 376.865 335.563 375.825 335.26C374.785 335 373.572 334.74 372.185 334.48C372.012 334.003 371.839 333.353 371.665 332.53C371.492 331.707 371.34 330.862 371.21 329.995C371.124 329.128 371.08 328.435 371.08 327.915C371.427 327.655 371.817 327.525 372.25 327.525C372.467 327.525 372.64 327.568 372.77 327.655C373.03 328.522 373.485 329.432 374.135 330.385C374.785 331.295 375.587 332.075 376.54 332.725C377.494 333.332 378.534 333.635 379.66 333.635C380.96 333.635 382.044 333.245 382.91 332.465C383.777 331.685 384.21 330.558 384.21 329.085C384.21 327.785 383.82 326.745 383.04 325.965C382.26 325.142 381.285 324.427 380.115 323.82C378.945 323.17 377.732 322.498 376.475 321.805C375.219 321.068 374.092 320.18 373.095 319.14C372.142 318.057 371.665 316.67 371.665 314.98C371.665 313.42 372.099 312.055 372.965 310.885C373.875 309.715 375.024 308.827 376.41 308.22C377.797 307.57 379.27 307.245 380.83 307.245Z" fill="black"/>
</g>
<defs>
<filter id="filter0_d_28499_3" x="40" y="44" width="432" height="432" filterUnits="userSpaceOnUse" color-interpolation-filters="sRGB">
<feFlood flood-opacity="0" result="BackgroundImageFix"/>
<feColorMatrix in="SourceAlpha" type="matrix" values="0 0 0 0 0 0 0 0 0 0 0 0 0 0 0 0 0 0 127 0" result="hardAlpha"/>
<feOffset dy="4"/>
<feGaussianBlur stdDeviation="5"/>
<feComposite in2="hardAlpha" operator="out"/>
<feColorMatrix type="matrix" values="0 0 0 0 0 0 0 0 0 0 0 0 0 0 0 0 0 0 0.25 0"/>
<feBlend mode="normal" in2="BackgroundImageFix" result="effect1_dropShadow_28499_3"/>
<feBlend mode="normal" in="SourceGraphic" in2="effect1_dropShadow_28499_3" result="shape"/>
</filter>
<filter id="filter1_i_28499_3" x="70" y="70" width="372" height="372" filterUnits="userSpaceOnUse" color-interpolation-filters="sRGB">
<feFlood flood-opacity="0" result="BackgroundImageFix"/>
<feBlend mode="normal" in="SourceGraphic" in2="BackgroundImageFix" result="shape"/>
<feColorMatrix in="SourceAlpha" type="matrix" values="0 0 0 0 0 0 0 0 0 0 0 0 0 0 0 0 0 0 127 0" result="hardAlpha"/>
<feOffset/>
<feGaussianBlur stdDeviation="4"/>
<feComposite in2="hardAlpha" operator="arithmetic" k2="-1" k3="1"/>
<feColorMatrix type="matrix" values="0 0 0 0 0 0 0 0 0 0 0 0 0 0 0 0 0 0 0.5 0"/>
<feBlend mode="normal" in2="shape" result="effect1_innerShadow_28499_3"/>
</filter>
<filter id="filter2_d_28499_3" x="111.034" y="201.95" width="289.145" height="76.49" filterUnits="userSpaceOnUse" color-interpolation-filters="sRGB">
<feFlood flood-opacity="0" result="BackgroundImageFix"/>
<feColorMatrix in="SourceAlpha" type="matrix" values="0 0 0 0 0 0 0 0 0 0 0 0 0 0 0 0 0 0 127 0" result="hardAlpha"/>
<feOffset dy="1"/>
<feGaussianBlur stdDeviation="1"/>
<feComposite in2="hardAlpha" operator="out"/>
<feColorMatrix type="matrix" values="0 0 0 0 1 0 0 0 0 1 0 0 0 0 1 0 0 0 0.5 0"/>
<feBlend mode="normal" in2="BackgroundImageFix" result="effect1_dropShadow_28499_3"/>
<feBlend mode="normal" in="SourceGraphic" in2="effect1_dropShadow_28499_3" result="shape"/>
</filter>
<filter id="filter3_d_28499_3" x="120.567" y="289.93" width="270.779" height="48.785" filterUnits="userSpaceOnUse" color-interpolation-filters="sRGB">
<feFlood flood-opacity="0" result="BackgroundImageFix"/>
<feColorMatrix in="SourceAlpha" type="matrix" values="0 0 0 0 0 0 0 0 0 0 0 0 0 0 0 0 0 0 127 0" result="hardAlpha"/>
<feOffset dy="1"/>
<feGaussianBlur stdDeviation="1"/>
<feComposite in2="hardAlpha" operator="out"/>
<feColorMatrix type="matrix" values="0 0 0 0 1 0 0 0 0 1 0 0 0 0 1 0 0 0 0.5 0"/>
<feBlend mode="normal" in2="BackgroundImageFix" result="effect1_dropShadow_28499_3"/>
<feBlend mode="normal" in="SourceGraphic" in2="effect1_dropShadow_28499_3" result="shape"/>
</filter>
<linearGradient id="paint0_linear_28499_3" x1="256" y1="70" x2="256" y2="442" gradientUnits="userSpaceOnUse">
<stop stop-color="#FFE4BB"/>
<stop offset="1" stop-color="#F6BC66"/>
</linearGradient>
</defs>
</svg>
