<svg width="512" height="512" viewBox="0 0 512 512" fill="none" xmlns="http://www.w3.org/2000/svg">
<g filter="url(#filter0_d_28524_6)">
<rect x="50" y="50" width="412" height="412" rx="92" fill="white"/>
<rect x="50.5" y="50.5" width="411" height="411" rx="91.5" stroke="#E4E4E4"/>
</g>
<g filter="url(#filter1_i_28524_6)">
<circle cx="256" cy="256" r="186" fill="url(#paint0_linear_28524_6)"/>
</g>
<g filter="url(#filter2_d_28524_6)">
<path d="M122.937 355.67C118.604 355.67 115.187 354.352 112.686 351.717C110.184 349.082 108.934 345.598 108.934 341.265C108.934 337.915 109.604 334.967 110.944 332.421C112.328 329.83 114.182 327.82 116.505 326.391C118.827 324.917 121.44 324.18 124.344 324.18C126.13 324.18 127.872 324.493 129.57 325.118C131.267 325.699 132.562 326.48 133.456 327.463C134.17 328.312 134.528 328.982 134.528 329.473C134.528 330.098 134.237 330.634 133.657 331.081L131.111 333.225H130.642L128.364 330.143C127.694 329.25 126.845 328.535 125.818 327.999C124.835 327.418 123.607 327.128 122.133 327.128C119.676 327.128 117.733 328.111 116.304 330.076C114.919 331.997 114.227 334.699 114.227 338.183C114.227 340.327 114.584 342.359 115.299 344.28C116.013 346.156 117.197 347.697 118.85 348.903C120.547 350.064 122.87 350.645 125.818 350.645C128.274 350.645 131.155 349.752 134.461 347.965H134.662V348.635C133.634 350.556 132.093 352.208 130.039 353.593C128.029 354.978 125.661 355.67 122.937 355.67ZM153.724 355.67C150.776 355.67 148.186 354.978 145.952 353.593C143.764 352.208 142.044 350.332 140.793 347.965C139.587 345.598 138.984 342.918 138.984 339.925C138.984 336.932 139.587 334.252 140.793 331.885C142.044 329.518 143.764 327.642 145.952 326.257C148.186 324.872 150.776 324.18 153.724 324.18C156.672 324.18 159.241 324.872 161.429 326.257C163.663 327.642 165.382 329.518 166.588 331.885C167.839 334.252 168.464 336.932 168.464 339.925C168.464 342.918 167.839 345.598 166.588 347.965C165.382 350.332 163.663 352.208 161.429 353.593C159.241 354.978 156.672 355.67 153.724 355.67ZM154.662 352.789C156.449 352.789 157.923 352.231 159.084 351.114C160.246 349.997 161.094 348.568 161.63 346.826C162.166 345.039 162.434 343.186 162.434 341.265C162.434 338.898 162.099 336.62 161.429 334.431C160.804 332.242 159.777 330.456 158.347 329.071C156.963 327.686 155.154 326.994 152.92 326.994C151.089 326.994 149.593 327.552 148.431 328.669C147.27 329.786 146.399 331.215 145.818 332.957C145.282 334.699 145.014 336.553 145.014 338.518C145.014 340.885 145.349 343.163 146.019 345.352C146.689 347.541 147.739 349.327 149.168 350.712C150.598 352.097 152.429 352.789 154.662 352.789ZM172.755 355V353.928L176.976 351.784V312.388L172.956 308.904V308.435L181.934 304.75H182.336V351.784L186.557 353.928V355H172.755ZM190.439 355V353.928L194.66 351.784V312.388L190.64 308.904V308.435L199.618 304.75H200.02V351.784L204.241 353.928V355H190.439ZM222.529 355.67C218.196 355.67 214.779 354.352 212.278 351.717C209.776 349.082 208.526 345.598 208.526 341.265C208.526 337.915 209.173 334.967 210.469 332.421C211.809 329.83 213.551 327.82 215.695 326.391C217.883 324.917 220.251 324.18 222.797 324.18C226.325 324.18 229.095 325.408 231.105 327.865C233.159 330.322 234.187 333.85 234.187 338.451L233.852 338.786H213.819C213.863 340.841 214.265 342.784 215.025 344.615C215.784 346.402 216.99 347.853 218.643 348.97C220.34 350.087 222.596 350.645 225.41 350.645C227.866 350.645 230.747 349.752 234.053 347.965H234.254V348.635C233.226 350.556 231.685 352.208 229.631 353.593C227.621 354.978 225.253 355.67 222.529 355.67ZM221.725 327.128C219.581 327.128 217.816 327.887 216.432 329.406C215.092 330.88 214.265 332.979 213.953 335.704H229.095C228.603 332.667 227.732 330.478 226.482 329.138C225.276 327.798 223.69 327.128 221.725 327.128ZM252.972 355.67C248.639 355.67 245.222 354.352 242.721 351.717C240.219 349.082 238.969 345.598 238.969 341.265C238.969 337.915 239.639 334.967 240.979 332.421C242.363 329.83 244.217 327.82 246.54 326.391C248.862 324.917 251.475 324.18 254.379 324.18C256.165 324.18 257.907 324.493 259.605 325.118C261.302 325.699 262.597 326.48 263.491 327.463C264.205 328.312 264.563 328.982 264.563 329.473C264.563 330.098 264.272 330.634 263.692 331.081L261.146 333.225H260.677L258.399 330.143C257.729 329.25 256.88 328.535 255.853 327.999C254.87 327.418 253.642 327.128 252.168 327.128C249.711 327.128 247.768 328.111 246.339 330.076C244.954 331.997 244.262 334.699 244.262 338.183C244.262 340.327 244.619 342.359 245.334 344.28C246.048 346.156 247.232 347.697 248.885 348.903C250.582 350.064 252.905 350.645 255.853 350.645C258.309 350.645 261.19 349.752 264.496 347.965H264.697V348.635C263.669 350.556 262.128 352.208 260.074 353.593C258.064 354.978 255.696 355.67 252.972 355.67ZM279.605 355.67C277.64 355.67 275.943 355.089 274.513 353.928C273.084 352.767 272.369 351.136 272.369 349.037V327.999H266.875V327.597L272.57 324.85L277.327 317.48H277.729V324.85H286.573V327.999H277.729V347.898C277.729 349.059 278.243 349.908 279.27 350.444C280.298 350.98 281.504 351.248 282.888 351.248C283.737 351.248 284.519 351.203 285.233 351.114C285.993 351.025 286.64 350.913 287.176 350.779H287.377V351.449C286.931 352.476 286.037 353.437 284.697 354.33C283.402 355.223 281.705 355.67 279.605 355.67ZM297.663 316.073C296.501 316.073 295.541 315.693 294.782 314.934C294.022 314.13 293.643 313.17 293.643 312.053C293.643 310.892 294.022 309.931 294.782 309.172C295.541 308.413 296.501 308.033 297.663 308.033C298.824 308.033 299.784 308.413 300.544 309.172C301.303 309.931 301.683 310.892 301.683 312.053C301.683 313.17 301.303 314.13 300.544 314.934C299.784 315.693 298.824 316.073 297.663 316.073ZM290.963 355V353.928L295.184 351.784V331.818L291.164 328.334V327.865L300.142 324.18H300.544V351.784L304.765 353.928V355H290.963ZM324.428 355.67C321.48 355.67 318.889 354.978 316.656 353.593C314.467 352.208 312.747 350.332 311.497 347.965C310.291 345.598 309.688 342.918 309.688 339.925C309.688 336.932 310.291 334.252 311.497 331.885C312.747 329.518 314.467 327.642 316.656 326.257C318.889 324.872 321.48 324.18 324.428 324.18C327.376 324.18 329.944 324.872 332.133 326.257C334.366 327.642 336.086 329.518 337.292 331.885C338.542 334.252 339.168 336.932 339.168 339.925C339.168 342.918 338.542 345.598 337.292 347.965C336.086 350.332 334.366 352.208 332.133 353.593C329.944 354.978 327.376 355.67 324.428 355.67ZM325.366 352.789C327.152 352.789 328.626 352.231 329.788 351.114C330.949 349.997 331.798 348.568 332.334 346.826C332.87 345.039 333.138 343.186 333.138 341.265C333.138 338.898 332.803 336.62 332.133 334.431C331.507 332.242 330.48 330.456 329.051 329.071C327.666 327.686 325.857 326.994 323.624 326.994C321.792 326.994 320.296 327.552 319.135 328.669C317.973 329.786 317.102 331.215 316.522 332.957C315.986 334.699 315.718 336.553 315.718 338.518C315.718 340.885 316.053 343.163 316.723 345.352C317.393 347.541 318.442 349.327 319.872 350.712C321.301 352.097 323.132 352.789 325.366 352.789ZM343.726 355V353.928L347.947 351.784V331.818L343.927 328.334V327.865L352.235 324.18H352.637L353.24 329.138H353.575C355.273 327.441 356.903 326.19 358.466 325.386C360.074 324.582 361.839 324.18 363.759 324.18C366.395 324.18 368.539 324.85 370.191 326.19C371.889 327.485 372.737 329.428 372.737 332.019V351.784L376.958 353.928V355H362.62V353.928L367.377 351.784V335.168C367.377 333.203 366.752 331.706 365.501 330.679C364.295 329.652 362.71 329.138 360.744 329.138C359.538 329.138 358.198 329.339 356.724 329.741C355.295 330.143 354.156 330.724 353.307 331.483V351.784L358.064 353.928V355H343.726ZM391.767 355.67C389.668 355.67 387.859 355.491 386.34 355.134C384.822 354.777 383.281 354.196 381.717 353.392V345.888H382.655L384.799 349.573C386.184 352.03 388.44 353.258 391.566 353.258C393.353 353.258 394.738 352.834 395.72 351.985C396.748 351.136 397.261 349.975 397.261 348.501C397.261 347.206 396.949 346.201 396.323 345.486C395.698 344.771 394.805 344.146 393.643 343.61C392.527 343.029 391.187 342.382 389.623 341.667C387.345 340.64 385.581 339.523 384.33 338.317C383.124 337.066 382.521 335.324 382.521 333.091C382.521 331.438 382.99 329.942 383.928 328.602C384.866 327.262 386.05 326.19 387.479 325.386C388.953 324.582 390.472 324.18 392.035 324.18C393.688 324.18 395.207 324.381 396.591 324.783C397.976 325.185 399.383 325.743 400.812 326.458V333.761H399.874L397.663 330.21C396.904 329.004 396.078 328.133 395.184 327.597C394.291 327.061 393.331 326.793 392.303 326.793C390.785 326.793 389.556 327.173 388.618 327.932C387.725 328.691 387.278 329.741 387.278 331.081C387.278 332.6 387.814 333.761 388.886 334.565C390.003 335.324 391.611 336.195 393.71 337.178C394.961 337.803 396.212 338.429 397.462 339.054C398.758 339.679 399.807 340.573 400.611 341.734C401.46 342.851 401.884 344.459 401.884 346.558C401.884 348.523 401.348 350.198 400.276 351.583C399.204 352.923 397.887 353.95 396.323 354.665C394.76 355.335 393.241 355.67 391.767 355.67Z" fill="black"/>
</g>
<g filter="url(#filter3_d_28524_6)">
<path d="M256 199.389C239.82 182.744 219.488 170.518 195.767 164.704L197.096 155.535C213.84 159.488 228.757 166.498 241.98 175.502L246.066 178.292L244.737 173.508C239.355 154.007 243.774 131.681 255.933 116C268.093 131.681 272.512 153.973 267.129 173.508L265.801 178.292L269.887 175.502C283.11 166.498 298.026 159.389 314.771 155.402L316.1 164.571C292.379 170.385 272.046 182.744 255.867 199.389" fill="black"/>
<path d="M202.08 296.399L212.346 199.854L214.804 201.349C229.688 210.319 241.781 223.209 249.754 238.658L250.12 239.322L249.887 240.053C244.937 255.136 242.977 275.668 244.306 293.375C248.458 293.276 252.578 293.209 256.764 293.209C260.452 293.209 264.106 293.276 267.761 293.342C269.09 275.601 267.13 255.103 262.179 240.02L261.947 239.289L262.312 238.625C270.286 223.176 282.379 210.286 297.262 201.316L299.721 199.821L309.953 296.199C318.724 297.196 327.395 298.425 336 299.887L318.89 180.585C293.575 187.329 271.847 203.11 257.595 225.136L256.066 227.528L254.538 225.136C240.252 203.076 218.558 187.329 193.243 180.585L176 300.153C184.605 298.658 193.309 297.395 202.08 296.399Z" fill="black"/>
</g>
<defs>
<filter id="filter0_d_28524_6" x="40" y="44" width="432" height="432" filterUnits="userSpaceOnUse" color-interpolation-filters="sRGB">
<feFlood flood-opacity="0" result="BackgroundImageFix"/>
<feColorMatrix in="SourceAlpha" type="matrix" values="0 0 0 0 0 0 0 0 0 0 0 0 0 0 0 0 0 0 127 0" result="hardAlpha"/>
<feOffset dy="4"/>
<feGaussianBlur stdDeviation="5"/>
<feComposite in2="hardAlpha" operator="out"/>
<feColorMatrix type="matrix" values="0 0 0 0 0 0 0 0 0 0 0 0 0 0 0 0 0 0 0.25 0"/>
<feBlend mode="normal" in2="BackgroundImageFix" result="effect1_dropShadow_28524_6"/>
<feBlend mode="normal" in="SourceGraphic" in2="effect1_dropShadow_28524_6" result="shape"/>
</filter>
<filter id="filter1_i_28524_6" x="70" y="70" width="372" height="372" filterUnits="userSpaceOnUse" color-interpolation-filters="sRGB">
<feFlood flood-opacity="0" result="BackgroundImageFix"/>
<feBlend mode="normal" in="SourceGraphic" in2="BackgroundImageFix" result="shape"/>
<feColorMatrix in="SourceAlpha" type="matrix" values="0 0 0 0 0 0 0 0 0 0 0 0 0 0 0 0 0 0 127 0" result="hardAlpha"/>
<feOffset/>
<feGaussianBlur stdDeviation="4"/>
<feComposite in2="hardAlpha" operator="arithmetic" k2="-1" k3="1"/>
<feColorMatrix type="matrix" values="0 0 0 0 0 0 0 0 0 0 0 0 0 0 0 0 0 0 0.5 0"/>
<feBlend mode="normal" in2="shape" result="effect1_innerShadow_28524_6"/>
</filter>
<filter id="filter2_d_28524_6" x="105.934" y="301.75" width="300.951" height="58.92" filterUnits="userSpaceOnUse" color-interpolation-filters="sRGB">
<feFlood flood-opacity="0" result="BackgroundImageFix"/>
<feColorMatrix in="SourceAlpha" type="matrix" values="0 0 0 0 0 0 0 0 0 0 0 0 0 0 0 0 0 0 127 0" result="hardAlpha"/>
<feOffset dx="1" dy="1"/>
<feGaussianBlur stdDeviation="2"/>
<feComposite in2="hardAlpha" operator="out"/>
<feColorMatrix type="matrix" values="0 0 0 0 1 0 0 0 0 1 0 0 0 0 1 0 0 0 1 0"/>
<feBlend mode="normal" in2="BackgroundImageFix" result="effect1_dropShadow_28524_6"/>
<feBlend mode="normal" in="SourceGraphic" in2="effect1_dropShadow_28524_6" result="shape"/>
</filter>
<filter id="filter3_d_28524_6" x="175" y="112" width="164" height="188.153" filterUnits="userSpaceOnUse" color-interpolation-filters="sRGB">
<feFlood flood-opacity="0" result="BackgroundImageFix"/>
<feColorMatrix in="SourceAlpha" type="matrix" values="0 0 0 0 0 0 0 0 0 0 0 0 0 0 0 0 0 0 127 0" result="hardAlpha"/>
<feOffset dx="1" dy="-2"/>
<feGaussianBlur stdDeviation="1"/>
<feComposite in2="hardAlpha" operator="out"/>
<feColorMatrix type="matrix" values="0 0 0 0 1 0 0 0 0 1 0 0 0 0 1 0 0 0 1 0"/>
<feBlend mode="normal" in2="BackgroundImageFix" result="effect1_dropShadow_28524_6"/>
<feBlend mode="normal" in="SourceGraphic" in2="effect1_dropShadow_28524_6" result="shape"/>
</filter>
<linearGradient id="paint0_linear_28524_6" x1="256" y1="70" x2="256" y2="442" gradientUnits="userSpaceOnUse">
<stop stop-color="#FFE4BB"/>
<stop offset="1" stop-color="#E0A349"/>
</linearGradient>
</defs>
</svg>
