<svg width="512" height="512" viewBox="0 0 512 512" fill="none" xmlns="http://www.w3.org/2000/svg">
<g filter="url(#filter0_d_28518_7)">
<rect x="50" y="50" width="412" height="412" rx="92" fill="white"/>
<rect x="50.5" y="50.5" width="411" height="411" rx="91.5" stroke="#E4E4E4"/>
</g>
<g filter="url(#filter1_i_28518_7)">
<circle cx="256" cy="256" r="186" fill="url(#paint0_linear_28518_7)"/>
</g>
<g filter="url(#filter2_d_28518_7)">
<path d="M203.048 201.666C203.048 203.397 202.104 204.38 200.216 204.616L196.086 205.088C194.277 205.324 193.333 206.307 193.254 208.038C193.254 210.005 193.215 211.932 193.136 213.82C193.136 215.708 193.136 217.635 193.136 219.602V253.35C193.136 255.317 193.136 257.283 193.136 259.25C193.215 261.138 193.254 263.065 193.254 265.032C193.411 266.999 194.355 268.021 196.086 268.1L200.216 268.572C202.104 268.808 203.048 269.752 203.048 271.404C203.048 273.135 202.065 274 200.098 274H172.84C170.873 274 169.89 273.135 169.89 271.404C169.89 269.752 170.834 268.808 172.722 268.572L176.616 268.218C178.425 267.982 179.33 266.959 179.33 265.15C179.409 263.183 179.448 261.256 179.448 259.368C179.448 257.401 179.448 255.435 179.448 253.468V217.006L153.842 274H149.712L123.87 216.77V264.678C123.87 266.487 124.775 267.51 126.584 267.746L131.186 268.454C132.995 268.69 133.9 269.673 133.9 271.404C133.9 273.135 132.917 274 130.95 274H110.3C108.333 274 107.35 273.135 107.35 271.404C107.35 269.673 108.255 268.69 110.064 268.454L115.138 267.746C116.947 267.51 117.852 266.487 117.852 264.678V208.274C117.852 206.386 116.947 205.324 115.138 205.088L110.772 204.616C108.963 204.38 108.058 203.397 108.058 201.666C108.058 199.935 109.041 199.07 111.008 199.07H129.534L155.612 255.946L180.51 201.312C181.218 199.817 182.398 199.07 184.05 199.07H200.098C202.065 199.07 203.048 199.935 203.048 201.666ZM248.955 201.666C248.955 203.397 248.011 204.38 246.123 204.616L241.875 205.088C240.066 205.324 239.122 206.307 239.043 208.038C239.043 210.005 239.004 211.932 238.925 213.82C238.925 215.708 238.925 217.635 238.925 219.602V253.35C238.925 255.317 238.925 257.283 238.925 259.25C239.004 261.138 239.043 263.065 239.043 265.032C239.122 266.841 240.066 267.864 241.875 268.1L246.123 268.572C248.011 268.808 248.955 269.752 248.955 271.404C248.955 273.135 247.972 274 246.005 274H218.157C216.191 274 215.207 273.135 215.207 271.404C215.207 269.673 216.151 268.729 218.039 268.572L222.287 268.1C224.097 267.864 225.041 266.841 225.119 265.032C225.119 263.144 225.119 261.256 225.119 259.368C225.198 257.401 225.237 255.435 225.237 253.468V219.72C225.237 217.753 225.198 215.826 225.119 213.938C225.119 211.971 225.119 210.005 225.119 208.038C224.962 206.229 224.018 205.206 222.287 204.97L218.039 204.498C216.151 204.262 215.207 203.318 215.207 201.666C215.207 199.935 216.191 199.07 218.157 199.07H246.005C247.972 199.07 248.955 199.935 248.955 201.666ZM334.553 199.07C336.519 199.07 337.503 199.935 337.503 201.666C337.503 203.397 336.598 204.38 334.789 204.616L330.305 205.206C328.495 205.442 327.591 206.465 327.591 208.274V242.494C327.591 247.293 327.079 251.737 326.057 255.828C325.034 259.84 323.382 263.341 321.101 266.33C318.819 269.319 315.869 271.64 312.251 273.292C308.632 274.944 304.227 275.77 299.035 275.77C289.359 275.77 282.161 273.056 277.441 267.628C272.721 262.2 270.361 254.805 270.361 245.444V219.484C270.361 217.596 270.321 215.708 270.243 213.82C270.243 211.932 270.243 210.005 270.243 208.038C270.085 206.229 269.141 205.206 267.411 204.97L263.753 204.616C261.865 204.38 260.921 203.397 260.921 201.666C260.921 199.935 261.904 199.07 263.871 199.07H291.601C293.567 199.07 294.551 199.935 294.551 201.666C294.551 203.397 293.646 204.38 291.837 204.616L286.999 205.088C285.268 205.324 284.324 206.347 284.167 208.156C284.167 210.044 284.127 211.932 284.049 213.82C284.049 215.708 284.049 217.596 284.049 219.484V242.14C284.049 245.444 284.285 248.591 284.757 251.58C285.307 254.569 286.251 257.205 287.589 259.486C288.926 261.767 290.775 263.577 293.135 264.914C295.573 266.251 298.681 266.92 302.457 266.92C306.39 266.92 309.576 266.212 312.015 264.796C314.453 263.38 316.341 261.492 317.679 259.132C319.095 256.772 320.039 254.058 320.511 250.99C320.983 247.843 321.219 244.579 321.219 241.196V208.392C321.219 206.504 320.314 205.442 318.505 205.206L313.313 204.616C311.503 204.38 310.599 203.397 310.599 201.666C310.599 199.935 311.582 199.07 313.549 199.07H334.553ZM396.734 256.182C397.049 254.451 398.15 253.586 400.038 253.586H402.162C404.286 253.586 405.269 254.609 405.112 256.654L404.522 271.168C404.443 273.056 403.46 274 401.572 274H349.298C347.331 274 346.348 273.292 346.348 271.876V271.758C346.348 270.499 346.702 269.28 347.41 268.1L387.294 205.088H361.216C359.407 205.088 358.305 205.953 357.912 207.684L356.024 217.124C355.631 218.855 354.529 219.72 352.72 219.72H350.596C348.472 219.72 347.489 218.697 347.646 216.652L348.236 201.902C348.393 200.014 349.377 199.07 351.186 199.07H400.038C402.005 199.07 402.988 199.778 402.988 201.194V201.312C402.988 202.571 402.634 203.79 401.926 204.97L362.16 268.1H391.66C393.469 268.1 394.531 267.235 394.846 265.504L396.734 256.182Z" fill="black"/>
</g>
<g filter="url(#filter3_d_28518_7)">
<path d="M133.442 319.687C133.875 319.097 134.288 318.802 134.681 318.802C134.799 318.802 134.937 318.841 135.094 318.92C135.684 319.274 135.802 319.864 135.448 320.69C134.543 322.696 133.167 324.23 131.318 325.292C129.509 326.354 127.365 326.885 124.887 326.885C122.763 326.885 120.875 326.531 119.223 325.823C117.571 325.076 116.175 324.073 115.034 322.814C113.933 321.516 113.087 320.002 112.497 318.271C111.946 316.501 111.671 314.593 111.671 312.548C111.671 310.542 112.005 308.654 112.674 306.884C113.343 305.114 114.287 303.58 115.506 302.282C116.725 300.945 118.181 299.902 119.872 299.155C121.563 298.408 123.451 298.034 125.536 298.034C126.716 298.034 127.876 298.191 129.017 298.506C130.197 298.821 131.259 299.312 132.203 299.981C133.186 300.61 134.012 301.417 134.681 302.4C135.35 303.344 135.743 304.445 135.861 305.704C135.586 307.317 134.583 308.123 132.852 308.123C130.846 308.123 129.686 306.904 129.371 304.465L128.958 302.223C128.801 301.515 128.466 301.082 127.955 300.925C127.483 300.768 126.952 300.689 126.362 300.689C124.907 300.689 123.668 301.043 122.645 301.751C121.622 302.42 120.796 303.305 120.167 304.406C119.538 305.468 119.066 306.668 118.751 308.005C118.476 309.303 118.338 310.562 118.338 311.781C118.338 315.478 119.144 318.251 120.757 320.1C122.37 321.949 124.435 322.873 126.952 322.873C129.627 322.873 131.79 321.811 133.442 319.687ZM154.594 298.034C156.64 298.034 158.508 298.427 160.199 299.214C161.891 299.961 163.326 301.004 164.506 302.341C165.726 303.639 166.65 305.173 167.279 306.943C167.948 308.674 168.282 310.542 168.282 312.548C168.282 314.593 167.948 316.501 167.279 318.271C166.65 320.002 165.745 321.516 164.565 322.814C163.385 324.073 161.95 325.076 160.258 325.823C158.567 326.531 156.679 326.885 154.594 326.885C152.51 326.885 150.622 326.531 148.93 325.823C147.239 325.076 145.803 324.073 144.623 322.814C143.443 321.516 142.519 320.002 141.85 318.271C141.221 316.501 140.906 314.593 140.906 312.548C140.906 310.542 141.221 308.654 141.85 306.884C142.519 305.114 143.443 303.58 144.623 302.282C145.843 300.984 147.278 299.961 148.93 299.214C150.622 298.427 152.51 298.034 154.594 298.034ZM154.594 300.689C150.071 300.689 147.809 304.622 147.809 312.489C147.809 320.277 150.071 324.171 154.594 324.171C159.118 324.171 161.379 320.277 161.379 312.489C161.379 304.622 159.118 300.689 154.594 300.689ZM183.63 321.693C183.63 322.598 184.063 323.129 184.928 323.286L186.167 323.522C187.033 323.679 187.465 324.132 187.465 324.879C187.465 325.626 186.974 326 185.99 326H174.721C173.738 326 173.246 325.626 173.246 324.879C173.246 324.171 173.699 323.719 174.603 323.522L175.901 323.286C176.767 323.129 177.199 322.598 177.199 321.693C177.239 320.434 177.258 319.176 177.258 317.917C177.298 316.658 177.317 315.4 177.317 314.141V291.603C177.317 290.698 176.865 290.187 175.96 290.069L174.19 289.833C173.286 289.715 172.833 289.302 172.833 288.594C172.833 287.886 173.266 287.414 174.131 287.178L181.919 285.172C182.116 285.093 182.273 285.054 182.391 285.054C182.549 285.054 182.706 285.054 182.863 285.054C183.139 285.054 183.316 285.093 183.394 285.172C183.63 285.329 183.748 285.801 183.748 286.588L183.571 293.432V314.141C183.571 315.4 183.571 316.658 183.571 317.917C183.611 319.176 183.63 320.434 183.63 321.693ZM201.98 321.693C201.98 322.598 202.413 323.129 203.278 323.286L204.517 323.522C205.383 323.679 205.815 324.132 205.815 324.879C205.815 325.626 205.324 326 204.34 326H193.071C192.088 326 191.596 325.626 191.596 324.879C191.596 324.171 192.049 323.719 192.953 323.522L194.251 323.286C195.117 323.129 195.549 322.598 195.549 321.693C195.589 320.434 195.608 319.176 195.608 317.917C195.648 316.658 195.667 315.4 195.667 314.141V291.603C195.667 290.698 195.215 290.187 194.31 290.069L192.54 289.833C191.636 289.715 191.183 289.302 191.183 288.594C191.183 287.886 191.616 287.414 192.481 287.178L200.269 285.172C200.466 285.093 200.623 285.054 200.741 285.054C200.899 285.054 201.056 285.054 201.213 285.054C201.489 285.054 201.666 285.093 201.744 285.172C201.98 285.329 202.098 285.801 202.098 286.588L201.921 293.432V314.141C201.921 315.4 201.921 316.658 201.921 317.917C201.961 319.176 201.98 320.434 201.98 321.693ZM236.437 310.483C236.28 311.348 235.729 311.781 234.785 311.781H217.675C217.754 315.36 218.619 318.055 220.271 319.864C221.923 321.673 224.067 322.578 226.702 322.578C228.236 322.578 229.534 322.303 230.596 321.752C231.697 321.162 232.7 320.356 233.605 319.333C234.038 318.861 234.451 318.625 234.844 318.625C235.041 318.625 235.218 318.684 235.375 318.802C235.965 319.195 236.044 319.785 235.611 320.572C234.588 322.578 233.113 324.112 231.186 325.174C229.259 326.236 226.997 326.767 224.401 326.767C222.198 326.767 220.232 326.393 218.501 325.646C216.81 324.899 215.374 323.876 214.194 322.578C213.053 321.241 212.188 319.667 211.598 317.858C211.008 316.049 210.713 314.082 210.713 311.958C210.713 309.913 211.047 307.966 211.716 306.117C212.385 304.268 213.329 302.656 214.548 301.279C215.807 299.863 217.301 298.762 219.032 297.975C220.802 297.149 222.749 296.736 224.873 296.736C226.643 296.736 228.236 297.031 229.652 297.621C231.107 298.211 232.346 299.037 233.369 300.099C234.392 301.122 235.178 302.361 235.729 303.816C236.28 305.271 236.555 306.884 236.555 308.654C236.555 308.969 236.555 309.283 236.555 309.598C236.555 309.873 236.516 310.168 236.437 310.483ZM217.793 309.067H226.643C228.059 309.067 229.003 308.772 229.475 308.182C229.986 307.592 230.242 306.766 230.242 305.704C230.242 303.934 229.731 302.459 228.708 301.279C227.725 300.099 226.486 299.509 224.991 299.509C223.772 299.509 222.71 299.824 221.805 300.453C220.94 301.043 220.212 301.81 219.622 302.754C219.071 303.698 218.639 304.74 218.324 305.881C218.049 306.982 217.872 308.044 217.793 309.067ZM264.141 319.687C264.574 319.097 264.987 318.802 265.38 318.802C265.498 318.802 265.636 318.841 265.793 318.92C266.383 319.274 266.501 319.864 266.147 320.69C265.242 322.696 263.866 324.23 262.017 325.292C260.208 326.354 258.064 326.885 255.586 326.885C253.462 326.885 251.574 326.531 249.922 325.823C248.27 325.076 246.874 324.073 245.733 322.814C244.632 321.516 243.786 320.002 243.196 318.271C242.645 316.501 242.37 314.593 242.37 312.548C242.37 310.542 242.704 308.654 243.373 306.884C244.042 305.114 244.986 303.58 246.205 302.282C247.424 300.945 248.88 299.902 250.571 299.155C252.262 298.408 254.15 298.034 256.235 298.034C257.415 298.034 258.575 298.191 259.716 298.506C260.896 298.821 261.958 299.312 262.902 299.981C263.885 300.61 264.711 301.417 265.38 302.4C266.049 303.344 266.442 304.445 266.56 305.704C266.285 307.317 265.282 308.123 263.551 308.123C261.545 308.123 260.385 306.904 260.07 304.465L259.657 302.223C259.5 301.515 259.165 301.082 258.654 300.925C258.182 300.768 257.651 300.689 257.061 300.689C255.606 300.689 254.367 301.043 253.344 301.751C252.321 302.42 251.495 303.305 250.866 304.406C250.237 305.468 249.765 306.668 249.45 308.005C249.175 309.303 249.037 310.562 249.037 311.781C249.037 315.478 249.843 318.251 251.456 320.1C253.069 321.949 255.134 322.873 257.651 322.873C260.326 322.873 262.489 321.811 264.141 319.687ZM286.06 322.106C286.493 321.87 286.867 321.752 287.181 321.752C287.496 321.752 287.771 321.89 288.007 322.165C288.519 322.794 288.479 323.424 287.889 324.053C287.142 324.84 286.218 325.469 285.116 325.941C284.054 326.374 282.776 326.59 281.281 326.59C279.118 326.59 277.407 326.059 276.148 324.997C274.929 323.896 274.319 322.185 274.319 319.864C274.319 319.353 274.319 318.9 274.319 318.507C274.319 318.074 274.339 317.661 274.378 317.268V303.816C274.378 302.833 273.887 302.341 272.903 302.341H271.664C270.681 302.341 270.189 301.869 270.189 300.925C270.189 300.02 270.642 299.509 271.546 299.391L273.611 299.155C274.437 299.037 274.929 298.565 275.086 297.739L276.148 292.429C276.306 291.564 276.837 291.131 277.741 291.131H279.393C280.337 291.131 280.809 291.623 280.809 292.606L280.691 297.562C280.691 298.545 281.183 299.037 282.166 299.037H286.237C287.221 299.037 287.712 299.529 287.712 300.512V300.866C287.712 301.849 287.221 302.341 286.237 302.341H282.107C281.124 302.341 280.632 302.833 280.632 303.816V318.743C280.632 320.198 280.908 321.241 281.458 321.87C282.048 322.499 282.796 322.814 283.7 322.814C284.015 322.814 284.369 322.775 284.762 322.696C285.195 322.578 285.628 322.381 286.06 322.106ZM302.235 321.752C302.274 322.578 302.727 323.089 303.592 323.286L304.595 323.463C305.46 323.66 305.893 324.132 305.893 324.879C305.893 325.626 305.401 326 304.418 326H293.562C292.579 326 292.087 325.626 292.087 324.879C292.087 324.171 292.539 323.719 293.444 323.522L294.624 323.286C295.489 323.089 295.942 322.578 295.981 321.752V311.309C295.981 310.522 295.981 309.814 295.981 309.185C295.981 308.556 295.961 307.966 295.922 307.415C295.883 307.1 295.863 306.786 295.863 306.471C295.863 306.156 295.863 305.842 295.863 305.527C295.784 304.622 295.312 304.111 294.447 303.993L293.031 303.816C292.126 303.698 291.674 303.285 291.674 302.577C291.674 301.948 292.067 301.476 292.854 301.161L300.524 298.388C300.721 298.309 300.898 298.25 301.055 298.211C301.212 298.172 301.37 298.152 301.527 298.152C301.724 298.152 301.881 298.211 301.999 298.329C302.274 298.565 302.412 299.037 302.412 299.745L302.235 306.471V321.752ZM299.049 292.606C297.79 292.606 296.748 292.232 295.922 291.485C295.135 290.738 294.742 289.754 294.742 288.535C294.742 287.316 295.135 286.332 295.922 285.585C296.748 284.838 297.79 284.464 299.049 284.464C300.268 284.464 301.271 284.838 302.058 285.585C302.884 286.332 303.297 287.316 303.297 288.535C303.297 289.754 302.884 290.738 302.058 291.485C301.271 292.232 300.268 292.606 299.049 292.606ZM324.183 298.034C326.228 298.034 328.096 298.427 329.788 299.214C331.479 299.961 332.915 301.004 334.095 302.341C335.314 303.639 336.238 305.173 336.868 306.943C337.536 308.674 337.871 310.542 337.871 312.548C337.871 314.593 337.536 316.501 336.868 318.271C336.238 320.002 335.334 321.516 334.154 322.814C332.974 324.073 331.538 325.076 329.847 325.823C328.155 326.531 326.267 326.885 324.183 326.885C322.098 326.885 320.21 326.531 318.519 325.823C316.827 325.076 315.392 324.073 314.212 322.814C313.032 321.516 312.107 320.002 311.439 318.271C310.809 316.501 310.495 314.593 310.495 312.548C310.495 310.542 310.809 308.654 311.439 306.884C312.107 305.114 313.032 303.58 314.212 302.282C315.431 300.984 316.867 299.961 318.519 299.214C320.21 298.427 322.098 298.034 324.183 298.034ZM324.183 300.689C319.659 300.689 317.398 304.622 317.398 312.489C317.398 320.277 319.659 324.171 324.183 324.171C328.706 324.171 330.968 320.277 330.968 312.489C330.968 304.622 328.706 300.689 324.183 300.689ZM370.918 321.752C370.958 322.578 371.41 323.089 372.275 323.286L373.278 323.463C374.144 323.66 374.576 324.132 374.576 324.879C374.576 325.626 374.085 326 373.101 326H362.245C361.262 326 360.77 325.626 360.77 324.879C360.77 324.132 361.203 323.679 362.068 323.522L363.248 323.286C364.114 323.089 364.566 322.578 364.605 321.752V308.89C364.605 306.53 364.31 304.858 363.72 303.875C363.17 302.852 362.147 302.341 360.652 302.341C359.433 302.341 358.253 302.636 357.112 303.226C356.011 303.816 354.831 304.701 353.572 305.881V321.752C353.612 322.578 354.064 323.089 354.929 323.286L355.991 323.522C356.857 323.679 357.289 324.132 357.289 324.879C357.289 325.626 356.798 326 355.814 326H344.84C343.857 326 343.365 325.626 343.365 324.879C343.365 324.171 343.818 323.719 344.722 323.522L345.961 323.286C346.827 323.089 347.279 322.578 347.318 321.752V311.073C347.318 310.286 347.318 309.578 347.318 308.949C347.318 308.32 347.299 307.769 347.259 307.297C347.22 306.982 347.2 306.687 347.2 306.412C347.2 306.137 347.2 305.842 347.2 305.527C347.122 304.622 346.65 304.111 345.784 303.993L344.368 303.816C343.464 303.698 343.011 303.285 343.011 302.577C343.011 301.908 343.405 301.417 344.191 301.102L351.035 298.447C351.389 298.29 351.743 298.211 352.097 298.211C352.333 298.211 352.491 298.25 352.569 298.329C352.884 298.526 353.061 298.978 353.1 299.686L353.395 303.167C354.89 301.436 356.404 300.158 357.938 299.332C359.472 298.467 361.203 298.034 363.13 298.034C365.726 298.034 367.673 298.84 368.971 300.453C370.269 302.026 370.918 304.622 370.918 308.241V321.752ZM391.087 309.126L392.975 309.775C394.431 310.326 395.63 310.916 396.574 311.545C397.558 312.135 398.364 312.764 398.993 313.433C399.544 314.141 399.937 314.908 400.173 315.734C400.409 316.521 400.527 317.366 400.527 318.271C400.527 319.844 400.173 321.182 399.465 322.283C398.797 323.345 397.912 324.23 396.81 324.938C395.709 325.607 394.47 326.098 393.093 326.413C391.756 326.728 390.419 326.885 389.081 326.885C387.429 326.885 385.974 326.708 384.715 326.354C383.457 326.039 382.198 325.567 380.939 324.938C380.231 324.623 379.877 324.053 379.877 323.227L379.818 319.51C379.818 318.527 380.29 318.035 381.234 318.035H382.178C383.044 318.035 383.575 318.487 383.771 319.392L384.243 321.87C384.361 322.657 384.774 323.168 385.482 323.404C386.662 323.876 387.882 324.112 389.14 324.112C391.146 324.112 392.602 323.758 393.506 323.05C394.411 322.342 394.863 321.359 394.863 320.1C394.863 318.959 394.47 318.074 393.683 317.445C392.897 316.776 391.5 316.049 389.494 315.262L386.898 314.318C384.696 313.413 383.004 312.332 381.824 311.073C380.644 309.814 380.054 308.202 380.054 306.235C380.054 304.74 380.369 303.482 380.998 302.459C381.628 301.436 382.454 300.591 383.476 299.922C384.499 299.253 385.64 298.781 386.898 298.506C388.157 298.191 389.435 298.034 390.733 298.034C392.11 298.034 393.369 298.191 394.509 298.506C395.65 298.781 396.791 299.194 397.931 299.745C398.679 300.099 399.033 300.689 398.993 301.515L398.816 304.819C398.777 305.763 398.285 306.235 397.341 306.235H396.456C395.552 306.235 395.021 305.802 394.863 304.937L394.45 302.754C394.293 301.928 393.86 301.417 393.152 301.22C392.326 300.905 391.461 300.748 390.556 300.748C388.983 300.748 387.764 301.082 386.898 301.751C386.072 302.42 385.659 303.383 385.659 304.642C385.659 305.586 386.033 306.392 386.78 307.061C387.174 307.376 387.724 307.71 388.432 308.064C389.18 308.418 390.065 308.772 391.087 309.126Z" fill="black"/>
</g>
<defs>
<filter id="filter0_d_28518_7" x="40" y="44" width="432" height="432" filterUnits="userSpaceOnUse" color-interpolation-filters="sRGB">
<feFlood flood-opacity="0" result="BackgroundImageFix"/>
<feColorMatrix in="SourceAlpha" type="matrix" values="0 0 0 0 0 0 0 0 0 0 0 0 0 0 0 0 0 0 127 0" result="hardAlpha"/>
<feOffset dy="4"/>
<feGaussianBlur stdDeviation="5"/>
<feComposite in2="hardAlpha" operator="out"/>
<feColorMatrix type="matrix" values="0 0 0 0 0 0 0 0 0 0 0 0 0 0 0 0 0 0 0.25 0"/>
<feBlend mode="normal" in2="BackgroundImageFix" result="effect1_dropShadow_28518_7"/>
<feBlend mode="normal" in="SourceGraphic" in2="effect1_dropShadow_28518_7" result="shape"/>
</filter>
<filter id="filter1_i_28518_7" x="70" y="70" width="372" height="372" filterUnits="userSpaceOnUse" color-interpolation-filters="sRGB">
<feFlood flood-opacity="0" result="BackgroundImageFix"/>
<feBlend mode="normal" in="SourceGraphic" in2="BackgroundImageFix" result="shape"/>
<feColorMatrix in="SourceAlpha" type="matrix" values="0 0 0 0 0 0 0 0 0 0 0 0 0 0 0 0 0 0 127 0" result="hardAlpha"/>
<feOffset/>
<feGaussianBlur stdDeviation="4"/>
<feComposite in2="hardAlpha" operator="arithmetic" k2="-1" k3="1"/>
<feColorMatrix type="matrix" values="0 0 0 0 0 0 0 0 0 0 0 0 0 0 0 0 0 0 0.5 0"/>
<feBlend mode="normal" in2="shape" result="effect1_innerShadow_28518_7"/>
</filter>
<filter id="filter2_d_28518_7" x="104.35" y="196.07" width="305.998" height="84.7" filterUnits="userSpaceOnUse" color-interpolation-filters="sRGB">
<feFlood flood-opacity="0" result="BackgroundImageFix"/>
<feColorMatrix in="SourceAlpha" type="matrix" values="0 0 0 0 0 0 0 0 0 0 0 0 0 0 0 0 0 0 127 0" result="hardAlpha"/>
<feOffset dx="1" dy="1"/>
<feGaussianBlur stdDeviation="2"/>
<feComposite in2="hardAlpha" operator="out"/>
<feColorMatrix type="matrix" values="0 0 0 0 1 0 0 0 0 1 0 0 0 0 1 0 0 0 1 0"/>
<feBlend mode="normal" in2="BackgroundImageFix" result="effect1_dropShadow_28518_7"/>
<feBlend mode="normal" in="SourceGraphic" in2="effect1_dropShadow_28518_7" result="shape"/>
</filter>
<filter id="filter3_d_28518_7" x="108.671" y="281.464" width="296.856" height="50.421" filterUnits="userSpaceOnUse" color-interpolation-filters="sRGB">
<feFlood flood-opacity="0" result="BackgroundImageFix"/>
<feColorMatrix in="SourceAlpha" type="matrix" values="0 0 0 0 0 0 0 0 0 0 0 0 0 0 0 0 0 0 127 0" result="hardAlpha"/>
<feOffset dx="1" dy="1"/>
<feGaussianBlur stdDeviation="2"/>
<feComposite in2="hardAlpha" operator="out"/>
<feColorMatrix type="matrix" values="0 0 0 0 1 0 0 0 0 1 0 0 0 0 1 0 0 0 1 0"/>
<feBlend mode="normal" in2="BackgroundImageFix" result="effect1_dropShadow_28518_7"/>
<feBlend mode="normal" in="SourceGraphic" in2="effect1_dropShadow_28518_7" result="shape"/>
</filter>
<linearGradient id="paint0_linear_28518_7" x1="256" y1="70" x2="256" y2="442" gradientUnits="userSpaceOnUse">
<stop stop-color="#FFE4BB"/>
<stop offset="1" stop-color="#F6BC66"/>
</linearGradient>
</defs>
</svg>
