<svg width="512" height="512" viewBox="0 0 512 512" fill="none" xmlns="http://www.w3.org/2000/svg">
<g filter="url(#filter0_d_28522_2)">
<rect x="50" y="50" width="412" height="412" rx="92" fill="white"/>
<rect x="50.5" y="50.5" width="411" height="411" rx="91.5" stroke="#E4E4E4"/>
</g>
<g filter="url(#filter1_i_28522_2)">
<circle cx="256" cy="251" r="186" fill="url(#paint0_linear_28522_2)"/>
</g>
<g filter="url(#filter2_d_28522_2)">
<path d="M121.047 316.724C121.545 316.044 122.021 315.704 122.475 315.704C122.611 315.704 122.769 315.749 122.951 315.84C123.631 316.248 123.767 316.928 123.359 317.88C122.316 320.192 120.729 321.96 118.599 323.184C116.513 324.408 114.043 325.02 111.187 325.02C108.739 325.02 106.563 324.612 104.659 323.796C102.755 322.935 101.145 321.779 99.8307 320.328C98.5614 318.832 97.5867 317.087 96.9067 315.092C96.2721 313.052 95.9547 310.853 95.9547 308.496C95.9547 306.184 96.3401 304.008 97.1107 301.968C97.8814 299.928 98.9694 298.16 100.375 296.664C101.78 295.123 103.457 293.921 105.407 293.06C107.356 292.199 109.532 291.768 111.935 291.768C113.295 291.768 114.632 291.949 115.947 292.312C117.307 292.675 118.531 293.241 119.619 294.012C120.752 294.737 121.704 295.667 122.475 296.8C123.245 297.888 123.699 299.157 123.835 300.608C123.517 302.467 122.361 303.396 120.367 303.396C118.055 303.396 116.717 301.991 116.355 299.18L115.879 296.596C115.697 295.78 115.312 295.281 114.723 295.1C114.179 294.919 113.567 294.828 112.887 294.828C111.209 294.828 109.781 295.236 108.603 296.052C107.424 296.823 106.472 297.843 105.747 299.112C105.021 300.336 104.477 301.719 104.115 303.26C103.797 304.756 103.639 306.207 103.639 307.612C103.639 311.873 104.568 315.069 106.427 317.2C108.285 319.331 110.665 320.396 113.567 320.396C116.649 320.396 119.143 319.172 121.047 316.724ZM144.066 291.768C146.423 291.768 148.576 292.221 150.526 293.128C152.475 293.989 154.13 295.191 155.49 296.732C156.895 298.228 157.96 299.996 158.686 302.036C159.456 304.031 159.842 306.184 159.842 308.496C159.842 310.853 159.456 313.052 158.686 315.092C157.96 317.087 156.918 318.832 155.558 320.328C154.198 321.779 152.543 322.935 150.594 323.796C148.644 324.612 146.468 325.02 144.066 325.02C141.663 325.02 139.487 324.612 137.538 323.796C135.588 322.935 133.934 321.779 132.574 320.328C131.214 318.832 130.148 317.087 129.378 315.092C128.652 313.052 128.29 310.853 128.29 308.496C128.29 306.184 128.652 304.008 129.378 301.968C130.148 299.928 131.214 298.16 132.574 296.664C133.979 295.168 135.634 293.989 137.538 293.128C139.487 292.221 141.663 291.768 144.066 291.768ZM144.066 294.828C138.852 294.828 136.246 299.361 136.246 308.428C136.246 317.404 138.852 321.892 144.066 321.892C149.279 321.892 151.886 317.404 151.886 308.428C151.886 299.361 149.279 294.828 144.066 294.828ZM176.171 319.036C176.171 320.079 176.669 320.691 177.667 320.872L179.095 321.144C180.092 321.325 180.591 321.847 180.591 322.708C180.591 323.569 180.024 324 178.891 324H165.903C164.769 324 164.203 323.569 164.203 322.708C164.203 321.892 164.724 321.371 165.767 321.144L167.263 320.872C168.26 320.691 168.759 320.079 168.759 319.036C168.804 317.585 168.827 316.135 168.827 314.684C168.872 313.233 168.895 311.783 168.895 310.332V284.356C168.895 283.313 168.373 282.724 167.331 282.588L165.291 282.316C164.248 282.18 163.727 281.704 163.727 280.888C163.727 280.072 164.225 279.528 165.223 279.256L174.199 276.944C174.425 276.853 174.607 276.808 174.743 276.808C174.924 276.808 175.105 276.808 175.287 276.808C175.604 276.808 175.808 276.853 175.899 276.944C176.171 277.125 176.307 277.669 176.307 278.576L176.103 286.464V310.332C176.103 311.783 176.103 313.233 176.103 314.684C176.148 316.135 176.171 317.585 176.171 319.036ZM195.96 319.036C195.96 320.079 196.459 320.691 197.456 320.872L198.884 321.144C199.881 321.325 200.38 321.847 200.38 322.708C200.38 323.569 199.813 324 198.68 324H185.692C184.559 324 183.992 323.569 183.992 322.708C183.992 321.892 184.513 321.371 185.556 321.144L187.052 320.872C188.049 320.691 188.548 320.079 188.548 319.036C188.593 317.585 188.616 316.135 188.616 314.684C188.661 313.233 188.684 311.783 188.684 310.332V284.356C188.684 283.313 188.163 282.724 187.12 282.588L185.08 282.316C184.037 282.18 183.516 281.704 183.516 280.888C183.516 280.072 184.015 279.528 185.012 279.256L193.988 276.944C194.215 276.853 194.396 276.808 194.532 276.808C194.713 276.808 194.895 276.808 195.076 276.808C195.393 276.808 195.597 276.853 195.688 276.944C195.96 277.125 196.096 277.669 196.096 278.576L195.892 286.464V310.332C195.892 311.783 195.892 313.233 195.892 314.684C195.937 316.135 195.96 317.585 195.96 319.036ZM234.313 306.116C234.132 307.113 233.497 307.612 232.409 307.612H212.689C212.78 311.737 213.777 314.843 215.681 316.928C217.585 319.013 220.056 320.056 223.093 320.056C224.861 320.056 226.357 319.739 227.581 319.104C228.85 318.424 230.006 317.495 231.049 316.316C231.548 315.772 232.024 315.5 232.477 315.5C232.704 315.5 232.908 315.568 233.089 315.704C233.769 316.157 233.86 316.837 233.361 317.744C232.182 320.056 230.482 321.824 228.261 323.048C226.04 324.272 223.433 324.884 220.441 324.884C217.902 324.884 215.636 324.453 213.641 323.592C211.692 322.731 210.037 321.552 208.677 320.056C207.362 318.515 206.365 316.701 205.685 314.616C205.005 312.531 204.665 310.264 204.665 307.816C204.665 305.459 205.05 303.215 205.821 301.084C206.592 298.953 207.68 297.095 209.085 295.508C210.536 293.876 212.258 292.607 214.253 291.7C216.293 290.748 218.537 290.272 220.985 290.272C223.025 290.272 224.861 290.612 226.493 291.292C228.17 291.972 229.598 292.924 230.777 294.148C231.956 295.327 232.862 296.755 233.497 298.432C234.132 300.109 234.449 301.968 234.449 304.008C234.449 304.371 234.449 304.733 234.449 305.096C234.449 305.413 234.404 305.753 234.313 306.116ZM212.825 304.484H223.025C224.657 304.484 225.745 304.144 226.289 303.464C226.878 302.784 227.173 301.832 227.173 300.608C227.173 298.568 226.584 296.868 225.405 295.508C224.272 294.148 222.844 293.468 221.121 293.468C219.716 293.468 218.492 293.831 217.449 294.556C216.452 295.236 215.613 296.12 214.933 297.208C214.298 298.296 213.8 299.497 213.437 300.812C213.12 302.081 212.916 303.305 212.825 304.484ZM264.883 316.724C265.381 316.044 265.857 315.704 266.311 315.704C266.447 315.704 266.605 315.749 266.787 315.84C267.467 316.248 267.603 316.928 267.195 317.88C266.152 320.192 264.565 321.96 262.435 323.184C260.349 324.408 257.879 325.02 255.023 325.02C252.575 325.02 250.399 324.612 248.495 323.796C246.591 322.935 244.981 321.779 243.667 320.328C242.397 318.832 241.423 317.087 240.743 315.092C240.108 313.052 239.791 310.853 239.791 308.496C239.791 306.184 240.176 304.008 240.947 301.968C241.717 299.928 242.805 298.16 244.211 296.664C245.616 295.123 247.293 293.921 249.243 293.06C251.192 292.199 253.368 291.768 255.771 291.768C257.131 291.768 258.468 291.949 259.783 292.312C261.143 292.675 262.367 293.241 263.455 294.012C264.588 294.737 265.54 295.667 266.311 296.8C267.081 297.888 267.535 299.157 267.671 300.608C267.353 302.467 266.197 303.396 264.203 303.396C261.891 303.396 260.553 301.991 260.191 299.18L259.715 296.596C259.533 295.78 259.148 295.281 258.559 295.1C258.015 294.919 257.403 294.828 256.723 294.828C255.045 294.828 253.617 295.236 252.439 296.052C251.26 296.823 250.308 297.843 249.583 299.112C248.857 300.336 248.313 301.719 247.951 303.26C247.633 304.756 247.475 306.207 247.475 307.612C247.475 311.873 248.404 315.069 250.263 317.2C252.121 319.331 254.501 320.396 257.403 320.396C260.485 320.396 262.979 319.172 264.883 316.724ZM288.786 319.512C289.284 319.24 289.715 319.104 290.078 319.104C290.44 319.104 290.758 319.263 291.03 319.58C291.619 320.305 291.574 321.031 290.894 321.756C290.032 322.663 288.967 323.388 287.698 323.932C286.474 324.431 285 324.68 283.278 324.68C280.784 324.68 278.812 324.068 277.362 322.844C275.956 321.575 275.254 319.603 275.254 316.928C275.254 316.339 275.254 315.817 275.254 315.364C275.254 314.865 275.276 314.389 275.322 313.936V298.432C275.322 297.299 274.755 296.732 273.622 296.732H272.194C271.06 296.732 270.494 296.188 270.494 295.1C270.494 294.057 271.015 293.468 272.058 293.332L274.438 293.06C275.39 292.924 275.956 292.38 276.138 291.428L277.362 285.308C277.543 284.311 278.155 283.812 279.198 283.812H281.102C282.19 283.812 282.734 284.379 282.734 285.512L282.598 291.224C282.598 292.357 283.164 292.924 284.298 292.924H288.99C290.123 292.924 290.69 293.491 290.69 294.624V295.032C290.69 296.165 290.123 296.732 288.99 296.732H284.23C283.096 296.732 282.53 297.299 282.53 298.432V315.636C282.53 317.313 282.847 318.515 283.482 319.24C284.162 319.965 285.023 320.328 286.066 320.328C286.428 320.328 286.836 320.283 287.29 320.192C287.788 320.056 288.287 319.829 288.786 319.512ZM306.068 319.104C306.113 320.056 306.634 320.645 307.632 320.872L308.788 321.076C309.785 321.303 310.284 321.847 310.284 322.708C310.284 323.569 309.717 324 308.584 324H296.072C294.938 324 294.372 323.569 294.372 322.708C294.372 321.892 294.893 321.371 295.936 321.144L297.296 320.872C298.293 320.645 298.814 320.056 298.86 319.104V307.068C298.86 306.161 298.86 305.345 298.86 304.62C298.86 303.895 298.837 303.215 298.792 302.58C298.746 302.217 298.724 301.855 298.724 301.492C298.724 301.129 298.724 300.767 298.724 300.404C298.633 299.361 298.089 298.772 297.092 298.636L295.46 298.432C294.417 298.296 293.896 297.82 293.896 297.004C293.896 296.279 294.349 295.735 295.256 295.372L304.096 292.176C304.322 292.085 304.526 292.017 304.708 291.972C304.889 291.927 305.07 291.904 305.252 291.904C305.478 291.904 305.66 291.972 305.796 292.108C306.113 292.38 306.272 292.924 306.272 293.74L306.068 301.492V319.104ZM302.396 285.512C300.945 285.512 299.744 285.081 298.792 284.22C297.885 283.359 297.432 282.225 297.432 280.82C297.432 279.415 297.885 278.281 298.792 277.42C299.744 276.559 300.945 276.128 302.396 276.128C303.801 276.128 304.957 276.559 305.864 277.42C306.816 278.281 307.292 279.415 307.292 280.82C307.292 282.225 306.816 283.359 305.864 284.22C304.957 285.081 303.801 285.512 302.396 285.512ZM330.003 291.768C332.361 291.768 334.514 292.221 336.463 293.128C338.413 293.989 340.067 295.191 341.427 296.732C342.833 298.228 343.898 299.996 344.623 302.036C345.394 304.031 345.779 306.184 345.779 308.496C345.779 310.853 345.394 313.052 344.623 315.092C343.898 317.087 342.855 318.832 341.495 320.328C340.135 321.779 338.481 322.935 336.531 323.796C334.582 324.612 332.406 325.02 330.003 325.02C327.601 325.02 325.425 324.612 323.475 323.796C321.526 322.935 319.871 321.779 318.511 320.328C317.151 318.832 316.086 317.087 315.315 315.092C314.59 313.052 314.227 310.853 314.227 308.496C314.227 306.184 314.59 304.008 315.315 301.968C316.086 299.928 317.151 298.16 318.511 296.664C319.917 295.168 321.571 293.989 323.475 293.128C325.425 292.221 327.601 291.768 330.003 291.768ZM330.003 294.828C324.79 294.828 322.183 299.361 322.183 308.428C322.183 317.404 324.79 321.892 330.003 321.892C335.217 321.892 337.823 317.404 337.823 308.428C337.823 299.361 335.217 294.828 330.003 294.828ZM382.508 319.104C382.554 320.056 383.075 320.645 384.072 320.872L385.228 321.076C386.226 321.303 386.724 321.847 386.724 322.708C386.724 323.569 386.158 324 385.024 324H372.512C371.379 324 370.812 323.569 370.812 322.708C370.812 321.847 371.311 321.325 372.308 321.144L373.668 320.872C374.666 320.645 375.187 320.056 375.232 319.104V304.28C375.232 301.56 374.892 299.633 374.212 298.5C373.578 297.321 372.399 296.732 370.676 296.732C369.271 296.732 367.911 297.072 366.596 297.752C365.327 298.432 363.967 299.452 362.516 300.812V319.104C362.562 320.056 363.083 320.645 364.08 320.872L365.304 321.144C366.302 321.325 366.8 321.847 366.8 322.708C366.8 323.569 366.234 324 365.1 324H352.452C351.319 324 350.752 323.569 350.752 322.708C350.752 321.892 351.274 321.371 352.316 321.144L353.744 320.872C354.742 320.645 355.263 320.056 355.308 319.104V306.796C355.308 305.889 355.308 305.073 355.308 304.348C355.308 303.623 355.286 302.988 355.24 302.444C355.195 302.081 355.172 301.741 355.172 301.424C355.172 301.107 355.172 300.767 355.172 300.404C355.082 299.361 354.538 298.772 353.54 298.636L351.908 298.432C350.866 298.296 350.344 297.82 350.344 297.004C350.344 296.233 350.798 295.667 351.704 295.304L359.592 292.244C360 292.063 360.408 291.972 360.816 291.972C361.088 291.972 361.27 292.017 361.36 292.108C361.723 292.335 361.927 292.856 361.972 293.672L362.312 297.684C364.035 295.689 365.78 294.216 367.548 293.264C369.316 292.267 371.311 291.768 373.532 291.768C376.524 291.768 378.768 292.697 380.264 294.556C381.76 296.369 382.508 299.361 382.508 303.532V319.104ZM404.394 304.552L406.57 305.3C408.247 305.935 409.63 306.615 410.718 307.34C411.851 308.02 412.78 308.745 413.506 309.516C414.14 310.332 414.594 311.216 414.866 312.168C415.138 313.075 415.274 314.049 415.274 315.092C415.274 316.905 414.866 318.447 414.05 319.716C413.279 320.94 412.259 321.96 410.99 322.776C409.72 323.547 408.292 324.113 406.706 324.476C405.164 324.839 403.623 325.02 402.082 325.02C400.178 325.02 398.5 324.816 397.05 324.408C395.599 324.045 394.148 323.501 392.698 322.776C391.882 322.413 391.474 321.756 391.474 320.804L391.406 316.52C391.406 315.387 391.95 314.82 393.038 314.82H394.126C395.123 314.82 395.735 315.341 395.962 316.384L396.506 319.24C396.642 320.147 397.118 320.736 397.934 321.008C399.294 321.552 400.699 321.824 402.15 321.824C404.462 321.824 406.139 321.416 407.182 320.6C408.224 319.784 408.746 318.651 408.746 317.2C408.746 315.885 408.292 314.865 407.386 314.14C406.479 313.369 404.87 312.531 402.558 311.624L399.566 310.536C397.027 309.493 395.078 308.247 393.718 306.796C392.358 305.345 391.678 303.487 391.678 301.22C391.678 299.497 392.04 298.047 392.766 296.868C393.491 295.689 394.443 294.715 395.622 293.944C396.8 293.173 398.115 292.629 399.566 292.312C401.016 291.949 402.49 291.768 403.986 291.768C405.572 291.768 407.023 291.949 408.338 292.312C409.652 292.629 410.967 293.105 412.282 293.74C413.143 294.148 413.551 294.828 413.506 295.78L413.302 299.588C413.256 300.676 412.69 301.22 411.602 301.22H410.582C409.539 301.22 408.927 300.721 408.746 299.724L408.27 297.208C408.088 296.256 407.59 295.667 406.774 295.44C405.822 295.077 404.824 294.896 403.782 294.896C401.968 294.896 400.563 295.281 399.566 296.052C398.614 296.823 398.138 297.933 398.138 299.384C398.138 300.472 398.568 301.401 399.43 302.172C399.883 302.535 400.518 302.92 401.334 303.328C402.195 303.736 403.215 304.144 404.394 304.552Z" fill="black"/>
</g>
<g filter="url(#filter3_d_28522_2)">
<path d="M256 184.262C242.854 170.739 226.334 160.805 207.061 156.081L208.141 148.631C221.745 151.843 233.865 157.539 244.609 164.854L247.929 167.121L246.849 163.234C242.476 147.389 246.066 129.25 255.946 116.509C265.826 129.25 269.416 147.362 265.043 163.234L263.963 167.121L267.283 164.854C278.027 157.539 290.147 151.762 303.751 148.523L304.831 155.973C285.558 160.697 269.038 170.739 255.892 184.262" fill="black"/>
<path d="M212.19 263.083L220.531 184.64L222.528 185.855C234.621 193.143 244.447 203.616 250.925 216.168L251.222 216.708L251.033 217.302C247.011 229.557 245.419 246.239 246.498 260.626C249.873 260.545 253.22 260.492 256.621 260.492C259.617 260.492 262.586 260.545 265.556 260.599C266.635 246.185 265.043 229.53 261.021 217.275L260.832 216.681L261.129 216.141C267.607 203.589 277.433 193.116 289.526 185.828L291.523 184.613L299.837 262.921C306.963 263.731 314.009 264.729 321 265.917L307.098 168.984C286.529 174.464 268.876 187.286 257.296 205.182L256.054 207.126L254.812 205.182C243.205 187.259 225.578 174.464 205.01 168.984L191 266.133C197.991 264.918 205.064 263.893 212.19 263.083Z" fill="black"/>
</g>
<defs>
<filter id="filter0_d_28522_2" x="40" y="44" width="432" height="432" filterUnits="userSpaceOnUse" color-interpolation-filters="sRGB">
<feFlood flood-opacity="0" result="BackgroundImageFix"/>
<feColorMatrix in="SourceAlpha" type="matrix" values="0 0 0 0 0 0 0 0 0 0 0 0 0 0 0 0 0 0 127 0" result="hardAlpha"/>
<feOffset dy="4"/>
<feGaussianBlur stdDeviation="5"/>
<feComposite in2="hardAlpha" operator="out"/>
<feColorMatrix type="matrix" values="0 0 0 0 0 0 0 0 0 0 0 0 0 0 0 0 0 0 0.25 0"/>
<feBlend mode="normal" in2="BackgroundImageFix" result="effect1_dropShadow_28522_2"/>
<feBlend mode="normal" in="SourceGraphic" in2="effect1_dropShadow_28522_2" result="shape"/>
</filter>
<filter id="filter1_i_28522_2" x="70" y="65" width="372" height="372" filterUnits="userSpaceOnUse" color-interpolation-filters="sRGB">
<feFlood flood-opacity="0" result="BackgroundImageFix"/>
<feBlend mode="normal" in="SourceGraphic" in2="BackgroundImageFix" result="shape"/>
<feColorMatrix in="SourceAlpha" type="matrix" values="0 0 0 0 0 0 0 0 0 0 0 0 0 0 0 0 0 0 127 0" result="hardAlpha"/>
<feOffset/>
<feGaussianBlur stdDeviation="4"/>
<feComposite in2="hardAlpha" operator="arithmetic" k2="-1" k3="1"/>
<feColorMatrix type="matrix" values="0 0 0 0 0 0 0 0 0 0 0 0 0 0 0 0 0 0 0.5 0"/>
<feBlend mode="normal" in2="shape" result="effect1_innerShadow_28522_2"/>
</filter>
<filter id="filter2_d_28522_2" x="92.9547" y="273.128" width="327.319" height="56.892" filterUnits="userSpaceOnUse" color-interpolation-filters="sRGB">
<feFlood flood-opacity="0" result="BackgroundImageFix"/>
<feColorMatrix in="SourceAlpha" type="matrix" values="0 0 0 0 0 0 0 0 0 0 0 0 0 0 0 0 0 0 127 0" result="hardAlpha"/>
<feOffset dx="1" dy="1"/>
<feGaussianBlur stdDeviation="2"/>
<feComposite in2="hardAlpha" operator="out"/>
<feColorMatrix type="matrix" values="0 0 0 0 1 0 0 0 0 1 0 0 0 0 1 0 0 0 1 0"/>
<feBlend mode="normal" in2="BackgroundImageFix" result="effect1_dropShadow_28522_2"/>
<feBlend mode="normal" in="SourceGraphic" in2="effect1_dropShadow_28522_2" result="shape"/>
</filter>
<filter id="filter3_d_28522_2" x="190" y="112.509" width="134" height="153.624" filterUnits="userSpaceOnUse" color-interpolation-filters="sRGB">
<feFlood flood-opacity="0" result="BackgroundImageFix"/>
<feColorMatrix in="SourceAlpha" type="matrix" values="0 0 0 0 0 0 0 0 0 0 0 0 0 0 0 0 0 0 127 0" result="hardAlpha"/>
<feOffset dx="1" dy="-2"/>
<feGaussianBlur stdDeviation="1"/>
<feComposite in2="hardAlpha" operator="out"/>
<feColorMatrix type="matrix" values="0 0 0 0 1 0 0 0 0 1 0 0 0 0 1 0 0 0 1 0"/>
<feBlend mode="normal" in2="BackgroundImageFix" result="effect1_dropShadow_28522_2"/>
<feBlend mode="normal" in="SourceGraphic" in2="effect1_dropShadow_28522_2" result="shape"/>
</filter>
<linearGradient id="paint0_linear_28522_2" x1="256" y1="65" x2="256" y2="437" gradientUnits="userSpaceOnUse">
<stop stop-color="#FFE4BB"/>
<stop offset="1" stop-color="#F6BC66"/>
</linearGradient>
</defs>
</svg>
