<svg width="512" height="512" viewBox="0 0 512 512" fill="none" xmlns="http://www.w3.org/2000/svg">
<g filter="url(#filter0_d_1_55)">
<rect x="50" y="50" width="412" height="412" rx="92" fill="white"/>
<rect x="50.5" y="50.5" width="411" height="411" rx="91.5" stroke="#E4E4E4"/>
</g>
<circle cx="256" cy="256" r="186" fill="url(#paint0_linear_1_55)"/>
<path d="M127.994 208.38C129.827 208.38 131.44 208.343 132.834 208.27C134.227 208.123 135.51 208.013 136.684 207.94C137.124 209.333 137.93 211.497 139.104 214.43C140.35 217.363 141.78 220.847 143.394 224.88C145.08 228.84 146.877 233.057 148.784 237.53C150.69 242.003 152.56 246.477 154.394 250.95C156.227 255.35 157.914 259.457 159.454 263.27C159.527 263.417 159.674 263.49 159.894 263.49C160.114 263.49 160.26 263.343 160.334 263.05C162.46 257.623 164.367 252.747 166.054 248.42C167.74 244.02 169.427 239.657 171.114 235.33C172.874 230.93 174.78 226.09 176.834 220.81C177.494 219.123 178.19 217.29 178.924 215.31C179.657 213.33 180.28 211.607 180.794 210.14C181.307 208.673 181.564 207.94 181.564 207.94C185.01 208.16 187.834 208.27 190.034 208.27C191.94 208.27 194.067 208.233 196.414 208.16C198.834 208.087 200.704 208.013 202.024 207.94C202.097 208.087 202.17 208.637 202.244 209.59C202.317 210.543 202.354 211.02 202.354 211.02C201.84 211.02 200.997 211.093 199.824 211.24C198.724 211.387 197.66 211.607 196.634 211.9C195.607 212.193 194.984 212.523 194.764 212.89C194.544 213.403 194.397 214.063 194.324 214.87C194.25 215.677 194.214 216.41 194.214 217.07C194.287 218.903 194.36 221.69 194.434 225.43C194.507 229.17 194.58 233.387 194.654 238.08C194.8 242.7 194.91 247.283 194.984 251.83C195.13 256.377 195.24 260.41 195.314 263.93C195.387 265.983 195.497 267.927 195.644 269.76C195.79 271.593 196.12 273.133 196.634 274.38C196.854 274.893 197.514 275.297 198.614 275.59C199.714 275.81 200.814 275.993 201.914 276.14C203.087 276.213 203.82 276.25 204.114 276.25C204.407 276.763 204.517 277.387 204.444 278.12C204.444 278.78 204.407 279.183 204.334 279.33C202.207 279.183 200.117 279.073 198.064 279C196.084 278.853 193.92 278.78 191.574 278.78C189.08 278.78 186.917 278.853 185.084 279C183.25 279.073 181.087 279.183 178.594 279.33C178.52 279.183 178.447 278.743 178.374 278.01C178.3 277.277 178.374 276.69 178.594 276.25C179.034 276.25 179.73 276.213 180.684 276.14C181.637 275.993 182.59 275.847 183.544 275.7C184.497 275.48 185.194 275.26 185.634 275.04C186 274.82 186.257 274.197 186.404 273.17C186.55 272.143 186.624 271.263 186.624 270.53C186.624 269.723 186.587 268.697 186.514 267.45C186.44 266.13 186.404 265.067 186.404 264.26C186.257 259.053 186.11 254.067 185.964 249.3C185.817 244.46 185.67 239.547 185.524 234.56C185.377 229.5 185.194 224.073 184.974 218.28C184.974 218.06 184.9 217.657 184.754 217.07C184.607 216.483 184.35 216.19 183.984 216.19C183.837 216.19 183.654 216.447 183.434 216.96C181.234 222.46 179.18 227.557 177.274 232.25C175.44 236.943 173.644 241.49 171.884 245.89C170.124 250.217 168.327 254.653 166.494 259.2C164.734 263.673 162.827 268.513 160.774 273.72C160.627 274.013 160.297 274.6 159.784 275.48C159.27 276.36 158.72 277.203 158.134 278.01C157.62 278.743 157.144 279.147 156.704 279.22C156.557 279.293 156.3 279.257 155.934 279.11C155.86 279.037 155.787 279 155.714 279L129.534 216.3C129.46 220.993 129.35 225.833 129.204 230.82C129.057 235.807 128.91 240.647 128.764 245.34C128.69 250.033 128.58 254.287 128.434 258.1C128.36 261.84 128.287 264.883 128.214 267.23C128.14 269.503 128.104 270.75 128.104 270.97C128.104 271.483 128.14 272.07 128.214 272.73C128.287 273.317 128.397 273.83 128.544 274.27C128.764 274.783 129.497 275.187 130.744 275.48C132.064 275.773 133.384 275.993 134.704 276.14C136.024 276.213 136.83 276.25 137.124 276.25C137.417 276.543 137.527 277.093 137.454 277.9C137.38 278.707 137.307 279.183 137.234 279.33C135.107 279.183 133.274 279.073 131.734 279C130.194 278.853 128.25 278.78 125.904 278.78C123.41 278.78 121.32 278.853 119.634 279C117.947 279.073 115.857 279.183 113.364 279.33C113.29 279.183 113.217 278.743 113.144 278.01C113.07 277.277 113.144 276.69 113.364 276.25C113.804 276.25 114.647 276.177 115.894 276.03C117.214 275.883 118.497 275.663 119.744 275.37C120.99 275.077 121.76 274.71 122.054 274.27C122.567 273.537 122.897 272.767 123.044 271.96C123.19 271.08 123.3 270.053 123.374 268.88C123.594 262.427 123.777 256.23 123.924 250.29C124.144 244.35 124.29 239.033 124.364 234.34C124.51 229.573 124.62 225.723 124.694 222.79C124.767 219.783 124.804 218.023 124.804 217.51C124.804 216.703 124.767 215.933 124.694 215.2C124.694 214.467 124.584 213.807 124.364 213.22C124.217 212.78 123.594 212.413 122.494 212.12C121.467 211.753 120.367 211.497 119.194 211.35C118.094 211.13 117.324 211.02 116.884 211.02C116.81 211.02 116.774 210.543 116.774 209.59C116.774 208.563 116.81 208.013 116.884 207.94C118.57 208.013 119.927 208.087 120.954 208.16C121.98 208.233 123.007 208.307 124.034 208.38C125.06 208.38 126.38 208.38 127.994 208.38ZM229.828 208.38C231.954 208.38 234.008 208.343 235.988 208.27C238.041 208.123 240.168 208.013 242.368 207.94C242.661 208.233 242.771 208.747 242.698 209.48C242.698 210.213 242.588 210.727 242.368 211.02C241.928 211.02 241.121 211.093 239.948 211.24C238.774 211.313 237.674 211.46 236.648 211.68C235.621 211.9 235.034 212.23 234.888 212.67C234.668 213.403 234.521 214.357 234.448 215.53C234.448 216.703 234.448 217.987 234.448 219.38C234.448 219.6 234.448 219.82 234.448 220.04C234.448 220.26 234.448 220.48 234.448 220.7V266.57C234.448 266.79 234.448 267.01 234.448 267.23C234.448 267.45 234.448 267.67 234.448 267.89C234.448 269.283 234.448 270.567 234.448 271.74C234.521 272.84 234.668 273.757 234.888 274.49C235.034 274.857 235.621 275.187 236.648 275.48C237.674 275.773 238.774 275.993 239.948 276.14C241.121 276.213 241.928 276.25 242.368 276.25C242.588 276.543 242.698 277.057 242.698 277.79C242.771 278.523 242.661 279.037 242.368 279.33C240.168 279.183 238.041 279.073 235.988 279C234.008 278.853 231.954 278.78 229.828 278.78C227.774 278.78 225.684 278.853 223.558 279C221.431 279.073 219.268 279.183 217.068 279.33C216.774 279.037 216.628 278.523 216.628 277.79C216.701 277.057 216.848 276.543 217.068 276.25C217.508 276.25 218.314 276.213 219.488 276.14C220.661 275.993 221.761 275.773 222.788 275.48C223.888 275.187 224.474 274.857 224.548 274.49C224.841 273.61 224.988 272.473 224.988 271.08C225.061 269.687 225.098 268.183 225.098 266.57V220.7C225.098 219.087 225.061 217.583 224.988 216.19C224.988 214.723 224.841 213.55 224.548 212.67C224.474 212.23 223.888 211.9 222.788 211.68C221.761 211.46 220.661 211.313 219.488 211.24C218.314 211.093 217.508 211.02 217.068 211.02C216.848 210.727 216.701 210.213 216.628 209.48C216.628 208.747 216.774 208.233 217.068 207.94C219.268 208.013 221.431 208.123 223.558 208.27C225.684 208.343 227.774 208.38 229.828 208.38ZM267.272 208.38C269.399 208.38 271.452 208.343 273.432 208.27C275.486 208.123 277.612 208.013 279.812 207.94C280.106 208.233 280.216 208.747 280.142 209.48C280.142 210.213 280.032 210.727 279.812 211.02C279.372 211.02 278.566 211.093 277.392 211.24C276.292 211.313 275.229 211.46 274.202 211.68C273.176 211.9 272.589 212.23 272.442 212.67C272.149 213.55 271.966 214.723 271.892 216.19C271.892 217.583 271.892 219.087 271.892 220.7V247.21C271.892 251.683 272.332 255.57 273.212 258.87C274.166 262.17 275.486 264.883 277.172 267.01C280.546 271.117 285.459 273.17 291.912 273.17C295.652 273.17 299.062 272.473 302.142 271.08C305.222 269.687 307.716 267.303 309.622 263.93C311.602 260.483 312.629 255.68 312.702 249.52V220.48C312.702 218.573 312.666 217.07 312.592 215.97C312.519 214.87 312.189 213.88 311.602 213C311.382 212.633 310.759 212.303 309.732 212.01C308.706 211.643 307.606 211.387 306.432 211.24C305.332 211.02 304.489 210.91 303.902 210.91C303.609 210.543 303.462 210.03 303.462 209.37C303.536 208.637 303.609 208.123 303.682 207.83C305.809 207.903 307.716 208.013 309.402 208.16C311.162 208.233 313.216 208.27 315.562 208.27C317.249 208.27 318.606 208.27 319.632 208.27C320.732 208.197 321.832 208.123 322.932 208.05C324.106 207.977 325.499 207.903 327.112 207.83C327.259 208.123 327.369 208.563 327.442 209.15C327.516 209.737 327.406 210.323 327.112 210.91C326.672 210.91 325.829 210.983 324.582 211.13C323.336 211.277 322.126 211.533 320.952 211.9C319.779 212.193 319.046 212.56 318.752 213C318.239 213.807 317.909 214.723 317.762 215.75C317.689 216.777 317.652 218.317 317.652 220.37V249.3C317.652 256.413 316.479 262.207 314.132 266.68C311.786 271.08 308.486 274.307 304.232 276.36C300.052 278.413 295.176 279.44 289.602 279.44C285.789 279.44 282.232 278.817 278.932 277.57C275.632 276.323 272.809 274.563 270.462 272.29C267.969 269.943 266.026 267.047 264.632 263.6C263.239 260.153 262.542 256.303 262.542 252.05V220.7C262.542 219.087 262.506 217.583 262.432 216.19C262.432 214.723 262.286 213.55 261.992 212.67C261.919 212.23 261.332 211.9 260.232 211.68C259.206 211.46 258.106 211.313 256.932 211.24C255.832 211.093 255.062 211.02 254.622 211.02C254.402 210.727 254.256 210.213 254.182 209.48C254.182 208.747 254.329 208.233 254.622 207.94C256.822 208.013 258.949 208.123 261.002 208.27C263.129 208.343 265.219 208.38 267.272 208.38ZM356.708 211.79C353.115 211.79 350.072 213.037 347.578 215.53C345.085 218.023 343.252 221.47 342.078 225.87C341.858 226.163 341.455 226.31 340.868 226.31C340.355 226.31 339.805 226.2 339.218 225.98C338.632 225.76 338.265 225.577 338.118 225.43C339.072 222.937 339.805 220.187 340.318 217.18C340.905 214.1 341.345 210.763 341.638 207.17C342.812 207.317 344.205 207.5 345.818 207.72C347.505 207.867 349.045 207.94 350.438 207.94H371.338C374.345 207.94 376.985 207.903 379.258 207.83C381.532 207.757 383.768 207.647 385.968 207.5C388.242 207.353 390.882 207.17 393.888 206.95C394.108 207.023 394.475 207.317 394.988 207.83C395.502 208.343 395.758 208.82 395.758 209.26C395.758 209.333 395.098 210.36 393.778 212.34C392.458 214.247 390.698 216.777 388.498 219.93C386.372 223.083 383.952 226.603 381.238 230.49C378.598 234.377 375.848 238.41 372.988 242.59C370.128 246.77 367.342 250.803 364.628 254.69C361.915 258.503 359.495 261.987 357.368 265.14C355.242 268.22 353.518 270.677 352.198 272.51C350.952 274.343 350.328 275.26 350.328 275.26H378.378C380.725 275.26 382.668 274.93 384.208 274.27C385.822 273.537 387.215 272.583 388.388 271.41C389.928 269.87 391.102 268.11 391.908 266.13C392.788 264.15 393.522 262.39 394.108 260.85C394.182 260.703 394.365 260.63 394.658 260.63C394.952 260.557 395.245 260.52 395.538 260.52C396.125 260.52 396.638 260.63 397.078 260.85C397.592 261.07 397.958 261.29 398.178 261.51C397.372 264.297 396.638 266.68 395.978 268.66C395.392 270.567 394.842 272.327 394.328 273.94C393.888 275.48 393.448 277.167 393.008 279H339.218C338.632 279 338.082 278.817 337.568 278.45C337.128 278.083 337.018 277.753 337.238 277.46L382.888 211.79H356.708Z" fill="black"/>
<path d="M153.545 309.265C153.545 310.218 153.325 310.897 152.885 311.3C152.445 311.667 151.987 311.85 151.51 311.85C150.923 311.85 150.373 311.593 149.86 311.08C149.347 310.567 148.852 310.163 148.375 309.87C147.788 309.467 147.312 309.192 146.945 309.045C146.578 308.898 146.047 308.825 145.35 308.825C144.397 308.825 143.443 309.192 142.49 309.925C141.573 310.622 140.803 311.63 140.18 312.95C139.593 314.27 139.3 315.883 139.3 317.79C139.3 320.907 140.143 323.198 141.83 324.665C143.517 326.132 145.57 326.865 147.99 326.865C149.493 326.865 150.722 326.517 151.675 325.82C152.665 325.123 153.343 324.573 153.71 324.17C153.747 324.17 153.82 324.243 153.93 324.39C154.077 324.5 154.15 324.665 154.15 324.885C154.15 325.178 154.04 325.508 153.82 325.875C153.49 326.388 152.977 327.012 152.28 327.745C151.583 328.442 150.703 329.065 149.64 329.615C148.577 330.165 147.348 330.44 145.955 330.44C143.792 330.44 141.885 329.927 140.235 328.9C138.622 327.873 137.357 326.535 136.44 324.885C135.56 323.235 135.12 321.475 135.12 319.605C135.12 317.625 135.523 315.847 136.33 314.27C137.173 312.657 138.237 311.263 139.52 310.09C140.84 308.917 142.252 308.018 143.755 307.395C145.295 306.772 146.762 306.46 148.155 306.46C150.135 306.46 151.748 306.9 152.995 307.78C153.105 307.89 153.215 308.092 153.325 308.385C153.472 308.678 153.545 308.972 153.545 309.265ZM170.985 306.405C173.368 306.405 175.403 306.918 177.09 307.945C178.813 308.972 180.133 310.365 181.05 312.125C182.003 313.885 182.48 315.883 182.48 318.12C182.48 320.43 181.985 322.52 180.995 324.39C180.005 326.223 178.648 327.69 176.925 328.79C175.201 329.853 173.258 330.385 171.095 330.385C168.748 330.385 166.695 329.872 164.935 328.845C163.211 327.782 161.873 326.37 160.92 324.61C160.003 322.813 159.545 320.797 159.545 318.56C159.545 316.25 160.04 314.178 161.03 312.345C162.056 310.512 163.431 309.063 165.155 308C166.878 306.937 168.821 306.405 170.985 306.405ZM170.38 308.22C168.876 308.22 167.666 308.678 166.75 309.595C165.833 310.475 165.173 311.63 164.77 313.06C164.366 314.453 164.165 315.92 164.165 317.46C164.165 319.183 164.44 320.907 164.99 322.63C165.576 324.353 166.42 325.783 167.52 326.92C168.656 328.057 170.031 328.625 171.645 328.625C173.185 328.625 174.395 328.185 175.275 327.305C176.191 326.388 176.851 325.215 177.255 323.785C177.658 322.355 177.86 320.888 177.86 319.385C177.86 317.625 177.566 315.902 176.98 314.215C176.393 312.492 175.55 311.062 174.45 309.925C173.35 308.788 171.993 308.22 170.38 308.22ZM191.063 300.025C191.063 299.622 191.045 299.145 191.008 298.595C191.008 298.008 190.935 297.55 190.788 297.22C190.642 296.817 190.238 296.56 189.578 296.45C188.955 296.34 188.277 296.285 187.543 296.285C187.507 296.285 187.47 296.065 187.433 295.625C187.433 295.148 187.488 294.892 187.598 294.855C188.955 294.708 190.275 294.452 191.558 294.085C192.842 293.682 194.052 293.223 195.188 292.71C195.335 292.71 195.463 292.82 195.573 293.04C195.72 293.223 195.793 293.407 195.793 293.59C195.793 293.59 195.683 293.993 195.463 294.8C195.28 295.607 195.188 296.762 195.188 298.265V323.785C195.188 324.592 195.188 325.343 195.188 326.04C195.225 326.737 195.317 327.305 195.463 327.745C195.537 327.928 195.793 328.093 196.233 328.24C196.71 328.387 197.205 328.497 197.718 328.57C198.268 328.607 198.653 328.625 198.873 328.625C198.983 328.772 199.038 329.028 199.038 329.395C199.075 329.762 199.02 330.018 198.873 330.165C197.773 330.092 196.802 330.037 195.958 330C195.115 329.927 194.162 329.89 193.098 329.89C192.072 329.89 191.137 329.927 190.293 330C189.487 330.037 188.533 330.092 187.433 330.165C187.287 330.018 187.213 329.762 187.213 329.395C187.25 329.028 187.323 328.772 187.433 328.625C187.653 328.625 188.02 328.607 188.533 328.57C189.047 328.497 189.542 328.387 190.018 328.24C190.495 328.093 190.752 327.928 190.788 327.745C190.935 327.305 191.008 326.737 191.008 326.04C191.045 325.343 191.063 324.592 191.063 323.785V300.025ZM206.355 300.025C206.355 299.622 206.336 299.145 206.3 298.595C206.3 298.008 206.226 297.55 206.08 297.22C205.933 296.817 205.53 296.56 204.87 296.45C204.246 296.34 203.568 296.285 202.835 296.285C202.798 296.285 202.761 296.065 202.725 295.625C202.725 295.148 202.78 294.892 202.89 294.855C204.246 294.708 205.566 294.452 206.85 294.085C208.133 293.682 209.343 293.223 210.48 292.71C210.626 292.71 210.755 292.82 210.865 293.04C211.011 293.223 211.085 293.407 211.085 293.59C211.085 293.59 210.975 293.993 210.755 294.8C210.571 295.607 210.48 296.762 210.48 298.265V323.785C210.48 324.592 210.48 325.343 210.48 326.04C210.516 326.737 210.608 327.305 210.755 327.745C210.828 327.928 211.085 328.093 211.525 328.24C212.001 328.387 212.496 328.497 213.01 328.57C213.56 328.607 213.945 328.625 214.165 328.625C214.275 328.772 214.33 329.028 214.33 329.395C214.366 329.762 214.311 330.018 214.165 330.165C213.065 330.092 212.093 330.037 211.25 330C210.406 329.927 209.453 329.89 208.39 329.89C207.363 329.89 206.428 329.927 205.585 330C204.778 330.037 203.825 330.092 202.725 330.165C202.578 330.018 202.505 329.762 202.505 329.395C202.541 329.028 202.615 328.772 202.725 328.625C202.945 328.625 203.311 328.607 203.825 328.57C204.338 328.497 204.833 328.387 205.31 328.24C205.786 328.093 206.043 327.928 206.08 327.745C206.226 327.305 206.3 326.737 206.3 326.04C206.336 325.343 206.355 324.592 206.355 323.785V300.025ZM222.801 316.69C222.764 318.963 223.149 320.87 223.956 322.41C224.763 323.95 225.844 325.105 227.201 325.875C228.558 326.608 230.024 326.975 231.601 326.975C232.591 326.975 233.489 326.81 234.296 326.48C235.103 326.113 235.781 325.71 236.331 325.27C236.881 324.793 237.266 324.427 237.486 324.17C237.523 324.17 237.596 324.243 237.706 324.39C237.853 324.5 237.926 324.665 237.926 324.885C237.926 325.178 237.816 325.508 237.596 325.875C237.266 326.388 236.753 327.012 236.056 327.745C235.359 328.442 234.479 329.065 233.416 329.615C232.353 330.165 231.124 330.44 229.731 330.44C227.641 330.44 225.789 329.945 224.176 328.955C222.563 327.965 221.298 326.627 220.381 324.94C219.464 323.253 219.006 321.365 219.006 319.275C219.006 317.478 219.318 315.81 219.941 314.27C220.601 312.693 221.444 311.337 222.471 310.2C223.534 309.027 224.689 308.11 225.936 307.45C227.183 306.79 228.393 306.46 229.566 306.46C231.179 306.46 232.499 306.735 233.526 307.285C234.589 307.835 235.414 308.513 236.001 309.32C236.624 310.127 237.046 310.933 237.266 311.74C237.523 312.547 237.651 313.225 237.651 313.775C237.651 314.545 237.559 315.15 237.376 315.59C237.193 316.03 236.844 316.268 236.331 316.305C236.001 316.342 235.341 316.378 234.351 316.415C233.398 316.415 232.298 316.433 231.051 316.47C229.804 316.507 228.576 316.543 227.366 316.58C226.156 316.617 225.129 316.653 224.286 316.69C223.443 316.69 222.948 316.69 222.801 316.69ZM223.076 314.71H231.821C232.151 314.71 232.426 314.618 232.646 314.435C232.903 314.252 233.049 313.922 233.086 313.445C233.123 313.005 232.994 312.382 232.701 311.575C232.408 310.768 231.931 310.035 231.271 309.375C230.648 308.715 229.786 308.385 228.686 308.385C227.549 308.385 226.614 308.715 225.881 309.375C225.148 309.998 224.561 310.732 224.121 311.575C223.718 312.382 223.424 313.115 223.241 313.775C223.094 314.398 223.039 314.71 223.076 314.71ZM262.013 309.265C262.013 310.218 261.793 310.897 261.353 311.3C260.913 311.667 260.455 311.85 259.978 311.85C259.391 311.85 258.841 311.593 258.328 311.08C257.815 310.567 257.32 310.163 256.843 309.87C256.256 309.467 255.78 309.192 255.413 309.045C255.046 308.898 254.515 308.825 253.818 308.825C252.865 308.825 251.911 309.192 250.958 309.925C250.041 310.622 249.271 311.63 248.648 312.95C248.061 314.27 247.768 315.883 247.768 317.79C247.768 320.907 248.611 323.198 250.298 324.665C251.985 326.132 254.038 326.865 256.458 326.865C257.961 326.865 259.19 326.517 260.143 325.82C261.133 325.123 261.811 324.573 262.178 324.17C262.215 324.17 262.288 324.243 262.398 324.39C262.545 324.5 262.618 324.665 262.618 324.885C262.618 325.178 262.508 325.508 262.288 325.875C261.958 326.388 261.445 327.012 260.748 327.745C260.051 328.442 259.171 329.065 258.108 329.615C257.045 330.165 255.816 330.44 254.423 330.44C252.26 330.44 250.353 329.927 248.703 328.9C247.09 327.873 245.825 326.535 244.908 324.885C244.028 323.235 243.588 321.475 243.588 319.605C243.588 317.625 243.991 315.847 244.798 314.27C245.641 312.657 246.705 311.263 247.988 310.09C249.308 308.917 250.72 308.018 252.223 307.395C253.763 306.772 255.23 306.46 256.623 306.46C258.603 306.46 260.216 306.9 261.463 307.78C261.573 307.89 261.683 308.092 261.793 308.385C261.94 308.678 262.013 308.972 262.013 309.265ZM274.393 306.79H281.323C281.506 306.79 281.598 306.992 281.598 307.395C281.598 307.945 281.341 308.477 280.828 308.99H274.393V323.07C274.393 326.003 275.584 327.47 277.968 327.47C278.774 327.47 279.508 327.305 280.168 326.975C280.828 326.645 281.249 326.407 281.433 326.26C281.543 326.297 281.598 326.407 281.598 326.59C281.598 326.993 281.524 327.268 281.378 327.415C281.121 327.708 280.718 328.093 280.168 328.57C279.654 329.047 279.031 329.468 278.298 329.835C277.564 330.202 276.758 330.385 275.878 330.385C274.961 330.385 274.063 330.22 273.183 329.89C272.339 329.56 271.643 328.973 271.093 328.13C270.543 327.287 270.268 326.095 270.268 324.555V308.99H267.133C267.059 308.99 267.004 308.935 266.968 308.825C266.931 308.678 266.913 308.568 266.913 308.495C266.913 308.422 267.023 308.257 267.243 308C267.463 307.707 267.683 307.432 267.903 307.175C268.159 306.918 268.288 306.79 268.288 306.79H270.268V303.435C270.634 303.032 271.056 302.573 271.533 302.06C272.046 301.51 272.504 301.015 272.908 300.575C273.311 300.098 273.531 299.842 273.568 299.805C273.714 299.658 273.879 299.585 274.063 299.585C274.283 299.585 274.393 299.64 274.393 299.75V306.79ZM288.623 298.155C288.623 297.422 288.88 296.798 289.393 296.285C289.943 295.735 290.585 295.46 291.318 295.46C292.052 295.46 292.675 295.735 293.188 296.285C293.738 296.798 294.013 297.422 294.013 298.155C294.013 298.888 293.738 299.53 293.188 300.08C292.675 300.593 292.052 300.85 291.318 300.85C290.585 300.85 289.943 300.593 289.393 300.08C288.88 299.53 288.623 298.888 288.623 298.155ZM293.793 323.785C293.793 324.592 293.793 325.343 293.793 326.04C293.83 326.737 293.922 327.305 294.068 327.745C294.142 327.928 294.398 328.093 294.838 328.24C295.315 328.387 295.81 328.497 296.323 328.57C296.837 328.607 297.203 328.625 297.423 328.625C297.533 328.772 297.588 329.028 297.588 329.395C297.625 329.762 297.57 330.018 297.423 330.165C296.323 330.092 295.352 330.037 294.508 330C293.702 329.927 292.767 329.89 291.703 329.89C290.677 329.89 289.742 329.927 288.898 330C288.055 330.037 287.083 330.092 285.983 330.165C285.836 330.018 285.763 329.762 285.763 329.395C285.8 329.028 285.873 328.772 285.983 328.625C286.203 328.625 286.57 328.607 287.083 328.57C287.633 328.497 288.146 328.387 288.623 328.24C289.1 328.093 289.356 327.928 289.393 327.745C289.54 327.305 289.613 326.737 289.613 326.04C289.65 325.343 289.668 324.592 289.668 323.785V313.775C289.668 313.408 289.65 312.932 289.613 312.345C289.613 311.758 289.54 311.3 289.393 310.97C289.283 310.64 288.972 310.42 288.458 310.31C287.945 310.163 287.431 310.09 286.918 310.09C286.405 310.053 286.075 310.035 285.928 310.035C285.891 309.962 285.855 309.742 285.818 309.375C285.781 309.008 285.818 308.752 285.928 308.605C287.322 308.422 288.678 308.147 289.998 307.78C291.318 307.413 292.51 306.937 293.573 306.35C293.72 306.35 293.848 306.46 293.958 306.68C294.105 306.9 294.178 307.083 294.178 307.23C294.178 307.34 294.142 307.652 294.068 308.165C293.995 308.678 293.922 309.192 293.848 309.705C293.811 310.218 293.793 310.567 293.793 310.75V323.785ZM313.741 306.405C316.125 306.405 318.16 306.918 319.846 307.945C321.57 308.972 322.89 310.365 323.806 312.125C324.76 313.885 325.236 315.883 325.236 318.12C325.236 320.43 324.741 322.52 323.751 324.39C322.761 326.223 321.405 327.69 319.681 328.79C317.958 329.853 316.015 330.385 313.851 330.385C311.505 330.385 309.451 329.872 307.691 328.845C305.968 327.782 304.63 326.37 303.676 324.61C302.76 322.813 302.301 320.797 302.301 318.56C302.301 316.25 302.796 314.178 303.786 312.345C304.813 310.512 306.188 309.063 307.911 308C309.635 306.937 311.578 306.405 313.741 306.405ZM313.136 308.22C311.633 308.22 310.423 308.678 309.506 309.595C308.59 310.475 307.93 311.63 307.526 313.06C307.123 314.453 306.921 315.92 306.921 317.46C306.921 319.183 307.196 320.907 307.746 322.63C308.333 324.353 309.176 325.783 310.276 326.92C311.413 328.057 312.788 328.625 314.401 328.625C315.941 328.625 317.151 328.185 318.031 327.305C318.948 326.388 319.608 325.215 320.011 323.785C320.415 322.355 320.616 320.888 320.616 319.385C320.616 317.625 320.323 315.902 319.736 314.215C319.15 312.492 318.306 311.062 317.206 309.925C316.106 308.788 314.75 308.22 313.136 308.22ZM346.36 306.46C348.304 306.46 349.77 306.863 350.76 307.67C351.75 308.477 352.41 309.723 352.74 311.41C353.107 313.097 353.29 315.242 353.29 317.845V323.785C353.29 324.592 353.29 325.343 353.29 326.04C353.327 326.737 353.419 327.305 353.565 327.745C353.639 327.928 353.895 328.093 354.335 328.24C354.812 328.387 355.307 328.497 355.82 328.57C356.334 328.607 356.7 328.625 356.92 328.625C357.03 328.772 357.085 329.028 357.085 329.395C357.122 329.762 357.067 330.018 356.92 330.165C355.82 330.092 354.849 330.037 354.005 330C353.199 329.927 352.264 329.89 351.2 329.89C350.174 329.89 349.239 329.927 348.395 330C347.552 330.037 346.58 330.092 345.48 330.165C345.334 330.018 345.26 329.762 345.26 329.395C345.297 329.028 345.37 328.772 345.48 328.625C345.7 328.625 346.067 328.607 346.58 328.57C347.13 328.497 347.644 328.387 348.12 328.24C348.597 328.093 348.854 327.928 348.89 327.745C349.037 327.305 349.11 326.737 349.11 326.04C349.147 325.343 349.165 324.592 349.165 323.785V318.395C349.165 316.158 349.019 314.417 348.725 313.17C348.432 311.887 347.9 310.97 347.13 310.42C346.36 309.87 345.279 309.595 343.885 309.595C343.225 309.595 342.492 309.815 341.685 310.255C340.915 310.658 340.237 311.098 339.65 311.575C339.064 312.052 338.77 312.382 338.77 312.565V323.785C338.77 324.592 338.77 325.343 338.77 326.04C338.807 326.737 338.899 327.305 339.045 327.745C339.119 327.928 339.375 328.093 339.815 328.24C340.292 328.387 340.787 328.497 341.3 328.57C341.814 328.607 342.18 328.625 342.4 328.625C342.51 328.772 342.565 329.028 342.565 329.395C342.602 329.762 342.547 330.018 342.4 330.165C341.3 330.092 340.329 330.037 339.485 330C338.679 329.927 337.744 329.89 336.68 329.89C335.654 329.89 334.719 329.927 333.875 330C333.032 330.037 332.06 330.092 330.96 330.165C330.814 330.018 330.74 329.762 330.74 329.395C330.777 329.028 330.85 328.772 330.96 328.625C331.18 328.625 331.547 328.607 332.06 328.57C332.61 328.497 333.124 328.387 333.6 328.24C334.077 328.093 334.334 327.928 334.37 327.745C334.517 327.305 334.59 326.737 334.59 326.04C334.627 325.343 334.645 324.592 334.645 323.785V313.995C334.645 313.628 334.627 313.115 334.59 312.455C334.59 311.795 334.517 311.3 334.37 310.97C334.26 310.64 333.949 310.42 333.435 310.31C332.922 310.163 332.409 310.09 331.895 310.09C331.382 310.053 331.052 310.035 330.905 310.035C330.869 309.962 330.832 309.742 330.795 309.375C330.759 309.008 330.795 308.752 330.905 308.605C332.299 308.422 333.655 308.147 334.975 307.78C336.295 307.413 337.487 306.937 338.55 306.35C338.697 306.35 338.825 306.46 338.935 306.68C339.082 306.9 339.155 307.083 339.155 307.23C339.155 307.34 339.119 307.633 339.045 308.11C339.009 308.55 338.954 308.99 338.88 309.43C338.844 309.87 338.825 310.163 338.825 310.31C338.825 310.457 338.862 310.53 338.935 310.53C338.972 310.53 339.027 310.493 339.1 310.42C339.467 310.017 340.054 309.503 340.86 308.88C341.704 308.257 342.62 307.707 343.61 307.23C344.6 306.717 345.517 306.46 346.36 306.46ZM369.601 306.515C370.664 306.515 371.544 306.607 372.241 306.79C372.974 306.937 373.927 307.083 375.101 307.23C375.284 308.037 375.431 308.99 375.541 310.09C375.651 311.153 375.724 312.162 375.761 313.115C375.761 313.298 375.577 313.39 375.211 313.39C375.064 313.39 374.899 313.372 374.716 313.335C374.569 313.298 374.422 313.225 374.276 313.115C374.092 312.455 373.781 311.74 373.341 310.97C372.937 310.2 372.424 309.558 371.801 309.045C371.214 308.495 370.536 308.22 369.766 308.22C368.482 308.22 367.529 308.55 366.906 309.21C366.282 309.833 365.971 310.622 365.971 311.575C365.971 312.492 366.191 313.243 366.631 313.83C367.071 314.38 367.639 314.875 368.336 315.315C369.069 315.718 369.839 316.158 370.646 316.635C371.452 317.112 372.332 317.643 373.286 318.23C374.239 318.817 375.064 319.513 375.761 320.32C376.457 321.09 376.806 322.043 376.806 323.18C376.806 324.61 376.421 325.893 375.651 327.03C374.881 328.13 373.872 329.01 372.626 329.67C371.379 330.293 370.022 330.605 368.556 330.605C367.309 330.605 366.246 330.477 365.366 330.22C364.486 330 363.459 329.78 362.286 329.56C362.139 329.157 361.992 328.607 361.846 327.91C361.699 327.213 361.571 326.498 361.461 325.765C361.387 325.032 361.351 324.445 361.351 324.005C361.644 323.785 361.974 323.675 362.341 323.675C362.524 323.675 362.671 323.712 362.781 323.785C363.001 324.518 363.386 325.288 363.936 326.095C364.486 326.865 365.164 327.525 365.971 328.075C366.777 328.588 367.657 328.845 368.611 328.845C369.711 328.845 370.627 328.515 371.361 327.855C372.094 327.195 372.461 326.242 372.461 324.995C372.461 323.895 372.131 323.015 371.471 322.355C370.811 321.658 369.986 321.053 368.996 320.54C368.006 319.99 366.979 319.422 365.916 318.835C364.852 318.212 363.899 317.46 363.056 316.58C362.249 315.663 361.846 314.49 361.846 313.06C361.846 311.74 362.212 310.585 362.946 309.595C363.716 308.605 364.687 307.853 365.861 307.34C367.034 306.79 368.281 306.515 369.601 306.515Z" fill="black"/>
<defs>
<filter id="filter0_d_1_55" x="40" y="44" width="432" height="432" filterUnits="userSpaceOnUse" color-interpolation-filters="sRGB">
<feFlood flood-opacity="0" result="BackgroundImageFix"/>
<feColorMatrix in="SourceAlpha" type="matrix" values="0 0 0 0 0 0 0 0 0 0 0 0 0 0 0 0 0 0 127 0" result="hardAlpha"/>
<feOffset dy="4"/>
<feGaussianBlur stdDeviation="5"/>
<feComposite in2="hardAlpha" operator="out"/>
<feColorMatrix type="matrix" values="0 0 0 0 0 0 0 0 0 0 0 0 0 0 0 0 0 0 0.25 0"/>
<feBlend mode="normal" in2="BackgroundImageFix" result="effect1_dropShadow_1_55"/>
<feBlend mode="normal" in="SourceGraphic" in2="effect1_dropShadow_1_55" result="shape"/>
</filter>
<linearGradient id="paint0_linear_1_55" x1="157" y1="94" x2="291" y2="460" gradientUnits="userSpaceOnUse">
<stop stop-color="#FFE0B3"/>
<stop offset="1" stop-color="#CA9544"/>
</linearGradient>
</defs>
</svg>
