<svg width="512" height="512" viewBox="0 0 512 512" fill="none" xmlns="http://www.w3.org/2000/svg">
<g filter="url(#filter0_d_28524_6)">
<rect x="50" y="50" width="412" height="412" rx="92" fill="white"/>
<rect x="50.5" y="50.5" width="411" height="411" rx="91.5" stroke="#E4E4E4"/>
</g>
<g filter="url(#filter1_i_28524_6)">
<circle cx="256" cy="256" r="186" fill="url(#paint0_linear_28524_6)"/>
</g>
<g filter="url(#filter2_d_28524_6)">
<path d="M133.574 350.831C134.065 350.161 134.534 349.826 134.981 349.826C135.115 349.826 135.271 349.871 135.45 349.96C136.12 350.362 136.254 351.032 135.852 351.97C134.825 354.248 133.261 355.99 131.162 357.196C129.107 358.402 126.673 359.005 123.859 359.005C121.447 359.005 119.303 358.603 117.427 357.799C115.551 356.95 113.965 355.811 112.67 354.382C111.419 352.908 110.459 351.188 109.789 349.223C109.164 347.213 108.851 345.047 108.851 342.724C108.851 340.446 109.231 338.302 109.99 336.292C110.749 334.282 111.821 332.54 113.206 331.066C114.591 329.547 116.243 328.364 118.164 327.515C120.085 326.666 122.229 326.242 124.596 326.242C125.936 326.242 127.254 326.421 128.549 326.778C129.889 327.135 131.095 327.694 132.167 328.453C133.284 329.168 134.222 330.083 134.981 331.2C135.74 332.272 136.187 333.523 136.321 334.952C136.008 336.783 134.869 337.699 132.904 337.699C130.626 337.699 129.308 336.314 128.951 333.545L128.482 330.999C128.303 330.195 127.924 329.704 127.343 329.525C126.807 329.346 126.204 329.257 125.534 329.257C123.881 329.257 122.474 329.659 121.313 330.463C120.152 331.222 119.214 332.227 118.499 333.478C117.784 334.684 117.248 336.046 116.891 337.565C116.578 339.039 116.422 340.468 116.422 341.853C116.422 346.052 117.338 349.201 119.169 351.3C121 353.399 123.345 354.449 126.204 354.449C129.241 354.449 131.698 353.243 133.574 350.831ZM154.245 326.242C156.567 326.242 158.689 326.689 160.61 327.582C162.53 328.431 164.161 329.614 165.501 331.133C166.885 332.607 167.935 334.349 168.65 336.359C169.409 338.324 169.789 340.446 169.789 342.724C169.789 345.047 169.409 347.213 168.65 349.223C167.935 351.188 166.908 352.908 165.568 354.382C164.228 355.811 162.597 356.95 160.677 357.799C158.756 358.603 156.612 359.005 154.245 359.005C151.877 359.005 149.733 358.603 147.813 357.799C145.892 356.95 144.262 355.811 142.922 354.382C141.582 352.908 140.532 351.188 139.773 349.223C139.058 347.213 138.701 345.047 138.701 342.724C138.701 340.446 139.058 338.302 139.773 336.292C140.532 334.282 141.582 332.54 142.922 331.066C144.306 329.592 145.937 328.431 147.813 327.582C149.733 326.689 151.877 326.242 154.245 326.242ZM154.245 329.257C149.108 329.257 146.54 333.724 146.54 342.657C146.54 351.501 149.108 355.923 154.245 355.923C159.381 355.923 161.95 351.501 161.95 342.657C161.95 333.724 159.381 329.257 154.245 329.257ZM183.867 353.109C183.867 354.136 184.359 354.739 185.341 354.918L186.748 355.186C187.731 355.365 188.222 355.878 188.222 356.727C188.222 357.576 187.664 358 186.547 358H173.75C172.634 358 172.075 357.576 172.075 356.727C172.075 355.923 172.589 355.409 173.616 355.186L175.09 354.918C176.073 354.739 176.564 354.136 176.564 353.109C176.609 351.68 176.631 350.25 176.631 348.821C176.676 347.392 176.698 345.962 176.698 344.533V318.939C176.698 317.912 176.185 317.331 175.157 317.197L173.147 316.929C172.12 316.795 171.606 316.326 171.606 315.522C171.606 314.718 172.098 314.182 173.08 313.914L181.924 311.636C182.148 311.547 182.326 311.502 182.46 311.502C182.639 311.502 182.818 311.502 182.996 311.502C183.309 311.502 183.51 311.547 183.599 311.636C183.867 311.815 184.001 312.351 184.001 313.244L183.8 321.016V344.533C183.8 345.962 183.8 347.392 183.8 348.821C183.845 350.25 183.867 351.68 183.867 353.109ZM201.355 353.109C201.355 354.136 201.847 354.739 202.829 354.918L204.236 355.186C205.219 355.365 205.71 355.878 205.71 356.727C205.71 357.576 205.152 358 204.035 358H191.238C190.122 358 189.563 357.576 189.563 356.727C189.563 355.923 190.077 355.409 191.104 355.186L192.578 354.918C193.561 354.739 194.052 354.136 194.052 353.109C194.097 351.68 194.119 350.25 194.119 348.821C194.164 347.392 194.186 345.962 194.186 344.533V318.939C194.186 317.912 193.673 317.331 192.645 317.197L190.635 316.929C189.608 316.795 189.094 316.326 189.094 315.522C189.094 314.718 189.586 314.182 190.568 313.914L199.412 311.636C199.636 311.547 199.814 311.502 199.948 311.502C200.127 311.502 200.306 311.502 200.484 311.502C200.797 311.502 200.998 311.547 201.087 311.636C201.355 311.815 201.489 312.351 201.489 313.244L201.288 321.016V344.533C201.288 345.962 201.288 347.392 201.288 348.821C201.333 350.25 201.355 351.68 201.355 353.109ZM237.135 340.379C236.956 341.362 236.331 341.853 235.259 341.853H215.829C215.918 345.918 216.901 348.977 218.777 351.032C220.653 353.087 223.087 354.114 226.08 354.114C227.822 354.114 229.296 353.801 230.502 353.176C231.752 352.506 232.891 351.59 233.919 350.429C234.41 349.893 234.879 349.625 235.326 349.625C235.549 349.625 235.75 349.692 235.929 349.826C236.599 350.273 236.688 350.943 236.197 351.836C235.035 354.114 233.36 355.856 231.172 357.062C228.983 358.268 226.415 358.871 223.467 358.871C220.965 358.871 218.732 358.447 216.767 357.598C214.846 356.749 213.216 355.588 211.876 354.114C210.58 352.595 209.598 350.809 208.928 348.754C208.258 346.699 207.923 344.466 207.923 342.054C207.923 339.731 208.302 337.52 209.062 335.421C209.821 333.322 210.893 331.49 212.278 329.927C213.707 328.319 215.404 327.068 217.37 326.175C219.38 325.237 221.591 324.768 224.003 324.768C226.013 324.768 227.822 325.103 229.43 325.773C231.082 326.443 232.489 327.381 233.651 328.587C234.812 329.748 235.705 331.155 236.331 332.808C236.956 334.461 237.269 336.292 237.269 338.302C237.269 338.659 237.269 339.017 237.269 339.374C237.269 339.687 237.224 340.022 237.135 340.379ZM215.963 338.771H226.013C227.621 338.771 228.693 338.436 229.229 337.766C229.809 337.096 230.1 336.158 230.1 334.952C230.1 332.942 229.519 331.267 228.358 329.927C227.241 328.587 225.834 327.917 224.137 327.917C222.752 327.917 221.546 328.274 220.519 328.989C219.536 329.659 218.71 330.53 218.04 331.602C217.414 332.674 216.923 333.858 216.566 335.153C216.253 336.404 216.052 337.61 215.963 338.771ZM265.245 350.831C265.736 350.161 266.205 349.826 266.652 349.826C266.786 349.826 266.942 349.871 267.121 349.96C267.791 350.362 267.925 351.032 267.523 351.97C266.495 354.248 264.932 355.99 262.833 357.196C260.778 358.402 258.344 359.005 255.53 359.005C253.118 359.005 250.974 358.603 249.098 357.799C247.222 356.95 245.636 355.811 244.341 354.382C243.09 352.908 242.13 351.188 241.46 349.223C240.834 347.213 240.522 345.047 240.522 342.724C240.522 340.446 240.901 338.302 241.661 336.292C242.42 334.282 243.492 332.54 244.877 331.066C246.261 329.547 247.914 328.364 249.835 327.515C251.755 326.666 253.899 326.242 256.267 326.242C257.607 326.242 258.924 326.421 260.22 326.778C261.56 327.135 262.766 327.694 263.838 328.453C264.954 329.168 265.892 330.083 266.652 331.2C267.411 332.272 267.858 333.523 267.992 334.952C267.679 336.783 266.54 337.699 264.575 337.699C262.297 337.699 260.979 336.314 260.622 333.545L260.153 330.999C259.974 330.195 259.594 329.704 259.014 329.525C258.478 329.346 257.875 329.257 257.205 329.257C255.552 329.257 254.145 329.659 252.984 330.463C251.822 331.222 250.884 332.227 250.17 333.478C249.455 334.684 248.919 336.046 248.562 337.565C248.249 339.039 248.093 340.468 248.093 341.853C248.093 346.052 249.008 349.201 250.84 351.3C252.671 353.399 255.016 354.449 257.875 354.449C260.912 354.449 263.369 353.243 265.245 350.831ZM286.786 353.578C287.278 353.31 287.702 353.176 288.059 353.176C288.417 353.176 288.729 353.332 288.997 353.645C289.578 354.36 289.533 355.074 288.863 355.789C288.015 356.682 286.965 357.397 285.714 357.933C284.508 358.424 283.057 358.67 281.359 358.67C278.903 358.67 276.96 358.067 275.53 356.861C274.146 355.61 273.453 353.667 273.453 351.032C273.453 350.451 273.453 349.938 273.453 349.491C273.453 349 273.476 348.531 273.52 348.084V332.808C273.52 331.691 272.962 331.133 271.845 331.133H270.438C269.322 331.133 268.763 330.597 268.763 329.525C268.763 328.498 269.277 327.917 270.304 327.783L272.649 327.515C273.587 327.381 274.146 326.845 274.324 325.907L275.53 319.877C275.709 318.894 276.312 318.403 277.339 318.403H279.215C280.287 318.403 280.823 318.961 280.823 320.078L280.689 325.706C280.689 326.823 281.248 327.381 282.364 327.381H286.987C288.104 327.381 288.662 327.939 288.662 329.056V329.458C288.662 330.575 288.104 331.133 286.987 331.133H282.297C281.181 331.133 280.622 331.691 280.622 332.808V349.759C280.622 351.412 280.935 352.595 281.56 353.31C282.23 354.025 283.079 354.382 284.106 354.382C284.464 354.382 284.866 354.337 285.312 354.248C285.804 354.114 286.295 353.891 286.786 353.578ZM301.804 353.176C301.849 354.114 302.363 354.695 303.345 354.918L304.484 355.119C305.467 355.342 305.958 355.878 305.958 356.727C305.958 357.576 305.4 358 304.283 358H291.955C290.839 358 290.28 357.576 290.28 356.727C290.28 355.923 290.794 355.409 291.821 355.186L293.161 354.918C294.144 354.695 294.658 354.114 294.702 353.176V341.317C294.702 340.424 294.702 339.62 294.702 338.905C294.702 338.19 294.68 337.52 294.635 336.895C294.591 336.538 294.568 336.18 294.568 335.823C294.568 335.466 294.568 335.108 294.568 334.751C294.479 333.724 293.943 333.143 292.96 333.009L291.352 332.808C290.325 332.674 289.811 332.205 289.811 331.401C289.811 330.686 290.258 330.15 291.151 329.793L299.861 326.644C300.085 326.555 300.286 326.488 300.464 326.443C300.643 326.398 300.822 326.376 301 326.376C301.224 326.376 301.402 326.443 301.536 326.577C301.849 326.845 302.005 327.381 302.005 328.185L301.804 335.823V353.176ZM298.186 320.078C296.757 320.078 295.573 319.654 294.635 318.805C293.742 317.956 293.295 316.84 293.295 315.455C293.295 314.07 293.742 312.954 294.635 312.105C295.573 311.256 296.757 310.832 298.186 310.832C299.571 310.832 300.71 311.256 301.603 312.105C302.541 312.954 303.01 314.07 303.01 315.455C303.01 316.84 302.541 317.956 301.603 318.805C300.71 319.654 299.571 320.078 298.186 320.078ZM323.378 326.242C325.7 326.242 327.822 326.689 329.743 327.582C331.663 328.431 333.294 329.614 334.634 331.133C336.018 332.607 337.068 334.349 337.783 336.359C338.542 338.324 338.922 340.446 338.922 342.724C338.922 345.047 338.542 347.213 337.783 349.223C337.068 351.188 336.041 352.908 334.701 354.382C333.361 355.811 331.73 356.95 329.81 357.799C327.889 358.603 325.745 359.005 323.378 359.005C321.01 359.005 318.866 358.603 316.946 357.799C315.025 356.95 313.395 355.811 312.055 354.382C310.715 352.908 309.665 351.188 308.906 349.223C308.191 347.213 307.834 345.047 307.834 342.724C307.834 340.446 308.191 338.302 308.906 336.292C309.665 334.282 310.715 332.54 312.055 331.066C313.439 329.592 315.07 328.431 316.946 327.582C318.866 326.689 321.01 326.242 323.378 326.242ZM323.378 329.257C318.241 329.257 315.673 333.724 315.673 342.657C315.673 351.501 318.241 355.923 323.378 355.923C328.514 355.923 331.083 351.501 331.083 342.657C331.083 333.724 328.514 329.257 323.378 329.257ZM373.101 353.176C373.145 354.114 373.659 354.695 374.642 354.918L375.781 355.119C376.763 355.342 377.255 355.878 377.255 356.727C377.255 357.576 376.696 358 375.58 358H363.252C362.135 358 361.577 357.576 361.577 356.727C361.577 355.878 362.068 355.365 363.051 355.186L364.391 354.918C365.373 354.695 365.887 354.114 365.932 353.176V338.57C365.932 335.89 365.597 333.992 364.927 332.875C364.301 331.714 363.14 331.133 361.443 331.133C360.058 331.133 358.718 331.468 357.423 332.138C356.172 332.808 354.832 333.813 353.403 335.153V353.176C353.447 354.114 353.961 354.695 354.944 354.918L356.15 355.186C357.132 355.365 357.624 355.878 357.624 356.727C357.624 357.576 357.065 358 355.949 358H343.487C342.37 358 341.812 357.576 341.812 356.727C341.812 355.923 342.325 355.409 343.353 355.186L344.76 354.918C345.742 354.695 346.256 354.114 346.301 353.176V341.049C346.301 340.156 346.301 339.352 346.301 338.637C346.301 337.922 346.278 337.297 346.234 336.761C346.189 336.404 346.167 336.069 346.167 335.756C346.167 335.443 346.167 335.108 346.167 334.751C346.077 333.724 345.541 333.143 344.559 333.009L342.951 332.808C341.923 332.674 341.41 332.205 341.41 331.401C341.41 330.642 341.856 330.083 342.75 329.726L350.522 326.711C350.924 326.532 351.326 326.443 351.728 326.443C351.996 326.443 352.174 326.488 352.264 326.577C352.621 326.8 352.822 327.314 352.867 328.118L353.202 332.071C354.899 330.106 356.619 328.654 358.361 327.716C360.103 326.733 362.068 326.242 364.257 326.242C367.205 326.242 369.416 327.158 370.89 328.989C372.364 330.776 373.101 333.724 373.101 337.833V353.176ZM392.654 338.838L394.798 339.575C396.451 340.2 397.813 340.87 398.885 341.585C400.002 342.255 400.917 342.97 401.632 343.729C402.257 344.533 402.704 345.404 402.972 346.342C403.24 347.235 403.374 348.196 403.374 349.223C403.374 351.01 402.972 352.528 402.168 353.779C401.409 354.985 400.404 355.99 399.153 356.794C397.902 357.553 396.495 358.112 394.932 358.469C393.413 358.826 391.895 359.005 390.376 359.005C388.5 359.005 386.847 358.804 385.418 358.402C383.989 358.045 382.559 357.509 381.13 356.794C380.326 356.437 379.924 355.789 379.924 354.851L379.857 350.63C379.857 349.513 380.393 348.955 381.465 348.955H382.537C383.52 348.955 384.123 349.469 384.346 350.496L384.882 353.31C385.016 354.203 385.485 354.784 386.289 355.052C387.629 355.588 389.014 355.856 390.443 355.856C392.721 355.856 394.374 355.454 395.401 354.65C396.428 353.846 396.942 352.729 396.942 351.3C396.942 350.005 396.495 349 395.602 348.285C394.709 347.526 393.123 346.699 390.845 345.806L387.897 344.734C385.396 343.707 383.475 342.478 382.135 341.049C380.795 339.62 380.125 337.788 380.125 335.555C380.125 333.858 380.482 332.428 381.197 331.267C381.912 330.106 382.85 329.145 384.011 328.386C385.172 327.627 386.468 327.091 387.897 326.778C389.326 326.421 390.778 326.242 392.252 326.242C393.815 326.242 395.245 326.421 396.54 326.778C397.835 327.091 399.131 327.56 400.426 328.185C401.275 328.587 401.677 329.257 401.632 330.195L401.431 333.947C401.386 335.019 400.828 335.555 399.756 335.555H398.751C397.724 335.555 397.121 335.064 396.942 334.081L396.473 331.602C396.294 330.664 395.803 330.083 394.999 329.86C394.061 329.503 393.078 329.324 392.051 329.324C390.264 329.324 388.88 329.704 387.897 330.463C386.959 331.222 386.49 332.317 386.49 333.746C386.49 334.818 386.914 335.734 387.763 336.493C388.21 336.85 388.835 337.23 389.639 337.632C390.488 338.034 391.493 338.436 392.654 338.838Z" fill="black"/>
</g>
<g filter="url(#filter3_d_28524_6)">
<path d="M256 199.389C239.82 182.744 219.488 170.518 195.767 164.704L197.096 155.535C213.84 159.488 228.757 166.498 241.98 175.502L246.066 178.292L244.737 173.508C239.355 154.007 243.774 131.681 255.933 116C268.093 131.681 272.512 153.973 267.129 173.508L265.801 178.292L269.887 175.502C283.11 166.498 298.026 159.389 314.771 155.402L316.1 164.571C292.379 170.385 272.046 182.744 255.867 199.389" fill="black"/>
<path d="M202.08 296.399L212.346 199.854L214.804 201.349C229.688 210.319 241.781 223.209 249.754 238.658L250.12 239.322L249.887 240.053C244.937 255.136 242.977 275.668 244.306 293.375C248.458 293.276 252.578 293.209 256.764 293.209C260.452 293.209 264.106 293.276 267.761 293.342C269.09 275.601 267.13 255.103 262.179 240.02L261.947 239.289L262.312 238.625C270.286 223.176 282.379 210.286 297.262 201.316L299.721 199.821L309.953 296.199C318.724 297.196 327.395 298.425 336 299.887L318.89 180.585C293.575 187.329 271.847 203.11 257.595 225.136L256.066 227.528L254.538 225.136C240.252 203.076 218.558 187.329 193.243 180.585L176 300.153C184.605 298.658 193.309 297.395 202.08 296.399Z" fill="black"/>
</g>
<defs>
<filter id="filter0_d_28524_6" x="40" y="44" width="432" height="432" filterUnits="userSpaceOnUse" color-interpolation-filters="sRGB">
<feFlood flood-opacity="0" result="BackgroundImageFix"/>
<feColorMatrix in="SourceAlpha" type="matrix" values="0 0 0 0 0 0 0 0 0 0 0 0 0 0 0 0 0 0 127 0" result="hardAlpha"/>
<feOffset dy="4"/>
<feGaussianBlur stdDeviation="5"/>
<feComposite in2="hardAlpha" operator="out"/>
<feColorMatrix type="matrix" values="0 0 0 0 0 0 0 0 0 0 0 0 0 0 0 0 0 0 0.25 0"/>
<feBlend mode="normal" in2="BackgroundImageFix" result="effect1_dropShadow_28524_6"/>
<feBlend mode="normal" in="SourceGraphic" in2="effect1_dropShadow_28524_6" result="shape"/>
</filter>
<filter id="filter1_i_28524_6" x="70" y="70" width="372" height="372" filterUnits="userSpaceOnUse" color-interpolation-filters="sRGB">
<feFlood flood-opacity="0" result="BackgroundImageFix"/>
<feBlend mode="normal" in="SourceGraphic" in2="BackgroundImageFix" result="shape"/>
<feColorMatrix in="SourceAlpha" type="matrix" values="0 0 0 0 0 0 0 0 0 0 0 0 0 0 0 0 0 0 127 0" result="hardAlpha"/>
<feOffset/>
<feGaussianBlur stdDeviation="4"/>
<feComposite in2="hardAlpha" operator="arithmetic" k2="-1" k3="1"/>
<feColorMatrix type="matrix" values="0 0 0 0 0 0 0 0 0 0 0 0 0 0 0 0 0 0 0.5 0"/>
<feBlend mode="normal" in2="shape" result="effect1_innerShadow_28524_6"/>
</filter>
<filter id="filter2_d_28524_6" x="105.851" y="307.832" width="302.523" height="56.173" filterUnits="userSpaceOnUse" color-interpolation-filters="sRGB">
<feFlood flood-opacity="0" result="BackgroundImageFix"/>
<feColorMatrix in="SourceAlpha" type="matrix" values="0 0 0 0 0 0 0 0 0 0 0 0 0 0 0 0 0 0 127 0" result="hardAlpha"/>
<feOffset dx="1" dy="1"/>
<feGaussianBlur stdDeviation="2"/>
<feComposite in2="hardAlpha" operator="out"/>
<feColorMatrix type="matrix" values="0 0 0 0 1 0 0 0 0 1 0 0 0 0 1 0 0 0 1 0"/>
<feBlend mode="normal" in2="BackgroundImageFix" result="effect1_dropShadow_28524_6"/>
<feBlend mode="normal" in="SourceGraphic" in2="effect1_dropShadow_28524_6" result="shape"/>
</filter>
<filter id="filter3_d_28524_6" x="175" y="112" width="164" height="188.153" filterUnits="userSpaceOnUse" color-interpolation-filters="sRGB">
<feFlood flood-opacity="0" result="BackgroundImageFix"/>
<feColorMatrix in="SourceAlpha" type="matrix" values="0 0 0 0 0 0 0 0 0 0 0 0 0 0 0 0 0 0 127 0" result="hardAlpha"/>
<feOffset dx="1" dy="-2"/>
<feGaussianBlur stdDeviation="1"/>
<feComposite in2="hardAlpha" operator="out"/>
<feColorMatrix type="matrix" values="0 0 0 0 1 0 0 0 0 1 0 0 0 0 1 0 0 0 1 0"/>
<feBlend mode="normal" in2="BackgroundImageFix" result="effect1_dropShadow_28524_6"/>
<feBlend mode="normal" in="SourceGraphic" in2="effect1_dropShadow_28524_6" result="shape"/>
</filter>
<linearGradient id="paint0_linear_28524_6" x1="256" y1="70" x2="256" y2="442" gradientUnits="userSpaceOnUse">
<stop stop-color="#FFE4BB"/>
<stop offset="1" stop-color="#E0A349"/>
</linearGradient>
</defs>
</svg>
