<svg width="512" height="512" viewBox="0 0 512 512" fill="none" xmlns="http://www.w3.org/2000/svg">
<g filter="url(#filter0_d_28524_6)">
<rect x="50" y="50" width="412" height="412" rx="92" fill="white"/>
<rect x="50.5" y="50.5" width="411" height="411" rx="91.5" stroke="#E4E4E4"/>
</g>
<g filter="url(#filter1_i_28524_6)">
<circle cx="256" cy="256" r="186" fill="url(#paint0_linear_28524_6)"/>
</g>
<g filter="url(#filter2_d_28524_6)">
<path d="M132.987 360.67C128.654 360.67 125.237 359.352 122.736 356.717C120.234 354.082 118.984 350.598 118.984 346.265C118.984 342.915 119.654 339.967 120.994 337.421C122.378 334.83 124.232 332.82 126.555 331.391C128.877 329.917 131.49 329.18 134.394 329.18C136.18 329.18 137.922 329.493 139.62 330.118C141.317 330.699 142.612 331.48 143.506 332.463C144.22 333.312 144.578 333.982 144.578 334.473C144.578 335.098 144.287 335.634 143.707 336.081L141.161 338.225H140.692L138.414 335.143C137.744 334.25 136.895 333.535 135.868 332.999C134.885 332.418 133.657 332.128 132.183 332.128C129.726 332.128 127.783 333.111 126.354 335.076C124.969 336.997 124.277 339.699 124.277 343.183C124.277 345.327 124.634 347.359 125.349 349.28C126.063 351.156 127.247 352.697 128.9 353.903C130.597 355.064 132.92 355.645 135.868 355.645C138.324 355.645 141.205 354.752 144.511 352.965H144.712V353.635C143.684 355.556 142.143 357.208 140.089 358.593C138.079 359.978 135.711 360.67 132.987 360.67ZM161.764 360.67C158.816 360.67 156.226 359.978 153.992 358.593C151.804 357.208 150.084 355.332 148.833 352.965C147.627 350.598 147.024 347.918 147.024 344.925C147.024 341.932 147.627 339.252 148.833 336.885C150.084 334.518 151.804 332.642 153.992 331.257C156.226 329.872 158.816 329.18 161.764 329.18C164.712 329.18 167.281 329.872 169.469 331.257C171.703 332.642 173.422 334.518 174.628 336.885C175.879 339.252 176.504 341.932 176.504 344.925C176.504 347.918 175.879 350.598 174.628 352.965C173.422 355.332 171.703 357.208 169.469 358.593C167.281 359.978 164.712 360.67 161.764 360.67ZM162.702 357.789C164.489 357.789 165.963 357.231 167.124 356.114C168.286 354.997 169.134 353.568 169.67 351.826C170.206 350.039 170.474 348.186 170.474 346.265C170.474 343.898 170.139 341.62 169.469 339.431C168.844 337.242 167.817 335.456 166.387 334.071C165.003 332.686 163.194 331.994 160.96 331.994C159.129 331.994 157.633 332.552 156.471 333.669C155.31 334.786 154.439 336.215 153.858 337.957C153.322 339.699 153.054 341.553 153.054 343.518C153.054 345.885 153.389 348.163 154.059 350.352C154.729 352.541 155.779 354.327 157.208 355.712C158.638 357.097 160.469 357.789 162.702 357.789ZM178.785 360V358.928L183.006 356.784V317.388L178.986 313.904V313.435L187.964 309.75H188.366V356.784L192.587 358.928V360H178.785ZM194.459 360V358.928L198.68 356.784V317.388L194.66 313.904V313.435L203.638 309.75H204.04V356.784L208.261 358.928V360H194.459ZM224.539 360.67C220.206 360.67 216.789 359.352 214.288 356.717C211.786 354.082 210.536 350.598 210.536 346.265C210.536 342.915 211.183 339.967 212.479 337.421C213.819 334.83 215.561 332.82 217.705 331.391C219.893 329.917 222.261 329.18 224.807 329.18C228.335 329.18 231.105 330.408 233.115 332.865C235.169 335.322 236.197 338.85 236.197 343.451L235.862 343.786H215.829C215.873 345.841 216.275 347.784 217.035 349.615C217.794 351.402 219 352.853 220.653 353.97C222.35 355.087 224.606 355.645 227.42 355.645C229.876 355.645 232.757 354.752 236.063 352.965H236.264V353.635C235.236 355.556 233.695 357.208 231.641 358.593C229.631 359.978 227.263 360.67 224.539 360.67ZM223.735 332.128C221.591 332.128 219.826 332.887 218.442 334.406C217.102 335.88 216.275 337.979 215.963 340.704H231.105C230.613 337.667 229.742 335.478 228.492 334.138C227.286 332.798 225.7 332.128 223.735 332.128ZM252.972 360.67C248.639 360.67 245.222 359.352 242.721 356.717C240.219 354.082 238.969 350.598 238.969 346.265C238.969 342.915 239.639 339.967 240.979 337.421C242.363 334.83 244.217 332.82 246.54 331.391C248.862 329.917 251.475 329.18 254.379 329.18C256.165 329.18 257.907 329.493 259.605 330.118C261.302 330.699 262.597 331.48 263.491 332.463C264.205 333.312 264.563 333.982 264.563 334.473C264.563 335.098 264.272 335.634 263.692 336.081L261.146 338.225H260.677L258.399 335.143C257.729 334.25 256.88 333.535 255.853 332.999C254.87 332.418 253.642 332.128 252.168 332.128C249.711 332.128 247.768 333.111 246.339 335.076C244.954 336.997 244.262 339.699 244.262 343.183C244.262 345.327 244.619 347.359 245.334 349.28C246.048 351.156 247.232 352.697 248.885 353.903C250.582 355.064 252.905 355.645 255.853 355.645C258.309 355.645 261.19 354.752 264.496 352.965H264.697V353.635C263.669 355.556 262.128 357.208 260.074 358.593C258.064 359.978 255.696 360.67 252.972 360.67ZM277.595 360.67C275.63 360.67 273.933 360.089 272.503 358.928C271.074 357.767 270.359 356.136 270.359 354.037V332.999H264.865V332.597L270.56 329.85L275.317 322.48H275.719V329.85H284.563V332.999H275.719V352.898C275.719 354.059 276.233 354.908 277.26 355.444C278.288 355.98 279.494 356.248 280.878 356.248C281.727 356.248 282.509 356.203 283.223 356.114C283.983 356.025 284.63 355.913 285.166 355.779H285.367V356.449C284.921 357.476 284.027 358.437 282.687 359.33C281.392 360.223 279.695 360.67 277.595 360.67ZM293.643 321.073C292.481 321.073 291.521 320.693 290.762 319.934C290.002 319.13 289.623 318.17 289.623 317.053C289.623 315.892 290.002 314.931 290.762 314.172C291.521 313.413 292.481 313.033 293.643 313.033C294.804 313.033 295.764 313.413 296.524 314.172C297.283 314.931 297.663 315.892 297.663 317.053C297.663 318.17 297.283 319.13 296.524 319.934C295.764 320.693 294.804 321.073 293.643 321.073ZM286.943 360V358.928L291.164 356.784V336.818L287.144 333.334V332.865L296.122 329.18H296.524V356.784L300.745 358.928V360H286.943ZM318.398 360.67C315.45 360.67 312.859 359.978 310.626 358.593C308.437 357.208 306.717 355.332 305.467 352.965C304.261 350.598 303.658 347.918 303.658 344.925C303.658 341.932 304.261 339.252 305.467 336.885C306.717 334.518 308.437 332.642 310.626 331.257C312.859 329.872 315.45 329.18 318.398 329.18C321.346 329.18 323.914 329.872 326.103 331.257C328.336 332.642 330.056 334.518 331.262 336.885C332.512 339.252 333.138 341.932 333.138 344.925C333.138 347.918 332.512 350.598 331.262 352.965C330.056 355.332 328.336 357.208 326.103 358.593C323.914 359.978 321.346 360.67 318.398 360.67ZM319.336 357.789C321.122 357.789 322.596 357.231 323.758 356.114C324.919 354.997 325.768 353.568 326.304 351.826C326.84 350.039 327.108 348.186 327.108 346.265C327.108 343.898 326.773 341.62 326.103 339.431C325.477 337.242 324.45 335.456 323.021 334.071C321.636 332.686 319.827 331.994 317.594 331.994C315.762 331.994 314.266 332.552 313.105 333.669C311.943 334.786 311.072 336.215 310.492 337.957C309.956 339.699 309.688 341.553 309.688 343.518C309.688 345.885 310.023 348.163 310.693 350.352C311.363 352.541 312.412 354.327 313.842 355.712C315.271 357.097 317.102 357.789 319.336 357.789ZM335.686 360V358.928L339.907 356.784V336.818L335.887 333.334V332.865L344.195 329.18H344.597L345.2 334.138H345.535C347.233 332.441 348.863 331.19 350.426 330.386C352.034 329.582 353.799 329.18 355.719 329.18C358.355 329.18 360.499 329.85 362.151 331.19C363.849 332.485 364.697 334.428 364.697 337.019V356.784L368.918 358.928V360H354.58V358.928L359.337 356.784V340.168C359.337 338.203 358.712 336.706 357.461 335.679C356.255 334.652 354.67 334.138 352.704 334.138C351.498 334.138 350.158 334.339 348.684 334.741C347.255 335.143 346.116 335.724 345.267 336.483V356.784L350.024 358.928V360H335.686ZM381.717 360.67C379.618 360.67 377.809 360.491 376.29 360.134C374.772 359.777 373.231 359.196 371.667 358.392V350.888H372.605L374.749 354.573C376.134 357.03 378.39 358.258 381.516 358.258C383.303 358.258 384.688 357.834 385.67 356.985C386.698 356.136 387.211 354.975 387.211 353.501C387.211 352.206 386.899 351.201 386.273 350.486C385.648 349.771 384.755 349.146 383.593 348.61C382.477 348.029 381.137 347.382 379.573 346.667C377.295 345.64 375.531 344.523 374.28 343.317C373.074 342.066 372.471 340.324 372.471 338.091C372.471 336.438 372.94 334.942 373.878 333.602C374.816 332.262 376 331.19 377.429 330.386C378.903 329.582 380.422 329.18 381.985 329.18C383.638 329.18 385.157 329.381 386.541 329.783C387.926 330.185 389.333 330.743 390.762 331.458V338.761H389.824L387.613 335.21C386.854 334.004 386.028 333.133 385.134 332.597C384.241 332.061 383.281 331.793 382.253 331.793C380.735 331.793 379.506 332.173 378.568 332.932C377.675 333.691 377.228 334.741 377.228 336.081C377.228 337.6 377.764 338.761 378.836 339.565C379.953 340.324 381.561 341.195 383.66 342.178C384.911 342.803 386.162 343.429 387.412 344.054C388.708 344.679 389.757 345.573 390.561 346.734C391.41 347.851 391.834 349.459 391.834 351.558C391.834 353.523 391.298 355.198 390.226 356.583C389.154 357.923 387.837 358.95 386.273 359.665C384.71 360.335 383.191 360.67 381.717 360.67Z" fill="#252525"/>
</g>
<g filter="url(#filter3_d_28524_6)">
<path d="M256 201.389C239.82 184.744 219.488 172.518 195.767 166.704L197.096 157.535C213.84 161.488 228.757 168.498 241.98 177.502L246.066 180.292L244.737 175.508C239.355 156.007 243.774 133.681 255.933 118C268.093 133.681 272.512 155.973 267.129 175.508L265.801 180.292L269.887 177.502C283.11 168.498 298.026 161.389 314.771 157.402L316.1 166.571C292.379 172.385 272.046 184.744 255.867 201.389" fill="#252525"/>
<path d="M202.08 298.399L212.346 201.854L214.804 203.349C229.688 212.319 241.781 225.209 249.754 240.658L250.12 241.322L249.887 242.053C244.937 257.136 242.977 277.668 244.306 295.375C248.458 295.276 252.578 295.209 256.764 295.209C260.452 295.209 264.106 295.276 267.761 295.342C269.09 277.601 267.13 257.103 262.179 242.02L261.947 241.289L262.312 240.625C270.286 225.176 282.379 212.286 297.262 203.316L299.721 201.821L309.953 298.199C318.724 299.196 327.395 300.425 336 301.887L318.89 182.585C293.575 189.329 271.847 205.11 257.595 227.136L256.066 229.528L254.538 227.136C240.252 205.076 218.558 189.329 193.243 182.585L176 302.153C184.605 300.658 193.309 299.395 202.08 298.399Z" fill="#252525"/>
</g>
<defs>
<filter id="filter0_d_28524_6" x="40" y="44" width="432" height="432" filterUnits="userSpaceOnUse" color-interpolation-filters="sRGB">
<feFlood flood-opacity="0" result="BackgroundImageFix"/>
<feColorMatrix in="SourceAlpha" type="matrix" values="0 0 0 0 0 0 0 0 0 0 0 0 0 0 0 0 0 0 127 0" result="hardAlpha"/>
<feOffset dy="4"/>
<feGaussianBlur stdDeviation="5"/>
<feComposite in2="hardAlpha" operator="out"/>
<feColorMatrix type="matrix" values="0 0 0 0 0 0 0 0 0 0 0 0 0 0 0 0 0 0 0.25 0"/>
<feBlend mode="normal" in2="BackgroundImageFix" result="effect1_dropShadow_28524_6"/>
<feBlend mode="normal" in="SourceGraphic" in2="effect1_dropShadow_28524_6" result="shape"/>
</filter>
<filter id="filter1_i_28524_6" x="70" y="70" width="372" height="372" filterUnits="userSpaceOnUse" color-interpolation-filters="sRGB">
<feFlood flood-opacity="0" result="BackgroundImageFix"/>
<feBlend mode="normal" in="SourceGraphic" in2="BackgroundImageFix" result="shape"/>
<feColorMatrix in="SourceAlpha" type="matrix" values="0 0 0 0 0 0 0 0 0 0 0 0 0 0 0 0 0 0 127 0" result="hardAlpha"/>
<feOffset/>
<feGaussianBlur stdDeviation="4"/>
<feComposite in2="hardAlpha" operator="arithmetic" k2="-1" k3="1"/>
<feColorMatrix type="matrix" values="0 0 0 0 0 0 0 0 0 0 0 0 0 0 0 0 0 0 0.5 0"/>
<feBlend mode="normal" in2="shape" result="effect1_innerShadow_28524_6"/>
</filter>
<filter id="filter2_d_28524_6" x="115.984" y="306.75" width="280.851" height="58.92" filterUnits="userSpaceOnUse" color-interpolation-filters="sRGB">
<feFlood flood-opacity="0" result="BackgroundImageFix"/>
<feColorMatrix in="SourceAlpha" type="matrix" values="0 0 0 0 0 0 0 0 0 0 0 0 0 0 0 0 0 0 127 0" result="hardAlpha"/>
<feOffset dx="1" dy="1"/>
<feGaussianBlur stdDeviation="2"/>
<feComposite in2="hardAlpha" operator="out"/>
<feColorMatrix type="matrix" values="0 0 0 0 1 0 0 0 0 1 0 0 0 0 1 0 0 0 1 0"/>
<feBlend mode="normal" in2="BackgroundImageFix" result="effect1_dropShadow_28524_6"/>
<feBlend mode="normal" in="SourceGraphic" in2="effect1_dropShadow_28524_6" result="shape"/>
</filter>
<filter id="filter3_d_28524_6" x="175" y="114" width="164" height="188.153" filterUnits="userSpaceOnUse" color-interpolation-filters="sRGB">
<feFlood flood-opacity="0" result="BackgroundImageFix"/>
<feColorMatrix in="SourceAlpha" type="matrix" values="0 0 0 0 0 0 0 0 0 0 0 0 0 0 0 0 0 0 127 0" result="hardAlpha"/>
<feOffset dx="1" dy="-2"/>
<feGaussianBlur stdDeviation="1"/>
<feComposite in2="hardAlpha" operator="out"/>
<feColorMatrix type="matrix" values="0 0 0 0 1 0 0 0 0 1 0 0 0 0 1 0 0 0 1 0"/>
<feBlend mode="normal" in2="BackgroundImageFix" result="effect1_dropShadow_28524_6"/>
<feBlend mode="normal" in="SourceGraphic" in2="effect1_dropShadow_28524_6" result="shape"/>
</filter>
<linearGradient id="paint0_linear_28524_6" x1="256" y1="70" x2="256" y2="442" gradientUnits="userSpaceOnUse">
<stop stop-color="#FFE4BB"/>
<stop offset="1" stop-color="#E0A349"/>
</linearGradient>
</defs>
</svg>
