<svg width="512" height="512" viewBox="0 0 512 512" fill="none" xmlns="http://www.w3.org/2000/svg">
<g filter="url(#filter0_d_28524_6)">
<rect x="50" y="50" width="412" height="412" rx="92" fill="white"/>
<rect x="50.5" y="50.5" width="411" height="411" rx="91.5" stroke="#E4E4E4"/>
</g>
<g filter="url(#filter1_i_28524_6)">
<circle cx="256" cy="256" r="186" fill="url(#paint0_linear_28524_6)"/>
</g>
<g filter="url(#filter2_d_28524_6)">
<path d="M122.937 351.67C118.604 351.67 115.187 350.352 112.686 347.717C110.184 345.082 108.934 341.598 108.934 337.265C108.934 333.915 109.604 330.967 110.944 328.421C112.328 325.83 114.182 323.82 116.505 322.391C118.827 320.917 121.44 320.18 124.344 320.18C126.13 320.18 127.872 320.493 129.57 321.118C131.267 321.699 132.562 322.48 133.456 323.463C134.17 324.312 134.528 324.982 134.528 325.473C134.528 326.098 134.237 326.634 133.657 327.081L131.111 329.225H130.642L128.364 326.143C127.694 325.25 126.845 324.535 125.818 323.999C124.835 323.418 123.607 323.128 122.133 323.128C119.676 323.128 117.733 324.111 116.304 326.076C114.919 327.997 114.227 330.699 114.227 334.183C114.227 336.327 114.584 338.359 115.299 340.28C116.013 342.156 117.197 343.697 118.85 344.903C120.547 346.064 122.87 346.645 125.818 346.645C128.274 346.645 131.155 345.752 134.461 343.965H134.662V344.635C133.634 346.556 132.093 348.208 130.039 349.593C128.029 350.978 125.661 351.67 122.937 351.67ZM153.724 351.67C150.776 351.67 148.186 350.978 145.952 349.593C143.764 348.208 142.044 346.332 140.793 343.965C139.587 341.598 138.984 338.918 138.984 335.925C138.984 332.932 139.587 330.252 140.793 327.885C142.044 325.518 143.764 323.642 145.952 322.257C148.186 320.872 150.776 320.18 153.724 320.18C156.672 320.18 159.241 320.872 161.429 322.257C163.663 323.642 165.382 325.518 166.588 327.885C167.839 330.252 168.464 332.932 168.464 335.925C168.464 338.918 167.839 341.598 166.588 343.965C165.382 346.332 163.663 348.208 161.429 349.593C159.241 350.978 156.672 351.67 153.724 351.67ZM154.662 348.789C156.449 348.789 157.923 348.231 159.084 347.114C160.246 345.997 161.094 344.568 161.63 342.826C162.166 341.039 162.434 339.186 162.434 337.265C162.434 334.898 162.099 332.62 161.429 330.431C160.804 328.242 159.777 326.456 158.347 325.071C156.963 323.686 155.154 322.994 152.92 322.994C151.089 322.994 149.593 323.552 148.431 324.669C147.27 325.786 146.399 327.215 145.818 328.957C145.282 330.699 145.014 332.553 145.014 334.518C145.014 336.885 145.349 339.163 146.019 341.352C146.689 343.541 147.739 345.327 149.168 346.712C150.598 348.097 152.429 348.789 154.662 348.789ZM172.755 351V349.928L176.976 347.784V308.388L172.956 304.904V304.435L181.934 300.75H182.336V347.784L186.557 349.928V351H172.755ZM190.439 351V349.928L194.66 347.784V308.388L190.64 304.904V304.435L199.618 300.75H200.02V347.784L204.241 349.928V351H190.439ZM222.529 351.67C218.196 351.67 214.779 350.352 212.278 347.717C209.776 345.082 208.526 341.598 208.526 337.265C208.526 333.915 209.173 330.967 210.469 328.421C211.809 325.83 213.551 323.82 215.695 322.391C217.883 320.917 220.251 320.18 222.797 320.18C226.325 320.18 229.095 321.408 231.105 323.865C233.159 326.322 234.187 329.85 234.187 334.451L233.852 334.786H213.819C213.863 336.841 214.265 338.784 215.025 340.615C215.784 342.402 216.99 343.853 218.643 344.97C220.34 346.087 222.596 346.645 225.41 346.645C227.866 346.645 230.747 345.752 234.053 343.965H234.254V344.635C233.226 346.556 231.685 348.208 229.631 349.593C227.621 350.978 225.253 351.67 222.529 351.67ZM221.725 323.128C219.581 323.128 217.816 323.887 216.432 325.406C215.092 326.88 214.265 328.979 213.953 331.704H229.095C228.603 328.667 227.732 326.478 226.482 325.138C225.276 323.798 223.69 323.128 221.725 323.128ZM252.972 351.67C248.639 351.67 245.222 350.352 242.721 347.717C240.219 345.082 238.969 341.598 238.969 337.265C238.969 333.915 239.639 330.967 240.979 328.421C242.363 325.83 244.217 323.82 246.54 322.391C248.862 320.917 251.475 320.18 254.379 320.18C256.165 320.18 257.907 320.493 259.605 321.118C261.302 321.699 262.597 322.48 263.491 323.463C264.205 324.312 264.563 324.982 264.563 325.473C264.563 326.098 264.272 326.634 263.692 327.081L261.146 329.225H260.677L258.399 326.143C257.729 325.25 256.88 324.535 255.853 323.999C254.87 323.418 253.642 323.128 252.168 323.128C249.711 323.128 247.768 324.111 246.339 326.076C244.954 327.997 244.262 330.699 244.262 334.183C244.262 336.327 244.619 338.359 245.334 340.28C246.048 342.156 247.232 343.697 248.885 344.903C250.582 346.064 252.905 346.645 255.853 346.645C258.309 346.645 261.19 345.752 264.496 343.965H264.697V344.635C263.669 346.556 262.128 348.208 260.074 349.593C258.064 350.978 255.696 351.67 252.972 351.67ZM279.605 351.67C277.64 351.67 275.943 351.089 274.513 349.928C273.084 348.767 272.369 347.136 272.369 345.037V323.999H266.875V323.597L272.57 320.85L277.327 313.48H277.729V320.85H286.573V323.999H277.729V343.898C277.729 345.059 278.243 345.908 279.27 346.444C280.298 346.98 281.504 347.248 282.888 347.248C283.737 347.248 284.519 347.203 285.233 347.114C285.993 347.025 286.64 346.913 287.176 346.779H287.377V347.449C286.931 348.476 286.037 349.437 284.697 350.33C283.402 351.223 281.705 351.67 279.605 351.67ZM297.663 312.073C296.501 312.073 295.541 311.693 294.782 310.934C294.022 310.13 293.643 309.17 293.643 308.053C293.643 306.892 294.022 305.931 294.782 305.172C295.541 304.413 296.501 304.033 297.663 304.033C298.824 304.033 299.784 304.413 300.544 305.172C301.303 305.931 301.683 306.892 301.683 308.053C301.683 309.17 301.303 310.13 300.544 310.934C299.784 311.693 298.824 312.073 297.663 312.073ZM290.963 351V349.928L295.184 347.784V327.818L291.164 324.334V323.865L300.142 320.18H300.544V347.784L304.765 349.928V351H290.963ZM324.428 351.67C321.48 351.67 318.889 350.978 316.656 349.593C314.467 348.208 312.747 346.332 311.497 343.965C310.291 341.598 309.688 338.918 309.688 335.925C309.688 332.932 310.291 330.252 311.497 327.885C312.747 325.518 314.467 323.642 316.656 322.257C318.889 320.872 321.48 320.18 324.428 320.18C327.376 320.18 329.944 320.872 332.133 322.257C334.366 323.642 336.086 325.518 337.292 327.885C338.542 330.252 339.168 332.932 339.168 335.925C339.168 338.918 338.542 341.598 337.292 343.965C336.086 346.332 334.366 348.208 332.133 349.593C329.944 350.978 327.376 351.67 324.428 351.67ZM325.366 348.789C327.152 348.789 328.626 348.231 329.788 347.114C330.949 345.997 331.798 344.568 332.334 342.826C332.87 341.039 333.138 339.186 333.138 337.265C333.138 334.898 332.803 332.62 332.133 330.431C331.507 328.242 330.48 326.456 329.051 325.071C327.666 323.686 325.857 322.994 323.624 322.994C321.792 322.994 320.296 323.552 319.135 324.669C317.973 325.786 317.102 327.215 316.522 328.957C315.986 330.699 315.718 332.553 315.718 334.518C315.718 336.885 316.053 339.163 316.723 341.352C317.393 343.541 318.442 345.327 319.872 346.712C321.301 348.097 323.132 348.789 325.366 348.789ZM343.726 351V349.928L347.947 347.784V327.818L343.927 324.334V323.865L352.235 320.18H352.637L353.24 325.138H353.575C355.273 323.441 356.903 322.19 358.466 321.386C360.074 320.582 361.839 320.18 363.759 320.18C366.395 320.18 368.539 320.85 370.191 322.19C371.889 323.485 372.737 325.428 372.737 328.019V347.784L376.958 349.928V351H362.62V349.928L367.377 347.784V331.168C367.377 329.203 366.752 327.706 365.501 326.679C364.295 325.652 362.71 325.138 360.744 325.138C359.538 325.138 358.198 325.339 356.724 325.741C355.295 326.143 354.156 326.724 353.307 327.483V347.784L358.064 349.928V351H343.726ZM391.767 351.67C389.668 351.67 387.859 351.491 386.34 351.134C384.822 350.777 383.281 350.196 381.717 349.392V341.888H382.655L384.799 345.573C386.184 348.03 388.44 349.258 391.566 349.258C393.353 349.258 394.738 348.834 395.72 347.985C396.748 347.136 397.261 345.975 397.261 344.501C397.261 343.206 396.949 342.201 396.323 341.486C395.698 340.771 394.805 340.146 393.643 339.61C392.527 339.029 391.187 338.382 389.623 337.667C387.345 336.64 385.581 335.523 384.33 334.317C383.124 333.066 382.521 331.324 382.521 329.091C382.521 327.438 382.99 325.942 383.928 324.602C384.866 323.262 386.05 322.19 387.479 321.386C388.953 320.582 390.472 320.18 392.035 320.18C393.688 320.18 395.207 320.381 396.591 320.783C397.976 321.185 399.383 321.743 400.812 322.458V329.761H399.874L397.663 326.21C396.904 325.004 396.078 324.133 395.184 323.597C394.291 323.061 393.331 322.793 392.303 322.793C390.785 322.793 389.556 323.173 388.618 323.932C387.725 324.691 387.278 325.741 387.278 327.081C387.278 328.6 387.814 329.761 388.886 330.565C390.003 331.324 391.611 332.195 393.71 333.178C394.961 333.803 396.212 334.429 397.462 335.054C398.758 335.679 399.807 336.573 400.611 337.734C401.46 338.851 401.884 340.459 401.884 342.558C401.884 344.523 401.348 346.198 400.276 347.583C399.204 348.923 397.887 349.95 396.323 350.665C394.76 351.335 393.241 351.67 391.767 351.67Z" fill="#252525"/>
</g>
<g filter="url(#filter3_d_28524_6)">
<path d="M256 194.389C239.82 177.744 219.488 165.518 195.767 159.704L197.096 150.535C213.84 154.488 228.757 161.498 241.98 170.502L246.066 173.292L244.737 168.508C239.355 149.007 243.774 126.681 255.933 111C268.093 126.681 272.512 148.973 267.129 168.508L265.801 173.292L269.887 170.502C283.11 161.498 298.026 154.389 314.771 150.402L316.1 159.571C292.379 165.385 272.046 177.744 255.867 194.389" fill="#252525"/>
<path d="M202.08 291.399L212.346 194.854L214.804 196.349C229.688 205.319 241.781 218.209 249.754 233.658L250.12 234.322L249.887 235.053C244.937 250.136 242.977 270.668 244.306 288.375C248.458 288.276 252.578 288.209 256.764 288.209C260.452 288.209 264.106 288.276 267.761 288.342C269.09 270.601 267.13 250.103 262.179 235.02L261.947 234.289L262.312 233.625C270.286 218.176 282.379 205.286 297.262 196.316L299.721 194.821L309.953 291.199C318.724 292.196 327.395 293.425 336 294.887L318.89 175.585C293.575 182.329 271.847 198.11 257.595 220.136L256.066 222.528L254.538 220.136C240.252 198.076 218.558 182.329 193.243 175.585L176 295.153C184.605 293.658 193.309 292.395 202.08 291.399Z" fill="#252525"/>
</g>
<defs>
<filter id="filter0_d_28524_6" x="40" y="44" width="432" height="432" filterUnits="userSpaceOnUse" color-interpolation-filters="sRGB">
<feFlood flood-opacity="0" result="BackgroundImageFix"/>
<feColorMatrix in="SourceAlpha" type="matrix" values="0 0 0 0 0 0 0 0 0 0 0 0 0 0 0 0 0 0 127 0" result="hardAlpha"/>
<feOffset dy="4"/>
<feGaussianBlur stdDeviation="5"/>
<feComposite in2="hardAlpha" operator="out"/>
<feColorMatrix type="matrix" values="0 0 0 0 0 0 0 0 0 0 0 0 0 0 0 0 0 0 0.25 0"/>
<feBlend mode="normal" in2="BackgroundImageFix" result="effect1_dropShadow_28524_6"/>
<feBlend mode="normal" in="SourceGraphic" in2="effect1_dropShadow_28524_6" result="shape"/>
</filter>
<filter id="filter1_i_28524_6" x="70" y="70" width="372" height="372" filterUnits="userSpaceOnUse" color-interpolation-filters="sRGB">
<feFlood flood-opacity="0" result="BackgroundImageFix"/>
<feBlend mode="normal" in="SourceGraphic" in2="BackgroundImageFix" result="shape"/>
<feColorMatrix in="SourceAlpha" type="matrix" values="0 0 0 0 0 0 0 0 0 0 0 0 0 0 0 0 0 0 127 0" result="hardAlpha"/>
<feOffset/>
<feGaussianBlur stdDeviation="4"/>
<feComposite in2="hardAlpha" operator="arithmetic" k2="-1" k3="1"/>
<feColorMatrix type="matrix" values="0 0 0 0 0 0 0 0 0 0 0 0 0 0 0 0 0 0 0.5 0"/>
<feBlend mode="normal" in2="shape" result="effect1_innerShadow_28524_6"/>
</filter>
<filter id="filter2_d_28524_6" x="105.934" y="297.75" width="300.951" height="58.92" filterUnits="userSpaceOnUse" color-interpolation-filters="sRGB">
<feFlood flood-opacity="0" result="BackgroundImageFix"/>
<feColorMatrix in="SourceAlpha" type="matrix" values="0 0 0 0 0 0 0 0 0 0 0 0 0 0 0 0 0 0 127 0" result="hardAlpha"/>
<feOffset dx="1" dy="1"/>
<feGaussianBlur stdDeviation="2"/>
<feComposite in2="hardAlpha" operator="out"/>
<feColorMatrix type="matrix" values="0 0 0 0 1 0 0 0 0 1 0 0 0 0 1 0 0 0 1 0"/>
<feBlend mode="normal" in2="BackgroundImageFix" result="effect1_dropShadow_28524_6"/>
<feBlend mode="normal" in="SourceGraphic" in2="effect1_dropShadow_28524_6" result="shape"/>
</filter>
<filter id="filter3_d_28524_6" x="175" y="107" width="164" height="188.153" filterUnits="userSpaceOnUse" color-interpolation-filters="sRGB">
<feFlood flood-opacity="0" result="BackgroundImageFix"/>
<feColorMatrix in="SourceAlpha" type="matrix" values="0 0 0 0 0 0 0 0 0 0 0 0 0 0 0 0 0 0 127 0" result="hardAlpha"/>
<feOffset dx="1" dy="-2"/>
<feGaussianBlur stdDeviation="1"/>
<feComposite in2="hardAlpha" operator="out"/>
<feColorMatrix type="matrix" values="0 0 0 0 1 0 0 0 0 1 0 0 0 0 1 0 0 0 1 0"/>
<feBlend mode="normal" in2="BackgroundImageFix" result="effect1_dropShadow_28524_6"/>
<feBlend mode="normal" in="SourceGraphic" in2="effect1_dropShadow_28524_6" result="shape"/>
</filter>
<linearGradient id="paint0_linear_28524_6" x1="256" y1="70" x2="256" y2="442" gradientUnits="userSpaceOnUse">
<stop stop-color="#FFE4BB"/>
<stop offset="1" stop-color="#E0A349"/>
</linearGradient>
</defs>
</svg>
