<svg width="512" height="512" viewBox="0 0 512 512" fill="none" xmlns="http://www.w3.org/2000/svg">
<g filter="url(#filter0_d_28499_3)">
<rect x="50" y="50" width="412" height="412" rx="92" fill="white"/>
<rect x="50.5" y="50.5" width="411" height="411" rx="91.5" stroke="#E4E4E4"/>
</g>
<g filter="url(#filter1_i_28499_3)">
<circle cx="256" cy="256" r="186" fill="url(#paint0_linear_28499_3)"/>
</g>
<g filter="url(#filter2_d_28499_3)">
<path d="M127.994 204.38C129.827 204.38 131.44 204.343 132.834 204.27C134.227 204.123 135.51 204.013 136.684 203.94C137.124 205.333 137.93 207.497 139.104 210.43C140.35 213.363 141.78 216.847 143.394 220.88C145.08 224.84 146.877 229.057 148.784 233.53C150.69 238.003 152.56 242.477 154.394 246.95C156.227 251.35 157.914 255.457 159.454 259.27C159.527 259.417 159.674 259.49 159.894 259.49C160.114 259.49 160.26 259.343 160.334 259.05C162.46 253.623 164.367 248.747 166.054 244.42C167.74 240.02 169.427 235.657 171.114 231.33C172.874 226.93 174.78 222.09 176.834 216.81C177.494 215.123 178.19 213.29 178.924 211.31C179.657 209.33 180.28 207.607 180.794 206.14C181.307 204.673 181.564 203.94 181.564 203.94C185.01 204.16 187.834 204.27 190.034 204.27C191.94 204.27 194.067 204.233 196.414 204.16C198.834 204.087 200.704 204.013 202.024 203.94C202.097 204.087 202.17 204.637 202.244 205.59C202.317 206.543 202.354 207.02 202.354 207.02C201.84 207.02 200.997 207.093 199.824 207.24C198.724 207.387 197.66 207.607 196.634 207.9C195.607 208.193 194.984 208.523 194.764 208.89C194.544 209.403 194.397 210.063 194.324 210.87C194.25 211.677 194.214 212.41 194.214 213.07C194.287 214.903 194.36 217.69 194.434 221.43C194.507 225.17 194.58 229.387 194.654 234.08C194.8 238.7 194.91 243.283 194.984 247.83C195.13 252.377 195.24 256.41 195.314 259.93C195.387 261.983 195.497 263.927 195.644 265.76C195.79 267.593 196.12 269.133 196.634 270.38C196.854 270.893 197.514 271.297 198.614 271.59C199.714 271.81 200.814 271.993 201.914 272.14C203.087 272.213 203.82 272.25 204.114 272.25C204.407 272.763 204.517 273.387 204.444 274.12C204.444 274.78 204.407 275.183 204.334 275.33C202.207 275.183 200.117 275.073 198.064 275C196.084 274.853 193.92 274.78 191.574 274.78C189.08 274.78 186.917 274.853 185.084 275C183.25 275.073 181.087 275.183 178.594 275.33C178.52 275.183 178.447 274.743 178.374 274.01C178.3 273.277 178.374 272.69 178.594 272.25C179.034 272.25 179.73 272.213 180.684 272.14C181.637 271.993 182.59 271.847 183.544 271.7C184.497 271.48 185.194 271.26 185.634 271.04C186 270.82 186.257 270.197 186.404 269.17C186.55 268.143 186.624 267.263 186.624 266.53C186.624 265.723 186.587 264.697 186.514 263.45C186.44 262.13 186.404 261.067 186.404 260.26C186.257 255.053 186.11 250.067 185.964 245.3C185.817 240.46 185.67 235.547 185.524 230.56C185.377 225.5 185.194 220.073 184.974 214.28C184.974 214.06 184.9 213.657 184.754 213.07C184.607 212.483 184.35 212.19 183.984 212.19C183.837 212.19 183.654 212.447 183.434 212.96C181.234 218.46 179.18 223.557 177.274 228.25C175.44 232.943 173.644 237.49 171.884 241.89C170.124 246.217 168.327 250.653 166.494 255.2C164.734 259.673 162.827 264.513 160.774 269.72C160.627 270.013 160.297 270.6 159.784 271.48C159.27 272.36 158.72 273.203 158.134 274.01C157.62 274.743 157.144 275.147 156.704 275.22C156.557 275.293 156.3 275.257 155.934 275.11C155.86 275.037 155.787 275 155.714 275L129.534 212.3C129.46 216.993 129.35 221.833 129.204 226.82C129.057 231.807 128.91 236.647 128.764 241.34C128.69 246.033 128.58 250.287 128.434 254.1C128.36 257.84 128.287 260.883 128.214 263.23C128.14 265.503 128.104 266.75 128.104 266.97C128.104 267.483 128.14 268.07 128.214 268.73C128.287 269.317 128.397 269.83 128.544 270.27C128.764 270.783 129.497 271.187 130.744 271.48C132.064 271.773 133.384 271.993 134.704 272.14C136.024 272.213 136.83 272.25 137.124 272.25C137.417 272.543 137.527 273.093 137.454 273.9C137.38 274.707 137.307 275.183 137.234 275.33C135.107 275.183 133.274 275.073 131.734 275C130.194 274.853 128.25 274.78 125.904 274.78C123.41 274.78 121.32 274.853 119.634 275C117.947 275.073 115.857 275.183 113.364 275.33C113.29 275.183 113.217 274.743 113.144 274.01C113.07 273.277 113.144 272.69 113.364 272.25C113.804 272.25 114.647 272.177 115.894 272.03C117.214 271.883 118.497 271.663 119.744 271.37C120.99 271.077 121.76 270.71 122.054 270.27C122.567 269.537 122.897 268.767 123.044 267.96C123.19 267.08 123.3 266.053 123.374 264.88C123.594 258.427 123.777 252.23 123.924 246.29C124.144 240.35 124.29 235.033 124.364 230.34C124.51 225.573 124.62 221.723 124.694 218.79C124.767 215.783 124.804 214.023 124.804 213.51C124.804 212.703 124.767 211.933 124.694 211.2C124.694 210.467 124.584 209.807 124.364 209.22C124.217 208.78 123.594 208.413 122.494 208.12C121.467 207.753 120.367 207.497 119.194 207.35C118.094 207.13 117.324 207.02 116.884 207.02C116.81 207.02 116.774 206.543 116.774 205.59C116.774 204.563 116.81 204.013 116.884 203.94C118.57 204.013 119.927 204.087 120.954 204.16C121.98 204.233 123.007 204.307 124.034 204.38C125.06 204.38 126.38 204.38 127.994 204.38ZM229.828 204.38C231.954 204.38 234.008 204.343 235.988 204.27C238.041 204.123 240.168 204.013 242.368 203.94C242.661 204.233 242.771 204.747 242.698 205.48C242.698 206.213 242.588 206.727 242.368 207.02C241.928 207.02 241.121 207.093 239.948 207.24C238.774 207.313 237.674 207.46 236.648 207.68C235.621 207.9 235.034 208.23 234.888 208.67C234.668 209.403 234.521 210.357 234.448 211.53C234.448 212.703 234.448 213.987 234.448 215.38C234.448 215.6 234.448 215.82 234.448 216.04C234.448 216.26 234.448 216.48 234.448 216.7V262.57C234.448 262.79 234.448 263.01 234.448 263.23C234.448 263.45 234.448 263.67 234.448 263.89C234.448 265.283 234.448 266.567 234.448 267.74C234.521 268.84 234.668 269.757 234.888 270.49C235.034 270.857 235.621 271.187 236.648 271.48C237.674 271.773 238.774 271.993 239.948 272.14C241.121 272.213 241.928 272.25 242.368 272.25C242.588 272.543 242.698 273.057 242.698 273.79C242.771 274.523 242.661 275.037 242.368 275.33C240.168 275.183 238.041 275.073 235.988 275C234.008 274.853 231.954 274.78 229.828 274.78C227.774 274.78 225.684 274.853 223.558 275C221.431 275.073 219.268 275.183 217.068 275.33C216.774 275.037 216.628 274.523 216.628 273.79C216.701 273.057 216.848 272.543 217.068 272.25C217.508 272.25 218.314 272.213 219.488 272.14C220.661 271.993 221.761 271.773 222.788 271.48C223.888 271.187 224.474 270.857 224.548 270.49C224.841 269.61 224.988 268.473 224.988 267.08C225.061 265.687 225.098 264.183 225.098 262.57V216.7C225.098 215.087 225.061 213.583 224.988 212.19C224.988 210.723 224.841 209.55 224.548 208.67C224.474 208.23 223.888 207.9 222.788 207.68C221.761 207.46 220.661 207.313 219.488 207.24C218.314 207.093 217.508 207.02 217.068 207.02C216.848 206.727 216.701 206.213 216.628 205.48C216.628 204.747 216.774 204.233 217.068 203.94C219.268 204.013 221.431 204.123 223.558 204.27C225.684 204.343 227.774 204.38 229.828 204.38ZM267.272 204.38C269.399 204.38 271.452 204.343 273.432 204.27C275.486 204.123 277.612 204.013 279.812 203.94C280.106 204.233 280.216 204.747 280.142 205.48C280.142 206.213 280.032 206.727 279.812 207.02C279.372 207.02 278.566 207.093 277.392 207.24C276.292 207.313 275.229 207.46 274.202 207.68C273.176 207.9 272.589 208.23 272.442 208.67C272.149 209.55 271.966 210.723 271.892 212.19C271.892 213.583 271.892 215.087 271.892 216.7V243.21C271.892 247.683 272.332 251.57 273.212 254.87C274.166 258.17 275.486 260.883 277.172 263.01C280.546 267.117 285.459 269.17 291.912 269.17C295.652 269.17 299.062 268.473 302.142 267.08C305.222 265.687 307.716 263.303 309.622 259.93C311.602 256.483 312.629 251.68 312.702 245.52V216.48C312.702 214.573 312.666 213.07 312.592 211.97C312.519 210.87 312.189 209.88 311.602 209C311.382 208.633 310.759 208.303 309.732 208.01C308.706 207.643 307.606 207.387 306.432 207.24C305.332 207.02 304.489 206.91 303.902 206.91C303.609 206.543 303.462 206.03 303.462 205.37C303.536 204.637 303.609 204.123 303.682 203.83C305.809 203.903 307.716 204.013 309.402 204.16C311.162 204.233 313.216 204.27 315.562 204.27C317.249 204.27 318.606 204.27 319.632 204.27C320.732 204.197 321.832 204.123 322.932 204.05C324.106 203.977 325.499 203.903 327.112 203.83C327.259 204.123 327.369 204.563 327.442 205.15C327.516 205.737 327.406 206.323 327.112 206.91C326.672 206.91 325.829 206.983 324.582 207.13C323.336 207.277 322.126 207.533 320.952 207.9C319.779 208.193 319.046 208.56 318.752 209C318.239 209.807 317.909 210.723 317.762 211.75C317.689 212.777 317.652 214.317 317.652 216.37V245.3C317.652 252.413 316.479 258.207 314.132 262.68C311.786 267.08 308.486 270.307 304.232 272.36C300.052 274.413 295.176 275.44 289.602 275.44C285.789 275.44 282.232 274.817 278.932 273.57C275.632 272.323 272.809 270.563 270.462 268.29C267.969 265.943 266.026 263.047 264.632 259.6C263.239 256.153 262.542 252.303 262.542 248.05V216.7C262.542 215.087 262.506 213.583 262.432 212.19C262.432 210.723 262.286 209.55 261.992 208.67C261.919 208.23 261.332 207.9 260.232 207.68C259.206 207.46 258.106 207.313 256.932 207.24C255.832 207.093 255.062 207.02 254.622 207.02C254.402 206.727 254.256 206.213 254.182 205.48C254.182 204.747 254.329 204.233 254.622 203.94C256.822 204.013 258.949 204.123 261.002 204.27C263.129 204.343 265.219 204.38 267.272 204.38ZM356.708 207.79C353.115 207.79 350.072 209.037 347.578 211.53C345.085 214.023 343.252 217.47 342.078 221.87C341.858 222.163 341.455 222.31 340.868 222.31C340.355 222.31 339.805 222.2 339.218 221.98C338.632 221.76 338.265 221.577 338.118 221.43C339.072 218.937 339.805 216.187 340.318 213.18C340.905 210.1 341.345 206.763 341.638 203.17C342.812 203.317 344.205 203.5 345.818 203.72C347.505 203.867 349.045 203.94 350.438 203.94H371.338C374.345 203.94 376.985 203.903 379.258 203.83C381.532 203.757 383.768 203.647 385.968 203.5C388.242 203.353 390.882 203.17 393.888 202.95C394.108 203.023 394.475 203.317 394.988 203.83C395.502 204.343 395.758 204.82 395.758 205.26C395.758 205.333 395.098 206.36 393.778 208.34C392.458 210.247 390.698 212.777 388.498 215.93C386.372 219.083 383.952 222.603 381.238 226.49C378.598 230.377 375.848 234.41 372.988 238.59C370.128 242.77 367.342 246.803 364.628 250.69C361.915 254.503 359.495 257.987 357.368 261.14C355.242 264.22 353.518 266.677 352.198 268.51C350.952 270.343 350.328 271.26 350.328 271.26H378.378C380.725 271.26 382.668 270.93 384.208 270.27C385.822 269.537 387.215 268.583 388.388 267.41C389.928 265.87 391.102 264.11 391.908 262.13C392.788 260.15 393.522 258.39 394.108 256.85C394.182 256.703 394.365 256.63 394.658 256.63C394.952 256.557 395.245 256.52 395.538 256.52C396.125 256.52 396.638 256.63 397.078 256.85C397.592 257.07 397.958 257.29 398.178 257.51C397.372 260.297 396.638 262.68 395.978 264.66C395.392 266.567 394.842 268.327 394.328 269.94C393.888 271.48 393.448 273.167 393.008 275H339.218C338.632 275 338.082 274.817 337.568 274.45C337.128 274.083 337.018 273.753 337.238 273.46L382.888 207.79H356.708Z" fill="black"/>
</g>
<g filter="url(#filter3_d_28499_3)">
<path d="M142.624 311.118C142.624 312.262 142.36 313.076 141.832 313.56C141.304 314 140.754 314.22 140.182 314.22C139.478 314.22 138.818 313.912 138.202 313.296C137.586 312.68 136.992 312.196 136.42 311.844C135.716 311.36 135.144 311.03 134.704 310.854C134.264 310.678 133.626 310.59 132.79 310.59C131.646 310.59 130.502 311.03 129.358 311.91C128.258 312.746 127.334 313.956 126.586 315.54C125.882 317.124 125.53 319.06 125.53 321.348C125.53 325.088 126.542 327.838 128.566 329.598C130.59 331.358 133.054 332.238 135.958 332.238C137.762 332.238 139.236 331.82 140.38 330.984C141.568 330.148 142.382 329.488 142.822 329.004C142.866 329.004 142.954 329.092 143.086 329.268C143.262 329.4 143.35 329.598 143.35 329.862C143.35 330.214 143.218 330.61 142.954 331.05C142.558 331.666 141.942 332.414 141.106 333.294C140.27 334.13 139.214 334.878 137.938 335.538C136.662 336.198 135.188 336.528 133.516 336.528C130.92 336.528 128.632 335.912 126.652 334.68C124.716 333.448 123.198 331.842 122.098 329.862C121.042 327.882 120.514 325.77 120.514 323.526C120.514 321.15 120.998 319.016 121.966 317.124C122.978 315.188 124.254 313.516 125.794 312.108C127.378 310.7 129.072 309.622 130.876 308.874C132.724 308.126 134.484 307.752 136.156 307.752C138.532 307.752 140.468 308.28 141.964 309.336C142.096 309.468 142.228 309.71 142.36 310.062C142.536 310.414 142.624 310.766 142.624 311.118ZM161.638 307.686C164.498 307.686 166.94 308.302 168.964 309.534C171.032 310.766 172.616 312.438 173.716 314.55C174.86 316.662 175.432 319.06 175.432 321.744C175.432 324.516 174.838 327.024 173.65 329.268C172.462 331.468 170.834 333.228 168.766 334.548C166.698 335.824 164.366 336.462 161.77 336.462C158.954 336.462 156.49 335.846 154.378 334.614C152.31 333.338 150.704 331.644 149.56 329.532C148.46 327.376 147.91 324.956 147.91 322.272C147.91 319.5 148.504 317.014 149.692 314.814C150.924 312.614 152.574 310.876 154.642 309.6C156.71 308.324 159.042 307.686 161.638 307.686ZM160.912 309.864C159.108 309.864 157.656 310.414 156.556 311.514C155.456 312.57 154.664 313.956 154.18 315.672C153.696 317.344 153.454 319.104 153.454 320.952C153.454 323.02 153.784 325.088 154.444 327.156C155.148 329.224 156.16 330.94 157.48 332.304C158.844 333.668 160.494 334.35 162.43 334.35C164.278 334.35 165.73 333.822 166.786 332.766C167.886 331.666 168.678 330.258 169.162 328.542C169.646 326.826 169.888 325.066 169.888 323.262C169.888 321.15 169.536 319.082 168.832 317.058C168.128 314.99 167.116 313.274 165.796 311.91C164.476 310.546 162.848 309.864 160.912 309.864ZM183.818 300.03C183.818 299.546 183.796 298.974 183.752 298.314C183.752 297.61 183.664 297.06 183.488 296.664C183.312 296.18 182.828 295.872 182.036 295.74C181.288 295.608 180.474 295.542 179.594 295.542C179.55 295.542 179.506 295.278 179.462 294.75C179.462 294.178 179.528 293.87 179.66 293.826C181.288 293.65 182.872 293.342 184.412 292.902C185.952 292.418 187.404 291.868 188.768 291.252C188.944 291.252 189.098 291.384 189.23 291.648C189.406 291.868 189.494 292.088 189.494 292.308C189.494 292.308 189.362 292.792 189.098 293.76C188.878 294.728 188.768 296.114 188.768 297.918V328.542C188.768 329.51 188.768 330.412 188.768 331.248C188.812 332.084 188.922 332.766 189.098 333.294C189.186 333.514 189.494 333.712 190.022 333.888C190.594 334.064 191.188 334.196 191.804 334.284C192.464 334.328 192.926 334.35 193.19 334.35C193.322 334.526 193.388 334.834 193.388 335.274C193.432 335.714 193.366 336.022 193.19 336.198C191.87 336.11 190.704 336.044 189.692 336C188.68 335.912 187.536 335.868 186.26 335.868C185.028 335.868 183.906 335.912 182.894 336C181.926 336.044 180.782 336.11 179.462 336.198C179.286 336.022 179.198 335.714 179.198 335.274C179.242 334.834 179.33 334.526 179.462 334.35C179.726 334.35 180.166 334.328 180.782 334.284C181.398 334.196 181.992 334.064 182.564 333.888C183.136 333.712 183.444 333.514 183.488 333.294C183.664 332.766 183.752 332.084 183.752 331.248C183.796 330.412 183.818 329.51 183.818 328.542V300.03ZM200.254 300.03C200.254 299.546 200.232 298.974 200.188 298.314C200.188 297.61 200.1 297.06 199.924 296.664C199.748 296.18 199.264 295.872 198.472 295.74C197.724 295.608 196.91 295.542 196.03 295.542C195.986 295.542 195.942 295.278 195.898 294.75C195.898 294.178 195.964 293.87 196.096 293.826C197.724 293.65 199.308 293.342 200.848 292.902C202.388 292.418 203.84 291.868 205.204 291.252C205.38 291.252 205.534 291.384 205.666 291.648C205.842 291.868 205.93 292.088 205.93 292.308C205.93 292.308 205.798 292.792 205.534 293.76C205.314 294.728 205.204 296.114 205.204 297.918V328.542C205.204 329.51 205.204 330.412 205.204 331.248C205.248 332.084 205.358 332.766 205.534 333.294C205.622 333.514 205.93 333.712 206.458 333.888C207.03 334.064 207.624 334.196 208.24 334.284C208.9 334.328 209.362 334.35 209.626 334.35C209.758 334.526 209.824 334.834 209.824 335.274C209.868 335.714 209.802 336.022 209.626 336.198C208.306 336.11 207.14 336.044 206.128 336C205.116 335.912 203.972 335.868 202.696 335.868C201.464 335.868 200.342 335.912 199.33 336C198.362 336.044 197.218 336.11 195.898 336.198C195.722 336.022 195.634 335.714 195.634 335.274C195.678 334.834 195.766 334.526 195.898 334.35C196.162 334.35 196.602 334.328 197.218 334.284C197.834 334.196 198.428 334.064 199 333.888C199.572 333.712 199.88 333.514 199.924 333.294C200.1 332.766 200.188 332.084 200.188 331.248C200.232 330.412 200.254 329.51 200.254 328.542V300.03ZM218.075 320.028C218.031 322.756 218.493 325.044 219.461 326.892C220.429 328.74 221.727 330.126 223.355 331.05C224.983 331.93 226.743 332.37 228.635 332.37C229.823 332.37 230.901 332.172 231.869 331.776C232.837 331.336 233.651 330.852 234.311 330.324C234.971 329.752 235.433 329.312 235.697 329.004C235.741 329.004 235.829 329.092 235.961 329.268C236.137 329.4 236.225 329.598 236.225 329.862C236.225 330.214 236.093 330.61 235.829 331.05C235.433 331.666 234.817 332.414 233.981 333.294C233.145 334.13 232.089 334.878 230.813 335.538C229.537 336.198 228.063 336.528 226.391 336.528C223.883 336.528 221.661 335.934 219.725 334.746C217.789 333.558 216.271 331.952 215.171 329.928C214.071 327.904 213.521 325.638 213.521 323.13C213.521 320.974 213.895 318.972 214.643 317.124C215.435 315.232 216.447 313.604 217.679 312.24C218.955 310.832 220.341 309.732 221.837 308.94C223.333 308.148 224.785 307.752 226.193 307.752C228.129 307.752 229.713 308.082 230.945 308.742C232.221 309.402 233.211 310.216 233.915 311.184C234.663 312.152 235.169 313.12 235.433 314.088C235.741 315.056 235.895 315.87 235.895 316.53C235.895 317.454 235.785 318.18 235.565 318.708C235.345 319.236 234.927 319.522 234.311 319.566C233.915 319.61 233.123 319.654 231.935 319.698C230.791 319.698 229.471 319.72 227.975 319.764C226.479 319.808 225.005 319.852 223.553 319.896C222.101 319.94 220.869 319.984 219.857 320.028C218.845 320.028 218.251 320.028 218.075 320.028ZM218.405 317.652H228.899C229.295 317.652 229.625 317.542 229.889 317.322C230.197 317.102 230.373 316.706 230.417 316.134C230.461 315.606 230.307 314.858 229.955 313.89C229.603 312.922 229.031 312.042 228.239 311.25C227.491 310.458 226.457 310.062 225.137 310.062C223.773 310.062 222.651 310.458 221.771 311.25C220.891 311.998 220.187 312.878 219.659 313.89C219.175 314.858 218.823 315.738 218.603 316.53C218.427 317.278 218.361 317.652 218.405 317.652ZM263.216 311.118C263.216 312.262 262.952 313.076 262.424 313.56C261.896 314 261.346 314.22 260.774 314.22C260.07 314.22 259.41 313.912 258.794 313.296C258.178 312.68 257.584 312.196 257.012 311.844C256.308 311.36 255.736 311.03 255.296 310.854C254.856 310.678 254.218 310.59 253.382 310.59C252.238 310.59 251.094 311.03 249.95 311.91C248.85 312.746 247.926 313.956 247.178 315.54C246.474 317.124 246.122 319.06 246.122 321.348C246.122 325.088 247.134 327.838 249.158 329.598C251.182 331.358 253.646 332.238 256.55 332.238C258.354 332.238 259.828 331.82 260.972 330.984C262.16 330.148 262.974 329.488 263.414 329.004C263.458 329.004 263.546 329.092 263.678 329.268C263.854 329.4 263.942 329.598 263.942 329.862C263.942 330.214 263.81 330.61 263.546 331.05C263.15 331.666 262.534 332.414 261.698 333.294C260.862 334.13 259.806 334.878 258.53 335.538C257.254 336.198 255.78 336.528 254.108 336.528C251.512 336.528 249.224 335.912 247.244 334.68C245.308 333.448 243.79 331.842 242.69 329.862C241.634 327.882 241.106 325.77 241.106 323.526C241.106 321.15 241.59 319.016 242.558 317.124C243.57 315.188 244.846 313.516 246.386 312.108C247.97 310.7 249.664 309.622 251.468 308.874C253.316 308.126 255.076 307.752 256.748 307.752C259.124 307.752 261.06 308.28 262.556 309.336C262.688 309.468 262.82 309.71 262.952 310.062C263.128 310.414 263.216 310.766 263.216 311.118ZM276.157 308.148H284.473C284.693 308.148 284.803 308.39 284.803 308.874C284.803 309.534 284.495 310.172 283.879 310.788H276.157V327.684C276.157 331.204 277.587 332.964 280.447 332.964C281.415 332.964 282.295 332.766 283.087 332.37C283.879 331.974 284.385 331.688 284.605 331.512C284.737 331.556 284.803 331.688 284.803 331.908C284.803 332.392 284.715 332.722 284.539 332.898C284.231 333.25 283.747 333.712 283.087 334.284C282.471 334.856 281.723 335.362 280.843 335.802C279.963 336.242 278.995 336.462 277.939 336.462C276.839 336.462 275.761 336.264 274.705 335.868C273.693 335.472 272.857 334.768 272.197 333.756C271.537 332.744 271.207 331.314 271.207 329.466V310.788H267.445C267.357 310.788 267.291 310.722 267.247 310.59C267.203 310.414 267.181 310.282 267.181 310.194C267.181 310.106 267.313 309.908 267.577 309.6C267.841 309.248 268.105 308.918 268.369 308.61C268.677 308.302 268.831 308.148 268.831 308.148H271.207V304.122C271.647 303.638 272.153 303.088 272.725 302.472C273.341 301.812 273.891 301.218 274.375 300.69C274.859 300.118 275.123 299.81 275.167 299.766C275.343 299.59 275.541 299.502 275.761 299.502C276.025 299.502 276.157 299.568 276.157 299.7V308.148ZM291.32 297.786C291.32 296.906 291.628 296.158 292.244 295.542C292.904 294.882 293.674 294.552 294.554 294.552C295.434 294.552 296.182 294.882 296.798 295.542C297.458 296.158 297.788 296.906 297.788 297.786C297.788 298.666 297.458 299.436 296.798 300.096C296.182 300.712 295.434 301.02 294.554 301.02C293.674 301.02 292.904 300.712 292.244 300.096C291.628 299.436 291.32 298.666 291.32 297.786ZM297.524 328.542C297.524 329.51 297.524 330.412 297.524 331.248C297.568 332.084 297.678 332.766 297.854 333.294C297.942 333.514 298.25 333.712 298.778 333.888C299.35 334.064 299.944 334.196 300.56 334.284C301.176 334.328 301.616 334.35 301.88 334.35C302.012 334.526 302.078 334.834 302.078 335.274C302.122 335.714 302.056 336.022 301.88 336.198C300.56 336.11 299.394 336.044 298.382 336C297.414 335.912 296.292 335.868 295.016 335.868C293.784 335.868 292.662 335.912 291.65 336C290.638 336.044 289.472 336.11 288.152 336.198C287.976 336.022 287.888 335.714 287.888 335.274C287.932 334.834 288.02 334.526 288.152 334.35C288.416 334.35 288.856 334.328 289.472 334.284C290.132 334.196 290.748 334.064 291.32 333.888C291.892 333.712 292.2 333.514 292.244 333.294C292.42 332.766 292.508 332.084 292.508 331.248C292.552 330.412 292.574 329.51 292.574 328.542V316.53C292.574 316.09 292.552 315.518 292.508 314.814C292.508 314.11 292.42 313.56 292.244 313.164C292.112 312.768 291.738 312.504 291.122 312.372C290.506 312.196 289.89 312.108 289.274 312.108C288.658 312.064 288.262 312.042 288.086 312.042C288.042 311.954 287.998 311.69 287.954 311.25C287.91 310.81 287.954 310.502 288.086 310.326C289.758 310.106 291.386 309.776 292.97 309.336C294.554 308.896 295.984 308.324 297.26 307.62C297.436 307.62 297.59 307.752 297.722 308.016C297.898 308.28 297.986 308.5 297.986 308.676C297.986 308.808 297.942 309.182 297.854 309.798C297.766 310.414 297.678 311.03 297.59 311.646C297.546 312.262 297.524 312.68 297.524 312.9V328.542ZM319.548 307.686C322.408 307.686 324.85 308.302 326.874 309.534C328.942 310.766 330.526 312.438 331.626 314.55C332.77 316.662 333.342 319.06 333.342 321.744C333.342 324.516 332.748 327.024 331.56 329.268C330.372 331.468 328.744 333.228 326.676 334.548C324.608 335.824 322.276 336.462 319.68 336.462C316.864 336.462 314.4 335.846 312.288 334.614C310.22 333.338 308.614 331.644 307.47 329.532C306.37 327.376 305.82 324.956 305.82 322.272C305.82 319.5 306.414 317.014 307.602 314.814C308.834 312.614 310.484 310.876 312.552 309.6C314.62 308.324 316.952 307.686 319.548 307.686ZM318.822 309.864C317.018 309.864 315.566 310.414 314.466 311.514C313.366 312.57 312.574 313.956 312.09 315.672C311.606 317.344 311.364 319.104 311.364 320.952C311.364 323.02 311.694 325.088 312.354 327.156C313.058 329.224 314.07 330.94 315.39 332.304C316.754 333.668 318.404 334.35 320.34 334.35C322.188 334.35 323.64 333.822 324.696 332.766C325.796 331.666 326.588 330.258 327.072 328.542C327.556 326.826 327.798 325.066 327.798 323.262C327.798 321.15 327.446 319.082 326.742 317.058C326.038 314.99 325.026 313.274 323.706 311.91C322.386 310.546 320.758 309.864 318.822 309.864ZM356.776 307.752C359.108 307.752 360.868 308.236 362.056 309.204C363.244 310.172 364.036 311.668 364.432 313.692C364.872 315.716 365.092 318.29 365.092 321.414V328.542C365.092 329.51 365.092 330.412 365.092 331.248C365.136 332.084 365.246 332.766 365.422 333.294C365.51 333.514 365.818 333.712 366.346 333.888C366.918 334.064 367.512 334.196 368.128 334.284C368.744 334.328 369.184 334.35 369.448 334.35C369.58 334.526 369.646 334.834 369.646 335.274C369.69 335.714 369.624 336.022 369.448 336.198C368.128 336.11 366.962 336.044 365.95 336C364.982 335.912 363.86 335.868 362.584 335.868C361.352 335.868 360.23 335.912 359.218 336C358.206 336.044 357.04 336.11 355.72 336.198C355.544 336.022 355.456 335.714 355.456 335.274C355.5 334.834 355.588 334.526 355.72 334.35C355.984 334.35 356.424 334.328 357.04 334.284C357.7 334.196 358.316 334.064 358.888 333.888C359.46 333.712 359.768 333.514 359.812 333.294C359.988 332.766 360.076 332.084 360.076 331.248C360.12 330.412 360.142 329.51 360.142 328.542V322.074C360.142 319.39 359.966 317.3 359.614 315.804C359.262 314.264 358.624 313.164 357.7 312.504C356.776 311.844 355.478 311.514 353.806 311.514C353.014 311.514 352.134 311.778 351.166 312.306C350.242 312.79 349.428 313.318 348.724 313.89C348.02 314.462 347.668 314.858 347.668 315.078V328.542C347.668 329.51 347.668 330.412 347.668 331.248C347.712 332.084 347.822 332.766 347.998 333.294C348.086 333.514 348.394 333.712 348.922 333.888C349.494 334.064 350.088 334.196 350.704 334.284C351.32 334.328 351.76 334.35 352.024 334.35C352.156 334.526 352.222 334.834 352.222 335.274C352.266 335.714 352.2 336.022 352.024 336.198C350.704 336.11 349.538 336.044 348.526 336C347.558 335.912 346.436 335.868 345.16 335.868C343.928 335.868 342.806 335.912 341.794 336C340.782 336.044 339.616 336.11 338.296 336.198C338.12 336.022 338.032 335.714 338.032 335.274C338.076 334.834 338.164 334.526 338.296 334.35C338.56 334.35 339 334.328 339.616 334.284C340.276 334.196 340.892 334.064 341.464 333.888C342.036 333.712 342.344 333.514 342.388 333.294C342.564 332.766 342.652 332.084 342.652 331.248C342.696 330.412 342.718 329.51 342.718 328.542V316.794C342.718 316.354 342.696 315.738 342.652 314.946C342.652 314.154 342.564 313.56 342.388 313.164C342.256 312.768 341.882 312.504 341.266 312.372C340.65 312.196 340.034 312.108 339.418 312.108C338.802 312.064 338.406 312.042 338.23 312.042C338.186 311.954 338.142 311.69 338.098 311.25C338.054 310.81 338.098 310.502 338.23 310.326C339.902 310.106 341.53 309.776 343.114 309.336C344.698 308.896 346.128 308.324 347.404 307.62C347.58 307.62 347.734 307.752 347.866 308.016C348.042 308.28 348.13 308.5 348.13 308.676C348.13 308.808 348.086 309.16 347.998 309.732C347.954 310.26 347.888 310.788 347.8 311.316C347.756 311.844 347.734 312.196 347.734 312.372C347.734 312.548 347.778 312.636 347.866 312.636C347.91 312.636 347.976 312.592 348.064 312.504C348.504 312.02 349.208 311.404 350.176 310.656C351.188 309.908 352.288 309.248 353.476 308.676C354.664 308.06 355.764 307.752 356.776 307.752ZM382.751 307.818C384.027 307.818 385.083 307.928 385.919 308.148C386.799 308.324 387.943 308.5 389.351 308.676C389.571 309.644 389.747 310.788 389.879 312.108C390.011 313.384 390.099 314.594 390.143 315.738C390.143 315.958 389.923 316.068 389.483 316.068C389.307 316.068 389.109 316.046 388.889 316.002C388.713 315.958 388.537 315.87 388.361 315.738C388.141 314.946 387.767 314.088 387.239 313.164C386.755 312.24 386.139 311.47 385.391 310.854C384.687 310.194 383.873 309.864 382.949 309.864C381.409 309.864 380.265 310.26 379.517 311.052C378.769 311.8 378.395 312.746 378.395 313.89C378.395 314.99 378.659 315.892 379.187 316.596C379.715 317.256 380.397 317.85 381.233 318.378C382.113 318.862 383.037 319.39 384.005 319.962C384.973 320.534 386.029 321.172 387.173 321.876C388.317 322.58 389.307 323.416 390.143 324.384C390.979 325.308 391.397 326.452 391.397 327.816C391.397 329.532 390.935 331.072 390.011 332.436C389.087 333.756 387.877 334.812 386.381 335.604C384.885 336.352 383.257 336.726 381.497 336.726C380.001 336.726 378.725 336.572 377.669 336.264C376.613 336 375.381 335.736 373.973 335.472C373.797 334.988 373.621 334.328 373.445 333.492C373.269 332.656 373.115 331.798 372.983 330.918C372.895 330.038 372.851 329.334 372.851 328.806C373.203 328.542 373.599 328.41 374.039 328.41C374.259 328.41 374.435 328.454 374.567 328.542C374.831 329.422 375.293 330.346 375.953 331.314C376.613 332.238 377.427 333.03 378.395 333.69C379.363 334.306 380.419 334.614 381.563 334.614C382.883 334.614 383.983 334.218 384.863 333.426C385.743 332.634 386.183 331.49 386.183 329.994C386.183 328.674 385.787 327.618 384.995 326.826C384.203 325.99 383.213 325.264 382.025 324.648C380.837 323.988 379.605 323.306 378.329 322.602C377.053 321.854 375.909 320.952 374.897 319.896C373.929 318.796 373.445 317.388 373.445 315.672C373.445 314.088 373.885 312.702 374.765 311.514C375.689 310.326 376.855 309.424 378.263 308.808C379.671 308.148 381.167 307.818 382.751 307.818Z" fill="black"/>
</g>
<defs>
<filter id="filter0_d_28499_3" x="40" y="44" width="432" height="432" filterUnits="userSpaceOnUse" color-interpolation-filters="sRGB">
<feFlood flood-opacity="0" result="BackgroundImageFix"/>
<feColorMatrix in="SourceAlpha" type="matrix" values="0 0 0 0 0 0 0 0 0 0 0 0 0 0 0 0 0 0 127 0" result="hardAlpha"/>
<feOffset dy="4"/>
<feGaussianBlur stdDeviation="5"/>
<feComposite in2="hardAlpha" operator="out"/>
<feColorMatrix type="matrix" values="0 0 0 0 0 0 0 0 0 0 0 0 0 0 0 0 0 0 0.25 0"/>
<feBlend mode="normal" in2="BackgroundImageFix" result="effect1_dropShadow_28499_3"/>
<feBlend mode="normal" in="SourceGraphic" in2="effect1_dropShadow_28499_3" result="shape"/>
</filter>
<filter id="filter1_i_28499_3" x="70" y="70" width="372" height="372" filterUnits="userSpaceOnUse" color-interpolation-filters="sRGB">
<feFlood flood-opacity="0" result="BackgroundImageFix"/>
<feBlend mode="normal" in="SourceGraphic" in2="BackgroundImageFix" result="shape"/>
<feColorMatrix in="SourceAlpha" type="matrix" values="0 0 0 0 0 0 0 0 0 0 0 0 0 0 0 0 0 0 127 0" result="hardAlpha"/>
<feOffset/>
<feGaussianBlur stdDeviation="4"/>
<feComposite in2="hardAlpha" operator="arithmetic" k2="-1" k3="1"/>
<feColorMatrix type="matrix" values="0 0 0 0 0 0 0 0 0 0 0 0 0 0 0 0 0 0 0.5 0"/>
<feBlend mode="normal" in2="shape" result="effect1_innerShadow_28499_3"/>
</filter>
<filter id="filter2_d_28499_3" x="111.034" y="201.95" width="289.145" height="76.49" filterUnits="userSpaceOnUse" color-interpolation-filters="sRGB">
<feFlood flood-opacity="0" result="BackgroundImageFix"/>
<feColorMatrix in="SourceAlpha" type="matrix" values="0 0 0 0 0 0 0 0 0 0 0 0 0 0 0 0 0 0 127 0" result="hardAlpha"/>
<feOffset dy="1"/>
<feGaussianBlur stdDeviation="1"/>
<feComposite in2="hardAlpha" operator="out"/>
<feColorMatrix type="matrix" values="0 0 0 0 1 0 0 0 0 1 0 0 0 0 1 0 0 0 0.5 0"/>
<feBlend mode="normal" in2="BackgroundImageFix" result="effect1_dropShadow_28499_3"/>
<feBlend mode="normal" in="SourceGraphic" in2="effect1_dropShadow_28499_3" result="shape"/>
</filter>
<filter id="filter3_d_28499_3" x="118.514" y="290.252" width="274.883" height="49.474" filterUnits="userSpaceOnUse" color-interpolation-filters="sRGB">
<feFlood flood-opacity="0" result="BackgroundImageFix"/>
<feColorMatrix in="SourceAlpha" type="matrix" values="0 0 0 0 0 0 0 0 0 0 0 0 0 0 0 0 0 0 127 0" result="hardAlpha"/>
<feOffset dy="1"/>
<feGaussianBlur stdDeviation="1"/>
<feComposite in2="hardAlpha" operator="out"/>
<feColorMatrix type="matrix" values="0 0 0 0 1 0 0 0 0 1 0 0 0 0 1 0 0 0 0.5 0"/>
<feBlend mode="normal" in2="BackgroundImageFix" result="effect1_dropShadow_28499_3"/>
<feBlend mode="normal" in="SourceGraphic" in2="effect1_dropShadow_28499_3" result="shape"/>
</filter>
<linearGradient id="paint0_linear_28499_3" x1="256" y1="70" x2="256" y2="442" gradientUnits="userSpaceOnUse">
<stop stop-color="#FFE4BB"/>
<stop offset="1" stop-color="#F6BC66"/>
</linearGradient>
</defs>
</svg>
