<svg width="512" height="512" viewBox="0 0 512 512" fill="none" xmlns="http://www.w3.org/2000/svg">
<g filter="url(#filter0_d_28579_2)">
<rect x="50" y="50" width="412" height="412" rx="92" fill="#232429"/>
</g>
<path d="M194.855 336.686C149.523 336.686 121.057 306.393 121.057 256.441V256.334C121.057 206.383 149.631 176.305 194.855 176.305C232.453 176.305 259.416 200.045 262.424 232.916L262.531 233.883H230.949L230.52 232.057C226.867 214.977 214.191 203.805 194.855 203.805C170.041 203.805 154.143 223.785 154.143 256.227V256.334C154.143 288.99 170.041 309.186 194.855 309.186C213.547 309.186 226.652 298.443 230.842 280.074L231.057 279H262.639L262.531 280.182C259.523 313.16 232.346 336.686 194.855 336.686ZM341.478 336.363C306.351 336.363 284.652 313.482 284.652 276.314V276.207C284.652 239.361 306.673 216.48 341.155 216.48C372.415 216.48 392.288 235.709 393.47 260.631V261.383H364.359L364.144 260.416C362.21 249.459 354.583 241.08 341.585 241.08C326.224 241.08 316.556 254.293 316.556 276.314V276.422C316.556 298.98 326.224 311.764 341.693 311.764C354.261 311.764 362.103 304.029 364.251 292.428L364.359 291.461H393.577V292.105C392.073 317.242 372.2 336.363 341.478 336.363Z" fill="#3F6FFF"/>
<defs>
<filter id="filter0_d_28579_2" x="40" y="44" width="432" height="432" filterUnits="userSpaceOnUse" color-interpolation-filters="sRGB">
<feFlood flood-opacity="0" result="BackgroundImageFix"/>
<feColorMatrix in="SourceAlpha" type="matrix" values="0 0 0 0 0 0 0 0 0 0 0 0 0 0 0 0 0 0 127 0" result="hardAlpha"/>
<feOffset dy="4"/>
<feGaussianBlur stdDeviation="5"/>
<feComposite in2="hardAlpha" operator="out"/>
<feColorMatrix type="matrix" values="0 0 0 0 0 0 0 0 0 0 0 0 0 0 0 0 0 0 0.25 0"/>
<feBlend mode="normal" in2="BackgroundImageFix" result="effect1_dropShadow_28579_2"/>
<feBlend mode="normal" in="SourceGraphic" in2="effect1_dropShadow_28579_2" result="shape"/>
</filter>
</defs>
</svg>
