<svg width="150" height="151" viewBox="0 0 150 151" fill="none" xmlns="http://www.w3.org/2000/svg">
<path d="M111.704 44.6699V137.179C111.704 144.467 105.825 150.375 98.5732 150.375H26.3536C19.1016 150.375 13.2227 144.467 13.2227 137.179V31.6156C13.2227 24.328 19.1016 18.4201 26.3536 18.4201H83.2653L111.704 44.6699Z" fill="#EBEDF0"/>
<path d="M111.704 44.6699H86.5481C84.735 44.6699 83.2654 43.1929 83.2654 41.3709L83.2653 18.4201L111.704 44.6699Z" fill="#9D9D9D"/>
<path d="M136.223 26.6248V119.134C136.223 126.422 130.344 132.33 123.092 132.33H50.8721C43.6201 132.33 37.7411 126.422 37.7411 119.134V13.5705C37.7411 6.28284 43.6201 0.375 50.8721 0.375H107.784L136.223 26.6248Z" fill="#F2F4F7"/>
<path d="M136.223 26.6248L111.067 26.6248C109.254 26.6248 107.784 25.1478 107.784 23.3258L107.784 0.375L136.223 26.6248Z" fill="#DEDEDE"/>
<path fill-rule="evenodd" clip-rule="evenodd" d="M87.8559 53.2697C75.7072 53.2697 65.8587 63.1666 65.8587 75.375C65.8587 87.5835 75.7072 97.4803 87.8559 97.4803C100.005 97.4803 109.853 87.5835 109.853 75.375C109.853 63.1666 100.005 53.2697 87.8559 53.2697ZM60.3594 75.375C60.3594 60.1145 72.67 47.7434 87.8559 47.7434C103.042 47.7434 115.352 60.1145 115.352 75.375C115.352 90.6354 103.042 103.007 87.8559 103.007C72.67 103.007 60.3594 90.6354 60.3594 75.375ZM83.162 65.1317C84.2357 64.0526 85.9768 64.0526 87.0505 65.1317L95.2995 73.4212C96.3732 74.5002 96.3732 76.2498 95.2995 77.3288L87.0505 85.6183C85.9768 86.6973 84.2357 86.6973 83.162 85.6183C82.0882 84.5393 82.0882 82.7897 83.162 81.7106L89.4666 75.375L83.162 69.0394C82.0882 67.9603 82.0882 66.2108 83.162 65.1317Z" fill="#475467" fill-opacity="0.45"/>
</svg>
