<svg width="170" height="110" viewBox="0 0 170 110" fill="none" xmlns="http://www.w3.org/2000/svg">
<mask id="mask0_29052_28" style="mask-type:alpha" maskUnits="userSpaceOnUse" x="0" y="0" width="170" height="110">
<rect width="170" height="110" fill="#D9D9D9"/>
</mask>
<g mask="url(#mask0_29052_28)">
<path d="M3.11434e-06 0H209V110H3.11434e-06" fill="#B31942"/>
<path d="M0 12.6923H209ZM209 29.6154H0ZM0 46.5385H209ZM209 63.4615H0ZM0 80.3846H209ZM209 97.3077H0Z" fill="black"/>
<path d="M209 93.0769V101.538H0V93.0769H209ZM209 76.1538V84.6154H0V76.1538H209ZM209 59.2308V67.6923H0V59.2308H209ZM209 42.3077V50.7692H0V42.3077H209ZM209 25.3846V33.8462H0V25.3846H209ZM209 8.46154V16.9231H0V8.46154H209Z" fill="white"/>
<path d="M3.11434e-06 0H83.6V59.2308H0" fill="#0A3161"/>
<path d="M6.96667 2.53846L8.95609 8.66129L3.74771 4.87717H10.1856L4.97724 8.66129L6.96667 2.53846Z" fill="white"/>
<path d="M6.96667 14.3846L8.95609 20.5074L3.74771 16.7233H10.1856L4.97724 20.5074L6.96667 14.3846Z" fill="white"/>
<path d="M6.96667 26.2308L8.95609 32.3536L3.74771 28.5695H10.1856L4.97724 32.3536L6.96667 26.2308Z" fill="white"/>
<path d="M6.96667 38.0769L8.95609 44.1998L3.74771 40.4156H10.1856L4.97724 44.1998L6.96667 38.0769Z" fill="white"/>
<path d="M6.96667 49.9231L8.95609 56.0459L3.74771 52.2618H10.1856L4.97724 56.0459L6.96667 49.9231Z" fill="white"/>
<path d="M13.9333 8.46154L15.9228 14.5844L10.7144 10.8002H17.1523L11.9439 14.5844L13.9333 8.46154Z" fill="white"/>
<path d="M13.9333 20.3077L15.9228 26.4305L10.7144 22.6464H17.1523L11.9439 26.4305L13.9333 20.3077Z" fill="white"/>
<path d="M13.9333 32.1538L15.9228 38.2767L10.7144 34.4926H17.1523L11.9439 38.2767L13.9333 32.1538Z" fill="white"/>
<path d="M13.9333 44L15.9228 50.1228L10.7144 46.3387H17.1523L11.9439 50.1228L13.9333 44Z" fill="white"/>
<path d="M20.9 2.53846L22.8894 8.66129L17.681 4.87717H24.119L18.9106 8.66129L20.9 2.53846Z" fill="white"/>
<path d="M20.9 14.3846L22.8894 20.5074L17.681 16.7233H24.119L18.9106 20.5074L20.9 14.3846Z" fill="white"/>
<path d="M20.9 26.2308L22.8894 32.3536L17.681 28.5695H24.119L18.9106 32.3536L20.9 26.2308Z" fill="white"/>
<path d="M20.9 38.0769L22.8894 44.1997L17.681 40.4156H24.119L18.9106 44.1997L20.9 38.0769Z" fill="white"/>
<path d="M20.9 49.9231L22.8894 56.0459L17.681 52.2618H24.119L18.9106 56.0459L20.9 49.9231Z" fill="white"/>
<path d="M27.8667 8.46154L29.8561 14.5844L24.6477 10.8002H31.0856L25.8772 14.5844L27.8667 8.46154Z" fill="white"/>
<path d="M27.8667 20.3077L29.8561 26.4305L24.6477 22.6464H31.0856L25.8772 26.4305L27.8667 20.3077Z" fill="white"/>
<path d="M27.8667 32.1538L29.8561 38.2767L24.6477 34.4926H31.0856L25.8772 38.2767L27.8667 32.1538Z" fill="white"/>
<path d="M27.8667 44L29.8561 50.1228L24.6477 46.3387H31.0856L25.8772 50.1228L27.8667 44Z" fill="white"/>
<path d="M34.8333 2.53846L36.8228 8.66129L31.6144 4.87717H38.0523L32.8439 8.66129L34.8333 2.53846Z" fill="white"/>
<path d="M34.8333 14.3846L36.8228 20.5074L31.6144 16.7233H38.0523L32.8439 20.5074L34.8333 14.3846Z" fill="white"/>
<path d="M34.8333 26.2308L36.8228 32.3536L31.6144 28.5695H38.0523L32.8439 32.3536L34.8333 26.2308Z" fill="white"/>
<path d="M34.8333 38.0769L36.8228 44.1997L31.6144 40.4156H38.0523L32.8439 44.1997L34.8333 38.0769Z" fill="white"/>
<path d="M34.8333 49.9231L36.8228 56.0459L31.6144 52.2618H38.0523L32.8439 56.0459L34.8333 49.9231Z" fill="white"/>
<path d="M41.8 8.46154L43.7894 14.5844L38.581 10.8002H45.019L39.8106 14.5844L41.8 8.46154Z" fill="white"/>
<path d="M41.8 20.3077L43.7894 26.4305L38.581 22.6464H45.019L39.8106 26.4305L41.8 20.3077Z" fill="white"/>
<path d="M41.8 32.1538L43.7894 38.2767L38.581 34.4926H45.019L39.8106 38.2767L41.8 32.1538Z" fill="white"/>
<path d="M41.8 44L43.7894 50.1228L38.581 46.3387H45.019L39.8106 50.1228L41.8 44Z" fill="white"/>
<path d="M48.7667 2.53846L50.7561 8.66129L45.5477 4.87717H51.9856L46.7772 8.66129L48.7667 2.53846Z" fill="white"/>
<path d="M48.7667 14.3846L50.7561 20.5074L45.5477 16.7233H51.9856L46.7772 20.5074L48.7667 14.3846Z" fill="white"/>
<path d="M48.7667 26.2308L50.7561 32.3536L45.5477 28.5695H51.9856L46.7772 32.3536L48.7667 26.2308Z" fill="white"/>
<path d="M48.7667 38.0769L50.7561 44.1997L45.5477 40.4156H51.9856L46.7772 44.1997L48.7667 38.0769Z" fill="white"/>
<path d="M48.7667 49.9231L50.7561 56.0459L45.5477 52.2618H51.9856L46.7772 56.0459L48.7667 49.9231Z" fill="white"/>
<path d="M55.7333 8.46154L57.7228 14.5844L52.5144 10.8002H58.9523L53.7439 14.5844L55.7333 8.46154Z" fill="white"/>
<path d="M55.7333 20.3077L57.7228 26.4305L52.5144 22.6464H58.9523L53.7439 26.4305L55.7333 20.3077Z" fill="white"/>
<path d="M55.7333 32.1538L57.7228 38.2767L52.5144 34.4926H58.9523L53.7439 38.2767L55.7333 32.1538Z" fill="white"/>
<path d="M55.7333 44L57.7228 50.1228L52.5144 46.3387H58.9523L53.7439 50.1228L55.7333 44Z" fill="white"/>
<path d="M62.7 2.53846L64.6894 8.66129L59.481 4.87717H65.919L60.7106 8.66129L62.7 2.53846Z" fill="white"/>
<path d="M62.7 14.3846L64.6894 20.5074L59.481 16.7233H65.919L60.7106 20.5074L62.7 14.3846Z" fill="white"/>
<path d="M62.7 26.2308L64.6894 32.3536L59.481 28.5695H65.919L60.7106 32.3536L62.7 26.2308Z" fill="white"/>
<path d="M62.7 38.0769L64.6894 44.1997L59.481 40.4156H65.919L60.7106 44.1997L62.7 38.0769Z" fill="white"/>
<path d="M62.7 49.9231L64.6894 56.0459L59.481 52.2618H65.919L60.7106 56.0459L62.7 49.9231Z" fill="white"/>
<path d="M69.6667 8.46154L71.6561 14.5844L66.4477 10.8002H72.8856L67.6772 14.5844L69.6667 8.46154Z" fill="white"/>
<path d="M69.6667 20.3077L71.6561 26.4305L66.4477 22.6464H72.8856L67.6772 26.4305L69.6667 20.3077Z" fill="white"/>
<path d="M69.6667 32.1538L71.6561 38.2767L66.4477 34.4926H72.8856L67.6772 38.2767L69.6667 32.1538Z" fill="white"/>
<path d="M69.6667 44L71.6561 50.1228L66.4477 46.3387H72.8856L67.6772 50.1228L69.6667 44Z" fill="white"/>
<path d="M76.6333 2.53846L78.6228 8.66129L73.4144 4.87717H79.8523L74.6439 8.66129L76.6333 2.53846Z" fill="white"/>
<path d="M76.6333 14.3846L78.6228 20.5074L73.4144 16.7233H79.8523L74.6439 20.5074L76.6333 14.3846Z" fill="white"/>
<path d="M76.6333 26.2308L78.6228 32.3536L73.4144 28.5695H79.8523L74.6439 32.3536L76.6333 26.2308Z" fill="white"/>
<path d="M76.6333 38.0769L78.6228 44.1997L73.4144 40.4156H79.8523L74.6439 44.1997L76.6333 38.0769Z" fill="white"/>
<path d="M76.6333 49.9231L78.6228 56.0459L73.4144 52.2618H79.8523L74.6439 56.0459L76.6333 49.9231Z" fill="white"/>
</g>
</svg>
