<svg width="150" height="150" viewBox="0 0 150 150" fill="none" xmlns="http://www.w3.org/2000/svg">
<path d="M110.269 144.444H20.5631V25.6928H70.8056L110.269 64.9294V144.444Z" fill="white"/>
<path d="M70.8053 20.1373C72.2765 20.1373 73.6879 20.7193 74.7305 21.7558L114.194 60.9922C115.243 62.0347 115.832 63.4516 115.832 64.9292V144.444C115.832 147.513 113.341 150 110.269 150H20.5631C17.4908 150 15.0002 147.513 15 144.444V25.6928C15 22.6246 17.4907 20.1373 20.5631 20.1373H70.8053ZM26.1263 138.889H104.706V67.2368L68.5082 31.2484H26.1263V138.889Z" fill="#221E1F"/>
<path d="M130.434 124.307H40.7278V5.55559H90.9702L130.434 44.9657V124.307Z" fill="white"/>
<path d="M90.97 0C92.4454 0 93.8609 0.585739 94.9042 1.62761L134.368 41.0376C135.411 42.0794 135.997 43.4922 135.997 44.9655V124.307C135.997 127.375 133.506 129.863 130.434 129.863H40.7278C37.6555 129.863 35.1648 127.375 35.1647 124.307V5.55559C35.1647 2.48732 37.6554 0 40.7278 0H90.97ZM46.291 118.752H124.87V47.2659L88.6665 11.1112H46.291V118.752Z" fill="#221E1F"/>
<path d="M130.437 44.9657L90.9727 5.55559V44.9657H130.437Z" fill="#666666"/>
<path d="M88.844 0.42318C90.9228 -0.436687 93.315 0.0387417 94.9061 1.62761L134.371 41.0376C135.961 42.6263 136.437 45.0156 135.577 47.0914C134.716 49.1674 132.686 50.5211 130.436 50.5211H90.9727C87.9003 50.5211 85.4096 48.0338 85.4096 44.9655V5.55559C85.4096 3.30856 86.7652 1.28308 88.844 0.42318ZM96.5359 39.4099H117.006L96.5359 18.9671V39.4099Z" fill="#221E1F"/>
</svg>
