<svg width="150" height="150" viewBox="0 0 150 150" fill="none" xmlns="http://www.w3.org/2000/svg">
<path d="M150 75C150 116.421 116.421 150 75 150C33.5786 150 0 116.421 0 75C0 33.5786 33.5786 0 75 0C116.421 0 150 33.5786 150 75Z" fill="#808080" fill-opacity="0.4"/>
<path d="M56.3116 43.8405L87.5555 75.0844V75.485L57.1127 105.928C53.9082 109.132 53.5077 114.74 57.1127 117.945C60.3172 120.749 64.7234 120.749 67.9279 117.544L104.379 80.6923C107.584 77.4878 107.584 72.2805 104.379 69.076L67.9279 32.6248C65.124 29.8208 60.3172 29.0197 57.1127 31.4231C53.1071 35.0281 53.1071 40.636 56.3116 43.8405Z" fill="white"/>
</svg>
