<svg width="43" height="42" viewBox="0 0 43 42" fill="none" xmlns="http://www.w3.org/2000/svg">
<path d="M16.55 41.5957C11.6833 40.4957 7.70833 38.004 4.625 34.1207C1.54167 30.2374 0 25.7957 0 20.7957C0 15.7957 1.54167 11.3624 4.625 7.49571C7.70833 3.62905 11.6833 1.14571 16.55 0.0457143C17.2833 -0.0876191 17.9417 0.0707143 18.525 0.520714C19.1083 0.970714 19.4 1.57905 19.4 2.34571C19.4 2.91238 19.2333 3.41238 18.9 3.84571C18.5667 4.27905 18.1333 4.54571 17.6 4.64571C13.8 5.51238 10.7 7.44571 8.3 10.4457C5.9 13.4457 4.7 16.8957 4.7 20.7957C4.7 24.6957 5.9 28.1457 8.3 31.1457C10.7 34.1457 13.8 36.079 17.6 36.9457C18.1333 37.0457 18.5667 37.3124 18.9 37.7457C19.2333 38.179 19.4 38.679 19.4 39.2457C19.4 40.0124 19.1083 40.6374 18.525 41.1207C17.9417 41.604 17.2833 41.7624 16.55 41.5957ZM25.95 41.5457C25.2167 41.7457 24.5583 41.604 23.975 41.1207C23.3917 40.6374 23.1 40.0124 23.1 39.2457C23.1 38.7124 23.2583 38.2207 23.575 37.7707C23.8917 37.3207 24.3167 37.0457 24.85 36.9457C25.75 36.7124 26.6417 36.429 27.525 36.0957C28.4083 35.7624 29.25 35.3124 30.05 34.7457C30.4833 34.479 30.975 34.3874 31.525 34.4707C32.075 34.554 32.55 34.779 32.95 35.1457C33.4833 35.7124 33.7167 36.3624 33.65 37.0957C33.5833 37.829 33.2333 38.3957 32.6 38.7957C31.5667 39.429 30.4917 39.979 29.375 40.4457C28.2583 40.9124 27.1167 41.279 25.95 41.5457ZM35.65 32.4957C35.2167 32.129 34.95 31.6707 34.85 31.1207C34.75 30.5707 34.8667 30.079 35.2 29.6457C35.7 28.8124 36.1333 27.9707 36.5 27.1207C36.8667 26.2707 37.1667 25.379 37.4 24.4457C37.5 23.9457 37.7667 23.529 38.2 23.1957C38.6333 22.8624 39.1333 22.6957 39.7 22.6957C40.4667 22.6957 41.075 22.9874 41.525 23.5707C41.975 24.154 42.1333 24.8124 42 25.5457C41.7333 26.7124 41.3667 27.854 40.9 28.9707C40.4333 30.0874 39.8833 31.1457 39.25 32.1457C38.85 32.779 38.2833 33.1374 37.55 33.2207C36.8167 33.304 36.1833 33.0624 35.65 32.4957ZM39.7 18.9457C39.1667 18.9457 38.675 18.7874 38.225 18.4707C37.775 18.154 37.4833 17.729 37.35 17.1957C37.15 16.2957 36.8667 15.4124 36.5 14.5457C36.1333 13.679 35.7 12.829 35.2 11.9957C34.9 11.529 34.7917 11.029 34.875 10.4957C34.9583 9.96238 35.2167 9.49571 35.65 9.09571C36.15 8.56238 36.775 8.33738 37.525 8.42071C38.275 8.50405 38.85 8.84571 39.25 9.44571C39.8833 10.479 40.425 11.554 40.875 12.6707C41.325 13.7874 41.7 14.929 42 16.0957C42.1333 16.829 41.975 17.4874 41.525 18.0707C41.075 18.654 40.4667 18.9457 39.7 18.9457ZM30.1 6.79571C29.2667 6.29571 28.4083 5.87071 27.525 5.52071C26.6417 5.17071 25.75 4.87905 24.85 4.64571C24.3167 4.54571 23.8917 4.27071 23.575 3.82071C23.2583 3.37071 23.1 2.87905 23.1 2.34571C23.1 1.57905 23.3917 0.970714 23.975 0.520714C24.5583 0.0707143 25.2167 -0.0876191 25.95 0.0457143C27.1167 0.312381 28.2583 0.670714 29.375 1.12071C30.4917 1.57071 31.5667 2.12905 32.6 2.79571C33.2 3.19571 33.5333 3.77071 33.6 4.52071C33.6667 5.27071 33.45 5.89571 32.95 6.39571C32.55 6.82905 32.0833 7.08738 31.55 7.17071C31.0167 7.25405 30.5333 7.12905 30.1 6.79571ZM23.05 24.3457L27.9 19.5457C28.2667 19.179 28.675 19.004 29.125 19.0207C29.575 19.0374 29.9833 19.229 30.35 19.5957C30.7167 19.9624 30.9 20.3874 30.9 20.8707C30.9 21.354 30.7333 21.7624 30.4 22.0957L22.95 29.4957C22.45 29.9957 21.8917 30.2457 21.275 30.2457C20.6583 30.2457 20.1167 29.9957 19.65 29.4957L12.2 22.1457C11.8333 21.779 11.65 21.354 11.65 20.8707C11.65 20.3874 11.8333 19.9624 12.2 19.5957C12.5667 19.229 12.9917 19.0457 13.475 19.0457C13.9583 19.0457 14.3833 19.229 14.75 19.5957L19.5 24.3457V12.1957C19.5 11.6957 19.675 11.279 20.025 10.9457C20.375 10.6124 20.8 10.4457 21.3 10.4457C21.8 10.4457 22.2167 10.6124 22.55 10.9457C22.8833 11.279 23.05 11.6957 23.05 12.1957V24.3457Z" fill="#2E59CB"/>
</svg>
