<svg width="230" height="230" viewBox="0 0 230 230" fill="none" xmlns="http://www.w3.org/2000/svg">
<rect x="5.33398" y="6" width="218" height="218" rx="50" fill="#808080" fill-opacity="0.5"/>
<path d="M150.562 168.283H138.729C136.595 168.283 134.792 167.543 133.32 166.064C131.847 164.585 131.11 162.747 131.11 160.548C131.11 158.351 131.847 156.522 133.32 155.062C134.792 153.602 136.595 152.872 138.729 152.872H150.562V141.029C150.562 138.893 151.301 137.088 152.779 135.614C154.256 134.141 156.066 133.405 158.209 133.405C160.351 133.405 162.151 134.141 163.61 135.614C165.069 137.088 165.799 138.893 165.799 141.029V152.872H177.632C179.766 152.872 181.569 153.611 183.042 155.091C184.514 156.569 185.25 158.408 185.25 160.607C185.25 162.804 184.514 164.633 183.042 166.093C181.569 167.553 179.766 168.283 177.632 168.283H165.799V179.963C165.799 182.207 165.059 184.066 163.581 185.539C162.104 187.013 160.294 187.75 158.151 187.75C156.009 187.75 154.209 187.013 152.75 185.539C151.291 184.066 150.562 182.207 150.562 179.963V168.283ZM70.4869 172.825C66.267 172.825 62.6723 171.339 59.7027 168.367C56.7342 165.397 55.25 161.799 55.25 157.576V72.8948C55.25 68.6273 56.7342 64.9918 59.7027 61.9885C62.6723 58.9852 66.267 57.4835 70.4869 57.4835H79.5642V54.4012C79.5642 52.5897 80.2337 51.028 81.5726 49.7162C82.9126 48.4054 84.4687 47.75 86.2409 47.75C88.0596 47.75 89.6168 48.4054 90.9125 49.7162C92.2081 51.028 92.856 52.5897 92.856 54.4012V57.4835H129.489V54.4012C129.489 52.5897 130.159 51.028 131.498 49.7162C132.838 48.4054 134.394 47.75 136.166 47.75C137.986 47.75 139.543 48.4054 140.838 49.7162C142.133 51.028 142.781 52.5897 142.781 54.4012V57.4835H151.858C156.123 57.4835 159.755 58.9852 162.756 61.9885C165.757 64.9918 167.257 68.6273 167.257 72.8948V112.315C167.257 114.56 166.487 116.418 164.946 117.891C163.404 119.365 161.567 120.102 159.435 120.102C157.302 120.102 155.506 119.365 154.047 117.891C152.588 116.418 151.858 114.56 151.858 112.315V102.258H70.4869V157.576H110.038C112.159 157.576 113.986 158.316 115.518 159.795C117.052 161.274 117.819 163.085 117.819 165.23C117.819 167.373 117.052 169.175 115.518 170.635C113.986 172.095 112.159 172.825 110.038 172.825H70.4869ZM70.4869 92.524H151.858V72.8948H70.4869V92.524Z" fill="#AAAAAA"/>
</svg>
