<svg width="218" height="218" viewBox="0 0 218 218" fill="none" xmlns="http://www.w3.org/2000/svg">
<g clip-path="url(#clip0_29017_39)">
<path d="M149.177 158.421H136.616C134.35 158.421 132.436 157.639 130.874 156.075C129.31 154.512 128.529 152.568 128.529 150.244C128.529 147.921 129.31 145.987 130.874 144.444C132.436 142.9 134.35 142.129 136.616 142.129H149.177V129.609C149.177 127.351 149.962 125.443 151.531 123.885C153.099 122.328 155.021 121.549 157.295 121.549C159.569 121.549 161.48 122.328 163.029 123.885C164.577 125.443 165.352 127.351 165.352 129.609V142.129H177.913C180.178 142.129 182.093 142.911 183.656 144.475C185.219 146.038 186 147.981 186 150.305C186 152.629 185.219 154.562 183.656 156.105C182.093 157.649 180.178 158.421 177.913 158.421H165.352V170.768C165.352 173.141 164.567 175.105 162.998 176.663C161.43 178.221 159.508 179 157.233 179C154.96 179 153.049 178.221 151.5 176.663C149.951 175.105 149.177 173.141 149.177 170.768V158.421ZM64.1746 163.222C59.695 163.222 55.8791 161.652 52.7268 158.51C49.5756 155.369 48 151.567 48 147.102V57.5817C48 53.0702 49.5756 49.227 52.7268 46.0521C55.8791 42.8772 59.695 41.2897 64.1746 41.2897H73.8105V38.0313C73.8105 36.1163 74.5211 34.4653 75.9424 33.0785C77.3649 31.6928 79.0167 31 80.898 31C82.8287 31 84.4817 31.6928 85.8571 33.0785C87.2325 34.4653 87.9202 36.1163 87.9202 38.0313V41.2897H126.808V38.0313C126.808 36.1163 127.519 34.4653 128.94 33.0785C130.362 31.6928 132.014 31 133.896 31C135.827 31 137.48 31.6928 138.855 33.0785C140.23 34.4653 140.918 36.1163 140.918 38.0313V41.2897H150.554C155.08 41.2897 158.936 42.8772 162.122 46.0521C165.307 49.227 166.9 53.0702 166.9 57.5817V99.2549C166.9 101.627 166.082 103.592 164.447 105.149C162.81 106.708 160.859 107.487 158.596 107.487C156.332 107.487 154.425 106.708 152.877 105.149C151.328 103.592 150.554 101.627 150.554 99.2549V88.6222H64.1746V147.102H106.16C108.411 147.102 110.351 147.884 111.977 149.448C113.605 151.011 114.419 152.926 114.419 155.193C114.419 157.459 113.605 159.364 111.977 160.907C110.351 162.451 108.411 163.222 106.16 163.222H64.1746ZM64.1746 78.3326H150.554V57.5817H64.1746V78.3326Z" fill="#AAAAAA"/>
</g>
<defs>
<clipPath id="clip0_29017_39">
<rect width="155.294" height="155.294" fill="white" transform="translate(31 31)"/>
</clipPath>
</defs>
</svg>
