<svg width="230" height="230" viewBox="0 0 230 230" fill="none" xmlns="http://www.w3.org/2000/svg">
<rect x="5.33398" y="6" width="218" height="218" rx="50" fill="#808080" fill-opacity="0.5"/>
<path d="M143.913 162.506H132.626C130.59 162.506 128.87 161.804 127.466 160.398C126.062 158.994 125.359 157.247 125.359 155.158C125.359 153.071 126.062 151.333 127.466 149.946C128.87 148.559 130.59 147.866 132.626 147.866H143.913V136.615C143.913 134.586 144.618 132.871 146.028 131.471C147.437 130.072 149.163 129.372 151.207 129.372C153.25 129.372 154.968 130.072 156.359 131.471C157.751 132.871 158.446 134.586 158.446 136.615V147.866H169.733C171.769 147.866 173.489 148.568 174.894 149.974C176.298 151.378 177 153.125 177 155.214C177 157.301 176.298 159.039 174.894 160.426C173.489 161.813 171.769 162.506 169.733 162.506H158.446V173.603C158.446 175.734 157.741 177.5 156.331 178.899C154.922 180.3 153.196 181 151.152 181C149.109 181 147.392 180.3 146 178.899C144.608 177.5 143.913 175.734 143.913 173.603V162.506ZM67.5337 166.822C63.5086 166.822 60.0798 165.41 57.2472 162.587C54.4157 159.764 53 156.347 53 152.335V71.8876C53 67.8334 54.4157 64.3797 57.2472 61.5265C60.0798 58.6734 63.5086 57.2468 67.5337 57.2468H76.192V54.3187C76.192 52.5977 76.8306 51.1141 78.1077 49.8679C79.3858 48.6226 80.8701 48 82.5606 48C84.2953 48 85.7806 48.6226 87.0165 49.8679C88.2524 51.1141 88.8703 52.5977 88.8703 54.3187V57.2468H123.813V54.3187C123.813 52.5977 124.452 51.1141 125.729 49.8679C127.007 48.6226 128.491 48 130.181 48C131.917 48 133.403 48.6226 134.637 49.8679C135.873 51.1141 136.491 52.5977 136.491 54.3187V57.2468H145.15C149.217 57.2468 152.682 58.6734 155.544 61.5265C158.407 64.3797 159.838 67.8334 159.838 71.8876V109.337C159.838 111.469 159.103 113.235 157.633 114.634C156.162 116.034 154.41 116.735 152.376 116.735C150.342 116.735 148.628 116.034 147.237 114.634C145.845 113.235 145.15 111.469 145.15 109.337V99.7822H67.5337V152.335H105.259C107.283 152.335 109.025 153.038 110.487 154.443C111.949 155.848 112.681 157.569 112.681 159.606C112.681 161.642 111.949 163.354 110.487 164.741C109.025 166.128 107.283 166.822 105.259 166.822H67.5337ZM67.5337 90.5353H145.15V71.8876H67.5337V90.5353Z" fill="#AAAAAA"/>
</svg>
