<svg width="156" height="156" viewBox="0 0 156 156" fill="none" xmlns="http://www.w3.org/2000/svg">
<g clip-path="url(#clip0_28679_6)">
<path d="M118.177 127.421H105.616C103.35 127.421 101.436 126.639 99.874 125.075C98.3105 123.512 97.5287 121.568 97.5287 119.244C97.5287 116.921 98.3105 114.987 99.874 113.444C101.436 111.9 103.35 111.129 105.616 111.129H118.177V98.6095C118.177 96.3515 118.962 94.4433 120.531 92.885C122.099 91.3278 124.021 90.5492 126.295 90.5492C128.569 90.5492 130.48 91.3278 132.029 92.885C133.577 94.4433 134.352 96.3515 134.352 98.6095V111.129H146.913C149.178 111.129 151.093 111.911 152.656 113.475C154.219 115.038 155 116.981 155 119.305C155 121.629 154.219 123.562 152.656 125.105C151.093 126.649 149.178 127.421 146.913 127.421H134.352V139.768C134.352 142.141 133.567 144.105 131.998 145.663C130.43 147.221 128.508 148 126.233 148C123.96 148 122.049 147.221 120.5 145.663C118.951 144.105 118.177 142.141 118.177 139.768V127.421ZM33.1746 132.222C28.695 132.222 24.8791 130.652 21.7268 127.51C18.5756 124.369 17 120.567 17 116.102V26.5817C17 22.0702 18.5756 18.227 21.7268 15.0521C24.8791 11.8772 28.695 10.2897 33.1746 10.2897H42.8105V7.03129C42.8105 5.11626 43.5211 3.46534 44.9424 2.07852C46.3649 0.692838 48.0167 0 49.898 0C51.8287 0 53.4817 0.692838 54.8571 2.07852C56.2325 3.46534 56.9202 5.11626 56.9202 7.03129V10.2897H95.808V7.03129C95.808 5.11626 96.5186 3.46534 97.9399 2.07852C99.3624 0.692838 101.014 0 102.896 0C104.827 0 106.48 0.692838 107.855 2.07852C109.23 3.46534 109.918 5.11626 109.918 7.03129V10.2897H119.554C124.08 10.2897 127.936 11.8772 131.122 15.0521C134.307 18.227 135.9 22.0702 135.9 26.5817V68.2549C135.9 70.6273 135.082 72.592 133.447 74.1492C131.81 75.7075 129.859 76.4867 127.596 76.4867C125.332 76.4867 123.425 75.7075 121.877 74.1492C120.328 72.592 119.554 70.6273 119.554 68.2549V57.6222H33.1746V116.102H75.1596C77.4114 116.102 79.3507 116.884 80.9773 118.448C82.6051 120.011 83.419 121.926 83.419 124.193C83.419 126.459 82.6051 128.364 80.9773 129.907C79.3507 131.451 77.4114 132.222 75.1596 132.222H33.1746ZM33.1746 47.3326H119.554V26.5817H33.1746V47.3326Z" fill="#AAAAAA"/>
</g>
<defs>
<clipPath id="clip0_28679_6">
<rect width="155.294" height="155.294" fill="white"/>
</clipPath>
</defs>
</svg>
