<svg width="219" height="218" viewBox="0 0 219 218" fill="none" xmlns="http://www.w3.org/2000/svg">
<rect width="218" height="218" rx="50" fill="#808080" fill-opacity="0.5"/>
<g clip-path="url(#clip0_29017_14)">
<path d="M149.843 158.421H137.282C135.016 158.421 133.102 157.639 131.54 156.075C129.976 154.512 129.195 152.568 129.195 150.244C129.195 147.921 129.976 145.987 131.54 144.444C133.102 142.9 135.016 142.129 137.282 142.129H149.843V129.609C149.843 127.351 150.628 125.443 152.197 123.885C153.765 122.328 155.687 121.549 157.961 121.549C160.235 121.549 162.146 122.328 163.695 123.885C165.243 125.443 166.018 127.351 166.018 129.609V142.129H178.579C180.844 142.129 182.759 142.911 184.322 144.475C185.885 146.038 186.666 147.981 186.666 150.305C186.666 152.629 185.885 154.562 184.322 156.105C182.759 157.649 180.844 158.421 178.579 158.421H166.018V170.768C166.018 173.141 165.233 175.105 163.664 176.663C162.096 178.221 160.174 179 157.899 179C155.626 179 153.715 178.221 152.166 176.663C150.617 175.105 149.843 173.141 149.843 170.768V158.421ZM64.8406 163.222C60.361 163.222 56.5451 161.652 53.3928 158.51C50.2416 155.369 48.666 151.567 48.666 147.102V57.5817C48.666 53.0702 50.2416 49.227 53.3928 46.0521C56.5451 42.8772 60.361 41.2897 64.8406 41.2897H74.4765V38.0313C74.4765 36.1163 75.1871 34.4653 76.6084 33.0785C78.0309 31.6928 79.6828 31 81.564 31C83.4947 31 85.1477 31.6928 86.5231 33.0785C87.8985 34.4653 88.5862 36.1163 88.5862 38.0313V41.2897H127.474V38.0313C127.474 36.1163 128.185 34.4653 129.606 33.0785C131.028 31.6928 132.68 31 134.562 31C136.493 31 138.146 31.6928 139.521 33.0785C140.896 34.4653 141.584 36.1163 141.584 38.0313V41.2897H151.22C155.746 41.2897 159.602 42.8772 162.788 46.0521C165.973 49.227 167.566 53.0702 167.566 57.5817V99.2549C167.566 101.627 166.748 103.592 165.113 105.149C163.476 106.708 161.525 107.487 159.262 107.487C156.998 107.487 155.091 106.708 153.543 105.149C151.994 103.592 151.22 101.627 151.22 99.2549V88.6222H64.8406V147.102H106.826C109.077 147.102 111.017 147.884 112.643 149.448C114.271 151.011 115.085 152.926 115.085 155.193C115.085 157.459 114.271 159.364 112.643 160.907C111.017 162.451 109.077 163.222 106.826 163.222H64.8406ZM64.8406 78.3326H151.22V57.5817H64.8406V78.3326Z" fill="#AAAAAA"/>
</g>
<defs>
<clipPath id="clip0_29017_14">
<rect width="155.294" height="155.294" fill="white" transform="translate(31.666 31)"/>
</clipPath>
</defs>
</svg>
