<svg width="230" height="230" viewBox="0 0 230 230" fill="none" xmlns="http://www.w3.org/2000/svg">
<rect x="5.33398" y="6" width="218" height="218" rx="50" fill="#808080" fill-opacity="0.5"/>
<path d="M144.829 164.561H133.087C130.969 164.561 129.18 163.832 127.719 162.374C126.258 160.916 125.527 159.104 125.527 156.937C125.527 154.771 126.258 152.968 127.719 151.529C129.18 150.09 130.969 149.37 133.087 149.37H144.829V137.697C144.829 135.591 145.562 133.812 147.029 132.359C148.495 130.907 150.291 130.181 152.417 130.181C154.543 130.181 156.329 130.907 157.777 132.359C159.224 133.812 159.948 135.591 159.948 137.697V149.37H171.69C173.808 149.37 175.598 150.099 177.059 151.557C178.52 153.015 179.25 154.827 179.25 156.994C179.25 159.161 178.52 160.963 177.059 162.402C175.598 163.842 173.808 164.561 171.69 164.561H159.948V176.074C159.948 178.287 159.215 180.118 157.748 181.57C156.282 183.023 154.486 183.75 152.359 183.75C150.234 183.75 148.448 183.023 147 181.57C145.552 180.118 144.829 178.287 144.829 176.074V164.561ZM65.3697 169.039C61.1823 169.039 57.6152 167.574 54.6685 164.644C51.7228 161.716 50.25 158.17 50.25 154.007V70.5356C50.25 66.329 51.7228 62.7455 54.6685 59.7851C57.6152 56.8246 61.1823 55.3444 65.3697 55.3444H74.3772V52.3062C74.3772 50.5206 75.0415 48.9812 76.3701 47.6881C77.6998 46.396 79.2439 45.75 81.0025 45.75C82.8072 45.75 84.3524 46.396 85.6381 47.6881C86.9239 48.9812 87.5667 50.5206 87.5667 52.3062V55.3444H123.918V52.3062C123.918 50.5206 124.583 48.9812 125.911 47.6881C127.241 46.396 128.785 45.75 130.544 45.75C132.349 45.75 133.895 46.396 135.179 47.6881C136.465 48.9812 137.108 50.5206 137.108 52.3062V55.3444H146.115C150.347 55.3444 153.951 56.8246 156.929 59.7851C159.907 62.7455 161.396 66.329 161.396 70.5356V109.393C161.396 111.605 160.631 113.437 159.102 114.889C157.572 116.342 155.749 117.069 153.633 117.069C151.517 117.069 149.734 116.342 148.287 114.889C146.839 113.437 146.115 111.605 146.115 109.393V99.4789H65.3697V154.007H104.617C106.722 154.007 108.534 154.736 110.055 156.195C111.576 157.652 112.337 159.438 112.337 161.552C112.337 163.665 111.576 165.441 110.055 166.88C108.534 168.319 106.722 169.039 104.617 169.039H65.3697ZM65.3697 89.8844H146.115V70.5356H65.3697V89.8844Z" fill="#AAAAAA"/>
</svg>
