<svg width="156" height="156" viewBox="0 0 156 156" fill="none" xmlns="http://www.w3.org/2000/svg">
<g clip-path="url(#clip0_28679_6)">
<path d="M109.579 122.1H95.3684C94.0263 122.1 92.9016 121.644 91.9942 120.733C91.0858 119.823 90.6316 118.694 90.6316 117.347C90.6316 116.001 91.0858 114.881 91.9942 113.989C92.9016 113.096 94.0263 112.65 95.3684 112.65H109.579V98.475C109.579 97.1362 110.036 96.0138 110.949 95.1076C111.862 94.2025 112.994 93.75 114.344 93.75C115.694 93.75 116.816 94.2025 117.711 95.1076C118.605 96.0138 119.053 97.1362 119.053 98.475V112.65H133.263C134.605 112.65 135.731 113.106 136.639 114.017C137.546 114.927 138 116.056 138 117.403C138 118.749 137.546 119.869 136.639 120.761C135.731 121.654 134.605 122.1 133.263 122.1H119.053V136.275C119.053 137.614 118.596 138.736 117.682 139.641C116.769 140.547 115.638 141 114.287 141C112.938 141 111.816 140.547 110.921 139.641C110.026 138.736 109.579 137.614 109.579 136.275V122.1ZM27.4737 128.4C24.9474 128.4 22.7368 127.455 20.8421 125.565C18.9474 123.675 18 121.47 18 118.95V33.9C18 31.38 18.9474 29.175 20.8421 27.285C22.7368 25.395 24.9474 24.45 27.4737 24.45H37.7368V20.04C37.7368 18.612 38.2211 17.415 39.1895 16.449C40.1579 15.483 41.3579 15 42.7895 15C44.2653 15 45.5026 15.483 46.5016 16.449C47.5005 17.415 48 18.612 48 20.04V24.45H89.0526V20.04C89.0526 18.612 89.5368 17.415 90.5053 16.449C91.4737 15.483 92.6737 15 94.1053 15C95.5821 15 96.8195 15.483 97.8174 16.449C98.8163 17.415 99.3158 18.612 99.3158 20.04V24.45H109.579C112.105 24.45 114.316 25.395 116.211 27.285C118.105 29.175 119.053 31.38 119.053 33.9V76.2675C119.053 77.6062 118.596 78.7282 117.682 79.6333C116.769 80.5394 115.638 80.9925 114.287 80.9925C112.938 80.9925 111.816 80.5394 110.921 79.6333C110.026 78.7282 109.579 77.6062 109.579 76.2675V63.825H27.4737V118.95H73.2632C74.6053 118.95 75.7305 119.406 76.6389 120.317C77.5463 121.227 78 122.356 78 123.703C78 125.049 77.5463 126.169 76.6389 127.061C75.7305 127.954 74.6053 128.4 73.2632 128.4H27.4737ZM27.4737 54.375H109.579V33.9H27.4737V54.375Z" fill="#AAAAAA"/>
</g>
<defs>
<clipPath id="clip0_28679_6">
<rect width="155.294" height="155.294" fill="white"/>
</clipPath>
</defs>
</svg>
