<svg width="230" height="230" viewBox="0 0 230 230" fill="none" xmlns="http://www.w3.org/2000/svg">
<rect x="5.33398" y="6" width="218" height="218" rx="50" fill="#808080" fill-opacity="0.5"/>
<path d="M148.776 172.03H135.395C132.982 172.03 130.943 171.195 129.279 169.526C127.613 167.857 126.781 165.782 126.781 163.301C126.781 160.821 127.613 158.757 129.279 157.109C130.943 155.461 132.982 154.637 135.395 154.637H148.776V141.272C148.776 138.862 149.611 136.825 151.283 135.161C152.953 133.499 155 132.667 157.423 132.667C159.845 132.667 161.881 133.499 163.531 135.161C165.18 136.825 166.005 138.862 166.005 141.272V154.637H179.385C181.799 154.637 183.838 155.472 185.504 157.142C187.168 158.81 188 160.885 188 163.367C188 165.847 187.168 167.911 185.504 169.559C183.838 171.206 181.799 172.03 179.385 172.03H166.005V185.212C166.005 187.745 165.169 189.842 163.498 191.505C161.827 193.168 159.78 194 157.357 194C154.935 194 152.9 193.168 151.25 191.505C149.6 189.842 148.776 187.745 148.776 185.212V172.03ZM58.2294 177.156C53.4577 177.156 49.3929 175.479 46.035 172.125C42.6783 168.772 41 164.713 41 159.947V64.3778C41 59.5615 42.6783 55.4586 46.035 52.0691C49.3929 48.6797 53.4577 46.9849 58.2294 46.9849H68.4938V43.5064C68.4938 41.462 69.2508 39.6995 70.7648 38.219C72.28 36.7397 74.0396 36 76.0436 36C78.1001 36 79.8609 36.7397 81.326 38.219C82.7911 39.6995 83.5237 41.462 83.5237 43.5064V46.9849H124.948V43.5064C124.948 41.462 125.705 39.6995 127.219 38.219C128.734 36.7397 130.493 36 132.497 36C134.555 36 136.316 36.7397 137.78 38.219C139.245 39.6995 139.978 41.462 139.978 43.5064V46.9849H150.242C155.064 46.9849 159.171 48.6797 162.565 52.0691C165.958 55.4586 167.655 59.5615 167.655 64.3778V108.867C167.655 111.399 166.783 113.497 165.041 115.159C163.297 116.823 161.22 117.655 158.809 117.655C156.397 117.655 154.366 116.823 152.716 115.159C151.067 113.497 150.242 111.399 150.242 108.867V97.5156H58.2294V159.947H102.953C105.351 159.947 107.417 160.782 109.15 162.451C110.884 164.12 111.751 166.164 111.751 168.585C111.751 171.004 110.884 173.037 109.15 174.685C107.417 176.333 105.351 177.156 102.953 177.156H58.2294ZM58.2294 86.5307H150.242V64.3778H58.2294V86.5307Z" fill="#AAAAAA"/>
</svg>
