<svg width="230" height="230" viewBox="0 0 230 230" fill="none" xmlns="http://www.w3.org/2000/svg">
<path d="M150.948 165.783H139.067C136.924 165.783 135.114 165.043 133.636 163.564C132.157 162.085 131.417 160.247 131.417 158.048C131.417 155.851 132.157 154.022 133.636 152.562C135.114 151.102 136.924 150.372 139.067 150.372H150.948V138.529C150.948 136.393 151.69 134.588 153.174 133.114C154.657 131.641 156.475 130.905 158.626 130.905C160.777 130.905 162.584 131.641 164.049 133.114C165.514 134.588 166.246 136.393 166.246 138.529V150.372H178.127C180.27 150.372 182.081 151.111 183.56 152.591C185.037 154.069 185.776 155.908 185.776 158.107C185.776 160.304 185.037 162.133 183.56 163.593C182.081 165.053 180.27 165.783 178.127 165.783H166.246V177.463C166.246 179.707 165.504 181.566 164.02 183.039C162.537 184.513 160.719 185.25 158.568 185.25C156.417 185.25 154.609 184.513 153.145 183.039C151.68 181.566 150.948 179.707 150.948 177.463V165.783ZM70.5486 170.325C66.3116 170.325 62.7024 168.839 59.7208 165.867C56.7403 162.897 55.25 159.299 55.25 155.076V70.3948C55.25 66.1273 56.7403 62.4918 59.7208 59.4885C62.7024 56.4852 66.3116 54.9835 70.5486 54.9835H79.6627V51.9012C79.6627 50.0897 80.3348 48.528 81.6791 47.2162C83.0245 45.9054 84.587 45.25 86.3664 45.25C88.1924 45.25 89.7559 45.9054 91.0569 47.2162C92.3578 48.528 93.0082 50.0897 93.0082 51.9012V54.9835H129.79V51.9012C129.79 50.0897 130.462 48.528 131.806 47.2162C133.152 45.9054 134.714 45.25 136.494 45.25C138.321 45.25 139.884 45.9054 141.184 47.2162C142.485 48.528 143.136 50.0897 143.136 51.9012V54.9835H152.25C156.531 54.9835 160.178 56.4852 163.191 59.4885C166.204 62.4918 167.711 66.1273 167.711 70.3948V109.815C167.711 112.06 166.937 113.918 165.39 115.391C163.842 116.865 161.997 117.602 159.857 117.602C157.715 117.602 155.912 116.865 154.447 115.391C152.982 113.918 152.25 112.06 152.25 109.815V99.7575H70.5486V155.076H110.26C112.39 155.076 114.224 155.816 115.762 157.295C117.302 158.774 118.072 160.585 118.072 162.73C118.072 164.873 117.302 166.675 115.762 168.135C114.224 169.595 112.39 170.325 110.26 170.325H70.5486ZM70.5486 90.024H152.25V70.3948H70.5486V90.024Z" fill="#AAAAAA"/>
</svg>
