<svg width="230" height="230" viewBox="0 0 230 230" fill="none" xmlns="http://www.w3.org/2000/svg">
<path d="M145.829 167.061H134.087C131.969 167.061 130.18 166.332 128.719 164.874C127.258 163.416 126.527 161.604 126.527 159.437C126.527 157.271 127.258 155.468 128.719 154.029C130.18 152.59 131.969 151.87 134.087 151.87H145.829V140.197C145.829 138.091 146.562 136.312 148.029 134.859C149.495 133.407 151.291 132.681 153.417 132.681C155.543 132.681 157.329 133.407 158.777 134.859C160.224 136.312 160.948 138.091 160.948 140.197V151.87H172.69C174.808 151.87 176.598 152.599 178.059 154.057C179.52 155.515 180.25 157.327 180.25 159.494C180.25 161.661 179.52 163.463 178.059 164.902C176.598 166.342 174.808 167.061 172.69 167.061H160.948V178.574C160.948 180.787 160.215 182.618 158.748 184.07C157.282 185.523 155.486 186.25 153.359 186.25C151.234 186.25 149.448 185.523 148 184.07C146.552 182.618 145.829 180.787 145.829 178.574V167.061ZM66.3697 171.539C62.1823 171.539 58.6152 170.074 55.6685 167.144C52.7228 164.216 51.25 160.67 51.25 156.507V73.0356C51.25 68.829 52.7228 65.2455 55.6685 62.2851C58.6152 59.3246 62.1823 57.8444 66.3697 57.8444H75.3772V54.8062C75.3772 53.0206 76.0415 51.4812 77.3701 50.1881C78.6998 48.896 80.2439 48.25 82.0025 48.25C83.8072 48.25 85.3524 48.896 86.6381 50.1881C87.9239 51.4812 88.5667 53.0206 88.5667 54.8062V57.8444H124.918V54.8062C124.918 53.0206 125.583 51.4812 126.911 50.1881C128.241 48.896 129.785 48.25 131.544 48.25C133.349 48.25 134.895 48.896 136.179 50.1881C137.465 51.4812 138.108 53.0206 138.108 54.8062V57.8444H147.115C151.347 57.8444 154.951 59.3246 157.929 62.2851C160.907 65.2455 162.396 68.829 162.396 73.0356V111.893C162.396 114.105 161.631 115.937 160.102 117.389C158.572 118.842 156.749 119.569 154.633 119.569C152.517 119.569 150.734 118.842 149.287 117.389C147.839 115.937 147.115 114.105 147.115 111.893V101.979H66.3697V156.507H105.617C107.722 156.507 109.534 157.236 111.055 158.695C112.576 160.152 113.337 161.938 113.337 164.052C113.337 166.165 112.576 167.941 111.055 169.38C109.534 170.819 107.722 171.539 105.617 171.539H66.3697ZM66.3697 92.3844H147.115V73.0356H66.3697V92.3844Z" fill="#AAAAAA"/>
</svg>
