<svg width="156" height="156" viewBox="0 0 156 156" fill="none" xmlns="http://www.w3.org/2000/svg">
<path d="M78.09 86.9226L96.3861 105.219C97.5428 106.375 99.0149 106.954 100.802 106.954C102.59 106.954 104.062 106.375 105.219 105.219C106.375 104.062 106.954 102.59 106.954 100.802C106.954 99.0149 106.375 97.5428 105.219 96.3861L86.9226 78.09L105.219 59.7939C106.375 58.6372 106.954 57.1652 106.954 55.3776C106.954 53.5901 106.375 52.118 105.219 50.9613C104.062 49.8047 102.59 49.2263 100.802 49.2263C99.0149 49.2263 97.5428 49.8047 96.3861 50.9613L78.09 69.2574L59.7939 50.9613C58.6372 49.8047 57.1652 49.2263 55.3776 49.2263C53.5901 49.2263 52.118 49.8047 50.9613 50.9613C49.8047 52.118 49.2263 53.5901 49.2263 55.3776C49.2263 57.1652 49.8047 58.6372 50.9613 59.7939L69.2574 78.09L50.9613 96.3861C49.8047 97.5428 49.2263 99.0149 49.2263 100.802C49.2263 102.59 49.8047 104.062 50.9613 105.219C52.118 106.375 53.5901 106.954 55.3776 106.954C57.1652 106.954 58.6372 106.375 59.7939 105.219L78.09 86.9226ZM78.09 141.18C69.3626 141.18 61.1608 139.524 53.4849 136.212C45.8089 132.899 39.1319 128.404 33.4538 122.726C27.7757 117.048 23.2806 110.371 19.9683 102.695C16.6561 95.0192 15 86.8175 15 78.09C15 69.3626 16.6561 61.1608 19.9683 53.4849C23.2806 45.8089 27.7757 39.1319 33.4538 33.4538C39.1319 27.7757 45.8089 23.2806 53.4849 19.9683C61.1608 16.6561 69.3626 15 78.09 15C86.8175 15 95.0192 16.6561 102.695 19.9683C110.371 23.2806 117.048 27.7757 122.726 33.4538C128.404 39.1319 132.899 45.8089 136.212 53.4849C139.524 61.1608 141.18 69.3626 141.18 78.09C141.18 86.8175 139.524 95.0192 136.212 102.695C132.899 110.371 128.404 117.048 122.726 122.726C117.048 128.404 110.371 132.899 102.695 136.212C95.0192 139.524 86.8175 141.18 78.09 141.18Z" fill="#AAAAAA"/>
</svg>
