<svg width="48" height="48" viewBox="0 0 48 48" fill="none" xmlns="http://www.w3.org/2000/svg">
<rect x="5" y="4" width="38" height="39" rx="9" fill="white"/>
<path d="M14.0928 36C13.2533 36 12.5279 35.7062 11.9166 35.1186C11.3055 34.5308 11 33.8333 11 33.0261V14.0065C11 13.1904 11.3055 12.4853 11.9166 11.8912C12.5279 11.2971 13.2533 11 14.0928 11H33.8732C34.722 11 35.4553 11.2971 36.0732 11.8912C36.6911 12.4853 37 13.1904 37 14.0065V33.0261C37 33.8333 36.6911 34.5308 36.0732 35.1186C35.4553 35.7062 34.722 36 33.8732 36H14.0928ZM14.0928 33.0261H33.8732V14.0065H14.0928V33.0261ZM16.8458 30.3791H31.1882C31.4828 30.3791 31.7037 30.2415 31.851 29.9663C31.9983 29.6914 31.9813 29.4259 31.8 29.1699L27.9595 24.0719C27.7938 23.9194 27.5769 23.8377 27.3086 23.8268C27.0401 23.8159 26.8379 23.9085 26.702 24.1046L22.8275 28.8431L20.3464 25.5098C20.1581 25.3137 19.9298 25.2211 19.6616 25.232C19.3931 25.2429 19.1909 25.3355 19.0549 25.5098L16.234 29.1699C16.0301 29.4259 16.0017 29.6914 16.149 29.9663C16.2963 30.2415 16.5285 30.3791 16.8458 30.3791Z" fill="#434343"/>
</svg>
