<svg width="48" height="48" viewBox="0 0 48 48" fill="none" xmlns="http://www.w3.org/2000/svg">
<path d="M24.4076 43C21.7275 43 19.2322 42.4442 16.8294 41.4252C14.4265 40.4062 12.3934 39.0166 10.6374 37.2565C8.88152 35.4964 7.49526 33.4584 6.47867 31.0499C5.46209 28.734 5 26.2328 5 23.5463C5 20.8599 5.5545 18.3587 6.57109 15.9501C7.58768 13.5416 8.97393 11.5036 10.7299 9.74347C12.4858 7.98337 14.519 6.59382 16.9218 5.57482C19.3246 4.55582 21.8199 4 24.5 4C27.1801 4 29.6754 4.55582 32.0782 5.57482C34.481 6.59382 36.5142 7.98337 38.2701 9.74347C40.0261 11.5036 41.4123 13.5416 42.4289 15.9501C43.4455 18.3587 44 20.8599 44 23.5463C44 26.2328 43.4455 28.734 42.4289 31.1425C41.4123 33.5511 40.0261 35.5891 38.2701 37.3492C36.5142 39.1093 34.481 40.4988 32.0782 41.5178C29.5829 42.5368 27.0877 43 24.4076 43ZM25.7938 38.7387C29.7678 38.3682 33.0024 36.7934 35.6825 34.0143C38.3626 31.2352 39.6564 27.715 39.6564 23.5463C39.6564 19.4703 38.3626 15.9501 35.6825 13.171C33.0024 10.2993 29.7678 8.72447 25.7938 8.26128V38.7387Z" fill="white"/>
</svg>
