<svg width="48" height="48" viewBox="0 0 48 48" fill="none" xmlns="http://www.w3.org/2000/svg">
<rect x="4" y="4" width="39" height="39" rx="9" fill="white"/>
<rect x="11" y="34" width="25" height="3" rx="1.5" fill="#434343"/>
<path d="M10.4403 31H36.61C37.1475 31 37.5506 30.7061 37.8193 30.1182C38.088 29.5308 38.057 28.9637 37.7263 28.4168L30.7188 17.5255C30.4165 17.1997 30.0207 17.0251 29.5312 17.0018C29.0413 16.9786 28.6723 17.1764 28.4243 17.5953L21.3547 27.7186L16.8277 20.5974C16.4842 20.1785 16.0676 19.9807 15.5781 20.0039C15.0882 20.0272 14.7193 20.225 14.4712 20.5974L9.32407 28.4168C8.95199 28.9637 8.90031 29.5308 9.16904 30.1182C9.43776 30.7061 9.86152 31 10.4403 31Z" fill="#434343"/>
</svg>
