<svg width="48" height="48" viewBox="0 0 48 48" fill="none" xmlns="http://www.w3.org/2000/svg">
<rect x="5" y="4" width="38" height="39" rx="9" fill="white"/>
<path d="M13.3307 38C12.4267 38 11.6455 37.671 10.9871 37.0129C10.329 36.3545 10 35.5733 10 34.6693V13.3673C10 12.4533 10.329 11.6635 10.9871 10.9981C11.6455 10.3327 12.4267 10 13.3307 10H34.6327C35.5467 10 36.3365 10.3327 37.0019 10.9981C37.6673 11.6635 38 12.4533 38 13.3673V34.6693C38 35.5733 37.6673 36.3545 37.0019 37.0129C36.3365 37.671 35.5467 38 34.6327 38H13.3307ZM13.3307 34.6693H34.6327V13.3673H13.3307V34.6693ZM16.2954 31.7046H31.7412C32.0584 31.7046 32.2963 31.5505 32.4549 31.2423C32.6135 30.9344 32.5952 30.637 32.4 30.3503L28.2641 24.6405C28.0857 24.4697 27.852 24.3782 27.5631 24.366C27.274 24.3538 27.0562 24.4575 26.9098 24.6771L22.7373 29.9843L20.0654 26.251C19.8626 26.0314 19.6168 25.9277 19.3278 25.9399C19.0387 25.9521 18.8209 26.0558 18.6745 26.251L15.6366 30.3503C15.417 30.637 15.3865 30.9344 15.5451 31.2423C15.7037 31.5505 15.9538 31.7046 16.2954 31.7046Z" fill="#434343"/>
</svg>
