<?xml version="1.0" encoding="utf-8"?>
<!-- Generator: Adobe Illustrator 28.3.0, SVG Export Plug-In . SVG Version: 6.00 Build 0)  -->
<svg version="1.1" id="Слой_1" xmlns="http://www.w3.org/2000/svg" xmlns:xlink="http://www.w3.org/1999/xlink" x="0px" y="0px"
	 viewBox="0 0 48 48" style="enable-background:new 0 0 48 48;" xml:space="preserve">
<style type="text/css">
	.st0{fill:#FFFFFF;}
</style>
<path class="st0" d="M24,45c-2.9,0-5.6-0.6-8.2-1.7c-2.6-1.1-4.8-2.6-6.7-4.5s-3.4-4.1-4.5-6.7C3.5,29.6,3,26.9,3,24
	s0.6-5.6,1.7-8.2S7.3,11,9.2,9.1s4.1-3.4,6.7-4.5s5.3-1.7,8.2-1.7s5.6,0.6,8.2,1.7s4.8,2.6,6.7,4.5s3.4,4.1,4.5,6.7s1.7,5.3,1.7,8.2
	s-0.6,5.6-1.7,8.2S40.9,37,39,38.9s-4.1,3.4-6.7,4.5C29.6,44.5,26.9,45,24,45z M25.5,40.4c4.3-0.4,7.8-2.1,10.7-5.1
	s4.3-6.8,4.3-11.3c0-4.4-1.4-8.2-4.3-11.2C33.3,9.7,29.8,8,25.5,7.5V40.4z"/>
</svg>
