<svg width="48" height="48" viewBox="0 0 48 48" fill="none" xmlns="http://www.w3.org/2000/svg">
<path d="M24 26.8L29.8 32.6C30.1667 32.9667 30.6333 33.15 31.2 33.15C31.7667 33.15 32.2333 32.9667 32.6 32.6C32.9667 32.2333 33.15 31.7667 33.15 31.2C33.15 30.6333 32.9667 30.1667 32.6 29.8L26.8 24L32.6 18.2C32.9667 17.8333 33.15 17.3667 33.15 16.8C33.15 16.2333 32.9667 15.7667 32.6 15.4C32.2333 15.0333 31.7667 14.85 31.2 14.85C30.6333 14.85 30.1667 15.0333 29.8 15.4L24 21.2L18.2 15.4C17.8333 15.0333 17.3667 14.85 16.8 14.85C16.2333 14.85 15.7667 15.0333 15.4 15.4C15.0333 15.7667 14.85 16.2333 14.85 16.8C14.85 17.3667 15.0333 17.8333 15.4 18.2L21.2 24L15.4 29.8C15.0333 30.1667 14.85 30.6333 14.85 31.2C14.85 31.7667 15.0333 32.2333 15.4 32.6C15.7667 32.9667 16.2333 33.15 16.8 33.15C17.3667 33.15 17.8333 32.9667 18.2 32.6L24 26.8ZM24 44C21.2333 44 18.6333 43.475 16.2 42.425C13.7667 41.375 11.65 39.95 9.85 38.15C8.05 36.35 6.625 34.2333 5.575 31.8C4.525 29.3667 4 26.7667 4 24C4 21.2333 4.525 18.6333 5.575 16.2C6.625 13.7667 8.05 11.65 9.85 9.85C11.65 8.05 13.7667 6.625 16.2 5.575C18.6333 4.525 21.2333 4 24 4C26.7667 4 29.3667 4.525 31.8 5.575C34.2333 6.625 36.35 8.05 38.15 9.85C39.95 11.65 41.375 13.7667 42.425 16.2C43.475 18.6333 44 21.2333 44 24C44 26.7667 43.475 29.3667 42.425 31.8C41.375 34.2333 39.95 36.35 38.15 38.15C36.35 39.95 34.2333 41.375 31.8 42.425C29.3667 43.475 26.7667 44 24 44Z" fill="white"/>
</svg>
