<svg width="48" height="48" viewBox="0 0 48 48" fill="none" xmlns="http://www.w3.org/2000/svg">
<path fill-rule="evenodd" clip-rule="evenodd" d="M4 19C4 10.7157 10.7157 4 19 4H28C36.2843 4 43 10.7157 43 19V28C43 36.2843 36.2843 43 28 43H19C10.7157 43 4 36.2843 4 28V19ZM12 34.5C12 33.6716 12.6716 33 13.5 33H33.5C34.3284 33 35 33.6716 35 34.5C35 35.3284 34.3284 36 33.5 36H13.5C12.6716 36 12 35.3284 12 34.5ZM36.61 30H10.4403C9.86152 30 9.43776 29.7061 9.16904 29.1182C8.90031 28.5308 8.95199 27.9637 9.32407 27.4168L14.4712 19.5974C14.7193 19.225 15.0882 19.0272 15.5781 19.0039C16.0676 18.9807 16.4842 19.1785 16.8277 19.5974L21.3547 26.7186L28.4243 16.5953C28.6723 16.1764 29.0413 15.9786 29.5312 16.0018C30.0207 16.0251 30.4165 16.1997 30.7188 16.5255L37.7263 27.4168C38.057 27.9637 38.088 28.5308 37.8193 29.1182C37.5506 29.7061 37.1475 30 36.61 30Z" fill="white"/>
</svg>
