<svg width="48" height="48" viewBox="0 0 48 48" fill="none" xmlns="http://www.w3.org/2000/svg">
<rect x="5" y="4" width="38" height="39" rx="9" fill="white"/>
<path d="M11.3906 30.25H36.658C37.1769 30.25 37.5661 29.9928 37.8255 29.4784C38.085 28.9645 38.0551 28.4682 37.7357 27.9897L30.9698 18.4598C30.678 18.1747 30.2958 18.022 29.8232 18.0016C29.3502 17.9812 28.9939 18.1543 28.7544 18.5209L21.9287 27.3788L17.5578 21.1477C17.2261 20.7812 16.8239 20.6081 16.3513 20.6284C15.8783 20.6488 15.522 20.8219 15.2825 21.1477L10.3129 27.9897C9.95364 28.4682 9.90375 28.9645 10.1632 29.4784C10.4227 29.9928 10.8318 30.25 11.3906 30.25Z" fill="#434343"/>
</svg>
