<svg width="156" height="156" viewBox="0 0 156 156" fill="none" xmlns="http://www.w3.org/2000/svg">
<g clip-path="url(#clip0_28611_2)">
<path fill-rule="evenodd" clip-rule="evenodd" d="M141.18 78.09C141.18 112.934 112.934 141.18 78.09 141.18C43.2464 141.18 15 112.934 15 78.09C15 43.2464 43.2464 15 78.09 15C112.934 15 141.18 43.2464 141.18 78.09ZM55.0293 65.515L60.4638 60.145V102.89C60.4638 103.9 60.8013 104.745 61.4763 105.427C62.1517 106.108 63.0221 106.449 64.0876 106.449C65.0736 106.449 65.9112 106.108 66.6005 105.427C67.2893 104.745 67.6337 103.9 67.6337 102.89V60.145L73.083 65.6131C73.7777 66.2774 74.6163 66.6053 75.5989 66.597C76.5814 66.5886 77.4222 66.2223 78.1214 65.498C78.7914 64.8008 79.1264 63.9674 79.1264 62.9978C79.1264 62.0282 78.7872 61.2014 78.1088 60.5175L66.542 49.0488C66.2403 48.7026 65.8626 48.4413 65.4089 48.2648C64.9556 48.0883 64.5152 48 64.0876 48C63.6087 48 63.1402 48.0883 62.682 48.2648C62.2238 48.4413 61.8298 48.7026 61.5 49.0488L50.0324 60.4688C49.3417 61.1655 48.9975 62.0014 49 62.9764C49.0025 63.9509 49.3466 64.7925 50.0324 65.501C50.699 66.2184 51.5225 66.5812 52.5031 66.5896C53.4831 66.5979 54.3252 66.2397 55.0293 65.515ZM87.3167 53.086V95.8417L81.9659 90.4636C81.2386 89.7207 80.3837 89.3684 79.4011 89.4067C78.4186 89.4451 77.5943 89.8129 76.9283 90.5101C76.2252 91.1739 75.8736 91.9989 75.8736 92.9853C75.8736 93.9711 76.2294 94.806 76.9408 95.4899L88.4365 106.937C88.7199 107.26 89.0883 107.518 89.5415 107.711C89.9952 107.904 90.4616 108 90.9405 108C91.3681 108 91.811 107.904 92.2691 107.711C92.7268 107.518 93.1208 107.26 93.4512 106.937L105.045 95.4405C105.684 94.7438 106.002 93.8998 106 92.9085C105.998 91.9173 105.679 91.0932 105.045 90.4363C104.327 89.7278 103.477 89.3694 102.497 89.361C101.517 89.3531 100.675 89.7069 99.9707 90.4223L94.4865 95.8417V53.086C94.4865 52.0432 94.1491 51.1857 93.4741 50.5135C92.7987 49.8414 91.9542 49.5053 90.9405 49.5053C89.9027 49.5053 89.0394 49.8414 88.3506 50.5135C87.6614 51.1857 87.3167 52.0432 87.3167 53.086Z" fill="#AAAAAA"/>
</g>
<defs>
<clipPath id="clip0_28611_2">
<rect width="155.294" height="155.294" fill="white"/>
</clipPath>
</defs>
</svg>
