<svg width="156" height="156" viewBox="0 0 156 156" fill="none" xmlns="http://www.w3.org/2000/svg">
<g clip-path="url(#clip0_28587_14)">
<path fill-rule="evenodd" clip-rule="evenodd" d="M78.09 141.18C112.934 141.18 141.18 112.934 141.18 78.09C141.18 43.2464 112.934 15 78.09 15C43.2464 15 15 43.2464 15 78.09C15 112.934 43.2464 141.18 78.09 141.18ZM106.448 89.9006L81.276 115.072C79.5162 116.833 76.6629 116.833 74.9031 115.072L49.731 89.9006C46.8922 87.0617 48.9029 82.2076 52.9176 82.2076H69.0767V48.7982C69.0767 43.8206 73.1119 39.7854 78.0896 39.7854C83.0673 39.7854 87.1024 43.8206 87.1024 48.7982V82.2076H103.261C107.276 82.2076 109.287 87.0617 106.448 89.9006Z" fill="#D3D3D3"/>
</g>
<defs>
<clipPath id="clip0_28587_14">
<rect width="155.294" height="155.294" fill="white"/>
</clipPath>
</defs>
</svg>
