<svg width="156" height="156" viewBox="0 0 156 156" fill="none" xmlns="http://www.w3.org/2000/svg">
<path d="M78.0003 102.299C76.8122 102.299 75.6162 102.036 74.4124 101.51C73.2098 100.983 72.1412 100.26 71.2066 99.3416L42.0465 70.1814C40.1954 68.3087 39.2898 66.0694 39.3297 63.4638C39.3707 60.8581 40.3011 58.6297 42.1207 56.7787C44.0756 54.8745 46.3432 53.946 48.9235 53.9931C51.5039 54.0389 53.7395 55.0079 55.6304 56.9L68.5514 69.8192V24.5993C68.5514 21.9731 69.4739 19.7169 71.3189 17.8309C73.1639 15.9436 75.4079 15 78.0511 15C80.693 15 82.9298 15.9436 84.7615 17.8309C86.592 19.7169 87.5073 21.9731 87.5073 24.5993V69.8192L100.548 56.9C102.383 55.0079 104.557 54.0287 107.068 53.9623C109.58 53.8947 111.8 54.8099 113.73 56.708C115.688 58.6061 116.647 60.8665 116.608 63.4891C116.568 66.1105 115.602 68.3817 113.71 70.3028L84.8521 99.3416C83.9127 100.26 82.8326 100.983 81.6119 101.51C80.3911 102.036 79.1873 102.299 78.0003 102.299ZM33.9577 141.18C28.6811 141.18 24.202 139.34 20.5205 135.66C16.8402 131.978 15 127.499 15 122.222V107.189C15 104.554 15.9225 102.315 17.7675 100.474C19.6137 98.6322 21.8578 97.7115 24.4997 97.7115C27.1416 97.7115 29.3784 98.6322 31.2101 100.474C33.0418 102.315 33.9577 104.554 33.9577 107.189V122.222H122.101V107.189C122.101 104.554 123.024 102.315 124.87 100.474C126.715 98.6322 128.956 97.7115 131.592 97.7115C134.226 97.7115 136.483 98.6322 138.362 100.474C140.241 102.315 141.18 104.554 141.18 107.189V122.222C141.18 127.499 139.328 131.978 135.623 135.66C131.919 139.34 127.411 141.18 122.101 141.18H33.9577Z" fill="#AAAAAA"/>
</svg>
