<svg width="156" height="156" viewBox="0 0 156 156" fill="none" xmlns="http://www.w3.org/2000/svg">
<g clip-path="url(#clip0_28615_43)">
<path fill-rule="evenodd" clip-rule="evenodd" d="M78.09 141.18C112.934 141.18 141.18 112.934 141.18 78.09C141.18 43.2464 112.934 15 78.09 15C43.2464 15 15 43.2464 15 78.09C15 112.934 43.2464 141.18 78.09 141.18ZM96.1963 98.6358V48.222C96.1963 46.9924 96.6029 45.9813 97.4162 45.1887C98.2288 44.3962 99.2474 43.9999 100.472 43.9999C101.668 43.9999 102.664 44.3962 103.461 45.1887C104.258 45.9813 104.656 46.9924 104.656 48.222V98.6358L111.126 92.2457C111.957 91.4021 112.951 90.985 114.107 90.9943C115.264 91.0041 116.266 91.4268 117.114 92.2622C117.862 93.0368 118.237 94.0084 118.24 95.1772C118.243 96.346 117.868 97.3412 117.114 98.1627L103.434 111.719C103.044 112.099 102.58 112.403 102.04 112.631C101.499 112.858 100.976 112.972 100.472 112.972C99.9069 112.972 99.3567 112.858 98.8213 112.631C98.2865 112.403 97.8519 112.099 97.5175 111.719L83.954 98.2209C83.1146 97.4145 82.6949 96.4301 82.6949 95.2677C82.6949 94.1047 83.1096 93.1318 83.9392 92.3492C84.725 91.5271 85.6976 91.0934 86.8569 91.0482C88.0162 91.003 89.0248 91.4184 89.8829 92.2944L96.1963 98.6358ZM50.5015 108.778V58.3641L44.1881 64.7055C43.33 65.5815 42.3213 65.9969 41.162 65.9517C40.0028 65.9065 39.0302 65.4728 38.2443 64.6507C37.4148 63.868 37 62.8952 37 61.7322C37 60.5698 37.4197 59.5854 38.2592 58.7789L51.8227 45.2813C52.1571 44.901 52.5917 44.5969 53.1264 44.369C53.6618 44.1418 54.212 44.0281 54.7771 44.0281C55.2816 44.0281 55.8041 44.1418 56.3447 44.369C56.8848 44.5969 57.3496 44.901 57.7394 45.2813L71.4191 58.8372C72.1729 59.6587 72.5484 60.6539 72.5454 61.8227C72.5425 62.9914 72.1671 63.9631 71.4191 64.7377C70.5715 65.5731 69.5692 65.9958 68.4123 66.0056C67.2559 66.0149 66.2623 65.5978 65.4316 64.7542L58.961 58.3641V108.778C58.961 110.008 58.5628 111.019 57.7664 111.811C56.9695 112.604 55.9731 113 54.7771 113C53.5526 113 52.534 112.604 51.7213 111.811C50.9081 111.019 50.5015 110.008 50.5015 108.778Z" fill="#AAAAAA"/>
</g>
<defs>
<clipPath id="clip0_28615_43">
<rect width="155.294" height="155.294" fill="white"/>
</clipPath>
</defs>
</svg>
