<svg width="156" height="156" viewBox="0 0 156 156" fill="none" xmlns="http://www.w3.org/2000/svg">
<g clip-path="url(#clip0_28615_33)">
<path d="M45.7637 45.793L45.7637 132.401C45.7637 134.849 44.9068 136.924 43.1929 138.627C41.4781 140.329 39.409 141.18 36.9856 141.18C34.5364 141.18 32.4611 140.329 30.7597 138.627C29.0573 136.924 28.206 134.849 28.206 132.401L28.206 45.793L19.926 54.0358C18.1625 55.79 16.0909 56.6412 13.7109 56.5895C11.331 56.5378 9.26452 55.6426 7.51139 53.904C5.89479 52.1643 5.05857 50.1143 5.00271 47.7541C4.94583 45.3948 5.78205 43.3381 7.51139 41.584L30.8001 18.2953C31.6689 17.3996 32.6313 16.7568 33.6873 16.3669C34.7433 15.978 35.8427 15.7835 36.9856 15.7835C38.1285 15.7835 39.2213 15.978 40.2638 16.3669C41.3074 16.7568 42.2517 17.3996 43.0968 18.2953L66.3854 41.584C68.0599 43.2078 68.8972 45.2185 68.8972 47.616C68.8972 50.0145 68.0687 52.0903 66.4118 53.8435C64.6649 55.5976 62.5989 56.5067 60.2138 56.5709C57.8298 56.635 55.7482 55.7776 53.9692 53.9986L45.7637 45.793Z" fill="#AAAAAA"/>
<path d="M135.634 102.027L127.354 110.269L127.354 23.7798C127.354 21.3316 126.503 19.2563 124.8 17.5539C123.099 15.8514 121.024 15.0002 118.574 15.0002C116.151 15.0002 114.082 15.8514 112.367 17.5539C110.653 19.2563 109.796 21.3316 109.796 23.7798L109.796 110.269L101.591 102.027C99.8118 100.272 97.7303 99.4213 95.3462 99.473C92.9612 99.5247 90.8952 100.44 89.1482 102.219C87.4913 103.972 86.6628 106.048 86.6628 108.446C86.6628 110.844 87.5001 112.855 89.1746 114.478L112.463 137.767C113.308 138.638 114.253 139.268 115.296 139.658C116.339 140.047 117.432 140.242 118.574 140.242C119.717 140.242 120.817 140.047 121.873 139.658C122.929 139.268 123.891 138.638 124.76 137.767L148.049 114.478C149.778 112.724 150.614 110.667 150.557 108.307C150.501 105.948 149.665 103.898 148.049 102.159C146.296 100.395 144.229 99.4875 141.849 99.4357C139.469 99.384 137.397 100.248 135.634 102.027Z" fill="#AAAAAA"/>
</g>
<defs>
<clipPath id="clip0_28615_33">
<rect width="155.294" height="155.294" fill="white"/>
</clipPath>
</defs>
</svg>
