<svg width="175" height="115" viewBox="0 0 175 115" fill="none" xmlns="http://www.w3.org/2000/svg">
<g clip-path="url(#clip0_29032_156)">
<path d="M175 100.638H0V109H175V100.638Z" fill="#BF0A30"/>
<path d="M175 92.2764H0V100.638H175V92.2764Z" fill="white"/>
<path d="M175 83.9146H0V92.2764H175V83.9146Z" fill="#BF0A30"/>
<path d="M175 75.5528H0V83.9146H175V75.5528Z" fill="white"/>
<path d="M175 67.7136H0V75.5528H175V67.7136Z" fill="#BF0A30"/>
<path d="M175 59.8744H0V67.7136H175V59.8744Z" fill="white"/>
<path d="M175 52.0352H0V59.8744H175V52.0352Z" fill="#BF0A30"/>
<path d="M175 44.196H0V52.0352H175V44.196Z" fill="white"/>
<path d="M175 36.3568H0V44.196H175V36.3568Z" fill="#BF0A30"/>
<path d="M175 28.5176H0V36.3568H175V28.5176Z" fill="white"/>
<path d="M175 20.6784H0V28.5176H175V20.6784Z" fill="#BF0A30"/>
<path d="M175 12.8392H0V20.6784H175V12.8392Z" fill="white"/>
<path d="M175 5H0V12.8392H175V5Z" fill="#BF0A30"/>
<path d="M70.1847 5H0V59.8744L70.1847 59.8744V5Z" fill="#002868"/>
<path fill-rule="evenodd" clip-rule="evenodd" d="M2.93193 53.401L4.96758 53.1481L5.7465 50.9079L6.57299 53.125L8.61278 53.3057L7.09195 54.9253L7.57242 57.282L5.80417 56.065L4.06384 57.3341L4.49562 54.9677L2.93193 53.401Z" fill="white"/>
<path fill-rule="evenodd" clip-rule="evenodd" d="M14.4755 53.401L16.5111 53.1481L17.29 50.9079L18.1165 53.125L20.1563 53.3057L18.6355 54.9253L19.116 57.282L17.3477 56.065L15.6074 57.3341L16.0392 54.9677L14.4755 53.401Z" fill="white"/>
<path fill-rule="evenodd" clip-rule="evenodd" d="M26.4807 53.401L28.5164 53.1481L29.2953 50.9079L30.1218 53.125L32.1616 53.3057L30.6408 54.9253L31.1212 57.282L29.353 56.065L27.6127 57.3341L28.0444 54.9677L26.4807 53.401Z" fill="white"/>
<path fill-rule="evenodd" clip-rule="evenodd" d="M38.0243 53.401L40.0599 53.1481L40.8388 50.9079L41.6653 53.125L43.7051 53.3057L42.1843 54.9253L42.6648 57.282L40.8965 56.065L39.1562 57.3341L39.588 54.9677L38.0243 53.401Z" fill="white"/>
<path fill-rule="evenodd" clip-rule="evenodd" d="M49.5678 53.401L51.6035 53.1481L52.3824 50.9079L53.2089 53.125L55.2487 53.3057L53.7278 54.9253L54.2083 57.282L52.4401 56.065L50.6997 57.3341L51.1315 54.9677L49.5678 53.401Z" fill="white"/>
<path fill-rule="evenodd" clip-rule="evenodd" d="M61.5731 53.401L63.6087 53.1481L64.3877 50.9079L65.2142 53.125L67.2539 53.3057L65.7331 54.9253L66.2136 57.282L64.4453 56.065L62.705 57.3341L63.1368 54.9677L61.5731 53.401Z" fill="white"/>
<path fill-rule="evenodd" clip-rule="evenodd" d="M8.93457 48.1749L10.9702 47.922L11.7491 45.6818L12.5756 47.8988L14.6154 48.0795L13.0946 49.6991L13.5751 52.0559L11.8068 50.8389L10.0665 52.108L10.4983 49.7416L8.93457 48.1749Z" fill="white"/>
<path fill-rule="evenodd" clip-rule="evenodd" d="M2.93193 42.4261L4.96758 42.1733L5.7465 39.933L6.57299 42.1501L8.61278 42.3308L7.09195 43.9504L7.57242 46.3071L5.80417 45.0901L4.06384 46.3592L4.49562 43.9929L2.93193 42.4261Z" fill="white"/>
<path fill-rule="evenodd" clip-rule="evenodd" d="M8.93457 37.2005L10.9702 36.9477L11.7491 34.7074L12.5756 36.9245L14.6154 37.1052L13.0946 38.7248L13.5751 41.0815L11.8068 39.8645L10.0665 41.1336L10.4983 38.7673L8.93457 37.2005Z" fill="white"/>
<path fill-rule="evenodd" clip-rule="evenodd" d="M2.93193 31.4518L4.96758 31.1989L5.7465 28.9587L6.57299 31.1757L8.61278 31.3565L7.09195 32.976L7.57242 35.3328L5.80417 34.1158L4.06384 35.3849L4.49562 33.0185L2.93193 31.4518Z" fill="white"/>
<path fill-rule="evenodd" clip-rule="evenodd" d="M8.93457 26.2256L10.9702 25.9728L11.7491 23.7325L12.5756 25.9496L14.6154 26.1303L13.0946 27.7499L13.5751 30.1066L11.8068 28.8897L10.0665 30.1587L10.4983 27.7924L8.93457 26.2256Z" fill="white"/>
<path fill-rule="evenodd" clip-rule="evenodd" d="M2.93193 20.4769L4.96758 20.2241L5.7465 17.9838L6.57299 20.2009L8.61278 20.3816L7.09195 22.0012L7.57242 24.3579L5.80417 23.1409L4.06384 24.41L4.49562 22.0436L2.93193 20.4769Z" fill="white"/>
<path fill-rule="evenodd" clip-rule="evenodd" d="M8.93457 15.2508L10.9702 14.9979L11.7491 12.7577L12.5756 14.9747L14.6154 15.1554L13.0946 16.775L13.5751 19.1318L11.8068 17.9148L10.0665 19.1839L10.4983 16.8175L8.93457 15.2508Z" fill="white"/>
<path fill-rule="evenodd" clip-rule="evenodd" d="M2.93193 9.50202L4.96758 9.24918L5.7465 7.00892L6.57299 9.226L8.61278 9.4067L7.09195 11.0263L7.57242 13.383L5.80417 12.166L4.06384 13.4351L4.49562 11.0688L2.93193 9.50202Z" fill="white"/>
<path fill-rule="evenodd" clip-rule="evenodd" d="M20.4781 48.1749L22.5138 47.922L23.2927 45.6818L24.1192 47.8988L26.159 48.0795L24.6381 49.6991L25.1186 52.0559L23.3503 50.8389L21.61 52.108L22.0418 49.7416L20.4781 48.1749Z" fill="white"/>
<path fill-rule="evenodd" clip-rule="evenodd" d="M14.4755 42.4261L16.5111 42.1733L17.29 39.933L18.1165 42.1501L20.1563 42.3308L18.6355 43.9504L19.116 46.3071L17.3477 45.0901L15.6074 46.3592L16.0392 43.9929L14.4755 42.4261Z" fill="white"/>
<path fill-rule="evenodd" clip-rule="evenodd" d="M20.4781 37.2005L22.5138 36.9477L23.2927 34.7074L24.1192 36.9245L26.159 37.1052L24.6381 38.7248L25.1186 41.0815L23.3503 39.8645L21.61 41.1336L22.0418 38.7673L20.4781 37.2005Z" fill="white"/>
<path fill-rule="evenodd" clip-rule="evenodd" d="M14.4755 31.4518L16.5111 31.1989L17.29 28.9587L18.1165 31.1757L20.1563 31.3565L18.6355 32.976L19.116 35.3328L17.3477 34.1158L15.6074 35.3849L16.0392 33.0185L14.4755 31.4518Z" fill="white"/>
<path fill-rule="evenodd" clip-rule="evenodd" d="M20.4781 26.2256L22.5138 25.9728L23.2927 23.7325L24.1192 25.9496L26.159 26.1303L24.6381 27.7499L25.1186 30.1066L23.3503 28.8897L21.61 30.1587L22.0418 27.7924L20.4781 26.2256Z" fill="white"/>
<path fill-rule="evenodd" clip-rule="evenodd" d="M14.4755 20.4769L16.5111 20.2241L17.29 17.9838L18.1165 20.2009L20.1563 20.3816L18.6355 22.0012L19.116 24.3579L17.3477 23.1409L15.6074 24.41L16.0392 22.0436L14.4755 20.4769Z" fill="white"/>
<path fill-rule="evenodd" clip-rule="evenodd" d="M20.4781 15.2508L22.5138 14.9979L23.2927 12.7577L24.1192 14.9747L26.159 15.1554L24.6381 16.775L25.1186 19.1318L23.3503 17.9148L21.61 19.1839L22.0418 16.8175L20.4781 15.2508Z" fill="white"/>
<path fill-rule="evenodd" clip-rule="evenodd" d="M14.4755 9.50202L16.5111 9.24918L17.29 7.00892L18.1165 9.226L20.1563 9.4067L18.6355 11.0263L19.116 13.383L17.3477 12.166L15.6074 13.4351L16.0392 11.0688L14.4755 9.50202Z" fill="white"/>
<path fill-rule="evenodd" clip-rule="evenodd" d="M32.0216 48.1749L34.0573 47.922L34.8362 45.6818L35.6627 47.8988L37.7025 48.0795L36.1817 49.6991L36.6621 52.0559L34.8939 50.8389L33.1536 52.108L33.5853 49.7416L32.0216 48.1749Z" fill="white"/>
<path fill-rule="evenodd" clip-rule="evenodd" d="M26.4807 42.4261L28.5164 42.1733L29.2953 39.933L30.1218 42.1501L32.1616 42.3308L30.6408 43.9504L31.1212 46.3071L29.353 45.0901L27.6127 46.3592L28.0444 43.9929L26.4807 42.4261Z" fill="white"/>
<path fill-rule="evenodd" clip-rule="evenodd" d="M49.5678 42.4261L51.6035 42.1733L52.3824 39.933L53.2089 42.1501L55.2487 42.3308L53.7278 43.9504L54.2083 46.3071L52.4401 45.0901L50.6997 46.3592L51.1315 43.9929L49.5678 42.4261Z" fill="white"/>
<path fill-rule="evenodd" clip-rule="evenodd" d="M38.0243 42.4261L40.0599 42.1733L40.8388 39.933L41.6653 42.1501L43.7051 42.3308L42.1843 43.9504L42.6648 46.3071L40.8965 45.0901L39.1562 46.3592L39.588 43.9929L38.0243 42.4261Z" fill="white"/>
<path fill-rule="evenodd" clip-rule="evenodd" d="M55.5705 48.1749L57.6061 47.922L58.385 45.6818L59.2115 47.8988L61.2513 48.0795L59.7305 49.6991L60.2109 52.0559L58.4427 50.8389L56.7024 52.108L57.1341 49.7416L55.5705 48.1749Z" fill="white"/>
<path fill-rule="evenodd" clip-rule="evenodd" d="M44.0267 48.1749L46.0624 47.922L46.8413 45.6818L47.6678 47.8988L49.7076 48.0795L48.1868 49.6991L48.6672 52.0559L46.899 50.8389L45.1587 52.108L45.5904 49.7416L44.0267 48.1749Z" fill="white"/>
<path fill-rule="evenodd" clip-rule="evenodd" d="M26.4807 9.50202L28.5164 9.24918L29.2953 7.00892L30.1218 9.226L32.1616 9.4067L30.6408 11.0263L31.1212 13.383L29.353 12.166L27.6127 13.4351L28.0444 11.0688L26.4807 9.50202Z" fill="white"/>
<path fill-rule="evenodd" clip-rule="evenodd" d="M32.0216 15.2508L34.0573 14.9979L34.8362 12.7577L35.6627 14.9747L37.7025 15.1554L36.1817 16.775L36.6621 19.1318L34.8939 17.9148L33.1536 19.1839L33.5853 16.8175L32.0216 15.2508Z" fill="white"/>
<path fill-rule="evenodd" clip-rule="evenodd" d="M26.4807 20.4769L28.5164 20.2241L29.2953 17.9838L30.1218 20.2009L32.1616 20.3816L30.6408 22.0012L31.1212 24.3579L29.353 23.1409L27.6127 24.41L28.0444 22.0436L26.4807 20.4769Z" fill="white"/>
<path fill-rule="evenodd" clip-rule="evenodd" d="M32.0216 26.2256L34.0573 25.9728L34.8362 23.7325L35.6627 25.9496L37.7025 26.1303L36.1817 27.7499L36.6621 30.1066L34.8939 28.8897L33.1536 30.1587L33.5853 27.7924L32.0216 26.2256Z" fill="white"/>
<path fill-rule="evenodd" clip-rule="evenodd" d="M26.4807 31.4518L28.5164 31.1989L29.2953 28.9587L30.1218 31.1757L32.1616 31.3565L30.6408 32.976L31.1212 35.3328L29.353 34.1158L27.6127 35.3849L28.0444 33.0185L26.4807 31.4518Z" fill="white"/>
<path fill-rule="evenodd" clip-rule="evenodd" d="M32.0216 37.2005L34.0573 36.9477L34.8362 34.7074L35.6627 36.9245L37.7025 37.1052L36.1817 38.7248L36.6621 41.0815L34.8939 39.8645L33.1536 41.1336L33.5853 38.7673L32.0216 37.2005Z" fill="white"/>
<path fill-rule="evenodd" clip-rule="evenodd" d="M61.5731 42.4261L63.6087 42.1733L64.3877 39.933L65.2142 42.1501L67.2539 42.3308L65.7331 43.9504L66.2136 46.3071L64.4453 45.0901L62.705 46.3592L63.1368 43.9929L61.5731 42.4261Z" fill="white"/>
<path fill-rule="evenodd" clip-rule="evenodd" d="M38.0243 31.4518L40.0599 31.1989L40.8388 28.9587L41.6653 31.1757L43.7051 31.3565L42.1843 32.976L42.6648 35.3328L40.8965 34.1158L39.1562 35.3849L39.588 33.0185L38.0243 31.4518Z" fill="white"/>
<path fill-rule="evenodd" clip-rule="evenodd" d="M38.0243 9.50202L40.0599 9.24918L40.8388 7.00892L41.6653 9.226L43.7051 9.4067L42.1843 11.0263L42.6648 13.383L40.8965 12.166L39.1562 13.4351L39.588 11.0688L38.0243 9.50202Z" fill="white"/>
<path fill-rule="evenodd" clip-rule="evenodd" d="M38.0243 20.4769L40.0599 20.2241L40.8388 17.9838L41.6653 20.2009L43.7051 20.3816L42.1843 22.0012L42.6648 24.3579L40.8965 23.1409L39.1562 24.41L39.588 22.0436L38.0243 20.4769Z" fill="white"/>
<path fill-rule="evenodd" clip-rule="evenodd" d="M55.5705 37.2005L57.6061 36.9477L58.385 34.7074L59.2115 36.9245L61.2513 37.1052L59.7305 38.7248L60.2109 41.0815L58.4427 39.8645L56.7024 41.1336L57.1341 38.7673L55.5705 37.2005Z" fill="white"/>
<path fill-rule="evenodd" clip-rule="evenodd" d="M44.0267 37.2005L46.0624 36.9477L46.8413 34.7074L47.6678 36.9245L49.7076 37.1052L48.1868 38.7248L48.6672 41.0815L46.899 39.8645L45.1587 41.1336L45.5904 38.7673L44.0267 37.2005Z" fill="white"/>
<path fill-rule="evenodd" clip-rule="evenodd" d="M44.0267 15.2508L46.0624 14.9979L46.8413 12.7577L47.6678 14.9747L49.7076 15.1554L48.1868 16.775L48.6672 19.1318L46.899 17.9148L45.1587 19.1839L45.5904 16.8175L44.0267 15.2508Z" fill="white"/>
<path fill-rule="evenodd" clip-rule="evenodd" d="M44.0267 26.2256L46.0624 25.9728L46.8413 23.7325L47.6678 25.9496L49.7076 26.1303L48.1868 27.7499L48.6672 30.1066L46.899 28.8897L45.1587 30.1587L45.5904 27.7924L44.0267 26.2256Z" fill="white"/>
<path fill-rule="evenodd" clip-rule="evenodd" d="M61.5731 31.4518L63.6087 31.1989L64.3877 28.9587L65.2142 31.1757L67.2539 31.3565L65.7331 32.976L66.2136 35.3328L64.4453 34.1158L62.705 35.3849L63.1368 33.0185L61.5731 31.4518Z" fill="white"/>
<path fill-rule="evenodd" clip-rule="evenodd" d="M49.5678 31.4518L51.6035 31.1989L52.3824 28.9587L53.2089 31.1757L55.2487 31.3565L53.7278 32.976L54.2083 35.3328L52.4401 34.1158L50.6997 35.3849L51.1315 33.0185L49.5678 31.4518Z" fill="white"/>
<path fill-rule="evenodd" clip-rule="evenodd" d="M49.5678 9.50202L51.6035 9.24918L52.3824 7.00892L53.2089 9.226L55.2487 9.4067L53.7278 11.0263L54.2083 13.383L52.4401 12.166L50.6997 13.4351L51.1315 11.0688L49.5678 9.50202Z" fill="white"/>
<path fill-rule="evenodd" clip-rule="evenodd" d="M49.5678 20.4769L51.6035 20.2241L52.3824 17.9838L53.2089 20.2009L55.2487 20.3816L53.7278 22.0012L54.2083 24.3579L52.4401 23.1409L50.6997 24.41L51.1315 22.0436L49.5678 20.4769Z" fill="white"/>
<path fill-rule="evenodd" clip-rule="evenodd" d="M61.5731 9.50202L63.6087 9.24918L64.3877 7.00892L65.2142 9.226L67.2539 9.4067L65.7331 11.0263L66.2136 13.383L64.4453 12.166L62.705 13.4351L63.1368 11.0688L61.5731 9.50202Z" fill="white"/>
<path fill-rule="evenodd" clip-rule="evenodd" d="M55.5705 15.2508L57.6061 14.9979L58.385 12.7577L59.2115 14.9747L61.2513 15.1554L59.7305 16.775L60.2109 19.1318L58.4427 17.9148L56.7024 19.1839L57.1341 16.8175L55.5705 15.2508Z" fill="white"/>
<path fill-rule="evenodd" clip-rule="evenodd" d="M61.5731 20.4769L63.6087 20.2241L64.3877 17.9838L65.2142 20.2009L67.2539 20.3816L65.7331 22.0012L66.2136 24.3579L64.4453 23.1409L62.705 24.41L63.1368 22.0436L61.5731 20.4769Z" fill="white"/>
<path fill-rule="evenodd" clip-rule="evenodd" d="M55.5705 26.2256L57.6061 25.9728L58.385 23.7325L59.2115 25.9496L61.2513 26.1303L59.7305 27.7499L60.2109 30.1066L58.4427 28.8897L56.7024 30.1587L57.1341 27.7924L55.5705 26.2256Z" fill="white"/>
</g>
<defs>
<clipPath id="clip0_29032_156">
<rect width="175" height="115" fill="white"/>
</clipPath>
</defs>
</svg>
