<svg width="200" height="200" viewBox="0 0 200 200" fill="none" xmlns="http://www.w3.org/2000/svg">
<path d="M26.1103 42H173.83C178.851 42 182.94 46.074 182.94 51.0766V147.923C182.94 152.926 178.851 157 173.83 157H26.1103C21.0891 157.03 17 152.956 17 147.953V51.0766C17 46.074 21.0891 42 26.1103 42Z" fill="#B22234"/>
<path d="M17.0601 50.1779H182.94C182.97 50.4775 183 50.777 183 51.1065V59.9135H17V51.0766C17 50.777 17.0301 50.4775 17.0601 50.1779ZM182.97 67.9716V77.6772H17V67.9716H182.97ZM182.97 85.7652V95.4709H17V85.7652H182.97ZM182.97 103.559V113.265H17V103.559H182.97ZM182.97 121.353V131.058H17V121.353H182.97ZM182.97 139.146V147.923C182.97 148.223 182.94 148.552 182.91 148.852H17.0601C17.0301 148.582 17 148.253 17 147.953V139.176H182.97V139.146Z" fill="white"/>
<path d="M79.5394 42V103.948H17V51.0766C17 46.074 21.0891 42 26.1103 42H79.5394Z" fill="#3C3B6E"/>
<path d="M20.6982 50.5673L22.7729 57.0078L17.3007 53.0237H24.0958L18.5936 57.0078L20.6982 50.5673Z" fill="white"/>
<path d="M20.6982 63.0289L22.7729 69.4694L17.3007 65.4852H24.0958L18.5936 69.4694L20.6982 63.0289Z" fill="white"/>
<path d="M20.6982 75.4904L22.7729 81.9309L17.3007 77.9468H24.0958L18.5936 81.9309L20.6982 75.4904Z" fill="white"/>
<path d="M20.6982 87.952L22.7729 94.3925L17.3007 90.4084H24.0958L18.5936 94.3925L20.6982 87.952Z" fill="white"/>
<path d="M28.0346 44.3365L30.1393 50.777L24.637 46.7929H31.4622L25.9299 50.777L28.0346 44.3365Z" fill="white"/>
<path d="M28.0346 56.7981L30.1393 63.2386L24.637 59.2545H31.4622L25.9299 63.2386L28.0346 56.7981Z" fill="white"/>
<path d="M28.0346 69.2597L30.1393 75.7001L24.637 71.716H31.4622L25.9299 75.7001L28.0346 69.2597Z" fill="white"/>
<path d="M28.0346 81.7212L30.1393 88.1617L24.637 84.1776H31.4622L25.9299 88.1617L28.0346 81.7212Z" fill="white"/>
<path d="M28.0346 94.1828L30.1393 100.623L24.637 96.6392H31.4622L25.9299 100.623L28.0346 94.1828Z" fill="white"/>
<path d="M35.401 50.5673L37.5057 57.0078L32.0034 53.0237H38.7986L33.2963 57.0078L35.401 50.5673Z" fill="white"/>
<path d="M35.401 63.0289L37.5057 69.4694L32.0034 65.4852H38.7986L33.2963 69.4694L35.401 63.0289Z" fill="white"/>
<path d="M35.401 75.4904L37.5057 81.9309L32.0034 77.9468H38.7986L33.2963 81.9309L35.401 75.4904Z" fill="white"/>
<path d="M35.401 87.952L37.5057 94.3925L32.0034 90.4084H38.7986L33.2963 94.3925L35.401 87.952Z" fill="white"/>
<path d="M42.7674 44.3365L44.8421 50.777L39.3699 46.7929H46.165L40.6627 50.777L42.7674 44.3365Z" fill="white"/>
<path d="M42.7674 56.7981L44.8421 63.2386L39.3699 59.2545H46.165L40.6627 63.2386L42.7674 56.7981Z" fill="white"/>
<path d="M42.7674 69.2597L44.8421 75.7001L39.3699 71.716H46.165L40.6627 75.7001L42.7674 69.2597Z" fill="white"/>
<path d="M42.7674 81.7212L44.8421 88.1617L39.3699 84.1776H46.165L40.6627 88.1617L42.7674 81.7212Z" fill="white"/>
<path d="M42.7674 94.1828L44.8421 100.623L39.3699 96.6392H46.165L40.6627 100.623L42.7674 94.1828Z" fill="white"/>
<path d="M50.1038 50.5673L52.2085 57.0078L46.7062 53.0237H53.5014L47.9991 57.0078L50.1038 50.5673Z" fill="white"/>
<path d="M50.1038 63.0289L52.2085 69.4694L46.7062 65.4852H53.5014L47.9991 69.4694L50.1038 63.0289Z" fill="white"/>
<path d="M50.1038 75.4904L52.2085 81.9309L46.7062 77.9468H53.5014L47.9991 81.9309L50.1038 75.4904Z" fill="white"/>
<path d="M50.1038 87.952L52.2085 94.3925L46.7062 90.4084H53.5014L47.9991 94.3925L50.1038 87.952Z" fill="white"/>
<path d="M57.4702 44.3365L59.5749 50.777L54.0726 46.7929H60.8678L55.3655 50.777L57.4702 44.3365Z" fill="white"/>
<path d="M57.4702 56.7981L59.5749 63.2386L54.0726 59.2545H60.8678L55.3655 63.2386L57.4702 56.7981Z" fill="white"/>
<path d="M57.4702 69.2597L59.5749 75.7001L54.0726 71.716H60.8678L55.3655 75.7001L57.4702 69.2597Z" fill="white"/>
<path d="M57.4702 81.7212L59.5749 88.1617L54.0726 84.1776H60.8678L55.3655 88.1617L57.4702 81.7212Z" fill="white"/>
<path d="M57.4702 94.1828L59.5749 100.623L54.0726 96.6392H60.8678L55.3655 100.623L57.4702 94.1828Z" fill="white"/>
<path d="M64.8066 50.5673L66.9113 57.0078L61.409 53.0237H68.2041L62.7319 57.0078L64.8066 50.5673Z" fill="white"/>
<path d="M64.8066 63.0289L66.9113 69.4694L61.409 65.4852H68.2041L62.7319 69.4694L64.8066 63.0289Z" fill="white"/>
<path d="M64.8066 75.4904L66.9113 81.9309L61.409 77.9468H68.2041L62.7319 81.9309L64.8066 75.4904Z" fill="white"/>
<path d="M64.8066 87.952L66.9113 94.3925L61.409 90.4084H68.2041L62.7319 94.3925L64.8066 87.952Z" fill="white"/>
<path d="M72.173 44.3365L74.2777 50.777L68.7754 46.7929H75.5706L70.0683 50.777L72.173 44.3365Z" fill="white"/>
<path d="M72.173 56.7981L74.2777 63.2386L68.7754 59.2545H75.5706L70.0683 63.2386L72.173 56.7981Z" fill="white"/>
<path d="M72.173 69.2597L74.2777 75.7001L68.7754 71.716H75.5706L70.0683 75.7001L72.173 69.2597Z" fill="white"/>
<path d="M72.173 81.7212L74.2777 88.1617L68.7754 84.1776H75.5706L70.0683 88.1617L72.173 81.7212Z" fill="white"/>
<path d="M72.173 94.1828L74.2777 100.623L68.7754 96.6392H75.5706L70.0683 100.623L72.173 94.1828Z" fill="white"/>
</svg>
