<svg width="137" height="95" viewBox="0 0 137 95" fill="none" xmlns="http://www.w3.org/2000/svg">
<g clip-path="url(#clip0_29031_90)">
<path d="M7.52011 0H129.455C133.6 0 136.975 3.36458 136.975 7.49609V87.4792C136.975 91.6107 133.6 94.9753 129.455 94.9753H7.52011C3.37536 95 0 91.6354 0 87.5039V7.49609C0 3.36458 3.37536 0 7.52011 0Z" fill="#B22234"/>
<path d="M0.0496377 6.75391H136.975C137 7.0013 137.025 7.2487 137.025 7.52083V14.7943H0V7.49609C0 7.2487 0.0248188 7.0013 0.0496377 6.75391ZM137 21.4492V29.4648H0V21.4492H137ZM137 36.1445V44.1602H0V36.1445H137ZM137 50.8398V58.8555H0V50.8398H137ZM137 65.5352V73.5508H0V65.5352H137ZM137 80.2305V87.4792C137 87.7266 136.975 87.9987 136.95 88.2461H0.0496377C0.0248188 88.0234 0 87.7513 0 87.5039V80.2552H137V80.2305Z" fill="white"/>
<path d="M51.6232 0V51.1615H0V7.49609C0 3.36458 3.37536 0 7.52011 0H51.6232Z" fill="#3C3B6E"/>
<path d="M3.05272 7.07552L4.76522 12.3945L0.248188 9.10417H5.85725L1.3154 12.3945L3.05272 7.07552Z" fill="white"/>
<path d="M3.05272 17.3672L4.76522 22.6862L0.248188 19.3958H5.85725L1.3154 22.6862L3.05272 17.3672Z" fill="white"/>
<path d="M3.05272 27.6589L4.76522 32.9779L0.248188 29.6875H5.85725L1.3154 32.9779L3.05272 27.6589Z" fill="white"/>
<path d="M3.05272 37.9505L4.76522 43.2695L0.248188 39.9792H5.85725L1.3154 43.2695L3.05272 37.9505Z" fill="white"/>
<path d="M9.10851 1.92969L10.8458 7.2487L6.30399 3.95833H11.9379L7.3712 7.2487L9.10851 1.92969Z" fill="white"/>
<path d="M9.10851 12.2214L10.8458 17.5404L6.30399 14.25H11.9379L7.3712 17.5404L9.10851 12.2214Z" fill="white"/>
<path d="M9.10851 22.513L10.8458 27.832L6.30399 24.5417H11.9379L7.3712 27.832L9.10851 22.513Z" fill="white"/>
<path d="M9.10851 32.8047L10.8458 38.1237L6.30399 34.8333H11.9379L7.3712 38.1237L9.10851 32.8047Z" fill="white"/>
<path d="M9.10851 43.0964L10.8458 48.4154L6.30399 45.125H11.9379L7.3712 48.4154L9.10851 43.0964Z" fill="white"/>
<path d="M15.1891 7.07552L16.9264 12.3945L12.3846 9.10417H17.9937L13.4518 12.3945L15.1891 7.07552Z" fill="white"/>
<path d="M15.1891 17.3672L16.9264 22.6862L12.3846 19.3958H17.9937L13.4518 22.6862L15.1891 17.3672Z" fill="white"/>
<path d="M15.1891 27.6589L16.9264 32.9779L12.3846 29.6875H17.9937L13.4518 32.9779L15.1891 27.6589Z" fill="white"/>
<path d="M15.1891 37.9505L16.9264 43.2695L12.3846 39.9792H17.9937L13.4518 43.2695L15.1891 37.9505Z" fill="white"/>
<path d="M21.2697 1.92969L22.9822 7.2487L18.4652 3.95833H24.0743L19.5324 7.2487L21.2697 1.92969Z" fill="white"/>
<path d="M21.2697 12.2214L22.9822 17.5404L18.4652 14.25H24.0743L19.5324 17.5404L21.2697 12.2214Z" fill="white"/>
<path d="M21.2697 22.513L22.9822 27.832L18.4652 24.5417H24.0743L19.5324 27.832L21.2697 22.513Z" fill="white"/>
<path d="M21.2697 32.8047L22.9822 38.1237L18.4652 34.8333H24.0743L19.5324 38.1237L21.2697 32.8047Z" fill="white"/>
<path d="M21.2697 43.0964L22.9822 48.4154L18.4652 45.125H24.0743L19.5324 48.4154L21.2697 43.0964Z" fill="white"/>
<path d="M27.3255 7.07552L29.0629 12.3945L24.521 9.10417H30.1301L25.5882 12.3945L27.3255 7.07552Z" fill="white"/>
<path d="M27.3255 17.3672L29.0629 22.6862L24.521 19.3958H30.1301L25.5882 22.6862L27.3255 17.3672Z" fill="white"/>
<path d="M27.3255 27.6589L29.0629 32.9779L24.521 29.6875H30.1301L25.5882 32.9779L27.3255 27.6589Z" fill="white"/>
<path d="M27.3255 37.9505L29.0629 43.2695L24.521 39.9792H30.1301L25.5882 43.2695L27.3255 37.9505Z" fill="white"/>
<path d="M33.4062 1.92969L35.1435 7.2487L30.6016 3.95833H36.2107L31.6688 7.2487L33.4062 1.92969Z" fill="white"/>
<path d="M33.4062 12.2214L35.1435 17.5404L30.6016 14.25H36.2107L31.6688 17.5404L33.4062 12.2214Z" fill="white"/>
<path d="M33.4062 22.513L35.1435 27.832L30.6016 24.5417H36.2107L31.6688 27.832L33.4062 22.513Z" fill="white"/>
<path d="M33.4062 32.8047L35.1435 38.1237L30.6016 34.8333H36.2107L31.6688 38.1237L33.4062 32.8047Z" fill="white"/>
<path d="M33.4062 43.0964L35.1435 48.4154L30.6016 45.125H36.2107L31.6688 48.4154L33.4062 43.0964Z" fill="white"/>
<path d="M39.462 7.07552L41.1993 12.3945L36.6574 9.10417H42.2665L37.7495 12.3945L39.462 7.07552Z" fill="white"/>
<path d="M39.462 17.3672L41.1993 22.6862L36.6574 19.3958H42.2665L37.7495 22.6862L39.462 17.3672Z" fill="white"/>
<path d="M39.462 27.6589L41.1993 32.9779L36.6574 29.6875H42.2665L37.7495 32.9779L39.462 27.6589Z" fill="white"/>
<path d="M39.462 37.9505L41.1993 43.2695L36.6574 39.9792H42.2665L37.7495 43.2695L39.462 37.9505Z" fill="white"/>
<path d="M45.5426 1.92969L47.2799 7.2487L42.738 3.95833H48.3471L43.8053 7.2487L45.5426 1.92969Z" fill="white"/>
<path d="M45.5426 12.2214L47.2799 17.5404L42.738 14.25H48.3471L43.8053 17.5404L45.5426 12.2214Z" fill="white"/>
<path d="M45.5426 22.513L47.2799 27.832L42.738 24.5417H48.3471L43.8053 27.832L45.5426 22.513Z" fill="white"/>
<path d="M45.5426 32.8047L47.2799 38.1237L42.738 34.8333H48.3471L43.8053 38.1237L45.5426 32.8047Z" fill="white"/>
<path d="M45.5426 43.0964L47.2799 48.4154L42.738 45.125H48.3471L43.8053 48.4154L45.5426 43.0964Z" fill="white"/>
</g>
<defs>
<clipPath id="clip0_29031_90">
<rect width="137" height="95" fill="white"/>
</clipPath>
</defs>
</svg>
