<svg width="175" height="104" viewBox="0 0 175 104" fill="none" xmlns="http://www.w3.org/2000/svg">
<g clip-path="url(#clip0_29032_156)">
<path d="M175 95.6382H0V104H175V95.6382Z" fill="#BF0A30"/>
<path d="M175 87.2764H0V95.6382H175V87.2764Z" fill="white"/>
<path d="M175 78.9146H0V87.2764H175V78.9146Z" fill="#BF0A30"/>
<path d="M175 70.5528H0V78.9146H175V70.5528Z" fill="white"/>
<path d="M175 62.7136H0V70.5528H175V62.7136Z" fill="#BF0A30"/>
<path d="M175 54.8744H0V62.7136H175V54.8744Z" fill="white"/>
<path d="M175 47.0352H0V54.8744H175V47.0352Z" fill="#BF0A30"/>
<path d="M175 39.196H0V47.0352H175V39.196Z" fill="white"/>
<path d="M175 31.3568H0V39.196H175V31.3568Z" fill="#BF0A30"/>
<path d="M175 23.5176H0V31.3568H175V23.5176Z" fill="white"/>
<path d="M175 15.6784H0V23.5176H175V15.6784Z" fill="#BF0A30"/>
<path d="M175 7.8392H0V15.6784H175V7.8392Z" fill="white"/>
<path d="M175 0H0V7.8392H175V0Z" fill="#BF0A30"/>
<path d="M70.1847 0H0V54.8744L70.1847 54.8744V0Z" fill="#002868"/>
<path fill-rule="evenodd" clip-rule="evenodd" d="M2.93193 48.401L4.96758 48.1481L5.7465 45.9079L6.57299 48.125L8.61278 48.3057L7.09195 49.9253L7.57242 52.282L5.80417 51.065L4.06384 52.3341L4.49562 49.9677L2.93193 48.401Z" fill="white"/>
<path fill-rule="evenodd" clip-rule="evenodd" d="M14.4755 48.401L16.5111 48.1481L17.29 45.9079L18.1165 48.125L20.1563 48.3057L18.6355 49.9253L19.116 52.282L17.3477 51.065L15.6074 52.3341L16.0392 49.9677L14.4755 48.401Z" fill="white"/>
<path fill-rule="evenodd" clip-rule="evenodd" d="M26.4807 48.401L28.5164 48.1481L29.2953 45.9079L30.1218 48.125L32.1616 48.3057L30.6408 49.9253L31.1212 52.282L29.353 51.065L27.6127 52.3341L28.0444 49.9677L26.4807 48.401Z" fill="white"/>
<path fill-rule="evenodd" clip-rule="evenodd" d="M38.0243 48.401L40.0599 48.1481L40.8388 45.9079L41.6653 48.125L43.7051 48.3057L42.1843 49.9253L42.6648 52.282L40.8965 51.065L39.1562 52.3341L39.588 49.9677L38.0243 48.401Z" fill="white"/>
<path fill-rule="evenodd" clip-rule="evenodd" d="M49.5678 48.401L51.6035 48.1481L52.3824 45.9079L53.2089 48.125L55.2487 48.3057L53.7278 49.9253L54.2083 52.282L52.4401 51.065L50.6997 52.3341L51.1315 49.9677L49.5678 48.401Z" fill="white"/>
<path fill-rule="evenodd" clip-rule="evenodd" d="M61.5731 48.401L63.6087 48.1481L64.3877 45.9079L65.2142 48.125L67.2539 48.3057L65.7331 49.9253L66.2136 52.282L64.4453 51.065L62.705 52.3341L63.1368 49.9677L61.5731 48.401Z" fill="white"/>
<path fill-rule="evenodd" clip-rule="evenodd" d="M8.93457 43.1749L10.9702 42.922L11.7491 40.6818L12.5756 42.8988L14.6154 43.0795L13.0946 44.6991L13.5751 47.0559L11.8068 45.8389L10.0665 47.108L10.4983 44.7416L8.93457 43.1749Z" fill="white"/>
<path fill-rule="evenodd" clip-rule="evenodd" d="M2.93193 37.4261L4.96758 37.1733L5.7465 34.933L6.57299 37.1501L8.61278 37.3308L7.09195 38.9504L7.57242 41.3071L5.80417 40.0901L4.06384 41.3592L4.49562 38.9929L2.93193 37.4261Z" fill="white"/>
<path fill-rule="evenodd" clip-rule="evenodd" d="M8.93457 32.2005L10.9702 31.9477L11.7491 29.7074L12.5756 31.9245L14.6154 32.1052L13.0946 33.7248L13.5751 36.0815L11.8068 34.8645L10.0665 36.1336L10.4983 33.7673L8.93457 32.2005Z" fill="white"/>
<path fill-rule="evenodd" clip-rule="evenodd" d="M2.93193 26.4518L4.96758 26.1989L5.7465 23.9587L6.57299 26.1757L8.61278 26.3565L7.09195 27.976L7.57242 30.3328L5.80417 29.1158L4.06384 30.3849L4.49562 28.0185L2.93193 26.4518Z" fill="white"/>
<path fill-rule="evenodd" clip-rule="evenodd" d="M8.93457 21.2256L10.9702 20.9728L11.7491 18.7325L12.5756 20.9496L14.6154 21.1303L13.0946 22.7499L13.5751 25.1066L11.8068 23.8897L10.0665 25.1587L10.4983 22.7924L8.93457 21.2256Z" fill="white"/>
<path fill-rule="evenodd" clip-rule="evenodd" d="M2.93193 15.4769L4.96758 15.2241L5.7465 12.9838L6.57299 15.2009L8.61278 15.3816L7.09195 17.0012L7.57242 19.3579L5.80417 18.1409L4.06384 19.41L4.49562 17.0436L2.93193 15.4769Z" fill="white"/>
<path fill-rule="evenodd" clip-rule="evenodd" d="M8.93457 10.2508L10.9702 9.99792L11.7491 7.75767L12.5756 9.97474L14.6154 10.1554L13.0946 11.775L13.5751 14.1318L11.8068 12.9148L10.0665 14.1839L10.4983 11.8175L8.93457 10.2508Z" fill="white"/>
<path fill-rule="evenodd" clip-rule="evenodd" d="M2.93193 4.50202L4.96758 4.24918L5.7465 2.00892L6.57299 4.226L8.61278 4.4067L7.09195 6.02628L7.57242 8.38302L5.80417 7.16604L4.06384 8.43511L4.49562 6.06876L2.93193 4.50202Z" fill="white"/>
<path fill-rule="evenodd" clip-rule="evenodd" d="M20.4781 43.1749L22.5138 42.922L23.2927 40.6818L24.1192 42.8988L26.159 43.0795L24.6381 44.6991L25.1186 47.0559L23.3503 45.8389L21.61 47.108L22.0418 44.7416L20.4781 43.1749Z" fill="white"/>
<path fill-rule="evenodd" clip-rule="evenodd" d="M14.4755 37.4261L16.5111 37.1733L17.29 34.933L18.1165 37.1501L20.1563 37.3308L18.6355 38.9504L19.116 41.3071L17.3477 40.0901L15.6074 41.3592L16.0392 38.9929L14.4755 37.4261Z" fill="white"/>
<path fill-rule="evenodd" clip-rule="evenodd" d="M20.4781 32.2005L22.5138 31.9477L23.2927 29.7074L24.1192 31.9245L26.159 32.1052L24.6381 33.7248L25.1186 36.0815L23.3503 34.8645L21.61 36.1336L22.0418 33.7673L20.4781 32.2005Z" fill="white"/>
<path fill-rule="evenodd" clip-rule="evenodd" d="M14.4755 26.4518L16.5111 26.1989L17.29 23.9587L18.1165 26.1757L20.1563 26.3565L18.6355 27.976L19.116 30.3328L17.3477 29.1158L15.6074 30.3849L16.0392 28.0185L14.4755 26.4518Z" fill="white"/>
<path fill-rule="evenodd" clip-rule="evenodd" d="M20.4781 21.2256L22.5138 20.9728L23.2927 18.7325L24.1192 20.9496L26.159 21.1303L24.6381 22.7499L25.1186 25.1066L23.3503 23.8897L21.61 25.1587L22.0418 22.7924L20.4781 21.2256Z" fill="white"/>
<path fill-rule="evenodd" clip-rule="evenodd" d="M14.4755 15.4769L16.5111 15.2241L17.29 12.9838L18.1165 15.2009L20.1563 15.3816L18.6355 17.0012L19.116 19.3579L17.3477 18.1409L15.6074 19.41L16.0392 17.0436L14.4755 15.4769Z" fill="white"/>
<path fill-rule="evenodd" clip-rule="evenodd" d="M20.4781 10.2508L22.5138 9.99792L23.2927 7.75767L24.1192 9.97474L26.159 10.1554L24.6381 11.775L25.1186 14.1318L23.3503 12.9148L21.61 14.1839L22.0418 11.8175L20.4781 10.2508Z" fill="white"/>
<path fill-rule="evenodd" clip-rule="evenodd" d="M14.4755 4.50202L16.5111 4.24918L17.29 2.00892L18.1165 4.226L20.1563 4.4067L18.6355 6.02628L19.116 8.38302L17.3477 7.16604L15.6074 8.43511L16.0392 6.06876L14.4755 4.50202Z" fill="white"/>
<path fill-rule="evenodd" clip-rule="evenodd" d="M32.0216 43.1749L34.0573 42.922L34.8362 40.6818L35.6627 42.8988L37.7025 43.0795L36.1817 44.6991L36.6621 47.0559L34.8939 45.8389L33.1536 47.108L33.5853 44.7416L32.0216 43.1749Z" fill="white"/>
<path fill-rule="evenodd" clip-rule="evenodd" d="M26.4807 37.4261L28.5164 37.1733L29.2953 34.933L30.1218 37.1501L32.1616 37.3308L30.6408 38.9504L31.1212 41.3071L29.353 40.0901L27.6127 41.3592L28.0444 38.9929L26.4807 37.4261Z" fill="white"/>
<path fill-rule="evenodd" clip-rule="evenodd" d="M49.5678 37.4261L51.6035 37.1733L52.3824 34.933L53.2089 37.1501L55.2487 37.3308L53.7278 38.9504L54.2083 41.3071L52.4401 40.0901L50.6997 41.3592L51.1315 38.9929L49.5678 37.4261Z" fill="white"/>
<path fill-rule="evenodd" clip-rule="evenodd" d="M38.0243 37.4261L40.0599 37.1733L40.8388 34.933L41.6653 37.1501L43.7051 37.3308L42.1843 38.9504L42.6648 41.3071L40.8965 40.0901L39.1562 41.3592L39.588 38.9929L38.0243 37.4261Z" fill="white"/>
<path fill-rule="evenodd" clip-rule="evenodd" d="M55.5705 43.1749L57.6061 42.922L58.385 40.6818L59.2115 42.8988L61.2513 43.0795L59.7305 44.6991L60.2109 47.0559L58.4427 45.8389L56.7024 47.108L57.1341 44.7416L55.5705 43.1749Z" fill="white"/>
<path fill-rule="evenodd" clip-rule="evenodd" d="M44.0267 43.1749L46.0624 42.922L46.8413 40.6818L47.6678 42.8988L49.7076 43.0795L48.1868 44.6991L48.6672 47.0559L46.899 45.8389L45.1587 47.108L45.5904 44.7416L44.0267 43.1749Z" fill="white"/>
<path fill-rule="evenodd" clip-rule="evenodd" d="M26.4807 4.50202L28.5164 4.24918L29.2953 2.00892L30.1218 4.226L32.1616 4.4067L30.6408 6.02628L31.1212 8.38302L29.353 7.16604L27.6127 8.43511L28.0444 6.06876L26.4807 4.50202Z" fill="white"/>
<path fill-rule="evenodd" clip-rule="evenodd" d="M32.0216 10.2508L34.0573 9.99792L34.8362 7.75767L35.6627 9.97474L37.7025 10.1554L36.1817 11.775L36.6621 14.1318L34.8939 12.9148L33.1536 14.1839L33.5853 11.8175L32.0216 10.2508Z" fill="white"/>
<path fill-rule="evenodd" clip-rule="evenodd" d="M26.4807 15.4769L28.5164 15.2241L29.2953 12.9838L30.1218 15.2009L32.1616 15.3816L30.6408 17.0012L31.1212 19.3579L29.353 18.1409L27.6127 19.41L28.0444 17.0436L26.4807 15.4769Z" fill="white"/>
<path fill-rule="evenodd" clip-rule="evenodd" d="M32.0216 21.2256L34.0573 20.9728L34.8362 18.7325L35.6627 20.9496L37.7025 21.1303L36.1817 22.7499L36.6621 25.1066L34.8939 23.8897L33.1536 25.1587L33.5853 22.7924L32.0216 21.2256Z" fill="white"/>
<path fill-rule="evenodd" clip-rule="evenodd" d="M26.4807 26.4518L28.5164 26.1989L29.2953 23.9587L30.1218 26.1757L32.1616 26.3565L30.6408 27.976L31.1212 30.3328L29.353 29.1158L27.6127 30.3849L28.0444 28.0185L26.4807 26.4518Z" fill="white"/>
<path fill-rule="evenodd" clip-rule="evenodd" d="M32.0216 32.2005L34.0573 31.9477L34.8362 29.7074L35.6627 31.9245L37.7025 32.1052L36.1817 33.7248L36.6621 36.0815L34.8939 34.8645L33.1536 36.1336L33.5853 33.7673L32.0216 32.2005Z" fill="white"/>
<path fill-rule="evenodd" clip-rule="evenodd" d="M61.5731 37.4261L63.6087 37.1733L64.3877 34.933L65.2142 37.1501L67.2539 37.3308L65.7331 38.9504L66.2136 41.3071L64.4453 40.0901L62.705 41.3592L63.1368 38.9929L61.5731 37.4261Z" fill="white"/>
<path fill-rule="evenodd" clip-rule="evenodd" d="M38.0243 26.4518L40.0599 26.1989L40.8388 23.9587L41.6653 26.1757L43.7051 26.3565L42.1843 27.976L42.6648 30.3328L40.8965 29.1158L39.1562 30.3849L39.588 28.0185L38.0243 26.4518Z" fill="white"/>
<path fill-rule="evenodd" clip-rule="evenodd" d="M38.0243 4.50202L40.0599 4.24918L40.8388 2.00892L41.6653 4.226L43.7051 4.4067L42.1843 6.02628L42.6648 8.38302L40.8965 7.16604L39.1562 8.43511L39.588 6.06876L38.0243 4.50202Z" fill="white"/>
<path fill-rule="evenodd" clip-rule="evenodd" d="M38.0243 15.4769L40.0599 15.2241L40.8388 12.9838L41.6653 15.2009L43.7051 15.3816L42.1843 17.0012L42.6648 19.3579L40.8965 18.1409L39.1562 19.41L39.588 17.0436L38.0243 15.4769Z" fill="white"/>
<path fill-rule="evenodd" clip-rule="evenodd" d="M55.5705 32.2005L57.6061 31.9477L58.385 29.7074L59.2115 31.9245L61.2513 32.1052L59.7305 33.7248L60.2109 36.0815L58.4427 34.8645L56.7024 36.1336L57.1341 33.7673L55.5705 32.2005Z" fill="white"/>
<path fill-rule="evenodd" clip-rule="evenodd" d="M44.0267 32.2005L46.0624 31.9477L46.8413 29.7074L47.6678 31.9245L49.7076 32.1052L48.1868 33.7248L48.6672 36.0815L46.899 34.8645L45.1587 36.1336L45.5904 33.7673L44.0267 32.2005Z" fill="white"/>
<path fill-rule="evenodd" clip-rule="evenodd" d="M44.0267 10.2508L46.0624 9.99792L46.8413 7.75767L47.6678 9.97474L49.7076 10.1554L48.1868 11.775L48.6672 14.1318L46.899 12.9148L45.1587 14.1839L45.5904 11.8175L44.0267 10.2508Z" fill="white"/>
<path fill-rule="evenodd" clip-rule="evenodd" d="M44.0267 21.2256L46.0624 20.9728L46.8413 18.7325L47.6678 20.9496L49.7076 21.1303L48.1868 22.7499L48.6672 25.1066L46.899 23.8897L45.1587 25.1587L45.5904 22.7924L44.0267 21.2256Z" fill="white"/>
<path fill-rule="evenodd" clip-rule="evenodd" d="M61.5731 26.4518L63.6087 26.1989L64.3877 23.9587L65.2142 26.1757L67.2539 26.3565L65.7331 27.976L66.2136 30.3328L64.4453 29.1158L62.705 30.3849L63.1368 28.0185L61.5731 26.4518Z" fill="white"/>
<path fill-rule="evenodd" clip-rule="evenodd" d="M49.5678 26.4518L51.6035 26.1989L52.3824 23.9587L53.2089 26.1757L55.2487 26.3565L53.7278 27.976L54.2083 30.3328L52.4401 29.1158L50.6997 30.3849L51.1315 28.0185L49.5678 26.4518Z" fill="white"/>
<path fill-rule="evenodd" clip-rule="evenodd" d="M49.5678 4.50202L51.6035 4.24918L52.3824 2.00892L53.2089 4.226L55.2487 4.4067L53.7278 6.02628L54.2083 8.38302L52.4401 7.16604L50.6997 8.43511L51.1315 6.06876L49.5678 4.50202Z" fill="white"/>
<path fill-rule="evenodd" clip-rule="evenodd" d="M49.5678 15.4769L51.6035 15.2241L52.3824 12.9838L53.2089 15.2009L55.2487 15.3816L53.7278 17.0012L54.2083 19.3579L52.4401 18.1409L50.6997 19.41L51.1315 17.0436L49.5678 15.4769Z" fill="white"/>
<path fill-rule="evenodd" clip-rule="evenodd" d="M61.5731 4.50202L63.6087 4.24918L64.3877 2.00892L65.2142 4.226L67.2539 4.4067L65.7331 6.02628L66.2136 8.38302L64.4453 7.16604L62.705 8.43511L63.1368 6.06876L61.5731 4.50202Z" fill="white"/>
<path fill-rule="evenodd" clip-rule="evenodd" d="M55.5705 10.2508L57.6061 9.99792L58.385 7.75767L59.2115 9.97474L61.2513 10.1554L59.7305 11.775L60.2109 14.1318L58.4427 12.9148L56.7024 14.1839L57.1341 11.8175L55.5705 10.2508Z" fill="white"/>
<path fill-rule="evenodd" clip-rule="evenodd" d="M61.5731 15.4769L63.6087 15.2241L64.3877 12.9838L65.2142 15.2009L67.2539 15.3816L65.7331 17.0012L66.2136 19.3579L64.4453 18.1409L62.705 19.41L63.1368 17.0436L61.5731 15.4769Z" fill="white"/>
<path fill-rule="evenodd" clip-rule="evenodd" d="M55.5705 21.2256L57.6061 20.9728L58.385 18.7325L59.2115 20.9496L61.2513 21.1303L59.7305 22.7499L60.2109 25.1066L58.4427 23.8897L56.7024 25.1587L57.1341 22.7924L55.5705 21.2256Z" fill="white"/>
</g>
<defs>
<clipPath id="clip0_29032_156">
<rect width="175" height="104" fill="white"/>
</clipPath>
</defs>
</svg>
