<svg width="451" height="198" viewBox="0 0 451 198" fill="none" xmlns="http://www.w3.org/2000/svg">
<rect width="451" height="18" fill="#545454"/>
<rect y="18" width="451" height="18" fill="#404040"/>
<rect y="36" width="451" height="18" fill="#545454"/>
<rect y="54" width="451" height="18" fill="#404040"/>
<rect y="72" width="451" height="18" fill="#545454"/>
<rect y="90" width="451" height="18" fill="#404040"/>
<rect y="108" width="451" height="18" fill="#545454"/>
<rect y="126" width="451" height="18" fill="#404040"/>
<rect y="144" width="451" height="18" fill="#545454"/>
<rect y="162" width="451" height="18" fill="#404040"/>
<rect y="180" width="451" height="18" fill="#545454"/>
<path d="M250.333 53C249.967 53 249.653 52.8694 249.392 52.6083C249.131 52.3472 249 52.0333 249 51.6667V42.3333C249 41.9667 249.131 41.6528 249.392 41.3917C249.653 41.1306 249.967 41 250.333 41H259.667C260.033 41 260.347 41.1306 260.608 41.3917C260.869 41.6528 261 41.9667 261 42.3333V51.6667C261 52.0333 260.869 52.3472 260.608 52.6083C260.347 52.8694 260.033 53 259.667 53H250.333ZM251 50.3333H259L256.5 47L254.5 49.6667L253 47.6667L251 50.3333Z" fill="#FEF7FF"/>
<path d="M269.212 51V41.6943H270.444V51H269.212ZM272.475 51V44.2588H273.497V45.2046C273.709 44.8745 273.99 44.61 274.341 44.4111C274.693 44.208 275.092 44.1064 275.541 44.1064C276.04 44.1064 276.449 44.2101 276.766 44.4175C277.088 44.6248 277.314 44.9147 277.445 45.2871C277.979 44.5 278.673 44.1064 279.527 44.1064C280.196 44.1064 280.71 44.2926 281.07 44.665C281.43 45.0332 281.609 45.6024 281.609 46.3726V51H280.473V46.7534C280.473 46.2964 280.435 45.9684 280.359 45.7695C280.287 45.5664 280.154 45.4035 279.959 45.2808C279.764 45.158 279.536 45.0967 279.273 45.0967C278.799 45.0967 278.406 45.2554 278.093 45.5728C277.78 45.8859 277.623 46.3895 277.623 47.0835V51H276.48V46.6201C276.48 46.1123 276.387 45.7314 276.201 45.4775C276.015 45.2236 275.71 45.0967 275.287 45.0967C274.965 45.0967 274.667 45.1813 274.392 45.3506C274.121 45.5199 273.924 45.7674 273.802 46.0933C273.679 46.4191 273.618 46.8888 273.618 47.5024V51H272.475ZM287.703 50.1685C287.28 50.5282 286.872 50.7821 286.478 50.9302C286.089 51.0783 285.67 51.1523 285.221 51.1523C284.481 51.1523 283.911 50.9725 283.514 50.6128C283.116 50.2489 282.917 49.7855 282.917 49.2227C282.917 48.8926 282.991 48.5921 283.139 48.3213C283.292 48.0462 283.488 47.8262 283.729 47.6611C283.975 47.4961 284.25 47.3713 284.555 47.2866C284.779 47.2274 285.118 47.1702 285.57 47.1152C286.493 47.0052 287.172 46.874 287.608 46.7217C287.612 46.5651 287.614 46.4657 287.614 46.4233C287.614 45.9578 287.506 45.6299 287.291 45.4395C286.999 45.1813 286.565 45.0522 285.989 45.0522C285.452 45.0522 285.054 45.1475 284.796 45.3379C284.542 45.5241 284.354 45.8563 284.231 46.3345L283.114 46.1821C283.215 45.7039 283.382 45.3188 283.615 45.0269C283.848 44.7306 284.184 44.5042 284.625 44.3477C285.065 44.1868 285.575 44.1064 286.154 44.1064C286.73 44.1064 287.197 44.1742 287.557 44.3096C287.917 44.445 288.181 44.6164 288.351 44.8237C288.52 45.0269 288.638 45.285 288.706 45.5981C288.744 45.7928 288.763 46.144 288.763 46.6519V48.1753C288.763 49.2375 288.786 49.9103 288.833 50.1938C288.884 50.4731 288.981 50.7419 289.125 51H287.932C287.813 50.763 287.737 50.4858 287.703 50.1685ZM287.608 47.6167C287.193 47.786 286.571 47.9299 285.742 48.0483C285.272 48.116 284.94 48.1922 284.745 48.2769C284.55 48.3615 284.4 48.4863 284.294 48.6514C284.189 48.8122 284.136 48.992 284.136 49.1909C284.136 49.4956 284.25 49.7495 284.479 49.9526C284.711 50.1558 285.05 50.2573 285.494 50.2573C285.934 50.2573 286.326 50.1621 286.668 49.9717C287.011 49.777 287.263 49.5125 287.424 49.1782C287.547 48.9201 287.608 48.5392 287.608 48.0356V47.6167ZM290.331 51.5586L291.442 51.7236C291.488 52.0664 291.618 52.3161 291.829 52.4727C292.113 52.6842 292.5 52.79 292.991 52.79C293.52 52.79 293.928 52.6842 294.216 52.4727C294.504 52.2611 294.698 51.9648 294.8 51.584C294.859 51.3512 294.887 50.8625 294.882 50.1177C294.383 50.7059 293.761 51 293.016 51C292.089 51 291.372 50.6657 290.864 49.9971C290.356 49.3285 290.103 48.5265 290.103 47.5913C290.103 46.9481 290.219 46.3556 290.452 45.814C290.684 45.2681 291.021 44.847 291.461 44.5508C291.905 44.2546 292.426 44.1064 293.022 44.1064C293.818 44.1064 294.474 44.4281 294.99 45.0713V44.2588H296.044V50.0859C296.044 51.1354 295.936 51.8781 295.72 52.314C295.509 52.7541 295.17 53.1011 294.705 53.355C294.243 53.6089 293.674 53.7358 292.997 53.7358C292.193 53.7358 291.543 53.5539 291.048 53.1899C290.553 52.8302 290.314 52.2865 290.331 51.5586ZM291.277 47.5088C291.277 48.3932 291.452 49.0386 291.804 49.4448C292.155 49.8511 292.595 50.0542 293.124 50.0542C293.649 50.0542 294.089 49.8532 294.444 49.4512C294.8 49.0449 294.978 48.4102 294.978 47.5469C294.978 46.7217 294.793 46.0996 294.425 45.6807C294.061 45.2617 293.621 45.0522 293.105 45.0522C292.597 45.0522 292.166 45.2596 291.81 45.6743C291.455 46.0848 291.277 46.6963 291.277 47.5088ZM302.392 48.8291L303.572 48.9751C303.386 49.6649 303.041 50.2002 302.538 50.5811C302.034 50.9619 301.391 51.1523 300.608 51.1523C299.622 51.1523 298.839 50.8498 298.259 50.2446C297.684 49.6353 297.396 48.7826 297.396 47.6865C297.396 46.5524 297.688 45.6722 298.272 45.0459C298.856 44.4196 299.613 44.1064 300.544 44.1064C301.446 44.1064 302.182 44.4132 302.753 45.0269C303.325 45.6405 303.61 46.5037 303.61 47.6167C303.61 47.6844 303.608 47.786 303.604 47.9214H298.577C298.619 48.6619 298.828 49.229 299.205 49.6226C299.582 50.0161 300.051 50.2129 300.614 50.2129C301.033 50.2129 301.391 50.1029 301.687 49.8828C301.983 49.6628 302.218 49.3115 302.392 48.8291ZM298.64 46.9819H302.404C302.354 46.4149 302.21 45.9896 301.973 45.7061C301.609 45.266 301.137 45.0459 300.557 45.0459C300.032 45.0459 299.59 45.2215 299.23 45.5728C298.875 45.924 298.678 46.3937 298.64 46.9819Z" fill="white"/>
<path d="M250.333 35C249.967 35 249.653 34.8694 249.392 34.6083C249.131 34.3472 249 34.0333 249 33.6667V24.3333C249 23.9667 249.131 23.6528 249.392 23.3917C249.653 23.1306 249.967 23 250.333 23H259.667C260.033 23 260.347 23.1306 260.608 23.3917C260.869 23.6528 261 23.9667 261 24.3333V33.6667C261 34.0333 260.869 34.3472 260.608 34.6083C260.347 34.8694 260.033 35 259.667 35H250.333ZM251 32.3333H259L256.5 29L254.5 31.6667L253 29.6667L251 32.3333Z" fill="#FEF7FF"/>
<path d="M269.212 33V23.6943H270.444V33H269.212ZM272.475 33V26.2588H273.497V27.2046C273.709 26.8745 273.99 26.61 274.341 26.4111C274.693 26.208 275.092 26.1064 275.541 26.1064C276.04 26.1064 276.449 26.2101 276.766 26.4175C277.088 26.6248 277.314 26.9147 277.445 27.2871C277.979 26.5 278.673 26.1064 279.527 26.1064C280.196 26.1064 280.71 26.2926 281.07 26.665C281.43 27.0332 281.609 27.6024 281.609 28.3726V33H280.473V28.7534C280.473 28.2964 280.435 27.9684 280.359 27.7695C280.287 27.5664 280.154 27.4035 279.959 27.2808C279.764 27.158 279.536 27.0967 279.273 27.0967C278.799 27.0967 278.406 27.2554 278.093 27.5728C277.78 27.8859 277.623 28.3895 277.623 29.0835V33H276.48V28.6201C276.48 28.1123 276.387 27.7314 276.201 27.4775C276.015 27.2236 275.71 27.0967 275.287 27.0967C274.965 27.0967 274.667 27.1813 274.392 27.3506C274.121 27.5199 273.924 27.7674 273.802 28.0933C273.679 28.4191 273.618 28.8888 273.618 29.5024V33H272.475ZM287.703 32.1685C287.28 32.5282 286.872 32.7821 286.478 32.9302C286.089 33.0783 285.67 33.1523 285.221 33.1523C284.481 33.1523 283.911 32.9725 283.514 32.6128C283.116 32.2489 282.917 31.7855 282.917 31.2227C282.917 30.8926 282.991 30.5921 283.139 30.3213C283.292 30.0462 283.488 29.8262 283.729 29.6611C283.975 29.4961 284.25 29.3713 284.555 29.2866C284.779 29.2274 285.118 29.1702 285.57 29.1152C286.493 29.0052 287.172 28.874 287.608 28.7217C287.612 28.5651 287.614 28.4657 287.614 28.4233C287.614 27.9578 287.506 27.6299 287.291 27.4395C286.999 27.1813 286.565 27.0522 285.989 27.0522C285.452 27.0522 285.054 27.1475 284.796 27.3379C284.542 27.5241 284.354 27.8563 284.231 28.3345L283.114 28.1821C283.215 27.7039 283.382 27.3188 283.615 27.0269C283.848 26.7306 284.184 26.5042 284.625 26.3477C285.065 26.1868 285.575 26.1064 286.154 26.1064C286.73 26.1064 287.197 26.1742 287.557 26.3096C287.917 26.445 288.181 26.6164 288.351 26.8237C288.52 27.0269 288.638 27.285 288.706 27.5981C288.744 27.7928 288.763 28.144 288.763 28.6519V30.1753C288.763 31.2375 288.786 31.9103 288.833 32.1938C288.884 32.4731 288.981 32.7419 289.125 33H287.932C287.813 32.763 287.737 32.4858 287.703 32.1685ZM287.608 29.6167C287.193 29.786 286.571 29.9299 285.742 30.0483C285.272 30.116 284.94 30.1922 284.745 30.2769C284.55 30.3615 284.4 30.4863 284.294 30.6514C284.189 30.8122 284.136 30.992 284.136 31.1909C284.136 31.4956 284.25 31.7495 284.479 31.9526C284.711 32.1558 285.05 32.2573 285.494 32.2573C285.934 32.2573 286.326 32.1621 286.668 31.9717C287.011 31.777 287.263 31.5125 287.424 31.1782C287.547 30.9201 287.608 30.5392 287.608 30.0356V29.6167ZM290.331 33.5586L291.442 33.7236C291.488 34.0664 291.618 34.3161 291.829 34.4727C292.113 34.6842 292.5 34.79 292.991 34.79C293.52 34.79 293.928 34.6842 294.216 34.4727C294.504 34.2611 294.698 33.9648 294.8 33.584C294.859 33.3512 294.887 32.8625 294.882 32.1177C294.383 32.7059 293.761 33 293.016 33C292.089 33 291.372 32.6657 290.864 31.9971C290.356 31.3285 290.103 30.5265 290.103 29.5913C290.103 28.9481 290.219 28.3556 290.452 27.814C290.684 27.2681 291.021 26.847 291.461 26.5508C291.905 26.2546 292.426 26.1064 293.022 26.1064C293.818 26.1064 294.474 26.4281 294.99 27.0713V26.2588H296.044V32.0859C296.044 33.1354 295.936 33.8781 295.72 34.314C295.509 34.7541 295.17 35.1011 294.705 35.355C294.243 35.6089 293.674 35.7358 292.997 35.7358C292.193 35.7358 291.543 35.5539 291.048 35.1899C290.553 34.8302 290.314 34.2865 290.331 33.5586ZM291.277 29.5088C291.277 30.3932 291.452 31.0386 291.804 31.4448C292.155 31.8511 292.595 32.0542 293.124 32.0542C293.649 32.0542 294.089 31.8532 294.444 31.4512C294.8 31.0449 294.978 30.4102 294.978 29.5469C294.978 28.7217 294.793 28.0996 294.425 27.6807C294.061 27.2617 293.621 27.0522 293.105 27.0522C292.597 27.0522 292.166 27.2596 291.81 27.6743C291.455 28.0848 291.277 28.6963 291.277 29.5088ZM302.392 30.8291L303.572 30.9751C303.386 31.6649 303.041 32.2002 302.538 32.5811C302.034 32.9619 301.391 33.1523 300.608 33.1523C299.622 33.1523 298.839 32.8498 298.259 32.2446C297.684 31.6353 297.396 30.7826 297.396 29.6865C297.396 28.5524 297.688 27.6722 298.272 27.0459C298.856 26.4196 299.613 26.1064 300.544 26.1064C301.446 26.1064 302.182 26.4132 302.753 27.0269C303.325 27.6405 303.61 28.5037 303.61 29.6167C303.61 29.6844 303.608 29.786 303.604 29.9214H298.577C298.619 30.6619 298.828 31.229 299.205 31.6226C299.582 32.0161 300.051 32.2129 300.614 32.2129C301.033 32.2129 301.391 32.1029 301.687 31.8828C301.983 31.6628 302.218 31.3115 302.392 30.8291ZM298.64 28.9819H302.404C302.354 28.4149 302.21 27.9896 301.973 27.7061C301.609 27.266 301.137 27.0459 300.557 27.0459C300.032 27.0459 299.59 27.2215 299.23 27.5728C298.875 27.924 298.678 28.3937 298.64 28.9819Z" fill="white"/>
<path d="M250.333 17C249.967 17 249.653 16.8694 249.392 16.6083C249.131 16.3472 249 16.0333 249 15.6667V6.33333C249 5.96667 249.131 5.65278 249.392 5.39167C249.653 5.13056 249.967 5 250.333 5H259.667C260.033 5 260.347 5.13056 260.608 5.39167C260.869 5.65278 261 5.96667 261 6.33333V15.6667C261 16.0333 260.869 16.3472 260.608 16.6083C260.347 16.8694 260.033 17 259.667 17H250.333ZM251 14.3333H259L256.5 11L254.5 13.6667L253 11.6667L251 14.3333Z" fill="#FEF7FF"/>
<path d="M269.212 15V5.69434H270.444V15H269.212ZM272.475 15V8.25879H273.497V9.20459C273.709 8.87451 273.99 8.61003 274.341 8.41113C274.693 8.20801 275.092 8.10645 275.541 8.10645C276.04 8.10645 276.449 8.21012 276.766 8.41748C277.088 8.62484 277.314 8.91471 277.445 9.28711C277.979 8.5 278.673 8.10645 279.527 8.10645C280.196 8.10645 280.71 8.29264 281.07 8.66504C281.43 9.0332 281.609 9.60238 281.609 10.3726V15H280.473V10.7534C280.473 10.2964 280.435 9.96842 280.359 9.76953C280.287 9.56641 280.154 9.40348 279.959 9.28076C279.764 9.15804 279.536 9.09668 279.273 9.09668C278.799 9.09668 278.406 9.25537 278.093 9.57275C277.78 9.8859 277.623 10.3895 277.623 11.0835V15H276.48V10.6201C276.48 10.1123 276.387 9.73145 276.201 9.47754C276.015 9.22363 275.71 9.09668 275.287 9.09668C274.965 9.09668 274.667 9.18132 274.392 9.35059C274.121 9.51986 273.924 9.76742 273.802 10.0933C273.679 10.4191 273.618 10.8888 273.618 11.5024V15H272.475ZM287.703 14.1685C287.28 14.5282 286.872 14.7821 286.478 14.9302C286.089 15.0783 285.67 15.1523 285.221 15.1523C284.481 15.1523 283.911 14.9725 283.514 14.6128C283.116 14.2489 282.917 13.7855 282.917 13.2227C282.917 12.8926 282.991 12.5921 283.139 12.3213C283.292 12.0462 283.488 11.8262 283.729 11.6611C283.975 11.4961 284.25 11.3713 284.555 11.2866C284.779 11.2274 285.118 11.1702 285.57 11.1152C286.493 11.0052 287.172 10.874 287.608 10.7217C287.612 10.5651 287.614 10.4657 287.614 10.4233C287.614 9.95785 287.506 9.62988 287.291 9.43945C286.999 9.18132 286.565 9.05225 285.989 9.05225C285.452 9.05225 285.054 9.14746 284.796 9.33789C284.542 9.52409 284.354 9.85628 284.231 10.3345L283.114 10.1821C283.215 9.70394 283.382 9.31885 283.615 9.02686C283.848 8.73063 284.184 8.50423 284.625 8.34766C285.065 8.18685 285.575 8.10645 286.154 8.10645C286.73 8.10645 287.197 8.17415 287.557 8.30957C287.917 8.44499 288.181 8.61637 288.351 8.82373C288.52 9.02686 288.638 9.28499 288.706 9.59814C288.744 9.79281 288.763 10.144 288.763 10.6519V12.1753C288.763 13.2375 288.786 13.9103 288.833 14.1938C288.884 14.4731 288.981 14.7419 289.125 15H287.932C287.813 14.763 287.737 14.4858 287.703 14.1685ZM287.608 11.6167C287.193 11.786 286.571 11.9299 285.742 12.0483C285.272 12.116 284.94 12.1922 284.745 12.2769C284.55 12.3615 284.4 12.4863 284.294 12.6514C284.189 12.8122 284.136 12.992 284.136 13.1909C284.136 13.4956 284.25 13.7495 284.479 13.9526C284.711 14.1558 285.05 14.2573 285.494 14.2573C285.934 14.2573 286.326 14.1621 286.668 13.9717C287.011 13.777 287.263 13.5125 287.424 13.1782C287.547 12.9201 287.608 12.5392 287.608 12.0356V11.6167ZM290.331 15.5586L291.442 15.7236C291.488 16.0664 291.618 16.3161 291.829 16.4727C292.113 16.6842 292.5 16.79 292.991 16.79C293.52 16.79 293.928 16.6842 294.216 16.4727C294.504 16.2611 294.698 15.9648 294.8 15.584C294.859 15.3512 294.887 14.8625 294.882 14.1177C294.383 14.7059 293.761 15 293.016 15C292.089 15 291.372 14.6657 290.864 13.9971C290.356 13.3285 290.103 12.5265 290.103 11.5913C290.103 10.9481 290.219 10.3556 290.452 9.81396C290.684 9.26807 291.021 8.84701 291.461 8.55078C291.905 8.25456 292.426 8.10645 293.022 8.10645C293.818 8.10645 294.474 8.42806 294.99 9.07129V8.25879H296.044V14.0859C296.044 15.1354 295.936 15.8781 295.72 16.314C295.509 16.7541 295.17 17.1011 294.705 17.355C294.243 17.6089 293.674 17.7358 292.997 17.7358C292.193 17.7358 291.543 17.5539 291.048 17.1899C290.553 16.8302 290.314 16.2865 290.331 15.5586ZM291.277 11.5088C291.277 12.3932 291.452 13.0386 291.804 13.4448C292.155 13.8511 292.595 14.0542 293.124 14.0542C293.649 14.0542 294.089 13.8532 294.444 13.4512C294.8 13.0449 294.978 12.4102 294.978 11.5469C294.978 10.7217 294.793 10.0996 294.425 9.68066C294.061 9.26172 293.621 9.05225 293.105 9.05225C292.597 9.05225 292.166 9.2596 291.81 9.67432C291.455 10.0848 291.277 10.6963 291.277 11.5088ZM302.392 12.8291L303.572 12.9751C303.386 13.6649 303.041 14.2002 302.538 14.5811C302.034 14.9619 301.391 15.1523 300.608 15.1523C299.622 15.1523 298.839 14.8498 298.259 14.2446C297.684 13.6353 297.396 12.7826 297.396 11.6865C297.396 10.5524 297.688 9.6722 298.272 9.0459C298.856 8.4196 299.613 8.10645 300.544 8.10645C301.446 8.10645 302.182 8.41325 302.753 9.02686C303.325 9.64046 303.61 10.5037 303.61 11.6167C303.61 11.6844 303.608 11.786 303.604 11.9214H298.577C298.619 12.6619 298.828 13.229 299.205 13.6226C299.582 14.0161 300.051 14.2129 300.614 14.2129C301.033 14.2129 301.391 14.1029 301.687 13.8828C301.983 13.6628 302.218 13.3115 302.392 12.8291ZM298.64 10.9819H302.404C302.354 10.4149 302.21 9.98958 301.973 9.70605C301.609 9.26595 301.137 9.0459 300.557 9.0459C300.032 9.0459 299.59 9.22152 299.23 9.57275C298.875 9.92399 298.678 10.3937 298.64 10.9819Z" fill="white"/>
<path d="M175 5.90226C175 5.40395 175.404 5 175.902 5H179.624C179.908 5 180.175 5.13396 180.346 5.36152L180.862 6.05076C181.032 6.27832 181.3 6.41228 181.584 6.41228H187.632C188.13 6.41228 188.534 6.81624 188.534 7.31454V9.84211H175V5.90226Z" fill="#53B2DD"/>
<path d="M175 8.39849C175 8.14933 175.202 7.94736 175.451 7.94736H188.083C188.332 7.94736 188.534 8.14933 188.534 8.39849V15.4662C188.534 15.9645 188.13 16.3684 187.632 16.3684H175.902C175.404 16.3684 175 15.9645 175 15.4662V8.39849Z" fill="#5BC3F1"/>
<path d="M175 9.03007C175 8.78091 175.202 8.57894 175.451 8.57894H188.083C188.332 8.57894 188.534 8.78091 188.534 9.03007V16.0977C188.534 16.596 188.13 17 187.632 17H175.902C175.404 17 175 16.596 175 16.0977V9.03007Z" fill="#62CFFF"/>
<path d="M197.066 15V5.69434H203.344V6.79248H198.298V9.67432H202.665V10.7725H198.298V15H197.066ZM204.379 11.6294C204.379 10.381 204.726 9.45638 205.42 8.85547C206 8.35612 206.706 8.10645 207.54 8.10645C208.467 8.10645 209.224 8.41113 209.812 9.02051C210.401 9.62565 210.695 10.4635 210.695 11.5342C210.695 12.4017 210.564 13.0851 210.301 13.5845C210.043 14.0796 209.664 14.4647 209.165 14.7397C208.67 15.0148 208.128 15.1523 207.54 15.1523C206.596 15.1523 205.833 14.8498 205.249 14.2446C204.669 13.6395 204.379 12.7677 204.379 11.6294ZM205.553 11.6294C205.553 12.4927 205.742 13.1401 206.118 13.5718C206.495 13.9992 206.969 14.2129 207.54 14.2129C208.107 14.2129 208.579 13.9971 208.956 13.5654C209.332 13.1338 209.521 12.4757 209.521 11.5913C209.521 10.7576 209.33 10.1271 208.949 9.69971C208.573 9.26807 208.103 9.05225 207.54 9.05225C206.969 9.05225 206.495 9.26595 206.118 9.69336C205.742 10.1208 205.553 10.7661 205.553 11.6294ZM212.015 15V5.69434H213.158V15H212.015ZM219.309 15V14.1494C218.881 14.818 218.253 15.1523 217.423 15.1523C216.886 15.1523 216.391 15.0042 215.938 14.708C215.489 14.4118 215.14 13.9992 214.891 13.4702C214.645 12.937 214.522 12.3255 214.522 11.6357C214.522 10.9629 214.635 10.3535 214.859 9.80762C215.083 9.25749 215.42 8.83643 215.868 8.54443C216.317 8.25244 216.818 8.10645 217.373 8.10645C217.779 8.10645 218.141 8.1932 218.458 8.3667C218.775 8.53597 219.034 8.75814 219.232 9.0332V5.69434H220.369V15H219.309ZM215.697 11.6357C215.697 12.499 215.879 13.1444 216.243 13.5718C216.607 13.9992 217.036 14.2129 217.531 14.2129C218.031 14.2129 218.454 14.0098 218.801 13.6035C219.152 13.193 219.328 12.5688 219.328 11.731C219.328 10.8084 219.15 10.1313 218.794 9.69971C218.439 9.26807 218.001 9.05225 217.48 9.05225C216.973 9.05225 216.547 9.2596 216.205 9.67432C215.866 10.089 215.697 10.7428 215.697 11.6357ZM226.786 12.8291L227.967 12.9751C227.781 13.6649 227.436 14.2002 226.932 14.5811C226.429 14.9619 225.785 15.1523 225.002 15.1523C224.016 15.1523 223.234 14.8498 222.654 14.2446C222.078 13.6353 221.791 12.7826 221.791 11.6865C221.791 10.5524 222.083 9.6722 222.667 9.0459C223.25 8.4196 224.008 8.10645 224.939 8.10645C225.84 8.10645 226.577 8.41325 227.148 9.02686C227.719 9.64046 228.005 10.5037 228.005 11.6167C228.005 11.6844 228.003 11.786 227.999 11.9214H222.971C223.014 12.6619 223.223 13.229 223.6 13.6226C223.976 14.0161 224.446 14.2129 225.009 14.2129C225.428 14.2129 225.785 14.1029 226.082 13.8828C226.378 13.6628 226.613 13.3115 226.786 12.8291ZM223.035 10.9819H226.799C226.748 10.4149 226.604 9.98958 226.367 9.70605C226.003 9.26595 225.531 9.0459 224.952 9.0459C224.427 9.0459 223.985 9.22152 223.625 9.57275C223.27 9.92399 223.073 10.3937 223.035 10.9819ZM229.395 15V8.25879H230.423V9.28076C230.686 8.80257 230.927 8.4873 231.147 8.33496C231.371 8.18262 231.617 8.10645 231.883 8.10645C232.268 8.10645 232.66 8.22917 233.058 8.47461L232.664 9.53467C232.385 9.36963 232.105 9.28711 231.826 9.28711C231.576 9.28711 231.352 9.36328 231.153 9.51562C230.954 9.66374 230.813 9.87109 230.728 10.1377C230.601 10.5439 230.538 10.9883 230.538 11.4707V15H229.395Z" fill="white"/>
<path d="M250.333 125C249.967 125 249.653 124.869 249.392 124.608C249.131 124.347 249 124.033 249 123.667V114.333C249 113.967 249.131 113.653 249.392 113.392C249.653 113.131 249.967 113 250.333 113H259.667C260.033 113 260.347 113.131 260.608 113.392C260.869 113.653 261 113.967 261 114.333V123.667C261 124.033 260.869 124.347 260.608 124.608C260.347 124.869 260.033 125 259.667 125H250.333ZM251 122.333H259L256.5 119L254.5 121.667L253 119.667L251 122.333Z" fill="#FEF7FF"/>
<path d="M269.212 123V113.694H270.444V123H269.212ZM272.475 123V116.259H273.497V117.205C273.709 116.875 273.99 116.61 274.341 116.411C274.693 116.208 275.092 116.106 275.541 116.106C276.04 116.106 276.449 116.21 276.766 116.417C277.088 116.625 277.314 116.915 277.445 117.287C277.979 116.5 278.673 116.106 279.527 116.106C280.196 116.106 280.71 116.293 281.07 116.665C281.43 117.033 281.609 117.602 281.609 118.373V123H280.473V118.753C280.473 118.296 280.435 117.968 280.359 117.77C280.287 117.566 280.154 117.403 279.959 117.281C279.764 117.158 279.536 117.097 279.273 117.097C278.799 117.097 278.406 117.255 278.093 117.573C277.78 117.886 277.623 118.389 277.623 119.083V123H276.48V118.62C276.48 118.112 276.387 117.731 276.201 117.478C276.015 117.224 275.71 117.097 275.287 117.097C274.965 117.097 274.667 117.181 274.392 117.351C274.121 117.52 273.924 117.767 273.802 118.093C273.679 118.419 273.618 118.889 273.618 119.502V123H272.475ZM287.703 122.168C287.28 122.528 286.872 122.782 286.478 122.93C286.089 123.078 285.67 123.152 285.221 123.152C284.481 123.152 283.911 122.972 283.514 122.613C283.116 122.249 282.917 121.785 282.917 121.223C282.917 120.893 282.991 120.592 283.139 120.321C283.292 120.046 283.488 119.826 283.729 119.661C283.975 119.496 284.25 119.371 284.555 119.287C284.779 119.227 285.118 119.17 285.57 119.115C286.493 119.005 287.172 118.874 287.608 118.722C287.612 118.565 287.614 118.466 287.614 118.423C287.614 117.958 287.506 117.63 287.291 117.439C286.999 117.181 286.565 117.052 285.989 117.052C285.452 117.052 285.054 117.147 284.796 117.338C284.542 117.524 284.354 117.856 284.231 118.334L283.114 118.182C283.215 117.704 283.382 117.319 283.615 117.027C283.848 116.731 284.184 116.504 284.625 116.348C285.065 116.187 285.575 116.106 286.154 116.106C286.73 116.106 287.197 116.174 287.557 116.31C287.917 116.445 288.181 116.616 288.351 116.824C288.52 117.027 288.638 117.285 288.706 117.598C288.744 117.793 288.763 118.144 288.763 118.652V120.175C288.763 121.237 288.786 121.91 288.833 122.194C288.884 122.473 288.981 122.742 289.125 123H287.932C287.813 122.763 287.737 122.486 287.703 122.168ZM287.608 119.617C287.193 119.786 286.571 119.93 285.742 120.048C285.272 120.116 284.94 120.192 284.745 120.277C284.55 120.361 284.4 120.486 284.294 120.651C284.189 120.812 284.136 120.992 284.136 121.191C284.136 121.496 284.25 121.75 284.479 121.953C284.711 122.156 285.05 122.257 285.494 122.257C285.934 122.257 286.326 122.162 286.668 121.972C287.011 121.777 287.263 121.513 287.424 121.178C287.547 120.92 287.608 120.539 287.608 120.036V119.617ZM290.331 123.559L291.442 123.724C291.488 124.066 291.618 124.316 291.829 124.473C292.113 124.684 292.5 124.79 292.991 124.79C293.52 124.79 293.928 124.684 294.216 124.473C294.504 124.261 294.698 123.965 294.8 123.584C294.859 123.351 294.887 122.862 294.882 122.118C294.383 122.706 293.761 123 293.016 123C292.089 123 291.372 122.666 290.864 121.997C290.356 121.328 290.103 120.527 290.103 119.591C290.103 118.948 290.219 118.356 290.452 117.814C290.684 117.268 291.021 116.847 291.461 116.551C291.905 116.255 292.426 116.106 293.022 116.106C293.818 116.106 294.474 116.428 294.99 117.071V116.259H296.044V122.086C296.044 123.135 295.936 123.878 295.72 124.314C295.509 124.754 295.17 125.101 294.705 125.355C294.243 125.609 293.674 125.736 292.997 125.736C292.193 125.736 291.543 125.554 291.048 125.19C290.553 124.83 290.314 124.286 290.331 123.559ZM291.277 119.509C291.277 120.393 291.452 121.039 291.804 121.445C292.155 121.851 292.595 122.054 293.124 122.054C293.649 122.054 294.089 121.853 294.444 121.451C294.8 121.045 294.978 120.41 294.978 119.547C294.978 118.722 294.793 118.1 294.425 117.681C294.061 117.262 293.621 117.052 293.105 117.052C292.597 117.052 292.166 117.26 291.81 117.674C291.455 118.085 291.277 118.696 291.277 119.509ZM302.392 120.829L303.572 120.975C303.386 121.665 303.041 122.2 302.538 122.581C302.034 122.962 301.391 123.152 300.608 123.152C299.622 123.152 298.839 122.85 298.259 122.245C297.684 121.635 297.396 120.783 297.396 119.687C297.396 118.552 297.688 117.672 298.272 117.046C298.856 116.42 299.613 116.106 300.544 116.106C301.446 116.106 302.182 116.413 302.753 117.027C303.325 117.64 303.61 118.504 303.61 119.617C303.61 119.684 303.608 119.786 303.604 119.921H298.577C298.619 120.662 298.828 121.229 299.205 121.623C299.582 122.016 300.051 122.213 300.614 122.213C301.033 122.213 301.391 122.103 301.687 121.883C301.983 121.663 302.218 121.312 302.392 120.829ZM298.64 118.982H302.404C302.354 118.415 302.21 117.99 301.973 117.706C301.609 117.266 301.137 117.046 300.557 117.046C300.032 117.046 299.59 117.222 299.23 117.573C298.875 117.924 298.678 118.394 298.64 118.982Z" fill="white"/>
<path d="M250.333 107C249.967 107 249.653 106.869 249.392 106.608C249.131 106.347 249 106.033 249 105.667V96.3333C249 95.9667 249.131 95.6528 249.392 95.3917C249.653 95.1306 249.967 95 250.333 95H259.667C260.033 95 260.347 95.1306 260.608 95.3917C260.869 95.6528 261 95.9667 261 96.3333V105.667C261 106.033 260.869 106.347 260.608 106.608C260.347 106.869 260.033 107 259.667 107H250.333ZM251 104.333H259L256.5 101L254.5 103.667L253 101.667L251 104.333Z" fill="#FEF7FF"/>
<path d="M269.212 105V95.6943H270.444V105H269.212ZM272.475 105V98.2588H273.497V99.2046C273.709 98.8745 273.99 98.61 274.341 98.4111C274.693 98.208 275.092 98.1064 275.541 98.1064C276.04 98.1064 276.449 98.2101 276.766 98.4175C277.088 98.6248 277.314 98.9147 277.445 99.2871C277.979 98.5 278.673 98.1064 279.527 98.1064C280.196 98.1064 280.71 98.2926 281.07 98.665C281.43 99.0332 281.609 99.6024 281.609 100.373V105H280.473V100.753C280.473 100.296 280.435 99.9684 280.359 99.7695C280.287 99.5664 280.154 99.4035 279.959 99.2808C279.764 99.158 279.536 99.0967 279.273 99.0967C278.799 99.0967 278.406 99.2554 278.093 99.5728C277.78 99.8859 277.623 100.389 277.623 101.083V105H276.48V100.62C276.48 100.112 276.387 99.7314 276.201 99.4775C276.015 99.2236 275.71 99.0967 275.287 99.0967C274.965 99.0967 274.667 99.1813 274.392 99.3506C274.121 99.5199 273.924 99.7674 273.802 100.093C273.679 100.419 273.618 100.889 273.618 101.502V105H272.475ZM287.703 104.168C287.28 104.528 286.872 104.782 286.478 104.93C286.089 105.078 285.67 105.152 285.221 105.152C284.481 105.152 283.911 104.972 283.514 104.613C283.116 104.249 282.917 103.785 282.917 103.223C282.917 102.893 282.991 102.592 283.139 102.321C283.292 102.046 283.488 101.826 283.729 101.661C283.975 101.496 284.25 101.371 284.555 101.287C284.779 101.227 285.118 101.17 285.57 101.115C286.493 101.005 287.172 100.874 287.608 100.722C287.612 100.565 287.614 100.466 287.614 100.423C287.614 99.9578 287.506 99.6299 287.291 99.4395C286.999 99.1813 286.565 99.0522 285.989 99.0522C285.452 99.0522 285.054 99.1475 284.796 99.3379C284.542 99.5241 284.354 99.8563 284.231 100.334L283.114 100.182C283.215 99.7039 283.382 99.3188 283.615 99.0269C283.848 98.7306 284.184 98.5042 284.625 98.3477C285.065 98.1868 285.575 98.1064 286.154 98.1064C286.73 98.1064 287.197 98.1742 287.557 98.3096C287.917 98.445 288.181 98.6164 288.351 98.8237C288.52 99.0269 288.638 99.285 288.706 99.5981C288.744 99.7928 288.763 100.144 288.763 100.652V102.175C288.763 103.237 288.786 103.91 288.833 104.194C288.884 104.473 288.981 104.742 289.125 105H287.932C287.813 104.763 287.737 104.486 287.703 104.168ZM287.608 101.617C287.193 101.786 286.571 101.93 285.742 102.048C285.272 102.116 284.94 102.192 284.745 102.277C284.55 102.361 284.4 102.486 284.294 102.651C284.189 102.812 284.136 102.992 284.136 103.191C284.136 103.496 284.25 103.75 284.479 103.953C284.711 104.156 285.05 104.257 285.494 104.257C285.934 104.257 286.326 104.162 286.668 103.972C287.011 103.777 287.263 103.513 287.424 103.178C287.547 102.92 287.608 102.539 287.608 102.036V101.617ZM290.331 105.559L291.442 105.724C291.488 106.066 291.618 106.316 291.829 106.473C292.113 106.684 292.5 106.79 292.991 106.79C293.52 106.79 293.928 106.684 294.216 106.473C294.504 106.261 294.698 105.965 294.8 105.584C294.859 105.351 294.887 104.862 294.882 104.118C294.383 104.706 293.761 105 293.016 105C292.089 105 291.372 104.666 290.864 103.997C290.356 103.328 290.103 102.527 290.103 101.591C290.103 100.948 290.219 100.356 290.452 99.814C290.684 99.2681 291.021 98.847 291.461 98.5508C291.905 98.2546 292.426 98.1064 293.022 98.1064C293.818 98.1064 294.474 98.4281 294.99 99.0713V98.2588H296.044V104.086C296.044 105.135 295.936 105.878 295.72 106.314C295.509 106.754 295.17 107.101 294.705 107.355C294.243 107.609 293.674 107.736 292.997 107.736C292.193 107.736 291.543 107.554 291.048 107.19C290.553 106.83 290.314 106.286 290.331 105.559ZM291.277 101.509C291.277 102.393 291.452 103.039 291.804 103.445C292.155 103.851 292.595 104.054 293.124 104.054C293.649 104.054 294.089 103.853 294.444 103.451C294.8 103.045 294.978 102.41 294.978 101.547C294.978 100.722 294.793 100.1 294.425 99.6807C294.061 99.2617 293.621 99.0522 293.105 99.0522C292.597 99.0522 292.166 99.2596 291.81 99.6743C291.455 100.085 291.277 100.696 291.277 101.509ZM302.392 102.829L303.572 102.975C303.386 103.665 303.041 104.2 302.538 104.581C302.034 104.962 301.391 105.152 300.608 105.152C299.622 105.152 298.839 104.85 298.259 104.245C297.684 103.635 297.396 102.783 297.396 101.687C297.396 100.552 297.688 99.6722 298.272 99.0459C298.856 98.4196 299.613 98.1064 300.544 98.1064C301.446 98.1064 302.182 98.4132 302.753 99.0269C303.325 99.6405 303.61 100.504 303.61 101.617C303.61 101.684 303.608 101.786 303.604 101.921H298.577C298.619 102.662 298.828 103.229 299.205 103.623C299.582 104.016 300.051 104.213 300.614 104.213C301.033 104.213 301.391 104.103 301.687 103.883C301.983 103.663 302.218 103.312 302.392 102.829ZM298.64 100.982H302.404C302.354 100.415 302.21 99.9896 301.973 99.7061C301.609 99.266 301.137 99.0459 300.557 99.0459C300.032 99.0459 299.59 99.2215 299.23 99.5728C298.875 99.924 298.678 100.394 298.64 100.982Z" fill="white"/>
<path d="M250.333 89C249.967 89 249.653 88.8694 249.392 88.6083C249.131 88.3472 249 88.0333 249 87.6667V78.3333C249 77.9667 249.131 77.6528 249.392 77.3917C249.653 77.1306 249.967 77 250.333 77H259.667C260.033 77 260.347 77.1306 260.608 77.3917C260.869 77.6528 261 77.9667 261 78.3333V87.6667C261 88.0333 260.869 88.3472 260.608 88.6083C260.347 88.8694 260.033 89 259.667 89H250.333ZM251 86.3333H259L256.5 83L254.5 85.6667L253 83.6667L251 86.3333Z" fill="#FEF7FF"/>
<path d="M269.212 87V77.6943H270.444V87H269.212ZM272.475 87V80.2588H273.497V81.2046C273.709 80.8745 273.99 80.61 274.341 80.4111C274.693 80.208 275.092 80.1064 275.541 80.1064C276.04 80.1064 276.449 80.2101 276.766 80.4175C277.088 80.6248 277.314 80.9147 277.445 81.2871C277.979 80.5 278.673 80.1064 279.527 80.1064C280.196 80.1064 280.71 80.2926 281.07 80.665C281.43 81.0332 281.609 81.6024 281.609 82.3726V87H280.473V82.7534C280.473 82.2964 280.435 81.9684 280.359 81.7695C280.287 81.5664 280.154 81.4035 279.959 81.2808C279.764 81.158 279.536 81.0967 279.273 81.0967C278.799 81.0967 278.406 81.2554 278.093 81.5728C277.78 81.8859 277.623 82.3895 277.623 83.0835V87H276.48V82.6201C276.48 82.1123 276.387 81.7314 276.201 81.4775C276.015 81.2236 275.71 81.0967 275.287 81.0967C274.965 81.0967 274.667 81.1813 274.392 81.3506C274.121 81.5199 273.924 81.7674 273.802 82.0933C273.679 82.4191 273.618 82.8888 273.618 83.5024V87H272.475ZM287.703 86.1685C287.28 86.5282 286.872 86.7821 286.478 86.9302C286.089 87.0783 285.67 87.1523 285.221 87.1523C284.481 87.1523 283.911 86.9725 283.514 86.6128C283.116 86.2489 282.917 85.7855 282.917 85.2227C282.917 84.8926 282.991 84.5921 283.139 84.3213C283.292 84.0462 283.488 83.8262 283.729 83.6611C283.975 83.4961 284.25 83.3713 284.555 83.2866C284.779 83.2274 285.118 83.1702 285.57 83.1152C286.493 83.0052 287.172 82.874 287.608 82.7217C287.612 82.5651 287.614 82.4657 287.614 82.4233C287.614 81.9578 287.506 81.6299 287.291 81.4395C286.999 81.1813 286.565 81.0522 285.989 81.0522C285.452 81.0522 285.054 81.1475 284.796 81.3379C284.542 81.5241 284.354 81.8563 284.231 82.3345L283.114 82.1821C283.215 81.7039 283.382 81.3188 283.615 81.0269C283.848 80.7306 284.184 80.5042 284.625 80.3477C285.065 80.1868 285.575 80.1064 286.154 80.1064C286.73 80.1064 287.197 80.1742 287.557 80.3096C287.917 80.445 288.181 80.6164 288.351 80.8237C288.52 81.0269 288.638 81.285 288.706 81.5981C288.744 81.7928 288.763 82.144 288.763 82.6519V84.1753C288.763 85.2375 288.786 85.9103 288.833 86.1938C288.884 86.4731 288.981 86.7419 289.125 87H287.932C287.813 86.763 287.737 86.4858 287.703 86.1685ZM287.608 83.6167C287.193 83.786 286.571 83.9299 285.742 84.0483C285.272 84.116 284.94 84.1922 284.745 84.2769C284.55 84.3615 284.4 84.4863 284.294 84.6514C284.189 84.8122 284.136 84.992 284.136 85.1909C284.136 85.4956 284.25 85.7495 284.479 85.9526C284.711 86.1558 285.05 86.2573 285.494 86.2573C285.934 86.2573 286.326 86.1621 286.668 85.9717C287.011 85.777 287.263 85.5125 287.424 85.1782C287.547 84.9201 287.608 84.5392 287.608 84.0356V83.6167ZM290.331 87.5586L291.442 87.7236C291.488 88.0664 291.618 88.3161 291.829 88.4727C292.113 88.6842 292.5 88.79 292.991 88.79C293.52 88.79 293.928 88.6842 294.216 88.4727C294.504 88.2611 294.698 87.9648 294.8 87.584C294.859 87.3512 294.887 86.8625 294.882 86.1177C294.383 86.7059 293.761 87 293.016 87C292.089 87 291.372 86.6657 290.864 85.9971C290.356 85.3285 290.103 84.5265 290.103 83.5913C290.103 82.9481 290.219 82.3556 290.452 81.814C290.684 81.2681 291.021 80.847 291.461 80.5508C291.905 80.2546 292.426 80.1064 293.022 80.1064C293.818 80.1064 294.474 80.4281 294.99 81.0713V80.2588H296.044V86.0859C296.044 87.1354 295.936 87.8781 295.72 88.314C295.509 88.7541 295.17 89.1011 294.705 89.355C294.243 89.6089 293.674 89.7358 292.997 89.7358C292.193 89.7358 291.543 89.5539 291.048 89.1899C290.553 88.8302 290.314 88.2865 290.331 87.5586ZM291.277 83.5088C291.277 84.3932 291.452 85.0386 291.804 85.4448C292.155 85.8511 292.595 86.0542 293.124 86.0542C293.649 86.0542 294.089 85.8532 294.444 85.4512C294.8 85.0449 294.978 84.4102 294.978 83.5469C294.978 82.7217 294.793 82.0996 294.425 81.6807C294.061 81.2617 293.621 81.0522 293.105 81.0522C292.597 81.0522 292.166 81.2596 291.81 81.6743C291.455 82.0848 291.277 82.6963 291.277 83.5088ZM302.392 84.8291L303.572 84.9751C303.386 85.6649 303.041 86.2002 302.538 86.5811C302.034 86.9619 301.391 87.1523 300.608 87.1523C299.622 87.1523 298.839 86.8498 298.259 86.2446C297.684 85.6353 297.396 84.7826 297.396 83.6865C297.396 82.5524 297.688 81.6722 298.272 81.0459C298.856 80.4196 299.613 80.1064 300.544 80.1064C301.446 80.1064 302.182 80.4132 302.753 81.0269C303.325 81.6405 303.61 82.5037 303.61 83.6167C303.61 83.6844 303.608 83.786 303.604 83.9214H298.577C298.619 84.6619 298.828 85.229 299.205 85.6226C299.582 86.0161 300.051 86.2129 300.614 86.2129C301.033 86.2129 301.391 86.1029 301.687 85.8828C301.983 85.6628 302.218 85.3115 302.392 84.8291ZM298.64 82.9819H302.404C302.354 82.4149 302.21 81.9896 301.973 81.7061C301.609 81.266 301.137 81.0459 300.557 81.0459C300.032 81.0459 299.59 81.2215 299.23 81.5728C298.875 81.924 298.678 82.3937 298.64 82.9819Z" fill="white"/>
<path d="M175 77.9023C175 77.404 175.404 77 175.902 77H179.624C179.908 77 180.175 77.134 180.346 77.3615L180.862 78.0508C181.032 78.2783 181.3 78.4123 181.584 78.4123H187.632C188.13 78.4123 188.534 78.8162 188.534 79.3145V81.8421H175V77.9023Z" fill="#53B2DD"/>
<path d="M175 80.3985C175 80.1493 175.202 79.9474 175.451 79.9474H188.083C188.332 79.9474 188.534 80.1493 188.534 80.3985V87.4662C188.534 87.9645 188.13 88.3684 187.632 88.3684H175.902C175.404 88.3684 175 87.9645 175 87.4662V80.3985Z" fill="#5BC3F1"/>
<path d="M175 81.0301C175 80.7809 175.202 80.5789 175.451 80.5789H188.083C188.332 80.5789 188.534 80.7809 188.534 81.0301V88.0977C188.534 88.596 188.13 89 187.632 89H175.902C175.404 89 175 88.596 175 88.0977V81.0301Z" fill="#62CFFF"/>
<path d="M197.066 87V77.6943H203.344V78.7925H198.298V81.6743H202.665V82.7725H198.298V87H197.066ZM204.379 83.6294C204.379 82.381 204.726 81.4564 205.42 80.8555C206 80.3561 206.706 80.1064 207.54 80.1064C208.467 80.1064 209.224 80.4111 209.812 81.0205C210.401 81.6257 210.695 82.4635 210.695 83.5342C210.695 84.4017 210.564 85.0851 210.301 85.5845C210.043 86.0796 209.664 86.4647 209.165 86.7397C208.67 87.0148 208.128 87.1523 207.54 87.1523C206.596 87.1523 205.833 86.8498 205.249 86.2446C204.669 85.6395 204.379 84.7677 204.379 83.6294ZM205.553 83.6294C205.553 84.4927 205.742 85.1401 206.118 85.5718C206.495 85.9992 206.969 86.2129 207.54 86.2129C208.107 86.2129 208.579 85.9971 208.956 85.5654C209.332 85.1338 209.521 84.4757 209.521 83.5913C209.521 82.7576 209.33 82.1271 208.949 81.6997C208.573 81.2681 208.103 81.0522 207.54 81.0522C206.969 81.0522 206.495 81.266 206.118 81.6934C205.742 82.1208 205.553 82.7661 205.553 83.6294ZM212.015 87V77.6943H213.158V87H212.015ZM219.309 87V86.1494C218.881 86.818 218.253 87.1523 217.423 87.1523C216.886 87.1523 216.391 87.0042 215.938 86.708C215.489 86.4118 215.14 85.9992 214.891 85.4702C214.645 84.937 214.522 84.3255 214.522 83.6357C214.522 82.9629 214.635 82.3535 214.859 81.8076C215.083 81.2575 215.42 80.8364 215.868 80.5444C216.317 80.2524 216.818 80.1064 217.373 80.1064C217.779 80.1064 218.141 80.1932 218.458 80.3667C218.775 80.536 219.034 80.7581 219.232 81.0332V77.6943H220.369V87H219.309ZM215.697 83.6357C215.697 84.499 215.879 85.1444 216.243 85.5718C216.607 85.9992 217.036 86.2129 217.531 86.2129C218.031 86.2129 218.454 86.0098 218.801 85.6035C219.152 85.193 219.328 84.5688 219.328 83.731C219.328 82.8084 219.15 82.1313 218.794 81.6997C218.439 81.2681 218.001 81.0522 217.48 81.0522C216.973 81.0522 216.547 81.2596 216.205 81.6743C215.866 82.089 215.697 82.7428 215.697 83.6357ZM226.786 84.8291L227.967 84.9751C227.781 85.6649 227.436 86.2002 226.932 86.5811C226.429 86.9619 225.785 87.1523 225.002 87.1523C224.016 87.1523 223.234 86.8498 222.654 86.2446C222.078 85.6353 221.791 84.7826 221.791 83.6865C221.791 82.5524 222.083 81.6722 222.667 81.0459C223.25 80.4196 224.008 80.1064 224.939 80.1064C225.84 80.1064 226.577 80.4132 227.148 81.0269C227.719 81.6405 228.005 82.5037 228.005 83.6167C228.005 83.6844 228.003 83.786 227.999 83.9214H222.971C223.014 84.6619 223.223 85.229 223.6 85.6226C223.976 86.0161 224.446 86.2129 225.009 86.2129C225.428 86.2129 225.785 86.1029 226.082 85.8828C226.378 85.6628 226.613 85.3115 226.786 84.8291ZM223.035 82.9819H226.799C226.748 82.4149 226.604 81.9896 226.367 81.7061C226.003 81.266 225.531 81.0459 224.952 81.0459C224.427 81.0459 223.985 81.2215 223.625 81.5728C223.27 81.924 223.073 82.3937 223.035 82.9819ZM229.395 87V80.2588H230.423V81.2808C230.686 80.8026 230.927 80.4873 231.147 80.335C231.371 80.1826 231.617 80.1064 231.883 80.1064C232.268 80.1064 232.66 80.2292 233.058 80.4746L232.664 81.5347C232.385 81.3696 232.105 81.2871 231.826 81.2871C231.576 81.2871 231.352 81.3633 231.153 81.5156C230.954 81.6637 230.813 81.8711 230.728 82.1377C230.601 82.5439 230.538 82.9883 230.538 83.4707V87H229.395Z" fill="white"/>
<path d="M250.333 197C249.967 197 249.653 196.869 249.392 196.608C249.131 196.347 249 196.033 249 195.667V186.333C249 185.967 249.131 185.653 249.392 185.392C249.653 185.131 249.967 185 250.333 185H259.667C260.033 185 260.347 185.131 260.608 185.392C260.869 185.653 261 185.967 261 186.333V195.667C261 196.033 260.869 196.347 260.608 196.608C260.347 196.869 260.033 197 259.667 197H250.333ZM251 194.333H259L256.5 191L254.5 193.667L253 191.667L251 194.333Z" fill="#FEF7FF"/>
<path d="M269.212 195V185.694H270.444V195H269.212ZM272.475 195V188.259H273.497V189.205C273.709 188.875 273.99 188.61 274.341 188.411C274.693 188.208 275.092 188.106 275.541 188.106C276.04 188.106 276.449 188.21 276.766 188.417C277.088 188.625 277.314 188.915 277.445 189.287C277.979 188.5 278.673 188.106 279.527 188.106C280.196 188.106 280.71 188.293 281.07 188.665C281.43 189.033 281.609 189.602 281.609 190.373V195H280.473V190.753C280.473 190.296 280.435 189.968 280.359 189.77C280.287 189.566 280.154 189.403 279.959 189.281C279.764 189.158 279.536 189.097 279.273 189.097C278.799 189.097 278.406 189.255 278.093 189.573C277.78 189.886 277.623 190.389 277.623 191.083V195H276.48V190.62C276.48 190.112 276.387 189.731 276.201 189.478C276.015 189.224 275.71 189.097 275.287 189.097C274.965 189.097 274.667 189.181 274.392 189.351C274.121 189.52 273.924 189.767 273.802 190.093C273.679 190.419 273.618 190.889 273.618 191.502V195H272.475ZM287.703 194.168C287.28 194.528 286.872 194.782 286.478 194.93C286.089 195.078 285.67 195.152 285.221 195.152C284.481 195.152 283.911 194.972 283.514 194.613C283.116 194.249 282.917 193.785 282.917 193.223C282.917 192.893 282.991 192.592 283.139 192.321C283.292 192.046 283.488 191.826 283.729 191.661C283.975 191.496 284.25 191.371 284.555 191.287C284.779 191.227 285.118 191.17 285.57 191.115C286.493 191.005 287.172 190.874 287.608 190.722C287.612 190.565 287.614 190.466 287.614 190.423C287.614 189.958 287.506 189.63 287.291 189.439C286.999 189.181 286.565 189.052 285.989 189.052C285.452 189.052 285.054 189.147 284.796 189.338C284.542 189.524 284.354 189.856 284.231 190.334L283.114 190.182C283.215 189.704 283.382 189.319 283.615 189.027C283.848 188.731 284.184 188.504 284.625 188.348C285.065 188.187 285.575 188.106 286.154 188.106C286.73 188.106 287.197 188.174 287.557 188.31C287.917 188.445 288.181 188.616 288.351 188.824C288.52 189.027 288.638 189.285 288.706 189.598C288.744 189.793 288.763 190.144 288.763 190.652V192.175C288.763 193.237 288.786 193.91 288.833 194.194C288.884 194.473 288.981 194.742 289.125 195H287.932C287.813 194.763 287.737 194.486 287.703 194.168ZM287.608 191.617C287.193 191.786 286.571 191.93 285.742 192.048C285.272 192.116 284.94 192.192 284.745 192.277C284.55 192.361 284.4 192.486 284.294 192.651C284.189 192.812 284.136 192.992 284.136 193.191C284.136 193.496 284.25 193.75 284.479 193.953C284.711 194.156 285.05 194.257 285.494 194.257C285.934 194.257 286.326 194.162 286.668 193.972C287.011 193.777 287.263 193.513 287.424 193.178C287.547 192.92 287.608 192.539 287.608 192.036V191.617ZM290.331 195.559L291.442 195.724C291.488 196.066 291.618 196.316 291.829 196.473C292.113 196.684 292.5 196.79 292.991 196.79C293.52 196.79 293.928 196.684 294.216 196.473C294.504 196.261 294.698 195.965 294.8 195.584C294.859 195.351 294.887 194.862 294.882 194.118C294.383 194.706 293.761 195 293.016 195C292.089 195 291.372 194.666 290.864 193.997C290.356 193.328 290.103 192.527 290.103 191.591C290.103 190.948 290.219 190.356 290.452 189.814C290.684 189.268 291.021 188.847 291.461 188.551C291.905 188.255 292.426 188.106 293.022 188.106C293.818 188.106 294.474 188.428 294.99 189.071V188.259H296.044V194.086C296.044 195.135 295.936 195.878 295.72 196.314C295.509 196.754 295.17 197.101 294.705 197.355C294.243 197.609 293.674 197.736 292.997 197.736C292.193 197.736 291.543 197.554 291.048 197.19C290.553 196.83 290.314 196.286 290.331 195.559ZM291.277 191.509C291.277 192.393 291.452 193.039 291.804 193.445C292.155 193.851 292.595 194.054 293.124 194.054C293.649 194.054 294.089 193.853 294.444 193.451C294.8 193.045 294.978 192.41 294.978 191.547C294.978 190.722 294.793 190.1 294.425 189.681C294.061 189.262 293.621 189.052 293.105 189.052C292.597 189.052 292.166 189.26 291.81 189.674C291.455 190.085 291.277 190.696 291.277 191.509ZM302.392 192.829L303.572 192.975C303.386 193.665 303.041 194.2 302.538 194.581C302.034 194.962 301.391 195.152 300.608 195.152C299.622 195.152 298.839 194.85 298.259 194.245C297.684 193.635 297.396 192.783 297.396 191.687C297.396 190.552 297.688 189.672 298.272 189.046C298.856 188.42 299.613 188.106 300.544 188.106C301.446 188.106 302.182 188.413 302.753 189.027C303.325 189.64 303.61 190.504 303.61 191.617C303.61 191.684 303.608 191.786 303.604 191.921H298.577C298.619 192.662 298.828 193.229 299.205 193.623C299.582 194.016 300.051 194.213 300.614 194.213C301.033 194.213 301.391 194.103 301.687 193.883C301.983 193.663 302.218 193.312 302.392 192.829ZM298.64 190.982H302.404C302.354 190.415 302.21 189.99 301.973 189.706C301.609 189.266 301.137 189.046 300.557 189.046C300.032 189.046 299.59 189.222 299.23 189.573C298.875 189.924 298.678 190.394 298.64 190.982Z" fill="white"/>
<path d="M250.333 179C249.967 179 249.653 178.869 249.392 178.608C249.131 178.347 249 178.033 249 177.667V168.333C249 167.967 249.131 167.653 249.392 167.392C249.653 167.131 249.967 167 250.333 167H259.667C260.033 167 260.347 167.131 260.608 167.392C260.869 167.653 261 167.967 261 168.333V177.667C261 178.033 260.869 178.347 260.608 178.608C260.347 178.869 260.033 179 259.667 179H250.333ZM251 176.333H259L256.5 173L254.5 175.667L253 173.667L251 176.333Z" fill="#FEF7FF"/>
<path d="M269.212 177V167.694H270.444V177H269.212ZM272.475 177V170.259H273.497V171.205C273.709 170.875 273.99 170.61 274.341 170.411C274.693 170.208 275.092 170.106 275.541 170.106C276.04 170.106 276.449 170.21 276.766 170.417C277.088 170.625 277.314 170.915 277.445 171.287C277.979 170.5 278.673 170.106 279.527 170.106C280.196 170.106 280.71 170.293 281.07 170.665C281.43 171.033 281.609 171.602 281.609 172.373V177H280.473V172.753C280.473 172.296 280.435 171.968 280.359 171.77C280.287 171.566 280.154 171.403 279.959 171.281C279.764 171.158 279.536 171.097 279.273 171.097C278.799 171.097 278.406 171.255 278.093 171.573C277.78 171.886 277.623 172.389 277.623 173.083V177H276.48V172.62C276.48 172.112 276.387 171.731 276.201 171.478C276.015 171.224 275.71 171.097 275.287 171.097C274.965 171.097 274.667 171.181 274.392 171.351C274.121 171.52 273.924 171.767 273.802 172.093C273.679 172.419 273.618 172.889 273.618 173.502V177H272.475ZM287.703 176.168C287.28 176.528 286.872 176.782 286.478 176.93C286.089 177.078 285.67 177.152 285.221 177.152C284.481 177.152 283.911 176.972 283.514 176.613C283.116 176.249 282.917 175.785 282.917 175.223C282.917 174.893 282.991 174.592 283.139 174.321C283.292 174.046 283.488 173.826 283.729 173.661C283.975 173.496 284.25 173.371 284.555 173.287C284.779 173.227 285.118 173.17 285.57 173.115C286.493 173.005 287.172 172.874 287.608 172.722C287.612 172.565 287.614 172.466 287.614 172.423C287.614 171.958 287.506 171.63 287.291 171.439C286.999 171.181 286.565 171.052 285.989 171.052C285.452 171.052 285.054 171.147 284.796 171.338C284.542 171.524 284.354 171.856 284.231 172.334L283.114 172.182C283.215 171.704 283.382 171.319 283.615 171.027C283.848 170.731 284.184 170.504 284.625 170.348C285.065 170.187 285.575 170.106 286.154 170.106C286.73 170.106 287.197 170.174 287.557 170.31C287.917 170.445 288.181 170.616 288.351 170.824C288.52 171.027 288.638 171.285 288.706 171.598C288.744 171.793 288.763 172.144 288.763 172.652V174.175C288.763 175.237 288.786 175.91 288.833 176.194C288.884 176.473 288.981 176.742 289.125 177H287.932C287.813 176.763 287.737 176.486 287.703 176.168ZM287.608 173.617C287.193 173.786 286.571 173.93 285.742 174.048C285.272 174.116 284.94 174.192 284.745 174.277C284.55 174.361 284.4 174.486 284.294 174.651C284.189 174.812 284.136 174.992 284.136 175.191C284.136 175.496 284.25 175.75 284.479 175.953C284.711 176.156 285.05 176.257 285.494 176.257C285.934 176.257 286.326 176.162 286.668 175.972C287.011 175.777 287.263 175.513 287.424 175.178C287.547 174.92 287.608 174.539 287.608 174.036V173.617ZM290.331 177.559L291.442 177.724C291.488 178.066 291.618 178.316 291.829 178.473C292.113 178.684 292.5 178.79 292.991 178.79C293.52 178.79 293.928 178.684 294.216 178.473C294.504 178.261 294.698 177.965 294.8 177.584C294.859 177.351 294.887 176.862 294.882 176.118C294.383 176.706 293.761 177 293.016 177C292.089 177 291.372 176.666 290.864 175.997C290.356 175.328 290.103 174.527 290.103 173.591C290.103 172.948 290.219 172.356 290.452 171.814C290.684 171.268 291.021 170.847 291.461 170.551C291.905 170.255 292.426 170.106 293.022 170.106C293.818 170.106 294.474 170.428 294.99 171.071V170.259H296.044V176.086C296.044 177.135 295.936 177.878 295.72 178.314C295.509 178.754 295.17 179.101 294.705 179.355C294.243 179.609 293.674 179.736 292.997 179.736C292.193 179.736 291.543 179.554 291.048 179.19C290.553 178.83 290.314 178.286 290.331 177.559ZM291.277 173.509C291.277 174.393 291.452 175.039 291.804 175.445C292.155 175.851 292.595 176.054 293.124 176.054C293.649 176.054 294.089 175.853 294.444 175.451C294.8 175.045 294.978 174.41 294.978 173.547C294.978 172.722 294.793 172.1 294.425 171.681C294.061 171.262 293.621 171.052 293.105 171.052C292.597 171.052 292.166 171.26 291.81 171.674C291.455 172.085 291.277 172.696 291.277 173.509ZM302.392 174.829L303.572 174.975C303.386 175.665 303.041 176.2 302.538 176.581C302.034 176.962 301.391 177.152 300.608 177.152C299.622 177.152 298.839 176.85 298.259 176.245C297.684 175.635 297.396 174.783 297.396 173.687C297.396 172.552 297.688 171.672 298.272 171.046C298.856 170.42 299.613 170.106 300.544 170.106C301.446 170.106 302.182 170.413 302.753 171.027C303.325 171.64 303.61 172.504 303.61 173.617C303.61 173.684 303.608 173.786 303.604 173.921H298.577C298.619 174.662 298.828 175.229 299.205 175.623C299.582 176.016 300.051 176.213 300.614 176.213C301.033 176.213 301.391 176.103 301.687 175.883C301.983 175.663 302.218 175.312 302.392 174.829ZM298.64 172.982H302.404C302.354 172.415 302.21 171.99 301.973 171.706C301.609 171.266 301.137 171.046 300.557 171.046C300.032 171.046 299.59 171.222 299.23 171.573C298.875 171.924 298.678 172.394 298.64 172.982Z" fill="white"/>
<path d="M250.333 161C249.967 161 249.653 160.869 249.392 160.608C249.131 160.347 249 160.033 249 159.667V150.333C249 149.967 249.131 149.653 249.392 149.392C249.653 149.131 249.967 149 250.333 149H259.667C260.033 149 260.347 149.131 260.608 149.392C260.869 149.653 261 149.967 261 150.333V159.667C261 160.033 260.869 160.347 260.608 160.608C260.347 160.869 260.033 161 259.667 161H250.333ZM251 158.333H259L256.5 155L254.5 157.667L253 155.667L251 158.333Z" fill="#FEF7FF"/>
<path d="M269.212 159V149.694H270.444V159H269.212ZM272.475 159V152.259H273.497V153.205C273.709 152.875 273.99 152.61 274.341 152.411C274.693 152.208 275.092 152.106 275.541 152.106C276.04 152.106 276.449 152.21 276.766 152.417C277.088 152.625 277.314 152.915 277.445 153.287C277.979 152.5 278.673 152.106 279.527 152.106C280.196 152.106 280.71 152.293 281.07 152.665C281.43 153.033 281.609 153.602 281.609 154.373V159H280.473V154.753C280.473 154.296 280.435 153.968 280.359 153.77C280.287 153.566 280.154 153.403 279.959 153.281C279.764 153.158 279.536 153.097 279.273 153.097C278.799 153.097 278.406 153.255 278.093 153.573C277.78 153.886 277.623 154.389 277.623 155.083V159H276.48V154.62C276.48 154.112 276.387 153.731 276.201 153.478C276.015 153.224 275.71 153.097 275.287 153.097C274.965 153.097 274.667 153.181 274.392 153.351C274.121 153.52 273.924 153.767 273.802 154.093C273.679 154.419 273.618 154.889 273.618 155.502V159H272.475ZM287.703 158.168C287.28 158.528 286.872 158.782 286.478 158.93C286.089 159.078 285.67 159.152 285.221 159.152C284.481 159.152 283.911 158.972 283.514 158.613C283.116 158.249 282.917 157.785 282.917 157.223C282.917 156.893 282.991 156.592 283.139 156.321C283.292 156.046 283.488 155.826 283.729 155.661C283.975 155.496 284.25 155.371 284.555 155.287C284.779 155.227 285.118 155.17 285.57 155.115C286.493 155.005 287.172 154.874 287.608 154.722C287.612 154.565 287.614 154.466 287.614 154.423C287.614 153.958 287.506 153.63 287.291 153.439C286.999 153.181 286.565 153.052 285.989 153.052C285.452 153.052 285.054 153.147 284.796 153.338C284.542 153.524 284.354 153.856 284.231 154.334L283.114 154.182C283.215 153.704 283.382 153.319 283.615 153.027C283.848 152.731 284.184 152.504 284.625 152.348C285.065 152.187 285.575 152.106 286.154 152.106C286.73 152.106 287.197 152.174 287.557 152.31C287.917 152.445 288.181 152.616 288.351 152.824C288.52 153.027 288.638 153.285 288.706 153.598C288.744 153.793 288.763 154.144 288.763 154.652V156.175C288.763 157.237 288.786 157.91 288.833 158.194C288.884 158.473 288.981 158.742 289.125 159H287.932C287.813 158.763 287.737 158.486 287.703 158.168ZM287.608 155.617C287.193 155.786 286.571 155.93 285.742 156.048C285.272 156.116 284.94 156.192 284.745 156.277C284.55 156.361 284.4 156.486 284.294 156.651C284.189 156.812 284.136 156.992 284.136 157.191C284.136 157.496 284.25 157.75 284.479 157.953C284.711 158.156 285.05 158.257 285.494 158.257C285.934 158.257 286.326 158.162 286.668 157.972C287.011 157.777 287.263 157.513 287.424 157.178C287.547 156.92 287.608 156.539 287.608 156.036V155.617ZM290.331 159.559L291.442 159.724C291.488 160.066 291.618 160.316 291.829 160.473C292.113 160.684 292.5 160.79 292.991 160.79C293.52 160.79 293.928 160.684 294.216 160.473C294.504 160.261 294.698 159.965 294.8 159.584C294.859 159.351 294.887 158.862 294.882 158.118C294.383 158.706 293.761 159 293.016 159C292.089 159 291.372 158.666 290.864 157.997C290.356 157.328 290.103 156.527 290.103 155.591C290.103 154.948 290.219 154.356 290.452 153.814C290.684 153.268 291.021 152.847 291.461 152.551C291.905 152.255 292.426 152.106 293.022 152.106C293.818 152.106 294.474 152.428 294.99 153.071V152.259H296.044V158.086C296.044 159.135 295.936 159.878 295.72 160.314C295.509 160.754 295.17 161.101 294.705 161.355C294.243 161.609 293.674 161.736 292.997 161.736C292.193 161.736 291.543 161.554 291.048 161.19C290.553 160.83 290.314 160.286 290.331 159.559ZM291.277 155.509C291.277 156.393 291.452 157.039 291.804 157.445C292.155 157.851 292.595 158.054 293.124 158.054C293.649 158.054 294.089 157.853 294.444 157.451C294.8 157.045 294.978 156.41 294.978 155.547C294.978 154.722 294.793 154.1 294.425 153.681C294.061 153.262 293.621 153.052 293.105 153.052C292.597 153.052 292.166 153.26 291.81 153.674C291.455 154.085 291.277 154.696 291.277 155.509ZM302.392 156.829L303.572 156.975C303.386 157.665 303.041 158.2 302.538 158.581C302.034 158.962 301.391 159.152 300.608 159.152C299.622 159.152 298.839 158.85 298.259 158.245C297.684 157.635 297.396 156.783 297.396 155.687C297.396 154.552 297.688 153.672 298.272 153.046C298.856 152.42 299.613 152.106 300.544 152.106C301.446 152.106 302.182 152.413 302.753 153.027C303.325 153.64 303.61 154.504 303.61 155.617C303.61 155.684 303.608 155.786 303.604 155.921H298.577C298.619 156.662 298.828 157.229 299.205 157.623C299.582 158.016 300.051 158.213 300.614 158.213C301.033 158.213 301.391 158.103 301.687 157.883C301.983 157.663 302.218 157.312 302.392 156.829ZM298.64 154.982H302.404C302.354 154.415 302.21 153.99 301.973 153.706C301.609 153.266 301.137 153.046 300.557 153.046C300.032 153.046 299.59 153.222 299.23 153.573C298.875 153.924 298.678 154.394 298.64 154.982Z" fill="white"/>
<path d="M175 149.902C175 149.404 175.404 149 175.902 149H179.624C179.908 149 180.175 149.134 180.346 149.362L180.862 150.051C181.032 150.278 181.3 150.412 181.584 150.412H187.632C188.13 150.412 188.534 150.816 188.534 151.315V153.842H175V149.902Z" fill="#53B2DD"/>
<path d="M175 152.398C175 152.149 175.202 151.947 175.451 151.947H188.083C188.332 151.947 188.534 152.149 188.534 152.398V159.466C188.534 159.964 188.13 160.368 187.632 160.368H175.902C175.404 160.368 175 159.964 175 159.466V152.398Z" fill="#5BC3F1"/>
<path d="M175 153.03C175 152.781 175.202 152.579 175.451 152.579H188.083C188.332 152.579 188.534 152.781 188.534 153.03V160.098C188.534 160.596 188.13 161 187.632 161H175.902C175.404 161 175 160.596 175 160.098V153.03Z" fill="#62CFFF"/>
<path d="M197.066 159V149.694H203.344V150.792H198.298V153.674H202.665V154.772H198.298V159H197.066ZM204.379 155.629C204.379 154.381 204.726 153.456 205.42 152.855C206 152.356 206.706 152.106 207.54 152.106C208.467 152.106 209.224 152.411 209.812 153.021C210.401 153.626 210.695 154.464 210.695 155.534C210.695 156.402 210.564 157.085 210.301 157.584C210.043 158.08 209.664 158.465 209.165 158.74C208.67 159.015 208.128 159.152 207.54 159.152C206.596 159.152 205.833 158.85 205.249 158.245C204.669 157.639 204.379 156.768 204.379 155.629ZM205.553 155.629C205.553 156.493 205.742 157.14 206.118 157.572C206.495 157.999 206.969 158.213 207.54 158.213C208.107 158.213 208.579 157.997 208.956 157.565C209.332 157.134 209.521 156.476 209.521 155.591C209.521 154.758 209.33 154.127 208.949 153.7C208.573 153.268 208.103 153.052 207.54 153.052C206.969 153.052 206.495 153.266 206.118 153.693C205.742 154.121 205.553 154.766 205.553 155.629ZM212.015 159V149.694H213.158V159H212.015ZM219.309 159V158.149C218.881 158.818 218.253 159.152 217.423 159.152C216.886 159.152 216.391 159.004 215.938 158.708C215.489 158.412 215.14 157.999 214.891 157.47C214.645 156.937 214.522 156.326 214.522 155.636C214.522 154.963 214.635 154.354 214.859 153.808C215.083 153.257 215.42 152.836 215.868 152.544C216.317 152.252 216.818 152.106 217.373 152.106C217.779 152.106 218.141 152.193 218.458 152.367C218.775 152.536 219.034 152.758 219.232 153.033V149.694H220.369V159H219.309ZM215.697 155.636C215.697 156.499 215.879 157.144 216.243 157.572C216.607 157.999 217.036 158.213 217.531 158.213C218.031 158.213 218.454 158.01 218.801 157.604C219.152 157.193 219.328 156.569 219.328 155.731C219.328 154.808 219.15 154.131 218.794 153.7C218.439 153.268 218.001 153.052 217.48 153.052C216.973 153.052 216.547 153.26 216.205 153.674C215.866 154.089 215.697 154.743 215.697 155.636ZM226.786 156.829L227.967 156.975C227.781 157.665 227.436 158.2 226.932 158.581C226.429 158.962 225.785 159.152 225.002 159.152C224.016 159.152 223.234 158.85 222.654 158.245C222.078 157.635 221.791 156.783 221.791 155.687C221.791 154.552 222.083 153.672 222.667 153.046C223.25 152.42 224.008 152.106 224.939 152.106C225.84 152.106 226.577 152.413 227.148 153.027C227.719 153.64 228.005 154.504 228.005 155.617C228.005 155.684 228.003 155.786 227.999 155.921H222.971C223.014 156.662 223.223 157.229 223.6 157.623C223.976 158.016 224.446 158.213 225.009 158.213C225.428 158.213 225.785 158.103 226.082 157.883C226.378 157.663 226.613 157.312 226.786 156.829ZM223.035 154.982H226.799C226.748 154.415 226.604 153.99 226.367 153.706C226.003 153.266 225.531 153.046 224.952 153.046C224.427 153.046 223.985 153.222 223.625 153.573C223.27 153.924 223.073 154.394 223.035 154.982ZM229.395 159V152.259H230.423V153.281C230.686 152.803 230.927 152.487 231.147 152.335C231.371 152.183 231.617 152.106 231.883 152.106C232.268 152.106 232.66 152.229 233.058 152.475L232.664 153.535C232.385 153.37 232.105 153.287 231.826 153.287C231.576 153.287 231.352 153.363 231.153 153.516C230.954 153.664 230.813 153.871 230.728 154.138C230.601 154.544 230.538 154.988 230.538 155.471V159H229.395Z" fill="white"/>
<path d="M8 5.90226C8 5.40395 8.41787 5 8.93333 5H12.7828C13.0769 5 13.3537 5.13396 13.53 5.36152L14.0638 6.05076C14.24 6.27832 14.5169 6.41228 14.8109 6.41228H21.0667C21.5821 6.41228 22 6.81624 22 7.31454V9.84211H8V5.90226Z" fill="#53B2DD"/>
<path d="M8 8.39849C8 8.14933 8.20893 7.94736 8.46667 7.94736H21.5333C21.7911 7.94736 22 8.14933 22 8.39849V15.4662C22 15.9645 21.5821 16.3684 21.0667 16.3684H8.93333C8.41787 16.3684 8 15.9645 8 15.4662V8.39849Z" fill="#5BC3F1"/>
<path d="M8 9.03007C8 8.78091 8.20893 8.57894 8.46667 8.57894H21.5333C21.7911 8.57894 22 8.78091 22 9.03007V16.0977C22 16.596 21.5821 17 21.0667 17H8.93333C8.41787 17 8 16.596 8 16.0977V9.03007Z" fill="#62CFFF"/>
<path d="M36.6426 11.7373L37.874 12.0483C37.6159 13.0597 37.1504 13.832 36.4775 14.3652C35.8089 14.8942 34.9901 15.1587 34.021 15.1587C33.0181 15.1587 32.2013 14.9556 31.5708 14.5493C30.9445 14.1388 30.4663 13.5464 30.1362 12.772C29.8104 11.9976 29.6475 11.166 29.6475 10.2773C29.6475 9.30827 29.8315 8.46403 30.1997 7.74463C30.5721 7.021 31.099 6.47298 31.7803 6.10059C32.4658 5.72396 33.2191 5.53564 34.04 5.53564C34.971 5.53564 35.7539 5.77262 36.3887 6.24658C37.0234 6.72054 37.4657 7.38704 37.7153 8.24609L36.5029 8.53174C36.2871 7.85465 35.974 7.36165 35.5635 7.05273C35.153 6.74382 34.6367 6.58936 34.0146 6.58936C33.2995 6.58936 32.7007 6.76074 32.2183 7.10352C31.7401 7.44629 31.4036 7.90755 31.209 8.4873C31.0143 9.06283 30.917 9.65739 30.917 10.271C30.917 11.0623 31.0312 11.7542 31.2598 12.3467C31.4925 12.9349 31.8522 13.375 32.3389 13.667C32.8255 13.959 33.3524 14.105 33.9194 14.105C34.6092 14.105 35.1932 13.9061 35.6714 13.5083C36.1496 13.1105 36.4733 12.5202 36.6426 11.7373ZM38.8262 11.6294C38.8262 10.381 39.1732 9.45638 39.8672 8.85547C40.4469 8.35612 41.1536 8.10645 41.9873 8.10645C42.9141 8.10645 43.6715 8.41113 44.2598 9.02051C44.848 9.62565 45.1421 10.4635 45.1421 11.5342C45.1421 12.4017 45.0109 13.0851 44.7485 13.5845C44.4904 14.0796 44.1117 14.4647 43.6123 14.7397C43.1172 15.0148 42.5755 15.1523 41.9873 15.1523C41.0436 15.1523 40.2798 14.8498 39.6958 14.2446C39.116 13.6395 38.8262 12.7677 38.8262 11.6294ZM40.0005 11.6294C40.0005 12.4927 40.1888 13.1401 40.5654 13.5718C40.9421 13.9992 41.416 14.2129 41.9873 14.2129C42.5544 14.2129 43.0262 13.9971 43.4028 13.5654C43.7795 13.1338 43.9678 12.4757 43.9678 11.5913C43.9678 10.7576 43.7773 10.1271 43.3965 9.69971C43.0199 9.26807 42.5501 9.05225 41.9873 9.05225C41.416 9.05225 40.9421 9.26595 40.5654 9.69336C40.1888 10.1208 40.0005 10.7661 40.0005 11.6294ZM46.4624 15V5.69434H47.605V15H46.4624ZM49.3569 15V5.69434H50.4995V15H49.3569ZM56.8916 12.8291L58.0723 12.9751C57.8861 13.6649 57.5412 14.2002 57.0376 14.5811C56.534 14.9619 55.8908 15.1523 55.1079 15.1523C54.1219 15.1523 53.339 14.8498 52.7593 14.2446C52.1838 13.6353 51.896 12.7826 51.896 11.6865C51.896 10.5524 52.188 9.6722 52.772 9.0459C53.356 8.4196 54.1134 8.10645 55.0444 8.10645C55.9458 8.10645 56.6821 8.41325 57.2534 9.02686C57.8247 9.64046 58.1104 10.5037 58.1104 11.6167C58.1104 11.6844 58.1082 11.786 58.104 11.9214H53.0767C53.119 12.6619 53.3285 13.229 53.7051 13.6226C54.0817 14.0161 54.5514 14.2129 55.1143 14.2129C55.5332 14.2129 55.8908 14.1029 56.187 13.8828C56.4832 13.6628 56.7181 13.3115 56.8916 12.8291ZM53.1401 10.9819H56.9043C56.8535 10.4149 56.7096 9.98958 56.4727 9.70605C56.1087 9.26595 55.6369 9.0459 55.0571 9.0459C54.5324 9.0459 54.0902 9.22152 53.7305 9.57275C53.375 9.92399 53.1782 10.3937 53.1401 10.9819ZM63.9121 12.5308L65.0356 12.6768C64.9129 13.4512 64.5977 14.0584 64.0898 14.4985C63.5863 14.9344 62.9663 15.1523 62.23 15.1523C61.3075 15.1523 60.5648 14.8519 60.002 14.251C59.4434 13.6458 59.1641 12.7804 59.1641 11.6548C59.1641 10.9269 59.2847 10.29 59.5259 9.74414C59.7671 9.19824 60.1331 8.78988 60.624 8.51904C61.1191 8.24398 61.6566 8.10645 62.2363 8.10645C62.9684 8.10645 63.5672 8.29264 64.0327 8.66504C64.4982 9.0332 64.7965 9.55794 64.9277 10.2393L63.8169 10.4106C63.7111 9.95785 63.5228 9.61719 63.252 9.38867C62.9854 9.16016 62.6616 9.0459 62.2808 9.0459C61.7052 9.0459 61.2376 9.25326 60.8779 9.66797C60.5182 10.0785 60.3384 10.7301 60.3384 11.623C60.3384 12.5286 60.5119 13.1867 60.8589 13.5972C61.2059 14.0076 61.6587 14.2129 62.2173 14.2129C62.6659 14.2129 63.0404 14.0754 63.3408 13.8003C63.6413 13.5252 63.8317 13.1021 63.9121 12.5308ZM68.5078 13.978L68.6729 14.9873C68.3512 15.055 68.0635 15.0889 67.8096 15.0889C67.3949 15.0889 67.0732 15.0233 66.8447 14.8921C66.6162 14.7609 66.4554 14.5895 66.3623 14.3779C66.2692 14.1621 66.2227 13.7114 66.2227 13.0259V9.14746H65.3848V8.25879H66.2227V6.58936L67.3589 5.90381V8.25879H68.5078V9.14746H67.3589V13.0894C67.3589 13.4152 67.3779 13.6247 67.416 13.7178C67.4583 13.8109 67.5239 13.8849 67.6128 13.9399C67.7059 13.995 67.8371 14.0225 68.0063 14.0225C68.1333 14.0225 68.3005 14.0076 68.5078 13.978ZM69.6377 7.0083V5.69434H70.7803V7.0083H69.6377ZM69.6377 15V8.25879H70.7803V15H69.6377ZM72.1006 11.6294C72.1006 10.381 72.4476 9.45638 73.1416 8.85547C73.7214 8.35612 74.4281 8.10645 75.2617 8.10645C76.1885 8.10645 76.946 8.41113 77.5342 9.02051C78.1224 9.62565 78.4165 10.4635 78.4165 11.5342C78.4165 12.4017 78.2853 13.0851 78.0229 13.5845C77.7648 14.0796 77.3861 14.4647 76.8867 14.7397C76.3916 15.0148 75.8499 15.1523 75.2617 15.1523C74.318 15.1523 73.5542 14.8498 72.9702 14.2446C72.3905 13.6395 72.1006 12.7677 72.1006 11.6294ZM73.2749 11.6294C73.2749 12.4927 73.4632 13.1401 73.8398 13.5718C74.2165 13.9992 74.6904 14.2129 75.2617 14.2129C75.8288 14.2129 76.3006 13.9971 76.6772 13.5654C77.0539 13.1338 77.2422 12.4757 77.2422 11.5913C77.2422 10.7576 77.0518 10.1271 76.6709 9.69971C76.2943 9.26807 75.8245 9.05225 75.2617 9.05225C74.6904 9.05225 74.2165 9.26595 73.8398 9.69336C73.4632 10.1208 73.2749 10.7661 73.2749 11.6294ZM79.7622 15V8.25879H80.7905V9.21729C81.2856 8.47673 82.0008 8.10645 82.936 8.10645C83.3423 8.10645 83.7147 8.1805 84.0532 8.32861C84.396 8.47249 84.652 8.66292 84.8213 8.8999C84.9906 9.13688 85.109 9.41829 85.1768 9.74414C85.2191 9.95573 85.2402 10.326 85.2402 10.855V15H84.0977V10.8994C84.0977 10.4339 84.0532 10.0869 83.9644 9.8584C83.8755 9.62565 83.7168 9.44157 83.4883 9.30615C83.264 9.1665 82.9995 9.09668 82.6948 9.09668C82.2082 9.09668 81.7871 9.25114 81.4316 9.56006C81.0804 9.86898 80.9048 10.4551 80.9048 11.3184V15H79.7622ZM86.5415 12.9878L87.6714 12.8101C87.7349 13.2629 87.9105 13.6099 88.1982 13.8511C88.4902 14.0923 88.8965 14.2129 89.417 14.2129C89.9417 14.2129 90.3311 14.1071 90.585 13.8955C90.8389 13.6797 90.9658 13.4279 90.9658 13.1401C90.9658 12.882 90.8537 12.6789 90.6294 12.5308C90.4728 12.4292 90.0835 12.3001 89.4614 12.1436C88.6235 11.932 88.0417 11.75 87.7158 11.5977C87.3942 11.4411 87.1488 11.2274 86.9795 10.9565C86.8145 10.6815 86.7319 10.3789 86.7319 10.0488C86.7319 9.74837 86.7996 9.47119 86.9351 9.21729C87.0747 8.95915 87.263 8.74544 87.5 8.57617C87.6777 8.44499 87.9189 8.33496 88.2236 8.24609C88.5326 8.15299 88.8626 8.10645 89.2139 8.10645C89.7428 8.10645 90.2062 8.18262 90.604 8.33496C91.006 8.4873 91.3022 8.69466 91.4927 8.95703C91.6831 9.21517 91.8143 9.56217 91.8862 9.99805L90.769 10.1504C90.7183 9.80339 90.5701 9.53255 90.3247 9.33789C90.0835 9.14323 89.7407 9.0459 89.2964 9.0459C88.7716 9.0459 88.3971 9.13265 88.1729 9.30615C87.9486 9.47965 87.8364 9.68278 87.8364 9.91553C87.8364 10.0636 87.883 10.1969 87.9761 10.3154C88.0692 10.4382 88.2152 10.5397 88.4141 10.6201C88.5283 10.6624 88.8647 10.7598 89.4233 10.9121C90.2316 11.1279 90.7944 11.3057 91.1118 11.4453C91.4334 11.5807 91.6852 11.7796 91.8672 12.042C92.0492 12.3044 92.1401 12.6302 92.1401 13.0195C92.1401 13.4004 92.028 13.7601 91.8037 14.0986C91.5837 14.4329 91.2642 14.6932 90.8452 14.8794C90.4263 15.0614 89.9523 15.1523 89.4233 15.1523C88.5474 15.1523 87.8787 14.9704 87.4175 14.6064C86.9604 14.2425 86.6685 13.703 86.5415 12.9878ZM97.3896 15V9.14746H96.3804V8.25879H97.3896V7.5415C97.3896 7.0887 97.4299 6.75228 97.5103 6.53223C97.6203 6.236 97.8128 5.99691 98.0879 5.81494C98.3672 5.62874 98.7565 5.53564 99.2559 5.53564C99.5775 5.53564 99.9329 5.57373 100.322 5.6499L100.151 6.64648C99.9139 6.60417 99.6896 6.58301 99.478 6.58301C99.131 6.58301 98.8856 6.65706 98.7417 6.80518C98.5978 6.95329 98.5259 7.23047 98.5259 7.63672V8.25879H99.8398V9.14746H98.5259V15H97.3896ZM100.31 11.6294C100.31 10.381 100.657 9.45638 101.351 8.85547C101.93 8.35612 102.637 8.10645 103.471 8.10645C104.397 8.10645 105.155 8.41113 105.743 9.02051C106.331 9.62565 106.625 10.4635 106.625 11.5342C106.625 12.4017 106.494 13.0851 106.232 13.5845C105.974 14.0796 105.595 14.4647 105.096 14.7397C104.601 15.0148 104.059 15.1523 103.471 15.1523C102.527 15.1523 101.763 14.8498 101.179 14.2446C100.599 13.6395 100.31 12.7677 100.31 11.6294ZM101.484 11.6294C101.484 12.4927 101.672 13.1401 102.049 13.5718C102.425 13.9992 102.899 14.2129 103.471 14.2129C104.038 14.2129 104.51 13.9971 104.886 13.5654C105.263 13.1338 105.451 12.4757 105.451 11.5913C105.451 10.7576 105.261 10.1271 104.88 9.69971C104.503 9.26807 104.034 9.05225 103.471 9.05225C102.899 9.05225 102.425 9.26595 102.049 9.69336C101.672 10.1208 101.484 10.7661 101.484 11.6294ZM107.946 15V5.69434H109.088V15H107.946ZM115.239 15V14.1494C114.812 14.818 114.183 15.1523 113.354 15.1523C112.817 15.1523 112.321 15.0042 111.869 14.708C111.42 14.4118 111.071 13.9992 110.821 13.4702C110.576 12.937 110.453 12.3255 110.453 11.6357C110.453 10.9629 110.565 10.3535 110.79 9.80762C111.014 9.25749 111.35 8.83643 111.799 8.54443C112.247 8.25244 112.749 8.10645 113.303 8.10645C113.709 8.10645 114.071 8.1932 114.389 8.3667C114.706 8.53597 114.964 8.75814 115.163 9.0332V5.69434H116.299V15H115.239ZM111.627 11.6357C111.627 12.499 111.809 13.1444 112.173 13.5718C112.537 13.9992 112.967 14.2129 113.462 14.2129C113.961 14.2129 114.384 14.0098 114.731 13.6035C115.083 13.193 115.258 12.5688 115.258 11.731C115.258 10.8084 115.081 10.1313 114.725 9.69971C114.37 9.26807 113.932 9.05225 113.411 9.05225C112.903 9.05225 112.478 9.2596 112.135 9.67432C111.797 10.089 111.627 10.7428 111.627 11.6357ZM122.717 12.8291L123.897 12.9751C123.711 13.6649 123.366 14.2002 122.863 14.5811C122.359 14.9619 121.716 15.1523 120.933 15.1523C119.947 15.1523 119.164 14.8498 118.584 14.2446C118.009 13.6353 117.721 12.7826 117.721 11.6865C117.721 10.5524 118.013 9.6722 118.597 9.0459C119.181 8.4196 119.939 8.10645 120.87 8.10645C121.771 8.10645 122.507 8.41325 123.079 9.02686C123.65 9.64046 123.936 10.5037 123.936 11.6167C123.936 11.6844 123.933 11.786 123.929 11.9214H118.902C118.944 12.6619 119.154 13.229 119.53 13.6226C119.907 14.0161 120.377 14.2129 120.939 14.2129C121.358 14.2129 121.716 14.1029 122.012 13.8828C122.308 13.6628 122.543 13.3115 122.717 12.8291ZM118.965 10.9819H122.729C122.679 10.4149 122.535 9.98958 122.298 9.70605C121.934 9.26595 121.462 9.0459 120.882 9.0459C120.358 9.0459 119.915 9.22152 119.556 9.57275C119.2 9.92399 119.003 10.3937 118.965 10.9819ZM125.326 15V8.25879H126.354V9.28076C126.616 8.80257 126.858 8.4873 127.078 8.33496C127.302 8.18262 127.547 8.10645 127.814 8.10645C128.199 8.10645 128.59 8.22917 128.988 8.47461L128.595 9.53467C128.315 9.36963 128.036 9.28711 127.757 9.28711C127.507 9.28711 127.283 9.36328 127.084 9.51562C126.885 9.66374 126.743 9.87109 126.659 10.1377C126.532 10.5439 126.468 10.9883 126.468 11.4707V15H125.326Z" fill="white"/>
</svg>
