<svg width="457" height="198" viewBox="0 0 457 198" fill="none" xmlns="http://www.w3.org/2000/svg">
<rect width="457" height="18" fill="#545454"/>
<rect y="18" width="457" height="18" fill="#404040"/>
<rect y="36" width="457" height="18" fill="#545454"/>
<rect y="54" width="457" height="18" fill="#404040"/>
<rect y="72" width="457" height="18" fill="#545454"/>
<rect y="90" width="457" height="18" fill="#404040"/>
<rect y="108" width="457" height="18" fill="#545454"/>
<rect y="126" width="457" height="18" fill="#404040"/>
<rect y="144" width="457" height="18" fill="#545454"/>
<rect y="162" width="457" height="18" fill="#404040"/>
<rect y="180" width="457" height="18" fill="#545454"/>
<path d="M351.334 123.008C350.967 123.008 350.653 122.878 350.392 122.616C350.131 122.355 350 122.041 350 121.674V112.334C350 111.967 350.131 111.653 350.392 111.392C350.653 111.131 350.967 111 351.334 111H360.674C361.041 111 361.355 111.131 361.616 111.392C361.878 111.653 362.008 111.967 362.008 112.334V121.674C362.008 122.041 361.878 122.355 361.616 122.616C361.355 122.878 361.041 123.008 360.674 123.008H351.334ZM352.001 120.34H360.007L357.505 117.004L355.504 119.673L354.003 117.671L352.001 120.34Z" fill="#FEF7FF"/>
<path d="M370.239 123V113.694H371.47V123H370.239ZM373.501 123V116.259H374.523V117.205C374.735 116.875 375.016 116.61 375.368 116.411C375.719 116.208 376.119 116.106 376.567 116.106C377.067 116.106 377.475 116.21 377.792 116.417C378.114 116.625 378.34 116.915 378.472 117.287C379.005 116.5 379.699 116.106 380.554 116.106C381.222 116.106 381.736 116.293 382.096 116.665C382.456 117.033 382.636 117.602 382.636 118.373V123H381.5V118.753C381.5 118.296 381.461 117.968 381.385 117.77C381.313 117.566 381.18 117.403 380.985 117.281C380.791 117.158 380.562 117.097 380.3 117.097C379.826 117.097 379.432 117.255 379.119 117.573C378.806 117.886 378.649 118.389 378.649 119.083V123H377.507V118.62C377.507 118.112 377.414 117.731 377.228 117.478C377.041 117.224 376.737 117.097 376.313 117.097C375.992 117.097 375.694 117.181 375.418 117.351C375.148 117.52 374.951 117.767 374.828 118.093C374.705 118.419 374.644 118.889 374.644 119.502V123H373.501ZM388.729 122.168C388.306 122.528 387.898 122.782 387.504 122.93C387.115 123.078 386.696 123.152 386.248 123.152C385.507 123.152 384.938 122.972 384.54 122.613C384.142 122.249 383.943 121.785 383.943 121.223C383.943 120.893 384.017 120.592 384.166 120.321C384.318 120.046 384.515 119.826 384.756 119.661C385.001 119.496 385.276 119.371 385.581 119.287C385.805 119.227 386.144 119.17 386.597 119.115C387.519 119.005 388.198 118.874 388.634 118.722C388.639 118.565 388.641 118.466 388.641 118.423C388.641 117.958 388.533 117.63 388.317 117.439C388.025 117.181 387.591 117.052 387.016 117.052C386.478 117.052 386.08 117.147 385.822 117.338C385.568 117.524 385.38 117.856 385.257 118.334L384.14 118.182C384.242 117.704 384.409 117.319 384.642 117.027C384.874 116.731 385.211 116.504 385.651 116.348C386.091 116.187 386.601 116.106 387.181 116.106C387.756 116.106 388.224 116.174 388.583 116.31C388.943 116.445 389.208 116.616 389.377 116.824C389.546 117.027 389.665 117.285 389.732 117.598C389.771 117.793 389.79 118.144 389.79 118.652V120.175C389.79 121.237 389.813 121.91 389.859 122.194C389.91 122.473 390.007 122.742 390.151 123H388.958C388.84 122.763 388.763 122.486 388.729 122.168ZM388.634 119.617C388.22 119.786 387.597 119.93 386.768 120.048C386.298 120.116 385.966 120.192 385.771 120.277C385.577 120.361 385.427 120.486 385.321 120.651C385.215 120.812 385.162 120.992 385.162 121.191C385.162 121.496 385.276 121.75 385.505 121.953C385.738 122.156 386.076 122.257 386.521 122.257C386.961 122.257 387.352 122.162 387.695 121.972C388.038 121.777 388.289 121.513 388.45 121.178C388.573 120.92 388.634 120.539 388.634 120.036V119.617ZM391.357 123.559L392.468 123.724C392.515 124.066 392.644 124.316 392.855 124.473C393.139 124.684 393.526 124.79 394.017 124.79C394.546 124.79 394.954 124.684 395.242 124.473C395.53 124.261 395.725 123.965 395.826 123.584C395.885 123.351 395.913 122.862 395.909 122.118C395.409 122.706 394.787 123 394.042 123C393.116 123 392.398 122.666 391.891 121.997C391.383 121.328 391.129 120.527 391.129 119.591C391.129 118.948 391.245 118.356 391.478 117.814C391.711 117.268 392.047 116.847 392.487 116.551C392.932 116.255 393.452 116.106 394.049 116.106C394.844 116.106 395.5 116.428 396.017 117.071V116.259H397.07V122.086C397.07 123.135 396.962 123.878 396.747 124.314C396.535 124.754 396.196 125.101 395.731 125.355C395.27 125.609 394.701 125.736 394.023 125.736C393.219 125.736 392.57 125.554 392.075 125.19C391.58 124.83 391.34 124.286 391.357 123.559ZM392.303 119.509C392.303 120.393 392.479 121.039 392.83 121.445C393.181 121.851 393.621 122.054 394.15 122.054C394.675 122.054 395.115 121.853 395.471 121.451C395.826 121.045 396.004 120.41 396.004 119.547C396.004 118.722 395.82 118.1 395.452 117.681C395.088 117.262 394.648 117.052 394.131 117.052C393.624 117.052 393.192 117.26 392.836 117.674C392.481 118.085 392.303 118.696 392.303 119.509ZM403.418 120.829L404.599 120.975C404.412 121.665 404.068 122.2 403.564 122.581C403.06 122.962 402.417 123.152 401.634 123.152C400.648 123.152 399.865 122.85 399.286 122.245C398.71 121.635 398.422 120.783 398.422 119.687C398.422 118.552 398.714 117.672 399.298 117.046C399.882 116.42 400.64 116.106 401.571 116.106C402.472 116.106 403.208 116.413 403.78 117.027C404.351 117.64 404.637 118.504 404.637 119.617C404.637 119.684 404.635 119.786 404.63 119.921H399.603C399.645 120.662 399.855 121.229 400.231 121.623C400.608 122.016 401.078 122.213 401.641 122.213C402.06 122.213 402.417 122.103 402.713 121.883C403.01 121.663 403.244 121.312 403.418 120.829ZM399.667 118.982H403.431C403.38 118.415 403.236 117.99 402.999 117.706C402.635 117.266 402.163 117.046 401.583 117.046C401.059 117.046 400.617 117.222 400.257 117.573C399.901 117.924 399.705 118.394 399.667 118.982Z" fill="white"/>
<path d="M351.334 106.008C350.967 106.008 350.653 105.878 350.392 105.616C350.131 105.355 350 105.041 350 104.674V95.3343C350 94.9673 350.131 94.6532 350.392 94.3919C350.653 94.1306 350.967 94 351.334 94H360.674C361.041 94 361.355 94.1306 361.616 94.3919C361.878 94.6532 362.008 94.9673 362.008 95.3343V104.674C362.008 105.041 361.878 105.355 361.616 105.616C361.355 105.878 361.041 106.008 360.674 106.008H351.334ZM352.001 103.34H360.007L357.505 100.004L355.504 102.673L354.003 100.671L352.001 103.34Z" fill="#FEF7FF"/>
<path d="M370.239 105V95.6943H371.47V105H370.239ZM373.501 105V98.2588H374.523V99.2046C374.735 98.8745 375.016 98.61 375.368 98.4111C375.719 98.208 376.119 98.1064 376.567 98.1064C377.067 98.1064 377.475 98.2101 377.792 98.4175C378.114 98.6248 378.34 98.9147 378.472 99.2871C379.005 98.5 379.699 98.1064 380.554 98.1064C381.222 98.1064 381.736 98.2926 382.096 98.665C382.456 99.0332 382.636 99.6024 382.636 100.373V105H381.5V100.753C381.5 100.296 381.461 99.9684 381.385 99.7695C381.313 99.5664 381.18 99.4035 380.985 99.2808C380.791 99.158 380.562 99.0967 380.3 99.0967C379.826 99.0967 379.432 99.2554 379.119 99.5728C378.806 99.8859 378.649 100.389 378.649 101.083V105H377.507V100.62C377.507 100.112 377.414 99.7314 377.228 99.4775C377.041 99.2236 376.737 99.0967 376.313 99.0967C375.992 99.0967 375.694 99.1813 375.418 99.3506C375.148 99.5199 374.951 99.7674 374.828 100.093C374.705 100.419 374.644 100.889 374.644 101.502V105H373.501ZM388.729 104.168C388.306 104.528 387.898 104.782 387.504 104.93C387.115 105.078 386.696 105.152 386.248 105.152C385.507 105.152 384.938 104.972 384.54 104.613C384.142 104.249 383.943 103.785 383.943 103.223C383.943 102.893 384.017 102.592 384.166 102.321C384.318 102.046 384.515 101.826 384.756 101.661C385.001 101.496 385.276 101.371 385.581 101.287C385.805 101.227 386.144 101.17 386.597 101.115C387.519 101.005 388.198 100.874 388.634 100.722C388.639 100.565 388.641 100.466 388.641 100.423C388.641 99.9578 388.533 99.6299 388.317 99.4395C388.025 99.1813 387.591 99.0522 387.016 99.0522C386.478 99.0522 386.08 99.1475 385.822 99.3379C385.568 99.5241 385.38 99.8563 385.257 100.334L384.14 100.182C384.242 99.7039 384.409 99.3188 384.642 99.0269C384.874 98.7306 385.211 98.5042 385.651 98.3477C386.091 98.1868 386.601 98.1064 387.181 98.1064C387.756 98.1064 388.224 98.1742 388.583 98.3096C388.943 98.445 389.208 98.6164 389.377 98.8237C389.546 99.0269 389.665 99.285 389.732 99.5981C389.771 99.7928 389.79 100.144 389.79 100.652V102.175C389.79 103.237 389.813 103.91 389.859 104.194C389.91 104.473 390.007 104.742 390.151 105H388.958C388.84 104.763 388.763 104.486 388.729 104.168ZM388.634 101.617C388.22 101.786 387.597 101.93 386.768 102.048C386.298 102.116 385.966 102.192 385.771 102.277C385.577 102.361 385.427 102.486 385.321 102.651C385.215 102.812 385.162 102.992 385.162 103.191C385.162 103.496 385.276 103.75 385.505 103.953C385.738 104.156 386.076 104.257 386.521 104.257C386.961 104.257 387.352 104.162 387.695 103.972C388.038 103.777 388.289 103.513 388.45 103.178C388.573 102.92 388.634 102.539 388.634 102.036V101.617ZM391.357 105.559L392.468 105.724C392.515 106.066 392.644 106.316 392.855 106.473C393.139 106.684 393.526 106.79 394.017 106.79C394.546 106.79 394.954 106.684 395.242 106.473C395.53 106.261 395.725 105.965 395.826 105.584C395.885 105.351 395.913 104.862 395.909 104.118C395.409 104.706 394.787 105 394.042 105C393.116 105 392.398 104.666 391.891 103.997C391.383 103.328 391.129 102.527 391.129 101.591C391.129 100.948 391.245 100.356 391.478 99.814C391.711 99.2681 392.047 98.847 392.487 98.5508C392.932 98.2546 393.452 98.1064 394.049 98.1064C394.844 98.1064 395.5 98.4281 396.017 99.0713V98.2588H397.07V104.086C397.07 105.135 396.962 105.878 396.747 106.314C396.535 106.754 396.196 107.101 395.731 107.355C395.27 107.609 394.701 107.736 394.023 107.736C393.219 107.736 392.57 107.554 392.075 107.19C391.58 106.83 391.34 106.286 391.357 105.559ZM392.303 101.509C392.303 102.393 392.479 103.039 392.83 103.445C393.181 103.851 393.621 104.054 394.15 104.054C394.675 104.054 395.115 103.853 395.471 103.451C395.826 103.045 396.004 102.41 396.004 101.547C396.004 100.722 395.82 100.1 395.452 99.6807C395.088 99.2617 394.648 99.0522 394.131 99.0522C393.624 99.0522 393.192 99.2596 392.836 99.6743C392.481 100.085 392.303 100.696 392.303 101.509ZM403.418 102.829L404.599 102.975C404.412 103.665 404.068 104.2 403.564 104.581C403.06 104.962 402.417 105.152 401.634 105.152C400.648 105.152 399.865 104.85 399.286 104.245C398.71 103.635 398.422 102.783 398.422 101.687C398.422 100.552 398.714 99.6722 399.298 99.0459C399.882 98.4196 400.64 98.1064 401.571 98.1064C402.472 98.1064 403.208 98.4132 403.78 99.0269C404.351 99.6405 404.637 100.504 404.637 101.617C404.637 101.684 404.635 101.786 404.63 101.921H399.603C399.645 102.662 399.855 103.229 400.231 103.623C400.608 104.016 401.078 104.213 401.641 104.213C402.06 104.213 402.417 104.103 402.713 103.883C403.01 103.663 403.244 103.312 403.418 102.829ZM399.667 100.982H403.431C403.38 100.415 403.236 99.9896 402.999 99.7061C402.635 99.266 402.163 99.0459 401.583 99.0459C401.059 99.0459 400.617 99.2215 400.257 99.5728C399.901 99.924 399.705 100.394 399.667 100.982Z" fill="white"/>
<path d="M351.334 88.0083C350.967 88.0083 350.653 87.8777 350.392 87.6164C350.131 87.3551 350 87.041 350 86.6741V77.3343C350 76.9673 350.131 76.6532 350.392 76.3919C350.653 76.1306 350.967 76 351.334 76H360.674C361.041 76 361.355 76.1306 361.616 76.3919C361.878 76.6532 362.008 76.9673 362.008 77.3343V86.6741C362.008 87.041 361.878 87.3551 361.616 87.6164C361.355 87.8777 361.041 88.0083 360.674 88.0083H351.334ZM352.001 85.3398H360.007L357.505 82.0042L355.504 84.6727L354.003 82.6713L352.001 85.3398Z" fill="#FEF7FF"/>
<path d="M370.239 87V77.6943H371.47V87H370.239ZM373.501 87V80.2588H374.523V81.2046C374.735 80.8745 375.016 80.61 375.368 80.4111C375.719 80.208 376.119 80.1064 376.567 80.1064C377.067 80.1064 377.475 80.2101 377.792 80.4175C378.114 80.6248 378.34 80.9147 378.472 81.2871C379.005 80.5 379.699 80.1064 380.554 80.1064C381.222 80.1064 381.736 80.2926 382.096 80.665C382.456 81.0332 382.636 81.6024 382.636 82.3726V87H381.5V82.7534C381.5 82.2964 381.461 81.9684 381.385 81.7695C381.313 81.5664 381.18 81.4035 380.985 81.2808C380.791 81.158 380.562 81.0967 380.3 81.0967C379.826 81.0967 379.432 81.2554 379.119 81.5728C378.806 81.8859 378.649 82.3895 378.649 83.0835V87H377.507V82.6201C377.507 82.1123 377.414 81.7314 377.228 81.4775C377.041 81.2236 376.737 81.0967 376.313 81.0967C375.992 81.0967 375.694 81.1813 375.418 81.3506C375.148 81.5199 374.951 81.7674 374.828 82.0933C374.705 82.4191 374.644 82.8888 374.644 83.5024V87H373.501ZM388.729 86.1685C388.306 86.5282 387.898 86.7821 387.504 86.9302C387.115 87.0783 386.696 87.1523 386.248 87.1523C385.507 87.1523 384.938 86.9725 384.54 86.6128C384.142 86.2489 383.943 85.7855 383.943 85.2227C383.943 84.8926 384.017 84.5921 384.166 84.3213C384.318 84.0462 384.515 83.8262 384.756 83.6611C385.001 83.4961 385.276 83.3713 385.581 83.2866C385.805 83.2274 386.144 83.1702 386.597 83.1152C387.519 83.0052 388.198 82.874 388.634 82.7217C388.639 82.5651 388.641 82.4657 388.641 82.4233C388.641 81.9578 388.533 81.6299 388.317 81.4395C388.025 81.1813 387.591 81.0522 387.016 81.0522C386.478 81.0522 386.08 81.1475 385.822 81.3379C385.568 81.5241 385.38 81.8563 385.257 82.3345L384.14 82.1821C384.242 81.7039 384.409 81.3188 384.642 81.0269C384.874 80.7306 385.211 80.5042 385.651 80.3477C386.091 80.1868 386.601 80.1064 387.181 80.1064C387.756 80.1064 388.224 80.1742 388.583 80.3096C388.943 80.445 389.208 80.6164 389.377 80.8237C389.546 81.0269 389.665 81.285 389.732 81.5981C389.771 81.7928 389.79 82.144 389.79 82.6519V84.1753C389.79 85.2375 389.813 85.9103 389.859 86.1938C389.91 86.4731 390.007 86.7419 390.151 87H388.958C388.84 86.763 388.763 86.4858 388.729 86.1685ZM388.634 83.6167C388.22 83.786 387.597 83.9299 386.768 84.0483C386.298 84.116 385.966 84.1922 385.771 84.2769C385.577 84.3615 385.427 84.4863 385.321 84.6514C385.215 84.8122 385.162 84.992 385.162 85.1909C385.162 85.4956 385.276 85.7495 385.505 85.9526C385.738 86.1558 386.076 86.2573 386.521 86.2573C386.961 86.2573 387.352 86.1621 387.695 85.9717C388.038 85.777 388.289 85.5125 388.45 85.1782C388.573 84.9201 388.634 84.5392 388.634 84.0356V83.6167ZM391.357 87.5586L392.468 87.7236C392.515 88.0664 392.644 88.3161 392.855 88.4727C393.139 88.6842 393.526 88.79 394.017 88.79C394.546 88.79 394.954 88.6842 395.242 88.4727C395.53 88.2611 395.725 87.9648 395.826 87.584C395.885 87.3512 395.913 86.8625 395.909 86.1177C395.409 86.7059 394.787 87 394.042 87C393.116 87 392.398 86.6657 391.891 85.9971C391.383 85.3285 391.129 84.5265 391.129 83.5913C391.129 82.9481 391.245 82.3556 391.478 81.814C391.711 81.2681 392.047 80.847 392.487 80.5508C392.932 80.2546 393.452 80.1064 394.049 80.1064C394.844 80.1064 395.5 80.4281 396.017 81.0713V80.2588H397.07V86.0859C397.07 87.1354 396.962 87.8781 396.747 88.314C396.535 88.7541 396.196 89.1011 395.731 89.355C395.27 89.6089 394.701 89.7358 394.023 89.7358C393.219 89.7358 392.57 89.5539 392.075 89.1899C391.58 88.8302 391.34 88.2865 391.357 87.5586ZM392.303 83.5088C392.303 84.3932 392.479 85.0386 392.83 85.4448C393.181 85.8511 393.621 86.0542 394.15 86.0542C394.675 86.0542 395.115 85.8532 395.471 85.4512C395.826 85.0449 396.004 84.4102 396.004 83.5469C396.004 82.7217 395.82 82.0996 395.452 81.6807C395.088 81.2617 394.648 81.0522 394.131 81.0522C393.624 81.0522 393.192 81.2596 392.836 81.6743C392.481 82.0848 392.303 82.6963 392.303 83.5088ZM403.418 84.8291L404.599 84.9751C404.412 85.6649 404.068 86.2002 403.564 86.5811C403.06 86.9619 402.417 87.1523 401.634 87.1523C400.648 87.1523 399.865 86.8498 399.286 86.2446C398.71 85.6353 398.422 84.7826 398.422 83.6865C398.422 82.5524 398.714 81.6722 399.298 81.0459C399.882 80.4196 400.64 80.1064 401.571 80.1064C402.472 80.1064 403.208 80.4132 403.78 81.0269C404.351 81.6405 404.637 82.5037 404.637 83.6167C404.637 83.6844 404.635 83.786 404.63 83.9214H399.603C399.645 84.6619 399.855 85.229 400.231 85.6226C400.608 86.0161 401.078 86.2129 401.641 86.2129C402.06 86.2129 402.417 86.1029 402.713 85.8828C403.01 85.6628 403.244 85.3115 403.418 84.8291ZM399.667 82.9819H403.431C403.38 82.4149 403.236 81.9896 402.999 81.7061C402.635 81.266 402.163 81.0459 401.583 81.0459C401.059 81.0459 400.617 81.2215 400.257 81.5728C399.901 81.924 399.705 82.3937 399.667 82.9819Z" fill="white"/>
<path d="M233 76.9029C233 76.4042 233.404 76 233.903 76H237.627C237.911 76 238.179 76.1341 238.35 76.3618L238.866 77.0515C239.036 77.2792 239.304 77.4133 239.589 77.4133H245.64C246.139 77.4133 246.543 77.8175 246.543 78.3161V80.8455H233V76.9029Z" fill="#53B2DD"/>
<path d="M233 79.4008C233 79.1515 233.202 78.9494 233.451 78.9494H246.092C246.341 78.9494 246.543 79.1515 246.543 79.4008V86.4734C246.543 86.9721 246.139 87.3763 245.64 87.3763H233.903C233.404 87.3763 233 86.9721 233 86.4734V79.4008Z" fill="#5BC3F1"/>
<path d="M233 80.0329C233 79.7835 233.202 79.5814 233.451 79.5814H246.092C246.341 79.5814 246.543 79.7835 246.543 80.0329V87.1055C246.543 87.6041 246.139 88.0083 245.64 88.0083H233.903C233.404 88.0083 233 87.6041 233 87.1055V80.0329Z" fill="#62CFFF"/>
<path d="M260.574 85.9019V87H254.423C254.414 86.7249 254.459 86.4604 254.556 86.2065C254.713 85.7876 254.962 85.375 255.305 84.9688C255.652 84.5625 256.151 84.0928 256.803 83.5596C257.814 82.7301 258.498 82.0742 258.853 81.5918C259.209 81.1051 259.387 80.646 259.387 80.2144C259.387 79.7616 259.224 79.3807 258.898 79.0718C258.576 78.7586 258.155 78.6021 257.635 78.6021C257.085 78.6021 256.644 78.7671 256.314 79.0972C255.984 79.4272 255.817 79.8843 255.813 80.4683L254.639 80.3477C254.719 79.4717 255.022 78.8052 255.546 78.3481C256.071 77.8869 256.776 77.6562 257.66 77.6562C258.553 77.6562 259.26 77.9038 259.78 78.3989C260.301 78.894 260.561 79.5076 260.561 80.2397C260.561 80.6121 260.485 80.9782 260.332 81.3379C260.18 81.6976 259.926 82.0763 259.571 82.4741C259.219 82.8719 258.633 83.4178 257.812 84.1118C257.127 84.6873 256.687 85.0788 256.492 85.2861C256.297 85.4893 256.137 85.6945 256.01 85.9019H260.574ZM265.849 87V77.6943H267.702L269.905 84.2832C270.108 84.8968 270.256 85.356 270.349 85.6606C270.455 85.3221 270.62 84.8249 270.844 84.1689L273.072 77.6943H274.729V87H273.542V79.2114L270.838 87H269.727L267.036 79.0781V87H265.849ZM276.341 82.4678C276.341 80.9232 276.756 79.715 277.585 78.8433C278.415 77.9673 279.485 77.5293 280.797 77.5293C281.656 77.5293 282.431 77.7345 283.12 78.145C283.81 78.5555 284.335 79.1289 284.695 79.8652C285.059 80.5973 285.241 81.4289 285.241 82.3599C285.241 83.3035 285.05 84.1478 284.669 84.8926C284.288 85.6374 283.749 86.2023 283.051 86.5874C282.352 86.9683 281.599 87.1587 280.791 87.1587C279.915 87.1587 279.132 86.9471 278.442 86.5239C277.752 86.1007 277.23 85.5231 276.874 84.791C276.519 84.0589 276.341 83.2845 276.341 82.4678ZM277.611 82.4868C277.611 83.6082 277.911 84.4927 278.512 85.1401C279.117 85.7834 279.875 86.105 280.785 86.105C281.711 86.105 282.473 85.7791 283.07 85.1274C283.671 84.4757 283.971 83.5511 283.971 82.3535C283.971 81.596 283.842 80.9359 283.584 80.373C283.33 79.806 282.955 79.368 282.46 79.0591C281.969 78.7459 281.417 78.5894 280.804 78.5894C279.932 78.5894 279.181 78.8898 278.55 79.4907C277.924 80.0874 277.611 81.0861 277.611 82.4868ZM286.834 87V77.6943H290.039C290.763 77.6943 291.315 77.7388 291.696 77.8276C292.229 77.9504 292.684 78.1725 293.061 78.4941C293.552 78.9089 293.918 79.4399 294.159 80.0874C294.405 80.7306 294.527 81.467 294.527 82.2964C294.527 83.0031 294.445 83.6294 294.28 84.1753C294.115 84.7212 293.903 85.174 293.645 85.5337C293.387 85.8892 293.103 86.1706 292.794 86.3779C292.49 86.5811 292.119 86.7355 291.683 86.8413C291.252 86.9471 290.755 87 290.192 87H286.834ZM288.065 85.9019H290.052C290.666 85.9019 291.146 85.8447 291.493 85.7305C291.844 85.6162 292.124 85.4554 292.331 85.248C292.623 84.9561 292.849 84.5646 293.01 84.0737C293.175 83.5786 293.258 82.9798 293.258 82.2773C293.258 81.304 293.097 80.5571 292.775 80.0366C292.458 79.5119 292.071 79.1606 291.614 78.9829C291.284 78.856 290.752 78.7925 290.02 78.7925H288.065V85.9019ZM296.254 87V77.6943H302.982V78.7925H297.485V81.6426H302.633V82.7344H297.485V85.9019H303.198V87H296.254ZM304.849 87V77.6943H306.08V85.9019H310.663V87H304.849ZM315.481 87V77.6943H316.712V87H315.481ZM318.851 87V77.6943H320.705L322.908 84.2832C323.111 84.8968 323.259 85.356 323.352 85.6606C323.458 85.3221 323.623 84.8249 323.847 84.1689L326.075 77.6943H327.732V87H326.545V79.2114L323.841 87H322.73L320.038 79.0781V87H318.851ZM334.073 83.3501V82.2583L338.015 82.252V85.7051C337.41 86.1875 336.786 86.5514 336.142 86.7969C335.499 87.0381 334.839 87.1587 334.162 87.1587C333.248 87.1587 332.416 86.964 331.667 86.5747C330.923 86.1812 330.36 85.6141 329.979 84.8735C329.598 84.133 329.408 83.3057 329.408 82.3916C329.408 81.486 329.596 80.6418 329.973 79.8589C330.353 79.0718 330.899 78.4878 331.61 78.1069C332.321 77.7261 333.14 77.5356 334.067 77.5356C334.74 77.5356 335.347 77.6457 335.889 77.8657C336.434 78.0815 336.862 78.3841 337.171 78.7734C337.48 79.1628 337.715 79.6706 337.875 80.2969L336.765 80.6016C336.625 80.1276 336.451 79.7552 336.244 79.4844C336.037 79.2135 335.74 78.9977 335.355 78.8369C334.97 78.6719 334.543 78.5894 334.073 78.5894C333.51 78.5894 333.024 78.6761 332.613 78.8496C332.203 79.0189 331.87 79.2432 331.617 79.5225C331.367 79.8018 331.172 80.1086 331.033 80.4429C330.796 81.0184 330.677 81.6426 330.677 82.3154C330.677 83.1449 330.819 83.8389 331.102 84.3975C331.39 84.9561 331.807 85.3708 332.353 85.6416C332.899 85.9124 333.479 86.0479 334.092 86.0479C334.625 86.0479 335.146 85.9463 335.654 85.7432C336.161 85.5358 336.547 85.3158 336.809 85.083V83.3501H334.073Z" fill="white"/>
<path d="M351.334 196.008C350.967 196.008 350.653 195.878 350.392 195.616C350.131 195.355 350 195.041 350 194.674V185.334C350 184.967 350.131 184.653 350.392 184.392C350.653 184.131 350.967 184 351.334 184H360.674C361.041 184 361.355 184.131 361.616 184.392C361.878 184.653 362.008 184.967 362.008 185.334V194.674C362.008 195.041 361.878 195.355 361.616 195.616C361.355 195.878 361.041 196.008 360.674 196.008H351.334ZM352.001 193.34H360.007L357.505 190.004L355.504 192.673L354.003 190.671L352.001 193.34Z" fill="#FEF7FF"/>
<path d="M370.239 195V185.694H371.47V195H370.239ZM373.501 195V188.259H374.523V189.205C374.735 188.875 375.016 188.61 375.368 188.411C375.719 188.208 376.119 188.106 376.567 188.106C377.067 188.106 377.475 188.21 377.792 188.417C378.114 188.625 378.34 188.915 378.472 189.287C379.005 188.5 379.699 188.106 380.554 188.106C381.222 188.106 381.736 188.293 382.096 188.665C382.456 189.033 382.636 189.602 382.636 190.373V195H381.5V190.753C381.5 190.296 381.461 189.968 381.385 189.77C381.313 189.566 381.18 189.403 380.985 189.281C380.791 189.158 380.562 189.097 380.3 189.097C379.826 189.097 379.432 189.255 379.119 189.573C378.806 189.886 378.649 190.389 378.649 191.083V195H377.507V190.62C377.507 190.112 377.414 189.731 377.228 189.478C377.041 189.224 376.737 189.097 376.313 189.097C375.992 189.097 375.694 189.181 375.418 189.351C375.148 189.52 374.951 189.767 374.828 190.093C374.705 190.419 374.644 190.889 374.644 191.502V195H373.501ZM388.729 194.168C388.306 194.528 387.898 194.782 387.504 194.93C387.115 195.078 386.696 195.152 386.248 195.152C385.507 195.152 384.938 194.972 384.54 194.613C384.142 194.249 383.943 193.785 383.943 193.223C383.943 192.893 384.017 192.592 384.166 192.321C384.318 192.046 384.515 191.826 384.756 191.661C385.001 191.496 385.276 191.371 385.581 191.287C385.805 191.227 386.144 191.17 386.597 191.115C387.519 191.005 388.198 190.874 388.634 190.722C388.639 190.565 388.641 190.466 388.641 190.423C388.641 189.958 388.533 189.63 388.317 189.439C388.025 189.181 387.591 189.052 387.016 189.052C386.478 189.052 386.08 189.147 385.822 189.338C385.568 189.524 385.38 189.856 385.257 190.334L384.14 190.182C384.242 189.704 384.409 189.319 384.642 189.027C384.874 188.731 385.211 188.504 385.651 188.348C386.091 188.187 386.601 188.106 387.181 188.106C387.756 188.106 388.224 188.174 388.583 188.31C388.943 188.445 389.208 188.616 389.377 188.824C389.546 189.027 389.665 189.285 389.732 189.598C389.771 189.793 389.79 190.144 389.79 190.652V192.175C389.79 193.237 389.813 193.91 389.859 194.194C389.91 194.473 390.007 194.742 390.151 195H388.958C388.84 194.763 388.763 194.486 388.729 194.168ZM388.634 191.617C388.22 191.786 387.597 191.93 386.768 192.048C386.298 192.116 385.966 192.192 385.771 192.277C385.577 192.361 385.427 192.486 385.321 192.651C385.215 192.812 385.162 192.992 385.162 193.191C385.162 193.496 385.276 193.75 385.505 193.953C385.738 194.156 386.076 194.257 386.521 194.257C386.961 194.257 387.352 194.162 387.695 193.972C388.038 193.777 388.289 193.513 388.45 193.178C388.573 192.92 388.634 192.539 388.634 192.036V191.617ZM391.357 195.559L392.468 195.724C392.515 196.066 392.644 196.316 392.855 196.473C393.139 196.684 393.526 196.79 394.017 196.79C394.546 196.79 394.954 196.684 395.242 196.473C395.53 196.261 395.725 195.965 395.826 195.584C395.885 195.351 395.913 194.862 395.909 194.118C395.409 194.706 394.787 195 394.042 195C393.116 195 392.398 194.666 391.891 193.997C391.383 193.328 391.129 192.527 391.129 191.591C391.129 190.948 391.245 190.356 391.478 189.814C391.711 189.268 392.047 188.847 392.487 188.551C392.932 188.255 393.452 188.106 394.049 188.106C394.844 188.106 395.5 188.428 396.017 189.071V188.259H397.07V194.086C397.07 195.135 396.962 195.878 396.747 196.314C396.535 196.754 396.196 197.101 395.731 197.355C395.27 197.609 394.701 197.736 394.023 197.736C393.219 197.736 392.57 197.554 392.075 197.19C391.58 196.83 391.34 196.286 391.357 195.559ZM392.303 191.509C392.303 192.393 392.479 193.039 392.83 193.445C393.181 193.851 393.621 194.054 394.15 194.054C394.675 194.054 395.115 193.853 395.471 193.451C395.826 193.045 396.004 192.41 396.004 191.547C396.004 190.722 395.82 190.1 395.452 189.681C395.088 189.262 394.648 189.052 394.131 189.052C393.624 189.052 393.192 189.26 392.836 189.674C392.481 190.085 392.303 190.696 392.303 191.509ZM403.418 192.829L404.599 192.975C404.412 193.665 404.068 194.2 403.564 194.581C403.06 194.962 402.417 195.152 401.634 195.152C400.648 195.152 399.865 194.85 399.286 194.245C398.71 193.635 398.422 192.783 398.422 191.687C398.422 190.552 398.714 189.672 399.298 189.046C399.882 188.42 400.64 188.106 401.571 188.106C402.472 188.106 403.208 188.413 403.78 189.027C404.351 189.64 404.637 190.504 404.637 191.617C404.637 191.684 404.635 191.786 404.63 191.921H399.603C399.645 192.662 399.855 193.229 400.231 193.623C400.608 194.016 401.078 194.213 401.641 194.213C402.06 194.213 402.417 194.103 402.713 193.883C403.01 193.663 403.244 193.312 403.418 192.829ZM399.667 190.982H403.431C403.38 190.415 403.236 189.99 402.999 189.706C402.635 189.266 402.163 189.046 401.583 189.046C401.059 189.046 400.617 189.222 400.257 189.573C399.901 189.924 399.705 190.394 399.667 190.982Z" fill="white"/>
<path d="M351.334 178.008C350.967 178.008 350.653 177.878 350.392 177.616C350.131 177.355 350 177.041 350 176.674V167.334C350 166.967 350.131 166.653 350.392 166.392C350.653 166.131 350.967 166 351.334 166H360.674C361.041 166 361.355 166.131 361.616 166.392C361.878 166.653 362.008 166.967 362.008 167.334V176.674C362.008 177.041 361.878 177.355 361.616 177.616C361.355 177.878 361.041 178.008 360.674 178.008H351.334ZM352.001 175.34H360.007L357.505 172.004L355.504 174.673L354.003 172.671L352.001 175.34Z" fill="#FEF7FF"/>
<path d="M370.239 177V167.694H371.47V177H370.239ZM373.501 177V170.259H374.523V171.205C374.735 170.875 375.016 170.61 375.368 170.411C375.719 170.208 376.119 170.106 376.567 170.106C377.067 170.106 377.475 170.21 377.792 170.417C378.114 170.625 378.34 170.915 378.472 171.287C379.005 170.5 379.699 170.106 380.554 170.106C381.222 170.106 381.736 170.293 382.096 170.665C382.456 171.033 382.636 171.602 382.636 172.373V177H381.5V172.753C381.5 172.296 381.461 171.968 381.385 171.77C381.313 171.566 381.18 171.403 380.985 171.281C380.791 171.158 380.562 171.097 380.3 171.097C379.826 171.097 379.432 171.255 379.119 171.573C378.806 171.886 378.649 172.389 378.649 173.083V177H377.507V172.62C377.507 172.112 377.414 171.731 377.228 171.478C377.041 171.224 376.737 171.097 376.313 171.097C375.992 171.097 375.694 171.181 375.418 171.351C375.148 171.52 374.951 171.767 374.828 172.093C374.705 172.419 374.644 172.889 374.644 173.502V177H373.501ZM388.729 176.168C388.306 176.528 387.898 176.782 387.504 176.93C387.115 177.078 386.696 177.152 386.248 177.152C385.507 177.152 384.938 176.972 384.54 176.613C384.142 176.249 383.943 175.785 383.943 175.223C383.943 174.893 384.017 174.592 384.166 174.321C384.318 174.046 384.515 173.826 384.756 173.661C385.001 173.496 385.276 173.371 385.581 173.287C385.805 173.227 386.144 173.17 386.597 173.115C387.519 173.005 388.198 172.874 388.634 172.722C388.639 172.565 388.641 172.466 388.641 172.423C388.641 171.958 388.533 171.63 388.317 171.439C388.025 171.181 387.591 171.052 387.016 171.052C386.478 171.052 386.08 171.147 385.822 171.338C385.568 171.524 385.38 171.856 385.257 172.334L384.14 172.182C384.242 171.704 384.409 171.319 384.642 171.027C384.874 170.731 385.211 170.504 385.651 170.348C386.091 170.187 386.601 170.106 387.181 170.106C387.756 170.106 388.224 170.174 388.583 170.31C388.943 170.445 389.208 170.616 389.377 170.824C389.546 171.027 389.665 171.285 389.732 171.598C389.771 171.793 389.79 172.144 389.79 172.652V174.175C389.79 175.237 389.813 175.91 389.859 176.194C389.91 176.473 390.007 176.742 390.151 177H388.958C388.84 176.763 388.763 176.486 388.729 176.168ZM388.634 173.617C388.22 173.786 387.597 173.93 386.768 174.048C386.298 174.116 385.966 174.192 385.771 174.277C385.577 174.361 385.427 174.486 385.321 174.651C385.215 174.812 385.162 174.992 385.162 175.191C385.162 175.496 385.276 175.75 385.505 175.953C385.738 176.156 386.076 176.257 386.521 176.257C386.961 176.257 387.352 176.162 387.695 175.972C388.038 175.777 388.289 175.513 388.45 175.178C388.573 174.92 388.634 174.539 388.634 174.036V173.617ZM391.357 177.559L392.468 177.724C392.515 178.066 392.644 178.316 392.855 178.473C393.139 178.684 393.526 178.79 394.017 178.79C394.546 178.79 394.954 178.684 395.242 178.473C395.53 178.261 395.725 177.965 395.826 177.584C395.885 177.351 395.913 176.862 395.909 176.118C395.409 176.706 394.787 177 394.042 177C393.116 177 392.398 176.666 391.891 175.997C391.383 175.328 391.129 174.527 391.129 173.591C391.129 172.948 391.245 172.356 391.478 171.814C391.711 171.268 392.047 170.847 392.487 170.551C392.932 170.255 393.452 170.106 394.049 170.106C394.844 170.106 395.5 170.428 396.017 171.071V170.259H397.07V176.086C397.07 177.135 396.962 177.878 396.747 178.314C396.535 178.754 396.196 179.101 395.731 179.355C395.27 179.609 394.701 179.736 394.023 179.736C393.219 179.736 392.57 179.554 392.075 179.19C391.58 178.83 391.34 178.286 391.357 177.559ZM392.303 173.509C392.303 174.393 392.479 175.039 392.83 175.445C393.181 175.851 393.621 176.054 394.15 176.054C394.675 176.054 395.115 175.853 395.471 175.451C395.826 175.045 396.004 174.41 396.004 173.547C396.004 172.722 395.82 172.1 395.452 171.681C395.088 171.262 394.648 171.052 394.131 171.052C393.624 171.052 393.192 171.26 392.836 171.674C392.481 172.085 392.303 172.696 392.303 173.509ZM403.418 174.829L404.599 174.975C404.412 175.665 404.068 176.2 403.564 176.581C403.06 176.962 402.417 177.152 401.634 177.152C400.648 177.152 399.865 176.85 399.286 176.245C398.71 175.635 398.422 174.783 398.422 173.687C398.422 172.552 398.714 171.672 399.298 171.046C399.882 170.42 400.64 170.106 401.571 170.106C402.472 170.106 403.208 170.413 403.78 171.027C404.351 171.64 404.637 172.504 404.637 173.617C404.637 173.684 404.635 173.786 404.63 173.921H399.603C399.645 174.662 399.855 175.229 400.231 175.623C400.608 176.016 401.078 176.213 401.641 176.213C402.06 176.213 402.417 176.103 402.713 175.883C403.01 175.663 403.244 175.312 403.418 174.829ZM399.667 172.982H403.431C403.38 172.415 403.236 171.99 402.999 171.706C402.635 171.266 402.163 171.046 401.583 171.046C401.059 171.046 400.617 171.222 400.257 171.573C399.901 171.924 399.705 172.394 399.667 172.982Z" fill="white"/>
<path d="M351.334 160.008C350.967 160.008 350.653 159.878 350.392 159.616C350.131 159.355 350 159.041 350 158.674V149.334C350 148.967 350.131 148.653 350.392 148.392C350.653 148.131 350.967 148 351.334 148H360.674C361.041 148 361.355 148.131 361.616 148.392C361.878 148.653 362.008 148.967 362.008 149.334V158.674C362.008 159.041 361.878 159.355 361.616 159.616C361.355 159.878 361.041 160.008 360.674 160.008H351.334ZM352.001 157.34H360.007L357.505 154.004L355.504 156.673L354.003 154.671L352.001 157.34Z" fill="#FEF7FF"/>
<path d="M370.239 159V149.694H371.47V159H370.239ZM373.501 159V152.259H374.523V153.205C374.735 152.875 375.016 152.61 375.368 152.411C375.719 152.208 376.119 152.106 376.567 152.106C377.067 152.106 377.475 152.21 377.792 152.417C378.114 152.625 378.34 152.915 378.472 153.287C379.005 152.5 379.699 152.106 380.554 152.106C381.222 152.106 381.736 152.293 382.096 152.665C382.456 153.033 382.636 153.602 382.636 154.373V159H381.5V154.753C381.5 154.296 381.461 153.968 381.385 153.77C381.313 153.566 381.18 153.403 380.985 153.281C380.791 153.158 380.562 153.097 380.3 153.097C379.826 153.097 379.432 153.255 379.119 153.573C378.806 153.886 378.649 154.389 378.649 155.083V159H377.507V154.62C377.507 154.112 377.414 153.731 377.228 153.478C377.041 153.224 376.737 153.097 376.313 153.097C375.992 153.097 375.694 153.181 375.418 153.351C375.148 153.52 374.951 153.767 374.828 154.093C374.705 154.419 374.644 154.889 374.644 155.502V159H373.501ZM388.729 158.168C388.306 158.528 387.898 158.782 387.504 158.93C387.115 159.078 386.696 159.152 386.248 159.152C385.507 159.152 384.938 158.972 384.54 158.613C384.142 158.249 383.943 157.785 383.943 157.223C383.943 156.893 384.017 156.592 384.166 156.321C384.318 156.046 384.515 155.826 384.756 155.661C385.001 155.496 385.276 155.371 385.581 155.287C385.805 155.227 386.144 155.17 386.597 155.115C387.519 155.005 388.198 154.874 388.634 154.722C388.639 154.565 388.641 154.466 388.641 154.423C388.641 153.958 388.533 153.63 388.317 153.439C388.025 153.181 387.591 153.052 387.016 153.052C386.478 153.052 386.08 153.147 385.822 153.338C385.568 153.524 385.38 153.856 385.257 154.334L384.14 154.182C384.242 153.704 384.409 153.319 384.642 153.027C384.874 152.731 385.211 152.504 385.651 152.348C386.091 152.187 386.601 152.106 387.181 152.106C387.756 152.106 388.224 152.174 388.583 152.31C388.943 152.445 389.208 152.616 389.377 152.824C389.546 153.027 389.665 153.285 389.732 153.598C389.771 153.793 389.79 154.144 389.79 154.652V156.175C389.79 157.237 389.813 157.91 389.859 158.194C389.91 158.473 390.007 158.742 390.151 159H388.958C388.84 158.763 388.763 158.486 388.729 158.168ZM388.634 155.617C388.22 155.786 387.597 155.93 386.768 156.048C386.298 156.116 385.966 156.192 385.771 156.277C385.577 156.361 385.427 156.486 385.321 156.651C385.215 156.812 385.162 156.992 385.162 157.191C385.162 157.496 385.276 157.75 385.505 157.953C385.738 158.156 386.076 158.257 386.521 158.257C386.961 158.257 387.352 158.162 387.695 157.972C388.038 157.777 388.289 157.513 388.45 157.178C388.573 156.92 388.634 156.539 388.634 156.036V155.617ZM391.357 159.559L392.468 159.724C392.515 160.066 392.644 160.316 392.855 160.473C393.139 160.684 393.526 160.79 394.017 160.79C394.546 160.79 394.954 160.684 395.242 160.473C395.53 160.261 395.725 159.965 395.826 159.584C395.885 159.351 395.913 158.862 395.909 158.118C395.409 158.706 394.787 159 394.042 159C393.116 159 392.398 158.666 391.891 157.997C391.383 157.328 391.129 156.527 391.129 155.591C391.129 154.948 391.245 154.356 391.478 153.814C391.711 153.268 392.047 152.847 392.487 152.551C392.932 152.255 393.452 152.106 394.049 152.106C394.844 152.106 395.5 152.428 396.017 153.071V152.259H397.07V158.086C397.07 159.135 396.962 159.878 396.747 160.314C396.535 160.754 396.196 161.101 395.731 161.355C395.27 161.609 394.701 161.736 394.023 161.736C393.219 161.736 392.57 161.554 392.075 161.19C391.58 160.83 391.34 160.286 391.357 159.559ZM392.303 155.509C392.303 156.393 392.479 157.039 392.83 157.445C393.181 157.851 393.621 158.054 394.15 158.054C394.675 158.054 395.115 157.853 395.471 157.451C395.826 157.045 396.004 156.41 396.004 155.547C396.004 154.722 395.82 154.1 395.452 153.681C395.088 153.262 394.648 153.052 394.131 153.052C393.624 153.052 393.192 153.26 392.836 153.674C392.481 154.085 392.303 154.696 392.303 155.509ZM403.418 156.829L404.599 156.975C404.412 157.665 404.068 158.2 403.564 158.581C403.06 158.962 402.417 159.152 401.634 159.152C400.648 159.152 399.865 158.85 399.286 158.245C398.71 157.635 398.422 156.783 398.422 155.687C398.422 154.552 398.714 153.672 399.298 153.046C399.882 152.42 400.64 152.106 401.571 152.106C402.472 152.106 403.208 152.413 403.78 153.027C404.351 153.64 404.637 154.504 404.637 155.617C404.637 155.684 404.635 155.786 404.63 155.921H399.603C399.645 156.662 399.855 157.229 400.231 157.623C400.608 158.016 401.078 158.213 401.641 158.213C402.06 158.213 402.417 158.103 402.713 157.883C403.01 157.663 403.244 157.312 403.418 156.829ZM399.667 154.982H403.431C403.38 154.415 403.236 153.99 402.999 153.706C402.635 153.266 402.163 153.046 401.583 153.046C401.059 153.046 400.617 153.222 400.257 153.573C399.901 153.924 399.705 154.394 399.667 154.982Z" fill="white"/>
<path d="M233 148.903C233 148.404 233.404 148 233.903 148H237.627C237.911 148 238.179 148.134 238.35 148.362L238.866 149.051C239.036 149.279 239.304 149.413 239.589 149.413H245.64C246.139 149.413 246.543 149.817 246.543 150.316V152.845H233V148.903Z" fill="#53B2DD"/>
<path d="M233 151.401C233 151.152 233.202 150.949 233.451 150.949H246.092C246.341 150.949 246.543 151.152 246.543 151.401V158.473C246.543 158.972 246.139 159.376 245.64 159.376H233.903C233.404 159.376 233 158.972 233 158.473V151.401Z" fill="#5BC3F1"/>
<path d="M233 152.033C233 151.784 233.202 151.581 233.451 151.581H246.092C246.341 151.581 246.543 151.784 246.543 152.033V159.105C246.543 159.604 246.139 160.008 245.64 160.008H233.903C233.404 160.008 233 159.604 233 159.105V152.033Z" fill="#62CFFF"/>
<path d="M255.096 159V149.694H261.373V150.792H256.327V153.674H260.694V154.772H256.327V159H255.096ZM262.408 155.629C262.408 154.381 262.755 153.456 263.449 152.855C264.029 152.356 264.736 152.106 265.569 152.106C266.496 152.106 267.253 152.411 267.842 153.021C268.43 153.626 268.724 154.464 268.724 155.534C268.724 156.402 268.593 157.085 268.33 157.584C268.072 158.08 267.694 158.465 267.194 158.74C266.699 159.015 266.157 159.152 265.569 159.152C264.626 159.152 263.862 158.85 263.278 158.245C262.698 157.639 262.408 156.768 262.408 155.629ZM263.582 155.629C263.582 156.493 263.771 157.14 264.147 157.572C264.524 157.999 264.998 158.213 265.569 158.213C266.136 158.213 266.608 157.997 266.985 157.565C267.361 157.134 267.55 156.476 267.55 155.591C267.55 154.758 267.359 154.127 266.978 153.7C266.602 153.268 266.132 153.052 265.569 153.052C264.998 153.052 264.524 153.266 264.147 153.693C263.771 154.121 263.582 154.766 263.582 155.629ZM270.044 159V149.694H271.187V159H270.044ZM277.338 159V158.149C276.91 158.818 276.282 159.152 275.453 159.152C274.915 159.152 274.42 159.004 273.967 158.708C273.519 158.412 273.169 157.999 272.92 157.47C272.674 156.937 272.552 156.326 272.552 155.636C272.552 154.963 272.664 154.354 272.888 153.808C273.112 153.257 273.449 152.836 273.897 152.544C274.346 152.252 274.847 152.106 275.402 152.106C275.808 152.106 276.17 152.193 276.487 152.367C276.805 152.536 277.063 152.758 277.262 153.033V149.694H278.398V159H277.338ZM273.726 155.636C273.726 156.499 273.908 157.144 274.272 157.572C274.636 157.999 275.065 158.213 275.56 158.213C276.06 158.213 276.483 158.01 276.83 157.604C277.181 157.193 277.357 156.569 277.357 155.731C277.357 154.808 277.179 154.131 276.824 153.7C276.468 153.268 276.03 153.052 275.51 153.052C275.002 153.052 274.577 153.26 274.234 153.674C273.895 154.089 273.726 154.743 273.726 155.636ZM284.815 156.829L285.996 156.975C285.81 157.665 285.465 158.2 284.961 158.581C284.458 158.962 283.814 159.152 283.032 159.152C282.046 159.152 281.263 158.85 280.683 158.245C280.107 157.635 279.82 156.783 279.82 155.687C279.82 154.552 280.112 153.672 280.696 153.046C281.28 152.42 282.037 152.106 282.968 152.106C283.87 152.106 284.606 152.413 285.177 153.027C285.748 153.64 286.034 154.504 286.034 155.617C286.034 155.684 286.032 155.786 286.028 155.921H281C281.043 156.662 281.252 157.229 281.629 157.623C282.005 158.016 282.475 158.213 283.038 158.213C283.457 158.213 283.814 158.103 284.111 157.883C284.407 157.663 284.642 157.312 284.815 156.829ZM281.064 154.982H284.828C284.777 154.415 284.633 153.99 284.396 153.706C284.032 153.266 283.561 153.046 282.981 153.046C282.456 153.046 282.014 153.222 281.654 153.573C281.299 153.924 281.102 154.394 281.064 154.982ZM287.424 159V152.259H288.453V153.281C288.715 152.803 288.956 152.487 289.176 152.335C289.4 152.183 289.646 152.106 289.912 152.106C290.298 152.106 290.689 152.229 291.087 152.475L290.693 153.535C290.414 153.37 290.135 153.287 289.855 153.287C289.606 153.287 289.381 153.363 289.182 153.516C288.984 153.664 288.842 153.871 288.757 154.138C288.63 154.544 288.567 154.988 288.567 155.471V159H287.424Z" fill="white"/>
<path d="M351.334 52.0083C350.967 52.0083 350.653 51.8777 350.392 51.6164C350.131 51.3551 350 51.041 350 50.6741V41.3343C350 40.9673 350.131 40.6532 350.392 40.3919C350.653 40.1306 350.967 40 351.334 40H360.674C361.041 40 361.355 40.1306 361.616 40.3919C361.878 40.6532 362.008 40.9673 362.008 41.3343V50.6741C362.008 51.041 361.878 51.3551 361.616 51.6164C361.355 51.8777 361.041 52.0083 360.674 52.0083H351.334ZM352.001 49.3398H360.007L357.505 46.0042L355.504 48.6727L354.003 46.6713L352.001 49.3398Z" fill="#FEF7FF"/>
<path d="M370.239 51V41.6943H371.47V51H370.239ZM373.501 51V44.2588H374.523V45.2046C374.735 44.8745 375.016 44.61 375.368 44.4111C375.719 44.208 376.119 44.1064 376.567 44.1064C377.067 44.1064 377.475 44.2101 377.792 44.4175C378.114 44.6248 378.34 44.9147 378.472 45.2871C379.005 44.5 379.699 44.1064 380.554 44.1064C381.222 44.1064 381.736 44.2926 382.096 44.665C382.456 45.0332 382.636 45.6024 382.636 46.3726V51H381.5V46.7534C381.5 46.2964 381.461 45.9684 381.385 45.7695C381.313 45.5664 381.18 45.4035 380.985 45.2808C380.791 45.158 380.562 45.0967 380.3 45.0967C379.826 45.0967 379.432 45.2554 379.119 45.5728C378.806 45.8859 378.649 46.3895 378.649 47.0835V51H377.507V46.6201C377.507 46.1123 377.414 45.7314 377.228 45.4775C377.041 45.2236 376.737 45.0967 376.313 45.0967C375.992 45.0967 375.694 45.1813 375.418 45.3506C375.148 45.5199 374.951 45.7674 374.828 46.0933C374.705 46.4191 374.644 46.8888 374.644 47.5024V51H373.501ZM388.729 50.1685C388.306 50.5282 387.898 50.7821 387.504 50.9302C387.115 51.0783 386.696 51.1523 386.248 51.1523C385.507 51.1523 384.938 50.9725 384.54 50.6128C384.142 50.2489 383.943 49.7855 383.943 49.2227C383.943 48.8926 384.017 48.5921 384.166 48.3213C384.318 48.0462 384.515 47.8262 384.756 47.6611C385.001 47.4961 385.276 47.3713 385.581 47.2866C385.805 47.2274 386.144 47.1702 386.597 47.1152C387.519 47.0052 388.198 46.874 388.634 46.7217C388.639 46.5651 388.641 46.4657 388.641 46.4233C388.641 45.9578 388.533 45.6299 388.317 45.4395C388.025 45.1813 387.591 45.0522 387.016 45.0522C386.478 45.0522 386.08 45.1475 385.822 45.3379C385.568 45.5241 385.38 45.8563 385.257 46.3345L384.14 46.1821C384.242 45.7039 384.409 45.3188 384.642 45.0269C384.874 44.7306 385.211 44.5042 385.651 44.3477C386.091 44.1868 386.601 44.1064 387.181 44.1064C387.756 44.1064 388.224 44.1742 388.583 44.3096C388.943 44.445 389.208 44.6164 389.377 44.8237C389.546 45.0269 389.665 45.285 389.732 45.5981C389.771 45.7928 389.79 46.144 389.79 46.6519V48.1753C389.79 49.2375 389.813 49.9103 389.859 50.1938C389.91 50.4731 390.007 50.7419 390.151 51H388.958C388.84 50.763 388.763 50.4858 388.729 50.1685ZM388.634 47.6167C388.22 47.786 387.597 47.9299 386.768 48.0483C386.298 48.116 385.966 48.1922 385.771 48.2769C385.577 48.3615 385.427 48.4863 385.321 48.6514C385.215 48.8122 385.162 48.992 385.162 49.1909C385.162 49.4956 385.276 49.7495 385.505 49.9526C385.738 50.1558 386.076 50.2573 386.521 50.2573C386.961 50.2573 387.352 50.1621 387.695 49.9717C388.038 49.777 388.289 49.5125 388.45 49.1782C388.573 48.9201 388.634 48.5392 388.634 48.0356V47.6167ZM391.357 51.5586L392.468 51.7236C392.515 52.0664 392.644 52.3161 392.855 52.4727C393.139 52.6842 393.526 52.79 394.017 52.79C394.546 52.79 394.954 52.6842 395.242 52.4727C395.53 52.2611 395.725 51.9648 395.826 51.584C395.885 51.3512 395.913 50.8625 395.909 50.1177C395.409 50.7059 394.787 51 394.042 51C393.116 51 392.398 50.6657 391.891 49.9971C391.383 49.3285 391.129 48.5265 391.129 47.5913C391.129 46.9481 391.245 46.3556 391.478 45.814C391.711 45.2681 392.047 44.847 392.487 44.5508C392.932 44.2546 393.452 44.1064 394.049 44.1064C394.844 44.1064 395.5 44.4281 396.017 45.0713V44.2588H397.07V50.0859C397.07 51.1354 396.962 51.8781 396.747 52.314C396.535 52.7541 396.196 53.1011 395.731 53.355C395.27 53.6089 394.701 53.7358 394.023 53.7358C393.219 53.7358 392.57 53.5539 392.075 53.1899C391.58 52.8302 391.34 52.2865 391.357 51.5586ZM392.303 47.5088C392.303 48.3932 392.479 49.0386 392.83 49.4448C393.181 49.8511 393.621 50.0542 394.15 50.0542C394.675 50.0542 395.115 49.8532 395.471 49.4512C395.826 49.0449 396.004 48.4102 396.004 47.5469C396.004 46.7217 395.82 46.0996 395.452 45.6807C395.088 45.2617 394.648 45.0522 394.131 45.0522C393.624 45.0522 393.192 45.2596 392.836 45.6743C392.481 46.0848 392.303 46.6963 392.303 47.5088ZM403.418 48.8291L404.599 48.9751C404.412 49.6649 404.068 50.2002 403.564 50.5811C403.06 50.9619 402.417 51.1523 401.634 51.1523C400.648 51.1523 399.865 50.8498 399.286 50.2446C398.71 49.6353 398.422 48.7826 398.422 47.6865C398.422 46.5524 398.714 45.6722 399.298 45.0459C399.882 44.4196 400.64 44.1064 401.571 44.1064C402.472 44.1064 403.208 44.4132 403.78 45.0269C404.351 45.6405 404.637 46.5037 404.637 47.6167C404.637 47.6844 404.635 47.786 404.63 47.9214H399.603C399.645 48.6619 399.855 49.229 400.231 49.6226C400.608 50.0161 401.078 50.2129 401.641 50.2129C402.06 50.2129 402.417 50.1029 402.713 49.8828C403.01 49.6628 403.244 49.3115 403.418 48.8291ZM399.667 46.9819H403.431C403.38 46.4149 403.236 45.9896 402.999 45.7061C402.635 45.266 402.163 45.0459 401.583 45.0459C401.059 45.0459 400.617 45.2215 400.257 45.5728C399.901 45.924 399.705 46.3937 399.667 46.9819Z" fill="white"/>
<path d="M351.334 34.0083C350.967 34.0083 350.653 33.8777 350.392 33.6164C350.131 33.3551 350 33.041 350 32.6741V23.3343C350 22.9673 350.131 22.6532 350.392 22.3919C350.653 22.1306 350.967 22 351.334 22H360.674C361.041 22 361.355 22.1306 361.616 22.3919C361.878 22.6532 362.008 22.9673 362.008 23.3343V32.6741C362.008 33.041 361.878 33.3551 361.616 33.6164C361.355 33.8777 361.041 34.0083 360.674 34.0083H351.334ZM352.001 31.3398H360.007L357.505 28.0042L355.504 30.6727L354.003 28.6713L352.001 31.3398Z" fill="#FEF7FF"/>
<path d="M370.239 33V23.6943H371.47V33H370.239ZM373.501 33V26.2588H374.523V27.2046C374.735 26.8745 375.016 26.61 375.368 26.4111C375.719 26.208 376.119 26.1064 376.567 26.1064C377.067 26.1064 377.475 26.2101 377.792 26.4175C378.114 26.6248 378.34 26.9147 378.472 27.2871C379.005 26.5 379.699 26.1064 380.554 26.1064C381.222 26.1064 381.736 26.2926 382.096 26.665C382.456 27.0332 382.636 27.6024 382.636 28.3726V33H381.5V28.7534C381.5 28.2964 381.461 27.9684 381.385 27.7695C381.313 27.5664 381.18 27.4035 380.985 27.2808C380.791 27.158 380.562 27.0967 380.3 27.0967C379.826 27.0967 379.432 27.2554 379.119 27.5728C378.806 27.8859 378.649 28.3895 378.649 29.0835V33H377.507V28.6201C377.507 28.1123 377.414 27.7314 377.228 27.4775C377.041 27.2236 376.737 27.0967 376.313 27.0967C375.992 27.0967 375.694 27.1813 375.418 27.3506C375.148 27.5199 374.951 27.7674 374.828 28.0933C374.705 28.4191 374.644 28.8888 374.644 29.5024V33H373.501ZM388.729 32.1685C388.306 32.5282 387.898 32.7821 387.504 32.9302C387.115 33.0783 386.696 33.1523 386.248 33.1523C385.507 33.1523 384.938 32.9725 384.54 32.6128C384.142 32.2489 383.943 31.7855 383.943 31.2227C383.943 30.8926 384.017 30.5921 384.166 30.3213C384.318 30.0462 384.515 29.8262 384.756 29.6611C385.001 29.4961 385.276 29.3713 385.581 29.2866C385.805 29.2274 386.144 29.1702 386.597 29.1152C387.519 29.0052 388.198 28.874 388.634 28.7217C388.639 28.5651 388.641 28.4657 388.641 28.4233C388.641 27.9578 388.533 27.6299 388.317 27.4395C388.025 27.1813 387.591 27.0522 387.016 27.0522C386.478 27.0522 386.08 27.1475 385.822 27.3379C385.568 27.5241 385.38 27.8563 385.257 28.3345L384.14 28.1821C384.242 27.7039 384.409 27.3188 384.642 27.0269C384.874 26.7306 385.211 26.5042 385.651 26.3477C386.091 26.1868 386.601 26.1064 387.181 26.1064C387.756 26.1064 388.224 26.1742 388.583 26.3096C388.943 26.445 389.208 26.6164 389.377 26.8237C389.546 27.0269 389.665 27.285 389.732 27.5981C389.771 27.7928 389.79 28.144 389.79 28.6519V30.1753C389.79 31.2375 389.813 31.9103 389.859 32.1938C389.91 32.4731 390.007 32.7419 390.151 33H388.958C388.84 32.763 388.763 32.4858 388.729 32.1685ZM388.634 29.6167C388.22 29.786 387.597 29.9299 386.768 30.0483C386.298 30.116 385.966 30.1922 385.771 30.2769C385.577 30.3615 385.427 30.4863 385.321 30.6514C385.215 30.8122 385.162 30.992 385.162 31.1909C385.162 31.4956 385.276 31.7495 385.505 31.9526C385.738 32.1558 386.076 32.2573 386.521 32.2573C386.961 32.2573 387.352 32.1621 387.695 31.9717C388.038 31.777 388.289 31.5125 388.45 31.1782C388.573 30.9201 388.634 30.5392 388.634 30.0356V29.6167ZM391.357 33.5586L392.468 33.7236C392.515 34.0664 392.644 34.3161 392.855 34.4727C393.139 34.6842 393.526 34.79 394.017 34.79C394.546 34.79 394.954 34.6842 395.242 34.4727C395.53 34.2611 395.725 33.9648 395.826 33.584C395.885 33.3512 395.913 32.8625 395.909 32.1177C395.409 32.7059 394.787 33 394.042 33C393.116 33 392.398 32.6657 391.891 31.9971C391.383 31.3285 391.129 30.5265 391.129 29.5913C391.129 28.9481 391.245 28.3556 391.478 27.814C391.711 27.2681 392.047 26.847 392.487 26.5508C392.932 26.2546 393.452 26.1064 394.049 26.1064C394.844 26.1064 395.5 26.4281 396.017 27.0713V26.2588H397.07V32.0859C397.07 33.1354 396.962 33.8781 396.747 34.314C396.535 34.7541 396.196 35.1011 395.731 35.355C395.27 35.6089 394.701 35.7358 394.023 35.7358C393.219 35.7358 392.57 35.5539 392.075 35.1899C391.58 34.8302 391.34 34.2865 391.357 33.5586ZM392.303 29.5088C392.303 30.3932 392.479 31.0386 392.83 31.4448C393.181 31.8511 393.621 32.0542 394.15 32.0542C394.675 32.0542 395.115 31.8532 395.471 31.4512C395.826 31.0449 396.004 30.4102 396.004 29.5469C396.004 28.7217 395.82 28.0996 395.452 27.6807C395.088 27.2617 394.648 27.0522 394.131 27.0522C393.624 27.0522 393.192 27.2596 392.836 27.6743C392.481 28.0848 392.303 28.6963 392.303 29.5088ZM403.418 30.8291L404.599 30.9751C404.412 31.6649 404.068 32.2002 403.564 32.5811C403.06 32.9619 402.417 33.1523 401.634 33.1523C400.648 33.1523 399.865 32.8498 399.286 32.2446C398.71 31.6353 398.422 30.7826 398.422 29.6865C398.422 28.5524 398.714 27.6722 399.298 27.0459C399.882 26.4196 400.64 26.1064 401.571 26.1064C402.472 26.1064 403.208 26.4132 403.78 27.0269C404.351 27.6405 404.637 28.5037 404.637 29.6167C404.637 29.6844 404.635 29.786 404.63 29.9214H399.603C399.645 30.6619 399.855 31.229 400.231 31.6226C400.608 32.0161 401.078 32.2129 401.641 32.2129C402.06 32.2129 402.417 32.1029 402.713 31.8828C403.01 31.6628 403.244 31.3115 403.418 30.8291ZM399.667 28.9819H403.431C403.38 28.4149 403.236 27.9896 402.999 27.7061C402.635 27.266 402.163 27.0459 401.583 27.0459C401.059 27.0459 400.617 27.2215 400.257 27.5728C399.901 27.924 399.705 28.3937 399.667 28.9819Z" fill="white"/>
<path d="M351.334 16.0083C350.967 16.0083 350.653 15.8777 350.392 15.6164C350.131 15.3551 350 15.041 350 14.6741V5.33426C350 4.96734 350.131 4.65323 350.392 4.39194C350.653 4.13065 350.967 4 351.334 4H360.674C361.041 4 361.355 4.13065 361.616 4.39194C361.878 4.65323 362.008 4.96734 362.008 5.33426V14.6741C362.008 15.041 361.878 15.3551 361.616 15.6164C361.355 15.8777 361.041 16.0083 360.674 16.0083H351.334ZM352.001 13.3398H360.007L357.505 10.0042L355.504 12.6727L354.003 10.6713L352.001 13.3398Z" fill="#FEF7FF"/>
<path d="M370.239 15V5.69434H371.47V15H370.239ZM373.501 15V8.25879H374.523V9.20459C374.735 8.87451 375.016 8.61003 375.368 8.41113C375.719 8.20801 376.119 8.10645 376.567 8.10645C377.067 8.10645 377.475 8.21012 377.792 8.41748C378.114 8.62484 378.34 8.91471 378.472 9.28711C379.005 8.5 379.699 8.10645 380.554 8.10645C381.222 8.10645 381.736 8.29264 382.096 8.66504C382.456 9.0332 382.636 9.60238 382.636 10.3726V15H381.5V10.7534C381.5 10.2964 381.461 9.96842 381.385 9.76953C381.313 9.56641 381.18 9.40348 380.985 9.28076C380.791 9.15804 380.562 9.09668 380.3 9.09668C379.826 9.09668 379.432 9.25537 379.119 9.57275C378.806 9.8859 378.649 10.3895 378.649 11.0835V15H377.507V10.6201C377.507 10.1123 377.414 9.73145 377.228 9.47754C377.041 9.22363 376.737 9.09668 376.313 9.09668C375.992 9.09668 375.694 9.18132 375.418 9.35059C375.148 9.51986 374.951 9.76742 374.828 10.0933C374.705 10.4191 374.644 10.8888 374.644 11.5024V15H373.501ZM388.729 14.1685C388.306 14.5282 387.898 14.7821 387.504 14.9302C387.115 15.0783 386.696 15.1523 386.248 15.1523C385.507 15.1523 384.938 14.9725 384.54 14.6128C384.142 14.2489 383.943 13.7855 383.943 13.2227C383.943 12.8926 384.017 12.5921 384.166 12.3213C384.318 12.0462 384.515 11.8262 384.756 11.6611C385.001 11.4961 385.276 11.3713 385.581 11.2866C385.805 11.2274 386.144 11.1702 386.597 11.1152C387.519 11.0052 388.198 10.874 388.634 10.7217C388.639 10.5651 388.641 10.4657 388.641 10.4233C388.641 9.95785 388.533 9.62988 388.317 9.43945C388.025 9.18132 387.591 9.05225 387.016 9.05225C386.478 9.05225 386.08 9.14746 385.822 9.33789C385.568 9.52409 385.38 9.85628 385.257 10.3345L384.14 10.1821C384.242 9.70394 384.409 9.31885 384.642 9.02686C384.874 8.73063 385.211 8.50423 385.651 8.34766C386.091 8.18685 386.601 8.10645 387.181 8.10645C387.756 8.10645 388.224 8.17415 388.583 8.30957C388.943 8.44499 389.208 8.61637 389.377 8.82373C389.546 9.02686 389.665 9.28499 389.732 9.59814C389.771 9.79281 389.79 10.144 389.79 10.6519V12.1753C389.79 13.2375 389.813 13.9103 389.859 14.1938C389.91 14.4731 390.007 14.7419 390.151 15H388.958C388.84 14.763 388.763 14.4858 388.729 14.1685ZM388.634 11.6167C388.22 11.786 387.597 11.9299 386.768 12.0483C386.298 12.116 385.966 12.1922 385.771 12.2769C385.577 12.3615 385.427 12.4863 385.321 12.6514C385.215 12.8122 385.162 12.992 385.162 13.1909C385.162 13.4956 385.276 13.7495 385.505 13.9526C385.738 14.1558 386.076 14.2573 386.521 14.2573C386.961 14.2573 387.352 14.1621 387.695 13.9717C388.038 13.777 388.289 13.5125 388.45 13.1782C388.573 12.9201 388.634 12.5392 388.634 12.0356V11.6167ZM391.357 15.5586L392.468 15.7236C392.515 16.0664 392.644 16.3161 392.855 16.4727C393.139 16.6842 393.526 16.79 394.017 16.79C394.546 16.79 394.954 16.6842 395.242 16.4727C395.53 16.2611 395.725 15.9648 395.826 15.584C395.885 15.3512 395.913 14.8625 395.909 14.1177C395.409 14.7059 394.787 15 394.042 15C393.116 15 392.398 14.6657 391.891 13.9971C391.383 13.3285 391.129 12.5265 391.129 11.5913C391.129 10.9481 391.245 10.3556 391.478 9.81396C391.711 9.26807 392.047 8.84701 392.487 8.55078C392.932 8.25456 393.452 8.10645 394.049 8.10645C394.844 8.10645 395.5 8.42806 396.017 9.07129V8.25879H397.07V14.0859C397.07 15.1354 396.962 15.8781 396.747 16.314C396.535 16.7541 396.196 17.1011 395.731 17.355C395.27 17.6089 394.701 17.7358 394.023 17.7358C393.219 17.7358 392.57 17.5539 392.075 17.1899C391.58 16.8302 391.34 16.2865 391.357 15.5586ZM392.303 11.5088C392.303 12.3932 392.479 13.0386 392.83 13.4448C393.181 13.8511 393.621 14.0542 394.15 14.0542C394.675 14.0542 395.115 13.8532 395.471 13.4512C395.826 13.0449 396.004 12.4102 396.004 11.5469C396.004 10.7217 395.82 10.0996 395.452 9.68066C395.088 9.26172 394.648 9.05225 394.131 9.05225C393.624 9.05225 393.192 9.2596 392.836 9.67432C392.481 10.0848 392.303 10.6963 392.303 11.5088ZM403.418 12.8291L404.599 12.9751C404.412 13.6649 404.068 14.2002 403.564 14.5811C403.06 14.9619 402.417 15.1523 401.634 15.1523C400.648 15.1523 399.865 14.8498 399.286 14.2446C398.71 13.6353 398.422 12.7826 398.422 11.6865C398.422 10.5524 398.714 9.6722 399.298 9.0459C399.882 8.4196 400.64 8.10645 401.571 8.10645C402.472 8.10645 403.208 8.41325 403.78 9.02686C404.351 9.64046 404.637 10.5037 404.637 11.6167C404.637 11.6844 404.635 11.786 404.63 11.9214H399.603C399.645 12.6619 399.855 13.229 400.231 13.6226C400.608 14.0161 401.078 14.2129 401.641 14.2129C402.06 14.2129 402.417 14.1029 402.713 13.8828C403.01 13.6628 403.244 13.3115 403.418 12.8291ZM399.667 10.9819H403.431C403.38 10.4149 403.236 9.98958 402.999 9.70605C402.635 9.26595 402.163 9.0459 401.583 9.0459C401.059 9.0459 400.617 9.22152 400.257 9.57275C399.901 9.92399 399.705 10.3937 399.667 10.9819Z" fill="white"/>
<path d="M233 4.90288C233 4.40424 233.404 4 233.903 4H237.627C237.911 4 238.179 4.13406 238.35 4.36177L238.866 5.05149C239.036 5.27921 239.304 5.41326 239.589 5.41326H245.64C246.139 5.41326 246.543 5.8175 246.543 6.31615V8.84548H233V4.90288Z" fill="#53B2DD"/>
<path d="M233 7.40085C233 7.15152 233.202 6.94941 233.451 6.94941H246.092C246.341 6.94941 246.543 7.15152 246.543 7.40085V14.4734C246.543 14.9721 246.139 15.3763 245.64 15.3763H233.903C233.404 15.3763 233 14.9721 233 14.4734V7.40085Z" fill="#5BC3F1"/>
<path d="M233 8.03287C233 7.78354 233.202 7.58142 233.451 7.58142H246.092C246.341 7.58142 246.543 7.78354 246.543 8.03287V15.1055C246.543 15.6041 246.139 16.0083 245.64 16.0083H233.903C233.404 16.0083 233 15.6041 233 15.1055V8.03287Z" fill="#62CFFF"/>
<path d="M258.872 15H257.73V7.71924C257.455 7.98161 257.093 8.24398 256.644 8.50635C256.2 8.76872 255.8 8.96549 255.445 9.09668V7.99219C256.084 7.69173 256.642 7.3278 257.12 6.90039C257.599 6.47298 257.937 6.05827 258.136 5.65625H258.872V15ZM266.096 15V5.69434H267.328V15H266.096ZM269.467 15V5.69434H271.32L273.523 12.2832C273.726 12.8968 273.874 13.356 273.967 13.6606C274.073 13.3221 274.238 12.8249 274.462 12.1689L276.69 5.69434H278.347V15H277.16V7.21143L274.456 15H273.345L270.654 7.07812V15H269.467ZM284.688 11.3501V10.2583L288.63 10.252V13.7051C288.025 14.1875 287.401 14.5514 286.758 14.7969C286.114 15.0381 285.454 15.1587 284.777 15.1587C283.863 15.1587 283.032 14.964 282.283 14.5747C281.538 14.1812 280.975 13.6141 280.594 12.8735C280.213 12.133 280.023 11.3057 280.023 10.3916C280.023 9.486 280.211 8.64176 280.588 7.85889C280.969 7.07178 281.515 6.48779 282.225 6.10693C282.936 5.72607 283.755 5.53564 284.682 5.53564C285.355 5.53564 285.962 5.64567 286.504 5.86572C287.05 6.08154 287.477 6.38411 287.786 6.77344C288.095 7.16276 288.33 7.67057 288.491 8.29688L287.38 8.60156C287.24 8.1276 287.067 7.75521 286.859 7.48438C286.652 7.21354 286.356 6.99772 285.971 6.83691C285.585 6.67188 285.158 6.58936 284.688 6.58936C284.126 6.58936 283.639 6.67611 283.228 6.84961C282.818 7.01888 282.486 7.24316 282.232 7.52246C281.982 7.80176 281.787 8.10856 281.648 8.44287C281.411 9.01839 281.292 9.64258 281.292 10.3154C281.292 11.1449 281.434 11.8389 281.718 12.3975C282.005 12.9561 282.422 13.3708 282.968 13.6416C283.514 13.9124 284.094 14.0479 284.707 14.0479C285.241 14.0479 285.761 13.9463 286.269 13.7432C286.777 13.5358 287.162 13.3158 287.424 13.083V11.3501H284.688Z" fill="white"/>
<path d="M167 4.90288C167 4.40424 167.404 4 167.903 4H171.627C171.911 4 172.179 4.13406 172.35 4.36177L172.866 5.05149C173.036 5.27921 173.304 5.41326 173.589 5.41326H179.64C180.139 5.41326 180.543 5.8175 180.543 6.31615V8.84548H167V4.90288Z" fill="#53B2DD"/>
<path d="M167 7.40085C167 7.15152 167.202 6.94941 167.451 6.94941H180.092C180.341 6.94941 180.543 7.15152 180.543 7.40085V14.4734C180.543 14.9721 180.139 15.3763 179.64 15.3763H167.903C167.404 15.3763 167 14.9721 167 14.4734V7.40085Z" fill="#5BC3F1"/>
<path d="M167 8.03287C167 7.78354 167.202 7.58142 167.451 7.58142H180.092C180.341 7.58142 180.543 7.78354 180.543 8.03287V15.1055C180.543 15.6041 180.139 16.0083 179.64 16.0083H167.903C167.404 16.0083 167 15.6041 167 15.1055V8.03287Z" fill="#62CFFF"/>
<path d="M189.096 15V5.69434H195.373V6.79248H190.327V9.67432H194.694V10.7725H190.327V15H189.096ZM196.408 11.6294C196.408 10.381 196.755 9.45638 197.449 8.85547C198.029 8.35612 198.736 8.10645 199.569 8.10645C200.496 8.10645 201.253 8.41113 201.842 9.02051C202.43 9.62565 202.724 10.4635 202.724 11.5342C202.724 12.4017 202.593 13.0851 202.33 13.5845C202.072 14.0796 201.694 14.4647 201.194 14.7397C200.699 15.0148 200.157 15.1523 199.569 15.1523C198.626 15.1523 197.862 14.8498 197.278 14.2446C196.698 13.6395 196.408 12.7677 196.408 11.6294ZM197.582 11.6294C197.582 12.4927 197.771 13.1401 198.147 13.5718C198.524 13.9992 198.998 14.2129 199.569 14.2129C200.136 14.2129 200.608 13.9971 200.985 13.5654C201.361 13.1338 201.55 12.4757 201.55 11.5913C201.55 10.7576 201.359 10.1271 200.978 9.69971C200.602 9.26807 200.132 9.05225 199.569 9.05225C198.998 9.05225 198.524 9.26595 198.147 9.69336C197.771 10.1208 197.582 10.7661 197.582 11.6294ZM204.044 15V5.69434H205.187V15H204.044ZM211.338 15V14.1494C210.91 14.818 210.282 15.1523 209.453 15.1523C208.915 15.1523 208.42 15.0042 207.967 14.708C207.519 14.4118 207.169 13.9992 206.92 13.4702C206.674 12.937 206.552 12.3255 206.552 11.6357C206.552 10.9629 206.664 10.3535 206.888 9.80762C207.112 9.25749 207.449 8.83643 207.897 8.54443C208.346 8.25244 208.847 8.10645 209.402 8.10645C209.808 8.10645 210.17 8.1932 210.487 8.3667C210.805 8.53597 211.063 8.75814 211.262 9.0332V5.69434H212.398V15H211.338ZM207.726 11.6357C207.726 12.499 207.908 13.1444 208.272 13.5718C208.636 13.9992 209.065 14.2129 209.56 14.2129C210.06 14.2129 210.483 14.0098 210.83 13.6035C211.181 13.193 211.357 12.5688 211.357 11.731C211.357 10.8084 211.179 10.1313 210.824 9.69971C210.468 9.26807 210.03 9.05225 209.51 9.05225C209.002 9.05225 208.577 9.2596 208.234 9.67432C207.895 10.089 207.726 10.7428 207.726 11.6357ZM218.815 12.8291L219.996 12.9751C219.81 13.6649 219.465 14.2002 218.961 14.5811C218.458 14.9619 217.814 15.1523 217.032 15.1523C216.046 15.1523 215.263 14.8498 214.683 14.2446C214.107 13.6353 213.82 12.7826 213.82 11.6865C213.82 10.5524 214.112 9.6722 214.696 9.0459C215.28 8.4196 216.037 8.10645 216.968 8.10645C217.87 8.10645 218.606 8.41325 219.177 9.02686C219.748 9.64046 220.034 10.5037 220.034 11.6167C220.034 11.6844 220.032 11.786 220.028 11.9214H215C215.043 12.6619 215.252 13.229 215.629 13.6226C216.005 14.0161 216.475 14.2129 217.038 14.2129C217.457 14.2129 217.814 14.1029 218.111 13.8828C218.407 13.6628 218.642 13.3115 218.815 12.8291ZM215.064 10.9819H218.828C218.777 10.4149 218.633 9.98958 218.396 9.70605C218.032 9.26595 217.561 9.0459 216.981 9.0459C216.456 9.0459 216.014 9.22152 215.654 9.57275C215.299 9.92399 215.102 10.3937 215.064 10.9819ZM221.424 15V8.25879H222.453V9.28076C222.715 8.80257 222.956 8.4873 223.176 8.33496C223.4 8.18262 223.646 8.10645 223.912 8.10645C224.298 8.10645 224.689 8.22917 225.087 8.47461L224.693 9.53467C224.414 9.36963 224.135 9.28711 223.855 9.28711C223.606 9.28711 223.381 9.36328 223.182 9.51562C222.984 9.66374 222.842 9.87109 222.757 10.1377C222.63 10.5439 222.567 10.9883 222.567 11.4707V15H221.424Z" fill="white"/>
<path d="M8.01111 4.90288C8.01111 4.40424 8.41534 4 8.91399 4H12.6379C12.9224 4 13.1902 4.13406 13.3607 4.36177L13.8771 5.05149C14.0475 5.27921 14.3154 5.41326 14.5998 5.41326H20.6515C21.1501 5.41326 21.5544 5.8175 21.5544 6.31615V8.84548H8.01111V4.90288Z" fill="#53B2DD"/>
<path d="M8.01111 7.40085C8.01111 7.15152 8.21323 6.94941 8.46255 6.94941H21.1029C21.3522 6.94941 21.5544 7.15152 21.5544 7.40085V14.4734C21.5544 14.9721 21.1501 15.3763 20.6515 15.3763H8.91399C8.41534 15.3763 8.01111 14.9721 8.01111 14.4734V7.40085Z" fill="#5BC3F1"/>
<path d="M8.01111 8.03287C8.01111 7.78354 8.21323 7.58142 8.46255 7.58142H21.1029C21.3522 7.58142 21.5544 7.78354 21.5544 8.03287V15.1055C21.5544 15.6041 21.1501 16.0083 20.6515 16.0083H8.91399C8.41534 16.0083 8.01111 15.6041 8.01111 15.1055V8.03287Z" fill="#62CFFF"/>
<path d="M36.6827 11.7373L37.9142 12.0483C37.656 13.0597 37.1906 13.832 36.5177 14.3652C35.8491 14.8942 35.0302 15.1587 34.0612 15.1587C33.0582 15.1587 32.2415 14.9556 31.611 14.5493C30.9847 14.1388 30.5065 13.5464 30.1764 12.772C29.8505 11.9976 29.6876 11.166 29.6876 10.2773C29.6876 9.30827 29.8717 8.46403 30.2399 7.74463C30.6123 7.021 31.1391 6.47298 31.8204 6.10059C32.506 5.72396 33.2592 5.53564 34.0802 5.53564C35.0112 5.53564 35.7941 5.77262 36.4288 6.24658C37.0636 6.72054 37.5058 7.38704 37.7555 8.24609L36.5431 8.53174C36.3273 7.85465 36.0141 7.36165 35.6036 7.05273C35.1932 6.74382 34.6769 6.58936 34.0548 6.58936C33.3396 6.58936 32.7408 6.76074 32.2584 7.10352C31.7802 7.44629 31.4438 7.90755 31.2491 8.4873C31.0545 9.06283 30.9572 9.65739 30.9572 10.271C30.9572 11.0623 31.0714 11.7542 31.2999 12.3467C31.5327 12.9349 31.8924 13.375 32.379 13.667C32.8657 13.959 33.3925 14.105 33.9596 14.105C34.6494 14.105 35.2334 13.9061 35.7115 13.5083C36.1897 13.1105 36.5135 12.5202 36.6827 11.7373ZM38.8663 11.6294C38.8663 10.381 39.2133 9.45638 39.9073 8.85547C40.4871 8.35612 41.1938 8.10645 42.0275 8.10645C42.9542 8.10645 43.7117 8.41113 44.2999 9.02051C44.8881 9.62565 45.1823 10.4635 45.1823 11.5342C45.1823 12.4017 45.0511 13.0851 44.7887 13.5845C44.5306 14.0796 44.1518 14.4647 43.6525 14.7397C43.1573 15.0148 42.6157 15.1523 42.0275 15.1523C41.0838 15.1523 40.3199 14.8498 39.736 14.2446C39.1562 13.6395 38.8663 12.7677 38.8663 11.6294ZM40.0406 11.6294C40.0406 12.4927 40.229 13.1401 40.6056 13.5718C40.9822 13.9992 41.4562 14.2129 42.0275 14.2129C42.5945 14.2129 43.0664 13.9971 43.443 13.5654C43.8196 13.1338 44.0079 12.4757 44.0079 11.5913C44.0079 10.7576 43.8175 10.1271 43.4366 9.69971C43.06 9.26807 42.5903 9.05225 42.0275 9.05225C41.4562 9.05225 40.9822 9.26595 40.6056 9.69336C40.229 10.1208 40.0406 10.7661 40.0406 11.6294ZM46.5026 15V5.69434H47.6451V15H46.5026ZM49.3971 15V5.69434H50.5397V15H49.3971ZM56.9318 12.8291L58.1124 12.9751C57.9262 13.6649 57.5813 14.2002 57.0778 14.5811C56.5742 14.9619 55.9309 15.1523 55.1481 15.1523C54.1621 15.1523 53.3792 14.8498 52.7994 14.2446C52.2239 13.6353 51.9362 12.7826 51.9362 11.6865C51.9362 10.5524 52.2281 9.6722 52.8121 9.0459C53.3961 8.4196 54.1536 8.10645 55.0846 8.10645C55.986 8.10645 56.7223 8.41325 57.2936 9.02686C57.8649 9.64046 58.1505 10.5037 58.1505 11.6167C58.1505 11.6844 58.1484 11.786 58.1442 11.9214H53.1168C53.1591 12.6619 53.3686 13.229 53.7452 13.6226C54.1219 14.0161 54.5916 14.2129 55.1544 14.2129C55.5734 14.2129 55.9309 14.1029 56.2272 13.8828C56.5234 13.6628 56.7583 13.3115 56.9318 12.8291ZM53.1803 10.9819H56.9445C56.8937 10.4149 56.7498 9.98958 56.5128 9.70605C56.1489 9.26595 55.677 9.0459 55.0973 9.0459C54.5726 9.0459 54.1303 9.22152 53.7706 9.57275C53.4152 9.92399 53.2184 10.3937 53.1803 10.9819ZM63.9523 12.5308L65.0758 12.6768C64.9531 13.4512 64.6378 14.0584 64.13 14.4985C63.6264 14.9344 63.0065 15.1523 62.2701 15.1523C61.3476 15.1523 60.6049 14.8519 60.0421 14.251C59.4835 13.6458 59.2042 12.7804 59.2042 11.6548C59.2042 10.9269 59.3248 10.29 59.566 9.74414C59.8073 9.19824 60.1733 8.78988 60.6642 8.51904C61.1593 8.24398 61.6967 8.10645 62.2765 8.10645C63.0086 8.10645 63.6074 8.29264 64.0729 8.66504C64.5384 9.0332 64.8367 9.55794 64.9679 10.2393L63.8571 10.4106C63.7513 9.95785 63.5629 9.61719 63.2921 9.38867C63.0255 9.16016 62.7018 9.0459 62.3209 9.0459C61.7454 9.0459 61.2778 9.25326 60.9181 9.66797C60.5584 10.0785 60.3785 10.7301 60.3785 11.623C60.3785 12.5286 60.552 13.1867 60.899 13.5972C61.2461 14.0076 61.6989 14.2129 62.2574 14.2129C62.706 14.2129 63.0805 14.0754 63.381 13.8003C63.6814 13.5252 63.8719 13.1021 63.9523 12.5308ZM68.548 13.978L68.713 14.9873C68.3914 15.055 68.1036 15.0889 67.8497 15.0889C67.435 15.0889 67.1134 15.0233 66.8849 14.8921C66.6564 14.7609 66.4956 14.5895 66.4025 14.3779C66.3094 14.1621 66.2628 13.7114 66.2628 13.0259V9.14746H65.4249V8.25879H66.2628V6.58936L67.399 5.90381V8.25879H68.548V9.14746H67.399V13.0894C67.399 13.4152 67.4181 13.6247 67.4562 13.7178C67.4985 13.8109 67.5641 13.8849 67.653 13.9399C67.7461 13.995 67.8772 14.0225 68.0465 14.0225C68.1735 14.0225 68.3406 14.0076 68.548 13.978ZM69.6779 7.0083V5.69434H70.8204V7.0083H69.6779ZM69.6779 15V8.25879H70.8204V15H69.6779ZM72.1407 11.6294C72.1407 10.381 72.4878 9.45638 73.1818 8.85547C73.7615 8.35612 74.4682 8.10645 75.3019 8.10645C76.2286 8.10645 76.9861 8.41113 77.5743 9.02051C78.1626 9.62565 78.4567 10.4635 78.4567 11.5342C78.4567 12.4017 78.3255 13.0851 78.0631 13.5845C77.805 14.0796 77.4262 14.4647 76.9269 14.7397C76.4318 15.0148 75.8901 15.1523 75.3019 15.1523C74.3582 15.1523 73.5944 14.8498 73.0104 14.2446C72.4306 13.6395 72.1407 12.7677 72.1407 11.6294ZM73.3151 11.6294C73.3151 12.4927 73.5034 13.1401 73.88 13.5718C74.2566 13.9992 74.7306 14.2129 75.3019 14.2129C75.8689 14.2129 76.3408 13.9971 76.7174 13.5654C77.094 13.1338 77.2823 12.4757 77.2823 11.5913C77.2823 10.7576 77.0919 10.1271 76.7111 9.69971C76.3344 9.26807 75.8647 9.05225 75.3019 9.05225C74.7306 9.05225 74.2566 9.26595 73.88 9.69336C73.5034 10.1208 73.3151 10.7661 73.3151 11.6294ZM79.8024 15V8.25879H80.8307V9.21729C81.3258 8.47673 82.041 8.10645 82.9762 8.10645C83.3824 8.10645 83.7548 8.1805 84.0934 8.32861C84.4362 8.47249 84.6922 8.66292 84.8615 8.8999C85.0307 9.13688 85.1492 9.41829 85.2169 9.74414C85.2592 9.95573 85.2804 10.326 85.2804 10.855V15H84.1378V10.8994C84.1378 10.4339 84.0934 10.0869 84.0045 9.8584C83.9156 9.62565 83.757 9.44157 83.5284 9.30615C83.3042 9.1665 83.0397 9.09668 82.735 9.09668C82.2483 9.09668 81.8273 9.25114 81.4718 9.56006C81.1206 9.86898 80.9449 10.4551 80.9449 11.3184V15H79.8024ZM86.5817 12.9878L87.7115 12.8101C87.775 13.2629 87.9506 13.6099 88.2384 13.8511C88.5304 14.0923 88.9366 14.2129 89.4572 14.2129C89.9819 14.2129 90.3712 14.1071 90.6251 13.8955C90.879 13.6797 91.006 13.4279 91.006 13.1401C91.006 12.882 90.8938 12.6789 90.6696 12.5308C90.513 12.4292 90.1237 12.3001 89.5016 12.1436C88.6637 11.932 88.0818 11.75 87.756 11.5977C87.4344 11.4411 87.1889 11.2274 87.0197 10.9565C86.8546 10.6815 86.7721 10.3789 86.7721 10.0488C86.7721 9.74837 86.8398 9.47119 86.9752 9.21729C87.1149 8.95915 87.3032 8.74544 87.5402 8.57617C87.7179 8.44499 87.9591 8.33496 88.2638 8.24609C88.5727 8.15299 88.9028 8.10645 89.254 8.10645C89.783 8.10645 90.2464 8.18262 90.6442 8.33496C91.0462 8.4873 91.3424 8.69466 91.5328 8.95703C91.7233 9.21517 91.8545 9.56217 91.9264 9.99805L90.8092 10.1504C90.7584 9.80339 90.6103 9.53255 90.3649 9.33789C90.1237 9.14323 89.7809 9.0459 89.3365 9.0459C88.8118 9.0459 88.4373 9.13265 88.213 9.30615C87.9887 9.47965 87.8766 9.68278 87.8766 9.91553C87.8766 10.0636 87.9231 10.1969 88.0162 10.3154C88.1093 10.4382 88.2553 10.5397 88.4542 10.6201C88.5685 10.6624 88.9049 10.7598 89.4635 10.9121C90.2718 11.1279 90.8346 11.3057 91.152 11.4453C91.4736 11.5807 91.7254 11.7796 91.9073 12.042C92.0893 12.3044 92.1803 12.6302 92.1803 13.0195C92.1803 13.4004 92.0682 13.7601 91.8439 14.0986C91.6238 14.4329 91.3043 14.6932 90.8854 14.8794C90.4664 15.0614 89.9925 15.1523 89.4635 15.1523C88.5875 15.1523 87.9189 14.9704 87.4576 14.6064C87.0006 14.2425 86.7086 13.703 86.5817 12.9878ZM97.3663 15V5.69434H103.644V6.79248H98.5978V9.67432H102.965V10.7725H98.5978V15H97.3663ZM104.679 11.6294C104.679 10.381 105.026 9.45638 105.72 8.85547C106.3 8.35612 107.006 8.10645 107.84 8.10645C108.767 8.10645 109.524 8.41113 110.112 9.02051C110.701 9.62565 110.995 10.4635 110.995 11.5342C110.995 12.4017 110.864 13.0851 110.601 13.5845C110.343 14.0796 109.964 14.4647 109.465 14.7397C108.97 15.0148 108.428 15.1523 107.84 15.1523C106.896 15.1523 106.132 14.8498 105.548 14.2446C104.969 13.6395 104.679 12.7677 104.679 11.6294ZM105.853 11.6294C105.853 12.4927 106.041 13.1401 106.418 13.5718C106.795 13.9992 107.269 14.2129 107.84 14.2129C108.407 14.2129 108.879 13.9971 109.255 13.5654C109.632 13.1338 109.82 12.4757 109.82 11.5913C109.82 10.7576 109.63 10.1271 109.249 9.69971C108.873 9.26807 108.403 9.05225 107.84 9.05225C107.269 9.05225 106.795 9.26595 106.418 9.69336C106.041 10.1208 105.853 10.7661 105.853 11.6294ZM112.315 15V5.69434H113.458V15H112.315ZM119.609 15V14.1494C119.181 14.818 118.553 15.1523 117.723 15.1523C117.186 15.1523 116.691 15.0042 116.238 14.708C115.789 14.4118 115.44 13.9992 115.191 13.4702C114.945 12.937 114.822 12.3255 114.822 11.6357C114.822 10.9629 114.935 10.3535 115.159 9.80762C115.383 9.25749 115.72 8.83643 116.168 8.54443C116.617 8.25244 117.118 8.10645 117.672 8.10645C118.079 8.10645 118.441 8.1932 118.758 8.3667C119.075 8.53597 119.333 8.75814 119.532 9.0332V5.69434H120.669V15H119.609ZM115.997 11.6357C115.997 12.499 116.179 13.1444 116.543 13.5718C116.907 13.9992 117.336 14.2129 117.831 14.2129C118.331 14.2129 118.754 14.0098 119.101 13.6035C119.452 13.193 119.628 12.5688 119.628 11.731C119.628 10.8084 119.45 10.1313 119.094 9.69971C118.739 9.26807 118.301 9.05225 117.78 9.05225C117.273 9.05225 116.847 9.2596 116.505 9.67432C116.166 10.089 115.997 10.7428 115.997 11.6357ZM127.086 12.8291L128.267 12.9751C128.081 13.6649 127.736 14.2002 127.232 14.5811C126.728 14.9619 126.085 15.1523 125.302 15.1523C124.316 15.1523 123.533 14.8498 122.954 14.2446C122.378 13.6353 122.09 12.7826 122.09 11.6865C122.09 10.5524 122.382 9.6722 122.966 9.0459C123.55 8.4196 124.308 8.10645 125.239 8.10645C126.14 8.10645 126.877 8.41325 127.448 9.02686C128.019 9.64046 128.305 10.5037 128.305 11.6167C128.305 11.6844 128.303 11.786 128.298 11.9214H123.271C123.313 12.6619 123.523 13.229 123.9 13.6226C124.276 14.0161 124.746 14.2129 125.309 14.2129C125.728 14.2129 126.085 14.1029 126.381 13.8828C126.678 13.6628 126.913 13.3115 127.086 12.8291ZM123.335 10.9819H127.099C127.048 10.4149 126.904 9.98958 126.667 9.70605C126.303 9.26595 125.831 9.0459 125.252 9.0459C124.727 9.0459 124.285 9.22152 123.925 9.57275C123.569 9.92399 123.373 10.3937 123.335 10.9819ZM129.695 15V8.25879H130.723V9.28076C130.986 8.80257 131.227 8.4873 131.447 8.33496C131.671 8.18262 131.917 8.10645 132.183 8.10645C132.568 8.10645 132.96 8.22917 133.358 8.47461L132.964 9.53467C132.685 9.36963 132.405 9.28711 132.126 9.28711C131.876 9.28711 131.652 9.36328 131.453 9.51562C131.254 9.66374 131.113 9.87109 131.028 10.1377C130.901 10.5439 130.838 10.9883 130.838 11.4707V15H129.695Z" fill="white"/>
</svg>
