<svg width="451" height="198" viewBox="0 0 451 198" fill="none" xmlns="http://www.w3.org/2000/svg">
<rect width="451" height="18" fill="#545454"/>
<rect y="18" width="451" height="18" fill="#404040"/>
<rect y="36" width="451" height="18" fill="#545454"/>
<rect y="54" width="451" height="18" fill="#404040"/>
<rect y="72" width="451" height="18" fill="#545454"/>
<rect y="90" width="451" height="18" fill="#404040"/>
<rect y="108" width="451" height="18" fill="#545454"/>
<rect y="126" width="451" height="18" fill="#404040"/>
<rect y="144" width="451" height="18" fill="#545454"/>
<rect y="162" width="451" height="18" fill="#404040"/>
<rect y="180" width="451" height="18" fill="#545454"/>
<path d="M176.333 17C175.967 17 175.653 16.8694 175.392 16.6083C175.131 16.3472 175 16.0333 175 15.6667V6.33333C175 5.96667 175.131 5.65278 175.392 5.39167C175.653 5.13056 175.967 5 176.333 5H185.667C186.033 5 186.347 5.13056 186.608 5.39167C186.869 5.65278 187 5.96667 187 6.33333V15.6667C187 16.0333 186.869 16.3472 186.608 16.6083C186.347 16.8694 186.033 17 185.667 17H176.333ZM177 14.3333H185L182.5 11L180.5 13.6667L179 11.6667L177 14.3333Z" fill="#FEF7FF"/>
<path d="M195.212 15V5.69434H196.444V15H195.212ZM198.475 15V8.25879H199.497V9.20459C199.709 8.87451 199.99 8.61003 200.341 8.41113C200.693 8.20801 201.092 8.10645 201.541 8.10645C202.04 8.10645 202.449 8.21012 202.766 8.41748C203.088 8.62484 203.314 8.91471 203.445 9.28711C203.979 8.5 204.673 8.10645 205.527 8.10645C206.196 8.10645 206.71 8.29264 207.07 8.66504C207.43 9.0332 207.609 9.60238 207.609 10.3726V15H206.473V10.7534C206.473 10.2964 206.435 9.96842 206.359 9.76953C206.287 9.56641 206.154 9.40348 205.959 9.28076C205.764 9.15804 205.536 9.09668 205.273 9.09668C204.799 9.09668 204.406 9.25537 204.093 9.57275C203.78 9.8859 203.623 10.3895 203.623 11.0835V15H202.48V10.6201C202.48 10.1123 202.387 9.73145 202.201 9.47754C202.015 9.22363 201.71 9.09668 201.287 9.09668C200.965 9.09668 200.667 9.18132 200.392 9.35059C200.121 9.51986 199.924 9.76742 199.802 10.0933C199.679 10.4191 199.618 10.8888 199.618 11.5024V15H198.475ZM213.703 14.1685C213.28 14.5282 212.872 14.7821 212.478 14.9302C212.089 15.0783 211.67 15.1523 211.221 15.1523C210.481 15.1523 209.911 14.9725 209.514 14.6128C209.116 14.2489 208.917 13.7855 208.917 13.2227C208.917 12.8926 208.991 12.5921 209.139 12.3213C209.292 12.0462 209.488 11.8262 209.729 11.6611C209.975 11.4961 210.25 11.3713 210.555 11.2866C210.779 11.2274 211.118 11.1702 211.57 11.1152C212.493 11.0052 213.172 10.874 213.608 10.7217C213.612 10.5651 213.614 10.4657 213.614 10.4233C213.614 9.95785 213.506 9.62988 213.291 9.43945C212.999 9.18132 212.565 9.05225 211.989 9.05225C211.452 9.05225 211.054 9.14746 210.796 9.33789C210.542 9.52409 210.354 9.85628 210.231 10.3345L209.114 10.1821C209.215 9.70394 209.382 9.31885 209.615 9.02686C209.848 8.73063 210.184 8.50423 210.625 8.34766C211.065 8.18685 211.575 8.10645 212.154 8.10645C212.73 8.10645 213.197 8.17415 213.557 8.30957C213.917 8.44499 214.181 8.61637 214.351 8.82373C214.52 9.02686 214.638 9.28499 214.706 9.59814C214.744 9.79281 214.763 10.144 214.763 10.6519V12.1753C214.763 13.2375 214.786 13.9103 214.833 14.1938C214.884 14.4731 214.981 14.7419 215.125 15H213.932C213.813 14.763 213.737 14.4858 213.703 14.1685ZM213.608 11.6167C213.193 11.786 212.571 11.9299 211.742 12.0483C211.272 12.116 210.94 12.1922 210.745 12.2769C210.55 12.3615 210.4 12.4863 210.294 12.6514C210.189 12.8122 210.136 12.992 210.136 13.1909C210.136 13.4956 210.25 13.7495 210.479 13.9526C210.711 14.1558 211.05 14.2573 211.494 14.2573C211.934 14.2573 212.326 14.1621 212.668 13.9717C213.011 13.777 213.263 13.5125 213.424 13.1782C213.547 12.9201 213.608 12.5392 213.608 12.0356V11.6167ZM216.331 15.5586L217.442 15.7236C217.488 16.0664 217.618 16.3161 217.829 16.4727C218.113 16.6842 218.5 16.79 218.991 16.79C219.52 16.79 219.928 16.6842 220.216 16.4727C220.504 16.2611 220.698 15.9648 220.8 15.584C220.859 15.3512 220.887 14.8625 220.882 14.1177C220.383 14.7059 219.761 15 219.016 15C218.089 15 217.372 14.6657 216.864 13.9971C216.356 13.3285 216.103 12.5265 216.103 11.5913C216.103 10.9481 216.219 10.3556 216.452 9.81396C216.684 9.26807 217.021 8.84701 217.461 8.55078C217.905 8.25456 218.426 8.10645 219.022 8.10645C219.818 8.10645 220.474 8.42806 220.99 9.07129V8.25879H222.044V14.0859C222.044 15.1354 221.936 15.8781 221.72 16.314C221.509 16.7541 221.17 17.1011 220.705 17.355C220.243 17.6089 219.674 17.7358 218.997 17.7358C218.193 17.7358 217.543 17.5539 217.048 17.1899C216.553 16.8302 216.314 16.2865 216.331 15.5586ZM217.277 11.5088C217.277 12.3932 217.452 13.0386 217.804 13.4448C218.155 13.8511 218.595 14.0542 219.124 14.0542C219.649 14.0542 220.089 13.8532 220.444 13.4512C220.8 13.0449 220.978 12.4102 220.978 11.5469C220.978 10.7217 220.793 10.0996 220.425 9.68066C220.061 9.26172 219.621 9.05225 219.105 9.05225C218.597 9.05225 218.166 9.2596 217.81 9.67432C217.455 10.0848 217.277 10.6963 217.277 11.5088ZM228.392 12.8291L229.572 12.9751C229.386 13.6649 229.041 14.2002 228.538 14.5811C228.034 14.9619 227.391 15.1523 226.608 15.1523C225.622 15.1523 224.839 14.8498 224.259 14.2446C223.684 13.6353 223.396 12.7826 223.396 11.6865C223.396 10.5524 223.688 9.6722 224.272 9.0459C224.856 8.4196 225.613 8.10645 226.544 8.10645C227.446 8.10645 228.182 8.41325 228.753 9.02686C229.325 9.64046 229.61 10.5037 229.61 11.6167C229.61 11.6844 229.608 11.786 229.604 11.9214H224.577C224.619 12.6619 224.828 13.229 225.205 13.6226C225.582 14.0161 226.051 14.2129 226.614 14.2129C227.033 14.2129 227.391 14.1029 227.687 13.8828C227.983 13.6628 228.218 13.3115 228.392 12.8291ZM224.64 10.9819H228.404C228.354 10.4149 228.21 9.98958 227.973 9.70605C227.609 9.26595 227.137 9.0459 226.557 9.0459C226.032 9.0459 225.59 9.22152 225.23 9.57275C224.875 9.92399 224.678 10.3937 224.64 10.9819Z" fill="white"/>
<path d="M176.333 35C175.967 35 175.653 34.8694 175.392 34.6083C175.131 34.3472 175 34.0333 175 33.6667V24.3333C175 23.9667 175.131 23.6528 175.392 23.3917C175.653 23.1306 175.967 23 176.333 23H185.667C186.033 23 186.347 23.1306 186.608 23.3917C186.869 23.6528 187 23.9667 187 24.3333V33.6667C187 34.0333 186.869 34.3472 186.608 34.6083C186.347 34.8694 186.033 35 185.667 35H176.333ZM177 32.3333H185L182.5 29L180.5 31.6667L179 29.6667L177 32.3333Z" fill="#FEF7FF"/>
<path d="M195.212 33V23.6943H196.444V33H195.212ZM198.475 33V26.2588H199.497V27.2046C199.709 26.8745 199.99 26.61 200.341 26.4111C200.693 26.208 201.092 26.1064 201.541 26.1064C202.04 26.1064 202.449 26.2101 202.766 26.4175C203.088 26.6248 203.314 26.9147 203.445 27.2871C203.979 26.5 204.673 26.1064 205.527 26.1064C206.196 26.1064 206.71 26.2926 207.07 26.665C207.43 27.0332 207.609 27.6024 207.609 28.3726V33H206.473V28.7534C206.473 28.2964 206.435 27.9684 206.359 27.7695C206.287 27.5664 206.154 27.4035 205.959 27.2808C205.764 27.158 205.536 27.0967 205.273 27.0967C204.799 27.0967 204.406 27.2554 204.093 27.5728C203.78 27.8859 203.623 28.3895 203.623 29.0835V33H202.48V28.6201C202.48 28.1123 202.387 27.7314 202.201 27.4775C202.015 27.2236 201.71 27.0967 201.287 27.0967C200.965 27.0967 200.667 27.1813 200.392 27.3506C200.121 27.5199 199.924 27.7674 199.802 28.0933C199.679 28.4191 199.618 28.8888 199.618 29.5024V33H198.475ZM213.703 32.1685C213.28 32.5282 212.872 32.7821 212.478 32.9302C212.089 33.0783 211.67 33.1523 211.221 33.1523C210.481 33.1523 209.911 32.9725 209.514 32.6128C209.116 32.2489 208.917 31.7855 208.917 31.2227C208.917 30.8926 208.991 30.5921 209.139 30.3213C209.292 30.0462 209.488 29.8262 209.729 29.6611C209.975 29.4961 210.25 29.3713 210.555 29.2866C210.779 29.2274 211.118 29.1702 211.57 29.1152C212.493 29.0052 213.172 28.874 213.608 28.7217C213.612 28.5651 213.614 28.4657 213.614 28.4233C213.614 27.9578 213.506 27.6299 213.291 27.4395C212.999 27.1813 212.565 27.0522 211.989 27.0522C211.452 27.0522 211.054 27.1475 210.796 27.3379C210.542 27.5241 210.354 27.8563 210.231 28.3345L209.114 28.1821C209.215 27.7039 209.382 27.3188 209.615 27.0269C209.848 26.7306 210.184 26.5042 210.625 26.3477C211.065 26.1868 211.575 26.1064 212.154 26.1064C212.73 26.1064 213.197 26.1742 213.557 26.3096C213.917 26.445 214.181 26.6164 214.351 26.8237C214.52 27.0269 214.638 27.285 214.706 27.5981C214.744 27.7928 214.763 28.144 214.763 28.6519V30.1753C214.763 31.2375 214.786 31.9103 214.833 32.1938C214.884 32.4731 214.981 32.7419 215.125 33H213.932C213.813 32.763 213.737 32.4858 213.703 32.1685ZM213.608 29.6167C213.193 29.786 212.571 29.9299 211.742 30.0483C211.272 30.116 210.94 30.1922 210.745 30.2769C210.55 30.3615 210.4 30.4863 210.294 30.6514C210.189 30.8122 210.136 30.992 210.136 31.1909C210.136 31.4956 210.25 31.7495 210.479 31.9526C210.711 32.1558 211.05 32.2573 211.494 32.2573C211.934 32.2573 212.326 32.1621 212.668 31.9717C213.011 31.777 213.263 31.5125 213.424 31.1782C213.547 30.9201 213.608 30.5392 213.608 30.0356V29.6167ZM216.331 33.5586L217.442 33.7236C217.488 34.0664 217.618 34.3161 217.829 34.4727C218.113 34.6842 218.5 34.79 218.991 34.79C219.52 34.79 219.928 34.6842 220.216 34.4727C220.504 34.2611 220.698 33.9648 220.8 33.584C220.859 33.3512 220.887 32.8625 220.882 32.1177C220.383 32.7059 219.761 33 219.016 33C218.089 33 217.372 32.6657 216.864 31.9971C216.356 31.3285 216.103 30.5265 216.103 29.5913C216.103 28.9481 216.219 28.3556 216.452 27.814C216.684 27.2681 217.021 26.847 217.461 26.5508C217.905 26.2546 218.426 26.1064 219.022 26.1064C219.818 26.1064 220.474 26.4281 220.99 27.0713V26.2588H222.044V32.0859C222.044 33.1354 221.936 33.8781 221.72 34.314C221.509 34.7541 221.17 35.1011 220.705 35.355C220.243 35.6089 219.674 35.7358 218.997 35.7358C218.193 35.7358 217.543 35.5539 217.048 35.1899C216.553 34.8302 216.314 34.2865 216.331 33.5586ZM217.277 29.5088C217.277 30.3932 217.452 31.0386 217.804 31.4448C218.155 31.8511 218.595 32.0542 219.124 32.0542C219.649 32.0542 220.089 31.8532 220.444 31.4512C220.8 31.0449 220.978 30.4102 220.978 29.5469C220.978 28.7217 220.793 28.0996 220.425 27.6807C220.061 27.2617 219.621 27.0522 219.105 27.0522C218.597 27.0522 218.166 27.2596 217.81 27.6743C217.455 28.0848 217.277 28.6963 217.277 29.5088ZM228.392 30.8291L229.572 30.9751C229.386 31.6649 229.041 32.2002 228.538 32.5811C228.034 32.9619 227.391 33.1523 226.608 33.1523C225.622 33.1523 224.839 32.8498 224.259 32.2446C223.684 31.6353 223.396 30.7826 223.396 29.6865C223.396 28.5524 223.688 27.6722 224.272 27.0459C224.856 26.4196 225.613 26.1064 226.544 26.1064C227.446 26.1064 228.182 26.4132 228.753 27.0269C229.325 27.6405 229.61 28.5037 229.61 29.6167C229.61 29.6844 229.608 29.786 229.604 29.9214H224.577C224.619 30.6619 224.828 31.229 225.205 31.6226C225.582 32.0161 226.051 32.2129 226.614 32.2129C227.033 32.2129 227.391 32.1029 227.687 31.8828C227.983 31.6628 228.218 31.3115 228.392 30.8291ZM224.64 28.9819H228.404C228.354 28.4149 228.21 27.9896 227.973 27.7061C227.609 27.266 227.137 27.0459 226.557 27.0459C226.032 27.0459 225.59 27.2215 225.23 27.5728C224.875 27.924 224.678 28.3937 224.64 28.9819Z" fill="white"/>
<path d="M176.333 53C175.967 53 175.653 52.8694 175.392 52.6083C175.131 52.3472 175 52.0333 175 51.6667V42.3333C175 41.9667 175.131 41.6528 175.392 41.3917C175.653 41.1306 175.967 41 176.333 41H185.667C186.033 41 186.347 41.1306 186.608 41.3917C186.869 41.6528 187 41.9667 187 42.3333V51.6667C187 52.0333 186.869 52.3472 186.608 52.6083C186.347 52.8694 186.033 53 185.667 53H176.333ZM177 50.3333H185L182.5 47L180.5 49.6667L179 47.6667L177 50.3333Z" fill="#FEF7FF"/>
<path d="M195.212 51V41.6943H196.444V51H195.212ZM198.475 51V44.2588H199.497V45.2046C199.709 44.8745 199.99 44.61 200.341 44.4111C200.693 44.208 201.092 44.1064 201.541 44.1064C202.04 44.1064 202.449 44.2101 202.766 44.4175C203.088 44.6248 203.314 44.9147 203.445 45.2871C203.979 44.5 204.673 44.1064 205.527 44.1064C206.196 44.1064 206.71 44.2926 207.07 44.665C207.43 45.0332 207.609 45.6024 207.609 46.3726V51H206.473V46.7534C206.473 46.2964 206.435 45.9684 206.359 45.7695C206.287 45.5664 206.154 45.4035 205.959 45.2808C205.764 45.158 205.536 45.0967 205.273 45.0967C204.799 45.0967 204.406 45.2554 204.093 45.5728C203.78 45.8859 203.623 46.3895 203.623 47.0835V51H202.48V46.6201C202.48 46.1123 202.387 45.7314 202.201 45.4775C202.015 45.2236 201.71 45.0967 201.287 45.0967C200.965 45.0967 200.667 45.1813 200.392 45.3506C200.121 45.5199 199.924 45.7674 199.802 46.0933C199.679 46.4191 199.618 46.8888 199.618 47.5024V51H198.475ZM213.703 50.1685C213.28 50.5282 212.872 50.7821 212.478 50.9302C212.089 51.0783 211.67 51.1523 211.221 51.1523C210.481 51.1523 209.911 50.9725 209.514 50.6128C209.116 50.2489 208.917 49.7855 208.917 49.2227C208.917 48.8926 208.991 48.5921 209.139 48.3213C209.292 48.0462 209.488 47.8262 209.729 47.6611C209.975 47.4961 210.25 47.3713 210.555 47.2866C210.779 47.2274 211.118 47.1702 211.57 47.1152C212.493 47.0052 213.172 46.874 213.608 46.7217C213.612 46.5651 213.614 46.4657 213.614 46.4233C213.614 45.9578 213.506 45.6299 213.291 45.4395C212.999 45.1813 212.565 45.0522 211.989 45.0522C211.452 45.0522 211.054 45.1475 210.796 45.3379C210.542 45.5241 210.354 45.8563 210.231 46.3345L209.114 46.1821C209.215 45.7039 209.382 45.3188 209.615 45.0269C209.848 44.7306 210.184 44.5042 210.625 44.3477C211.065 44.1868 211.575 44.1064 212.154 44.1064C212.73 44.1064 213.197 44.1742 213.557 44.3096C213.917 44.445 214.181 44.6164 214.351 44.8237C214.52 45.0269 214.638 45.285 214.706 45.5981C214.744 45.7928 214.763 46.144 214.763 46.6519V48.1753C214.763 49.2375 214.786 49.9103 214.833 50.1938C214.884 50.4731 214.981 50.7419 215.125 51H213.932C213.813 50.763 213.737 50.4858 213.703 50.1685ZM213.608 47.6167C213.193 47.786 212.571 47.9299 211.742 48.0483C211.272 48.116 210.94 48.1922 210.745 48.2769C210.55 48.3615 210.4 48.4863 210.294 48.6514C210.189 48.8122 210.136 48.992 210.136 49.1909C210.136 49.4956 210.25 49.7495 210.479 49.9526C210.711 50.1558 211.05 50.2573 211.494 50.2573C211.934 50.2573 212.326 50.1621 212.668 49.9717C213.011 49.777 213.263 49.5125 213.424 49.1782C213.547 48.9201 213.608 48.5392 213.608 48.0356V47.6167ZM216.331 51.5586L217.442 51.7236C217.488 52.0664 217.618 52.3161 217.829 52.4727C218.113 52.6842 218.5 52.79 218.991 52.79C219.52 52.79 219.928 52.6842 220.216 52.4727C220.504 52.2611 220.698 51.9648 220.8 51.584C220.859 51.3512 220.887 50.8625 220.882 50.1177C220.383 50.7059 219.761 51 219.016 51C218.089 51 217.372 50.6657 216.864 49.9971C216.356 49.3285 216.103 48.5265 216.103 47.5913C216.103 46.9481 216.219 46.3556 216.452 45.814C216.684 45.2681 217.021 44.847 217.461 44.5508C217.905 44.2546 218.426 44.1064 219.022 44.1064C219.818 44.1064 220.474 44.4281 220.99 45.0713V44.2588H222.044V50.0859C222.044 51.1354 221.936 51.8781 221.72 52.314C221.509 52.7541 221.17 53.1011 220.705 53.355C220.243 53.6089 219.674 53.7358 218.997 53.7358C218.193 53.7358 217.543 53.5539 217.048 53.1899C216.553 52.8302 216.314 52.2865 216.331 51.5586ZM217.277 47.5088C217.277 48.3932 217.452 49.0386 217.804 49.4448C218.155 49.8511 218.595 50.0542 219.124 50.0542C219.649 50.0542 220.089 49.8532 220.444 49.4512C220.8 49.0449 220.978 48.4102 220.978 47.5469C220.978 46.7217 220.793 46.0996 220.425 45.6807C220.061 45.2617 219.621 45.0522 219.105 45.0522C218.597 45.0522 218.166 45.2596 217.81 45.6743C217.455 46.0848 217.277 46.6963 217.277 47.5088ZM228.392 48.8291L229.572 48.9751C229.386 49.6649 229.041 50.2002 228.538 50.5811C228.034 50.9619 227.391 51.1523 226.608 51.1523C225.622 51.1523 224.839 50.8498 224.259 50.2446C223.684 49.6353 223.396 48.7826 223.396 47.6865C223.396 46.5524 223.688 45.6722 224.272 45.0459C224.856 44.4196 225.613 44.1064 226.544 44.1064C227.446 44.1064 228.182 44.4132 228.753 45.0269C229.325 45.6405 229.61 46.5037 229.61 47.6167C229.61 47.6844 229.608 47.786 229.604 47.9214H224.577C224.619 48.6619 224.828 49.229 225.205 49.6226C225.582 50.0161 226.051 50.2129 226.614 50.2129C227.033 50.2129 227.391 50.1029 227.687 49.8828C227.983 49.6628 228.218 49.3115 228.392 48.8291ZM224.64 46.9819H228.404C228.354 46.4149 228.21 45.9896 227.973 45.7061C227.609 45.266 227.137 45.0459 226.557 45.0459C226.032 45.0459 225.59 45.2215 225.23 45.5728C224.875 45.924 224.678 46.3937 224.64 46.9819Z" fill="white"/>
<path d="M176.333 71C175.967 71 175.653 70.8694 175.392 70.6083C175.131 70.3472 175 70.0333 175 69.6667V60.3333C175 59.9667 175.131 59.6528 175.392 59.3917C175.653 59.1306 175.967 59 176.333 59H185.667C186.033 59 186.347 59.1306 186.608 59.3917C186.869 59.6528 187 59.9667 187 60.3333V69.6667C187 70.0333 186.869 70.3472 186.608 70.6083C186.347 70.8694 186.033 71 185.667 71H176.333ZM177 68.3333H185L182.5 65L180.5 67.6667L179 65.6667L177 68.3333Z" fill="#FEF7FF"/>
<path d="M195.212 69V59.6943H196.444V69H195.212ZM198.475 69V62.2588H199.497V63.2046C199.709 62.8745 199.99 62.61 200.341 62.4111C200.693 62.208 201.092 62.1064 201.541 62.1064C202.04 62.1064 202.449 62.2101 202.766 62.4175C203.088 62.6248 203.314 62.9147 203.445 63.2871C203.979 62.5 204.673 62.1064 205.527 62.1064C206.196 62.1064 206.71 62.2926 207.07 62.665C207.43 63.0332 207.609 63.6024 207.609 64.3726V69H206.473V64.7534C206.473 64.2964 206.435 63.9684 206.359 63.7695C206.287 63.5664 206.154 63.4035 205.959 63.2808C205.764 63.158 205.536 63.0967 205.273 63.0967C204.799 63.0967 204.406 63.2554 204.093 63.5728C203.78 63.8859 203.623 64.3895 203.623 65.0835V69H202.48V64.6201C202.48 64.1123 202.387 63.7314 202.201 63.4775C202.015 63.2236 201.71 63.0967 201.287 63.0967C200.965 63.0967 200.667 63.1813 200.392 63.3506C200.121 63.5199 199.924 63.7674 199.802 64.0933C199.679 64.4191 199.618 64.8888 199.618 65.5024V69H198.475ZM213.703 68.1685C213.28 68.5282 212.872 68.7821 212.478 68.9302C212.089 69.0783 211.67 69.1523 211.221 69.1523C210.481 69.1523 209.911 68.9725 209.514 68.6128C209.116 68.2489 208.917 67.7855 208.917 67.2227C208.917 66.8926 208.991 66.5921 209.139 66.3213C209.292 66.0462 209.488 65.8262 209.729 65.6611C209.975 65.4961 210.25 65.3713 210.555 65.2866C210.779 65.2274 211.118 65.1702 211.57 65.1152C212.493 65.0052 213.172 64.874 213.608 64.7217C213.612 64.5651 213.614 64.4657 213.614 64.4233C213.614 63.9578 213.506 63.6299 213.291 63.4395C212.999 63.1813 212.565 63.0522 211.989 63.0522C211.452 63.0522 211.054 63.1475 210.796 63.3379C210.542 63.5241 210.354 63.8563 210.231 64.3345L209.114 64.1821C209.215 63.7039 209.382 63.3188 209.615 63.0269C209.848 62.7306 210.184 62.5042 210.625 62.3477C211.065 62.1868 211.575 62.1064 212.154 62.1064C212.73 62.1064 213.197 62.1742 213.557 62.3096C213.917 62.445 214.181 62.6164 214.351 62.8237C214.52 63.0269 214.638 63.285 214.706 63.5981C214.744 63.7928 214.763 64.144 214.763 64.6519V66.1753C214.763 67.2375 214.786 67.9103 214.833 68.1938C214.884 68.4731 214.981 68.7419 215.125 69H213.932C213.813 68.763 213.737 68.4858 213.703 68.1685ZM213.608 65.6167C213.193 65.786 212.571 65.9299 211.742 66.0483C211.272 66.116 210.94 66.1922 210.745 66.2769C210.55 66.3615 210.4 66.4863 210.294 66.6514C210.189 66.8122 210.136 66.992 210.136 67.1909C210.136 67.4956 210.25 67.7495 210.479 67.9526C210.711 68.1558 211.05 68.2573 211.494 68.2573C211.934 68.2573 212.326 68.1621 212.668 67.9717C213.011 67.777 213.263 67.5125 213.424 67.1782C213.547 66.9201 213.608 66.5392 213.608 66.0356V65.6167ZM216.331 69.5586L217.442 69.7236C217.488 70.0664 217.618 70.3161 217.829 70.4727C218.113 70.6842 218.5 70.79 218.991 70.79C219.52 70.79 219.928 70.6842 220.216 70.4727C220.504 70.2611 220.698 69.9648 220.8 69.584C220.859 69.3512 220.887 68.8625 220.882 68.1177C220.383 68.7059 219.761 69 219.016 69C218.089 69 217.372 68.6657 216.864 67.9971C216.356 67.3285 216.103 66.5265 216.103 65.5913C216.103 64.9481 216.219 64.3556 216.452 63.814C216.684 63.2681 217.021 62.847 217.461 62.5508C217.905 62.2546 218.426 62.1064 219.022 62.1064C219.818 62.1064 220.474 62.4281 220.99 63.0713V62.2588H222.044V68.0859C222.044 69.1354 221.936 69.8781 221.72 70.314C221.509 70.7541 221.17 71.1011 220.705 71.355C220.243 71.6089 219.674 71.7358 218.997 71.7358C218.193 71.7358 217.543 71.5539 217.048 71.1899C216.553 70.8302 216.314 70.2865 216.331 69.5586ZM217.277 65.5088C217.277 66.3932 217.452 67.0386 217.804 67.4448C218.155 67.8511 218.595 68.0542 219.124 68.0542C219.649 68.0542 220.089 67.8532 220.444 67.4512C220.8 67.0449 220.978 66.4102 220.978 65.5469C220.978 64.7217 220.793 64.0996 220.425 63.6807C220.061 63.2617 219.621 63.0522 219.105 63.0522C218.597 63.0522 218.166 63.2596 217.81 63.6743C217.455 64.0848 217.277 64.6963 217.277 65.5088ZM228.392 66.8291L229.572 66.9751C229.386 67.6649 229.041 68.2002 228.538 68.5811C228.034 68.9619 227.391 69.1523 226.608 69.1523C225.622 69.1523 224.839 68.8498 224.259 68.2446C223.684 67.6353 223.396 66.7826 223.396 65.6865C223.396 64.5524 223.688 63.6722 224.272 63.0459C224.856 62.4196 225.613 62.1064 226.544 62.1064C227.446 62.1064 228.182 62.4132 228.753 63.0269C229.325 63.6405 229.61 64.5037 229.61 65.6167C229.61 65.6844 229.608 65.786 229.604 65.9214H224.577C224.619 66.6619 224.828 67.229 225.205 67.6226C225.582 68.0161 226.051 68.2129 226.614 68.2129C227.033 68.2129 227.391 68.1029 227.687 67.8828C227.983 67.6628 228.218 67.3115 228.392 66.8291ZM224.64 64.9819H228.404C228.354 64.4149 228.21 63.9896 227.973 63.7061C227.609 63.266 227.137 63.0459 226.557 63.0459C226.032 63.0459 225.59 63.2215 225.23 63.5728C224.875 63.924 224.678 64.3937 224.64 64.9819Z" fill="white"/>
<path d="M176.333 89C175.967 89 175.653 88.8694 175.392 88.6083C175.131 88.3472 175 88.0333 175 87.6667V78.3333C175 77.9667 175.131 77.6528 175.392 77.3917C175.653 77.1306 175.967 77 176.333 77H185.667C186.033 77 186.347 77.1306 186.608 77.3917C186.869 77.6528 187 77.9667 187 78.3333V87.6667C187 88.0333 186.869 88.3472 186.608 88.6083C186.347 88.8694 186.033 89 185.667 89H176.333ZM177 86.3333H185L182.5 83L180.5 85.6667L179 83.6667L177 86.3333Z" fill="#FEF7FF"/>
<path d="M195.212 87V77.6943H196.444V87H195.212ZM198.475 87V80.2588H199.497V81.2046C199.709 80.8745 199.99 80.61 200.341 80.4111C200.693 80.208 201.092 80.1064 201.541 80.1064C202.04 80.1064 202.449 80.2101 202.766 80.4175C203.088 80.6248 203.314 80.9147 203.445 81.2871C203.979 80.5 204.673 80.1064 205.527 80.1064C206.196 80.1064 206.71 80.2926 207.07 80.665C207.43 81.0332 207.609 81.6024 207.609 82.3726V87H206.473V82.7534C206.473 82.2964 206.435 81.9684 206.359 81.7695C206.287 81.5664 206.154 81.4035 205.959 81.2808C205.764 81.158 205.536 81.0967 205.273 81.0967C204.799 81.0967 204.406 81.2554 204.093 81.5728C203.78 81.8859 203.623 82.3895 203.623 83.0835V87H202.48V82.6201C202.48 82.1123 202.387 81.7314 202.201 81.4775C202.015 81.2236 201.71 81.0967 201.287 81.0967C200.965 81.0967 200.667 81.1813 200.392 81.3506C200.121 81.5199 199.924 81.7674 199.802 82.0933C199.679 82.4191 199.618 82.8888 199.618 83.5024V87H198.475ZM213.703 86.1685C213.28 86.5282 212.872 86.7821 212.478 86.9302C212.089 87.0783 211.67 87.1523 211.221 87.1523C210.481 87.1523 209.911 86.9725 209.514 86.6128C209.116 86.2489 208.917 85.7855 208.917 85.2227C208.917 84.8926 208.991 84.5921 209.139 84.3213C209.292 84.0462 209.488 83.8262 209.729 83.6611C209.975 83.4961 210.25 83.3713 210.555 83.2866C210.779 83.2274 211.118 83.1702 211.57 83.1152C212.493 83.0052 213.172 82.874 213.608 82.7217C213.612 82.5651 213.614 82.4657 213.614 82.4233C213.614 81.9578 213.506 81.6299 213.291 81.4395C212.999 81.1813 212.565 81.0522 211.989 81.0522C211.452 81.0522 211.054 81.1475 210.796 81.3379C210.542 81.5241 210.354 81.8563 210.231 82.3345L209.114 82.1821C209.215 81.7039 209.382 81.3188 209.615 81.0269C209.848 80.7306 210.184 80.5042 210.625 80.3477C211.065 80.1868 211.575 80.1064 212.154 80.1064C212.73 80.1064 213.197 80.1742 213.557 80.3096C213.917 80.445 214.181 80.6164 214.351 80.8237C214.52 81.0269 214.638 81.285 214.706 81.5981C214.744 81.7928 214.763 82.144 214.763 82.6519V84.1753C214.763 85.2375 214.786 85.9103 214.833 86.1938C214.884 86.4731 214.981 86.7419 215.125 87H213.932C213.813 86.763 213.737 86.4858 213.703 86.1685ZM213.608 83.6167C213.193 83.786 212.571 83.9299 211.742 84.0483C211.272 84.116 210.94 84.1922 210.745 84.2769C210.55 84.3615 210.4 84.4863 210.294 84.6514C210.189 84.8122 210.136 84.992 210.136 85.1909C210.136 85.4956 210.25 85.7495 210.479 85.9526C210.711 86.1558 211.05 86.2573 211.494 86.2573C211.934 86.2573 212.326 86.1621 212.668 85.9717C213.011 85.777 213.263 85.5125 213.424 85.1782C213.547 84.9201 213.608 84.5392 213.608 84.0356V83.6167ZM216.331 87.5586L217.442 87.7236C217.488 88.0664 217.618 88.3161 217.829 88.4727C218.113 88.6842 218.5 88.79 218.991 88.79C219.52 88.79 219.928 88.6842 220.216 88.4727C220.504 88.2611 220.698 87.9648 220.8 87.584C220.859 87.3512 220.887 86.8625 220.882 86.1177C220.383 86.7059 219.761 87 219.016 87C218.089 87 217.372 86.6657 216.864 85.9971C216.356 85.3285 216.103 84.5265 216.103 83.5913C216.103 82.9481 216.219 82.3556 216.452 81.814C216.684 81.2681 217.021 80.847 217.461 80.5508C217.905 80.2546 218.426 80.1064 219.022 80.1064C219.818 80.1064 220.474 80.4281 220.99 81.0713V80.2588H222.044V86.0859C222.044 87.1354 221.936 87.8781 221.72 88.314C221.509 88.7541 221.17 89.1011 220.705 89.355C220.243 89.6089 219.674 89.7358 218.997 89.7358C218.193 89.7358 217.543 89.5539 217.048 89.1899C216.553 88.8302 216.314 88.2865 216.331 87.5586ZM217.277 83.5088C217.277 84.3932 217.452 85.0386 217.804 85.4448C218.155 85.8511 218.595 86.0542 219.124 86.0542C219.649 86.0542 220.089 85.8532 220.444 85.4512C220.8 85.0449 220.978 84.4102 220.978 83.5469C220.978 82.7217 220.793 82.0996 220.425 81.6807C220.061 81.2617 219.621 81.0522 219.105 81.0522C218.597 81.0522 218.166 81.2596 217.81 81.6743C217.455 82.0848 217.277 82.6963 217.277 83.5088ZM228.392 84.8291L229.572 84.9751C229.386 85.6649 229.041 86.2002 228.538 86.5811C228.034 86.9619 227.391 87.1523 226.608 87.1523C225.622 87.1523 224.839 86.8498 224.259 86.2446C223.684 85.6353 223.396 84.7826 223.396 83.6865C223.396 82.5524 223.688 81.6722 224.272 81.0459C224.856 80.4196 225.613 80.1064 226.544 80.1064C227.446 80.1064 228.182 80.4132 228.753 81.0269C229.325 81.6405 229.61 82.5037 229.61 83.6167C229.61 83.6844 229.608 83.786 229.604 83.9214H224.577C224.619 84.6619 224.828 85.229 225.205 85.6226C225.582 86.0161 226.051 86.2129 226.614 86.2129C227.033 86.2129 227.391 86.1029 227.687 85.8828C227.983 85.6628 228.218 85.3115 228.392 84.8291ZM224.64 82.9819H228.404C228.354 82.4149 228.21 81.9896 227.973 81.7061C227.609 81.266 227.137 81.0459 226.557 81.0459C226.032 81.0459 225.59 81.2215 225.23 81.5728C224.875 81.924 224.678 82.3937 224.64 82.9819Z" fill="white"/>
<path d="M176.333 107C175.967 107 175.653 106.869 175.392 106.608C175.131 106.347 175 106.033 175 105.667V96.3333C175 95.9667 175.131 95.6528 175.392 95.3917C175.653 95.1306 175.967 95 176.333 95H185.667C186.033 95 186.347 95.1306 186.608 95.3917C186.869 95.6528 187 95.9667 187 96.3333V105.667C187 106.033 186.869 106.347 186.608 106.608C186.347 106.869 186.033 107 185.667 107H176.333ZM177 104.333H185L182.5 101L180.5 103.667L179 101.667L177 104.333Z" fill="#FEF7FF"/>
<path d="M195.212 105V95.6943H196.444V105H195.212ZM198.475 105V98.2588H199.497V99.2046C199.709 98.8745 199.99 98.61 200.341 98.4111C200.693 98.208 201.092 98.1064 201.541 98.1064C202.04 98.1064 202.449 98.2101 202.766 98.4175C203.088 98.6248 203.314 98.9147 203.445 99.2871C203.979 98.5 204.673 98.1064 205.527 98.1064C206.196 98.1064 206.71 98.2926 207.07 98.665C207.43 99.0332 207.609 99.6024 207.609 100.373V105H206.473V100.753C206.473 100.296 206.435 99.9684 206.359 99.7695C206.287 99.5664 206.154 99.4035 205.959 99.2808C205.764 99.158 205.536 99.0967 205.273 99.0967C204.799 99.0967 204.406 99.2554 204.093 99.5728C203.78 99.8859 203.623 100.389 203.623 101.083V105H202.48V100.62C202.48 100.112 202.387 99.7314 202.201 99.4775C202.015 99.2236 201.71 99.0967 201.287 99.0967C200.965 99.0967 200.667 99.1813 200.392 99.3506C200.121 99.5199 199.924 99.7674 199.802 100.093C199.679 100.419 199.618 100.889 199.618 101.502V105H198.475ZM213.703 104.168C213.28 104.528 212.872 104.782 212.478 104.93C212.089 105.078 211.67 105.152 211.221 105.152C210.481 105.152 209.911 104.972 209.514 104.613C209.116 104.249 208.917 103.785 208.917 103.223C208.917 102.893 208.991 102.592 209.139 102.321C209.292 102.046 209.488 101.826 209.729 101.661C209.975 101.496 210.25 101.371 210.555 101.287C210.779 101.227 211.118 101.17 211.57 101.115C212.493 101.005 213.172 100.874 213.608 100.722C213.612 100.565 213.614 100.466 213.614 100.423C213.614 99.9578 213.506 99.6299 213.291 99.4395C212.999 99.1813 212.565 99.0522 211.989 99.0522C211.452 99.0522 211.054 99.1475 210.796 99.3379C210.542 99.5241 210.354 99.8563 210.231 100.334L209.114 100.182C209.215 99.7039 209.382 99.3188 209.615 99.0269C209.848 98.7306 210.184 98.5042 210.625 98.3477C211.065 98.1868 211.575 98.1064 212.154 98.1064C212.73 98.1064 213.197 98.1742 213.557 98.3096C213.917 98.445 214.181 98.6164 214.351 98.8237C214.52 99.0269 214.638 99.285 214.706 99.5981C214.744 99.7928 214.763 100.144 214.763 100.652V102.175C214.763 103.237 214.786 103.91 214.833 104.194C214.884 104.473 214.981 104.742 215.125 105H213.932C213.813 104.763 213.737 104.486 213.703 104.168ZM213.608 101.617C213.193 101.786 212.571 101.93 211.742 102.048C211.272 102.116 210.94 102.192 210.745 102.277C210.55 102.361 210.4 102.486 210.294 102.651C210.189 102.812 210.136 102.992 210.136 103.191C210.136 103.496 210.25 103.75 210.479 103.953C210.711 104.156 211.05 104.257 211.494 104.257C211.934 104.257 212.326 104.162 212.668 103.972C213.011 103.777 213.263 103.513 213.424 103.178C213.547 102.92 213.608 102.539 213.608 102.036V101.617ZM216.331 105.559L217.442 105.724C217.488 106.066 217.618 106.316 217.829 106.473C218.113 106.684 218.5 106.79 218.991 106.79C219.52 106.79 219.928 106.684 220.216 106.473C220.504 106.261 220.698 105.965 220.8 105.584C220.859 105.351 220.887 104.862 220.882 104.118C220.383 104.706 219.761 105 219.016 105C218.089 105 217.372 104.666 216.864 103.997C216.356 103.328 216.103 102.527 216.103 101.591C216.103 100.948 216.219 100.356 216.452 99.814C216.684 99.2681 217.021 98.847 217.461 98.5508C217.905 98.2546 218.426 98.1064 219.022 98.1064C219.818 98.1064 220.474 98.4281 220.99 99.0713V98.2588H222.044V104.086C222.044 105.135 221.936 105.878 221.72 106.314C221.509 106.754 221.17 107.101 220.705 107.355C220.243 107.609 219.674 107.736 218.997 107.736C218.193 107.736 217.543 107.554 217.048 107.19C216.553 106.83 216.314 106.286 216.331 105.559ZM217.277 101.509C217.277 102.393 217.452 103.039 217.804 103.445C218.155 103.851 218.595 104.054 219.124 104.054C219.649 104.054 220.089 103.853 220.444 103.451C220.8 103.045 220.978 102.41 220.978 101.547C220.978 100.722 220.793 100.1 220.425 99.6807C220.061 99.2617 219.621 99.0522 219.105 99.0522C218.597 99.0522 218.166 99.2596 217.81 99.6743C217.455 100.085 217.277 100.696 217.277 101.509ZM228.392 102.829L229.572 102.975C229.386 103.665 229.041 104.2 228.538 104.581C228.034 104.962 227.391 105.152 226.608 105.152C225.622 105.152 224.839 104.85 224.259 104.245C223.684 103.635 223.396 102.783 223.396 101.687C223.396 100.552 223.688 99.6722 224.272 99.0459C224.856 98.4196 225.613 98.1064 226.544 98.1064C227.446 98.1064 228.182 98.4132 228.753 99.0269C229.325 99.6405 229.61 100.504 229.61 101.617C229.61 101.684 229.608 101.786 229.604 101.921H224.577C224.619 102.662 224.828 103.229 225.205 103.623C225.582 104.016 226.051 104.213 226.614 104.213C227.033 104.213 227.391 104.103 227.687 103.883C227.983 103.663 228.218 103.312 228.392 102.829ZM224.64 100.982H228.404C228.354 100.415 228.21 99.9896 227.973 99.7061C227.609 99.266 227.137 99.0459 226.557 99.0459C226.032 99.0459 225.59 99.2215 225.23 99.5728C224.875 99.924 224.678 100.394 224.64 100.982Z" fill="white"/>
<path d="M176.333 125C175.967 125 175.653 124.869 175.392 124.608C175.131 124.347 175 124.033 175 123.667V114.333C175 113.967 175.131 113.653 175.392 113.392C175.653 113.131 175.967 113 176.333 113H185.667C186.033 113 186.347 113.131 186.608 113.392C186.869 113.653 187 113.967 187 114.333V123.667C187 124.033 186.869 124.347 186.608 124.608C186.347 124.869 186.033 125 185.667 125H176.333ZM177 122.333H185L182.5 119L180.5 121.667L179 119.667L177 122.333Z" fill="#FEF7FF"/>
<path d="M195.212 123V113.694H196.444V123H195.212ZM198.475 123V116.259H199.497V117.205C199.709 116.875 199.99 116.61 200.341 116.411C200.693 116.208 201.092 116.106 201.541 116.106C202.04 116.106 202.449 116.21 202.766 116.417C203.088 116.625 203.314 116.915 203.445 117.287C203.979 116.5 204.673 116.106 205.527 116.106C206.196 116.106 206.71 116.293 207.07 116.665C207.43 117.033 207.609 117.602 207.609 118.373V123H206.473V118.753C206.473 118.296 206.435 117.968 206.359 117.77C206.287 117.566 206.154 117.403 205.959 117.281C205.764 117.158 205.536 117.097 205.273 117.097C204.799 117.097 204.406 117.255 204.093 117.573C203.78 117.886 203.623 118.389 203.623 119.083V123H202.48V118.62C202.48 118.112 202.387 117.731 202.201 117.478C202.015 117.224 201.71 117.097 201.287 117.097C200.965 117.097 200.667 117.181 200.392 117.351C200.121 117.52 199.924 117.767 199.802 118.093C199.679 118.419 199.618 118.889 199.618 119.502V123H198.475ZM213.703 122.168C213.28 122.528 212.872 122.782 212.478 122.93C212.089 123.078 211.67 123.152 211.221 123.152C210.481 123.152 209.911 122.972 209.514 122.613C209.116 122.249 208.917 121.785 208.917 121.223C208.917 120.893 208.991 120.592 209.139 120.321C209.292 120.046 209.488 119.826 209.729 119.661C209.975 119.496 210.25 119.371 210.555 119.287C210.779 119.227 211.118 119.17 211.57 119.115C212.493 119.005 213.172 118.874 213.608 118.722C213.612 118.565 213.614 118.466 213.614 118.423C213.614 117.958 213.506 117.63 213.291 117.439C212.999 117.181 212.565 117.052 211.989 117.052C211.452 117.052 211.054 117.147 210.796 117.338C210.542 117.524 210.354 117.856 210.231 118.334L209.114 118.182C209.215 117.704 209.382 117.319 209.615 117.027C209.848 116.731 210.184 116.504 210.625 116.348C211.065 116.187 211.575 116.106 212.154 116.106C212.73 116.106 213.197 116.174 213.557 116.31C213.917 116.445 214.181 116.616 214.351 116.824C214.52 117.027 214.638 117.285 214.706 117.598C214.744 117.793 214.763 118.144 214.763 118.652V120.175C214.763 121.237 214.786 121.91 214.833 122.194C214.884 122.473 214.981 122.742 215.125 123H213.932C213.813 122.763 213.737 122.486 213.703 122.168ZM213.608 119.617C213.193 119.786 212.571 119.93 211.742 120.048C211.272 120.116 210.94 120.192 210.745 120.277C210.55 120.361 210.4 120.486 210.294 120.651C210.189 120.812 210.136 120.992 210.136 121.191C210.136 121.496 210.25 121.75 210.479 121.953C210.711 122.156 211.05 122.257 211.494 122.257C211.934 122.257 212.326 122.162 212.668 121.972C213.011 121.777 213.263 121.513 213.424 121.178C213.547 120.92 213.608 120.539 213.608 120.036V119.617ZM216.331 123.559L217.442 123.724C217.488 124.066 217.618 124.316 217.829 124.473C218.113 124.684 218.5 124.79 218.991 124.79C219.52 124.79 219.928 124.684 220.216 124.473C220.504 124.261 220.698 123.965 220.8 123.584C220.859 123.351 220.887 122.862 220.882 122.118C220.383 122.706 219.761 123 219.016 123C218.089 123 217.372 122.666 216.864 121.997C216.356 121.328 216.103 120.527 216.103 119.591C216.103 118.948 216.219 118.356 216.452 117.814C216.684 117.268 217.021 116.847 217.461 116.551C217.905 116.255 218.426 116.106 219.022 116.106C219.818 116.106 220.474 116.428 220.99 117.071V116.259H222.044V122.086C222.044 123.135 221.936 123.878 221.72 124.314C221.509 124.754 221.17 125.101 220.705 125.355C220.243 125.609 219.674 125.736 218.997 125.736C218.193 125.736 217.543 125.554 217.048 125.19C216.553 124.83 216.314 124.286 216.331 123.559ZM217.277 119.509C217.277 120.393 217.452 121.039 217.804 121.445C218.155 121.851 218.595 122.054 219.124 122.054C219.649 122.054 220.089 121.853 220.444 121.451C220.8 121.045 220.978 120.41 220.978 119.547C220.978 118.722 220.793 118.1 220.425 117.681C220.061 117.262 219.621 117.052 219.105 117.052C218.597 117.052 218.166 117.26 217.81 117.674C217.455 118.085 217.277 118.696 217.277 119.509ZM228.392 120.829L229.572 120.975C229.386 121.665 229.041 122.2 228.538 122.581C228.034 122.962 227.391 123.152 226.608 123.152C225.622 123.152 224.839 122.85 224.259 122.245C223.684 121.635 223.396 120.783 223.396 119.687C223.396 118.552 223.688 117.672 224.272 117.046C224.856 116.42 225.613 116.106 226.544 116.106C227.446 116.106 228.182 116.413 228.753 117.027C229.325 117.64 229.61 118.504 229.61 119.617C229.61 119.684 229.608 119.786 229.604 119.921H224.577C224.619 120.662 224.828 121.229 225.205 121.623C225.582 122.016 226.051 122.213 226.614 122.213C227.033 122.213 227.391 122.103 227.687 121.883C227.983 121.663 228.218 121.312 228.392 120.829ZM224.64 118.982H228.404C228.354 118.415 228.21 117.99 227.973 117.706C227.609 117.266 227.137 117.046 226.557 117.046C226.032 117.046 225.59 117.222 225.23 117.573C224.875 117.924 224.678 118.394 224.64 118.982Z" fill="white"/>
<path d="M176.333 143C175.967 143 175.653 142.869 175.392 142.608C175.131 142.347 175 142.033 175 141.667V132.333C175 131.967 175.131 131.653 175.392 131.392C175.653 131.131 175.967 131 176.333 131H185.667C186.033 131 186.347 131.131 186.608 131.392C186.869 131.653 187 131.967 187 132.333V141.667C187 142.033 186.869 142.347 186.608 142.608C186.347 142.869 186.033 143 185.667 143H176.333ZM177 140.333H185L182.5 137L180.5 139.667L179 137.667L177 140.333Z" fill="#FEF7FF"/>
<path d="M195.212 141V131.694H196.444V141H195.212ZM198.475 141V134.259H199.497V135.205C199.709 134.875 199.99 134.61 200.341 134.411C200.693 134.208 201.092 134.106 201.541 134.106C202.04 134.106 202.449 134.21 202.766 134.417C203.088 134.625 203.314 134.915 203.445 135.287C203.979 134.5 204.673 134.106 205.527 134.106C206.196 134.106 206.71 134.293 207.07 134.665C207.43 135.033 207.609 135.602 207.609 136.373V141H206.473V136.753C206.473 136.296 206.435 135.968 206.359 135.77C206.287 135.566 206.154 135.403 205.959 135.281C205.764 135.158 205.536 135.097 205.273 135.097C204.799 135.097 204.406 135.255 204.093 135.573C203.78 135.886 203.623 136.389 203.623 137.083V141H202.48V136.62C202.48 136.112 202.387 135.731 202.201 135.478C202.015 135.224 201.71 135.097 201.287 135.097C200.965 135.097 200.667 135.181 200.392 135.351C200.121 135.52 199.924 135.767 199.802 136.093C199.679 136.419 199.618 136.889 199.618 137.502V141H198.475ZM213.703 140.168C213.28 140.528 212.872 140.782 212.478 140.93C212.089 141.078 211.67 141.152 211.221 141.152C210.481 141.152 209.911 140.972 209.514 140.613C209.116 140.249 208.917 139.785 208.917 139.223C208.917 138.893 208.991 138.592 209.139 138.321C209.292 138.046 209.488 137.826 209.729 137.661C209.975 137.496 210.25 137.371 210.555 137.287C210.779 137.227 211.118 137.17 211.57 137.115C212.493 137.005 213.172 136.874 213.608 136.722C213.612 136.565 213.614 136.466 213.614 136.423C213.614 135.958 213.506 135.63 213.291 135.439C212.999 135.181 212.565 135.052 211.989 135.052C211.452 135.052 211.054 135.147 210.796 135.338C210.542 135.524 210.354 135.856 210.231 136.334L209.114 136.182C209.215 135.704 209.382 135.319 209.615 135.027C209.848 134.731 210.184 134.504 210.625 134.348C211.065 134.187 211.575 134.106 212.154 134.106C212.73 134.106 213.197 134.174 213.557 134.31C213.917 134.445 214.181 134.616 214.351 134.824C214.52 135.027 214.638 135.285 214.706 135.598C214.744 135.793 214.763 136.144 214.763 136.652V138.175C214.763 139.237 214.786 139.91 214.833 140.194C214.884 140.473 214.981 140.742 215.125 141H213.932C213.813 140.763 213.737 140.486 213.703 140.168ZM213.608 137.617C213.193 137.786 212.571 137.93 211.742 138.048C211.272 138.116 210.94 138.192 210.745 138.277C210.55 138.361 210.4 138.486 210.294 138.651C210.189 138.812 210.136 138.992 210.136 139.191C210.136 139.496 210.25 139.75 210.479 139.953C210.711 140.156 211.05 140.257 211.494 140.257C211.934 140.257 212.326 140.162 212.668 139.972C213.011 139.777 213.263 139.513 213.424 139.178C213.547 138.92 213.608 138.539 213.608 138.036V137.617ZM216.331 141.559L217.442 141.724C217.488 142.066 217.618 142.316 217.829 142.473C218.113 142.684 218.5 142.79 218.991 142.79C219.52 142.79 219.928 142.684 220.216 142.473C220.504 142.261 220.698 141.965 220.8 141.584C220.859 141.351 220.887 140.862 220.882 140.118C220.383 140.706 219.761 141 219.016 141C218.089 141 217.372 140.666 216.864 139.997C216.356 139.328 216.103 138.527 216.103 137.591C216.103 136.948 216.219 136.356 216.452 135.814C216.684 135.268 217.021 134.847 217.461 134.551C217.905 134.255 218.426 134.106 219.022 134.106C219.818 134.106 220.474 134.428 220.99 135.071V134.259H222.044V140.086C222.044 141.135 221.936 141.878 221.72 142.314C221.509 142.754 221.17 143.101 220.705 143.355C220.243 143.609 219.674 143.736 218.997 143.736C218.193 143.736 217.543 143.554 217.048 143.19C216.553 142.83 216.314 142.286 216.331 141.559ZM217.277 137.509C217.277 138.393 217.452 139.039 217.804 139.445C218.155 139.851 218.595 140.054 219.124 140.054C219.649 140.054 220.089 139.853 220.444 139.451C220.8 139.045 220.978 138.41 220.978 137.547C220.978 136.722 220.793 136.1 220.425 135.681C220.061 135.262 219.621 135.052 219.105 135.052C218.597 135.052 218.166 135.26 217.81 135.674C217.455 136.085 217.277 136.696 217.277 137.509ZM228.392 138.829L229.572 138.975C229.386 139.665 229.041 140.2 228.538 140.581C228.034 140.962 227.391 141.152 226.608 141.152C225.622 141.152 224.839 140.85 224.259 140.245C223.684 139.635 223.396 138.783 223.396 137.687C223.396 136.552 223.688 135.672 224.272 135.046C224.856 134.42 225.613 134.106 226.544 134.106C227.446 134.106 228.182 134.413 228.753 135.027C229.325 135.64 229.61 136.504 229.61 137.617C229.61 137.684 229.608 137.786 229.604 137.921H224.577C224.619 138.662 224.828 139.229 225.205 139.623C225.582 140.016 226.051 140.213 226.614 140.213C227.033 140.213 227.391 140.103 227.687 139.883C227.983 139.663 228.218 139.312 228.392 138.829ZM224.64 136.982H228.404C228.354 136.415 228.21 135.99 227.973 135.706C227.609 135.266 227.137 135.046 226.557 135.046C226.032 135.046 225.59 135.222 225.23 135.573C224.875 135.924 224.678 136.394 224.64 136.982Z" fill="white"/>
<path d="M176.333 161C175.967 161 175.653 160.869 175.392 160.608C175.131 160.347 175 160.033 175 159.667V150.333C175 149.967 175.131 149.653 175.392 149.392C175.653 149.131 175.967 149 176.333 149H185.667C186.033 149 186.347 149.131 186.608 149.392C186.869 149.653 187 149.967 187 150.333V159.667C187 160.033 186.869 160.347 186.608 160.608C186.347 160.869 186.033 161 185.667 161H176.333ZM177 158.333H185L182.5 155L180.5 157.667L179 155.667L177 158.333Z" fill="#FEF7FF"/>
<path d="M195.212 159V149.694H196.444V159H195.212ZM198.475 159V152.259H199.497V153.205C199.709 152.875 199.99 152.61 200.341 152.411C200.693 152.208 201.092 152.106 201.541 152.106C202.04 152.106 202.449 152.21 202.766 152.417C203.088 152.625 203.314 152.915 203.445 153.287C203.979 152.5 204.673 152.106 205.527 152.106C206.196 152.106 206.71 152.293 207.07 152.665C207.43 153.033 207.609 153.602 207.609 154.373V159H206.473V154.753C206.473 154.296 206.435 153.968 206.359 153.77C206.287 153.566 206.154 153.403 205.959 153.281C205.764 153.158 205.536 153.097 205.273 153.097C204.799 153.097 204.406 153.255 204.093 153.573C203.78 153.886 203.623 154.389 203.623 155.083V159H202.48V154.62C202.48 154.112 202.387 153.731 202.201 153.478C202.015 153.224 201.71 153.097 201.287 153.097C200.965 153.097 200.667 153.181 200.392 153.351C200.121 153.52 199.924 153.767 199.802 154.093C199.679 154.419 199.618 154.889 199.618 155.502V159H198.475ZM213.703 158.168C213.28 158.528 212.872 158.782 212.478 158.93C212.089 159.078 211.67 159.152 211.221 159.152C210.481 159.152 209.911 158.972 209.514 158.613C209.116 158.249 208.917 157.785 208.917 157.223C208.917 156.893 208.991 156.592 209.139 156.321C209.292 156.046 209.488 155.826 209.729 155.661C209.975 155.496 210.25 155.371 210.555 155.287C210.779 155.227 211.118 155.17 211.57 155.115C212.493 155.005 213.172 154.874 213.608 154.722C213.612 154.565 213.614 154.466 213.614 154.423C213.614 153.958 213.506 153.63 213.291 153.439C212.999 153.181 212.565 153.052 211.989 153.052C211.452 153.052 211.054 153.147 210.796 153.338C210.542 153.524 210.354 153.856 210.231 154.334L209.114 154.182C209.215 153.704 209.382 153.319 209.615 153.027C209.848 152.731 210.184 152.504 210.625 152.348C211.065 152.187 211.575 152.106 212.154 152.106C212.73 152.106 213.197 152.174 213.557 152.31C213.917 152.445 214.181 152.616 214.351 152.824C214.52 153.027 214.638 153.285 214.706 153.598C214.744 153.793 214.763 154.144 214.763 154.652V156.175C214.763 157.237 214.786 157.91 214.833 158.194C214.884 158.473 214.981 158.742 215.125 159H213.932C213.813 158.763 213.737 158.486 213.703 158.168ZM213.608 155.617C213.193 155.786 212.571 155.93 211.742 156.048C211.272 156.116 210.94 156.192 210.745 156.277C210.55 156.361 210.4 156.486 210.294 156.651C210.189 156.812 210.136 156.992 210.136 157.191C210.136 157.496 210.25 157.75 210.479 157.953C210.711 158.156 211.05 158.257 211.494 158.257C211.934 158.257 212.326 158.162 212.668 157.972C213.011 157.777 213.263 157.513 213.424 157.178C213.547 156.92 213.608 156.539 213.608 156.036V155.617ZM216.331 159.559L217.442 159.724C217.488 160.066 217.618 160.316 217.829 160.473C218.113 160.684 218.5 160.79 218.991 160.79C219.52 160.79 219.928 160.684 220.216 160.473C220.504 160.261 220.698 159.965 220.8 159.584C220.859 159.351 220.887 158.862 220.882 158.118C220.383 158.706 219.761 159 219.016 159C218.089 159 217.372 158.666 216.864 157.997C216.356 157.328 216.103 156.527 216.103 155.591C216.103 154.948 216.219 154.356 216.452 153.814C216.684 153.268 217.021 152.847 217.461 152.551C217.905 152.255 218.426 152.106 219.022 152.106C219.818 152.106 220.474 152.428 220.99 153.071V152.259H222.044V158.086C222.044 159.135 221.936 159.878 221.72 160.314C221.509 160.754 221.17 161.101 220.705 161.355C220.243 161.609 219.674 161.736 218.997 161.736C218.193 161.736 217.543 161.554 217.048 161.19C216.553 160.83 216.314 160.286 216.331 159.559ZM217.277 155.509C217.277 156.393 217.452 157.039 217.804 157.445C218.155 157.851 218.595 158.054 219.124 158.054C219.649 158.054 220.089 157.853 220.444 157.451C220.8 157.045 220.978 156.41 220.978 155.547C220.978 154.722 220.793 154.1 220.425 153.681C220.061 153.262 219.621 153.052 219.105 153.052C218.597 153.052 218.166 153.26 217.81 153.674C217.455 154.085 217.277 154.696 217.277 155.509ZM228.392 156.829L229.572 156.975C229.386 157.665 229.041 158.2 228.538 158.581C228.034 158.962 227.391 159.152 226.608 159.152C225.622 159.152 224.839 158.85 224.259 158.245C223.684 157.635 223.396 156.783 223.396 155.687C223.396 154.552 223.688 153.672 224.272 153.046C224.856 152.42 225.613 152.106 226.544 152.106C227.446 152.106 228.182 152.413 228.753 153.027C229.325 153.64 229.61 154.504 229.61 155.617C229.61 155.684 229.608 155.786 229.604 155.921H224.577C224.619 156.662 224.828 157.229 225.205 157.623C225.582 158.016 226.051 158.213 226.614 158.213C227.033 158.213 227.391 158.103 227.687 157.883C227.983 157.663 228.218 157.312 228.392 156.829ZM224.64 154.982H228.404C228.354 154.415 228.21 153.99 227.973 153.706C227.609 153.266 227.137 153.046 226.557 153.046C226.032 153.046 225.59 153.222 225.23 153.573C224.875 153.924 224.678 154.394 224.64 154.982Z" fill="white"/>
<path d="M176.333 179C175.967 179 175.653 178.869 175.392 178.608C175.131 178.347 175 178.033 175 177.667V168.333C175 167.967 175.131 167.653 175.392 167.392C175.653 167.131 175.967 167 176.333 167H185.667C186.033 167 186.347 167.131 186.608 167.392C186.869 167.653 187 167.967 187 168.333V177.667C187 178.033 186.869 178.347 186.608 178.608C186.347 178.869 186.033 179 185.667 179H176.333ZM177 176.333H185L182.5 173L180.5 175.667L179 173.667L177 176.333Z" fill="#FEF7FF"/>
<path d="M195.212 177V167.694H196.444V177H195.212ZM198.475 177V170.259H199.497V171.205C199.709 170.875 199.99 170.61 200.341 170.411C200.693 170.208 201.092 170.106 201.541 170.106C202.04 170.106 202.449 170.21 202.766 170.417C203.088 170.625 203.314 170.915 203.445 171.287C203.979 170.5 204.673 170.106 205.527 170.106C206.196 170.106 206.71 170.293 207.07 170.665C207.43 171.033 207.609 171.602 207.609 172.373V177H206.473V172.753C206.473 172.296 206.435 171.968 206.359 171.77C206.287 171.566 206.154 171.403 205.959 171.281C205.764 171.158 205.536 171.097 205.273 171.097C204.799 171.097 204.406 171.255 204.093 171.573C203.78 171.886 203.623 172.389 203.623 173.083V177H202.48V172.62C202.48 172.112 202.387 171.731 202.201 171.478C202.015 171.224 201.71 171.097 201.287 171.097C200.965 171.097 200.667 171.181 200.392 171.351C200.121 171.52 199.924 171.767 199.802 172.093C199.679 172.419 199.618 172.889 199.618 173.502V177H198.475ZM213.703 176.168C213.28 176.528 212.872 176.782 212.478 176.93C212.089 177.078 211.67 177.152 211.221 177.152C210.481 177.152 209.911 176.972 209.514 176.613C209.116 176.249 208.917 175.785 208.917 175.223C208.917 174.893 208.991 174.592 209.139 174.321C209.292 174.046 209.488 173.826 209.729 173.661C209.975 173.496 210.25 173.371 210.555 173.287C210.779 173.227 211.118 173.17 211.57 173.115C212.493 173.005 213.172 172.874 213.608 172.722C213.612 172.565 213.614 172.466 213.614 172.423C213.614 171.958 213.506 171.63 213.291 171.439C212.999 171.181 212.565 171.052 211.989 171.052C211.452 171.052 211.054 171.147 210.796 171.338C210.542 171.524 210.354 171.856 210.231 172.334L209.114 172.182C209.215 171.704 209.382 171.319 209.615 171.027C209.848 170.731 210.184 170.504 210.625 170.348C211.065 170.187 211.575 170.106 212.154 170.106C212.73 170.106 213.197 170.174 213.557 170.31C213.917 170.445 214.181 170.616 214.351 170.824C214.52 171.027 214.638 171.285 214.706 171.598C214.744 171.793 214.763 172.144 214.763 172.652V174.175C214.763 175.237 214.786 175.91 214.833 176.194C214.884 176.473 214.981 176.742 215.125 177H213.932C213.813 176.763 213.737 176.486 213.703 176.168ZM213.608 173.617C213.193 173.786 212.571 173.93 211.742 174.048C211.272 174.116 210.94 174.192 210.745 174.277C210.55 174.361 210.4 174.486 210.294 174.651C210.189 174.812 210.136 174.992 210.136 175.191C210.136 175.496 210.25 175.75 210.479 175.953C210.711 176.156 211.05 176.257 211.494 176.257C211.934 176.257 212.326 176.162 212.668 175.972C213.011 175.777 213.263 175.513 213.424 175.178C213.547 174.92 213.608 174.539 213.608 174.036V173.617ZM216.331 177.559L217.442 177.724C217.488 178.066 217.618 178.316 217.829 178.473C218.113 178.684 218.5 178.79 218.991 178.79C219.52 178.79 219.928 178.684 220.216 178.473C220.504 178.261 220.698 177.965 220.8 177.584C220.859 177.351 220.887 176.862 220.882 176.118C220.383 176.706 219.761 177 219.016 177C218.089 177 217.372 176.666 216.864 175.997C216.356 175.328 216.103 174.527 216.103 173.591C216.103 172.948 216.219 172.356 216.452 171.814C216.684 171.268 217.021 170.847 217.461 170.551C217.905 170.255 218.426 170.106 219.022 170.106C219.818 170.106 220.474 170.428 220.99 171.071V170.259H222.044V176.086C222.044 177.135 221.936 177.878 221.72 178.314C221.509 178.754 221.17 179.101 220.705 179.355C220.243 179.609 219.674 179.736 218.997 179.736C218.193 179.736 217.543 179.554 217.048 179.19C216.553 178.83 216.314 178.286 216.331 177.559ZM217.277 173.509C217.277 174.393 217.452 175.039 217.804 175.445C218.155 175.851 218.595 176.054 219.124 176.054C219.649 176.054 220.089 175.853 220.444 175.451C220.8 175.045 220.978 174.41 220.978 173.547C220.978 172.722 220.793 172.1 220.425 171.681C220.061 171.262 219.621 171.052 219.105 171.052C218.597 171.052 218.166 171.26 217.81 171.674C217.455 172.085 217.277 172.696 217.277 173.509ZM228.392 174.829L229.572 174.975C229.386 175.665 229.041 176.2 228.538 176.581C228.034 176.962 227.391 177.152 226.608 177.152C225.622 177.152 224.839 176.85 224.259 176.245C223.684 175.635 223.396 174.783 223.396 173.687C223.396 172.552 223.688 171.672 224.272 171.046C224.856 170.42 225.613 170.106 226.544 170.106C227.446 170.106 228.182 170.413 228.753 171.027C229.325 171.64 229.61 172.504 229.61 173.617C229.61 173.684 229.608 173.786 229.604 173.921H224.577C224.619 174.662 224.828 175.229 225.205 175.623C225.582 176.016 226.051 176.213 226.614 176.213C227.033 176.213 227.391 176.103 227.687 175.883C227.983 175.663 228.218 175.312 228.392 174.829ZM224.64 172.982H228.404C228.354 172.415 228.21 171.99 227.973 171.706C227.609 171.266 227.137 171.046 226.557 171.046C226.032 171.046 225.59 171.222 225.23 171.573C224.875 171.924 224.678 172.394 224.64 172.982Z" fill="white"/>
<path d="M176.333 197C175.967 197 175.653 196.869 175.392 196.608C175.131 196.347 175 196.033 175 195.667V186.333C175 185.967 175.131 185.653 175.392 185.392C175.653 185.131 175.967 185 176.333 185H185.667C186.033 185 186.347 185.131 186.608 185.392C186.869 185.653 187 185.967 187 186.333V195.667C187 196.033 186.869 196.347 186.608 196.608C186.347 196.869 186.033 197 185.667 197H176.333ZM177 194.333H185L182.5 191L180.5 193.667L179 191.667L177 194.333Z" fill="#FEF7FF"/>
<path d="M195.212 195V185.694H196.444V195H195.212ZM198.475 195V188.259H199.497V189.205C199.709 188.875 199.99 188.61 200.341 188.411C200.693 188.208 201.092 188.106 201.541 188.106C202.04 188.106 202.449 188.21 202.766 188.417C203.088 188.625 203.314 188.915 203.445 189.287C203.979 188.5 204.673 188.106 205.527 188.106C206.196 188.106 206.71 188.293 207.07 188.665C207.43 189.033 207.609 189.602 207.609 190.373V195H206.473V190.753C206.473 190.296 206.435 189.968 206.359 189.77C206.287 189.566 206.154 189.403 205.959 189.281C205.764 189.158 205.536 189.097 205.273 189.097C204.799 189.097 204.406 189.255 204.093 189.573C203.78 189.886 203.623 190.389 203.623 191.083V195H202.48V190.62C202.48 190.112 202.387 189.731 202.201 189.478C202.015 189.224 201.71 189.097 201.287 189.097C200.965 189.097 200.667 189.181 200.392 189.351C200.121 189.52 199.924 189.767 199.802 190.093C199.679 190.419 199.618 190.889 199.618 191.502V195H198.475ZM213.703 194.168C213.28 194.528 212.872 194.782 212.478 194.93C212.089 195.078 211.67 195.152 211.221 195.152C210.481 195.152 209.911 194.972 209.514 194.613C209.116 194.249 208.917 193.785 208.917 193.223C208.917 192.893 208.991 192.592 209.139 192.321C209.292 192.046 209.488 191.826 209.729 191.661C209.975 191.496 210.25 191.371 210.555 191.287C210.779 191.227 211.118 191.17 211.57 191.115C212.493 191.005 213.172 190.874 213.608 190.722C213.612 190.565 213.614 190.466 213.614 190.423C213.614 189.958 213.506 189.63 213.291 189.439C212.999 189.181 212.565 189.052 211.989 189.052C211.452 189.052 211.054 189.147 210.796 189.338C210.542 189.524 210.354 189.856 210.231 190.334L209.114 190.182C209.215 189.704 209.382 189.319 209.615 189.027C209.848 188.731 210.184 188.504 210.625 188.348C211.065 188.187 211.575 188.106 212.154 188.106C212.73 188.106 213.197 188.174 213.557 188.31C213.917 188.445 214.181 188.616 214.351 188.824C214.52 189.027 214.638 189.285 214.706 189.598C214.744 189.793 214.763 190.144 214.763 190.652V192.175C214.763 193.237 214.786 193.91 214.833 194.194C214.884 194.473 214.981 194.742 215.125 195H213.932C213.813 194.763 213.737 194.486 213.703 194.168ZM213.608 191.617C213.193 191.786 212.571 191.93 211.742 192.048C211.272 192.116 210.94 192.192 210.745 192.277C210.55 192.361 210.4 192.486 210.294 192.651C210.189 192.812 210.136 192.992 210.136 193.191C210.136 193.496 210.25 193.75 210.479 193.953C210.711 194.156 211.05 194.257 211.494 194.257C211.934 194.257 212.326 194.162 212.668 193.972C213.011 193.777 213.263 193.513 213.424 193.178C213.547 192.92 213.608 192.539 213.608 192.036V191.617ZM216.331 195.559L217.442 195.724C217.488 196.066 217.618 196.316 217.829 196.473C218.113 196.684 218.5 196.79 218.991 196.79C219.52 196.79 219.928 196.684 220.216 196.473C220.504 196.261 220.698 195.965 220.8 195.584C220.859 195.351 220.887 194.862 220.882 194.118C220.383 194.706 219.761 195 219.016 195C218.089 195 217.372 194.666 216.864 193.997C216.356 193.328 216.103 192.527 216.103 191.591C216.103 190.948 216.219 190.356 216.452 189.814C216.684 189.268 217.021 188.847 217.461 188.551C217.905 188.255 218.426 188.106 219.022 188.106C219.818 188.106 220.474 188.428 220.99 189.071V188.259H222.044V194.086C222.044 195.135 221.936 195.878 221.72 196.314C221.509 196.754 221.17 197.101 220.705 197.355C220.243 197.609 219.674 197.736 218.997 197.736C218.193 197.736 217.543 197.554 217.048 197.19C216.553 196.83 216.314 196.286 216.331 195.559ZM217.277 191.509C217.277 192.393 217.452 193.039 217.804 193.445C218.155 193.851 218.595 194.054 219.124 194.054C219.649 194.054 220.089 193.853 220.444 193.451C220.8 193.045 220.978 192.41 220.978 191.547C220.978 190.722 220.793 190.1 220.425 189.681C220.061 189.262 219.621 189.052 219.105 189.052C218.597 189.052 218.166 189.26 217.81 189.674C217.455 190.085 217.277 190.696 217.277 191.509ZM228.392 192.829L229.572 192.975C229.386 193.665 229.041 194.2 228.538 194.581C228.034 194.962 227.391 195.152 226.608 195.152C225.622 195.152 224.839 194.85 224.259 194.245C223.684 193.635 223.396 192.783 223.396 191.687C223.396 190.552 223.688 189.672 224.272 189.046C224.856 188.42 225.613 188.106 226.544 188.106C227.446 188.106 228.182 188.413 228.753 189.027C229.325 189.64 229.61 190.504 229.61 191.617C229.61 191.684 229.608 191.786 229.604 191.921H224.577C224.619 192.662 224.828 193.229 225.205 193.623C225.582 194.016 226.051 194.213 226.614 194.213C227.033 194.213 227.391 194.103 227.687 193.883C227.983 193.663 228.218 193.312 228.392 192.829ZM224.64 190.982H228.404C228.354 190.415 228.21 189.99 227.973 189.706C227.609 189.266 227.137 189.046 226.557 189.046C226.032 189.046 225.59 189.222 225.23 189.573C224.875 189.924 224.678 190.394 224.64 190.982Z" fill="white"/>
<path d="M8 5.90226C8 5.40395 8.40395 5 8.90226 5H12.6236C12.9078 5 13.1755 5.13396 13.3459 5.36152L13.8619 6.05076C14.0322 6.27832 14.2999 6.41228 14.5841 6.41228H20.6316C21.1299 6.41228 21.5339 6.81624 21.5339 7.31454V9.84211H8V5.90226Z" fill="#53B2DD"/>
<path d="M8 8.39849C8 8.14933 8.20198 7.94736 8.45113 7.94736H21.0827C21.3319 7.94736 21.5339 8.14933 21.5339 8.39849V15.4662C21.5339 15.9645 21.1299 16.3684 20.6316 16.3684H8.90226C8.40395 16.3684 8 15.9645 8 15.4662V8.39849Z" fill="#5BC3F1"/>
<path d="M8 9.03007C8 8.78091 8.20198 8.57894 8.45113 8.57894H21.0827C21.3319 8.57894 21.5339 8.78091 21.5339 9.03007V16.0977C21.5339 16.596 21.1299 17 20.6316 17H8.90226C8.40395 17 8 16.596 8 16.0977V9.03007Z" fill="#62CFFF"/>
<path d="M36.6426 11.7373L37.874 12.0483C37.6159 13.0597 37.1504 13.832 36.4775 14.3652C35.8089 14.8942 34.9901 15.1587 34.021 15.1587C33.0181 15.1587 32.2013 14.9556 31.5708 14.5493C30.9445 14.1388 30.4663 13.5464 30.1362 12.772C29.8104 11.9976 29.6475 11.166 29.6475 10.2773C29.6475 9.30827 29.8315 8.46403 30.1997 7.74463C30.5721 7.021 31.099 6.47298 31.7803 6.10059C32.4658 5.72396 33.2191 5.53564 34.04 5.53564C34.971 5.53564 35.7539 5.77262 36.3887 6.24658C37.0234 6.72054 37.4657 7.38704 37.7153 8.24609L36.5029 8.53174C36.2871 7.85465 35.974 7.36165 35.5635 7.05273C35.153 6.74382 34.6367 6.58936 34.0146 6.58936C33.2995 6.58936 32.7007 6.76074 32.2183 7.10352C31.7401 7.44629 31.4036 7.90755 31.209 8.4873C31.0143 9.06283 30.917 9.65739 30.917 10.271C30.917 11.0623 31.0312 11.7542 31.2598 12.3467C31.4925 12.9349 31.8522 13.375 32.3389 13.667C32.8255 13.959 33.3524 14.105 33.9194 14.105C34.6092 14.105 35.1932 13.9061 35.6714 13.5083C36.1496 13.1105 36.4733 12.5202 36.6426 11.7373ZM38.8262 11.6294C38.8262 10.381 39.1732 9.45638 39.8672 8.85547C40.4469 8.35612 41.1536 8.10645 41.9873 8.10645C42.9141 8.10645 43.6715 8.41113 44.2598 9.02051C44.848 9.62565 45.1421 10.4635 45.1421 11.5342C45.1421 12.4017 45.0109 13.0851 44.7485 13.5845C44.4904 14.0796 44.1117 14.4647 43.6123 14.7397C43.1172 15.0148 42.5755 15.1523 41.9873 15.1523C41.0436 15.1523 40.2798 14.8498 39.6958 14.2446C39.116 13.6395 38.8262 12.7677 38.8262 11.6294ZM40.0005 11.6294C40.0005 12.4927 40.1888 13.1401 40.5654 13.5718C40.9421 13.9992 41.416 14.2129 41.9873 14.2129C42.5544 14.2129 43.0262 13.9971 43.4028 13.5654C43.7795 13.1338 43.9678 12.4757 43.9678 11.5913C43.9678 10.7576 43.7773 10.1271 43.3965 9.69971C43.0199 9.26807 42.5501 9.05225 41.9873 9.05225C41.416 9.05225 40.9421 9.26595 40.5654 9.69336C40.1888 10.1208 40.0005 10.7661 40.0005 11.6294ZM46.4624 15V5.69434H47.605V15H46.4624ZM49.3569 15V5.69434H50.4995V15H49.3569ZM56.8916 12.8291L58.0723 12.9751C57.8861 13.6649 57.5412 14.2002 57.0376 14.5811C56.534 14.9619 55.8908 15.1523 55.1079 15.1523C54.1219 15.1523 53.339 14.8498 52.7593 14.2446C52.1838 13.6353 51.896 12.7826 51.896 11.6865C51.896 10.5524 52.188 9.6722 52.772 9.0459C53.356 8.4196 54.1134 8.10645 55.0444 8.10645C55.9458 8.10645 56.6821 8.41325 57.2534 9.02686C57.8247 9.64046 58.1104 10.5037 58.1104 11.6167C58.1104 11.6844 58.1082 11.786 58.104 11.9214H53.0767C53.119 12.6619 53.3285 13.229 53.7051 13.6226C54.0817 14.0161 54.5514 14.2129 55.1143 14.2129C55.5332 14.2129 55.8908 14.1029 56.187 13.8828C56.4832 13.6628 56.7181 13.3115 56.8916 12.8291ZM53.1401 10.9819H56.9043C56.8535 10.4149 56.7096 9.98958 56.4727 9.70605C56.1087 9.26595 55.6369 9.0459 55.0571 9.0459C54.5324 9.0459 54.0902 9.22152 53.7305 9.57275C53.375 9.92399 53.1782 10.3937 53.1401 10.9819ZM63.9121 12.5308L65.0356 12.6768C64.9129 13.4512 64.5977 14.0584 64.0898 14.4985C63.5863 14.9344 62.9663 15.1523 62.23 15.1523C61.3075 15.1523 60.5648 14.8519 60.002 14.251C59.4434 13.6458 59.1641 12.7804 59.1641 11.6548C59.1641 10.9269 59.2847 10.29 59.5259 9.74414C59.7671 9.19824 60.1331 8.78988 60.624 8.51904C61.1191 8.24398 61.6566 8.10645 62.2363 8.10645C62.9684 8.10645 63.5672 8.29264 64.0327 8.66504C64.4982 9.0332 64.7965 9.55794 64.9277 10.2393L63.8169 10.4106C63.7111 9.95785 63.5228 9.61719 63.252 9.38867C62.9854 9.16016 62.6616 9.0459 62.2808 9.0459C61.7052 9.0459 61.2376 9.25326 60.8779 9.66797C60.5182 10.0785 60.3384 10.7301 60.3384 11.623C60.3384 12.5286 60.5119 13.1867 60.8589 13.5972C61.2059 14.0076 61.6587 14.2129 62.2173 14.2129C62.6659 14.2129 63.0404 14.0754 63.3408 13.8003C63.6413 13.5252 63.8317 13.1021 63.9121 12.5308ZM68.5078 13.978L68.6729 14.9873C68.3512 15.055 68.0635 15.0889 67.8096 15.0889C67.3949 15.0889 67.0732 15.0233 66.8447 14.8921C66.6162 14.7609 66.4554 14.5895 66.3623 14.3779C66.2692 14.1621 66.2227 13.7114 66.2227 13.0259V9.14746H65.3848V8.25879H66.2227V6.58936L67.3589 5.90381V8.25879H68.5078V9.14746H67.3589V13.0894C67.3589 13.4152 67.3779 13.6247 67.416 13.7178C67.4583 13.8109 67.5239 13.8849 67.6128 13.9399C67.7059 13.995 67.8371 14.0225 68.0063 14.0225C68.1333 14.0225 68.3005 14.0076 68.5078 13.978ZM69.6377 7.0083V5.69434H70.7803V7.0083H69.6377ZM69.6377 15V8.25879H70.7803V15H69.6377ZM72.1006 11.6294C72.1006 10.381 72.4476 9.45638 73.1416 8.85547C73.7214 8.35612 74.4281 8.10645 75.2617 8.10645C76.1885 8.10645 76.946 8.41113 77.5342 9.02051C78.1224 9.62565 78.4165 10.4635 78.4165 11.5342C78.4165 12.4017 78.2853 13.0851 78.0229 13.5845C77.7648 14.0796 77.3861 14.4647 76.8867 14.7397C76.3916 15.0148 75.8499 15.1523 75.2617 15.1523C74.318 15.1523 73.5542 14.8498 72.9702 14.2446C72.3905 13.6395 72.1006 12.7677 72.1006 11.6294ZM73.2749 11.6294C73.2749 12.4927 73.4632 13.1401 73.8398 13.5718C74.2165 13.9992 74.6904 14.2129 75.2617 14.2129C75.8288 14.2129 76.3006 13.9971 76.6772 13.5654C77.0539 13.1338 77.2422 12.4757 77.2422 11.5913C77.2422 10.7576 77.0518 10.1271 76.6709 9.69971C76.2943 9.26807 75.8245 9.05225 75.2617 9.05225C74.6904 9.05225 74.2165 9.26595 73.8398 9.69336C73.4632 10.1208 73.2749 10.7661 73.2749 11.6294ZM79.7622 15V8.25879H80.7905V9.21729C81.2856 8.47673 82.0008 8.10645 82.936 8.10645C83.3423 8.10645 83.7147 8.1805 84.0532 8.32861C84.396 8.47249 84.652 8.66292 84.8213 8.8999C84.9906 9.13688 85.109 9.41829 85.1768 9.74414C85.2191 9.95573 85.2402 10.326 85.2402 10.855V15H84.0977V10.8994C84.0977 10.4339 84.0532 10.0869 83.9644 9.8584C83.8755 9.62565 83.7168 9.44157 83.4883 9.30615C83.264 9.1665 82.9995 9.09668 82.6948 9.09668C82.2082 9.09668 81.7871 9.25114 81.4316 9.56006C81.0804 9.86898 80.9048 10.4551 80.9048 11.3184V15H79.7622ZM86.5415 12.9878L87.6714 12.8101C87.7349 13.2629 87.9105 13.6099 88.1982 13.8511C88.4902 14.0923 88.8965 14.2129 89.417 14.2129C89.9417 14.2129 90.3311 14.1071 90.585 13.8955C90.8389 13.6797 90.9658 13.4279 90.9658 13.1401C90.9658 12.882 90.8537 12.6789 90.6294 12.5308C90.4728 12.4292 90.0835 12.3001 89.4614 12.1436C88.6235 11.932 88.0417 11.75 87.7158 11.5977C87.3942 11.4411 87.1488 11.2274 86.9795 10.9565C86.8145 10.6815 86.7319 10.3789 86.7319 10.0488C86.7319 9.74837 86.7996 9.47119 86.9351 9.21729C87.0747 8.95915 87.263 8.74544 87.5 8.57617C87.6777 8.44499 87.9189 8.33496 88.2236 8.24609C88.5326 8.15299 88.8626 8.10645 89.2139 8.10645C89.7428 8.10645 90.2062 8.18262 90.604 8.33496C91.006 8.4873 91.3022 8.69466 91.4927 8.95703C91.6831 9.21517 91.8143 9.56217 91.8862 9.99805L90.769 10.1504C90.7183 9.80339 90.5701 9.53255 90.3247 9.33789C90.0835 9.14323 89.7407 9.0459 89.2964 9.0459C88.7716 9.0459 88.3971 9.13265 88.1729 9.30615C87.9486 9.47965 87.8364 9.68278 87.8364 9.91553C87.8364 10.0636 87.883 10.1969 87.9761 10.3154C88.0692 10.4382 88.2152 10.5397 88.4141 10.6201C88.5283 10.6624 88.8647 10.7598 89.4233 10.9121C90.2316 11.1279 90.7944 11.3057 91.1118 11.4453C91.4334 11.5807 91.6852 11.7796 91.8672 12.042C92.0492 12.3044 92.1401 12.6302 92.1401 13.0195C92.1401 13.4004 92.028 13.7601 91.8037 14.0986C91.5837 14.4329 91.2642 14.6932 90.8452 14.8794C90.4263 15.0614 89.9523 15.1523 89.4233 15.1523C88.5474 15.1523 87.8787 14.9704 87.4175 14.6064C86.9604 14.2425 86.6685 13.703 86.5415 12.9878ZM97.3262 15V5.69434H103.604V6.79248H98.5576V9.67432H102.925V10.7725H98.5576V15H97.3262ZM104.639 11.6294C104.639 10.381 104.986 9.45638 105.68 8.85547C106.259 8.35612 106.966 8.10645 107.8 8.10645C108.727 8.10645 109.484 8.41113 110.072 9.02051C110.66 9.62565 110.955 10.4635 110.955 11.5342C110.955 12.4017 110.823 13.0851 110.561 13.5845C110.303 14.0796 109.924 14.4647 109.425 14.7397C108.93 15.0148 108.388 15.1523 107.8 15.1523C106.856 15.1523 106.092 14.8498 105.508 14.2446C104.929 13.6395 104.639 12.7677 104.639 11.6294ZM105.813 11.6294C105.813 12.4927 106.001 13.1401 106.378 13.5718C106.755 13.9992 107.229 14.2129 107.8 14.2129C108.367 14.2129 108.839 13.9971 109.215 13.5654C109.592 13.1338 109.78 12.4757 109.78 11.5913C109.78 10.7576 109.59 10.1271 109.209 9.69971C108.832 9.26807 108.363 9.05225 107.8 9.05225C107.229 9.05225 106.755 9.26595 106.378 9.69336C106.001 10.1208 105.813 10.7661 105.813 11.6294ZM112.275 15V5.69434H113.417V15H112.275ZM119.568 15V14.1494C119.141 14.818 118.513 15.1523 117.683 15.1523C117.146 15.1523 116.651 15.0042 116.198 14.708C115.749 14.4118 115.4 13.9992 115.15 13.4702C114.905 12.937 114.782 12.3255 114.782 11.6357C114.782 10.9629 114.894 10.3535 115.119 9.80762C115.343 9.25749 115.679 8.83643 116.128 8.54443C116.576 8.25244 117.078 8.10645 117.632 8.10645C118.039 8.10645 118.4 8.1932 118.718 8.3667C119.035 8.53597 119.293 8.75814 119.492 9.0332V5.69434H120.628V15H119.568ZM115.957 11.6357C115.957 12.499 116.139 13.1444 116.502 13.5718C116.866 13.9992 117.296 14.2129 117.791 14.2129C118.29 14.2129 118.714 14.0098 119.061 13.6035C119.412 13.193 119.587 12.5688 119.587 11.731C119.587 10.8084 119.41 10.1313 119.054 9.69971C118.699 9.26807 118.261 9.05225 117.74 9.05225C117.232 9.05225 116.807 9.2596 116.464 9.67432C116.126 10.089 115.957 10.7428 115.957 11.6357ZM127.046 12.8291L128.227 12.9751C128.04 13.6649 127.695 14.2002 127.192 14.5811C126.688 14.9619 126.045 15.1523 125.262 15.1523C124.276 15.1523 123.493 14.8498 122.914 14.2446C122.338 13.6353 122.05 12.7826 122.05 11.6865C122.05 10.5524 122.342 9.6722 122.926 9.0459C123.51 8.4196 124.268 8.10645 125.199 8.10645C126.1 8.10645 126.836 8.41325 127.408 9.02686C127.979 9.64046 128.265 10.5037 128.265 11.6167C128.265 11.6844 128.263 11.786 128.258 11.9214H123.231C123.273 12.6619 123.483 13.229 123.859 13.6226C124.236 14.0161 124.706 14.2129 125.269 14.2129C125.688 14.2129 126.045 14.1029 126.341 13.8828C126.638 13.6628 126.872 13.3115 127.046 12.8291ZM123.294 10.9819H127.059C127.008 10.4149 126.864 9.98958 126.627 9.70605C126.263 9.26595 125.791 9.0459 125.211 9.0459C124.687 9.0459 124.244 9.22152 123.885 9.57275C123.529 9.92399 123.333 10.3937 123.294 10.9819ZM129.655 15V8.25879H130.683V9.28076C130.945 8.80257 131.187 8.4873 131.407 8.33496C131.631 8.18262 131.876 8.10645 132.143 8.10645C132.528 8.10645 132.92 8.22917 133.317 8.47461L132.924 9.53467C132.645 9.36963 132.365 9.28711 132.086 9.28711C131.836 9.28711 131.612 9.36328 131.413 9.51562C131.214 9.66374 131.072 9.87109 130.988 10.1377C130.861 10.5439 130.797 10.9883 130.797 11.4707V15H129.655Z" fill="white"/>
</svg>
