<svg width="156" height="156" viewBox="0 0 156 156" fill="none" xmlns="http://www.w3.org/2000/svg">
<g clip-path="url(#clip0_28685_13)">
<path d="M94.6767 55.5277C97.4673 58.3217 99.5121 61.766 100.811 65.8606C102.11 69.9553 102.327 74.0258 101.461 78.0723C101.461 79.3247 101.052 80.3604 100.234 81.1794C99.4159 81.9983 98.3814 82.4077 97.1305 82.4077C95.8795 82.4077 94.8451 81.9983 94.0271 81.1794C93.2092 80.3604 92.8002 79.3247 92.8002 78.0723C93.8587 74.7966 93.979 71.6895 93.1611 68.751C92.3431 65.8125 90.8757 63.3316 88.7587 61.3084C86.7379 59.1888 84.2359 57.7437 81.2529 56.9729C78.2698 56.2021 75.1905 56.3467 72.015 57.4065C70.764 57.4065 69.7296 56.997 68.9117 56.1781C68.0937 55.3591 67.6848 54.3234 67.6848 53.071C67.6848 51.8185 68.0937 50.7828 68.9117 49.9639C69.7296 49.1449 70.764 48.7355 72.015 48.7355C76.0566 47.8684 80.1463 48.0852 84.2841 49.3858C88.4219 50.6865 91.8861 52.7338 94.6767 55.5277ZM78.7991 38.1858C75.7198 38.1858 72.6405 38.3303 69.5612 38.6194C66.4819 38.9084 63.4507 39.5346 60.4677 40.4981C59.3129 40.8834 58.1582 40.8353 57.0035 40.3535C55.8487 39.8718 55.0308 39.1011 54.5497 38.0413C54.0685 36.9815 54.0685 35.8976 54.5497 34.7897C55.0308 33.6817 55.8006 32.9351 56.8591 32.5497C60.2271 31.4899 63.6913 30.7191 67.2517 30.2374C70.8122 29.7557 74.4207 29.5148 78.0774 29.5148C91.2606 29.5148 103.265 33.1518 114.091 40.4258C124.916 47.6998 133.216 57.2619 138.99 69.1123C139.278 69.6903 139.519 70.2925 139.711 70.9187C139.904 71.5449 140 72.1953 140 72.8697C140 73.5441 139.928 74.1944 139.783 74.8206C139.639 75.4469 139.423 76.049 139.134 76.6271C136.921 81.348 134.274 85.7075 131.195 89.7058C128.116 93.7041 124.555 97.3892 120.514 100.761C119.648 101.532 118.686 101.797 117.627 101.556C116.569 101.315 115.702 100.761 115.029 99.8942C114.355 99.0271 114.091 98.0637 114.235 97.0039C114.379 95.9441 114.885 95.0288 115.751 94.2581C119.215 91.3677 122.342 88.1643 125.133 84.6477C127.923 81.1312 130.137 77.2052 131.773 72.8697C127.057 62.3682 119.936 53.9621 110.41 47.6516C100.883 41.3411 90.3464 38.1858 78.7991 38.1858ZM77.3557 116.225C64.2687 116.225 52.3605 112.563 41.6311 105.241C30.9017 97.9191 22.3614 88.4774 16.0104 76.9161C15.6255 76.2417 15.3609 75.5914 15.2165 74.9652C15.0722 74.3389 15 73.6404 15 72.8697C15 72.0989 15.0962 71.4004 15.2887 70.7742C15.4811 70.148 15.7217 69.4976 16.0104 68.8232C18.3199 64.1987 20.9902 59.8391 24.0214 55.7445C27.0525 51.6499 30.4927 47.9166 34.3418 44.5445L19.1859 29.3703C18.3199 28.5032 17.9109 27.4916 17.959 26.3355C18.0071 25.1794 18.4161 24.1677 19.1859 23.3006C20.052 22.4335 21.0864 22 22.2893 22C23.4921 22 24.5266 22.4335 25.3926 23.3006L128.741 126.774C129.511 127.545 129.896 128.484 129.896 129.592C129.896 130.7 129.511 131.688 128.741 132.555C127.972 133.518 126.985 134 125.782 134C124.579 134 123.545 133.566 122.679 132.699L101.605 112.034C97.6597 113.479 93.6663 114.538 89.6247 115.213C85.5831 115.887 81.4935 116.225 77.3557 116.225ZM40.2598 50.6142C36.3145 53.4082 32.8503 56.6839 29.8672 60.4413C26.8841 64.1987 24.5266 68.3415 22.7945 72.8697C27.7983 83.6602 35.3281 92.1385 45.3839 98.3045C55.4398 104.471 66.4819 107.554 78.5104 107.554C81.301 107.554 84.0916 107.481 86.8822 107.337C89.6728 107.192 92.3191 106.494 94.821 105.241L85.5831 95.9923C84.2359 96.5703 82.8647 96.9557 81.4694 97.1484C80.0741 97.3411 78.7028 97.4374 77.3557 97.4374C70.5235 97.4374 64.7257 95.0529 59.9625 90.2839C55.1992 85.5148 52.8176 79.7101 52.8176 72.8697C52.8176 71.5209 52.9378 70.148 53.1784 68.751C53.419 67.354 53.7798 65.9811 54.261 64.6323L40.2598 50.6142Z" fill="#AAAAAA"/>
</g>
<defs>
<clipPath id="clip0_28685_13">
<rect width="155.294" height="155.294" fill="white"/>
</clipPath>
</defs>
</svg>
