<svg width="230" height="230" viewBox="0 0 230 230" fill="none" xmlns="http://www.w3.org/2000/svg">
<path d="M108.037 172.25C105.023 172.25 102.455 171.196 100.334 169.088C98.2123 166.98 97.1517 164.428 97.1517 161.432V122.988L58.1318 73.2268C55.4523 69.8983 55.0336 66.4034 56.8758 62.742C58.7179 59.0807 61.7044 57.25 65.8353 57.25H163.636C167.767 57.25 170.754 59.0807 172.596 62.742C174.438 66.4034 174.075 69.8983 171.507 73.2268L132.487 122.988V162.764C132.487 165.538 131.566 167.812 129.724 169.587C127.882 171.362 125.565 172.25 122.774 172.25H108.037ZM114.736 119.66L151.746 73.0604H77.8929L114.736 119.66Z" fill="#AAAAAA"/>
</svg>
