<svg width="219" height="218" viewBox="0 0 219 218" fill="none" xmlns="http://www.w3.org/2000/svg">
<rect width="218" height="218" rx="50" fill="#808080" fill-opacity="0.5"/>
<g clip-path="url(#clip0_29017_7)">
<path d="M102.72 171C99.476 171 96.7123 169.854 94.4293 167.563C92.1463 165.272 91.0047 162.498 91.0047 159.242V117.454L49.0087 63.3661C46.1249 59.7482 45.6743 55.9493 47.6569 51.9696C49.6396 47.9899 52.8539 46 57.2998 46H162.56C167.006 46 170.22 47.9899 172.203 51.9696C174.186 55.9493 173.795 59.7482 171.031 63.3661L129.035 117.454V160.689C129.035 163.704 128.044 166.176 126.061 168.106C124.079 170.035 121.586 171 118.582 171H102.72ZM109.93 113.836L149.763 63.1852H70.2771L109.93 113.836Z" fill="#AAAAAA"/>
</g>
<defs>
<clipPath id="clip0_29017_7">
<rect width="155.294" height="155.294" fill="white" transform="translate(31.4453 31)"/>
</clipPath>
</defs>
</svg>
