<svg width="150" height="150" viewBox="0 0 150 150" fill="none" xmlns="http://www.w3.org/2000/svg">
<path fill-rule="evenodd" clip-rule="evenodd" d="M21.3 75.4995C21.3 104.881 45.1184 128.7 74.5 128.7C103.882 128.7 127.7 104.881 127.7 75.4995C127.7 46.1178 103.882 22.2995 74.5 22.2995C45.1184 22.2995 21.3 46.1178 21.3 75.4995ZM74.5 142C37.773 142 8 112.226 8 75.4995C8 38.7729 37.773 8.99951 74.5 8.99951C111.227 8.99951 141 38.7729 141 75.4995C141 112.226 111.227 142 74.5 142ZM49.8477 86.8517C47.2508 84.2549 47.2508 80.0441 49.8477 77.4473L69.7978 57.4973C72.3946 54.9005 76.6054 54.9005 79.2022 57.4973L99.1522 77.4473C101.749 80.0441 101.749 84.2549 99.1522 86.8517C96.5554 89.4487 92.3446 89.4487 89.7478 86.8517L74.5 71.6039L59.2523 86.8517C56.6553 89.4487 52.4447 89.4487 49.8477 86.8517Z" fill="#AAAAAA"/>
</svg>
