<svg width="230" height="230" viewBox="0 0 230 230" fill="none" xmlns="http://www.w3.org/2000/svg">
<rect x="5.55469" y="6" width="218" height="218" rx="50" fill="#808080" fill-opacity="0.5"/>
<path d="M108.037 172.75C105.023 172.75 102.455 171.696 100.334 169.588C98.2123 167.48 97.1517 164.928 97.1517 161.932V123.488L58.1318 73.7268C55.4523 70.3983 55.0336 66.9034 56.8758 63.242C58.7179 59.5807 61.7044 57.75 65.8353 57.75H163.636C167.767 57.75 170.754 59.5807 172.596 63.242C174.438 66.9034 174.075 70.3983 171.507 73.7268L132.487 123.488V163.264C132.487 166.038 131.566 168.312 129.724 170.087C127.882 171.862 125.565 172.75 122.774 172.75H108.037ZM114.736 120.16L151.746 73.5604H77.8929L114.736 120.16Z" fill="#AAAAAA"/>
</svg>
