<svg width="156" height="156" viewBox="0 0 156 156" fill="none" xmlns="http://www.w3.org/2000/svg">
<g clip-path="url(#clip0_28679_2)">
<path d="M71.275 140C68.0307 140 65.267 138.854 62.984 136.563C60.7009 134.272 59.5594 131.498 59.5594 128.242V86.4544L17.5634 32.3661C14.6796 28.7482 14.229 24.9493 16.2116 20.9696C18.1943 16.9899 21.4085 15 25.8545 15H131.115C135.561 15 138.775 16.9899 140.758 20.9696C142.74 24.9493 142.35 28.7482 139.586 32.3661L97.5901 86.4544V129.689C97.5901 132.704 96.5988 135.176 94.6162 137.106C92.6335 139.035 90.1402 140 87.1362 140H71.275ZM78.4847 82.8365L118.318 32.1852H38.8318L78.4847 82.8365Z" fill="#AAAAAA"/>
</g>
<defs>
<clipPath id="clip0_28679_2">
<rect width="155.294" height="155.294" fill="white"/>
</clipPath>
</defs>
</svg>
