<svg width="230" height="230" viewBox="0 0 230 230" fill="none" xmlns="http://www.w3.org/2000/svg">
<path d="M106.137 187C102.382 187 99.1831 185.68 96.5405 183.041C93.8979 180.401 92.5767 177.205 92.5767 173.454V125.315L43.9671 63.0058C40.6291 58.8379 40.1076 54.4616 42.4024 49.877C44.6973 45.2923 48.4178 43 53.5638 43H175.401C180.547 43 184.267 45.2923 186.562 49.877C188.857 54.4616 188.405 58.8379 185.206 63.0058L136.596 125.315V175.122C136.596 178.595 135.449 181.443 133.154 183.666C130.859 185.889 127.973 187 124.496 187H106.137ZM114.482 121.148L160.588 62.7974H68.5848L114.482 121.148Z" fill="#AAAAAA"/>
</svg>
