<svg width="230" height="230" viewBox="0 0 230 230" fill="none" xmlns="http://www.w3.org/2000/svg">
<rect x="5.55469" y="6" width="218" height="218" rx="50" fill="#808080" fill-opacity="0.5"/>
<path d="M107.263 181C103.789 181 100.829 179.781 98.3844 177.343C95.9396 174.905 94.7172 171.954 94.7172 168.489V124.027L49.7451 66.4776C46.6569 62.6281 46.1743 58.5861 48.2975 54.3517C50.4206 50.1172 53.8627 48 58.6237 48H171.343C176.104 48 179.547 50.1172 181.67 54.3517C183.793 58.5861 183.375 62.6281 180.415 66.4776L135.443 124.027V170.029C135.443 173.237 134.381 175.867 132.258 177.92C130.135 179.973 127.465 181 124.248 181H107.263ZM114.984 120.178L157.64 66.2851H72.5207L114.984 120.178Z" fill="#AAAAAA"/>
</svg>
