<svg width="218" height="218" viewBox="0 0 218 218" fill="none" xmlns="http://www.w3.org/2000/svg">
<g clip-path="url(#clip0_29017_33)">
<path d="M102.275 171C99.0307 171 96.267 169.854 93.984 167.563C91.7009 165.272 90.5594 162.498 90.5594 159.242V117.454L48.5634 63.3661C45.6796 59.7482 45.229 55.9493 47.2116 51.9696C49.1943 47.9899 52.4085 46 56.8545 46H162.115C166.561 46 169.775 47.9899 171.758 51.9696C173.74 55.9493 173.35 59.7482 170.586 63.3661L128.59 117.454V160.689C128.59 163.704 127.599 166.176 125.616 168.106C123.634 170.035 121.14 171 118.136 171H102.275ZM109.485 113.836L149.318 63.1852H69.8318L109.485 113.836Z" fill="#AAAAAA"/>
</g>
<defs>
<clipPath id="clip0_29017_33">
<rect width="155.294" height="155.294" fill="white" transform="translate(31 31)"/>
</clipPath>
</defs>
</svg>
