<?xml version="1.0" encoding="utf-8"?>
<!-- Generator: Adobe Illustrator 28.3.0, SVG Export Plug-In . SVG Version: 6.00 Build 0)  -->
<svg version="1.1" id="Слой_1" xmlns="http://www.w3.org/2000/svg" xmlns:xlink="http://www.w3.org/1999/xlink" x="0px" y="0px"
	 viewBox="0 0 48 48" style="enable-background:new 0 0 48 48;" xml:space="preserve">
<style type="text/css">
	.st0{fill:none;}
	.st1{fill:#FFFFFF;stroke:#000000;stroke-miterlimit:10;}
</style>
<g>
	<path class="st0" d="M0,0h48v48H0V0z"/>
</g>
<g>
	<path class="st1" d="M40,18L40,18c0-1.1-0.9-2-2-2h-6v-6c0-1.1-0.9-2-2-2l0,0c-1.1,0-2,0.9-2,2v6h-8v-6c0-1.1-0.9-2-2-2l0,0
		c-1.1,0-2,0.9-2,2v6h-6c-1.1,0-2,0.9-2,2l0,0c0,1.1,0.9,2,2,2h6v8h-6c-1.1,0-2,0.9-2,2l0,0c0,1.1,0.9,2,2,2h6v6c0,1.1,0.9,2,2,2
		l0,0c1.1,0,2-0.9,2-2v-6h8v6c0,1.1,0.9,2,2,2l0,0c1.1,0,2-0.9,2-2v-6h6c1.1,0,2-0.9,2-2l0,0c0-1.1-0.9-2-2-2h-6v-8h6
		C39.1,20,40,19.1,40,18z M28,28h-8v-8h8V28z"/>
</g>
</svg>
