<?xml version="1.0" encoding="utf-8"?>
<!-- Generator: Adobe Illustrator 28.3.0, SVG Export Plug-In . SVG Version: 6.00 Build 0)  -->
<svg version="1.1" id="Слой_1" xmlns="http://www.w3.org/2000/svg" xmlns:xlink="http://www.w3.org/1999/xlink" x="0px" y="0px"
	 viewBox="0 0 48 48" style="enable-background:new 0 0 48 48;" xml:space="preserve">
<style type="text/css">
	.st0{fill:none;}
	.st1{fill:#FFFFFF;stroke:#000000;stroke-miterlimit:10;}
</style>
<g>
	<path class="st0" d="M0,0h48v48H0V0z"/>
</g>
<g>
	<g>
		<path class="st1" d="M44,12L44,12c0-1.1-0.9-2-2-2h-4V6c0-1.1-0.9-2-2-2l0,0c-1.1,0-2,0.9-2,2v4h-8V6c0-1.1-0.9-2-2-2l0,0
			c-1.1,0-2,0.9-2,2v4h-8V6c0-1.1-0.9-2-2-2l0,0c-1.1,0-2,0.9-2,2v4H6c-1.1,0-2,0.9-2,2l0,0c0,1.1,0.9,2,2,2h4v8H6c-1.1,0-2,0.9-2,2
			l0,0c0,1.1,0.9,2,2,2h4v8H6c-1.1,0-2,0.9-2,2l0,0c0,1.1,0.9,2,2,2h4v4c0,1.1,0.9,2,2,2l0,0c1.1,0,2-0.9,2-2v-4h8v4
			c0,1.1,0.9,2,2,2l0,0c1.1,0,2-0.9,2-2v-4h8v4c0,1.1,0.9,2,2,2l0,0c1.1,0,2-0.9,2-2v-4h4c1.1,0,2-0.9,2-2l0,0c0-1.1-0.9-2-2-2h-4
			v-8h4c1.1,0,2-0.9,2-2l0,0c0-1.1-0.9-2-2-2h-4v-8h4C43.1,14,44,13.1,44,12z M14,14h8v8h-8V14z M14,34v-8h8v8H14z M34,34h-8v-8h8
			V34z M34,22h-8v-8h8V22z"/>
	</g>
</g>
</svg>
