<svg width="512" height="512" viewBox="0 0 512 512" fill="none" xmlns="http://www.w3.org/2000/svg">
<g filter="url(#filter0_d_28692_8)">
<rect x="50" y="50" width="412" height="412" rx="92" fill="url(#paint0_linear_28692_8)"/>
</g>
<path d="M242.75 319C230.75 319 220.75 317 212.75 313C204.917 309.167 198.583 304 193.75 297.5C189.083 291 185.75 283.75 183.75 275.75C181.75 267.583 180.75 259.25 180.75 250.75C180.75 236.417 183.5 222.333 189 208.5C194.5 194.667 202 181.583 211.5 169.25C221 156.75 231.833 145.333 244 135C256.167 124.5 268.917 115.417 282.25 107.75C295.583 100.083 308.833 94.1667 322 90C335.167 85.6667 347.5 83.5 359 83.5C365 83.5 370.75 84.6667 376.25 87C381.75 89.1667 386.25 92.8333 389.75 98C393.25 103 395 109.75 395 118.25C395 128.75 392.917 139.5 388.75 150.5C384.75 161.5 379.25 172.25 372.25 182.75C365.25 193.25 357.333 203.167 348.5 212.5C339.833 221.667 330.833 229.75 321.5 236.75C312.167 243.75 303.083 249.25 294.25 253.25C285.583 257.25 277.667 259.25 270.5 259.25C264.5 259.25 259.25 257 254.75 252.5C250.25 248 248 241.25 248 232.25C248 224.583 249.583 216.583 252.75 208.25C255.917 199.917 260.167 191.667 265.5 183.5C270.833 175.333 276.75 167.667 283.25 160.5C289.917 153.333 296.583 146.917 303.25 141.25C310.083 135.583 316.5 131.167 322.5 128C328.5 124.833 333.583 123.25 337.75 123.25C341.917 123.25 345.167 124.333 347.5 126.5C350 128.667 351.25 131.667 351.25 135.5C351.25 142.5 348.75 150.167 343.75 158.5C338.75 166.833 331.833 175.333 323 184C314.167 192.5 303.833 200.667 292 208.5C280.333 216.333 267.667 223.333 254 229.5C240.5 235.667 226.583 240.583 212.25 244.25C197.917 247.917 183.667 249.75 169.5 249.75C158.333 249.75 147.75 248.5 137.75 246C127.75 243.5 119 239.917 111.5 235.25C103.833 230.583 97.8333 225.083 93.5 218.75C89.1667 212.25 87 205.083 87 197.25C87 186.75 90 177.25 96 168.75C101.833 160.083 110.167 152.667 121 146.5C131.833 140.333 144.5 135.583 159 132.25C173.667 128.917 189.583 127.25 206.75 127.25C225.417 127.25 243.5 129.583 261 134.25C278.5 138.917 294.75 145.333 309.75 153.5C324.917 161.5 338.083 170.667 349.25 181L348.25 182.5C337.083 172.167 324 163 309 155C294 147 277.833 140.667 260.5 136C243.167 131.333 225.25 129 206.75 129C190.417 129 175.083 130.667 160.75 134C146.583 137.167 134.083 141.75 123.25 147.75C112.417 153.75 104 161 98 169.5C91.8333 177.833 88.75 187.167 88.75 197.5C88.75 207.667 92.5 216.583 100 224.25C107.333 231.75 117.167 237.583 129.5 241.75C141.833 245.917 155.333 248 170 248C183.667 248 197.583 246.25 211.75 242.75C225.917 239.083 239.667 234.25 253 228.25C266.5 222.083 279 215.167 290.5 207.5C302.167 199.667 312.417 191.583 321.25 183.25C330.083 174.75 337 166.417 342 158.25C347 150.083 349.5 142.5 349.5 135.5C349.5 132.5 348.5 130 346.5 128C344.667 125.833 341.833 124.75 338 124.75C334 124.75 329.083 126.333 323.25 129.5C317.417 132.667 311.167 137 304.5 142.5C297.833 147.833 291.25 154.083 284.75 161.25C278.25 168.25 272.333 175.75 267 183.75C261.667 191.75 257.417 199.75 254.25 207.75C251.083 215.75 249.5 223.5 249.5 231C249.5 240 251.583 246.667 255.75 251C259.917 255.333 264.833 257.5 270.5 257.5C277.5 257.5 285.333 255.5 294 251.5C302.833 247.5 311.833 242 321 235C330.167 228 339 220 347.5 211C356.167 201.833 363.917 192.083 370.75 181.75C377.75 171.25 383.25 160.583 387.25 149.75C391.25 138.917 393.25 128.417 393.25 118.25C393.25 110.083 391.667 103.667 388.5 99C385.5 94.3333 381.5 91 376.5 89C371.667 87 366.417 86 360.75 86C351.25 86 340.583 88.4167 328.75 93.25C316.917 98.0833 304.667 104.833 292 113.5C279.5 122 267.333 132 255.5 143.5C243.833 154.833 233.25 167.167 223.75 180.5C214.417 193.667 206.917 207.333 201.25 221.5C195.75 235.667 193 249.833 193 264C193 274.5 194.667 283.75 198 291.75C201.333 299.75 206.667 306 214 310.5C221.333 315 230.917 317.25 242.75 317.25C251.083 317.25 260.167 315.667 270 312.5C279.833 309.333 289.833 304.833 300 299C310.333 293.333 320.417 286.583 330.25 278.75C340.25 270.75 349.417 262.083 357.75 252.75L359.75 250.5H361.75L359.75 252.75C351.083 262.417 341.75 271.333 331.75 279.5C321.75 287.5 311.5 294.417 301 300.25C290.667 306.25 280.5 310.833 270.5 314C260.5 317.333 251.25 319 242.75 319Z" fill="#7BA9FF"/>
<path d="M115.172 347.776C108.558 347.776 105.252 354.155 105.252 366.912V371.968C105.252 378.027 106.126 382.784 107.876 386.24C109.625 389.653 112.206 391.36 115.62 391.36C120.313 391.36 124.622 386.795 128.548 377.664H129.7L129.252 391.936H128.548C128.292 391.467 128.057 391.147 127.844 390.976C127.63 390.763 127.31 390.656 126.884 390.656C126.5 390.656 124.964 390.997 122.276 391.68C119.588 392.32 116.857 392.64 114.084 392.64C107.129 392.64 101.732 390.763 97.8918 387.008C94.0944 383.253 92.1958 377.621 92.1958 370.112C92.1958 362.56 94.1798 356.736 98.1478 352.64C102.158 348.544 107.534 346.496 114.276 346.496C116.878 346.496 119.417 346.837 121.892 347.52C124.409 348.16 125.881 348.48 126.308 348.48C126.734 348.48 127.054 348.395 127.268 348.224C127.481 348.011 127.716 347.669 127.972 347.2H128.676L129.188 361.088H128.036C126.116 356.779 124.132 353.493 122.084 351.232C120.078 348.928 117.774 347.776 115.172 347.776ZM154.446 379.392V373.952C154.446 369.813 154.212 366.805 153.742 364.928C153.316 363.008 152.292 362.048 150.67 362.048C149.732 362.048 148.964 362.325 148.366 362.88C147.812 363.392 147.406 364.267 147.15 365.504C146.766 367.424 146.574 370.347 146.574 374.272V379.264C146.574 383.915 146.702 386.709 146.958 387.648C147.257 388.587 147.556 389.355 147.854 389.952C148.324 390.976 149.241 391.488 150.606 391.488C152.27 391.488 153.358 390.528 153.87 388.608C154.254 387.243 154.446 384.171 154.446 379.392ZM150.478 392.64C145.145 392.64 141.113 391.275 138.382 388.544C135.652 385.813 134.286 381.909 134.286 376.832C134.286 371.712 135.737 367.787 138.638 365.056C141.582 362.283 145.7 360.896 150.99 360.896C156.281 360.896 160.228 362.176 162.83 364.736C165.433 367.253 166.734 371.115 166.734 376.32C166.734 387.2 161.316 392.64 150.478 392.64ZM168.268 344H183.948V390.848H187.532V392H168.524V390.848H172.044V345.152H168.268V344ZM188.518 344H204.198V390.848H207.782V392H188.774V390.848H192.294V345.152H188.518V344ZM225.856 392.64C220.352 392.64 216.214 391.232 213.44 388.416C210.71 385.557 209.344 381.611 209.344 376.576C209.344 371.499 210.88 367.616 213.952 364.928C217.067 362.24 221.014 360.896 225.792 360.896C235.478 360.896 240.128 365.76 239.744 375.488H221.696V377.984C221.696 382.165 222.23 385.323 223.296 387.456C224.363 389.589 226.219 390.656 228.864 390.656C233.814 390.656 237.056 388.011 238.592 382.72L239.744 382.912C238.934 385.984 237.462 388.373 235.328 390.08C233.238 391.787 230.08 392.64 225.856 392.64ZM221.76 374.208H228.352V371.072C228.352 367.616 228.139 365.269 227.712 364.032C227.328 362.752 226.518 362.112 225.28 362.112C224.086 362.112 223.19 362.795 222.592 364.16C222.038 365.483 221.76 367.787 221.76 371.072V374.208ZM259.944 362.048C258.067 362.048 256.723 363.072 255.912 365.12C255.102 367.168 254.696 370.56 254.696 375.296V378.624C254.696 382.848 255.166 385.877 256.104 387.712C257.043 389.547 258.771 390.464 261.288 390.464C263.806 390.464 265.811 389.611 267.304 387.904C268.798 386.197 269.758 384.256 270.184 382.08L271.336 382.208C270.526 385.877 269.032 388.523 266.856 390.144C264.638 391.808 261.587 392.64 257.704 392.64C252.755 392.64 248.958 391.317 246.312 388.672C243.667 385.984 242.344 382.08 242.344 376.96C242.344 371.797 243.838 367.829 246.824 365.056C249.854 362.283 254.056 360.896 259.432 360.896C263.23 360.896 266.131 361.643 268.136 363.136C270.142 364.587 271.144 366.421 271.144 368.64C271.144 370.859 270.654 372.48 269.672 373.504C268.734 374.528 267.411 375.04 265.704 375.04C264.04 375.04 262.696 374.592 261.672 373.696C260.648 372.8 260.136 371.477 260.136 369.728C260.136 368.96 260.243 368.192 260.456 367.424H262.568C262.867 366.571 263.016 365.803 263.016 365.12C263.016 363.072 261.992 362.048 259.944 362.048ZM276.162 382.848V362.688H272.642V361.536H276.162V353.28L288.066 350.336V361.536H296.386V362.688H288.066V384.256C288.066 386.261 288.258 387.733 288.642 388.672C289.068 389.611 289.922 390.08 291.202 390.08C292.482 390.08 293.591 389.44 294.53 388.16C295.511 386.88 296.151 385.131 296.45 382.912L297.538 383.04C297.196 385.984 296.258 388.331 294.722 390.08C293.186 391.787 290.647 392.64 287.106 392.64C283.564 392.64 280.855 391.936 278.978 390.528C277.1 389.12 276.162 386.56 276.162 382.848ZM307.557 357.12C305.296 357.12 303.675 356.544 302.693 355.392C301.755 354.24 301.285 352.811 301.285 351.104C301.285 349.397 301.797 347.989 302.821 346.88C303.888 345.771 305.488 345.216 307.621 345.216C309.755 345.216 311.376 345.728 312.485 346.752C313.595 347.733 314.149 349.163 314.149 351.04C314.149 352.875 313.616 354.347 312.549 355.456C311.483 356.565 309.819 357.12 307.557 357.12ZM297.893 361.536H313.573V390.848H317.157V392H298.149V390.848H301.669V362.688H297.893V361.536ZM339.134 379.392V373.952C339.134 369.813 338.899 366.805 338.43 364.928C338.003 363.008 336.979 362.048 335.358 362.048C334.419 362.048 333.651 362.325 333.054 362.88C332.499 363.392 332.094 364.267 331.838 365.504C331.454 367.424 331.262 370.347 331.262 374.272V379.264C331.262 383.915 331.39 386.709 331.646 387.648C331.944 388.587 332.243 389.355 332.542 389.952C333.011 390.976 333.928 391.488 335.294 391.488C336.958 391.488 338.046 390.528 338.558 388.608C338.942 387.243 339.134 384.171 339.134 379.392ZM335.166 392.64C329.832 392.64 325.8 391.275 323.07 388.544C320.339 385.813 318.974 381.909 318.974 376.832C318.974 371.712 320.424 367.787 323.326 365.056C326.27 362.283 330.387 360.896 335.678 360.896C340.968 360.896 344.915 362.176 347.518 364.736C350.12 367.253 351.422 371.115 351.422 376.32C351.422 387.2 346.003 392.64 335.166 392.64ZM353.34 361.536H368.764V367.424C369.446 365.461 370.492 363.883 371.9 362.688C373.308 361.493 375.441 360.896 378.3 360.896C384.913 360.896 388.22 364.459 388.22 371.584V390.848H391.804V392H373.692V390.848H376.316V370.048C376.316 367.488 376.145 365.845 375.804 365.12C375.462 364.352 374.844 363.968 373.948 363.968C372.582 363.968 371.366 364.864 370.3 366.656C369.276 368.448 368.764 370.624 368.764 373.184V390.848H371.516V392H353.34V390.848H356.86V362.688H353.34V361.536ZM394.121 392.64V381.184H394.889C395.999 384.896 397.492 387.499 399.369 388.992C401.247 390.485 403.593 391.232 406.409 391.232C410.761 391.232 412.937 389.845 412.937 387.072C412.937 385.877 412.404 384.981 411.337 384.384C409.673 383.445 407.54 382.72 404.937 382.208C402.036 381.44 399.604 380.416 397.641 379.136C395.295 377.6 394.121 375.168 394.121 371.84C394.121 368.512 395.145 365.867 397.193 363.904C399.241 361.899 401.972 360.896 405.385 360.896C407.476 360.896 409.631 361.387 411.849 362.368C412.66 362.709 413.279 362.88 413.705 362.88C414.132 362.88 414.495 362.731 414.793 362.432C415.092 362.133 415.455 361.579 415.881 360.768H416.585V370.56H415.817C413.641 365.013 410.271 362.24 405.705 362.24C403.7 362.24 402.207 362.603 401.225 363.328C400.244 364.011 399.753 364.885 399.753 365.952C399.753 366.592 399.903 367.104 400.201 367.488C400.5 367.829 400.735 368.085 400.905 368.256C401.076 368.427 401.353 368.619 401.737 368.832C402.121 369.003 402.441 369.152 402.697 369.28C402.953 369.365 403.337 369.493 403.849 369.664C404.404 369.835 404.809 369.941 405.065 369.984C407.967 370.709 410.057 371.349 411.337 371.904C412.617 372.416 413.833 373.056 414.985 373.824C417.332 375.445 418.505 378.069 418.505 381.696C418.505 385.28 417.439 388.011 415.305 389.888C413.172 391.723 410.249 392.64 406.537 392.64C403.892 392.64 401.332 392.021 398.857 390.784C398.345 390.443 397.94 390.272 397.641 390.272C396.703 390.272 395.785 391.061 394.889 392.64H394.121Z" fill="#7BA9FF"/>
<defs>
<filter id="filter0_d_28692_8" x="40" y="44" width="432" height="432" filterUnits="userSpaceOnUse" color-interpolation-filters="sRGB">
<feFlood flood-opacity="0" result="BackgroundImageFix"/>
<feColorMatrix in="SourceAlpha" type="matrix" values="0 0 0 0 0 0 0 0 0 0 0 0 0 0 0 0 0 0 127 0" result="hardAlpha"/>
<feOffset dy="4"/>
<feGaussianBlur stdDeviation="5"/>
<feComposite in2="hardAlpha" operator="out"/>
<feColorMatrix type="matrix" values="0 0 0 0 0 0 0 0 0 0 0 0 0 0 0 0 0 0 0.25 0"/>
<feBlend mode="normal" in2="BackgroundImageFix" result="effect1_dropShadow_28692_8"/>
<feBlend mode="normal" in="SourceGraphic" in2="effect1_dropShadow_28692_8" result="shape"/>
</filter>
<linearGradient id="paint0_linear_28692_8" x1="256" y1="50" x2="256" y2="462" gradientUnits="userSpaceOnUse">
<stop stop-color="#0A1B34"/>
<stop offset="1" stop-color="#111822"/>
</linearGradient>
</defs>
</svg>
