<svg width="512" height="512" viewBox="0 0 512 512" fill="none" xmlns="http://www.w3.org/2000/svg">
<g filter="url(#filter0_d_28627_58)">
<rect x="50" y="50" width="412" height="412" rx="92" fill="#0D1927"/>
</g>
<g clip-path="url(#clip0_28627_58)">
<path d="M430.997 257C430.997 353.643 352.661 432 256.003 432C159.349 432 81.0027 353.643 81.0027 257C81.0027 160.346 159.349 82 256.003 82C352.661 82 430.997 160.346 430.997 257Z" fill="#5D9CEC"/>
<path d="M277.878 169.5H104.416C101.681 174.221 99.1603 179.092 96.875 184.08H277.878C281.905 184.08 285.173 180.811 285.173 176.784C285.173 172.757 281.905 169.5 277.878 169.5Z" fill="#4A89DC"/>
<path d="M398.164 359.08H263.298C259.271 359.08 256.003 362.348 256.003 366.375C256.003 370.402 259.271 373.659 263.298 373.659H386.436C390.601 369.024 394.51 364.153 398.164 359.08Z" fill="#4A89DC"/>
<path d="M183.082 315.33H90.9573C92.7196 320.297 94.6958 325.167 96.8745 329.909H183.082C187.109 329.909 190.377 326.651 190.377 322.625C190.377 318.599 187.11 315.33 183.082 315.33Z" fill="#4A89DC"/>
<path d="M328.923 264.284C328.923 268.311 332.181 271.58 336.207 271.58H430.399C430.805 266.773 430.997 261.913 430.997 257H336.207C332.18 257 328.923 260.258 328.923 264.284Z" fill="#4A89DC"/>
<path d="M132.048 249.705C132.048 245.678 128.78 242.409 124.753 242.409H81.6008C81.2057 247.227 81.0027 252.086 81.0027 257H124.753C128.78 257 132.048 253.732 132.048 249.705Z" fill="#4A89DC"/>
<path d="M204.957 125.75C208.985 125.75 212.253 122.482 212.253 118.455C212.253 114.428 208.985 111.159 204.957 111.159H159.242C152.577 115.592 146.233 120.473 140.251 125.75H204.957Z" fill="#4A89DC"/>
<path d="M314.332 264.284C314.332 276.376 294.753 286.159 270.582 286.159C246.421 286.159 226.832 276.376 226.832 264.284C226.832 252.204 246.421 242.409 270.582 242.409C294.753 242.409 314.332 252.204 314.332 264.284Z" fill="#4A89DC"/>
</g>
<path d="M198.855 336.686C153.523 336.686 125.057 306.393 125.057 256.441V256.334C125.057 206.383 153.631 176.305 198.855 176.305C236.453 176.305 263.416 200.045 266.424 232.916L266.531 233.883H234.949L234.52 232.057C230.867 214.977 218.191 203.805 198.855 203.805C174.041 203.805 158.143 223.785 158.143 256.227V256.334C158.143 288.99 174.041 309.186 198.855 309.186C217.547 309.186 230.652 298.443 234.842 280.074L235.057 279H266.639L266.531 280.182C263.523 313.16 236.346 336.686 198.855 336.686ZM340.214 336.363C308.31 336.363 290.585 321.646 288.114 299.84L288.007 298.873H318.622L318.837 299.84C320.878 308.863 327.646 314.127 340.214 314.127C352.03 314.127 359.228 309.508 359.228 302.096V301.988C359.228 295.865 355.361 292.32 344.081 289.85L324.53 285.768C302.187 281.041 290.907 269.869 290.907 252.682V252.574C290.907 230.66 309.814 216.48 339.14 216.48C369.755 216.48 386.835 232.701 387.587 252.896V253.971H358.691L358.583 253.111C357.509 244.84 350.741 238.609 339.14 238.609C328.29 238.609 321.523 243.443 321.523 250.855V250.963C321.523 256.871 325.497 260.738 337.099 263.209L356.65 267.398C380.712 272.447 390.595 281.9 390.595 298.873V298.98C390.595 321.539 369.863 336.363 340.214 336.363Z" fill="#0D1927"/>
<defs>
<filter id="filter0_d_28627_58" x="40" y="44" width="432" height="432" filterUnits="userSpaceOnUse" color-interpolation-filters="sRGB">
<feFlood flood-opacity="0" result="BackgroundImageFix"/>
<feColorMatrix in="SourceAlpha" type="matrix" values="0 0 0 0 0 0 0 0 0 0 0 0 0 0 0 0 0 0 127 0" result="hardAlpha"/>
<feOffset dy="4"/>
<feGaussianBlur stdDeviation="5"/>
<feComposite in2="hardAlpha" operator="out"/>
<feColorMatrix type="matrix" values="0 0 0 0 0 0 0 0 0 0 0 0 0 0 0 0 0 0 0.25 0"/>
<feBlend mode="normal" in2="BackgroundImageFix" result="effect1_dropShadow_28627_58"/>
<feBlend mode="normal" in="SourceGraphic" in2="effect1_dropShadow_28627_58" result="shape"/>
</filter>
<clipPath id="clip0_28627_58">
<rect width="350" height="350" fill="white" transform="translate(81 82)"/>
</clipPath>
</defs>
</svg>
