<svg width="512" height="512" viewBox="0 0 512 512" fill="none" xmlns="http://www.w3.org/2000/svg">
<g filter="url(#filter0_d_28585_4)">
<rect x="50" y="50" width="412" height="412" rx="92" fill="#11214B"/>
</g>
<path d="M194.855 336.686C149.523 336.686 121.057 306.393 121.057 256.441V256.334C121.057 206.383 149.631 176.305 194.855 176.305C232.453 176.305 259.416 200.045 262.424 232.916L262.531 233.883H230.949L230.52 232.057C226.867 214.977 214.191 203.805 194.855 203.805C170.041 203.805 154.143 223.785 154.143 256.227V256.334C154.143 288.99 170.041 309.186 194.855 309.186C213.547 309.186 226.652 298.443 230.842 280.074L231.057 279H262.639L262.531 280.182C259.523 313.16 232.346 336.686 194.855 336.686ZM336.214 336.363C304.31 336.363 286.585 321.646 284.114 299.84L284.007 298.873H314.622L314.837 299.84C316.878 308.863 323.646 314.127 336.214 314.127C348.03 314.127 355.228 309.508 355.228 302.096V301.988C355.228 295.865 351.361 292.32 340.081 289.85L320.53 285.768C298.187 281.041 286.907 269.869 286.907 252.682V252.574C286.907 230.66 305.814 216.48 335.14 216.48C365.755 216.48 382.835 232.701 383.587 252.896V253.971H354.691L354.583 253.111C353.509 244.84 346.741 238.609 335.14 238.609C324.29 238.609 317.523 243.443 317.523 250.855V250.963C317.523 256.871 321.497 260.738 333.099 263.209L352.65 267.398C376.712 272.447 386.595 281.9 386.595 298.873V298.98C386.595 321.539 365.863 336.363 336.214 336.363Z" fill="#2E59CB"/>
<defs>
<filter id="filter0_d_28585_4" x="40" y="44" width="432" height="432" filterUnits="userSpaceOnUse" color-interpolation-filters="sRGB">
<feFlood flood-opacity="0" result="BackgroundImageFix"/>
<feColorMatrix in="SourceAlpha" type="matrix" values="0 0 0 0 0 0 0 0 0 0 0 0 0 0 0 0 0 0 127 0" result="hardAlpha"/>
<feOffset dy="4"/>
<feGaussianBlur stdDeviation="5"/>
<feComposite in2="hardAlpha" operator="out"/>
<feColorMatrix type="matrix" values="0 0 0 0 0 0 0 0 0 0 0 0 0 0 0 0 0 0 0.25 0"/>
<feBlend mode="normal" in2="BackgroundImageFix" result="effect1_dropShadow_28585_4"/>
<feBlend mode="normal" in="SourceGraphic" in2="effect1_dropShadow_28585_4" result="shape"/>
</filter>
</defs>
</svg>
