<svg width="512" height="512" viewBox="0 0 512 512" fill="none" xmlns="http://www.w3.org/2000/svg">
<g filter="url(#filter0_d_28693_20)">
<rect x="50" y="50" width="412" height="412" rx="92" fill="url(#paint0_linear_28693_20)"/>
</g>
<path d="M115.172 347.776C108.558 347.776 105.252 354.155 105.252 366.912V371.968C105.252 378.027 106.126 382.784 107.876 386.24C109.625 389.653 112.206 391.36 115.62 391.36C120.313 391.36 124.622 386.795 128.548 377.664H129.7L129.252 391.936H128.548C128.292 391.467 128.057 391.147 127.844 390.976C127.63 390.763 127.31 390.656 126.884 390.656C126.5 390.656 124.964 390.997 122.276 391.68C119.588 392.32 116.857 392.64 114.084 392.64C107.129 392.64 101.732 390.763 97.8918 387.008C94.0944 383.253 92.1958 377.621 92.1958 370.112C92.1958 362.56 94.1798 356.736 98.1478 352.64C102.158 348.544 107.534 346.496 114.276 346.496C116.878 346.496 119.417 346.837 121.892 347.52C124.409 348.16 125.881 348.48 126.308 348.48C126.734 348.48 127.054 348.395 127.268 348.224C127.481 348.011 127.716 347.669 127.972 347.2H128.676L129.188 361.088H128.036C126.116 356.779 124.132 353.493 122.084 351.232C120.078 348.928 117.774 347.776 115.172 347.776ZM154.446 379.392V373.952C154.446 369.813 154.212 366.805 153.742 364.928C153.316 363.008 152.292 362.048 150.67 362.048C149.732 362.048 148.964 362.325 148.366 362.88C147.812 363.392 147.406 364.267 147.15 365.504C146.766 367.424 146.574 370.347 146.574 374.272V379.264C146.574 383.915 146.702 386.709 146.958 387.648C147.257 388.587 147.556 389.355 147.854 389.952C148.324 390.976 149.241 391.488 150.606 391.488C152.27 391.488 153.358 390.528 153.87 388.608C154.254 387.243 154.446 384.171 154.446 379.392ZM150.478 392.64C145.145 392.64 141.113 391.275 138.382 388.544C135.652 385.813 134.286 381.909 134.286 376.832C134.286 371.712 135.737 367.787 138.638 365.056C141.582 362.283 145.7 360.896 150.99 360.896C156.281 360.896 160.228 362.176 162.83 364.736C165.433 367.253 166.734 371.115 166.734 376.32C166.734 387.2 161.316 392.64 150.478 392.64ZM168.268 344H183.948V390.848H187.532V392H168.524V390.848H172.044V345.152H168.268V344ZM188.518 344H204.198V390.848H207.782V392H188.774V390.848H192.294V345.152H188.518V344ZM225.856 392.64C220.352 392.64 216.214 391.232 213.44 388.416C210.71 385.557 209.344 381.611 209.344 376.576C209.344 371.499 210.88 367.616 213.952 364.928C217.067 362.24 221.014 360.896 225.792 360.896C235.478 360.896 240.128 365.76 239.744 375.488H221.696V377.984C221.696 382.165 222.23 385.323 223.296 387.456C224.363 389.589 226.219 390.656 228.864 390.656C233.814 390.656 237.056 388.011 238.592 382.72L239.744 382.912C238.934 385.984 237.462 388.373 235.328 390.08C233.238 391.787 230.08 392.64 225.856 392.64ZM221.76 374.208H228.352V371.072C228.352 367.616 228.139 365.269 227.712 364.032C227.328 362.752 226.518 362.112 225.28 362.112C224.086 362.112 223.19 362.795 222.592 364.16C222.038 365.483 221.76 367.787 221.76 371.072V374.208ZM259.944 362.048C258.067 362.048 256.723 363.072 255.912 365.12C255.102 367.168 254.696 370.56 254.696 375.296V378.624C254.696 382.848 255.166 385.877 256.104 387.712C257.043 389.547 258.771 390.464 261.288 390.464C263.806 390.464 265.811 389.611 267.304 387.904C268.798 386.197 269.758 384.256 270.184 382.08L271.336 382.208C270.526 385.877 269.032 388.523 266.856 390.144C264.638 391.808 261.587 392.64 257.704 392.64C252.755 392.64 248.958 391.317 246.312 388.672C243.667 385.984 242.344 382.08 242.344 376.96C242.344 371.797 243.838 367.829 246.824 365.056C249.854 362.283 254.056 360.896 259.432 360.896C263.23 360.896 266.131 361.643 268.136 363.136C270.142 364.587 271.144 366.421 271.144 368.64C271.144 370.859 270.654 372.48 269.672 373.504C268.734 374.528 267.411 375.04 265.704 375.04C264.04 375.04 262.696 374.592 261.672 373.696C260.648 372.8 260.136 371.477 260.136 369.728C260.136 368.96 260.243 368.192 260.456 367.424H262.568C262.867 366.571 263.016 365.803 263.016 365.12C263.016 363.072 261.992 362.048 259.944 362.048ZM276.162 382.848V362.688H272.642V361.536H276.162V353.28L288.066 350.336V361.536H296.386V362.688H288.066V384.256C288.066 386.261 288.258 387.733 288.642 388.672C289.068 389.611 289.922 390.08 291.202 390.08C292.482 390.08 293.591 389.44 294.53 388.16C295.511 386.88 296.151 385.131 296.45 382.912L297.538 383.04C297.196 385.984 296.258 388.331 294.722 390.08C293.186 391.787 290.647 392.64 287.106 392.64C283.564 392.64 280.855 391.936 278.978 390.528C277.1 389.12 276.162 386.56 276.162 382.848ZM307.557 357.12C305.296 357.12 303.675 356.544 302.693 355.392C301.755 354.24 301.285 352.811 301.285 351.104C301.285 349.397 301.797 347.989 302.821 346.88C303.888 345.771 305.488 345.216 307.621 345.216C309.755 345.216 311.376 345.728 312.485 346.752C313.595 347.733 314.149 349.163 314.149 351.04C314.149 352.875 313.616 354.347 312.549 355.456C311.483 356.565 309.819 357.12 307.557 357.12ZM297.893 361.536H313.573V390.848H317.157V392H298.149V390.848H301.669V362.688H297.893V361.536ZM339.134 379.392V373.952C339.134 369.813 338.899 366.805 338.43 364.928C338.003 363.008 336.979 362.048 335.358 362.048C334.419 362.048 333.651 362.325 333.054 362.88C332.499 363.392 332.094 364.267 331.838 365.504C331.454 367.424 331.262 370.347 331.262 374.272V379.264C331.262 383.915 331.39 386.709 331.646 387.648C331.944 388.587 332.243 389.355 332.542 389.952C333.011 390.976 333.928 391.488 335.294 391.488C336.958 391.488 338.046 390.528 338.558 388.608C338.942 387.243 339.134 384.171 339.134 379.392ZM335.166 392.64C329.832 392.64 325.8 391.275 323.07 388.544C320.339 385.813 318.974 381.909 318.974 376.832C318.974 371.712 320.424 367.787 323.326 365.056C326.27 362.283 330.387 360.896 335.678 360.896C340.968 360.896 344.915 362.176 347.518 364.736C350.12 367.253 351.422 371.115 351.422 376.32C351.422 387.2 346.003 392.64 335.166 392.64ZM353.34 361.536H368.764V367.424C369.446 365.461 370.492 363.883 371.9 362.688C373.308 361.493 375.441 360.896 378.3 360.896C384.913 360.896 388.22 364.459 388.22 371.584V390.848H391.804V392H373.692V390.848H376.316V370.048C376.316 367.488 376.145 365.845 375.804 365.12C375.462 364.352 374.844 363.968 373.948 363.968C372.582 363.968 371.366 364.864 370.3 366.656C369.276 368.448 368.764 370.624 368.764 373.184V390.848H371.516V392H353.34V390.848H356.86V362.688H353.34V361.536ZM394.121 392.64V381.184H394.889C395.999 384.896 397.492 387.499 399.369 388.992C401.247 390.485 403.593 391.232 406.409 391.232C410.761 391.232 412.937 389.845 412.937 387.072C412.937 385.877 412.404 384.981 411.337 384.384C409.673 383.445 407.54 382.72 404.937 382.208C402.036 381.44 399.604 380.416 397.641 379.136C395.295 377.6 394.121 375.168 394.121 371.84C394.121 368.512 395.145 365.867 397.193 363.904C399.241 361.899 401.972 360.896 405.385 360.896C407.476 360.896 409.631 361.387 411.849 362.368C412.66 362.709 413.279 362.88 413.705 362.88C414.132 362.88 414.495 362.731 414.793 362.432C415.092 362.133 415.455 361.579 415.881 360.768H416.585V370.56H415.817C413.641 365.013 410.271 362.24 405.705 362.24C403.7 362.24 402.207 362.603 401.225 363.328C400.244 364.011 399.753 364.885 399.753 365.952C399.753 366.592 399.903 367.104 400.201 367.488C400.5 367.829 400.735 368.085 400.905 368.256C401.076 368.427 401.353 368.619 401.737 368.832C402.121 369.003 402.441 369.152 402.697 369.28C402.953 369.365 403.337 369.493 403.849 369.664C404.404 369.835 404.809 369.941 405.065 369.984C407.967 370.709 410.057 371.349 411.337 371.904C412.617 372.416 413.833 373.056 414.985 373.824C417.332 375.445 418.505 378.069 418.505 381.696C418.505 385.28 417.439 388.011 415.305 389.888C413.172 391.723 410.249 392.64 406.537 392.64C403.892 392.64 401.332 392.021 398.857 390.784C398.345 390.443 397.94 390.272 397.641 390.272C396.703 390.272 395.785 391.061 394.889 392.64H394.121Z" fill="#EEEEEE"/>
<g clip-path="url(#clip0_28693_20)">
<path d="M374 87C380 87 385.75 88.1667 391.25 90.5C395.127 92.0274 398.506 94.3011 401.39 97.3193C402.984 98.8352 404.437 100.562 405.75 102.5C409.25 107.5 411 114.25 411 122.75C411 133.25 408.917 144 404.75 155C400.75 166 395.25 176.75 388.25 187.25C381.25 197.75 373.333 207.667 364.5 217C355.833 226.167 346.833 234.25 337.5 241.25C328.167 248.25 319.083 253.75 310.25 257.75C301.583 261.75 293.667 263.75 286.5 263.75C286.361 263.75 286.222 263.747 286.083 263.744C285.888 263.747 285.694 263.75 285.5 263.75C282.545 263.75 279.772 263.203 277.181 262.111C273.344 261.153 269.867 259.117 266.75 256C262.682 251.932 260.453 246.026 260.062 238.281C249.697 242.486 239.093 245.976 228.25 248.75C222.213 250.294 216.191 251.511 210.184 252.405C209.395 257.77 209 263.135 209 268.5C209 279 210.667 288.25 214 296.25C215.975 300.99 218.652 305.115 222.031 308.626C224.109 310.632 226.431 312.424 229 314C236.004 318.298 245.061 320.54 256.17 320.733C264.112 320.565 272.722 318.988 282 316C291.833 312.833 301.833 308.333 312 302.5C322.333 296.833 332.417 290.083 342.25 282.25C352.25 274.25 361.417 265.583 369.75 256.25L370.75 255H377.75L375.75 257.25C367.083 266.917 357.75 275.833 347.75 284C337.75 292 327.5 298.917 317 304.75C306.667 310.75 296.5 315.333 286.5 318.5C276.5 321.833 267.25 323.5 258.75 323.5C258.57 323.5 258.39 323.498 258.211 323.497C258.057 323.498 257.903 323.5 257.75 323.5C248.084 323.5 239.715 322.201 232.645 319.605C229.826 318.757 227.195 317.722 224.75 316.5C216.917 312.667 210.583 307.5 205.75 301C201.083 294.5 197.75 287.25 195.75 279.25C193.75 271.083 192.75 262.75 192.75 254.25C192.75 254.196 192.75 254.143 192.75 254.089C190.331 254.195 187.914 254.25 185.5 254.25C185.385 254.25 185.271 254.247 185.156 254.247C184.937 254.248 184.719 254.25 184.5 254.25C173.333 254.25 162.75 253 152.75 250.5C149.441 249.673 146.268 248.726 143.232 247.661C135.901 245.344 129.324 242.374 123.5 238.75C115.833 234.083 109.833 228.583 105.5 222.25C101.167 215.75 99 208.583 99 200.75C99 190.25 102 180.75 108 172.25C113.833 163.583 122.167 156.167 133 150C143.833 143.833 156.5 139.083 171 135.75C185.667 132.417 201.583 130.75 218.75 130.75C218.896 130.75 219.041 130.751 219.187 130.751C219.374 130.751 219.562 130.75 219.75 130.75C219.909 130.75 220.067 130.751 220.226 130.751C220.4 130.751 220.575 130.75 220.75 130.75C220.883 130.75 221.016 130.751 221.149 130.751C221.349 130.75 221.55 130.75 221.75 130.75C235.114 130.75 248.179 131.946 260.944 134.338C271.609 125.581 282.711 117.885 294.25 111.25C307.583 103.583 320.833 97.6667 334 93.5C347.167 89.1667 359.5 87 371 87C371.114 87 371.227 87.0031 371.341 87.0039C371.561 87.0023 371.781 87 372 87C372.119 87 372.237 87.003 372.355 87.0039C372.571 87.0024 372.785 87 373 87C373.114 87 373.227 87.0031 373.341 87.0039C373.561 87.0023 373.781 87 374 87ZM376.158 90.5039C366.808 90.602 356.338 93.0168 344.75 97.75C332.917 102.583 320.667 109.333 308 118C298.824 124.24 289.828 131.288 281.012 139.145C291.009 142.043 300.587 145.528 309.745 149.601C311.58 147.927 313.415 146.31 315.25 144.75C322.083 139.083 328.5 134.667 334.5 131.5C340.5 128.333 345.583 126.75 349.75 126.75C349.92 126.75 350.088 126.754 350.255 126.758C350.421 126.753 350.586 126.75 350.75 126.75C350.92 126.75 351.088 126.754 351.255 126.758C351.421 126.753 351.586 126.75 351.75 126.75C351.92 126.75 352.088 126.754 352.255 126.758C352.421 126.753 352.586 126.75 352.75 126.75C356.917 126.75 360.167 127.833 362.5 130C362.882 130.331 363.234 130.682 363.558 131.052C366.019 133.214 367.25 136.197 367.25 140C367.25 147 364.75 154.667 359.75 163C357.508 166.737 354.88 170.506 351.867 174.31C356.52 177.842 360.886 181.488 364.877 185.158C365.001 185.272 365.126 185.385 365.25 185.5L364.785 186.197L363.96 187.463C363.96 187.463 363.932 187.437 363.918 187.424H363.917C363.931 187.437 363.946 187.45 363.96 187.463L363.25 188.5C359.242 184.791 354.599 180.911 349.602 177.09C346.443 180.86 342.91 184.664 339 188.5C330.167 197 319.833 205.167 308 213C296.333 220.833 283.667 227.833 270 234C268.506 234.682 267.007 235.347 265.503 235.999C265.578 244.658 267.62 251.114 271.628 255.369C275.273 258.811 279.464 260.673 284.201 260.959C290.762 260.664 298.029 258.679 306 255C314.833 251 323.833 245.5 333 238.5C342.167 231.5 351 223.5 359.5 214.5C368.167 205.333 375.917 195.583 382.75 185.25C389.75 174.75 395.25 164.083 399.25 153.25C403.25 142.417 405.25 131.917 405.25 121.75C405.25 113.583 403.667 107.167 400.5 102.5C397.5 97.8333 393.5 94.5 388.5 92.5C388.166 92.3618 387.83 92.2292 387.492 92.1006C383.922 91.0701 380.144 90.5379 376.158 90.5039ZM222.197 133.501C206.071 133.538 190.922 135.204 176.75 138.5C162.583 141.667 150.083 146.25 139.25 152.25C128.417 158.25 120 165.5 114 174C107.833 182.333 104.75 191.667 104.75 202C104.75 212.13 108.474 221.017 115.919 228.665C123.148 235.725 132.674 241.255 144.5 245.25C156.413 249.275 169.413 251.355 183.503 251.492C186.588 251.463 189.685 251.344 192.795 251.138C193.165 237.877 195.899 224.831 201 212C206.5 198.167 214 185.083 223.5 172.75C233 160.25 243.833 148.833 256 138.5C256.721 137.877 257.445 137.26 258.17 136.647C246.435 134.575 234.444 133.526 222.197 133.501ZM278.566 141.347C276.198 143.506 273.842 145.724 271.5 148C259.833 159.333 249.25 171.667 239.75 185C230.417 198.167 222.917 211.833 217.25 226C214.276 233.661 212.105 241.322 210.739 248.983C215.052 248.238 219.389 247.327 223.75 246.25C236.164 243.037 248.257 238.927 260.03 233.923C260.261 226.815 261.834 219.424 264.75 211.75C267.917 203.417 272.167 195.167 277.5 187C282.833 178.833 288.75 171.167 295.25 164C299.281 159.666 303.313 155.608 307.345 151.822C301.015 148.994 294.495 146.437 287.785 144.151C284.75 143.162 281.678 142.227 278.566 141.347ZM312.266 154.093C308.398 157.664 304.56 161.549 300.75 165.75C294.25 172.75 288.333 180.25 283 188.25C277.667 196.25 273.417 204.25 270.25 212.25C267.65 218.818 266.118 225.217 265.652 231.447C278.902 225.356 291.186 218.543 302.5 211C314.167 203.167 324.417 195.083 333.25 186.75C337.759 182.411 341.767 178.115 345.277 173.863C337.497 168.199 329.091 162.815 321 158.5C318.131 156.97 315.22 155.501 312.266 154.093ZM353.505 129.259C349.597 129.383 344.845 130.963 339.25 134C333.417 137.167 327.167 141.5 320.5 147C318.562 148.55 316.632 150.178 314.709 151.883C318.116 153.504 321.463 155.21 324.75 157C332.705 161.196 340.385 165.989 347.502 171.089C349.942 167.952 352.109 164.839 354 161.75C359 153.583 361.5 146 361.5 139C361.5 136 360.5 133.5 358.5 131.5C357.809 130.683 356.975 130.02 355.999 129.511C355.224 129.366 354.393 129.282 353.505 129.259Z" fill="#F1F1F1"/>
</g>
<defs>
<filter id="filter0_d_28693_20" x="40" y="44" width="432" height="432" filterUnits="userSpaceOnUse" color-interpolation-filters="sRGB">
<feFlood flood-opacity="0" result="BackgroundImageFix"/>
<feColorMatrix in="SourceAlpha" type="matrix" values="0 0 0 0 0 0 0 0 0 0 0 0 0 0 0 0 0 0 127 0" result="hardAlpha"/>
<feOffset dy="4"/>
<feGaussianBlur stdDeviation="5"/>
<feComposite in2="hardAlpha" operator="out"/>
<feColorMatrix type="matrix" values="0 0 0 0 0 0 0 0 0 0 0 0 0 0 0 0 0 0 0.25 0"/>
<feBlend mode="normal" in2="BackgroundImageFix" result="effect1_dropShadow_28693_20"/>
<feBlend mode="normal" in="SourceGraphic" in2="effect1_dropShadow_28693_20" result="shape"/>
</filter>
<linearGradient id="paint0_linear_28693_20" x1="256" y1="50" x2="256" y2="462" gradientUnits="userSpaceOnUse">
<stop stop-color="#252525"/>
<stop offset="1" stop-color="#1A1A1A"/>
</linearGradient>
<clipPath id="clip0_28693_20">
<rect width="312" height="237" fill="white" transform="translate(99 87)"/>
</clipPath>
</defs>
</svg>
