<svg width="150" height="150" viewBox="0 0 150 150" fill="none" xmlns="http://www.w3.org/2000/svg">
<path d="M0 19C0 13.4772 4.47715 9 10 9H51.2447C54.3952 9 57.3616 10.4848 59.2498 13.0068L64.969 20.646C66.8572 23.168 69.8235 24.6528 72.9741 24.6528H140C145.523 24.6528 150 29.1299 150 34.6528V62.6667H0V19Z" fill="#53B2DD"/>
<path d="M0 46.6665C0 43.9051 2.23858 41.6665 5 41.6665H145C147.761 41.6665 150 43.9051 150 46.6665V125C150 130.523 145.523 135 140 135H10C4.47715 135 0 130.523 0 125V46.6665Z" fill="#5BC3F1"/>
<path d="M0 53.6665C0 50.9051 2.23858 48.6665 5 48.6665H145C147.761 48.6665 150 50.9051 150 53.6665V132C150 137.523 145.523 142 140 142H10C4.47715 142 0 137.523 0 132V53.6665Z" fill="#62CFFF"/>
<path d="M53.1667 118.5H96.3333C99.7391 118.5 102.5 115.739 102.5 112.333V69.1667C102.5 65.7609 99.7391 63 96.3333 63H53.1667C49.7609 63 47 65.7609 47 69.1667V112.333C47 115.739 49.7609 118.5 53.1667 118.5ZM53.1667 118.5L87.0833 84.5833L102.5 100M68.5833 79.9583C68.5833 82.5126 66.5126 84.5833 63.9583 84.5833C61.404 84.5833 59.3333 82.5126 59.3333 79.9583C59.3333 77.404 61.404 75.3333 63.9583 75.3333C66.5126 75.3333 68.5833 77.404 68.5833 79.9583Z" stroke="#4393B7" stroke-width="7" stroke-linecap="round" stroke-linejoin="round"/>
</svg>
