<svg width="48" height="48" viewBox="0 0 48 48" fill="none" xmlns="http://www.w3.org/2000/svg">
<path d="M23.966 31.2692C23.7363 31.2692 23.5122 31.2259 23.2935 31.1392C23.0748 31.0525 22.8912 30.9139 22.7425 30.7232L15.7155 23.6962C15.4258 23.4289 15.2815 23.0917 15.2825 22.6847C15.2835 22.2777 15.451 21.9214 15.785 21.6157C16.0617 21.313 16.4002 21.1732 16.8005 21.1962C17.2005 21.2195 17.5593 21.3594 17.877 21.6157L22.5155 26.3347V9.6347C22.5155 9.24536 22.6613 8.90886 22.953 8.6252C23.2447 8.34186 23.5915 8.2002 23.9935 8.2002C24.3952 8.2002 24.7358 8.34186 25.0155 8.6252C25.2948 8.90886 25.4345 9.24536 25.4345 9.6347V26.3347L30.154 21.6157C30.4323 21.3594 30.768 21.2362 31.161 21.2462C31.5537 21.2565 31.9078 21.3899 32.2235 21.6462C32.5118 21.9512 32.653 22.3102 32.647 22.7232C32.6413 23.1362 32.4937 23.4875 32.204 23.7772L25.2085 30.7227C25.0592 30.9137 24.872 31.0525 24.647 31.1392C24.4223 31.2259 24.1953 31.2692 23.966 31.2692ZM11.7345 39.8002C10.7928 39.8002 9.96835 39.4465 9.26101 38.7392C8.55368 38.0319 8.20001 37.2074 8.20001 36.2657V31.4347C8.20001 31.045 8.34585 30.7085 8.63751 30.4252C8.92918 30.1419 9.27601 30.0002 9.67801 30.0002C10.08 30.0002 10.4207 30.1419 10.7 30.4252C10.9797 30.7085 11.1195 31.045 11.1195 31.4347V36.2657C11.1195 36.4194 11.1835 36.5604 11.3115 36.6887C11.4398 36.8167 11.5808 36.8807 11.7345 36.8807H36.2655C36.4192 36.8807 36.5602 36.8167 36.6885 36.6887C36.8165 36.5604 36.8805 36.4194 36.8805 36.2657V31.4347C36.8805 31.045 37.0265 30.7085 37.3185 30.4252C37.6102 30.1419 37.9568 30.0002 38.3585 30.0002C38.7605 30.0002 39.1012 30.1419 39.3805 30.4252C39.6602 30.7085 39.8 31.045 39.8 31.4347V36.2657C39.8 37.2074 39.4463 38.0319 38.739 38.7392C38.0317 39.4465 37.2072 39.8002 36.2655 39.8002H11.7345Z" fill="#434343"/>
</svg>
