<svg width="48" height="48" viewBox="0 0 48 48" fill="none" xmlns="http://www.w3.org/2000/svg">
<path fill-rule="evenodd" clip-rule="evenodd" d="M13 4C8.02944 4 4 8.02944 4 13V34C4 38.9706 8.02944 43 13 43H34C38.9706 43 43 38.9706 43 34V13C43 8.02944 38.9706 4 34 4H13ZM36.61 31H10.4403C9.86152 31 9.43776 30.7061 9.16904 30.1182C8.90031 29.5308 8.95199 28.9637 9.32407 28.4168L14.4712 20.5974C14.7193 20.225 15.0882 20.0272 15.5781 20.0039C16.0676 19.9807 16.4842 20.1785 16.8277 20.5974L21.3547 27.7186L28.4243 17.5953C28.6723 17.1764 29.0413 16.9786 29.5312 17.0018C30.0207 17.0251 30.4165 17.1997 30.7188 17.5255L37.7263 28.4168C38.057 28.9637 38.088 29.5308 37.8193 30.1182C37.5506 30.7061 37.1475 31 36.61 31Z" fill="#434343"/>
</svg>
