<svg width="48" height="48" viewBox="0 0 48 48" fill="none" xmlns="http://www.w3.org/2000/svg">
<path d="M19.3 44.7998C14.4333 43.6998 10.4583 41.2082 7.375 37.3248C4.29167 33.4415 2.75 28.9998 2.75 23.9998C2.75 18.9998 4.29167 14.5665 7.375 10.6998C10.4583 6.83315 14.4333 4.34982 19.3 3.24982C20.0333 3.11648 20.6917 3.27482 21.275 3.72482C21.8583 4.17482 22.15 4.78315 22.15 5.54982C22.15 6.11648 21.9833 6.61648 21.65 7.04982C21.3167 7.48315 20.8833 7.74982 20.35 7.84982C16.55 8.71648 13.45 10.6498 11.05 13.6498C8.65 16.6498 7.45 20.0998 7.45 23.9998C7.45 27.8998 8.65 31.3498 11.05 34.3498C13.45 37.3498 16.55 39.2832 20.35 40.1498C20.8833 40.2498 21.3167 40.5165 21.65 40.9498C21.9833 41.3832 22.15 41.8832 22.15 42.4498C22.15 43.2165 21.8583 43.8415 21.275 44.3248C20.6917 44.8082 20.0333 44.9665 19.3 44.7998ZM28.7 44.7498C27.9667 44.9498 27.3083 44.8082 26.725 44.3248C26.1417 43.8415 25.85 43.2165 25.85 42.4498C25.85 41.9165 26.0083 41.4248 26.325 40.9748C26.6417 40.5248 27.0667 40.2498 27.6 40.1498C28.5 39.9165 29.3917 39.6332 30.275 39.2998C31.1583 38.9665 32 38.5165 32.8 37.9498C33.2333 37.6832 33.725 37.5915 34.275 37.6748C34.825 37.7582 35.3 37.9832 35.7 38.3498C36.2333 38.9165 36.4667 39.5665 36.4 40.2998C36.3333 41.0332 35.9833 41.5998 35.35 41.9998C34.3167 42.6332 33.2417 43.1832 32.125 43.6498C31.0083 44.1165 29.8667 44.4832 28.7 44.7498ZM38.4 35.6998C37.9667 35.3332 37.7 34.8748 37.6 34.3248C37.5 33.7748 37.6167 33.2832 37.95 32.8498C38.45 32.0165 38.8833 31.1748 39.25 30.3248C39.6167 29.4748 39.9167 28.5831 40.15 27.6498C40.25 27.1498 40.5167 26.7331 40.95 26.3998C41.3833 26.0665 41.8833 25.8998 42.45 25.8998C43.2167 25.8998 43.825 26.1915 44.275 26.7748C44.725 27.3581 44.8833 28.0165 44.75 28.7498C44.4833 29.9165 44.1167 31.0582 43.65 32.1748C43.1833 33.2915 42.6333 34.3498 42 35.3498C41.6 35.9832 41.0333 36.3415 40.3 36.4248C39.5667 36.5082 38.9333 36.2665 38.4 35.6998ZM42.45 22.1498C41.9167 22.1498 41.425 21.9915 40.975 21.6748C40.525 21.3581 40.2333 20.9331 40.1 20.3998C39.9 19.4998 39.6167 18.6165 39.25 17.7498C38.8833 16.8831 38.45 16.0331 37.95 15.1998C37.65 14.7331 37.5417 14.2331 37.625 13.6998C37.7083 13.1665 37.9667 12.6998 38.4 12.2998C38.9 11.7665 39.525 11.5415 40.275 11.6248C41.025 11.7081 41.6 12.0498 42 12.6498C42.6333 13.6831 43.175 14.7581 43.625 15.8748C44.075 16.9915 44.45 18.1331 44.75 19.2998C44.8833 20.0331 44.725 20.6915 44.275 21.2748C43.825 21.8581 43.2167 22.1498 42.45 22.1498ZM32.85 9.99982C32.0167 9.49982 31.1583 9.07482 30.275 8.72482C29.3917 8.37482 28.5 8.08315 27.6 7.84982C27.0667 7.74982 26.6417 7.47482 26.325 7.02482C26.0083 6.57482 25.85 6.08315 25.85 5.54982C25.85 4.78315 26.1417 4.17482 26.725 3.72482C27.3083 3.27482 27.9667 3.11648 28.7 3.24982C29.8667 3.51648 31.0083 3.87482 32.125 4.32482C33.2417 4.77482 34.3167 5.33315 35.35 5.99982C35.95 6.39982 36.2833 6.97482 36.35 7.72482C36.4167 8.47482 36.2 9.09982 35.7 9.59982C35.3 10.0331 34.8333 10.2915 34.3 10.3748C33.7667 10.4581 33.2833 10.3331 32.85 9.99982ZM25.8 27.5498L30.65 22.7498C31.0167 22.3831 31.425 22.2081 31.875 22.2248C32.325 22.2415 32.7333 22.4331 33.1 22.7998C33.4667 23.1665 33.65 23.5915 33.65 24.0748C33.65 24.5581 33.4833 24.9665 33.15 25.2998L25.7 32.6998C25.2 33.1998 24.6417 33.4498 24.025 33.4498C23.4083 33.4498 22.8667 33.1998 22.4 32.6998L14.95 25.3498C14.5833 24.9831 14.4 24.5581 14.4 24.0748C14.4 23.5915 14.5833 23.1665 14.95 22.7998C15.3167 22.4331 15.7417 22.2498 16.225 22.2498C16.7083 22.2498 17.1333 22.4331 17.5 22.7998L22.25 27.5498V15.3998C22.25 14.8998 22.425 14.4831 22.775 14.1498C23.125 13.8165 23.55 13.6498 24.05 13.6498C24.55 13.6498 24.9667 13.8165 25.3 14.1498C25.6333 14.4831 25.8 14.8998 25.8 15.3998V27.5498Z" fill="#52FF00"/>
</svg>
