<svg width="48" height="48" viewBox="0 0 48 48" fill="none" xmlns="http://www.w3.org/2000/svg">
<g clip-path="url(#clip0_28515_51)">
<path d="M39.0485 23.4C39.0485 22.915 39.0485 22.5269 38.9484 22.0418L42.6536 19.3254C43.4547 18.7433 43.655 17.6761 43.1543 16.803L39.4491 10.497C38.9484 9.62391 37.8468 9.33286 36.9456 9.72092L32.6395 11.4672C31.9385 10.9821 31.1374 10.497 30.3363 10.109L29.7354 5.64629C29.6353 4.67614 28.734 3.90002 27.7326 3.90002H20.2221C19.2206 3.90002 18.3194 4.67614 18.2192 5.64629L17.6184 10.109C16.8173 10.497 16.0161 10.8851 15.3152 11.4672L11.0091 9.72092C10.1078 9.33286 9.0063 9.72092 8.50559 10.497L4.80038 16.803C4.29968 17.6761 4.49996 18.7433 5.30109 19.3254L9.0063 22.0418C9.0063 22.5269 9.0063 22.915 9.0063 23.4C9.0063 23.8851 9.0063 24.2732 9.10644 24.7582L5.40123 27.4747C4.6001 28.0567 4.39982 29.1239 4.90053 29.997L8.60573 36.303C9.10644 37.1761 10.208 37.4672 11.1093 37.0791L15.4153 35.3329C16.1163 35.8179 16.9174 36.303 17.7185 36.6911L18.3194 41.1538C18.4195 42.1239 19.3208 42.9 20.3222 42.9H27.8328C28.8342 42.9 29.7354 42.1239 29.8356 41.1538L30.4364 36.6911C31.2375 36.303 32.0387 35.915 32.7396 35.3329L37.0457 37.0791C37.947 37.4672 39.0485 37.0791 39.5492 36.303L43.2544 29.997C43.7551 29.1239 43.5548 28.0567 42.7537 27.4747L39.0485 24.7582C39.0485 24.2732 39.0485 23.8851 39.0485 23.4ZM24.1275 30.1911C20.2221 30.1911 17.1177 27.1836 17.1177 23.4C17.1177 19.6164 20.2221 16.609 24.1275 16.609C28.033 16.609 31.1374 19.6164 31.1374 23.4C31.1374 27.1836 27.9329 30.1911 24.1275 30.1911Z" fill="#434343"/>
</g>
<defs>
<clipPath id="clip0_28515_51">
<rect width="48" height="48" fill="white"/>
</clipPath>
</defs>
</svg>
