<svg width="156" height="156" viewBox="0 0 156 156" fill="none" xmlns="http://www.w3.org/2000/svg">
<g clip-path="url(#clip0_28515_51)">
<path d="M126.686 78.0882C126.686 76.5189 126.686 75.2634 126.362 73.694L138.349 64.9056C140.941 63.0224 141.589 59.5698 139.969 56.745L127.982 36.3433C126.362 33.5184 122.798 32.5768 119.882 33.8323L105.951 39.482C103.683 37.9126 101.091 36.3433 98.4993 35.0878L96.5554 20.6497C96.2314 17.511 93.3155 15 90.0757 15H65.7768C62.537 15 59.6211 17.511 59.2971 20.6497L57.3532 35.0878C54.7613 36.3433 52.1695 37.5988 49.9016 39.482L35.9702 33.8323C33.0544 32.5768 29.4905 33.8323 27.8706 36.3433L15.8832 56.745C14.2632 59.5698 14.9112 63.0224 17.5031 64.9056L29.4905 73.694C29.4905 75.2634 29.4905 76.5189 29.4905 78.0882C29.4905 79.6576 29.4905 80.9131 29.8145 82.4824L17.8271 91.2709C15.2352 93.1541 14.5872 96.6067 16.2072 99.4315L28.1946 119.833C29.8145 122.658 33.3783 123.6 36.2942 122.344L50.2255 116.694C52.4934 118.264 55.0853 119.833 57.6772 121.089L59.6211 135.527C59.9451 138.665 62.8609 141.176 66.1008 141.176H90.3996C93.6395 141.176 96.5554 138.665 96.8793 135.527L98.8232 121.089C101.415 119.833 104.007 118.578 106.275 116.694L120.206 122.344C123.122 123.6 126.686 122.344 128.306 119.833L140.293 99.4315C141.913 96.6067 141.265 93.1541 138.673 91.2709L126.686 82.4824C126.686 80.9131 126.686 79.6576 126.686 78.0882ZM78.4122 100.059C65.7768 100.059 55.7333 90.3292 55.7333 78.0882C55.7333 65.8472 65.7768 56.1172 78.4122 56.1172C91.0476 56.1172 101.091 65.8472 101.091 78.0882C101.091 90.3292 90.7236 100.059 78.4122 100.059Z" fill="#434343"/>
</g>
<defs>
<clipPath id="clip0_28515_51">
<rect width="155.294" height="155.294" fill="white"/>
</clipPath>
</defs>
</svg>
