<svg width="48" height="48" viewBox="0 0 48 48" fill="none" xmlns="http://www.w3.org/2000/svg">
<rect x="5" y="39" width="38" height="4" rx="2" fill="#434343"/>
<rect x="5" y="4" width="38" height="32" rx="6" fill="#434343"/>
<path d="M14.0928 32C13.2533 32 12.5279 31.718 11.9166 31.1539C11.3055 30.5896 11 29.92 11 29.1451V10.8863C11 10.1028 11.3055 9.42588 11.9166 8.85553C12.5279 8.28518 13.2533 8 14.0928 8H33.8732C34.722 8 35.4553 8.28518 36.0732 8.85553C36.6911 9.42588 37 10.1028 37 10.8863V29.1451C37 29.92 36.6911 30.5896 36.0732 31.1539C35.4553 31.718 34.722 32 33.8732 32H14.0928ZM14.0928 29.1451H33.8732V10.8863H14.0928V29.1451ZM16.8458 26.6039H31.1882C31.4828 26.6039 31.7037 26.4718 31.851 26.2077C31.9983 25.9437 31.9813 25.6889 31.8 25.4431L27.9595 20.549C27.7938 20.4026 27.5769 20.3242 27.3086 20.3137C27.0401 20.3033 26.8379 20.3922 26.702 20.5804L22.8275 25.1294L20.3464 21.9294C20.1581 21.7412 19.9298 21.6523 19.6616 21.6627C19.3931 21.6732 19.1909 21.7621 19.0549 21.9294L16.234 25.4431C16.0301 25.6889 16.0017 25.9437 16.149 26.2077C16.2963 26.4718 16.5285 26.6039 16.8458 26.6039Z" fill="white"/>
</svg>
