<svg width="48" height="48" viewBox="0 0 48 48" fill="none" xmlns="http://www.w3.org/2000/svg">
<rect x="10" y="39" width="28" height="4" rx="2" fill="#434343"/>
<rect x="8" y="4" width="32" height="32" rx="6" fill="#434343"/>
<path d="M14.0927 24.625H33.9455C34.3533 24.625 34.6591 24.4229 34.8629 24.0188C35.0668 23.6149 35.0433 23.225 34.7924 22.849L29.4763 15.3613C29.247 15.1373 28.9467 15.0173 28.5754 15.0013C28.2037 14.9853 27.9238 15.1213 27.7356 15.4093L22.3725 22.3691L18.9383 17.4732C18.6776 17.1852 18.3617 17.0492 17.9903 17.0652C17.6187 17.0812 17.3387 17.2172 17.1506 17.4732L13.2458 22.849C12.9636 23.225 12.9244 23.6149 13.1282 24.0188C13.3321 24.4229 13.6536 24.625 14.0927 24.625Z" fill="white"/>
</svg>
