<svg width="48" height="48" viewBox="0 0 48 48" fill="none" xmlns="http://www.w3.org/2000/svg">
<path d="M24 27.3001L14.1 37.2001C13.6333 37.6668 13.0833 37.9001 12.45 37.9001C11.8167 37.9001 11.2667 37.6668 10.8 37.2001C10.3333 36.7334 10.1 36.1834 10.1 35.5501C10.1 34.9168 10.3333 34.3668 10.8 33.9001L20.7 24.0001L10.8 14.1001C10.3333 13.6334 10.1 13.0834 10.1 12.4501C10.1 11.8168 10.3333 11.2668 10.8 10.8001C11.2667 10.3334 11.8167 10.1001 12.45 10.1001C13.0833 10.1001 13.6333 10.3334 14.1 10.8001L24 20.7001L33.9 10.8001C34.3667 10.3334 34.9167 10.1001 35.55 10.1001C36.1833 10.1001 36.7333 10.3334 37.2 10.8001C37.6667 11.2668 37.9 11.8168 37.9 12.4501C37.9 13.0834 37.6667 13.6334 37.2 14.1001L27.3 24.0001L37.2 33.9001C37.6667 34.3668 37.9 34.9168 37.9 35.5501C37.9 36.1834 37.6667 36.7334 37.2 37.2001C36.7333 37.6668 36.1833 37.9001 35.55 37.9001C34.9167 37.9001 34.3667 37.6668 33.9 37.2001L24 27.3001Z" fill="#434343"/>
</svg>
