<svg width="156" height="156" viewBox="0 0 156 156" fill="none" xmlns="http://www.w3.org/2000/svg">
<g clip-path="url(#clip0_28764_6)">
<path d="M61.3797 107.077C48.3217 107.077 37.327 102.604 28.3955 93.6579C19.4652 84.7105 15 73.826 15 61.0045C15 48.1819 19.4731 37.3089 28.4194 28.3853C37.3668 19.4618 48.2797 15 61.158 15C73.9238 15 84.7684 19.4697 93.692 28.4092C102.616 37.3498 107.077 48.2348 107.077 61.0642C107.077 66.2763 106.338 71.0137 104.861 75.2765C103.383 79.5394 101.223 83.6033 98.3811 87.4682L138.793 127.539C140.271 129.08 141.009 130.971 141.009 133.21C141.009 135.45 140.271 137.31 138.793 138.793C137.11 140.384 135.2 141.18 133.06 141.18C130.921 141.18 129.08 140.384 127.539 138.793L87.5484 98.7221C84.0847 101.337 80.1669 103.383 75.7949 104.861C71.4229 106.338 66.6178 107.077 61.3797 107.077ZM61.1393 91.5606C69.7604 91.5606 76.9856 88.6334 82.8149 82.7791C88.6454 76.9248 91.5606 69.7013 91.5606 61.1086C91.5606 52.5158 88.6454 45.269 82.8149 39.3681C76.9856 33.4672 69.7604 30.5167 61.1393 30.5167C52.4237 30.5167 45.1411 33.4672 39.2914 39.3681C33.4416 45.269 30.5167 52.5158 30.5167 61.1086C30.5167 69.7013 33.4416 76.9248 39.2914 82.7791C45.1411 88.6334 52.4237 91.5606 61.1393 91.5606Z" fill="#AAAAAA"/>
</g>
<defs>
<clipPath id="clip0_28764_6">
<rect width="155.294" height="155.294" fill="white"/>
</clipPath>
</defs>
</svg>
