<svg width="150" height="150" viewBox="0 0 150 150" fill="none" xmlns="http://www.w3.org/2000/svg">
<path d="M0 19C0 13.4772 4.47715 9 10 9H51.2447C54.3952 9 57.3616 10.4848 59.2498 13.0068L64.969 20.646C66.8572 23.168 69.8235 24.6528 72.9741 24.6528H140C145.523 24.6528 150 29.1299 150 34.6528V62.6667H0V19Z" fill="#53B2DD"/>
<path d="M0 46.6665C0 43.9051 2.23858 41.6665 5 41.6665H145C147.761 41.6665 150 43.9051 150 46.6665V125C150 130.523 145.523 135 140 135H10C4.47715 135 0 130.523 0 125V46.6665Z" fill="#5BC3F1"/>
<path d="M0 53.6665C0 50.9051 2.23858 48.6665 5 48.6665H145C147.761 48.6665 150 50.9051 150 53.6665V132C150 137.523 145.523 142 140 142H10C4.47715 142 0 137.523 0 132V53.6665Z" fill="#62CFFF"/>
<path d="M106.17 90.4301C106.17 93.4901 105.433 95.0201 103.96 95.0201H79.65V119.33C79.65 120.803 78.12 121.54 75.06 121.54C71.8867 121.54 70.3 120.803 70.3 119.33V95.0201H46.16C44.6867 95.0201 43.95 93.4901 43.95 90.4301C43.95 87.2567 44.6867 85.6701 46.16 85.6701H70.3V61.5301C70.3 60.0567 71.8867 59.3201 75.06 59.3201C78.12 59.3201 79.65 60.0567 79.65 61.5301V85.6701H103.96C105.433 85.6701 106.17 87.2567 106.17 90.4301Z" fill="#4393B7"/>
</svg>
