<svg width="230" height="230" viewBox="0 0 230 230" fill="none" xmlns="http://www.w3.org/2000/svg">
<rect x="5.11133" y="6" width="218" height="218" rx="50" fill="#808080" fill-opacity="0.5"/>
<path d="M167.902 114.75C167.902 113.009 167.902 111.616 167.547 109.874L180.658 100.123C183.493 98.0336 184.201 94.2027 182.43 91.0684L169.319 68.4316C167.547 65.2973 163.649 64.2525 160.46 65.6455L145.224 71.9142C142.743 70.1729 139.908 68.4316 137.074 67.0386L134.948 51.0187C134.593 47.5361 131.404 44.75 127.861 44.75H101.285C97.7415 44.75 94.5524 47.5361 94.198 51.0187L92.072 67.0386C89.2372 68.4316 86.4025 69.8246 83.9221 71.9142L68.6853 65.6455C65.4962 64.2525 61.5984 65.6455 59.8267 68.4316L46.7159 91.0684C44.9442 94.2027 45.6529 98.0336 48.4876 100.123L61.5984 109.874C61.5984 111.616 61.5984 113.009 61.5984 114.75C61.5984 116.491 61.5984 117.884 61.9527 119.626L48.842 129.377C46.0072 131.466 45.2986 135.297 47.0703 138.432L60.181 161.068C61.9527 164.203 65.8505 165.248 69.0396 163.854L84.2764 157.586C86.7568 159.327 89.5916 161.068 92.4263 162.461L94.5524 178.481C94.9067 181.964 98.0958 184.75 101.639 184.75H128.215C131.759 184.75 134.948 181.964 135.302 178.481L137.428 162.461C140.263 161.068 143.098 159.675 145.578 157.586L160.815 163.854C164.004 165.248 167.902 163.854 169.673 161.068L182.784 138.432C184.556 135.297 183.847 131.466 181.012 129.377L167.902 119.626C167.902 117.884 167.902 116.491 167.902 114.75ZM115.104 139.128C101.285 139.128 90.3003 128.332 90.3003 114.75C90.3003 101.168 101.285 90.3719 115.104 90.3719C128.924 90.3719 139.908 101.168 139.908 114.75C139.908 128.332 128.569 139.128 115.104 139.128Z" fill="#AAAAAA"/>
</svg>
