<svg width="219" height="218" viewBox="0 0 219 218" fill="none" xmlns="http://www.w3.org/2000/svg">
<rect width="218" height="218" rx="50" fill="#808080" fill-opacity="0.5"/>
<g clip-path="url(#clip0_29017_21)">
<path d="M157.833 109.09C157.833 107.521 157.833 106.265 157.514 104.696L169.314 95.907C171.866 94.0237 172.503 90.5711 170.909 87.7461L159.108 67.3439C157.514 64.519 154.005 63.5773 151.135 64.8328L137.421 70.4827C135.188 68.9133 132.637 67.3439 130.086 66.0884L128.172 51.6499C127.853 48.511 124.983 46 121.793 46H97.8735C94.6842 46 91.8138 48.511 91.4949 51.6499L89.5813 66.0884C87.0298 67.3439 84.4784 68.5994 82.2459 70.4827L68.5318 64.8328C65.6614 63.5773 62.1532 64.8328 60.5585 67.3439L48.7581 87.7461C47.1634 90.5711 47.8013 94.0237 50.3527 95.907L62.1532 104.696C62.1532 106.265 62.1532 107.521 62.1532 109.09C62.1532 110.659 62.1532 111.915 62.4721 113.484L50.6717 122.273C48.1202 124.156 47.4823 127.609 49.077 130.434L60.8775 150.836C62.4721 153.661 65.9804 154.603 68.8507 153.347L82.5648 147.697C84.7973 149.267 87.3488 150.836 89.9002 152.092L91.8138 166.53C92.1327 169.669 95.0031 172.18 98.1924 172.18H122.112C125.302 172.18 128.172 169.669 128.491 166.53L130.404 152.092C132.956 150.836 135.507 149.581 137.74 147.697L151.454 153.347C154.324 154.603 157.833 153.347 159.427 150.836L171.228 130.434C172.822 127.609 172.185 124.156 169.633 122.273L157.833 113.484C157.833 111.915 157.833 110.659 157.833 109.09ZM110.312 131.062C97.8735 131.062 87.9866 121.331 87.9866 109.09C87.9866 96.8487 97.8735 87.1184 110.312 87.1184C122.75 87.1184 132.637 96.8487 132.637 109.09C132.637 121.331 122.431 131.062 110.312 131.062Z" fill="#AAAAAA"/>
</g>
<defs>
<clipPath id="clip0_29017_21">
<rect width="155.294" height="155.294" fill="white" transform="translate(31.8887 31)"/>
</clipPath>
</defs>
</svg>
