<svg width="156" height="156" viewBox="0 0 156 156" fill="none" xmlns="http://www.w3.org/2000/svg">
<g clip-path="url(#clip0_28515_54)">
<path d="M125.944 78.09C125.944 76.5206 125.944 75.2651 125.625 73.6957L137.425 64.907C139.977 63.0237 140.615 59.5711 139.02 56.7461L127.22 36.3439C125.625 33.519 122.117 32.5773 119.246 33.8328L105.532 39.4827C103.3 37.9133 100.748 36.3439 98.1969 35.0884L96.2833 20.6499C95.9644 17.511 93.094 15 89.9047 15H65.9848C62.7955 15 59.9251 17.511 59.6062 20.6499L57.6926 35.0884C55.1412 36.3439 52.5897 37.5994 50.3572 39.4827L36.6431 33.8328C33.7728 32.5773 30.2645 33.8328 28.6699 36.3439L16.8694 56.7461C15.2747 59.5711 15.9126 63.0237 18.4641 64.907L30.2645 73.6957C30.2645 75.2651 30.2645 76.5206 30.2645 78.09C30.2645 79.6594 30.2645 80.9149 30.5834 82.4843L18.783 91.273C16.2315 93.1563 15.5937 96.609 17.1883 99.4339L28.9888 119.836C30.5834 122.661 34.0917 123.603 36.9621 122.347L50.6761 116.697C52.9086 118.267 55.4601 119.836 58.0115 121.092L59.9251 135.53C60.2441 138.669 63.1144 141.18 66.3038 141.18H90.2236C93.4129 141.18 96.2833 138.669 96.6022 135.53L98.5158 121.092C101.067 119.836 103.619 118.581 105.851 116.697L119.565 122.347C122.436 123.603 125.944 122.347 127.539 119.836L139.339 99.4339C140.934 96.609 140.296 93.1563 137.744 91.273L125.944 82.4843C125.944 80.9149 125.944 79.6594 125.944 78.09ZM78.4231 100.062C65.9848 100.062 56.098 90.3313 56.098 78.09C56.098 65.8487 65.9848 56.1184 78.4231 56.1184C90.8615 56.1184 100.748 65.8487 100.748 78.09C100.748 90.3313 90.5425 100.062 78.4231 100.062Z" fill="#AAAAAA"/>
</g>
<defs>
<clipPath id="clip0_28515_54">
<rect width="155.294" height="155.294" fill="white"/>
</clipPath>
</defs>
</svg>
