<svg width="230" height="230" viewBox="0 0 230 230" fill="none" xmlns="http://www.w3.org/2000/svg">
<rect x="5.11133" y="6" width="218" height="218" rx="50" fill="#808080" fill-opacity="0.5"/>
<path d="M161.739 115.25C161.739 113.72 161.739 112.496 161.426 110.966L173.016 102.399C175.523 100.563 176.149 97.1978 174.583 94.444L162.992 74.556C161.426 71.8022 157.98 70.8843 155.161 72.1082L141.69 77.6157C139.498 76.0858 136.992 74.556 134.485 73.3321L132.606 59.2575C132.293 56.1978 129.473 53.75 126.341 53.75H102.846C99.7135 53.75 96.8941 56.1978 96.5809 59.2575L94.7013 73.3321C92.1952 74.556 89.6891 75.7799 87.4963 77.6157L74.0261 72.1082C71.2068 70.8843 67.7609 72.1082 66.1946 74.556L54.6039 94.444C53.0376 97.1978 53.6642 100.563 56.1702 102.399L67.7609 110.966C67.7609 112.496 67.7609 113.72 67.7609 115.25C67.7609 116.78 67.7609 118.004 68.0741 119.534L56.4835 128.101C53.9774 129.937 53.3509 133.302 54.9172 136.056L66.5078 155.944C68.0741 158.698 71.52 159.616 74.3394 158.392L87.8096 152.884C90.0024 154.414 92.5085 155.944 95.0146 157.168L96.8941 171.243C97.2074 174.302 100.027 176.75 103.159 176.75H126.654C129.787 176.75 132.606 174.302 132.919 171.243L134.799 157.168C137.305 155.944 139.811 154.72 142.004 152.884L155.474 158.392C158.293 159.616 161.739 158.392 163.305 155.944L174.896 136.056C176.462 133.302 175.836 129.937 173.33 128.101L161.739 119.534C161.739 118.004 161.739 116.78 161.739 115.25ZM115.063 136.668C102.846 136.668 93.135 127.183 93.135 115.25C93.135 103.317 102.846 93.8321 115.063 93.8321C127.28 93.8321 136.992 103.317 136.992 115.25C136.992 127.183 126.967 136.668 115.063 136.668Z" fill="#AAAAAA"/>
</svg>
