<svg width="230" height="230" viewBox="0 0 230 230" fill="none" xmlns="http://www.w3.org/2000/svg">
<path d="M167.902 115.25C167.902 113.509 167.902 112.116 167.547 110.374L180.658 100.623C183.493 98.5336 184.201 94.7027 182.43 91.5684L169.319 68.9316C167.547 65.7973 163.649 64.7525 160.46 66.1455L145.224 72.4142C142.743 70.6729 139.908 68.9316 137.074 67.5386L134.948 51.5187C134.593 48.0361 131.404 45.25 127.861 45.25H101.285C97.7415 45.25 94.5524 48.0361 94.198 51.5187L92.072 67.5386C89.2372 68.9316 86.4025 70.3246 83.9221 72.4142L68.6853 66.1455C65.4962 64.7525 61.5984 66.1455 59.8267 68.9316L46.7159 91.5684C44.9442 94.7027 45.6529 98.5336 48.4876 100.623L61.5984 110.374C61.5984 112.116 61.5984 113.509 61.5984 115.25C61.5984 116.991 61.5984 118.384 61.9527 120.126L48.842 129.877C46.0072 131.966 45.2986 135.797 47.0703 138.932L60.181 161.568C61.9527 164.703 65.8505 165.748 69.0396 164.354L84.2764 158.086C86.7568 159.827 89.5916 161.568 92.4263 162.961L94.5524 178.981C94.9067 182.464 98.0958 185.25 101.639 185.25H128.215C131.759 185.25 134.948 182.464 135.302 178.981L137.428 162.961C140.263 161.568 143.098 160.175 145.578 158.086L160.815 164.354C164.004 165.748 167.902 164.354 169.673 161.568L182.784 138.932C184.556 135.797 183.847 131.966 181.012 129.877L167.902 120.126C167.902 118.384 167.902 116.991 167.902 115.25ZM115.104 139.628C101.285 139.628 90.3003 128.832 90.3003 115.25C90.3003 101.668 101.285 90.8719 115.104 90.8719C128.924 90.8719 139.908 101.668 139.908 115.25C139.908 128.832 128.569 139.628 115.104 139.628Z" fill="#AAAAAA"/>
</svg>
