<svg width="230" height="230" viewBox="0 0 230 230" fill="none" xmlns="http://www.w3.org/2000/svg">
<path d="M161.739 114.75C161.739 113.22 161.739 111.996 161.426 110.466L173.016 101.899C175.523 100.063 176.149 96.6978 174.583 93.944L162.992 74.056C161.426 71.3022 157.98 70.3843 155.161 71.6082L141.69 77.1157C139.498 75.5858 136.992 74.056 134.485 72.8321L132.606 58.7575C132.293 55.6978 129.473 53.25 126.341 53.25H102.846C99.7135 53.25 96.8941 55.6978 96.5809 58.7575L94.7013 72.8321C92.1952 74.056 89.6891 75.2799 87.4963 77.1157L74.0261 71.6082C71.2068 70.3843 67.7609 71.6082 66.1946 74.056L54.6039 93.944C53.0376 96.6978 53.6642 100.063 56.1702 101.899L67.7609 110.466C67.7609 111.996 67.7609 113.22 67.7609 114.75C67.7609 116.28 67.7609 117.504 68.0741 119.034L56.4835 127.601C53.9774 129.437 53.3509 132.802 54.9172 135.556L66.5078 155.444C68.0741 158.198 71.52 159.116 74.3394 157.892L87.8096 152.384C90.0024 153.914 92.5085 155.444 95.0146 156.668L96.8941 170.743C97.2074 173.802 100.027 176.25 103.159 176.25H126.654C129.787 176.25 132.606 173.802 132.919 170.743L134.799 156.668C137.305 155.444 139.811 154.22 142.004 152.384L155.474 157.892C158.293 159.116 161.739 157.892 163.305 155.444L174.896 135.556C176.462 132.802 175.836 129.437 173.33 127.601L161.739 119.034C161.739 117.504 161.739 116.28 161.739 114.75ZM115.063 136.168C102.846 136.168 93.135 126.683 93.135 114.75C93.135 102.817 102.846 93.3321 115.063 93.3321C127.28 93.3321 136.992 102.817 136.992 114.75C136.992 126.683 126.967 136.168 115.063 136.168Z" fill="#AAAAAA"/>
</svg>
