<svg width="218" height="218" viewBox="0 0 218 218" fill="none" xmlns="http://www.w3.org/2000/svg">
<g clip-path="url(#clip0_29017_45)">
<path d="M156.944 109.09C156.944 107.521 156.944 106.265 156.625 104.696L168.425 95.907C170.977 94.0237 171.615 90.5711 170.02 87.7461L158.22 67.3439C156.625 64.519 153.117 63.5773 150.246 64.8328L136.532 70.4827C134.3 68.9133 131.748 67.3439 129.197 66.0884L127.283 51.6499C126.964 48.511 124.094 46 120.905 46H96.9848C93.7955 46 90.9251 48.511 90.6062 51.6499L88.6926 66.0884C86.1412 67.3439 83.5897 68.5994 81.3572 70.4827L67.6431 64.8328C64.7728 63.5773 61.2645 64.8328 59.6699 67.3439L47.8694 87.7461C46.2747 90.5711 46.9126 94.0237 49.4641 95.907L61.2645 104.696C61.2645 106.265 61.2645 107.521 61.2645 109.09C61.2645 110.659 61.2645 111.915 61.5834 113.484L49.783 122.273C47.2315 124.156 46.5937 127.609 48.1883 130.434L59.9888 150.836C61.5834 153.661 65.0917 154.603 67.9621 153.347L81.6761 147.697C83.9086 149.267 86.4601 150.836 89.0115 152.092L90.9251 166.53C91.2441 169.669 94.1144 172.18 97.3038 172.18H121.224C124.413 172.18 127.283 169.669 127.602 166.53L129.516 152.092C132.067 150.836 134.619 149.581 136.851 147.697L150.565 153.347C153.436 154.603 156.944 153.347 158.539 150.836L170.339 130.434C171.934 127.609 171.296 124.156 168.744 122.273L156.944 113.484C156.944 111.915 156.944 110.659 156.944 109.09ZM109.423 131.062C96.9848 131.062 87.098 121.331 87.098 109.09C87.098 96.8487 96.9848 87.1184 109.423 87.1184C121.861 87.1184 131.748 96.8487 131.748 109.09C131.748 121.331 121.543 131.062 109.423 131.062Z" fill="#AAAAAA"/>
</g>
<defs>
<clipPath id="clip0_29017_45">
<rect width="155.294" height="155.294" fill="white" transform="translate(31 31)"/>
</clipPath>
</defs>
</svg>
