<svg width="230" height="230" viewBox="0 0 230 230" fill="none" xmlns="http://www.w3.org/2000/svg">
<path d="M164.956 114.5C164.956 112.846 164.956 111.522 164.619 109.868L177.065 100.604C179.756 98.6194 180.429 94.9801 178.747 92.0025L166.301 70.4975C164.619 67.5199 160.919 66.5274 157.892 67.8507L143.428 73.806C141.073 72.1517 138.382 70.4975 135.691 69.1741L133.673 53.9552C133.337 50.6468 130.309 48 126.946 48H101.718C98.3542 48 95.3269 50.6468 94.9905 53.9552L92.9723 69.1741C90.2813 70.4975 87.5904 71.8209 85.2358 73.806L70.7719 67.8507C67.7445 66.5274 64.0445 67.8507 62.3626 70.4975L49.9169 92.0025C48.2351 94.9801 48.9078 98.6194 51.5988 100.604L64.0445 109.868C64.0445 111.522 64.0445 112.846 64.0445 114.5C64.0445 116.154 64.0445 117.478 64.3808 119.132L51.9352 128.396C49.2442 130.381 48.5715 134.02 50.2533 136.998L62.699 158.502C64.3808 161.48 68.0809 162.473 71.1083 161.149L85.5722 155.194C87.9268 156.848 90.6177 158.502 93.3087 159.826L95.3269 175.045C95.6633 178.353 98.6906 181 102.054 181H127.282C130.646 181 133.673 178.353 134.009 175.045L136.028 159.826C138.719 158.502 141.41 157.179 143.764 155.194L158.228 161.149C161.255 162.473 164.956 161.149 166.637 158.502L179.083 136.998C180.765 134.02 180.092 130.381 177.401 128.396L164.956 119.132C164.956 117.478 164.956 116.154 164.956 114.5ZM114.836 137.659C101.718 137.659 91.2905 127.403 91.2905 114.5C91.2905 101.597 101.718 91.3408 114.836 91.3408C127.955 91.3408 138.382 101.597 138.382 114.5C138.382 127.403 127.618 137.659 114.836 137.659Z" fill="#AAAAAA"/>
</svg>
