<svg width="230" height="230" viewBox="0 0 230 230" fill="none" xmlns="http://www.w3.org/2000/svg">
<rect x="5.11133" y="6" width="218" height="218" rx="50" fill="#808080" fill-opacity="0.5"/>
<path d="M171.118 114.5C171.118 112.647 171.118 111.164 170.741 109.311L184.706 98.9328C187.726 96.709 188.481 92.6318 186.594 89.296L172.628 65.204C170.741 61.8682 166.589 60.7562 163.191 62.2388L146.961 68.9104C144.319 67.0572 141.299 65.204 138.28 63.7214L136.015 46.6716C135.637 42.9652 132.24 40 128.466 40H100.157C96.3822 40 92.9851 42.9652 92.6077 46.6716L90.343 63.7214C87.3233 65.204 84.3037 66.6866 81.6615 68.9104L65.431 62.2388C62.034 60.7562 57.882 62.2388 55.9947 65.204L42.0289 89.296C40.1417 92.6318 40.8966 96.709 43.9162 98.9328L57.882 109.311C57.882 111.164 57.882 112.647 57.882 114.5C57.882 116.353 57.882 117.836 58.2594 119.689L44.2936 130.067C41.274 132.291 40.5191 136.368 42.4064 139.704L56.3722 163.796C58.2594 167.132 62.4114 168.244 65.8085 166.761L82.039 160.09C84.6812 161.943 87.7008 163.796 90.7204 165.279L92.9851 182.328C93.3626 186.035 96.7597 189 100.534 189H128.843C132.618 189 136.015 186.035 136.392 182.328L138.657 165.279C141.677 163.796 144.696 162.313 147.338 160.09L163.569 166.761C166.966 168.244 171.118 166.761 173.005 163.796L186.971 139.704C188.858 136.368 188.103 132.291 185.084 130.067L171.118 119.689C171.118 117.836 171.118 116.353 171.118 114.5ZM114.877 140.445C100.157 140.445 88.4557 128.955 88.4557 114.5C88.4557 100.045 100.157 88.5547 114.877 88.5547C129.598 88.5547 141.299 100.045 141.299 114.5C141.299 128.955 129.221 140.445 114.877 140.445Z" fill="#AAAAAA"/>
</svg>
