<?xml version="1.0" encoding="utf-8"?>
<!-- Generator: Adobe Illustrator 28.3.0, SVG Export Plug-In . SVG Version: 6.00 Build 0)  -->
<svg version="1.1" id="Слой_1" xmlns="http://www.w3.org/2000/svg" xmlns:xlink="http://www.w3.org/1999/xlink" x="0px" y="0px"
	 viewBox="0 0 48 48" style="enable-background:new 0 0 48 48;" xml:space="preserve">
<style type="text/css">
	.st0{fill:none;}
	.st1{fill:#FFFFFF;stroke:#000000;stroke-width:2;stroke-miterlimit:10;}
</style>
<rect y="0" class="st0" width="48" height="48"/>
<path class="st1" d="M39,24c0-0.5,0-0.9-0.1-1.4l3.7-2.8c0.8-0.6,1-1.7,0.5-2.6l-3.7-6.5c-0.5-0.9-1.6-1.2-2.5-0.8l-4.3,1.8
	c-0.7-0.5-1.5-1-2.3-1.4l-0.6-4.6c-0.1-1-1-1.8-2-1.8h-7.5c-1,0-1.9,0.8-2,1.8l-0.6,4.6c-0.8,0.4-1.6,0.8-2.3,1.4L11,9.9
	c-0.9-0.4-2,0-2.5,0.8l-3.7,6.5c-0.5,0.9-0.3,2,0.5,2.6L9,22.6c0,0.5,0,0.9,0,1.4s0,0.9,0.1,1.4l-3.7,2.8c-0.8,0.6-1,1.7-0.5,2.6
	l3.7,6.5c0.5,0.9,1.6,1.2,2.5,0.8l4.3-1.8c0.7,0.5,1.5,1,2.3,1.4l0.6,4.6c0.1,1,1,1.8,2,1.8h7.5c1,0,1.9-0.8,2-1.8l0.6-4.6
	c0.8-0.4,1.6-0.8,2.3-1.4l4.3,1.8c0.9,0.4,2,0,2.5-0.8l3.7-6.5c0.5-0.9,0.3-2-0.5-2.6L39,25.4C39,24.9,39,24.5,39,24z M24.1,31
	c-3.9,0-7-3.1-7-7s3.1-7,7-7s7,3.1,7,7S27.9,31,24.1,31z"/>
</svg>
