<svg width="230" height="230" viewBox="0 0 230 230" fill="none" xmlns="http://www.w3.org/2000/svg">
<rect x="5.77734" y="6" width="218" height="218" rx="50" fill="#808080" fill-opacity="0.5"/>
<path d="M90.9915 153.727C96.2401 153.727 100.495 157.986 100.495 163.239C100.495 168.492 96.2401 172.75 90.9915 172.75H60.7534C55.5048 172.75 51.25 168.492 51.25 163.239C51.25 157.986 55.5048 153.727 60.7534 153.727H90.9915ZM128.141 105.739C133.39 105.739 137.645 109.997 137.645 115.25C137.645 120.503 133.39 124.761 128.141 124.761H60.7534C55.5048 124.761 51.25 120.503 51.25 115.25C51.25 109.997 55.5048 105.739 60.7534 105.739H128.141ZM168.747 57.75C173.995 57.75 178.25 62.0083 178.25 67.2613C178.25 72.5142 173.995 76.7726 168.747 76.7726H60.7534C55.5048 76.7726 51.25 72.5142 51.25 67.2613C51.25 62.0083 55.5048 57.75 60.7534 57.75H168.747Z" fill="#AAAAAA"/>
</svg>
