<svg width="156" height="156" viewBox="0 0 156 156" fill="none" xmlns="http://www.w3.org/2000/svg">
<g clip-path="url(#clip0_28679_18)">
<path d="M23.9583 117C22.5535 117 21.3761 116.524 20.4263 115.571C19.4754 114.62 19 113.441 19 112.033C19 110.626 19.4754 109.457 20.4263 108.524C21.3761 107.591 22.5535 107.125 23.9583 107.125H53.7083C55.1132 107.125 56.2911 107.601 57.242 108.554C58.1918 109.505 58.6667 110.684 58.6667 112.092C58.6667 113.499 58.1918 114.668 57.242 115.601C56.2911 116.534 55.1132 117 53.7083 117H23.9583ZM23.9583 82.4375C22.5535 82.4375 21.3761 81.9613 20.4263 81.0089C19.4754 80.0576 19 78.8781 19 77.4704C19 76.0637 19.4754 74.8941 20.4263 73.9615C21.3761 73.0288 22.5535 72.5625 23.9583 72.5625H93.375C94.7799 72.5625 95.9577 73.0387 96.9086 73.9911C97.8584 74.9424 98.3333 76.1219 98.3333 77.5296C98.3333 78.9363 97.8584 80.1059 96.9086 81.0385C95.9577 81.9712 94.7799 82.4375 93.375 82.4375H23.9583ZM23.9583 47.875C22.5535 47.875 21.3761 47.3988 20.4263 46.4464C19.4754 45.4951 19 44.3156 19 42.9079C19 41.5012 19.4754 40.3316 20.4263 39.399C21.3761 38.4663 22.5535 38 23.9583 38H133.042C134.447 38 135.624 38.4762 136.575 39.4286C137.525 40.3799 138 41.5594 138 42.9671C138 44.3738 137.525 45.5434 136.575 46.476C135.624 47.4087 134.447 47.875 133.042 47.875H23.9583Z" fill="#AAAAAA"/>
</g>
<defs>
<clipPath id="clip0_28679_18">
<rect width="155.294" height="155.294" fill="white"/>
</clipPath>
</defs>
</svg>
