<svg width="156" height="156" viewBox="0 0 156 156" fill="none" xmlns="http://www.w3.org/2000/svg">
<g clip-path="url(#clip0_28679_18)">
<path d="M8.82076 133.41C6.25123 133.41 4.13872 132.536 2.48323 130.787C0.827744 129.039 0 126.888 0 124.334C0 121.779 0.827744 119.648 2.48323 117.943C4.13872 116.238 6.25123 115.385 8.82076 115.385H44.2955C46.8497 115.385 48.9904 116.259 50.7174 118.008C52.4445 119.756 53.3081 121.944 53.3081 124.574C53.3081 127.204 52.4445 129.334 50.7174 130.965C48.9904 132.595 46.8497 133.41 44.2955 133.41H8.82076ZM8.82076 86.6216C6.25123 86.6216 4.13872 85.7472 2.48323 83.9984C0.827744 82.2509 0 80.1 0 77.5458C0 74.9904 0.827744 72.86 2.48323 71.1546C4.13872 69.4493 6.25123 68.5966 8.82076 68.5966H91.4674C94.0203 68.5966 96.161 69.5081 97.8893 71.331C99.6164 73.1553 100.48 75.3445 100.48 77.8987C100.48 80.4529 99.6164 82.5455 97.8893 84.1768C96.161 85.8067 94.0203 86.6216 91.4674 86.6216H8.82076ZM8.82076 39.8333C6.25123 39.8333 4.13872 38.9589 2.48323 37.2101C0.827744 35.4625 0 33.3059 0 30.7402C0 28.1745 0.871209 26.0761 2.61363 24.4449C4.35477 22.815 6.48773 22 9.01251 22H138.831C141.384 22 143.525 22.8744 145.253 24.6232C146.98 26.3707 147.844 28.5274 147.844 31.093C147.844 33.6587 146.937 35.7572 145.123 37.3884C143.31 39.0183 141.149 39.8333 138.639 39.8333H8.82076Z" fill="#AAAAAA"/>
</g>
<defs>
<clipPath id="clip0_28679_18">
<rect width="155.294" height="155.294" fill="white"/>
</clipPath>
</defs>
</svg>
