<svg width="230" height="230" viewBox="0 0 230 230" fill="none" xmlns="http://www.w3.org/2000/svg">
<path d="M90.9915 153.227C96.2401 153.227 100.495 157.486 100.495 162.739C100.495 167.992 96.2401 172.25 90.9915 172.25H60.7534C55.5048 172.25 51.25 167.992 51.25 162.739C51.25 157.486 55.5048 153.227 60.7534 153.227H90.9915ZM128.141 105.239C133.39 105.239 137.645 109.497 137.645 114.75C137.645 120.003 133.39 124.261 128.141 124.261H60.7534C55.5048 124.261 51.25 120.003 51.25 114.75C51.25 109.497 55.5048 105.239 60.7534 105.239H128.141ZM168.747 57.25C173.995 57.25 178.25 61.5083 178.25 66.7613C178.25 72.0142 173.995 76.2726 168.747 76.2726H60.7534C55.5048 76.2726 51.25 72.0142 51.25 66.7613C51.25 61.5083 55.5048 57.25 60.7534 57.25H168.747Z" fill="#AAAAAA"/>
</svg>
