<svg width="156" height="156" viewBox="0 0 156 156" fill="none" xmlns="http://www.w3.org/2000/svg">
<g clip-path="url(#clip0_28789_2)">
<circle cx="78.5" cy="76.5" r="61.5" fill="#CC3030"/>
<path d="M73.1195 101.684C74.163 100.651 75.5363 100.018 76.9991 99.8963C77.9229 99.8319 78.8495 99.971 79.7137 100.304C80.563 100.629 81.3339 101.13 81.9759 101.774C82.7079 102.502 83.2498 103.399 83.5535 104.385C83.8573 105.372 83.9137 106.418 83.7177 107.432C83.6178 107.957 83.4584 108.47 83.2427 108.959C82.7297 110.086 81.8961 111.037 80.846 111.693C79.796 112.349 78.576 112.681 77.3384 112.648C76.4505 112.626 75.5765 112.422 74.7709 112.048C73.3518 111.371 72.2407 110.183 71.6604 108.722C71.464 108.262 71.3272 107.779 71.2532 107.285C71.175 106.795 71.1522 106.298 71.1854 105.802C71.2781 105.019 71.4957 104.255 71.8301 103.54C72.1331 102.868 72.5722 102.267 73.1195 101.774V101.684ZM82.3378 90.0979C82.1229 95.5175 72.9386 95.5288 72.735 90.0979C71.8075 80.8086 69.4322 56.901 69.5001 48.1775C69.5793 45.4846 71.7622 43.8892 74.6578 43.2783C76.5247 42.9072 78.4463 42.9072 80.3132 43.2783C83.2653 43.9119 85.5727 45.5412 85.5727 48.3019V48.5735L82.3378 90.0979Z" fill="white"/>
</g>
<defs>
<clipPath id="clip0_28789_2">
<rect width="155.294" height="155.294" fill="white"/>
</clipPath>
</defs>
</svg>
