<svg width="156" height="156" viewBox="0 0 156 156" fill="none" xmlns="http://www.w3.org/2000/svg">
<g clip-path="url(#clip0_28789_2)">
<path d="M101.537 19.5978C101.802 19.5978 102.057 19.7031 102.244 19.8907L134.942 52.5884C135.13 52.776 135.235 53.0303 135.235 53.2956L135.235 99.5372C135.235 99.8024 135.13 100.057 134.942 100.244L102.244 132.942C102.057 133.13 101.802 133.235 101.537 133.235L55.2956 133.235C55.0303 133.235 54.776 133.13 54.5884 132.942L21.8907 100.244C21.7031 100.057 21.5978 99.8024 21.5978 99.5372L21.5978 53.2956C21.5978 53.0303 21.7031 52.776 21.8907 52.5884L54.5884 19.8907C54.776 19.7031 55.0303 19.5978 55.2956 19.5978L101.537 19.5978Z" fill="#CC3030"/>
<path d="M73.6209 100.684C74.6643 99.6511 76.0376 99.0183 77.5005 98.8963C78.4242 98.8319 79.3508 98.971 80.215 99.3036C81.0644 99.6288 81.8353 100.13 82.4772 100.774C83.2093 101.502 83.7511 102.399 84.0549 103.385C84.3586 104.372 84.415 105.418 84.2191 106.432C84.1192 106.957 83.9598 107.47 83.744 107.959C83.231 109.086 82.3974 110.037 81.3474 110.693C80.2973 111.349 79.0773 111.681 77.8398 111.648C76.9519 111.626 76.0779 111.422 75.2722 111.048C73.8531 110.371 72.7421 109.183 72.1618 107.722C71.9653 107.262 71.8285 106.779 71.7546 106.285C71.6763 105.795 71.6536 105.298 71.6867 104.802C71.7794 104.019 71.9971 103.255 72.3314 102.54C72.6344 101.868 73.0735 101.267 73.6209 100.774V100.684ZM82.8391 89.0979C82.6242 94.5175 73.4399 94.5289 73.2363 89.0979C72.3088 79.8086 69.9336 55.901 70.0014 47.1775C70.0806 44.4846 72.2636 42.8892 75.1591 42.2783C77.026 41.9072 78.9476 41.9072 80.8145 42.2783C83.7666 42.9119 86.074 44.5412 86.074 47.3019V47.5735L82.8391 89.0979Z" fill="white"/>
</g>
<defs>
<clipPath id="clip0_28789_2">
<rect width="155.294" height="155.294" fill="white"/>
</clipPath>
</defs>
</svg>
