<svg width="150" height="150" viewBox="0 0 150 150" fill="none" xmlns="http://www.w3.org/2000/svg">
<path d="M108.725 96.7336H101.917L99.5045 94.3594C109.846 82.0485 115.189 65.253 112.259 47.4023C108.208 22.9564 88.2154 3.43495 64.0862 0.445174C27.6338 -4.12743 -3.04488 27.1773 1.43627 64.3736C4.36625 88.9953 23.4973 109.396 47.4542 113.529C64.9479 116.519 81.4075 111.067 93.4722 100.515L95.7989 102.977V109.924L132.51 147.296C136.043 150.901 141.731 150.901 145.264 147.296L145.35 147.208C148.883 143.603 148.883 137.799 145.35 134.194L108.725 96.7336ZM57.0198 96.7336C35.5619 96.7336 18.2406 79.0587 18.2406 57.163C18.2406 35.2673 35.5619 17.5924 57.0198 17.5924C78.4776 17.5924 95.7989 35.2673 95.7989 57.163C95.7989 79.0587 78.4776 96.7336 57.0198 96.7336ZM39.7846 52.7663H74.2549C76.6679 52.7663 78.5637 54.7008 78.5637 57.163C78.5637 59.6252 76.6679 61.5597 74.2549 61.5597H39.7846C37.3716 61.5597 35.4758 59.6252 35.4758 57.163C35.4758 54.7008 37.3716 52.7663 39.7846 52.7663Z" fill="white"/>
</svg>
