<svg width="150" height="150" viewBox="0 0 150 150" fill="none" xmlns="http://www.w3.org/2000/svg">
<path d="M108.721 96.7336H101.913L99.4996 94.3594C109.842 82.0485 115.185 65.253 112.255 47.4023C108.204 22.9564 88.2095 3.43495 64.0778 0.445174C27.6217 -4.12743 -2.9738 27.1773 1.42162 64.3736C4.35189 88.9953 23.4849 109.396 47.4442 113.529C64.9396 116.519 81.4009 111.067 93.4667 100.515L95.7937 102.977V109.924L132.508 147.296C136.042 150.901 141.73 150.901 145.264 147.296L145.35 147.208C148.883 143.603 148.883 137.799 145.35 134.194L108.721 96.7336ZM57.0107 96.7336C35.5507 96.7336 18.2276 79.0587 18.2276 57.163C18.2276 35.2673 35.5507 17.5924 57.0107 17.5924C78.4706 17.5924 95.7937 35.2673 95.7937 57.163C95.7937 79.0587 78.4706 96.7336 57.0107 96.7336ZM57.0107 35.1794C54.5975 35.1794 52.7014 37.1139 52.7014 39.5761V52.7663H39.7737C37.3606 52.7663 35.4645 54.7008 35.4645 57.163C35.4645 59.6252 37.3606 61.5597 39.7737 61.5597H52.7014V74.7499C52.7014 77.2121 54.5975 79.1467 57.0107 79.1467C59.4238 79.1467 61.3199 77.2121 61.3199 74.7499V61.5597H74.2476C76.6607 61.5597 78.5568 59.6252 78.5568 57.163C78.5568 54.7008 76.6607 52.7663 74.2476 52.7663H61.3199V39.5761C61.3199 37.1139 59.4238 35.1794 57.0107 35.1794Z" fill="white"/>
</svg>
