<svg width="150" height="150" viewBox="0 0 150 150" fill="none" xmlns="http://www.w3.org/2000/svg">
<path d="M74.5 92.4219L21.5054 146.32C19.1975 148.68 16.3569 149.905 12.9837 149.995C9.61051 150.086 6.8587 148.861 4.72826 146.32C2.24275 143.961 1 141.103 1 137.746C1 134.388 2.24275 131.439 4.72826 128.899L57.7228 75.0002L4.72826 20.8295C2.24275 18.4703 1 15.612 1 12.2547C1 8.89739 2.24275 5.94839 4.72826 3.40772C6.8587 1.04853 9.61051 -0.0856972 12.9837 0.00504101C16.3569 0.0957792 19.1975 1.32074 21.5054 3.67994L74.5 57.5784L127.495 3.67994C129.803 1.32074 132.643 0.0957792 136.016 0.00504101C139.389 -0.0856972 142.141 1.04853 144.272 3.40772C146.757 5.94839 148 8.89739 148 12.2547C148 15.612 146.846 18.4703 144.538 20.8295L91.5435 75.0002L144.538 128.899C146.846 131.439 148 134.388 148 137.746C148 141.103 146.757 143.961 144.272 146.32C142.141 148.861 139.389 150.086 136.016 149.995C132.643 149.905 129.803 148.68 127.495 146.32L74.5 92.4219Z" fill="#E8EAED"/>
</svg>
