<svg width="150" height="150" viewBox="0 0 150 150" fill="none" xmlns="http://www.w3.org/2000/svg">
<path d="M132.201 52.5701H104.724C100.218 52.5701 96.4813 48.757 96.4813 44.1589V16.1215C96.4813 11.5234 100.218 7.71028 104.724 7.71028C109.23 7.71028 112.967 11.5234 112.967 16.1215V23.8598L133.959 2.43925C137.147 -0.813084 142.422 -0.813084 145.61 2.43925C148.797 5.69159 148.797 11.0748 145.61 14.3271L124.617 35.7477H132.201C136.707 35.7477 140.444 39.5608 140.444 44.1589C140.444 48.757 136.707 52.5701 132.201 52.5701ZM8.55608 44.1589C8.55608 39.5608 12.2929 35.7477 16.7991 35.7477H24.3826L3.39047 14.3271C0.203178 11.0748 0.203178 5.69159 3.39047 2.43925C6.57776 -0.813084 11.8533 -0.813084 15.0406 2.43925L36.0327 23.8598V16.1215C36.0327 11.5234 39.7695 7.71028 44.2757 7.71028C48.7819 7.71028 52.5187 11.5234 52.5187 16.1215V44.1589C52.5187 48.757 48.7819 52.5701 44.2757 52.5701H16.7991C12.2929 52.5701 8.55608 48.757 8.55608 44.1589ZM140.444 105.841C140.444 110.439 136.707 114.252 132.201 114.252H124.617L145.61 135.673C148.797 138.925 148.797 144.308 145.61 147.561C142.422 150.813 137.147 150.813 133.959 147.561L112.967 126.14V133.879C112.967 138.477 109.23 142.29 104.724 142.29C100.218 142.29 96.4813 138.477 96.4813 133.879V105.841C96.4813 101.243 100.218 97.4299 104.724 97.4299H132.201C136.707 97.4299 140.444 101.243 140.444 105.841ZM16.7991 97.4299H44.2757C48.7819 97.4299 52.5187 101.243 52.5187 105.841V133.879C52.5187 138.477 48.7819 142.29 44.2757 142.29C39.7695 142.29 36.0327 138.477 36.0327 133.879V126.14L15.0406 147.561C11.8533 150.813 6.57776 150.813 3.39047 147.561C0.203178 144.308 0.203178 138.925 3.39047 135.673L24.3826 114.252H16.7991C12.2929 114.252 8.55608 110.439 8.55608 105.841C8.55608 101.243 12.2929 97.4299 16.7991 97.4299Z" fill="white"/>
</svg>
